G75*
%MOIN*%
%OFA0B0*%
%FSLAX25Y25*%
%IPPOS*%
%LPD*%
%AMOC8*
5,1,8,0,0,1.08239X$1,22.5*
%
%ADD10C,0.00000*%
%ADD11C,0.01000*%
%ADD12C,0.00700*%
%ADD13C,0.00400*%
%ADD14C,0.00300*%
%ADD15C,0.00800*%
%ADD16C,0.00600*%
%ADD17C,0.00500*%
%ADD18C,0.00315*%
%ADD19C,0.00200*%
%ADD20C,0.02000*%
D10*
X0055902Y0001800D02*
X0055902Y0277391D01*
X0410233Y0277391D01*
X0410233Y0001800D01*
X0055902Y0001800D01*
X0089370Y0096149D02*
X0089372Y0096254D01*
X0089378Y0096359D01*
X0089388Y0096463D01*
X0089402Y0096567D01*
X0089420Y0096671D01*
X0089442Y0096773D01*
X0089467Y0096875D01*
X0089497Y0096976D01*
X0089530Y0097075D01*
X0089567Y0097173D01*
X0089608Y0097270D01*
X0089653Y0097365D01*
X0089701Y0097458D01*
X0089752Y0097550D01*
X0089808Y0097639D01*
X0089866Y0097726D01*
X0089928Y0097811D01*
X0089992Y0097894D01*
X0090060Y0097974D01*
X0090131Y0098051D01*
X0090205Y0098125D01*
X0090282Y0098197D01*
X0090361Y0098266D01*
X0090443Y0098331D01*
X0090527Y0098394D01*
X0090614Y0098453D01*
X0090703Y0098509D01*
X0090794Y0098562D01*
X0090887Y0098611D01*
X0090981Y0098656D01*
X0091077Y0098698D01*
X0091175Y0098736D01*
X0091274Y0098770D01*
X0091375Y0098801D01*
X0091476Y0098827D01*
X0091579Y0098850D01*
X0091682Y0098869D01*
X0091786Y0098884D01*
X0091890Y0098895D01*
X0091995Y0098902D01*
X0092100Y0098905D01*
X0092205Y0098904D01*
X0092310Y0098899D01*
X0092414Y0098890D01*
X0092518Y0098877D01*
X0092622Y0098860D01*
X0092725Y0098839D01*
X0092827Y0098814D01*
X0092928Y0098786D01*
X0093027Y0098753D01*
X0093126Y0098717D01*
X0093223Y0098677D01*
X0093318Y0098634D01*
X0093412Y0098586D01*
X0093504Y0098536D01*
X0093594Y0098482D01*
X0093682Y0098424D01*
X0093767Y0098363D01*
X0093850Y0098299D01*
X0093931Y0098232D01*
X0094009Y0098162D01*
X0094084Y0098088D01*
X0094156Y0098013D01*
X0094226Y0097934D01*
X0094292Y0097853D01*
X0094356Y0097769D01*
X0094416Y0097683D01*
X0094472Y0097595D01*
X0094526Y0097504D01*
X0094576Y0097412D01*
X0094622Y0097318D01*
X0094665Y0097222D01*
X0094704Y0097124D01*
X0094739Y0097026D01*
X0094770Y0096925D01*
X0094798Y0096824D01*
X0094822Y0096722D01*
X0094842Y0096619D01*
X0094858Y0096515D01*
X0094870Y0096411D01*
X0094878Y0096306D01*
X0094882Y0096201D01*
X0094882Y0096097D01*
X0094878Y0095992D01*
X0094870Y0095887D01*
X0094858Y0095783D01*
X0094842Y0095679D01*
X0094822Y0095576D01*
X0094798Y0095474D01*
X0094770Y0095373D01*
X0094739Y0095272D01*
X0094704Y0095174D01*
X0094665Y0095076D01*
X0094622Y0094980D01*
X0094576Y0094886D01*
X0094526Y0094794D01*
X0094472Y0094703D01*
X0094416Y0094615D01*
X0094356Y0094529D01*
X0094292Y0094445D01*
X0094226Y0094364D01*
X0094156Y0094285D01*
X0094084Y0094210D01*
X0094009Y0094136D01*
X0093931Y0094066D01*
X0093850Y0093999D01*
X0093767Y0093935D01*
X0093682Y0093874D01*
X0093594Y0093816D01*
X0093504Y0093762D01*
X0093412Y0093712D01*
X0093318Y0093664D01*
X0093223Y0093621D01*
X0093126Y0093581D01*
X0093027Y0093545D01*
X0092928Y0093512D01*
X0092827Y0093484D01*
X0092725Y0093459D01*
X0092622Y0093438D01*
X0092518Y0093421D01*
X0092414Y0093408D01*
X0092310Y0093399D01*
X0092205Y0093394D01*
X0092100Y0093393D01*
X0091995Y0093396D01*
X0091890Y0093403D01*
X0091786Y0093414D01*
X0091682Y0093429D01*
X0091579Y0093448D01*
X0091476Y0093471D01*
X0091375Y0093497D01*
X0091274Y0093528D01*
X0091175Y0093562D01*
X0091077Y0093600D01*
X0090981Y0093642D01*
X0090887Y0093687D01*
X0090794Y0093736D01*
X0090703Y0093789D01*
X0090614Y0093845D01*
X0090527Y0093904D01*
X0090443Y0093967D01*
X0090361Y0094032D01*
X0090282Y0094101D01*
X0090205Y0094173D01*
X0090131Y0094247D01*
X0090060Y0094324D01*
X0089992Y0094404D01*
X0089928Y0094487D01*
X0089866Y0094572D01*
X0089808Y0094659D01*
X0089752Y0094748D01*
X0089701Y0094840D01*
X0089653Y0094933D01*
X0089608Y0095028D01*
X0089567Y0095125D01*
X0089530Y0095223D01*
X0089497Y0095322D01*
X0089467Y0095423D01*
X0089442Y0095525D01*
X0089420Y0095627D01*
X0089402Y0095731D01*
X0089388Y0095835D01*
X0089378Y0095939D01*
X0089372Y0096044D01*
X0089370Y0096149D01*
X0089370Y0117802D02*
X0089372Y0117907D01*
X0089378Y0118012D01*
X0089388Y0118116D01*
X0089402Y0118220D01*
X0089420Y0118324D01*
X0089442Y0118426D01*
X0089467Y0118528D01*
X0089497Y0118629D01*
X0089530Y0118728D01*
X0089567Y0118826D01*
X0089608Y0118923D01*
X0089653Y0119018D01*
X0089701Y0119111D01*
X0089752Y0119203D01*
X0089808Y0119292D01*
X0089866Y0119379D01*
X0089928Y0119464D01*
X0089992Y0119547D01*
X0090060Y0119627D01*
X0090131Y0119704D01*
X0090205Y0119778D01*
X0090282Y0119850D01*
X0090361Y0119919D01*
X0090443Y0119984D01*
X0090527Y0120047D01*
X0090614Y0120106D01*
X0090703Y0120162D01*
X0090794Y0120215D01*
X0090887Y0120264D01*
X0090981Y0120309D01*
X0091077Y0120351D01*
X0091175Y0120389D01*
X0091274Y0120423D01*
X0091375Y0120454D01*
X0091476Y0120480D01*
X0091579Y0120503D01*
X0091682Y0120522D01*
X0091786Y0120537D01*
X0091890Y0120548D01*
X0091995Y0120555D01*
X0092100Y0120558D01*
X0092205Y0120557D01*
X0092310Y0120552D01*
X0092414Y0120543D01*
X0092518Y0120530D01*
X0092622Y0120513D01*
X0092725Y0120492D01*
X0092827Y0120467D01*
X0092928Y0120439D01*
X0093027Y0120406D01*
X0093126Y0120370D01*
X0093223Y0120330D01*
X0093318Y0120287D01*
X0093412Y0120239D01*
X0093504Y0120189D01*
X0093594Y0120135D01*
X0093682Y0120077D01*
X0093767Y0120016D01*
X0093850Y0119952D01*
X0093931Y0119885D01*
X0094009Y0119815D01*
X0094084Y0119741D01*
X0094156Y0119666D01*
X0094226Y0119587D01*
X0094292Y0119506D01*
X0094356Y0119422D01*
X0094416Y0119336D01*
X0094472Y0119248D01*
X0094526Y0119157D01*
X0094576Y0119065D01*
X0094622Y0118971D01*
X0094665Y0118875D01*
X0094704Y0118777D01*
X0094739Y0118679D01*
X0094770Y0118578D01*
X0094798Y0118477D01*
X0094822Y0118375D01*
X0094842Y0118272D01*
X0094858Y0118168D01*
X0094870Y0118064D01*
X0094878Y0117959D01*
X0094882Y0117854D01*
X0094882Y0117750D01*
X0094878Y0117645D01*
X0094870Y0117540D01*
X0094858Y0117436D01*
X0094842Y0117332D01*
X0094822Y0117229D01*
X0094798Y0117127D01*
X0094770Y0117026D01*
X0094739Y0116925D01*
X0094704Y0116827D01*
X0094665Y0116729D01*
X0094622Y0116633D01*
X0094576Y0116539D01*
X0094526Y0116447D01*
X0094472Y0116356D01*
X0094416Y0116268D01*
X0094356Y0116182D01*
X0094292Y0116098D01*
X0094226Y0116017D01*
X0094156Y0115938D01*
X0094084Y0115863D01*
X0094009Y0115789D01*
X0093931Y0115719D01*
X0093850Y0115652D01*
X0093767Y0115588D01*
X0093682Y0115527D01*
X0093594Y0115469D01*
X0093504Y0115415D01*
X0093412Y0115365D01*
X0093318Y0115317D01*
X0093223Y0115274D01*
X0093126Y0115234D01*
X0093027Y0115198D01*
X0092928Y0115165D01*
X0092827Y0115137D01*
X0092725Y0115112D01*
X0092622Y0115091D01*
X0092518Y0115074D01*
X0092414Y0115061D01*
X0092310Y0115052D01*
X0092205Y0115047D01*
X0092100Y0115046D01*
X0091995Y0115049D01*
X0091890Y0115056D01*
X0091786Y0115067D01*
X0091682Y0115082D01*
X0091579Y0115101D01*
X0091476Y0115124D01*
X0091375Y0115150D01*
X0091274Y0115181D01*
X0091175Y0115215D01*
X0091077Y0115253D01*
X0090981Y0115295D01*
X0090887Y0115340D01*
X0090794Y0115389D01*
X0090703Y0115442D01*
X0090614Y0115498D01*
X0090527Y0115557D01*
X0090443Y0115620D01*
X0090361Y0115685D01*
X0090282Y0115754D01*
X0090205Y0115826D01*
X0090131Y0115900D01*
X0090060Y0115977D01*
X0089992Y0116057D01*
X0089928Y0116140D01*
X0089866Y0116225D01*
X0089808Y0116312D01*
X0089752Y0116401D01*
X0089701Y0116493D01*
X0089653Y0116586D01*
X0089608Y0116681D01*
X0089567Y0116778D01*
X0089530Y0116876D01*
X0089497Y0116975D01*
X0089467Y0117076D01*
X0089442Y0117178D01*
X0089420Y0117280D01*
X0089402Y0117384D01*
X0089388Y0117488D01*
X0089378Y0117592D01*
X0089372Y0117697D01*
X0089370Y0117802D01*
D11*
X0107069Y0167300D02*
X0106402Y0167967D01*
X0107069Y0167300D02*
X0108404Y0167300D01*
X0109071Y0167967D01*
X0109071Y0168634D01*
X0108404Y0169302D01*
X0107069Y0169302D01*
X0106402Y0169969D01*
X0106402Y0170636D01*
X0107069Y0171303D01*
X0108404Y0171303D01*
X0109071Y0170636D01*
X0111006Y0171303D02*
X0111006Y0167300D01*
X0111006Y0168634D02*
X0113008Y0168634D01*
X0113675Y0169302D01*
X0113675Y0170636D01*
X0113008Y0171303D01*
X0111006Y0171303D01*
X0115610Y0171303D02*
X0116945Y0171303D01*
X0116277Y0171303D02*
X0116277Y0167300D01*
X0115610Y0167300D02*
X0116945Y0167300D01*
X0106077Y0267300D02*
X0106744Y0267967D01*
X0106077Y0267300D02*
X0104743Y0267300D01*
X0104075Y0267967D01*
X0104075Y0270636D01*
X0104743Y0271303D01*
X0106077Y0271303D01*
X0106744Y0270636D01*
X0102140Y0270636D02*
X0102140Y0269969D01*
X0099472Y0267300D01*
X0102140Y0267300D01*
X0102140Y0270636D02*
X0101473Y0271303D01*
X0100139Y0271303D01*
X0099472Y0270636D01*
X0097737Y0271303D02*
X0096402Y0271303D01*
X0097069Y0271303D02*
X0097069Y0267300D01*
X0096402Y0267300D02*
X0097737Y0267300D01*
X0227125Y0268346D02*
X0227792Y0267679D01*
X0229126Y0267679D01*
X0229794Y0268346D01*
X0229794Y0269680D01*
X0228459Y0269680D01*
X0227125Y0268346D02*
X0227125Y0271015D01*
X0227792Y0271682D01*
X0229126Y0271682D01*
X0229794Y0271015D01*
X0231729Y0271682D02*
X0233730Y0271682D01*
X0234398Y0271015D01*
X0234398Y0269680D01*
X0233730Y0269013D01*
X0231729Y0269013D01*
X0231729Y0267679D02*
X0231729Y0271682D01*
X0236333Y0271015D02*
X0236333Y0270348D01*
X0237000Y0269680D01*
X0238334Y0269680D01*
X0239002Y0269013D01*
X0239002Y0268346D01*
X0238334Y0267679D01*
X0237000Y0267679D01*
X0236333Y0268346D01*
X0236333Y0271015D02*
X0237000Y0271682D01*
X0238334Y0271682D01*
X0239002Y0271015D01*
X0240936Y0269680D02*
X0243605Y0269680D01*
X0245540Y0271682D02*
X0248209Y0271682D01*
X0246875Y0271682D02*
X0246875Y0267679D01*
X0250144Y0267679D02*
X0250144Y0271682D01*
X0252146Y0271682D01*
X0252813Y0271015D01*
X0252813Y0269680D01*
X0252146Y0269013D01*
X0250144Y0269013D01*
X0254748Y0269680D02*
X0255415Y0270348D01*
X0257417Y0270348D01*
X0256750Y0269013D02*
X0255415Y0269013D01*
X0254748Y0269680D01*
X0254748Y0267679D02*
X0256750Y0267679D01*
X0257417Y0268346D01*
X0256750Y0269013D01*
X0372125Y0183015D02*
X0372125Y0180346D01*
X0372792Y0179679D01*
X0374126Y0179679D01*
X0374794Y0180346D01*
X0374794Y0181680D01*
X0373459Y0181680D01*
X0372125Y0183015D02*
X0372792Y0183682D01*
X0374126Y0183682D01*
X0374794Y0183015D01*
X0376729Y0183682D02*
X0378730Y0183682D01*
X0379398Y0183015D01*
X0379398Y0181680D01*
X0378730Y0181013D01*
X0376729Y0181013D01*
X0376729Y0179679D02*
X0376729Y0183682D01*
X0381333Y0183015D02*
X0381333Y0182348D01*
X0382000Y0181680D01*
X0383334Y0181680D01*
X0384002Y0181013D01*
X0384002Y0180346D01*
X0383334Y0179679D01*
X0382000Y0179679D01*
X0381333Y0180346D01*
X0381333Y0183015D02*
X0382000Y0183682D01*
X0383334Y0183682D01*
X0384002Y0183015D01*
X0385936Y0181680D02*
X0388605Y0181680D01*
X0390540Y0181680D02*
X0393209Y0181680D01*
X0393209Y0182348D02*
X0393209Y0179679D01*
X0395144Y0179679D02*
X0395144Y0182348D01*
X0397146Y0182348D01*
X0397813Y0181680D01*
X0397813Y0179679D01*
X0400415Y0180346D02*
X0400415Y0183015D01*
X0399748Y0182348D02*
X0401083Y0182348D01*
X0400415Y0180346D02*
X0401083Y0179679D01*
X0402818Y0179679D02*
X0403485Y0179679D01*
X0403485Y0180346D01*
X0402818Y0180346D01*
X0402818Y0179679D01*
X0393209Y0182348D02*
X0391875Y0183682D01*
X0390540Y0182348D01*
X0390540Y0179679D01*
X0384002Y0176682D02*
X0381333Y0172679D01*
X0379398Y0173346D02*
X0378730Y0172679D01*
X0377396Y0172679D01*
X0376729Y0173346D01*
X0376729Y0176015D01*
X0377396Y0176682D01*
X0378730Y0176682D01*
X0379398Y0176015D01*
X0381333Y0176682D02*
X0384002Y0172679D01*
X0374794Y0172679D02*
X0374794Y0176682D01*
X0373459Y0175348D01*
X0372125Y0176682D01*
X0372125Y0172679D01*
X0375546Y0082450D02*
X0375546Y0078447D01*
X0374212Y0078447D02*
X0376881Y0078447D01*
X0378816Y0079114D02*
X0381484Y0081783D01*
X0381484Y0079114D01*
X0380817Y0078447D01*
X0379483Y0078447D01*
X0378816Y0079114D01*
X0378816Y0081783D01*
X0379483Y0082450D01*
X0380817Y0082450D01*
X0381484Y0081783D01*
X0375546Y0082450D02*
X0374212Y0081116D01*
X0374212Y0075450D02*
X0376213Y0075450D01*
X0376881Y0074783D01*
X0376881Y0073448D01*
X0376213Y0072781D01*
X0374212Y0072781D01*
X0375546Y0072781D02*
X0376881Y0071447D01*
X0378816Y0072114D02*
X0378816Y0073448D01*
X0379483Y0074116D01*
X0380817Y0074116D01*
X0381484Y0073448D01*
X0381484Y0072781D01*
X0378816Y0072781D01*
X0378816Y0072114D02*
X0379483Y0071447D01*
X0380817Y0071447D01*
X0384087Y0071447D02*
X0384087Y0074783D01*
X0384754Y0075450D01*
X0384754Y0073448D02*
X0383419Y0073448D01*
X0386489Y0073448D02*
X0389158Y0073448D01*
X0391093Y0072114D02*
X0391760Y0071447D01*
X0393094Y0071447D01*
X0393762Y0072114D01*
X0393762Y0074783D01*
X0393094Y0075450D01*
X0391760Y0075450D01*
X0391093Y0074783D01*
X0391093Y0072114D01*
X0395697Y0072114D02*
X0395697Y0074116D01*
X0395697Y0072114D02*
X0396364Y0071447D01*
X0398366Y0071447D01*
X0398366Y0074116D01*
X0400300Y0074116D02*
X0401635Y0074116D01*
X0400968Y0074783D02*
X0400968Y0072114D01*
X0401635Y0071447D01*
X0399900Y0078447D02*
X0397231Y0078447D01*
X0399900Y0081116D01*
X0397231Y0081116D01*
X0395296Y0080448D02*
X0392627Y0080448D01*
X0392627Y0078447D02*
X0392627Y0082450D01*
X0390692Y0082450D02*
X0389358Y0081116D01*
X0388023Y0082450D01*
X0388023Y0078447D01*
X0390692Y0078447D02*
X0390692Y0082450D01*
X0395296Y0082450D02*
X0395296Y0078447D01*
X0374212Y0075450D02*
X0374212Y0071447D01*
X0284789Y0079071D02*
X0284791Y0079138D01*
X0284797Y0079204D01*
X0284807Y0079270D01*
X0284821Y0079335D01*
X0284838Y0079399D01*
X0284860Y0079462D01*
X0284885Y0079524D01*
X0284914Y0079584D01*
X0284947Y0079642D01*
X0284982Y0079698D01*
X0285022Y0079752D01*
X0285064Y0079803D01*
X0285109Y0079852D01*
X0285157Y0079898D01*
X0285208Y0079941D01*
X0285261Y0079981D01*
X0285317Y0080018D01*
X0285375Y0080051D01*
X0285434Y0080081D01*
X0285495Y0080107D01*
X0285558Y0080130D01*
X0285622Y0080148D01*
X0285687Y0080163D01*
X0285753Y0080174D01*
X0285819Y0080181D01*
X0285885Y0080184D01*
X0285952Y0080183D01*
X0286018Y0080178D01*
X0286084Y0080169D01*
X0286150Y0080156D01*
X0286214Y0080139D01*
X0286277Y0080119D01*
X0286339Y0080094D01*
X0286400Y0080066D01*
X0286459Y0080035D01*
X0286515Y0080000D01*
X0286570Y0079962D01*
X0286622Y0079920D01*
X0286671Y0079875D01*
X0286718Y0079828D01*
X0286762Y0079778D01*
X0286802Y0079725D01*
X0286840Y0079670D01*
X0286874Y0079613D01*
X0286905Y0079554D01*
X0286932Y0079493D01*
X0286955Y0079431D01*
X0286975Y0079367D01*
X0286991Y0079302D01*
X0287003Y0079237D01*
X0287011Y0079171D01*
X0287015Y0079104D01*
X0287015Y0079038D01*
X0287011Y0078971D01*
X0287003Y0078905D01*
X0286991Y0078840D01*
X0286975Y0078775D01*
X0286955Y0078711D01*
X0286932Y0078649D01*
X0286905Y0078588D01*
X0286874Y0078529D01*
X0286840Y0078472D01*
X0286802Y0078417D01*
X0286762Y0078364D01*
X0286718Y0078314D01*
X0286671Y0078267D01*
X0286622Y0078222D01*
X0286570Y0078180D01*
X0286515Y0078142D01*
X0286458Y0078107D01*
X0286400Y0078076D01*
X0286339Y0078048D01*
X0286277Y0078023D01*
X0286214Y0078003D01*
X0286150Y0077986D01*
X0286084Y0077973D01*
X0286018Y0077964D01*
X0285952Y0077959D01*
X0285885Y0077958D01*
X0285819Y0077961D01*
X0285753Y0077968D01*
X0285687Y0077979D01*
X0285622Y0077994D01*
X0285558Y0078012D01*
X0285495Y0078035D01*
X0285434Y0078061D01*
X0285375Y0078091D01*
X0285317Y0078124D01*
X0285261Y0078161D01*
X0285208Y0078201D01*
X0285157Y0078244D01*
X0285109Y0078290D01*
X0285064Y0078339D01*
X0285022Y0078390D01*
X0284982Y0078444D01*
X0284947Y0078500D01*
X0284914Y0078558D01*
X0284885Y0078618D01*
X0284860Y0078680D01*
X0284838Y0078743D01*
X0284821Y0078807D01*
X0284807Y0078872D01*
X0284797Y0078938D01*
X0284791Y0079004D01*
X0284789Y0079071D01*
X0191185Y0055257D02*
X0190518Y0055924D01*
X0189183Y0055924D01*
X0188516Y0055257D01*
X0188516Y0052588D01*
X0189183Y0051921D01*
X0190518Y0051921D01*
X0191185Y0052588D01*
X0191185Y0053923D01*
X0189851Y0053923D01*
X0186581Y0053923D02*
X0183912Y0053923D01*
X0183912Y0054590D02*
X0185247Y0055924D01*
X0186581Y0054590D01*
X0186581Y0051921D01*
X0183912Y0051921D02*
X0183912Y0054590D01*
X0181977Y0055924D02*
X0179308Y0055924D01*
X0180643Y0055924D02*
X0180643Y0051921D01*
X0176706Y0052588D02*
X0176706Y0055924D01*
X0176039Y0055924D02*
X0177373Y0055924D01*
X0176706Y0052588D02*
X0176039Y0051921D01*
X0175372Y0051921D01*
X0174704Y0052588D01*
X0160402Y0019573D02*
X0160402Y0016904D01*
X0156399Y0016904D01*
X0157066Y0014969D02*
X0157733Y0014969D01*
X0158401Y0014302D01*
X0158401Y0012300D01*
X0160402Y0012300D02*
X0156399Y0012300D01*
X0156399Y0014302D01*
X0157066Y0014969D01*
X0158401Y0014302D02*
X0159068Y0014969D01*
X0159735Y0014969D01*
X0160402Y0014302D01*
X0160402Y0012300D01*
X0135402Y0013634D02*
X0134068Y0012300D01*
X0131399Y0012300D01*
X0131399Y0014969D02*
X0134068Y0014969D01*
X0135402Y0013634D01*
X0135402Y0018238D02*
X0131399Y0018238D01*
X0131399Y0016904D02*
X0131399Y0019573D01*
X0110402Y0019573D02*
X0106399Y0019573D01*
X0106399Y0016904D02*
X0110402Y0016904D01*
X0109068Y0018238D01*
X0110402Y0019573D01*
X0109735Y0014969D02*
X0107066Y0014969D01*
X0106399Y0014302D01*
X0106399Y0012300D01*
X0110402Y0012300D01*
X0110402Y0014302D01*
X0109735Y0014969D01*
X0086820Y0057300D02*
X0084818Y0057300D01*
X0084818Y0061303D01*
X0086820Y0061303D01*
X0087487Y0060636D01*
X0087487Y0059969D01*
X0086820Y0059302D01*
X0084818Y0059302D01*
X0082883Y0059302D02*
X0080214Y0059302D01*
X0078279Y0059969D02*
X0077612Y0059302D01*
X0075610Y0059302D01*
X0075610Y0061303D02*
X0077612Y0061303D01*
X0078279Y0060636D01*
X0078279Y0059969D01*
X0077612Y0059302D02*
X0078279Y0058634D01*
X0078279Y0057967D01*
X0077612Y0057300D01*
X0075610Y0057300D01*
X0075610Y0061303D01*
X0073675Y0060636D02*
X0073008Y0061303D01*
X0071673Y0061303D01*
X0071006Y0060636D01*
X0071006Y0059969D01*
X0071673Y0059302D01*
X0073008Y0059302D01*
X0073675Y0058634D01*
X0073675Y0057967D01*
X0073008Y0057300D01*
X0071673Y0057300D01*
X0071006Y0057967D01*
X0069071Y0057967D02*
X0069071Y0061303D01*
X0066402Y0061303D02*
X0066402Y0057967D01*
X0067069Y0057300D01*
X0068404Y0057300D01*
X0069071Y0057967D01*
X0086820Y0057300D02*
X0087487Y0057967D01*
X0087487Y0058634D01*
X0086820Y0059302D01*
D12*
X0070902Y0190300D02*
X0070902Y0199050D01*
X0071006Y0199052D01*
X0071110Y0199058D01*
X0071214Y0199068D01*
X0071317Y0199081D01*
X0071419Y0199099D01*
X0071521Y0199121D01*
X0071622Y0199146D01*
X0071722Y0199175D01*
X0071821Y0199208D01*
X0071918Y0199245D01*
X0072014Y0199285D01*
X0072109Y0199329D01*
X0072201Y0199376D01*
X0072292Y0199427D01*
X0072381Y0199481D01*
X0072467Y0199539D01*
X0072552Y0199600D01*
X0072634Y0199664D01*
X0072714Y0199731D01*
X0072791Y0199801D01*
X0072865Y0199874D01*
X0072936Y0199950D01*
X0073005Y0200028D01*
X0073070Y0200109D01*
X0073133Y0200192D01*
X0073192Y0200278D01*
X0073248Y0200365D01*
X0073301Y0200455D01*
X0073350Y0200547D01*
X0073396Y0200640D01*
X0073438Y0200736D01*
X0073476Y0200832D01*
X0073511Y0200930D01*
X0073542Y0201030D01*
X0073569Y0201130D01*
X0073593Y0201232D01*
X0073612Y0201334D01*
X0073628Y0201437D01*
X0073640Y0201540D01*
X0073648Y0201644D01*
X0073652Y0201748D01*
X0073652Y0201852D01*
X0073648Y0201956D01*
X0073640Y0202060D01*
X0073628Y0202163D01*
X0073612Y0202266D01*
X0073593Y0202368D01*
X0073569Y0202470D01*
X0073542Y0202570D01*
X0073511Y0202670D01*
X0073476Y0202768D01*
X0073438Y0202864D01*
X0073396Y0202960D01*
X0073350Y0203053D01*
X0073301Y0203145D01*
X0073248Y0203235D01*
X0073192Y0203322D01*
X0073133Y0203408D01*
X0073070Y0203491D01*
X0073005Y0203572D01*
X0072936Y0203650D01*
X0072865Y0203726D01*
X0072791Y0203799D01*
X0072714Y0203869D01*
X0072634Y0203936D01*
X0072552Y0204000D01*
X0072467Y0204061D01*
X0072381Y0204119D01*
X0072292Y0204173D01*
X0072201Y0204224D01*
X0072109Y0204271D01*
X0072014Y0204315D01*
X0071918Y0204355D01*
X0071821Y0204392D01*
X0071722Y0204425D01*
X0071622Y0204454D01*
X0071521Y0204479D01*
X0071419Y0204501D01*
X0071317Y0204519D01*
X0071214Y0204532D01*
X0071110Y0204542D01*
X0071006Y0204548D01*
X0070902Y0204550D01*
X0070902Y0213300D01*
X0210902Y0213300D01*
X0210902Y0190300D01*
X0070902Y0190300D01*
D13*
X0062806Y0191474D02*
X0062806Y0192675D01*
X0062806Y0192075D02*
X0059203Y0192075D01*
X0059203Y0192675D02*
X0059203Y0191474D01*
X0059804Y0193929D02*
X0062206Y0193929D01*
X0062806Y0194530D01*
X0062806Y0195731D01*
X0062206Y0196332D01*
X0062806Y0197613D02*
X0062806Y0200015D01*
X0062806Y0198814D02*
X0059203Y0198814D01*
X0060404Y0197613D01*
X0059804Y0196332D02*
X0059203Y0195731D01*
X0059203Y0194530D01*
X0059804Y0193929D01*
X0150981Y0087036D02*
X0152162Y0087036D01*
X0150981Y0087036D02*
X0145666Y0081721D01*
X0145666Y0066564D01*
X0152162Y0066564D01*
X0159642Y0066564D02*
X0166138Y0066564D01*
X0166138Y0081721D01*
X0160823Y0087036D01*
X0159642Y0087036D01*
X0172635Y0080737D02*
X0176965Y0085068D01*
X0172635Y0080737D02*
X0172635Y0068532D01*
X0177556Y0068532D01*
X0184249Y0068532D02*
X0189170Y0068532D01*
X0189170Y0080737D01*
X0184839Y0085068D01*
X0177556Y0083689D02*
X0177389Y0083606D01*
X0177225Y0083519D01*
X0177062Y0083427D01*
X0176902Y0083332D01*
X0176745Y0083233D01*
X0176590Y0083130D01*
X0176437Y0083023D01*
X0176287Y0082912D01*
X0176140Y0082798D01*
X0175995Y0082681D01*
X0175854Y0082560D01*
X0175715Y0082435D01*
X0175580Y0082308D01*
X0175447Y0082177D01*
X0175318Y0082042D01*
X0175192Y0081905D01*
X0175070Y0081765D01*
X0174951Y0081621D01*
X0174835Y0081475D01*
X0174724Y0081326D01*
X0174615Y0081175D01*
X0174511Y0081021D01*
X0174410Y0080864D01*
X0174313Y0080705D01*
X0174220Y0080544D01*
X0174131Y0080380D01*
X0174046Y0080214D01*
X0173965Y0080047D01*
X0173888Y0079877D01*
X0173815Y0079705D01*
X0173747Y0079532D01*
X0173683Y0079357D01*
X0173623Y0079181D01*
X0173567Y0079003D01*
X0173515Y0078824D01*
X0173468Y0078644D01*
X0173426Y0078463D01*
X0173387Y0078281D01*
X0173354Y0078097D01*
X0173324Y0077914D01*
X0173300Y0077729D01*
X0173279Y0077544D01*
X0173263Y0077358D01*
X0173252Y0077172D01*
X0173245Y0076986D01*
X0173243Y0076800D01*
X0173245Y0076614D01*
X0173252Y0076428D01*
X0173263Y0076242D01*
X0173279Y0076056D01*
X0173300Y0075871D01*
X0173324Y0075686D01*
X0173354Y0075503D01*
X0173387Y0075319D01*
X0173426Y0075137D01*
X0173468Y0074956D01*
X0173515Y0074776D01*
X0173567Y0074597D01*
X0173623Y0074419D01*
X0173683Y0074243D01*
X0173747Y0074068D01*
X0173815Y0073895D01*
X0173888Y0073723D01*
X0173965Y0073553D01*
X0174046Y0073386D01*
X0174131Y0073220D01*
X0174220Y0073056D01*
X0174313Y0072895D01*
X0174410Y0072736D01*
X0174511Y0072579D01*
X0174615Y0072425D01*
X0174724Y0072274D01*
X0174835Y0072125D01*
X0174951Y0071979D01*
X0175070Y0071835D01*
X0175192Y0071695D01*
X0175318Y0071558D01*
X0175447Y0071423D01*
X0175580Y0071292D01*
X0175715Y0071165D01*
X0175854Y0071040D01*
X0175995Y0070919D01*
X0176140Y0070802D01*
X0176287Y0070688D01*
X0176437Y0070577D01*
X0176590Y0070470D01*
X0176745Y0070367D01*
X0176902Y0070268D01*
X0177062Y0070173D01*
X0177225Y0070081D01*
X0177389Y0069994D01*
X0177556Y0069911D01*
X0184248Y0069911D02*
X0184415Y0069994D01*
X0184579Y0070081D01*
X0184742Y0070173D01*
X0184902Y0070268D01*
X0185059Y0070367D01*
X0185214Y0070470D01*
X0185367Y0070577D01*
X0185517Y0070688D01*
X0185664Y0070802D01*
X0185809Y0070919D01*
X0185950Y0071040D01*
X0186089Y0071165D01*
X0186224Y0071292D01*
X0186357Y0071423D01*
X0186486Y0071558D01*
X0186612Y0071695D01*
X0186734Y0071835D01*
X0186853Y0071979D01*
X0186969Y0072125D01*
X0187080Y0072274D01*
X0187189Y0072425D01*
X0187293Y0072579D01*
X0187394Y0072736D01*
X0187491Y0072895D01*
X0187584Y0073056D01*
X0187673Y0073220D01*
X0187758Y0073386D01*
X0187839Y0073553D01*
X0187916Y0073723D01*
X0187989Y0073895D01*
X0188057Y0074068D01*
X0188121Y0074243D01*
X0188181Y0074419D01*
X0188237Y0074597D01*
X0188289Y0074776D01*
X0188336Y0074956D01*
X0188378Y0075137D01*
X0188417Y0075319D01*
X0188450Y0075503D01*
X0188480Y0075686D01*
X0188504Y0075871D01*
X0188525Y0076056D01*
X0188541Y0076242D01*
X0188552Y0076428D01*
X0188559Y0076614D01*
X0188561Y0076800D01*
X0188559Y0076986D01*
X0188552Y0077172D01*
X0188541Y0077358D01*
X0188525Y0077544D01*
X0188504Y0077729D01*
X0188480Y0077914D01*
X0188450Y0078097D01*
X0188417Y0078281D01*
X0188378Y0078463D01*
X0188336Y0078644D01*
X0188289Y0078824D01*
X0188237Y0079003D01*
X0188181Y0079181D01*
X0188121Y0079357D01*
X0188057Y0079532D01*
X0187989Y0079705D01*
X0187916Y0079877D01*
X0187839Y0080047D01*
X0187758Y0080214D01*
X0187673Y0080380D01*
X0187584Y0080544D01*
X0187491Y0080705D01*
X0187394Y0080864D01*
X0187293Y0081021D01*
X0187189Y0081175D01*
X0187080Y0081326D01*
X0186969Y0081475D01*
X0186853Y0081621D01*
X0186734Y0081765D01*
X0186612Y0081905D01*
X0186486Y0082042D01*
X0186357Y0082177D01*
X0186224Y0082308D01*
X0186089Y0082435D01*
X0185950Y0082560D01*
X0185809Y0082681D01*
X0185664Y0082798D01*
X0185517Y0082912D01*
X0185367Y0083023D01*
X0185214Y0083130D01*
X0185059Y0083233D01*
X0184902Y0083332D01*
X0184742Y0083427D01*
X0184579Y0083519D01*
X0184415Y0083606D01*
X0184248Y0083689D01*
X0159249Y0085855D02*
X0159468Y0085771D01*
X0159685Y0085682D01*
X0159900Y0085587D01*
X0160113Y0085487D01*
X0160323Y0085382D01*
X0160530Y0085272D01*
X0160735Y0085157D01*
X0160937Y0085037D01*
X0161136Y0084912D01*
X0161332Y0084782D01*
X0161525Y0084648D01*
X0161714Y0084509D01*
X0161900Y0084365D01*
X0162082Y0084217D01*
X0162261Y0084064D01*
X0162436Y0083907D01*
X0162607Y0083746D01*
X0162774Y0083581D01*
X0162937Y0083412D01*
X0163095Y0083239D01*
X0163250Y0083062D01*
X0163400Y0082881D01*
X0163546Y0082697D01*
X0163687Y0082509D01*
X0163824Y0082318D01*
X0163956Y0082123D01*
X0164083Y0081926D01*
X0164205Y0081725D01*
X0164322Y0081522D01*
X0164435Y0081315D01*
X0164542Y0081106D01*
X0164644Y0080895D01*
X0164742Y0080681D01*
X0164833Y0080465D01*
X0164920Y0080246D01*
X0165001Y0080026D01*
X0165077Y0079804D01*
X0165147Y0079579D01*
X0165212Y0079354D01*
X0165272Y0079126D01*
X0165325Y0078898D01*
X0165374Y0078668D01*
X0165416Y0078437D01*
X0165453Y0078205D01*
X0165485Y0077972D01*
X0165510Y0077738D01*
X0165530Y0077504D01*
X0165545Y0077270D01*
X0165553Y0077035D01*
X0165556Y0076800D01*
X0165553Y0076565D01*
X0165545Y0076330D01*
X0165530Y0076096D01*
X0165510Y0075862D01*
X0165485Y0075628D01*
X0165453Y0075395D01*
X0165416Y0075163D01*
X0165374Y0074932D01*
X0165325Y0074702D01*
X0165272Y0074474D01*
X0165212Y0074246D01*
X0165147Y0074021D01*
X0165077Y0073796D01*
X0165001Y0073574D01*
X0164920Y0073354D01*
X0164833Y0073135D01*
X0164742Y0072919D01*
X0164644Y0072705D01*
X0164542Y0072494D01*
X0164435Y0072285D01*
X0164322Y0072078D01*
X0164205Y0071875D01*
X0164083Y0071674D01*
X0163956Y0071477D01*
X0163824Y0071282D01*
X0163687Y0071091D01*
X0163546Y0070903D01*
X0163400Y0070719D01*
X0163250Y0070538D01*
X0163095Y0070361D01*
X0162937Y0070188D01*
X0162774Y0070019D01*
X0162607Y0069854D01*
X0162436Y0069693D01*
X0162261Y0069536D01*
X0162082Y0069383D01*
X0161900Y0069235D01*
X0161714Y0069091D01*
X0161525Y0068952D01*
X0161332Y0068818D01*
X0161136Y0068688D01*
X0160937Y0068563D01*
X0160735Y0068443D01*
X0160530Y0068328D01*
X0160323Y0068218D01*
X0160113Y0068113D01*
X0159900Y0068013D01*
X0159685Y0067918D01*
X0159468Y0067829D01*
X0159249Y0067745D01*
X0152555Y0067745D02*
X0152336Y0067829D01*
X0152119Y0067918D01*
X0151904Y0068013D01*
X0151691Y0068113D01*
X0151481Y0068218D01*
X0151274Y0068328D01*
X0151069Y0068443D01*
X0150867Y0068563D01*
X0150668Y0068688D01*
X0150472Y0068818D01*
X0150279Y0068952D01*
X0150090Y0069091D01*
X0149904Y0069235D01*
X0149722Y0069383D01*
X0149543Y0069536D01*
X0149368Y0069693D01*
X0149197Y0069854D01*
X0149030Y0070019D01*
X0148867Y0070188D01*
X0148709Y0070361D01*
X0148554Y0070538D01*
X0148404Y0070719D01*
X0148258Y0070903D01*
X0148117Y0071091D01*
X0147980Y0071282D01*
X0147848Y0071477D01*
X0147721Y0071674D01*
X0147599Y0071875D01*
X0147482Y0072078D01*
X0147369Y0072285D01*
X0147262Y0072494D01*
X0147160Y0072705D01*
X0147062Y0072919D01*
X0146971Y0073135D01*
X0146884Y0073354D01*
X0146803Y0073574D01*
X0146727Y0073796D01*
X0146657Y0074021D01*
X0146592Y0074246D01*
X0146532Y0074474D01*
X0146479Y0074702D01*
X0146430Y0074932D01*
X0146388Y0075163D01*
X0146351Y0075395D01*
X0146319Y0075628D01*
X0146294Y0075862D01*
X0146274Y0076096D01*
X0146259Y0076330D01*
X0146251Y0076565D01*
X0146248Y0076800D01*
X0146251Y0077035D01*
X0146259Y0077270D01*
X0146274Y0077504D01*
X0146294Y0077738D01*
X0146319Y0077972D01*
X0146351Y0078205D01*
X0146388Y0078437D01*
X0146430Y0078668D01*
X0146479Y0078898D01*
X0146532Y0079126D01*
X0146592Y0079354D01*
X0146657Y0079579D01*
X0146727Y0079804D01*
X0146803Y0080026D01*
X0146884Y0080246D01*
X0146971Y0080465D01*
X0147062Y0080681D01*
X0147160Y0080895D01*
X0147262Y0081106D01*
X0147369Y0081315D01*
X0147482Y0081522D01*
X0147599Y0081725D01*
X0147721Y0081926D01*
X0147848Y0082123D01*
X0147980Y0082318D01*
X0148117Y0082509D01*
X0148258Y0082697D01*
X0148404Y0082881D01*
X0148554Y0083062D01*
X0148709Y0083239D01*
X0148867Y0083412D01*
X0149030Y0083581D01*
X0149197Y0083746D01*
X0149368Y0083907D01*
X0149543Y0084064D01*
X0149722Y0084217D01*
X0149904Y0084365D01*
X0150090Y0084509D01*
X0150279Y0084648D01*
X0150472Y0084782D01*
X0150668Y0084912D01*
X0150867Y0085037D01*
X0151069Y0085157D01*
X0151274Y0085272D01*
X0151481Y0085382D01*
X0151691Y0085487D01*
X0151904Y0085587D01*
X0152119Y0085682D01*
X0152336Y0085771D01*
X0152555Y0085855D01*
X0147650Y0041336D02*
X0147650Y0038934D01*
X0147650Y0040135D02*
X0144047Y0040135D01*
X0145248Y0038934D01*
X0145248Y0037653D02*
X0144648Y0037653D01*
X0144047Y0037052D01*
X0144047Y0035851D01*
X0144648Y0035251D01*
X0145248Y0037653D02*
X0147650Y0035251D01*
X0147650Y0037653D01*
X0147650Y0033970D02*
X0147650Y0031568D01*
X0147650Y0032769D02*
X0144047Y0032769D01*
X0145248Y0031568D01*
X0144648Y0030286D02*
X0145849Y0030286D01*
X0146449Y0029686D01*
X0146449Y0027884D01*
X0147650Y0027884D02*
X0144047Y0027884D01*
X0144047Y0029686D01*
X0144648Y0030286D01*
X0144047Y0026603D02*
X0144047Y0025402D01*
X0144047Y0026003D02*
X0147050Y0026003D01*
X0147650Y0025402D01*
X0147650Y0024802D01*
X0147050Y0024201D01*
X0122825Y0024626D02*
X0122825Y0025227D01*
X0122225Y0025827D01*
X0119222Y0025827D01*
X0119222Y0025227D02*
X0119222Y0026428D01*
X0119222Y0027709D02*
X0119222Y0029511D01*
X0119823Y0030111D01*
X0121024Y0030111D01*
X0121624Y0029511D01*
X0121624Y0027709D01*
X0122825Y0027709D02*
X0119222Y0027709D01*
X0119823Y0031392D02*
X0120423Y0031392D01*
X0121024Y0031993D01*
X0121024Y0033794D01*
X0122225Y0033794D02*
X0119823Y0033794D01*
X0119222Y0033194D01*
X0119222Y0031993D01*
X0119823Y0031392D01*
X0122225Y0031392D02*
X0122825Y0031993D01*
X0122825Y0033194D01*
X0122225Y0033794D01*
X0121024Y0035075D02*
X0121024Y0037477D01*
X0120423Y0038759D02*
X0119222Y0039960D01*
X0122825Y0039960D01*
X0122825Y0038759D02*
X0122825Y0041161D01*
X0122825Y0036877D02*
X0119222Y0036877D01*
X0121024Y0035075D01*
X0122825Y0024626D02*
X0122225Y0024026D01*
X0097788Y0024543D02*
X0097788Y0025143D01*
X0097188Y0025744D01*
X0094185Y0025744D01*
X0094185Y0026344D02*
X0094185Y0025143D01*
X0094185Y0027625D02*
X0094185Y0029427D01*
X0094786Y0030027D01*
X0095987Y0030027D01*
X0096587Y0029427D01*
X0096587Y0027625D01*
X0097788Y0027625D02*
X0094185Y0027625D01*
X0095386Y0031308D02*
X0094185Y0032509D01*
X0097788Y0032509D01*
X0097788Y0031308D02*
X0097788Y0033710D01*
X0097788Y0034992D02*
X0097788Y0037394D01*
X0097788Y0036193D02*
X0094185Y0036193D01*
X0095386Y0034992D01*
X0095386Y0038675D02*
X0094185Y0039876D01*
X0097788Y0039876D01*
X0097788Y0038675D02*
X0097788Y0041077D01*
X0097788Y0024543D02*
X0097188Y0023942D01*
X0226228Y0024612D02*
X0226228Y0025813D01*
X0226228Y0025212D02*
X0229230Y0025212D01*
X0229831Y0024612D01*
X0229831Y0024011D01*
X0229230Y0023411D01*
X0229230Y0022129D02*
X0229831Y0021529D01*
X0229831Y0020328D01*
X0229230Y0019727D01*
X0228029Y0020328D02*
X0227429Y0019727D01*
X0226828Y0019727D01*
X0226228Y0020328D01*
X0226228Y0021529D01*
X0226828Y0022129D01*
X0228029Y0021529D02*
X0228630Y0022129D01*
X0229230Y0022129D01*
X0228029Y0021529D02*
X0228029Y0020328D01*
X0226828Y0027094D02*
X0226228Y0027694D01*
X0226228Y0028895D01*
X0226828Y0029496D01*
X0227429Y0029496D01*
X0229831Y0027094D01*
X0229831Y0029496D01*
X0229230Y0030777D02*
X0226828Y0030777D01*
X0226228Y0031377D01*
X0226228Y0032578D01*
X0226828Y0033179D01*
X0229230Y0030777D01*
X0229831Y0031377D01*
X0229831Y0032578D01*
X0229230Y0033179D01*
X0226828Y0033179D01*
X0227429Y0034460D02*
X0226228Y0035661D01*
X0229831Y0035661D01*
X0229831Y0034460D02*
X0229831Y0036862D01*
X0229281Y0039917D02*
X0229882Y0040518D01*
X0229882Y0041719D01*
X0229281Y0042319D01*
X0228681Y0042319D01*
X0228080Y0041719D01*
X0228080Y0040518D01*
X0227480Y0039917D01*
X0226879Y0039917D01*
X0226279Y0040518D01*
X0226279Y0041719D01*
X0226879Y0042319D01*
X0226279Y0044801D02*
X0226279Y0046002D01*
X0226279Y0045402D02*
X0229281Y0045402D01*
X0229882Y0044801D01*
X0229882Y0044201D01*
X0229281Y0043600D01*
X0229882Y0047283D02*
X0227480Y0049685D01*
X0226879Y0049685D01*
X0226279Y0049085D01*
X0226279Y0047884D01*
X0226879Y0047283D01*
X0229882Y0047283D02*
X0229882Y0049685D01*
X0229281Y0050966D02*
X0226879Y0053369D01*
X0229281Y0053369D01*
X0229882Y0052768D01*
X0229882Y0051567D01*
X0229281Y0050966D01*
X0226879Y0050966D01*
X0226279Y0051567D01*
X0226279Y0052768D01*
X0226879Y0053369D01*
X0226879Y0054650D02*
X0226279Y0055250D01*
X0226279Y0056451D01*
X0226879Y0057052D01*
X0227480Y0057052D01*
X0229882Y0054650D01*
X0229882Y0057052D01*
X0234170Y0123532D02*
X0221965Y0123532D01*
X0217635Y0127863D01*
X0219013Y0135146D02*
X0219096Y0135313D01*
X0219183Y0135477D01*
X0219275Y0135640D01*
X0219370Y0135800D01*
X0219469Y0135957D01*
X0219572Y0136112D01*
X0219679Y0136265D01*
X0219790Y0136415D01*
X0219904Y0136562D01*
X0220021Y0136707D01*
X0220142Y0136848D01*
X0220267Y0136987D01*
X0220394Y0137122D01*
X0220525Y0137255D01*
X0220660Y0137384D01*
X0220797Y0137510D01*
X0220937Y0137632D01*
X0221081Y0137751D01*
X0221227Y0137867D01*
X0221376Y0137978D01*
X0221527Y0138087D01*
X0221681Y0138191D01*
X0221838Y0138292D01*
X0221997Y0138389D01*
X0222158Y0138482D01*
X0222322Y0138571D01*
X0222488Y0138656D01*
X0222655Y0138737D01*
X0222825Y0138814D01*
X0222997Y0138887D01*
X0223170Y0138955D01*
X0223345Y0139019D01*
X0223521Y0139079D01*
X0223699Y0139135D01*
X0223878Y0139187D01*
X0224058Y0139234D01*
X0224239Y0139276D01*
X0224421Y0139315D01*
X0224605Y0139348D01*
X0224788Y0139378D01*
X0224973Y0139402D01*
X0225158Y0139423D01*
X0225344Y0139439D01*
X0225530Y0139450D01*
X0225716Y0139457D01*
X0225902Y0139459D01*
X0226088Y0139457D01*
X0226274Y0139450D01*
X0226460Y0139439D01*
X0226646Y0139423D01*
X0226831Y0139402D01*
X0227016Y0139378D01*
X0227199Y0139348D01*
X0227383Y0139315D01*
X0227565Y0139276D01*
X0227746Y0139234D01*
X0227926Y0139187D01*
X0228105Y0139135D01*
X0228283Y0139079D01*
X0228459Y0139019D01*
X0228634Y0138955D01*
X0228807Y0138887D01*
X0228979Y0138814D01*
X0229149Y0138737D01*
X0229316Y0138656D01*
X0229482Y0138571D01*
X0229646Y0138482D01*
X0229807Y0138389D01*
X0229966Y0138292D01*
X0230123Y0138191D01*
X0230277Y0138087D01*
X0230428Y0137978D01*
X0230577Y0137867D01*
X0230723Y0137751D01*
X0230867Y0137632D01*
X0231007Y0137510D01*
X0231144Y0137384D01*
X0231279Y0137255D01*
X0231410Y0137122D01*
X0231537Y0136987D01*
X0231662Y0136848D01*
X0231783Y0136707D01*
X0231900Y0136562D01*
X0232014Y0136415D01*
X0232125Y0136265D01*
X0232232Y0136112D01*
X0232335Y0135957D01*
X0232434Y0135800D01*
X0232529Y0135640D01*
X0232621Y0135477D01*
X0232708Y0135313D01*
X0232791Y0135146D01*
X0234170Y0135146D02*
X0234170Y0140068D01*
X0221965Y0140068D01*
X0217635Y0135737D01*
X0219013Y0128454D02*
X0219096Y0128287D01*
X0219183Y0128123D01*
X0219275Y0127960D01*
X0219370Y0127800D01*
X0219469Y0127643D01*
X0219572Y0127488D01*
X0219679Y0127335D01*
X0219790Y0127185D01*
X0219904Y0127038D01*
X0220021Y0126893D01*
X0220142Y0126752D01*
X0220267Y0126613D01*
X0220394Y0126478D01*
X0220525Y0126345D01*
X0220660Y0126216D01*
X0220797Y0126090D01*
X0220937Y0125968D01*
X0221081Y0125849D01*
X0221227Y0125733D01*
X0221376Y0125622D01*
X0221527Y0125513D01*
X0221681Y0125409D01*
X0221838Y0125308D01*
X0221997Y0125211D01*
X0222158Y0125118D01*
X0222322Y0125029D01*
X0222488Y0124944D01*
X0222655Y0124863D01*
X0222825Y0124786D01*
X0222997Y0124713D01*
X0223170Y0124645D01*
X0223345Y0124581D01*
X0223521Y0124521D01*
X0223699Y0124465D01*
X0223878Y0124413D01*
X0224058Y0124366D01*
X0224239Y0124324D01*
X0224421Y0124285D01*
X0224605Y0124252D01*
X0224788Y0124222D01*
X0224973Y0124198D01*
X0225158Y0124177D01*
X0225344Y0124161D01*
X0225530Y0124150D01*
X0225716Y0124143D01*
X0225902Y0124141D01*
X0226088Y0124143D01*
X0226274Y0124150D01*
X0226460Y0124161D01*
X0226646Y0124177D01*
X0226831Y0124198D01*
X0227016Y0124222D01*
X0227199Y0124252D01*
X0227383Y0124285D01*
X0227565Y0124324D01*
X0227746Y0124366D01*
X0227926Y0124413D01*
X0228105Y0124465D01*
X0228283Y0124521D01*
X0228459Y0124581D01*
X0228634Y0124645D01*
X0228807Y0124713D01*
X0228979Y0124786D01*
X0229149Y0124863D01*
X0229316Y0124944D01*
X0229482Y0125029D01*
X0229646Y0125118D01*
X0229807Y0125211D01*
X0229966Y0125308D01*
X0230123Y0125409D01*
X0230277Y0125513D01*
X0230428Y0125622D01*
X0230577Y0125733D01*
X0230723Y0125849D01*
X0230867Y0125968D01*
X0231007Y0126090D01*
X0231144Y0126216D01*
X0231279Y0126345D01*
X0231410Y0126478D01*
X0231537Y0126613D01*
X0231662Y0126752D01*
X0231783Y0126893D01*
X0231900Y0127038D01*
X0232014Y0127185D01*
X0232125Y0127335D01*
X0232232Y0127488D01*
X0232335Y0127643D01*
X0232434Y0127800D01*
X0232529Y0127960D01*
X0232621Y0128123D01*
X0232708Y0128287D01*
X0232791Y0128454D01*
X0234170Y0128454D02*
X0234170Y0123532D01*
X0234170Y0148532D02*
X0221965Y0148532D01*
X0217635Y0152863D01*
X0217635Y0160737D02*
X0221965Y0165068D01*
X0234170Y0165068D01*
X0234170Y0160146D01*
X0234170Y0153454D02*
X0234170Y0148532D01*
X0232791Y0160146D02*
X0232708Y0160313D01*
X0232621Y0160477D01*
X0232529Y0160640D01*
X0232434Y0160800D01*
X0232335Y0160957D01*
X0232232Y0161112D01*
X0232125Y0161265D01*
X0232014Y0161415D01*
X0231900Y0161562D01*
X0231783Y0161707D01*
X0231662Y0161848D01*
X0231537Y0161987D01*
X0231410Y0162122D01*
X0231279Y0162255D01*
X0231144Y0162384D01*
X0231007Y0162510D01*
X0230867Y0162632D01*
X0230723Y0162751D01*
X0230577Y0162867D01*
X0230428Y0162978D01*
X0230277Y0163087D01*
X0230123Y0163191D01*
X0229966Y0163292D01*
X0229807Y0163389D01*
X0229646Y0163482D01*
X0229482Y0163571D01*
X0229316Y0163656D01*
X0229149Y0163737D01*
X0228979Y0163814D01*
X0228807Y0163887D01*
X0228634Y0163955D01*
X0228459Y0164019D01*
X0228283Y0164079D01*
X0228105Y0164135D01*
X0227926Y0164187D01*
X0227746Y0164234D01*
X0227565Y0164276D01*
X0227383Y0164315D01*
X0227199Y0164348D01*
X0227016Y0164378D01*
X0226831Y0164402D01*
X0226646Y0164423D01*
X0226460Y0164439D01*
X0226274Y0164450D01*
X0226088Y0164457D01*
X0225902Y0164459D01*
X0225716Y0164457D01*
X0225530Y0164450D01*
X0225344Y0164439D01*
X0225158Y0164423D01*
X0224973Y0164402D01*
X0224788Y0164378D01*
X0224605Y0164348D01*
X0224421Y0164315D01*
X0224239Y0164276D01*
X0224058Y0164234D01*
X0223878Y0164187D01*
X0223699Y0164135D01*
X0223521Y0164079D01*
X0223345Y0164019D01*
X0223170Y0163955D01*
X0222997Y0163887D01*
X0222825Y0163814D01*
X0222655Y0163737D01*
X0222488Y0163656D01*
X0222322Y0163571D01*
X0222158Y0163482D01*
X0221997Y0163389D01*
X0221838Y0163292D01*
X0221681Y0163191D01*
X0221527Y0163087D01*
X0221376Y0162978D01*
X0221227Y0162867D01*
X0221081Y0162751D01*
X0220937Y0162632D01*
X0220797Y0162510D01*
X0220660Y0162384D01*
X0220525Y0162255D01*
X0220394Y0162122D01*
X0220267Y0161987D01*
X0220142Y0161848D01*
X0220021Y0161707D01*
X0219904Y0161562D01*
X0219790Y0161415D01*
X0219679Y0161265D01*
X0219572Y0161112D01*
X0219469Y0160957D01*
X0219370Y0160800D01*
X0219275Y0160640D01*
X0219183Y0160477D01*
X0219096Y0160313D01*
X0219013Y0160146D01*
X0219013Y0153454D02*
X0219096Y0153287D01*
X0219183Y0153123D01*
X0219275Y0152960D01*
X0219370Y0152800D01*
X0219469Y0152643D01*
X0219572Y0152488D01*
X0219679Y0152335D01*
X0219790Y0152185D01*
X0219904Y0152038D01*
X0220021Y0151893D01*
X0220142Y0151752D01*
X0220267Y0151613D01*
X0220394Y0151478D01*
X0220525Y0151345D01*
X0220660Y0151216D01*
X0220797Y0151090D01*
X0220937Y0150968D01*
X0221081Y0150849D01*
X0221227Y0150733D01*
X0221376Y0150622D01*
X0221527Y0150513D01*
X0221681Y0150409D01*
X0221838Y0150308D01*
X0221997Y0150211D01*
X0222158Y0150118D01*
X0222322Y0150029D01*
X0222488Y0149944D01*
X0222655Y0149863D01*
X0222825Y0149786D01*
X0222997Y0149713D01*
X0223170Y0149645D01*
X0223345Y0149581D01*
X0223521Y0149521D01*
X0223699Y0149465D01*
X0223878Y0149413D01*
X0224058Y0149366D01*
X0224239Y0149324D01*
X0224421Y0149285D01*
X0224605Y0149252D01*
X0224788Y0149222D01*
X0224973Y0149198D01*
X0225158Y0149177D01*
X0225344Y0149161D01*
X0225530Y0149150D01*
X0225716Y0149143D01*
X0225902Y0149141D01*
X0226088Y0149143D01*
X0226274Y0149150D01*
X0226460Y0149161D01*
X0226646Y0149177D01*
X0226831Y0149198D01*
X0227016Y0149222D01*
X0227199Y0149252D01*
X0227383Y0149285D01*
X0227565Y0149324D01*
X0227746Y0149366D01*
X0227926Y0149413D01*
X0228105Y0149465D01*
X0228283Y0149521D01*
X0228459Y0149581D01*
X0228634Y0149645D01*
X0228807Y0149713D01*
X0228979Y0149786D01*
X0229149Y0149863D01*
X0229316Y0149944D01*
X0229482Y0150029D01*
X0229646Y0150118D01*
X0229807Y0150211D01*
X0229966Y0150308D01*
X0230123Y0150409D01*
X0230277Y0150513D01*
X0230428Y0150622D01*
X0230577Y0150733D01*
X0230723Y0150849D01*
X0230867Y0150968D01*
X0231007Y0151090D01*
X0231144Y0151216D01*
X0231279Y0151345D01*
X0231410Y0151478D01*
X0231537Y0151613D01*
X0231662Y0151752D01*
X0231783Y0151893D01*
X0231900Y0152038D01*
X0232014Y0152185D01*
X0232125Y0152335D01*
X0232232Y0152488D01*
X0232335Y0152643D01*
X0232434Y0152800D01*
X0232529Y0152960D01*
X0232621Y0153123D01*
X0232708Y0153287D01*
X0232791Y0153454D01*
X0217045Y0188132D02*
X0217045Y0189333D01*
X0217045Y0188733D02*
X0213442Y0188733D01*
X0213442Y0189333D02*
X0213442Y0188132D01*
X0214043Y0190588D02*
X0213442Y0191188D01*
X0213442Y0192389D01*
X0214043Y0192990D01*
X0215244Y0194271D02*
X0215244Y0196073D01*
X0215844Y0196673D01*
X0216445Y0196673D01*
X0217045Y0196073D01*
X0217045Y0194872D01*
X0216445Y0194271D01*
X0215244Y0194271D01*
X0214043Y0195472D01*
X0213442Y0196673D01*
X0216445Y0192990D02*
X0217045Y0192389D01*
X0217045Y0191188D01*
X0216445Y0190588D01*
X0214043Y0190588D01*
X0221965Y0208532D02*
X0217635Y0212863D01*
X0221965Y0208532D02*
X0234170Y0208532D01*
X0234170Y0213454D01*
X0234170Y0220146D02*
X0234170Y0225068D01*
X0221965Y0225068D01*
X0217635Y0220737D01*
X0219013Y0220146D02*
X0219096Y0220313D01*
X0219183Y0220477D01*
X0219275Y0220640D01*
X0219370Y0220800D01*
X0219469Y0220957D01*
X0219572Y0221112D01*
X0219679Y0221265D01*
X0219790Y0221415D01*
X0219904Y0221562D01*
X0220021Y0221707D01*
X0220142Y0221848D01*
X0220267Y0221987D01*
X0220394Y0222122D01*
X0220525Y0222255D01*
X0220660Y0222384D01*
X0220797Y0222510D01*
X0220937Y0222632D01*
X0221081Y0222751D01*
X0221227Y0222867D01*
X0221376Y0222978D01*
X0221527Y0223087D01*
X0221681Y0223191D01*
X0221838Y0223292D01*
X0221997Y0223389D01*
X0222158Y0223482D01*
X0222322Y0223571D01*
X0222488Y0223656D01*
X0222655Y0223737D01*
X0222825Y0223814D01*
X0222997Y0223887D01*
X0223170Y0223955D01*
X0223345Y0224019D01*
X0223521Y0224079D01*
X0223699Y0224135D01*
X0223878Y0224187D01*
X0224058Y0224234D01*
X0224239Y0224276D01*
X0224421Y0224315D01*
X0224605Y0224348D01*
X0224788Y0224378D01*
X0224973Y0224402D01*
X0225158Y0224423D01*
X0225344Y0224439D01*
X0225530Y0224450D01*
X0225716Y0224457D01*
X0225902Y0224459D01*
X0226088Y0224457D01*
X0226274Y0224450D01*
X0226460Y0224439D01*
X0226646Y0224423D01*
X0226831Y0224402D01*
X0227016Y0224378D01*
X0227199Y0224348D01*
X0227383Y0224315D01*
X0227565Y0224276D01*
X0227746Y0224234D01*
X0227926Y0224187D01*
X0228105Y0224135D01*
X0228283Y0224079D01*
X0228459Y0224019D01*
X0228634Y0223955D01*
X0228807Y0223887D01*
X0228979Y0223814D01*
X0229149Y0223737D01*
X0229316Y0223656D01*
X0229482Y0223571D01*
X0229646Y0223482D01*
X0229807Y0223389D01*
X0229966Y0223292D01*
X0230123Y0223191D01*
X0230277Y0223087D01*
X0230428Y0222978D01*
X0230577Y0222867D01*
X0230723Y0222751D01*
X0230867Y0222632D01*
X0231007Y0222510D01*
X0231144Y0222384D01*
X0231279Y0222255D01*
X0231410Y0222122D01*
X0231537Y0221987D01*
X0231662Y0221848D01*
X0231783Y0221707D01*
X0231900Y0221562D01*
X0232014Y0221415D01*
X0232125Y0221265D01*
X0232232Y0221112D01*
X0232335Y0220957D01*
X0232434Y0220800D01*
X0232529Y0220640D01*
X0232621Y0220477D01*
X0232708Y0220313D01*
X0232791Y0220146D01*
X0232791Y0213454D02*
X0232708Y0213287D01*
X0232621Y0213123D01*
X0232529Y0212960D01*
X0232434Y0212800D01*
X0232335Y0212643D01*
X0232232Y0212488D01*
X0232125Y0212335D01*
X0232014Y0212185D01*
X0231900Y0212038D01*
X0231783Y0211893D01*
X0231662Y0211752D01*
X0231537Y0211613D01*
X0231410Y0211478D01*
X0231279Y0211345D01*
X0231144Y0211216D01*
X0231007Y0211090D01*
X0230867Y0210968D01*
X0230723Y0210849D01*
X0230577Y0210733D01*
X0230428Y0210622D01*
X0230277Y0210513D01*
X0230123Y0210409D01*
X0229966Y0210308D01*
X0229807Y0210211D01*
X0229646Y0210118D01*
X0229482Y0210029D01*
X0229316Y0209944D01*
X0229149Y0209863D01*
X0228979Y0209786D01*
X0228807Y0209713D01*
X0228634Y0209645D01*
X0228459Y0209581D01*
X0228283Y0209521D01*
X0228105Y0209465D01*
X0227926Y0209413D01*
X0227746Y0209366D01*
X0227565Y0209324D01*
X0227383Y0209285D01*
X0227199Y0209252D01*
X0227016Y0209222D01*
X0226831Y0209198D01*
X0226646Y0209177D01*
X0226460Y0209161D01*
X0226274Y0209150D01*
X0226088Y0209143D01*
X0225902Y0209141D01*
X0225716Y0209143D01*
X0225530Y0209150D01*
X0225344Y0209161D01*
X0225158Y0209177D01*
X0224973Y0209198D01*
X0224788Y0209222D01*
X0224605Y0209252D01*
X0224421Y0209285D01*
X0224239Y0209324D01*
X0224058Y0209366D01*
X0223878Y0209413D01*
X0223699Y0209465D01*
X0223521Y0209521D01*
X0223345Y0209581D01*
X0223170Y0209645D01*
X0222997Y0209713D01*
X0222825Y0209786D01*
X0222655Y0209863D01*
X0222488Y0209944D01*
X0222322Y0210029D01*
X0222158Y0210118D01*
X0221997Y0210211D01*
X0221838Y0210308D01*
X0221681Y0210409D01*
X0221527Y0210513D01*
X0221376Y0210622D01*
X0221227Y0210733D01*
X0221081Y0210849D01*
X0220937Y0210968D01*
X0220797Y0211090D01*
X0220660Y0211216D01*
X0220525Y0211345D01*
X0220394Y0211478D01*
X0220267Y0211613D01*
X0220142Y0211752D01*
X0220021Y0211893D01*
X0219904Y0212038D01*
X0219790Y0212185D01*
X0219679Y0212335D01*
X0219572Y0212488D01*
X0219469Y0212643D01*
X0219370Y0212800D01*
X0219275Y0212960D01*
X0219183Y0213123D01*
X0219096Y0213287D01*
X0219013Y0213454D01*
X0282990Y0149964D02*
X0282990Y0146961D01*
X0283590Y0146361D01*
X0284791Y0146361D01*
X0285392Y0146961D01*
X0285392Y0149964D01*
X0286673Y0149964D02*
X0286673Y0148162D01*
X0287874Y0148763D01*
X0288474Y0148763D01*
X0289075Y0148162D01*
X0289075Y0146961D01*
X0288474Y0146361D01*
X0287273Y0146361D01*
X0286673Y0146961D01*
X0286673Y0149964D02*
X0289075Y0149964D01*
X0374516Y0053458D02*
X0375717Y0053458D01*
X0375116Y0053458D02*
X0375116Y0049855D01*
X0374516Y0049855D02*
X0375717Y0049855D01*
X0376971Y0050455D02*
X0377572Y0049855D01*
X0378773Y0049855D01*
X0379373Y0050455D01*
X0380654Y0050455D02*
X0381255Y0049855D01*
X0382456Y0049855D01*
X0383056Y0050455D01*
X0383056Y0051056D01*
X0382456Y0051656D01*
X0381855Y0051656D01*
X0382456Y0051656D02*
X0383056Y0052257D01*
X0383056Y0052857D01*
X0382456Y0053458D01*
X0381255Y0053458D01*
X0380654Y0052857D01*
X0379373Y0052857D02*
X0378773Y0053458D01*
X0377572Y0053458D01*
X0376971Y0052857D01*
X0376971Y0050455D01*
D14*
X0289270Y0087712D02*
X0286801Y0087712D01*
X0289270Y0090181D01*
X0289270Y0090798D01*
X0288652Y0091415D01*
X0287418Y0091415D01*
X0286801Y0090798D01*
X0285587Y0090798D02*
X0284969Y0091415D01*
X0283735Y0091415D01*
X0283118Y0090798D01*
X0283118Y0088329D01*
X0283735Y0087712D01*
X0284969Y0087712D01*
X0285587Y0088329D01*
X0281897Y0087712D02*
X0280662Y0087712D01*
X0281280Y0087712D02*
X0281280Y0091415D01*
X0281897Y0091415D02*
X0280662Y0091415D01*
X0244296Y0114138D02*
X0241827Y0114138D01*
X0243061Y0114138D02*
X0243061Y0117841D01*
X0241827Y0116607D01*
X0240613Y0115990D02*
X0240613Y0114755D01*
X0239995Y0114138D01*
X0238761Y0114138D01*
X0238144Y0114755D01*
X0238144Y0115990D02*
X0239378Y0116607D01*
X0239995Y0116607D01*
X0240613Y0115990D01*
X0240613Y0117841D02*
X0238144Y0117841D01*
X0238144Y0115990D01*
X0236930Y0114138D02*
X0234461Y0114138D01*
X0235695Y0114138D02*
X0235695Y0117841D01*
X0234461Y0116607D01*
X0233246Y0117224D02*
X0232629Y0117841D01*
X0230778Y0117841D01*
X0230778Y0114138D01*
X0232629Y0114138D01*
X0233246Y0114755D01*
X0233246Y0117224D01*
X0214989Y0099218D02*
X0213754Y0099218D01*
X0213137Y0098601D01*
X0211923Y0099218D02*
X0209454Y0099218D01*
X0209454Y0097367D01*
X0210688Y0097984D01*
X0211305Y0097984D01*
X0211923Y0097367D01*
X0211923Y0096132D01*
X0211305Y0095515D01*
X0210071Y0095515D01*
X0209454Y0096132D01*
X0208239Y0095515D02*
X0205771Y0095515D01*
X0207005Y0095515D02*
X0207005Y0099218D01*
X0205771Y0097984D01*
X0204556Y0098601D02*
X0203939Y0099218D01*
X0202087Y0099218D01*
X0202087Y0095515D01*
X0203939Y0095515D01*
X0204556Y0096132D01*
X0204556Y0098601D01*
X0213137Y0095515D02*
X0215606Y0097984D01*
X0215606Y0098601D01*
X0214989Y0099218D01*
X0215606Y0095515D02*
X0213137Y0095515D01*
X0204010Y0078786D02*
X0204010Y0075083D01*
X0202776Y0075083D02*
X0205245Y0075083D01*
X0202776Y0077552D02*
X0204010Y0078786D01*
X0201561Y0078786D02*
X0199093Y0078786D01*
X0199093Y0076935D01*
X0200327Y0077552D01*
X0200944Y0077552D01*
X0201561Y0076935D01*
X0201561Y0075700D01*
X0200944Y0075083D01*
X0199710Y0075083D01*
X0199093Y0075700D01*
X0197878Y0075083D02*
X0195409Y0075083D01*
X0196644Y0075083D02*
X0196644Y0078786D01*
X0195409Y0077552D01*
X0194195Y0078169D02*
X0193578Y0078786D01*
X0192344Y0078786D01*
X0191726Y0078169D01*
X0191726Y0075700D01*
X0192344Y0075083D01*
X0193578Y0075083D01*
X0194195Y0075700D01*
X0168260Y0059379D02*
X0165791Y0059379D01*
X0164577Y0059379D02*
X0162108Y0059379D01*
X0163342Y0059379D02*
X0163342Y0063083D01*
X0162108Y0061848D01*
X0160893Y0061231D02*
X0159042Y0061231D01*
X0158425Y0061848D01*
X0158425Y0062465D01*
X0159042Y0063083D01*
X0160276Y0063083D01*
X0160893Y0062465D01*
X0160893Y0059997D01*
X0160276Y0059379D01*
X0159042Y0059379D01*
X0158425Y0059997D01*
X0157210Y0059997D02*
X0156593Y0059379D01*
X0155359Y0059379D01*
X0154742Y0059997D01*
X0154742Y0062465D01*
X0155359Y0063083D01*
X0156593Y0063083D01*
X0157210Y0062465D01*
X0165791Y0061848D02*
X0167025Y0063083D01*
X0167025Y0059379D01*
X0131086Y0059313D02*
X0130469Y0058696D01*
X0128000Y0058696D01*
X0127383Y0059313D01*
X0127383Y0060547D01*
X0128000Y0061164D01*
X0130469Y0061164D01*
X0131086Y0060547D01*
X0131086Y0059313D01*
X0129234Y0057481D02*
X0129851Y0056864D01*
X0129851Y0055012D01*
X0131086Y0055012D02*
X0127383Y0055012D01*
X0127383Y0056864D01*
X0128000Y0057481D01*
X0129234Y0057481D01*
X0129234Y0053798D02*
X0129851Y0053181D01*
X0129851Y0051329D01*
X0129851Y0052564D02*
X0131086Y0053798D01*
X0129234Y0053798D02*
X0128000Y0053798D01*
X0127383Y0053181D01*
X0127383Y0051329D01*
X0131086Y0051329D01*
X0131086Y0062379D02*
X0131086Y0064848D01*
X0131086Y0067296D02*
X0129234Y0067296D01*
X0128000Y0068531D01*
X0127383Y0068531D01*
X0128617Y0069745D02*
X0127383Y0070979D01*
X0131086Y0070979D01*
X0131086Y0069745D02*
X0131086Y0072214D01*
X0129234Y0067296D02*
X0128000Y0066062D01*
X0127383Y0066062D01*
X0127383Y0062379D02*
X0131086Y0062379D01*
X0139198Y0114445D02*
X0141049Y0114445D01*
X0141667Y0115063D01*
X0141667Y0117531D01*
X0141049Y0118149D01*
X0139198Y0118149D01*
X0139198Y0114445D01*
X0142881Y0115063D02*
X0143498Y0114445D01*
X0144732Y0114445D01*
X0145350Y0115063D01*
X0145350Y0117531D01*
X0144732Y0118149D01*
X0143498Y0118149D01*
X0142881Y0117531D01*
X0142881Y0116914D01*
X0143498Y0116297D01*
X0145350Y0116297D01*
X0146564Y0116914D02*
X0147798Y0118149D01*
X0147798Y0114445D01*
X0146564Y0114445D02*
X0149033Y0114445D01*
X0150247Y0114445D02*
X0152716Y0116914D01*
X0152716Y0117531D01*
X0152099Y0118149D01*
X0150864Y0118149D01*
X0150247Y0117531D01*
X0150247Y0114445D02*
X0152716Y0114445D01*
X0165783Y0113711D02*
X0167634Y0113711D01*
X0168251Y0114328D01*
X0168251Y0116797D01*
X0167634Y0117414D01*
X0165783Y0117414D01*
X0165783Y0113711D01*
X0169466Y0114328D02*
X0170083Y0113711D01*
X0171317Y0113711D01*
X0171934Y0114328D01*
X0171934Y0116797D01*
X0171317Y0117414D01*
X0170083Y0117414D01*
X0169466Y0116797D01*
X0169466Y0116179D01*
X0170083Y0115562D01*
X0171934Y0115562D01*
X0173149Y0116179D02*
X0174383Y0117414D01*
X0174383Y0113711D01*
X0173149Y0113711D02*
X0175618Y0113711D01*
X0176832Y0113711D02*
X0179301Y0113711D01*
X0178066Y0113711D02*
X0178066Y0117414D01*
X0176832Y0116179D01*
X0158631Y0139631D02*
X0156162Y0139631D01*
X0157397Y0139631D02*
X0157397Y0143334D01*
X0156162Y0142100D01*
X0154948Y0142717D02*
X0152479Y0140248D01*
X0153096Y0139631D01*
X0154331Y0139631D01*
X0154948Y0140248D01*
X0154948Y0142717D01*
X0154331Y0143334D01*
X0153096Y0143334D01*
X0152479Y0142717D01*
X0152479Y0140248D01*
X0151265Y0142717D02*
X0148796Y0140248D01*
X0148796Y0139631D01*
X0147582Y0140248D02*
X0147582Y0142717D01*
X0146964Y0143334D01*
X0145113Y0143334D01*
X0145113Y0139631D01*
X0146964Y0139631D01*
X0147582Y0140248D01*
X0148796Y0143334D02*
X0151265Y0143334D01*
X0151265Y0142717D01*
X0148345Y0167894D02*
X0148345Y0168511D01*
X0150813Y0170979D01*
X0150813Y0171597D01*
X0148345Y0171597D01*
X0147130Y0170979D02*
X0146513Y0171597D01*
X0145279Y0171597D01*
X0144662Y0170979D01*
X0144662Y0168511D01*
X0145279Y0167894D01*
X0146513Y0167894D01*
X0147130Y0168511D01*
X0143440Y0167894D02*
X0142206Y0167894D01*
X0142823Y0167894D02*
X0142823Y0171597D01*
X0142206Y0171597D02*
X0143440Y0171597D01*
X0183186Y0160598D02*
X0183186Y0159363D01*
X0183804Y0158746D01*
X0183804Y0157532D02*
X0184421Y0157532D01*
X0185038Y0156915D01*
X0185655Y0157532D01*
X0186272Y0157532D01*
X0186890Y0156915D01*
X0186890Y0155680D01*
X0186272Y0155063D01*
X0186890Y0153849D02*
X0186890Y0151380D01*
X0186890Y0150166D02*
X0185655Y0148931D01*
X0185655Y0149548D02*
X0185655Y0147697D01*
X0186890Y0147697D02*
X0183186Y0147697D01*
X0183186Y0149548D01*
X0183804Y0150166D01*
X0185038Y0150166D01*
X0185655Y0149548D01*
X0184421Y0151380D02*
X0183186Y0152614D01*
X0186890Y0152614D01*
X0183804Y0155063D02*
X0183186Y0155680D01*
X0183186Y0156915D01*
X0183804Y0157532D01*
X0185038Y0156915D02*
X0185038Y0156298D01*
X0186890Y0158746D02*
X0184421Y0161215D01*
X0183804Y0161215D01*
X0183186Y0160598D01*
X0186890Y0161215D02*
X0186890Y0158746D01*
X0193717Y0159981D02*
X0197421Y0159981D01*
X0197421Y0161215D02*
X0197421Y0158746D01*
X0196803Y0157532D02*
X0197421Y0156915D01*
X0197421Y0155680D01*
X0196803Y0155063D01*
X0197421Y0153849D02*
X0197421Y0151380D01*
X0197421Y0150166D02*
X0196186Y0148931D01*
X0196186Y0149548D02*
X0196186Y0147697D01*
X0197421Y0147697D02*
X0193717Y0147697D01*
X0193717Y0149548D01*
X0194335Y0150166D01*
X0195569Y0150166D01*
X0196186Y0149548D01*
X0194952Y0151380D02*
X0193717Y0152614D01*
X0197421Y0152614D01*
X0194335Y0155063D02*
X0193717Y0155680D01*
X0193717Y0156915D01*
X0194335Y0157532D01*
X0194952Y0157532D01*
X0195569Y0156915D01*
X0196186Y0157532D01*
X0196803Y0157532D01*
X0195569Y0156915D02*
X0195569Y0156298D01*
X0194952Y0158746D02*
X0193717Y0159981D01*
X0205667Y0164308D02*
X0206284Y0163691D01*
X0207518Y0163691D01*
X0208135Y0164308D01*
X0209350Y0164308D02*
X0209350Y0165542D01*
X0211201Y0165542D01*
X0211818Y0164925D01*
X0211818Y0164308D01*
X0211201Y0163691D01*
X0209967Y0163691D01*
X0209350Y0164308D01*
X0209350Y0165542D02*
X0210584Y0166777D01*
X0211818Y0167394D01*
X0213033Y0166160D02*
X0214267Y0167394D01*
X0214267Y0163691D01*
X0213033Y0163691D02*
X0215502Y0163691D01*
X0216716Y0163691D02*
X0219185Y0166160D01*
X0219185Y0166777D01*
X0218568Y0167394D01*
X0217333Y0167394D01*
X0216716Y0166777D01*
X0216716Y0163691D02*
X0219185Y0163691D01*
X0208135Y0166777D02*
X0207518Y0167394D01*
X0206284Y0167394D01*
X0205667Y0166777D01*
X0205667Y0164308D01*
X0216432Y0183550D02*
X0219568Y0186686D01*
X0218000Y0186686D02*
X0218000Y0183550D01*
X0219568Y0183550D02*
X0216432Y0186686D01*
X0216432Y0185118D02*
X0219568Y0185118D01*
X0220401Y0203895D02*
X0221636Y0203895D01*
X0222253Y0204512D01*
X0223467Y0203895D02*
X0225936Y0206364D01*
X0225936Y0206981D01*
X0225319Y0207598D01*
X0224085Y0207598D01*
X0223467Y0206981D01*
X0222253Y0206981D02*
X0221636Y0207598D01*
X0220401Y0207598D01*
X0219784Y0206981D01*
X0219784Y0204512D01*
X0220401Y0203895D01*
X0223467Y0203895D02*
X0225936Y0203895D01*
X0227150Y0203895D02*
X0229619Y0203895D01*
X0230834Y0203895D02*
X0233302Y0203895D01*
X0232068Y0203895D02*
X0232068Y0207598D01*
X0230834Y0206364D01*
X0228385Y0207598D02*
X0228385Y0203895D01*
X0227150Y0206364D02*
X0228385Y0207598D01*
X0205026Y0235555D02*
X0201323Y0235555D01*
X0201323Y0237407D01*
X0201940Y0238024D01*
X0203174Y0238024D01*
X0203792Y0237407D01*
X0203792Y0235555D01*
X0203792Y0236790D02*
X0205026Y0238024D01*
X0205026Y0239238D02*
X0201323Y0239238D01*
X0201323Y0241090D01*
X0201940Y0241707D01*
X0203174Y0241707D01*
X0203792Y0241090D01*
X0203792Y0239238D01*
X0204409Y0242922D02*
X0205026Y0243539D01*
X0205026Y0244773D01*
X0204409Y0245390D01*
X0201940Y0245390D01*
X0201323Y0244773D01*
X0201323Y0243539D01*
X0201940Y0242922D01*
X0204409Y0242922D01*
X0205026Y0246605D02*
X0201323Y0246605D01*
X0201323Y0250288D02*
X0201940Y0250288D01*
X0203174Y0251522D01*
X0205026Y0251522D01*
X0203174Y0251522D02*
X0201940Y0252757D01*
X0201323Y0252757D01*
X0201940Y0253971D02*
X0201323Y0254588D01*
X0201323Y0255823D01*
X0201940Y0256440D01*
X0202557Y0256440D01*
X0205026Y0253971D01*
X0205026Y0256440D01*
X0205026Y0249074D02*
X0205026Y0246605D01*
X0287049Y0209234D02*
X0290752Y0209234D01*
X0290752Y0210468D02*
X0290752Y0207999D01*
X0290135Y0206785D02*
X0287666Y0206785D01*
X0287049Y0206168D01*
X0287049Y0204933D01*
X0287666Y0204316D01*
X0288283Y0204316D01*
X0288901Y0204933D01*
X0288901Y0206785D01*
X0290135Y0206785D02*
X0290752Y0206168D01*
X0290752Y0204933D01*
X0290135Y0204316D01*
X0290135Y0203102D02*
X0290752Y0202485D01*
X0290752Y0201250D01*
X0290135Y0200633D01*
X0289518Y0200633D01*
X0288901Y0201250D01*
X0288901Y0202485D01*
X0289518Y0203102D01*
X0290135Y0203102D01*
X0288901Y0202485D02*
X0288283Y0203102D01*
X0287666Y0203102D01*
X0287049Y0202485D01*
X0287049Y0201250D01*
X0287666Y0200633D01*
X0288283Y0200633D01*
X0288901Y0201250D01*
X0290135Y0199419D02*
X0290752Y0198802D01*
X0290752Y0197567D01*
X0290135Y0196950D01*
X0287666Y0196950D01*
X0287049Y0197567D01*
X0287049Y0198802D01*
X0287666Y0199419D01*
X0288283Y0207999D02*
X0287049Y0209234D01*
X0328864Y0211475D02*
X0328864Y0212443D01*
X0329348Y0212927D01*
X0329348Y0213938D02*
X0328864Y0214422D01*
X0328864Y0215390D01*
X0329348Y0215873D01*
X0330316Y0215390D02*
X0330316Y0214422D01*
X0329832Y0213938D01*
X0329348Y0213938D01*
X0330316Y0215390D02*
X0330799Y0215873D01*
X0331283Y0215873D01*
X0331767Y0215390D01*
X0331767Y0214422D01*
X0331283Y0213938D01*
X0331283Y0212927D02*
X0330799Y0212927D01*
X0330316Y0212443D01*
X0330316Y0211475D01*
X0329832Y0210992D01*
X0329348Y0210992D01*
X0328864Y0211475D01*
X0330316Y0209980D02*
X0330316Y0208045D01*
X0331767Y0207034D02*
X0331767Y0205099D01*
X0331767Y0206066D02*
X0328864Y0206066D01*
X0328864Y0204087D02*
X0331767Y0204087D01*
X0330799Y0203120D01*
X0331767Y0202152D01*
X0328864Y0202152D01*
X0331283Y0210992D02*
X0331767Y0211475D01*
X0331767Y0212443D01*
X0331283Y0212927D01*
X0331767Y0216885D02*
X0328864Y0216885D01*
X0331767Y0218820D01*
X0328864Y0218820D01*
X0329348Y0219831D02*
X0330316Y0219831D01*
X0330316Y0220799D01*
X0331283Y0221766D02*
X0329348Y0221766D01*
X0328864Y0221283D01*
X0328864Y0220315D01*
X0329348Y0219831D01*
X0331283Y0219831D02*
X0331767Y0220315D01*
X0331767Y0221283D01*
X0331283Y0221766D01*
X0330316Y0222778D02*
X0330316Y0224713D01*
X0331767Y0225724D02*
X0328864Y0225724D01*
X0328864Y0227659D02*
X0331767Y0227659D01*
X0330799Y0226692D01*
X0331767Y0225724D01*
X0331767Y0228671D02*
X0328864Y0230606D01*
X0328864Y0231617D02*
X0329832Y0232585D01*
X0329832Y0232101D02*
X0329832Y0233552D01*
X0328864Y0233552D02*
X0331767Y0233552D01*
X0331767Y0232101D01*
X0331283Y0231617D01*
X0330316Y0231617D01*
X0329832Y0232101D01*
X0331767Y0230606D02*
X0328864Y0228671D01*
X0329123Y0238152D02*
X0329740Y0238770D01*
X0329123Y0238152D02*
X0327889Y0238152D01*
X0327271Y0238770D01*
X0327271Y0241238D01*
X0327889Y0241855D01*
X0329123Y0241855D01*
X0329740Y0241238D01*
X0330955Y0241238D02*
X0330955Y0240621D01*
X0331572Y0240004D01*
X0332806Y0240004D01*
X0333423Y0239387D01*
X0333423Y0238770D01*
X0332806Y0238152D01*
X0331572Y0238152D01*
X0330955Y0238770D01*
X0330955Y0239387D01*
X0331572Y0240004D01*
X0332806Y0240004D02*
X0333423Y0240621D01*
X0333423Y0241238D01*
X0332806Y0241855D01*
X0331572Y0241855D01*
X0330955Y0241238D01*
X0326050Y0241855D02*
X0324816Y0241855D01*
X0325433Y0241855D02*
X0325433Y0238152D01*
X0324816Y0238152D02*
X0326050Y0238152D01*
X0367431Y0217218D02*
X0371134Y0217218D01*
X0371134Y0215984D02*
X0371134Y0218453D01*
X0368665Y0215984D02*
X0367431Y0217218D01*
X0367431Y0213535D02*
X0371134Y0213535D01*
X0371134Y0212301D02*
X0371134Y0214770D01*
X0368665Y0212301D02*
X0367431Y0213535D01*
X0368048Y0211086D02*
X0368665Y0211086D01*
X0369283Y0210469D01*
X0369283Y0209235D01*
X0368665Y0208618D01*
X0368048Y0208618D01*
X0367431Y0209235D01*
X0367431Y0210469D01*
X0368048Y0211086D01*
X0369283Y0210469D02*
X0369900Y0211086D01*
X0370517Y0211086D01*
X0371134Y0210469D01*
X0371134Y0209235D01*
X0370517Y0208618D01*
X0369900Y0208618D01*
X0369283Y0209235D01*
X0369283Y0207403D02*
X0368048Y0207403D01*
X0367431Y0206786D01*
X0367431Y0204934D01*
X0371134Y0204934D01*
X0369900Y0204934D02*
X0369900Y0206786D01*
X0369283Y0207403D01*
X0367431Y0203720D02*
X0367431Y0201251D01*
X0371134Y0201251D01*
X0371134Y0200037D02*
X0371134Y0197568D01*
X0367431Y0197568D01*
X0369283Y0201251D02*
X0369283Y0202486D01*
X0381669Y0221950D02*
X0382904Y0221950D01*
X0383521Y0222567D01*
X0384735Y0222567D02*
X0385353Y0221950D01*
X0386587Y0221950D01*
X0387204Y0222567D01*
X0387204Y0225036D01*
X0386587Y0225653D01*
X0385353Y0225653D01*
X0384735Y0225036D01*
X0384735Y0222567D01*
X0383521Y0225036D02*
X0382904Y0225653D01*
X0381669Y0225653D01*
X0381052Y0225036D01*
X0381052Y0222567D01*
X0381669Y0221950D01*
X0388419Y0221950D02*
X0388419Y0225653D01*
X0390887Y0221950D01*
X0390887Y0225653D01*
X0392102Y0225653D02*
X0394570Y0225653D01*
X0394570Y0225036D01*
X0392102Y0222567D01*
X0392102Y0221950D01*
X0304838Y0167950D02*
X0302369Y0167950D01*
X0301155Y0167950D02*
X0298686Y0167950D01*
X0301155Y0170419D01*
X0301155Y0171036D01*
X0300538Y0171653D01*
X0299303Y0171653D01*
X0298686Y0171036D01*
X0297472Y0171036D02*
X0296854Y0171653D01*
X0295620Y0171653D01*
X0295003Y0171036D01*
X0295003Y0170419D01*
X0295620Y0169802D01*
X0297472Y0169802D01*
X0297472Y0171036D02*
X0297472Y0168567D01*
X0296854Y0167950D01*
X0295620Y0167950D01*
X0295003Y0168567D01*
X0293788Y0168567D02*
X0293171Y0167950D01*
X0291937Y0167950D01*
X0291320Y0168567D01*
X0291320Y0171036D01*
X0291937Y0171653D01*
X0293171Y0171653D01*
X0293788Y0171036D01*
X0302369Y0170419D02*
X0303603Y0171653D01*
X0303603Y0167950D01*
X0280788Y0146270D02*
X0277652Y0143134D01*
X0277652Y0144702D02*
X0280788Y0144702D01*
X0280788Y0143134D02*
X0277652Y0146270D01*
X0279220Y0146270D02*
X0279220Y0143134D01*
X0219256Y0141571D02*
X0219256Y0140954D01*
X0218638Y0140337D01*
X0219256Y0139719D01*
X0219256Y0139102D01*
X0218638Y0138485D01*
X0217404Y0138485D01*
X0216787Y0139102D01*
X0215573Y0138485D02*
X0213104Y0138485D01*
X0214338Y0138485D02*
X0214338Y0142188D01*
X0213104Y0140954D01*
X0211889Y0142188D02*
X0210655Y0141571D01*
X0209421Y0140337D01*
X0211272Y0140337D01*
X0211889Y0139719D01*
X0211889Y0139102D01*
X0211272Y0138485D01*
X0210038Y0138485D01*
X0209421Y0139102D01*
X0209421Y0140337D01*
X0208206Y0141571D02*
X0207589Y0142188D01*
X0206355Y0142188D01*
X0205737Y0141571D01*
X0205737Y0139102D01*
X0206355Y0138485D01*
X0207589Y0138485D01*
X0208206Y0139102D01*
X0216787Y0141571D02*
X0217404Y0142188D01*
X0218638Y0142188D01*
X0219256Y0141571D01*
X0218638Y0140337D02*
X0218021Y0140337D01*
X0077768Y0136022D02*
X0075299Y0136022D01*
X0074085Y0136022D02*
X0074085Y0139725D01*
X0075299Y0138490D02*
X0076534Y0139725D01*
X0076534Y0136022D01*
X0074085Y0136022D02*
X0071616Y0139725D01*
X0071616Y0136022D01*
X0070402Y0136639D02*
X0070402Y0139108D01*
X0069785Y0139725D01*
X0068550Y0139725D01*
X0067933Y0139108D01*
X0067933Y0136639D01*
X0068550Y0136022D01*
X0069785Y0136022D01*
X0070402Y0136639D01*
X0066719Y0136639D02*
X0066101Y0136022D01*
X0064867Y0136022D01*
X0064250Y0136639D01*
X0064250Y0139108D01*
X0064867Y0139725D01*
X0066101Y0139725D01*
X0066719Y0139108D01*
X0381328Y0132077D02*
X0381328Y0129608D01*
X0381945Y0128991D01*
X0383180Y0128991D01*
X0383797Y0129608D01*
X0385011Y0129608D02*
X0385628Y0128991D01*
X0386863Y0128991D01*
X0387480Y0129608D01*
X0387480Y0132077D01*
X0386863Y0132694D01*
X0385628Y0132694D01*
X0385011Y0132077D01*
X0385011Y0129608D01*
X0383797Y0132077D02*
X0383180Y0132694D01*
X0381945Y0132694D01*
X0381328Y0132077D01*
X0388694Y0132694D02*
X0388694Y0128991D01*
X0391163Y0128991D02*
X0388694Y0132694D01*
X0391163Y0132694D02*
X0391163Y0128991D01*
X0392377Y0129608D02*
X0392995Y0128991D01*
X0394229Y0128991D01*
X0394846Y0129608D01*
X0394846Y0130226D01*
X0394229Y0130843D01*
X0393612Y0130843D01*
X0394229Y0130843D02*
X0394846Y0131460D01*
X0394846Y0132077D01*
X0394229Y0132694D01*
X0392995Y0132694D01*
X0392377Y0132077D01*
D15*
X0409566Y0125796D02*
X0367420Y0125796D01*
X0367420Y0110737D01*
X0364270Y0110737D01*
X0364270Y0102863D01*
X0367420Y0102863D01*
X0367420Y0110737D01*
X0367420Y0102863D02*
X0367420Y0087804D01*
X0409566Y0087804D01*
X0353737Y0141524D02*
X0353737Y0156091D01*
X0353737Y0167509D02*
X0353737Y0182076D01*
X0313776Y0182076D01*
X0308068Y0176367D01*
X0308068Y0167509D01*
X0308068Y0156091D02*
X0308068Y0147233D01*
X0313776Y0141524D01*
X0353737Y0141524D01*
X0349406Y0156288D02*
X0349266Y0155838D01*
X0349115Y0155392D01*
X0348953Y0154950D01*
X0348780Y0154511D01*
X0348597Y0154077D01*
X0348403Y0153647D01*
X0348199Y0153223D01*
X0347985Y0152803D01*
X0347760Y0152389D01*
X0347525Y0151980D01*
X0347281Y0151578D01*
X0347026Y0151181D01*
X0346763Y0150791D01*
X0346489Y0150407D01*
X0346206Y0150030D01*
X0345915Y0149660D01*
X0345614Y0149297D01*
X0345304Y0148942D01*
X0344986Y0148594D01*
X0344660Y0148255D01*
X0344325Y0147923D01*
X0343983Y0147599D01*
X0343632Y0147284D01*
X0343274Y0146978D01*
X0342909Y0146681D01*
X0342536Y0146392D01*
X0342157Y0146113D01*
X0341771Y0145843D01*
X0341378Y0145582D01*
X0340979Y0145331D01*
X0340574Y0145090D01*
X0340164Y0144859D01*
X0339747Y0144638D01*
X0339326Y0144428D01*
X0338900Y0144227D01*
X0338468Y0144037D01*
X0338033Y0143858D01*
X0337593Y0143689D01*
X0337149Y0143531D01*
X0336701Y0143384D01*
X0336250Y0143248D01*
X0335796Y0143123D01*
X0335338Y0143010D01*
X0334879Y0142907D01*
X0334416Y0142816D01*
X0333952Y0142735D01*
X0333486Y0142667D01*
X0333018Y0142609D01*
X0332549Y0142563D01*
X0332079Y0142529D01*
X0331609Y0142506D01*
X0331138Y0142494D01*
X0330666Y0142494D01*
X0330195Y0142506D01*
X0329725Y0142529D01*
X0329255Y0142563D01*
X0328786Y0142609D01*
X0328318Y0142667D01*
X0327852Y0142735D01*
X0327388Y0142816D01*
X0326925Y0142907D01*
X0326466Y0143010D01*
X0326008Y0143123D01*
X0325554Y0143248D01*
X0325103Y0143384D01*
X0324655Y0143531D01*
X0324211Y0143689D01*
X0323771Y0143858D01*
X0323336Y0144037D01*
X0322904Y0144227D01*
X0322478Y0144428D01*
X0322057Y0144638D01*
X0321640Y0144859D01*
X0321230Y0145090D01*
X0320825Y0145331D01*
X0320426Y0145582D01*
X0320033Y0145843D01*
X0319647Y0146113D01*
X0319268Y0146392D01*
X0318895Y0146681D01*
X0318530Y0146978D01*
X0318172Y0147284D01*
X0317821Y0147599D01*
X0317479Y0147923D01*
X0317144Y0148255D01*
X0316818Y0148594D01*
X0316500Y0148942D01*
X0316190Y0149297D01*
X0315889Y0149660D01*
X0315598Y0150030D01*
X0315315Y0150407D01*
X0315041Y0150791D01*
X0314778Y0151181D01*
X0314523Y0151578D01*
X0314279Y0151980D01*
X0314044Y0152389D01*
X0313819Y0152803D01*
X0313605Y0153223D01*
X0313401Y0153647D01*
X0313207Y0154077D01*
X0313024Y0154511D01*
X0312851Y0154950D01*
X0312689Y0155392D01*
X0312538Y0155838D01*
X0312398Y0156288D01*
X0312398Y0167312D02*
X0312538Y0167762D01*
X0312689Y0168208D01*
X0312851Y0168650D01*
X0313024Y0169089D01*
X0313207Y0169523D01*
X0313401Y0169953D01*
X0313605Y0170377D01*
X0313819Y0170797D01*
X0314044Y0171211D01*
X0314279Y0171620D01*
X0314523Y0172022D01*
X0314778Y0172419D01*
X0315041Y0172809D01*
X0315315Y0173193D01*
X0315598Y0173570D01*
X0315889Y0173940D01*
X0316190Y0174303D01*
X0316500Y0174658D01*
X0316818Y0175006D01*
X0317144Y0175345D01*
X0317479Y0175677D01*
X0317821Y0176001D01*
X0318172Y0176316D01*
X0318530Y0176622D01*
X0318895Y0176919D01*
X0319268Y0177208D01*
X0319647Y0177487D01*
X0320033Y0177757D01*
X0320426Y0178018D01*
X0320825Y0178269D01*
X0321230Y0178510D01*
X0321640Y0178741D01*
X0322057Y0178962D01*
X0322478Y0179172D01*
X0322904Y0179373D01*
X0323336Y0179563D01*
X0323771Y0179742D01*
X0324211Y0179911D01*
X0324655Y0180069D01*
X0325103Y0180216D01*
X0325554Y0180352D01*
X0326008Y0180477D01*
X0326466Y0180590D01*
X0326925Y0180693D01*
X0327388Y0180784D01*
X0327852Y0180865D01*
X0328318Y0180933D01*
X0328786Y0180991D01*
X0329255Y0181037D01*
X0329725Y0181071D01*
X0330195Y0181094D01*
X0330666Y0181106D01*
X0331138Y0181106D01*
X0331609Y0181094D01*
X0332079Y0181071D01*
X0332549Y0181037D01*
X0333018Y0180991D01*
X0333486Y0180933D01*
X0333952Y0180865D01*
X0334416Y0180784D01*
X0334879Y0180693D01*
X0335338Y0180590D01*
X0335796Y0180477D01*
X0336250Y0180352D01*
X0336701Y0180216D01*
X0337149Y0180069D01*
X0337593Y0179911D01*
X0338033Y0179742D01*
X0338468Y0179563D01*
X0338900Y0179373D01*
X0339326Y0179172D01*
X0339747Y0178962D01*
X0340164Y0178741D01*
X0340574Y0178510D01*
X0340979Y0178269D01*
X0341378Y0178018D01*
X0341771Y0177757D01*
X0342157Y0177487D01*
X0342536Y0177208D01*
X0342909Y0176919D01*
X0343274Y0176622D01*
X0343632Y0176316D01*
X0343983Y0176001D01*
X0344325Y0175677D01*
X0344660Y0175345D01*
X0344986Y0175006D01*
X0345304Y0174658D01*
X0345614Y0174303D01*
X0345915Y0173940D01*
X0346206Y0173570D01*
X0346489Y0173193D01*
X0346763Y0172809D01*
X0347026Y0172419D01*
X0347281Y0172022D01*
X0347525Y0171620D01*
X0347760Y0171211D01*
X0347985Y0170797D01*
X0348199Y0170377D01*
X0348403Y0169953D01*
X0348597Y0169523D01*
X0348780Y0169089D01*
X0348953Y0168650D01*
X0349115Y0168208D01*
X0349266Y0167762D01*
X0349406Y0167312D01*
X0349149Y0196701D02*
X0310984Y0196701D01*
X0316797Y0233510D02*
X0316799Y0233548D01*
X0316805Y0233587D01*
X0316815Y0233624D01*
X0316828Y0233660D01*
X0316846Y0233694D01*
X0316866Y0233727D01*
X0316890Y0233757D01*
X0316917Y0233784D01*
X0316947Y0233809D01*
X0316978Y0233831D01*
X0317012Y0233849D01*
X0317048Y0233863D01*
X0317085Y0233874D01*
X0317123Y0233881D01*
X0317161Y0233884D01*
X0317200Y0233883D01*
X0317238Y0233878D01*
X0317276Y0233869D01*
X0317312Y0233856D01*
X0317347Y0233840D01*
X0317380Y0233820D01*
X0317411Y0233797D01*
X0317439Y0233771D01*
X0317464Y0233742D01*
X0317487Y0233711D01*
X0317506Y0233677D01*
X0317521Y0233642D01*
X0317533Y0233605D01*
X0317541Y0233568D01*
X0317545Y0233529D01*
X0317545Y0233491D01*
X0317541Y0233452D01*
X0317533Y0233415D01*
X0317521Y0233378D01*
X0317506Y0233343D01*
X0317487Y0233309D01*
X0317464Y0233278D01*
X0317439Y0233249D01*
X0317411Y0233223D01*
X0317380Y0233200D01*
X0317347Y0233180D01*
X0317312Y0233164D01*
X0317276Y0233151D01*
X0317238Y0233142D01*
X0317200Y0233137D01*
X0317161Y0233136D01*
X0317123Y0233139D01*
X0317085Y0233146D01*
X0317048Y0233157D01*
X0317012Y0233171D01*
X0316978Y0233189D01*
X0316947Y0233211D01*
X0316917Y0233236D01*
X0316890Y0233263D01*
X0316866Y0233293D01*
X0316846Y0233326D01*
X0316828Y0233360D01*
X0316815Y0233396D01*
X0316805Y0233433D01*
X0316799Y0233472D01*
X0316797Y0233510D01*
X0316095Y0233602D02*
X0316097Y0233665D01*
X0316103Y0233727D01*
X0316113Y0233789D01*
X0316126Y0233851D01*
X0316144Y0233911D01*
X0316165Y0233970D01*
X0316190Y0234028D01*
X0316219Y0234084D01*
X0316251Y0234138D01*
X0316286Y0234190D01*
X0316324Y0234239D01*
X0316366Y0234287D01*
X0316410Y0234331D01*
X0316458Y0234373D01*
X0316507Y0234411D01*
X0316559Y0234446D01*
X0316613Y0234478D01*
X0316669Y0234507D01*
X0316727Y0234532D01*
X0316786Y0234553D01*
X0316846Y0234571D01*
X0316908Y0234584D01*
X0316970Y0234594D01*
X0317032Y0234600D01*
X0317095Y0234602D01*
X0317158Y0234600D01*
X0317220Y0234594D01*
X0317282Y0234584D01*
X0317344Y0234571D01*
X0317404Y0234553D01*
X0317463Y0234532D01*
X0317521Y0234507D01*
X0317577Y0234478D01*
X0317631Y0234446D01*
X0317683Y0234411D01*
X0317732Y0234373D01*
X0317780Y0234331D01*
X0317824Y0234287D01*
X0317866Y0234239D01*
X0317904Y0234190D01*
X0317939Y0234138D01*
X0317971Y0234084D01*
X0318000Y0234028D01*
X0318025Y0233970D01*
X0318046Y0233911D01*
X0318064Y0233851D01*
X0318077Y0233789D01*
X0318087Y0233727D01*
X0318093Y0233665D01*
X0318095Y0233602D01*
X0318093Y0233539D01*
X0318087Y0233477D01*
X0318077Y0233415D01*
X0318064Y0233353D01*
X0318046Y0233293D01*
X0318025Y0233234D01*
X0318000Y0233176D01*
X0317971Y0233120D01*
X0317939Y0233066D01*
X0317904Y0233014D01*
X0317866Y0232965D01*
X0317824Y0232917D01*
X0317780Y0232873D01*
X0317732Y0232831D01*
X0317683Y0232793D01*
X0317631Y0232758D01*
X0317577Y0232726D01*
X0317521Y0232697D01*
X0317463Y0232672D01*
X0317404Y0232651D01*
X0317344Y0232633D01*
X0317282Y0232620D01*
X0317220Y0232610D01*
X0317158Y0232604D01*
X0317095Y0232602D01*
X0317032Y0232604D01*
X0316970Y0232610D01*
X0316908Y0232620D01*
X0316846Y0232633D01*
X0316786Y0232651D01*
X0316727Y0232672D01*
X0316669Y0232697D01*
X0316613Y0232726D01*
X0316559Y0232758D01*
X0316507Y0232793D01*
X0316458Y0232831D01*
X0316410Y0232873D01*
X0316366Y0232917D01*
X0316324Y0232965D01*
X0316286Y0233014D01*
X0316251Y0233066D01*
X0316219Y0233120D01*
X0316190Y0233176D01*
X0316165Y0233234D01*
X0316144Y0233293D01*
X0316126Y0233353D01*
X0316113Y0233415D01*
X0316103Y0233477D01*
X0316097Y0233539D01*
X0316095Y0233602D01*
X0310984Y0236304D02*
X0349149Y0236304D01*
X0384642Y0257706D02*
X0384644Y0257859D01*
X0384650Y0258013D01*
X0384660Y0258166D01*
X0384674Y0258318D01*
X0384692Y0258471D01*
X0384714Y0258622D01*
X0384739Y0258773D01*
X0384769Y0258924D01*
X0384803Y0259074D01*
X0384840Y0259222D01*
X0384881Y0259370D01*
X0384926Y0259516D01*
X0384975Y0259662D01*
X0385028Y0259806D01*
X0385084Y0259948D01*
X0385144Y0260089D01*
X0385208Y0260229D01*
X0385275Y0260367D01*
X0385346Y0260503D01*
X0385421Y0260637D01*
X0385498Y0260769D01*
X0385580Y0260899D01*
X0385664Y0261027D01*
X0385752Y0261153D01*
X0385843Y0261276D01*
X0385937Y0261397D01*
X0386035Y0261515D01*
X0386135Y0261631D01*
X0386239Y0261744D01*
X0386345Y0261855D01*
X0386454Y0261963D01*
X0386566Y0262068D01*
X0386680Y0262169D01*
X0386798Y0262268D01*
X0386917Y0262364D01*
X0387039Y0262457D01*
X0387164Y0262546D01*
X0387291Y0262633D01*
X0387420Y0262715D01*
X0387551Y0262795D01*
X0387684Y0262871D01*
X0387819Y0262944D01*
X0387956Y0263013D01*
X0388095Y0263078D01*
X0388235Y0263140D01*
X0388377Y0263198D01*
X0388520Y0263253D01*
X0388665Y0263304D01*
X0388811Y0263351D01*
X0388958Y0263394D01*
X0389106Y0263433D01*
X0389255Y0263469D01*
X0389405Y0263500D01*
X0389556Y0263528D01*
X0389707Y0263552D01*
X0389860Y0263572D01*
X0390012Y0263588D01*
X0390165Y0263600D01*
X0390318Y0263608D01*
X0390471Y0263612D01*
X0390625Y0263612D01*
X0390778Y0263608D01*
X0390931Y0263600D01*
X0391084Y0263588D01*
X0391236Y0263572D01*
X0391389Y0263552D01*
X0391540Y0263528D01*
X0391691Y0263500D01*
X0391841Y0263469D01*
X0391990Y0263433D01*
X0392138Y0263394D01*
X0392285Y0263351D01*
X0392431Y0263304D01*
X0392576Y0263253D01*
X0392719Y0263198D01*
X0392861Y0263140D01*
X0393001Y0263078D01*
X0393140Y0263013D01*
X0393277Y0262944D01*
X0393412Y0262871D01*
X0393545Y0262795D01*
X0393676Y0262715D01*
X0393805Y0262633D01*
X0393932Y0262546D01*
X0394057Y0262457D01*
X0394179Y0262364D01*
X0394298Y0262268D01*
X0394416Y0262169D01*
X0394530Y0262068D01*
X0394642Y0261963D01*
X0394751Y0261855D01*
X0394857Y0261744D01*
X0394961Y0261631D01*
X0395061Y0261515D01*
X0395159Y0261397D01*
X0395253Y0261276D01*
X0395344Y0261153D01*
X0395432Y0261027D01*
X0395516Y0260899D01*
X0395598Y0260769D01*
X0395675Y0260637D01*
X0395750Y0260503D01*
X0395821Y0260367D01*
X0395888Y0260229D01*
X0395952Y0260089D01*
X0396012Y0259948D01*
X0396068Y0259806D01*
X0396121Y0259662D01*
X0396170Y0259516D01*
X0396215Y0259370D01*
X0396256Y0259222D01*
X0396293Y0259074D01*
X0396327Y0258924D01*
X0396357Y0258773D01*
X0396382Y0258622D01*
X0396404Y0258471D01*
X0396422Y0258318D01*
X0396436Y0258166D01*
X0396446Y0258013D01*
X0396452Y0257859D01*
X0396454Y0257706D01*
X0396452Y0257553D01*
X0396446Y0257399D01*
X0396436Y0257246D01*
X0396422Y0257094D01*
X0396404Y0256941D01*
X0396382Y0256790D01*
X0396357Y0256639D01*
X0396327Y0256488D01*
X0396293Y0256338D01*
X0396256Y0256190D01*
X0396215Y0256042D01*
X0396170Y0255896D01*
X0396121Y0255750D01*
X0396068Y0255606D01*
X0396012Y0255464D01*
X0395952Y0255323D01*
X0395888Y0255183D01*
X0395821Y0255045D01*
X0395750Y0254909D01*
X0395675Y0254775D01*
X0395598Y0254643D01*
X0395516Y0254513D01*
X0395432Y0254385D01*
X0395344Y0254259D01*
X0395253Y0254136D01*
X0395159Y0254015D01*
X0395061Y0253897D01*
X0394961Y0253781D01*
X0394857Y0253668D01*
X0394751Y0253557D01*
X0394642Y0253449D01*
X0394530Y0253344D01*
X0394416Y0253243D01*
X0394298Y0253144D01*
X0394179Y0253048D01*
X0394057Y0252955D01*
X0393932Y0252866D01*
X0393805Y0252779D01*
X0393676Y0252697D01*
X0393545Y0252617D01*
X0393412Y0252541D01*
X0393277Y0252468D01*
X0393140Y0252399D01*
X0393001Y0252334D01*
X0392861Y0252272D01*
X0392719Y0252214D01*
X0392576Y0252159D01*
X0392431Y0252108D01*
X0392285Y0252061D01*
X0392138Y0252018D01*
X0391990Y0251979D01*
X0391841Y0251943D01*
X0391691Y0251912D01*
X0391540Y0251884D01*
X0391389Y0251860D01*
X0391236Y0251840D01*
X0391084Y0251824D01*
X0390931Y0251812D01*
X0390778Y0251804D01*
X0390625Y0251800D01*
X0390471Y0251800D01*
X0390318Y0251804D01*
X0390165Y0251812D01*
X0390012Y0251824D01*
X0389860Y0251840D01*
X0389707Y0251860D01*
X0389556Y0251884D01*
X0389405Y0251912D01*
X0389255Y0251943D01*
X0389106Y0251979D01*
X0388958Y0252018D01*
X0388811Y0252061D01*
X0388665Y0252108D01*
X0388520Y0252159D01*
X0388377Y0252214D01*
X0388235Y0252272D01*
X0388095Y0252334D01*
X0387956Y0252399D01*
X0387819Y0252468D01*
X0387684Y0252541D01*
X0387551Y0252617D01*
X0387420Y0252697D01*
X0387291Y0252779D01*
X0387164Y0252866D01*
X0387039Y0252955D01*
X0386917Y0253048D01*
X0386798Y0253144D01*
X0386680Y0253243D01*
X0386566Y0253344D01*
X0386454Y0253449D01*
X0386345Y0253557D01*
X0386239Y0253668D01*
X0386135Y0253781D01*
X0386035Y0253897D01*
X0385937Y0254015D01*
X0385843Y0254136D01*
X0385752Y0254259D01*
X0385664Y0254385D01*
X0385580Y0254513D01*
X0385498Y0254643D01*
X0385421Y0254775D01*
X0385346Y0254909D01*
X0385275Y0255045D01*
X0385208Y0255183D01*
X0385144Y0255323D01*
X0385084Y0255464D01*
X0385028Y0255606D01*
X0384975Y0255750D01*
X0384926Y0255896D01*
X0384881Y0256042D01*
X0384840Y0256190D01*
X0384803Y0256338D01*
X0384769Y0256488D01*
X0384739Y0256639D01*
X0384714Y0256790D01*
X0384692Y0256941D01*
X0384674Y0257094D01*
X0384660Y0257246D01*
X0384650Y0257399D01*
X0384644Y0257553D01*
X0384642Y0257706D01*
X0237083Y0111328D02*
X0234721Y0111328D01*
X0230390Y0107587D02*
X0230390Y0102272D01*
X0233146Y0102272D01*
X0238658Y0102272D02*
X0241414Y0102272D01*
X0241414Y0107587D01*
X0216414Y0106013D02*
X0216414Y0111328D01*
X0213658Y0111328D01*
X0208146Y0111328D02*
X0205390Y0111328D01*
X0205390Y0106013D01*
X0209721Y0102272D02*
X0212083Y0102272D01*
X0176414Y0106013D02*
X0176414Y0111328D01*
X0173658Y0111328D01*
X0168146Y0111328D02*
X0165390Y0111328D01*
X0165390Y0106013D01*
X0169721Y0102272D02*
X0172083Y0102272D01*
X0151414Y0106013D02*
X0151414Y0111328D01*
X0148658Y0111328D01*
X0143146Y0111328D02*
X0140390Y0111328D01*
X0140390Y0106013D01*
X0144721Y0102272D02*
X0147083Y0102272D01*
X0150115Y0126288D02*
X0155430Y0126288D01*
X0155430Y0129044D01*
X0155430Y0134556D02*
X0155430Y0137312D01*
X0150115Y0137312D01*
X0146375Y0132981D02*
X0146375Y0130619D01*
X0157453Y0151957D02*
X0164351Y0151957D01*
X0167201Y0156414D02*
X0167201Y0167186D01*
X0164351Y0171643D02*
X0157453Y0171643D01*
X0154603Y0167186D02*
X0154603Y0156414D01*
X0260290Y0057914D02*
X0284789Y0082412D01*
X0287016Y0082412D01*
X0311514Y0057914D01*
X0311514Y0055686D01*
X0287016Y0031188D01*
X0284789Y0031188D01*
X0260290Y0055686D01*
X0260290Y0057914D01*
X0384642Y0021485D02*
X0384644Y0021638D01*
X0384650Y0021792D01*
X0384660Y0021945D01*
X0384674Y0022097D01*
X0384692Y0022250D01*
X0384714Y0022401D01*
X0384739Y0022552D01*
X0384769Y0022703D01*
X0384803Y0022853D01*
X0384840Y0023001D01*
X0384881Y0023149D01*
X0384926Y0023295D01*
X0384975Y0023441D01*
X0385028Y0023585D01*
X0385084Y0023727D01*
X0385144Y0023868D01*
X0385208Y0024008D01*
X0385275Y0024146D01*
X0385346Y0024282D01*
X0385421Y0024416D01*
X0385498Y0024548D01*
X0385580Y0024678D01*
X0385664Y0024806D01*
X0385752Y0024932D01*
X0385843Y0025055D01*
X0385937Y0025176D01*
X0386035Y0025294D01*
X0386135Y0025410D01*
X0386239Y0025523D01*
X0386345Y0025634D01*
X0386454Y0025742D01*
X0386566Y0025847D01*
X0386680Y0025948D01*
X0386798Y0026047D01*
X0386917Y0026143D01*
X0387039Y0026236D01*
X0387164Y0026325D01*
X0387291Y0026412D01*
X0387420Y0026494D01*
X0387551Y0026574D01*
X0387684Y0026650D01*
X0387819Y0026723D01*
X0387956Y0026792D01*
X0388095Y0026857D01*
X0388235Y0026919D01*
X0388377Y0026977D01*
X0388520Y0027032D01*
X0388665Y0027083D01*
X0388811Y0027130D01*
X0388958Y0027173D01*
X0389106Y0027212D01*
X0389255Y0027248D01*
X0389405Y0027279D01*
X0389556Y0027307D01*
X0389707Y0027331D01*
X0389860Y0027351D01*
X0390012Y0027367D01*
X0390165Y0027379D01*
X0390318Y0027387D01*
X0390471Y0027391D01*
X0390625Y0027391D01*
X0390778Y0027387D01*
X0390931Y0027379D01*
X0391084Y0027367D01*
X0391236Y0027351D01*
X0391389Y0027331D01*
X0391540Y0027307D01*
X0391691Y0027279D01*
X0391841Y0027248D01*
X0391990Y0027212D01*
X0392138Y0027173D01*
X0392285Y0027130D01*
X0392431Y0027083D01*
X0392576Y0027032D01*
X0392719Y0026977D01*
X0392861Y0026919D01*
X0393001Y0026857D01*
X0393140Y0026792D01*
X0393277Y0026723D01*
X0393412Y0026650D01*
X0393545Y0026574D01*
X0393676Y0026494D01*
X0393805Y0026412D01*
X0393932Y0026325D01*
X0394057Y0026236D01*
X0394179Y0026143D01*
X0394298Y0026047D01*
X0394416Y0025948D01*
X0394530Y0025847D01*
X0394642Y0025742D01*
X0394751Y0025634D01*
X0394857Y0025523D01*
X0394961Y0025410D01*
X0395061Y0025294D01*
X0395159Y0025176D01*
X0395253Y0025055D01*
X0395344Y0024932D01*
X0395432Y0024806D01*
X0395516Y0024678D01*
X0395598Y0024548D01*
X0395675Y0024416D01*
X0395750Y0024282D01*
X0395821Y0024146D01*
X0395888Y0024008D01*
X0395952Y0023868D01*
X0396012Y0023727D01*
X0396068Y0023585D01*
X0396121Y0023441D01*
X0396170Y0023295D01*
X0396215Y0023149D01*
X0396256Y0023001D01*
X0396293Y0022853D01*
X0396327Y0022703D01*
X0396357Y0022552D01*
X0396382Y0022401D01*
X0396404Y0022250D01*
X0396422Y0022097D01*
X0396436Y0021945D01*
X0396446Y0021792D01*
X0396452Y0021638D01*
X0396454Y0021485D01*
X0396452Y0021332D01*
X0396446Y0021178D01*
X0396436Y0021025D01*
X0396422Y0020873D01*
X0396404Y0020720D01*
X0396382Y0020569D01*
X0396357Y0020418D01*
X0396327Y0020267D01*
X0396293Y0020117D01*
X0396256Y0019969D01*
X0396215Y0019821D01*
X0396170Y0019675D01*
X0396121Y0019529D01*
X0396068Y0019385D01*
X0396012Y0019243D01*
X0395952Y0019102D01*
X0395888Y0018962D01*
X0395821Y0018824D01*
X0395750Y0018688D01*
X0395675Y0018554D01*
X0395598Y0018422D01*
X0395516Y0018292D01*
X0395432Y0018164D01*
X0395344Y0018038D01*
X0395253Y0017915D01*
X0395159Y0017794D01*
X0395061Y0017676D01*
X0394961Y0017560D01*
X0394857Y0017447D01*
X0394751Y0017336D01*
X0394642Y0017228D01*
X0394530Y0017123D01*
X0394416Y0017022D01*
X0394298Y0016923D01*
X0394179Y0016827D01*
X0394057Y0016734D01*
X0393932Y0016645D01*
X0393805Y0016558D01*
X0393676Y0016476D01*
X0393545Y0016396D01*
X0393412Y0016320D01*
X0393277Y0016247D01*
X0393140Y0016178D01*
X0393001Y0016113D01*
X0392861Y0016051D01*
X0392719Y0015993D01*
X0392576Y0015938D01*
X0392431Y0015887D01*
X0392285Y0015840D01*
X0392138Y0015797D01*
X0391990Y0015758D01*
X0391841Y0015722D01*
X0391691Y0015691D01*
X0391540Y0015663D01*
X0391389Y0015639D01*
X0391236Y0015619D01*
X0391084Y0015603D01*
X0390931Y0015591D01*
X0390778Y0015583D01*
X0390625Y0015579D01*
X0390471Y0015579D01*
X0390318Y0015583D01*
X0390165Y0015591D01*
X0390012Y0015603D01*
X0389860Y0015619D01*
X0389707Y0015639D01*
X0389556Y0015663D01*
X0389405Y0015691D01*
X0389255Y0015722D01*
X0389106Y0015758D01*
X0388958Y0015797D01*
X0388811Y0015840D01*
X0388665Y0015887D01*
X0388520Y0015938D01*
X0388377Y0015993D01*
X0388235Y0016051D01*
X0388095Y0016113D01*
X0387956Y0016178D01*
X0387819Y0016247D01*
X0387684Y0016320D01*
X0387551Y0016396D01*
X0387420Y0016476D01*
X0387291Y0016558D01*
X0387164Y0016645D01*
X0387039Y0016734D01*
X0386917Y0016827D01*
X0386798Y0016923D01*
X0386680Y0017022D01*
X0386566Y0017123D01*
X0386454Y0017228D01*
X0386345Y0017336D01*
X0386239Y0017447D01*
X0386135Y0017560D01*
X0386035Y0017676D01*
X0385937Y0017794D01*
X0385843Y0017915D01*
X0385752Y0018038D01*
X0385664Y0018164D01*
X0385580Y0018292D01*
X0385498Y0018422D01*
X0385421Y0018554D01*
X0385346Y0018688D01*
X0385275Y0018824D01*
X0385208Y0018962D01*
X0385144Y0019102D01*
X0385084Y0019243D01*
X0385028Y0019385D01*
X0384975Y0019529D01*
X0384926Y0019675D01*
X0384881Y0019821D01*
X0384840Y0019969D01*
X0384803Y0020117D01*
X0384769Y0020267D01*
X0384739Y0020418D01*
X0384714Y0020569D01*
X0384692Y0020720D01*
X0384674Y0020873D01*
X0384660Y0021025D01*
X0384650Y0021178D01*
X0384644Y0021332D01*
X0384642Y0021485D01*
X0069681Y0021485D02*
X0069683Y0021638D01*
X0069689Y0021792D01*
X0069699Y0021945D01*
X0069713Y0022097D01*
X0069731Y0022250D01*
X0069753Y0022401D01*
X0069778Y0022552D01*
X0069808Y0022703D01*
X0069842Y0022853D01*
X0069879Y0023001D01*
X0069920Y0023149D01*
X0069965Y0023295D01*
X0070014Y0023441D01*
X0070067Y0023585D01*
X0070123Y0023727D01*
X0070183Y0023868D01*
X0070247Y0024008D01*
X0070314Y0024146D01*
X0070385Y0024282D01*
X0070460Y0024416D01*
X0070537Y0024548D01*
X0070619Y0024678D01*
X0070703Y0024806D01*
X0070791Y0024932D01*
X0070882Y0025055D01*
X0070976Y0025176D01*
X0071074Y0025294D01*
X0071174Y0025410D01*
X0071278Y0025523D01*
X0071384Y0025634D01*
X0071493Y0025742D01*
X0071605Y0025847D01*
X0071719Y0025948D01*
X0071837Y0026047D01*
X0071956Y0026143D01*
X0072078Y0026236D01*
X0072203Y0026325D01*
X0072330Y0026412D01*
X0072459Y0026494D01*
X0072590Y0026574D01*
X0072723Y0026650D01*
X0072858Y0026723D01*
X0072995Y0026792D01*
X0073134Y0026857D01*
X0073274Y0026919D01*
X0073416Y0026977D01*
X0073559Y0027032D01*
X0073704Y0027083D01*
X0073850Y0027130D01*
X0073997Y0027173D01*
X0074145Y0027212D01*
X0074294Y0027248D01*
X0074444Y0027279D01*
X0074595Y0027307D01*
X0074746Y0027331D01*
X0074899Y0027351D01*
X0075051Y0027367D01*
X0075204Y0027379D01*
X0075357Y0027387D01*
X0075510Y0027391D01*
X0075664Y0027391D01*
X0075817Y0027387D01*
X0075970Y0027379D01*
X0076123Y0027367D01*
X0076275Y0027351D01*
X0076428Y0027331D01*
X0076579Y0027307D01*
X0076730Y0027279D01*
X0076880Y0027248D01*
X0077029Y0027212D01*
X0077177Y0027173D01*
X0077324Y0027130D01*
X0077470Y0027083D01*
X0077615Y0027032D01*
X0077758Y0026977D01*
X0077900Y0026919D01*
X0078040Y0026857D01*
X0078179Y0026792D01*
X0078316Y0026723D01*
X0078451Y0026650D01*
X0078584Y0026574D01*
X0078715Y0026494D01*
X0078844Y0026412D01*
X0078971Y0026325D01*
X0079096Y0026236D01*
X0079218Y0026143D01*
X0079337Y0026047D01*
X0079455Y0025948D01*
X0079569Y0025847D01*
X0079681Y0025742D01*
X0079790Y0025634D01*
X0079896Y0025523D01*
X0080000Y0025410D01*
X0080100Y0025294D01*
X0080198Y0025176D01*
X0080292Y0025055D01*
X0080383Y0024932D01*
X0080471Y0024806D01*
X0080555Y0024678D01*
X0080637Y0024548D01*
X0080714Y0024416D01*
X0080789Y0024282D01*
X0080860Y0024146D01*
X0080927Y0024008D01*
X0080991Y0023868D01*
X0081051Y0023727D01*
X0081107Y0023585D01*
X0081160Y0023441D01*
X0081209Y0023295D01*
X0081254Y0023149D01*
X0081295Y0023001D01*
X0081332Y0022853D01*
X0081366Y0022703D01*
X0081396Y0022552D01*
X0081421Y0022401D01*
X0081443Y0022250D01*
X0081461Y0022097D01*
X0081475Y0021945D01*
X0081485Y0021792D01*
X0081491Y0021638D01*
X0081493Y0021485D01*
X0081491Y0021332D01*
X0081485Y0021178D01*
X0081475Y0021025D01*
X0081461Y0020873D01*
X0081443Y0020720D01*
X0081421Y0020569D01*
X0081396Y0020418D01*
X0081366Y0020267D01*
X0081332Y0020117D01*
X0081295Y0019969D01*
X0081254Y0019821D01*
X0081209Y0019675D01*
X0081160Y0019529D01*
X0081107Y0019385D01*
X0081051Y0019243D01*
X0080991Y0019102D01*
X0080927Y0018962D01*
X0080860Y0018824D01*
X0080789Y0018688D01*
X0080714Y0018554D01*
X0080637Y0018422D01*
X0080555Y0018292D01*
X0080471Y0018164D01*
X0080383Y0018038D01*
X0080292Y0017915D01*
X0080198Y0017794D01*
X0080100Y0017676D01*
X0080000Y0017560D01*
X0079896Y0017447D01*
X0079790Y0017336D01*
X0079681Y0017228D01*
X0079569Y0017123D01*
X0079455Y0017022D01*
X0079337Y0016923D01*
X0079218Y0016827D01*
X0079096Y0016734D01*
X0078971Y0016645D01*
X0078844Y0016558D01*
X0078715Y0016476D01*
X0078584Y0016396D01*
X0078451Y0016320D01*
X0078316Y0016247D01*
X0078179Y0016178D01*
X0078040Y0016113D01*
X0077900Y0016051D01*
X0077758Y0015993D01*
X0077615Y0015938D01*
X0077470Y0015887D01*
X0077324Y0015840D01*
X0077177Y0015797D01*
X0077029Y0015758D01*
X0076880Y0015722D01*
X0076730Y0015691D01*
X0076579Y0015663D01*
X0076428Y0015639D01*
X0076275Y0015619D01*
X0076123Y0015603D01*
X0075970Y0015591D01*
X0075817Y0015583D01*
X0075664Y0015579D01*
X0075510Y0015579D01*
X0075357Y0015583D01*
X0075204Y0015591D01*
X0075051Y0015603D01*
X0074899Y0015619D01*
X0074746Y0015639D01*
X0074595Y0015663D01*
X0074444Y0015691D01*
X0074294Y0015722D01*
X0074145Y0015758D01*
X0073997Y0015797D01*
X0073850Y0015840D01*
X0073704Y0015887D01*
X0073559Y0015938D01*
X0073416Y0015993D01*
X0073274Y0016051D01*
X0073134Y0016113D01*
X0072995Y0016178D01*
X0072858Y0016247D01*
X0072723Y0016320D01*
X0072590Y0016396D01*
X0072459Y0016476D01*
X0072330Y0016558D01*
X0072203Y0016645D01*
X0072078Y0016734D01*
X0071956Y0016827D01*
X0071837Y0016923D01*
X0071719Y0017022D01*
X0071605Y0017123D01*
X0071493Y0017228D01*
X0071384Y0017336D01*
X0071278Y0017447D01*
X0071174Y0017560D01*
X0071074Y0017676D01*
X0070976Y0017794D01*
X0070882Y0017915D01*
X0070791Y0018038D01*
X0070703Y0018164D01*
X0070619Y0018292D01*
X0070537Y0018422D01*
X0070460Y0018554D01*
X0070385Y0018688D01*
X0070314Y0018824D01*
X0070247Y0018962D01*
X0070183Y0019102D01*
X0070123Y0019243D01*
X0070067Y0019385D01*
X0070014Y0019529D01*
X0069965Y0019675D01*
X0069920Y0019821D01*
X0069879Y0019969D01*
X0069842Y0020117D01*
X0069808Y0020267D01*
X0069778Y0020418D01*
X0069753Y0020569D01*
X0069731Y0020720D01*
X0069713Y0020873D01*
X0069699Y0021025D01*
X0069689Y0021178D01*
X0069683Y0021332D01*
X0069681Y0021485D01*
X0069681Y0257706D02*
X0069683Y0257859D01*
X0069689Y0258013D01*
X0069699Y0258166D01*
X0069713Y0258318D01*
X0069731Y0258471D01*
X0069753Y0258622D01*
X0069778Y0258773D01*
X0069808Y0258924D01*
X0069842Y0259074D01*
X0069879Y0259222D01*
X0069920Y0259370D01*
X0069965Y0259516D01*
X0070014Y0259662D01*
X0070067Y0259806D01*
X0070123Y0259948D01*
X0070183Y0260089D01*
X0070247Y0260229D01*
X0070314Y0260367D01*
X0070385Y0260503D01*
X0070460Y0260637D01*
X0070537Y0260769D01*
X0070619Y0260899D01*
X0070703Y0261027D01*
X0070791Y0261153D01*
X0070882Y0261276D01*
X0070976Y0261397D01*
X0071074Y0261515D01*
X0071174Y0261631D01*
X0071278Y0261744D01*
X0071384Y0261855D01*
X0071493Y0261963D01*
X0071605Y0262068D01*
X0071719Y0262169D01*
X0071837Y0262268D01*
X0071956Y0262364D01*
X0072078Y0262457D01*
X0072203Y0262546D01*
X0072330Y0262633D01*
X0072459Y0262715D01*
X0072590Y0262795D01*
X0072723Y0262871D01*
X0072858Y0262944D01*
X0072995Y0263013D01*
X0073134Y0263078D01*
X0073274Y0263140D01*
X0073416Y0263198D01*
X0073559Y0263253D01*
X0073704Y0263304D01*
X0073850Y0263351D01*
X0073997Y0263394D01*
X0074145Y0263433D01*
X0074294Y0263469D01*
X0074444Y0263500D01*
X0074595Y0263528D01*
X0074746Y0263552D01*
X0074899Y0263572D01*
X0075051Y0263588D01*
X0075204Y0263600D01*
X0075357Y0263608D01*
X0075510Y0263612D01*
X0075664Y0263612D01*
X0075817Y0263608D01*
X0075970Y0263600D01*
X0076123Y0263588D01*
X0076275Y0263572D01*
X0076428Y0263552D01*
X0076579Y0263528D01*
X0076730Y0263500D01*
X0076880Y0263469D01*
X0077029Y0263433D01*
X0077177Y0263394D01*
X0077324Y0263351D01*
X0077470Y0263304D01*
X0077615Y0263253D01*
X0077758Y0263198D01*
X0077900Y0263140D01*
X0078040Y0263078D01*
X0078179Y0263013D01*
X0078316Y0262944D01*
X0078451Y0262871D01*
X0078584Y0262795D01*
X0078715Y0262715D01*
X0078844Y0262633D01*
X0078971Y0262546D01*
X0079096Y0262457D01*
X0079218Y0262364D01*
X0079337Y0262268D01*
X0079455Y0262169D01*
X0079569Y0262068D01*
X0079681Y0261963D01*
X0079790Y0261855D01*
X0079896Y0261744D01*
X0080000Y0261631D01*
X0080100Y0261515D01*
X0080198Y0261397D01*
X0080292Y0261276D01*
X0080383Y0261153D01*
X0080471Y0261027D01*
X0080555Y0260899D01*
X0080637Y0260769D01*
X0080714Y0260637D01*
X0080789Y0260503D01*
X0080860Y0260367D01*
X0080927Y0260229D01*
X0080991Y0260089D01*
X0081051Y0259948D01*
X0081107Y0259806D01*
X0081160Y0259662D01*
X0081209Y0259516D01*
X0081254Y0259370D01*
X0081295Y0259222D01*
X0081332Y0259074D01*
X0081366Y0258924D01*
X0081396Y0258773D01*
X0081421Y0258622D01*
X0081443Y0258471D01*
X0081461Y0258318D01*
X0081475Y0258166D01*
X0081485Y0258013D01*
X0081491Y0257859D01*
X0081493Y0257706D01*
X0081491Y0257553D01*
X0081485Y0257399D01*
X0081475Y0257246D01*
X0081461Y0257094D01*
X0081443Y0256941D01*
X0081421Y0256790D01*
X0081396Y0256639D01*
X0081366Y0256488D01*
X0081332Y0256338D01*
X0081295Y0256190D01*
X0081254Y0256042D01*
X0081209Y0255896D01*
X0081160Y0255750D01*
X0081107Y0255606D01*
X0081051Y0255464D01*
X0080991Y0255323D01*
X0080927Y0255183D01*
X0080860Y0255045D01*
X0080789Y0254909D01*
X0080714Y0254775D01*
X0080637Y0254643D01*
X0080555Y0254513D01*
X0080471Y0254385D01*
X0080383Y0254259D01*
X0080292Y0254136D01*
X0080198Y0254015D01*
X0080100Y0253897D01*
X0080000Y0253781D01*
X0079896Y0253668D01*
X0079790Y0253557D01*
X0079681Y0253449D01*
X0079569Y0253344D01*
X0079455Y0253243D01*
X0079337Y0253144D01*
X0079218Y0253048D01*
X0079096Y0252955D01*
X0078971Y0252866D01*
X0078844Y0252779D01*
X0078715Y0252697D01*
X0078584Y0252617D01*
X0078451Y0252541D01*
X0078316Y0252468D01*
X0078179Y0252399D01*
X0078040Y0252334D01*
X0077900Y0252272D01*
X0077758Y0252214D01*
X0077615Y0252159D01*
X0077470Y0252108D01*
X0077324Y0252061D01*
X0077177Y0252018D01*
X0077029Y0251979D01*
X0076880Y0251943D01*
X0076730Y0251912D01*
X0076579Y0251884D01*
X0076428Y0251860D01*
X0076275Y0251840D01*
X0076123Y0251824D01*
X0075970Y0251812D01*
X0075817Y0251804D01*
X0075664Y0251800D01*
X0075510Y0251800D01*
X0075357Y0251804D01*
X0075204Y0251812D01*
X0075051Y0251824D01*
X0074899Y0251840D01*
X0074746Y0251860D01*
X0074595Y0251884D01*
X0074444Y0251912D01*
X0074294Y0251943D01*
X0074145Y0251979D01*
X0073997Y0252018D01*
X0073850Y0252061D01*
X0073704Y0252108D01*
X0073559Y0252159D01*
X0073416Y0252214D01*
X0073274Y0252272D01*
X0073134Y0252334D01*
X0072995Y0252399D01*
X0072858Y0252468D01*
X0072723Y0252541D01*
X0072590Y0252617D01*
X0072459Y0252697D01*
X0072330Y0252779D01*
X0072203Y0252866D01*
X0072078Y0252955D01*
X0071956Y0253048D01*
X0071837Y0253144D01*
X0071719Y0253243D01*
X0071605Y0253344D01*
X0071493Y0253449D01*
X0071384Y0253557D01*
X0071278Y0253668D01*
X0071174Y0253781D01*
X0071074Y0253897D01*
X0070976Y0254015D01*
X0070882Y0254136D01*
X0070791Y0254259D01*
X0070703Y0254385D01*
X0070619Y0254513D01*
X0070537Y0254643D01*
X0070460Y0254775D01*
X0070385Y0254909D01*
X0070314Y0255045D01*
X0070247Y0255183D01*
X0070183Y0255323D01*
X0070123Y0255464D01*
X0070067Y0255606D01*
X0070014Y0255750D01*
X0069965Y0255896D01*
X0069920Y0256042D01*
X0069879Y0256190D01*
X0069842Y0256338D01*
X0069808Y0256488D01*
X0069778Y0256639D01*
X0069753Y0256790D01*
X0069731Y0256941D01*
X0069713Y0257094D01*
X0069699Y0257246D01*
X0069689Y0257399D01*
X0069683Y0257553D01*
X0069681Y0257706D01*
D16*
X0064087Y0257706D02*
X0064090Y0257988D01*
X0064101Y0258270D01*
X0064118Y0258552D01*
X0064142Y0258833D01*
X0064173Y0259114D01*
X0064211Y0259393D01*
X0064256Y0259672D01*
X0064308Y0259950D01*
X0064366Y0260226D01*
X0064432Y0260500D01*
X0064504Y0260773D01*
X0064582Y0261044D01*
X0064667Y0261313D01*
X0064759Y0261580D01*
X0064858Y0261845D01*
X0064962Y0262107D01*
X0065074Y0262366D01*
X0065191Y0262623D01*
X0065315Y0262877D01*
X0065445Y0263127D01*
X0065581Y0263374D01*
X0065723Y0263618D01*
X0065871Y0263858D01*
X0066025Y0264095D01*
X0066185Y0264328D01*
X0066350Y0264557D01*
X0066521Y0264781D01*
X0066697Y0265002D01*
X0066879Y0265217D01*
X0067066Y0265429D01*
X0067258Y0265636D01*
X0067455Y0265838D01*
X0067657Y0266035D01*
X0067864Y0266227D01*
X0068076Y0266414D01*
X0068291Y0266596D01*
X0068512Y0266772D01*
X0068736Y0266943D01*
X0068965Y0267108D01*
X0069198Y0267268D01*
X0069435Y0267422D01*
X0069675Y0267570D01*
X0069919Y0267712D01*
X0070166Y0267848D01*
X0070416Y0267978D01*
X0070670Y0268102D01*
X0070927Y0268219D01*
X0071186Y0268331D01*
X0071448Y0268435D01*
X0071713Y0268534D01*
X0071980Y0268626D01*
X0072249Y0268711D01*
X0072520Y0268789D01*
X0072793Y0268861D01*
X0073067Y0268927D01*
X0073343Y0268985D01*
X0073621Y0269037D01*
X0073900Y0269082D01*
X0074179Y0269120D01*
X0074460Y0269151D01*
X0074741Y0269175D01*
X0075023Y0269192D01*
X0075305Y0269203D01*
X0075587Y0269206D01*
X0075869Y0269203D01*
X0076151Y0269192D01*
X0076433Y0269175D01*
X0076714Y0269151D01*
X0076995Y0269120D01*
X0077274Y0269082D01*
X0077553Y0269037D01*
X0077831Y0268985D01*
X0078107Y0268927D01*
X0078381Y0268861D01*
X0078654Y0268789D01*
X0078925Y0268711D01*
X0079194Y0268626D01*
X0079461Y0268534D01*
X0079726Y0268435D01*
X0079988Y0268331D01*
X0080247Y0268219D01*
X0080504Y0268102D01*
X0080758Y0267978D01*
X0081008Y0267848D01*
X0081255Y0267712D01*
X0081499Y0267570D01*
X0081739Y0267422D01*
X0081976Y0267268D01*
X0082209Y0267108D01*
X0082438Y0266943D01*
X0082662Y0266772D01*
X0082883Y0266596D01*
X0083098Y0266414D01*
X0083310Y0266227D01*
X0083517Y0266035D01*
X0083719Y0265838D01*
X0083916Y0265636D01*
X0084108Y0265429D01*
X0084295Y0265217D01*
X0084477Y0265002D01*
X0084653Y0264781D01*
X0084824Y0264557D01*
X0084989Y0264328D01*
X0085149Y0264095D01*
X0085303Y0263858D01*
X0085451Y0263618D01*
X0085593Y0263374D01*
X0085729Y0263127D01*
X0085859Y0262877D01*
X0085983Y0262623D01*
X0086100Y0262366D01*
X0086212Y0262107D01*
X0086316Y0261845D01*
X0086415Y0261580D01*
X0086507Y0261313D01*
X0086592Y0261044D01*
X0086670Y0260773D01*
X0086742Y0260500D01*
X0086808Y0260226D01*
X0086866Y0259950D01*
X0086918Y0259672D01*
X0086963Y0259393D01*
X0087001Y0259114D01*
X0087032Y0258833D01*
X0087056Y0258552D01*
X0087073Y0258270D01*
X0087084Y0257988D01*
X0087087Y0257706D01*
X0087084Y0257424D01*
X0087073Y0257142D01*
X0087056Y0256860D01*
X0087032Y0256579D01*
X0087001Y0256298D01*
X0086963Y0256019D01*
X0086918Y0255740D01*
X0086866Y0255462D01*
X0086808Y0255186D01*
X0086742Y0254912D01*
X0086670Y0254639D01*
X0086592Y0254368D01*
X0086507Y0254099D01*
X0086415Y0253832D01*
X0086316Y0253567D01*
X0086212Y0253305D01*
X0086100Y0253046D01*
X0085983Y0252789D01*
X0085859Y0252535D01*
X0085729Y0252285D01*
X0085593Y0252038D01*
X0085451Y0251794D01*
X0085303Y0251554D01*
X0085149Y0251317D01*
X0084989Y0251084D01*
X0084824Y0250855D01*
X0084653Y0250631D01*
X0084477Y0250410D01*
X0084295Y0250195D01*
X0084108Y0249983D01*
X0083916Y0249776D01*
X0083719Y0249574D01*
X0083517Y0249377D01*
X0083310Y0249185D01*
X0083098Y0248998D01*
X0082883Y0248816D01*
X0082662Y0248640D01*
X0082438Y0248469D01*
X0082209Y0248304D01*
X0081976Y0248144D01*
X0081739Y0247990D01*
X0081499Y0247842D01*
X0081255Y0247700D01*
X0081008Y0247564D01*
X0080758Y0247434D01*
X0080504Y0247310D01*
X0080247Y0247193D01*
X0079988Y0247081D01*
X0079726Y0246977D01*
X0079461Y0246878D01*
X0079194Y0246786D01*
X0078925Y0246701D01*
X0078654Y0246623D01*
X0078381Y0246551D01*
X0078107Y0246485D01*
X0077831Y0246427D01*
X0077553Y0246375D01*
X0077274Y0246330D01*
X0076995Y0246292D01*
X0076714Y0246261D01*
X0076433Y0246237D01*
X0076151Y0246220D01*
X0075869Y0246209D01*
X0075587Y0246206D01*
X0075305Y0246209D01*
X0075023Y0246220D01*
X0074741Y0246237D01*
X0074460Y0246261D01*
X0074179Y0246292D01*
X0073900Y0246330D01*
X0073621Y0246375D01*
X0073343Y0246427D01*
X0073067Y0246485D01*
X0072793Y0246551D01*
X0072520Y0246623D01*
X0072249Y0246701D01*
X0071980Y0246786D01*
X0071713Y0246878D01*
X0071448Y0246977D01*
X0071186Y0247081D01*
X0070927Y0247193D01*
X0070670Y0247310D01*
X0070416Y0247434D01*
X0070166Y0247564D01*
X0069919Y0247700D01*
X0069675Y0247842D01*
X0069435Y0247990D01*
X0069198Y0248144D01*
X0068965Y0248304D01*
X0068736Y0248469D01*
X0068512Y0248640D01*
X0068291Y0248816D01*
X0068076Y0248998D01*
X0067864Y0249185D01*
X0067657Y0249377D01*
X0067455Y0249574D01*
X0067258Y0249776D01*
X0067066Y0249983D01*
X0066879Y0250195D01*
X0066697Y0250410D01*
X0066521Y0250631D01*
X0066350Y0250855D01*
X0066185Y0251084D01*
X0066025Y0251317D01*
X0065871Y0251554D01*
X0065723Y0251794D01*
X0065581Y0252038D01*
X0065445Y0252285D01*
X0065315Y0252535D01*
X0065191Y0252789D01*
X0065074Y0253046D01*
X0064962Y0253305D01*
X0064858Y0253567D01*
X0064759Y0253832D01*
X0064667Y0254099D01*
X0064582Y0254368D01*
X0064504Y0254639D01*
X0064432Y0254912D01*
X0064366Y0255186D01*
X0064308Y0255462D01*
X0064256Y0255740D01*
X0064211Y0256019D01*
X0064173Y0256298D01*
X0064142Y0256579D01*
X0064118Y0256860D01*
X0064101Y0257142D01*
X0064090Y0257424D01*
X0064087Y0257706D01*
X0219902Y0193900D02*
X0219902Y0193000D01*
X0219902Y0190600D01*
X0219902Y0189700D01*
X0219902Y0190600D02*
X0219971Y0190602D01*
X0220039Y0190608D01*
X0220107Y0190618D01*
X0220174Y0190631D01*
X0220240Y0190649D01*
X0220305Y0190670D01*
X0220369Y0190695D01*
X0220431Y0190723D01*
X0220492Y0190755D01*
X0220551Y0190790D01*
X0220607Y0190829D01*
X0220662Y0190871D01*
X0220713Y0190916D01*
X0220763Y0190964D01*
X0220809Y0191014D01*
X0220852Y0191067D01*
X0220893Y0191123D01*
X0220930Y0191180D01*
X0220963Y0191240D01*
X0220994Y0191302D01*
X0221020Y0191365D01*
X0221043Y0191429D01*
X0221063Y0191495D01*
X0221078Y0191562D01*
X0221090Y0191629D01*
X0221098Y0191697D01*
X0221102Y0191766D01*
X0221102Y0191834D01*
X0221098Y0191903D01*
X0221090Y0191971D01*
X0221078Y0192038D01*
X0221063Y0192105D01*
X0221043Y0192171D01*
X0221020Y0192235D01*
X0220994Y0192298D01*
X0220963Y0192360D01*
X0220930Y0192420D01*
X0220893Y0192477D01*
X0220852Y0192533D01*
X0220809Y0192586D01*
X0220763Y0192636D01*
X0220713Y0192684D01*
X0220662Y0192729D01*
X0220607Y0192771D01*
X0220551Y0192810D01*
X0220492Y0192845D01*
X0220431Y0192877D01*
X0220369Y0192905D01*
X0220305Y0192930D01*
X0220240Y0192951D01*
X0220174Y0192969D01*
X0220107Y0192982D01*
X0220039Y0192992D01*
X0219971Y0192998D01*
X0219902Y0193000D01*
X0224602Y0195200D02*
X0227202Y0195200D01*
X0231902Y0193900D02*
X0231902Y0189700D01*
X0283802Y0142800D02*
X0284702Y0142800D01*
X0287102Y0142800D01*
X0288002Y0142800D01*
X0287102Y0142800D02*
X0287100Y0142731D01*
X0287094Y0142663D01*
X0287084Y0142595D01*
X0287071Y0142528D01*
X0287053Y0142462D01*
X0287032Y0142397D01*
X0287007Y0142333D01*
X0286979Y0142271D01*
X0286947Y0142210D01*
X0286912Y0142151D01*
X0286873Y0142095D01*
X0286831Y0142040D01*
X0286786Y0141989D01*
X0286738Y0141939D01*
X0286688Y0141893D01*
X0286635Y0141850D01*
X0286579Y0141809D01*
X0286522Y0141772D01*
X0286462Y0141739D01*
X0286400Y0141708D01*
X0286337Y0141682D01*
X0286273Y0141659D01*
X0286207Y0141639D01*
X0286140Y0141624D01*
X0286073Y0141612D01*
X0286005Y0141604D01*
X0285936Y0141600D01*
X0285868Y0141600D01*
X0285799Y0141604D01*
X0285731Y0141612D01*
X0285664Y0141624D01*
X0285597Y0141639D01*
X0285531Y0141659D01*
X0285467Y0141682D01*
X0285404Y0141708D01*
X0285342Y0141739D01*
X0285282Y0141772D01*
X0285225Y0141809D01*
X0285169Y0141850D01*
X0285116Y0141893D01*
X0285066Y0141939D01*
X0285018Y0141989D01*
X0284973Y0142040D01*
X0284931Y0142095D01*
X0284892Y0142151D01*
X0284857Y0142210D01*
X0284825Y0142271D01*
X0284797Y0142333D01*
X0284772Y0142397D01*
X0284751Y0142462D01*
X0284733Y0142528D01*
X0284720Y0142595D01*
X0284710Y0142663D01*
X0284704Y0142731D01*
X0284702Y0142800D01*
X0289302Y0138100D02*
X0289302Y0135500D01*
X0288002Y0130800D02*
X0283802Y0130800D01*
X0238902Y0053300D02*
X0232902Y0053300D01*
X0232842Y0053298D01*
X0232781Y0053293D01*
X0232722Y0053284D01*
X0232663Y0053271D01*
X0232604Y0053255D01*
X0232547Y0053235D01*
X0232492Y0053212D01*
X0232437Y0053185D01*
X0232385Y0053156D01*
X0232334Y0053123D01*
X0232285Y0053087D01*
X0232239Y0053049D01*
X0232195Y0053007D01*
X0232153Y0052963D01*
X0232115Y0052917D01*
X0232079Y0052868D01*
X0232046Y0052817D01*
X0232017Y0052765D01*
X0231990Y0052710D01*
X0231967Y0052655D01*
X0231947Y0052598D01*
X0231931Y0052539D01*
X0231918Y0052480D01*
X0231909Y0052421D01*
X0231904Y0052360D01*
X0231902Y0052300D01*
X0231902Y0041300D01*
X0231904Y0041240D01*
X0231909Y0041179D01*
X0231918Y0041120D01*
X0231931Y0041061D01*
X0231947Y0041002D01*
X0231967Y0040945D01*
X0231990Y0040890D01*
X0232017Y0040835D01*
X0232046Y0040783D01*
X0232079Y0040732D01*
X0232115Y0040683D01*
X0232153Y0040637D01*
X0232195Y0040593D01*
X0232239Y0040551D01*
X0232285Y0040513D01*
X0232334Y0040477D01*
X0232385Y0040444D01*
X0232437Y0040415D01*
X0232492Y0040388D01*
X0232547Y0040365D01*
X0232604Y0040345D01*
X0232663Y0040329D01*
X0232722Y0040316D01*
X0232781Y0040307D01*
X0232842Y0040302D01*
X0232902Y0040300D01*
X0238902Y0040300D01*
X0238962Y0040302D01*
X0239023Y0040307D01*
X0239082Y0040316D01*
X0239141Y0040329D01*
X0239200Y0040345D01*
X0239257Y0040365D01*
X0239312Y0040388D01*
X0239367Y0040415D01*
X0239419Y0040444D01*
X0239470Y0040477D01*
X0239519Y0040513D01*
X0239565Y0040551D01*
X0239609Y0040593D01*
X0239651Y0040637D01*
X0239689Y0040683D01*
X0239725Y0040732D01*
X0239758Y0040783D01*
X0239787Y0040835D01*
X0239814Y0040890D01*
X0239837Y0040945D01*
X0239857Y0041002D01*
X0239873Y0041061D01*
X0239886Y0041120D01*
X0239895Y0041179D01*
X0239900Y0041240D01*
X0239902Y0041300D01*
X0239902Y0052300D01*
X0239900Y0052360D01*
X0239895Y0052421D01*
X0239886Y0052480D01*
X0239873Y0052539D01*
X0239857Y0052598D01*
X0239837Y0052655D01*
X0239814Y0052710D01*
X0239787Y0052765D01*
X0239758Y0052817D01*
X0239725Y0052868D01*
X0239689Y0052917D01*
X0239651Y0052963D01*
X0239609Y0053007D01*
X0239565Y0053049D01*
X0239519Y0053087D01*
X0239470Y0053123D01*
X0239419Y0053156D01*
X0239367Y0053185D01*
X0239312Y0053212D01*
X0239257Y0053235D01*
X0239200Y0053255D01*
X0239141Y0053271D01*
X0239082Y0053284D01*
X0239023Y0053293D01*
X0238962Y0053298D01*
X0238902Y0053300D01*
X0238902Y0033300D02*
X0232902Y0033300D01*
X0232842Y0033298D01*
X0232781Y0033293D01*
X0232722Y0033284D01*
X0232663Y0033271D01*
X0232604Y0033255D01*
X0232547Y0033235D01*
X0232492Y0033212D01*
X0232437Y0033185D01*
X0232385Y0033156D01*
X0232334Y0033123D01*
X0232285Y0033087D01*
X0232239Y0033049D01*
X0232195Y0033007D01*
X0232153Y0032963D01*
X0232115Y0032917D01*
X0232079Y0032868D01*
X0232046Y0032817D01*
X0232017Y0032765D01*
X0231990Y0032710D01*
X0231967Y0032655D01*
X0231947Y0032598D01*
X0231931Y0032539D01*
X0231918Y0032480D01*
X0231909Y0032421D01*
X0231904Y0032360D01*
X0231902Y0032300D01*
X0231902Y0021300D01*
X0231904Y0021240D01*
X0231909Y0021179D01*
X0231918Y0021120D01*
X0231931Y0021061D01*
X0231947Y0021002D01*
X0231967Y0020945D01*
X0231990Y0020890D01*
X0232017Y0020835D01*
X0232046Y0020783D01*
X0232079Y0020732D01*
X0232115Y0020683D01*
X0232153Y0020637D01*
X0232195Y0020593D01*
X0232239Y0020551D01*
X0232285Y0020513D01*
X0232334Y0020477D01*
X0232385Y0020444D01*
X0232437Y0020415D01*
X0232492Y0020388D01*
X0232547Y0020365D01*
X0232604Y0020345D01*
X0232663Y0020329D01*
X0232722Y0020316D01*
X0232781Y0020307D01*
X0232842Y0020302D01*
X0232902Y0020300D01*
X0238902Y0020300D01*
X0238962Y0020302D01*
X0239023Y0020307D01*
X0239082Y0020316D01*
X0239141Y0020329D01*
X0239200Y0020345D01*
X0239257Y0020365D01*
X0239312Y0020388D01*
X0239367Y0020415D01*
X0239419Y0020444D01*
X0239470Y0020477D01*
X0239519Y0020513D01*
X0239565Y0020551D01*
X0239609Y0020593D01*
X0239651Y0020637D01*
X0239689Y0020683D01*
X0239725Y0020732D01*
X0239758Y0020783D01*
X0239787Y0020835D01*
X0239814Y0020890D01*
X0239837Y0020945D01*
X0239857Y0021002D01*
X0239873Y0021061D01*
X0239886Y0021120D01*
X0239895Y0021179D01*
X0239900Y0021240D01*
X0239902Y0021300D01*
X0239902Y0032300D01*
X0239900Y0032360D01*
X0239895Y0032421D01*
X0239886Y0032480D01*
X0239873Y0032539D01*
X0239857Y0032598D01*
X0239837Y0032655D01*
X0239814Y0032710D01*
X0239787Y0032765D01*
X0239758Y0032817D01*
X0239725Y0032868D01*
X0239689Y0032917D01*
X0239651Y0032963D01*
X0239609Y0033007D01*
X0239565Y0033049D01*
X0239519Y0033087D01*
X0239470Y0033123D01*
X0239419Y0033156D01*
X0239367Y0033185D01*
X0239312Y0033212D01*
X0239257Y0033235D01*
X0239200Y0033255D01*
X0239141Y0033271D01*
X0239082Y0033284D01*
X0239023Y0033293D01*
X0238962Y0033298D01*
X0238902Y0033300D01*
X0161902Y0039300D02*
X0161902Y0024300D01*
X0161900Y0024240D01*
X0161895Y0024179D01*
X0161886Y0024120D01*
X0161873Y0024061D01*
X0161857Y0024002D01*
X0161837Y0023945D01*
X0161814Y0023890D01*
X0161787Y0023835D01*
X0161758Y0023783D01*
X0161725Y0023732D01*
X0161689Y0023683D01*
X0161651Y0023637D01*
X0161609Y0023593D01*
X0161565Y0023551D01*
X0161519Y0023513D01*
X0161470Y0023477D01*
X0161419Y0023444D01*
X0161367Y0023415D01*
X0161312Y0023388D01*
X0161257Y0023365D01*
X0161200Y0023345D01*
X0161141Y0023329D01*
X0161082Y0023316D01*
X0161023Y0023307D01*
X0160962Y0023302D01*
X0160902Y0023300D01*
X0150902Y0023300D01*
X0150842Y0023302D01*
X0150781Y0023307D01*
X0150722Y0023316D01*
X0150663Y0023329D01*
X0150604Y0023345D01*
X0150547Y0023365D01*
X0150492Y0023388D01*
X0150437Y0023415D01*
X0150385Y0023444D01*
X0150334Y0023477D01*
X0150285Y0023513D01*
X0150239Y0023551D01*
X0150195Y0023593D01*
X0150153Y0023637D01*
X0150115Y0023683D01*
X0150079Y0023732D01*
X0150046Y0023783D01*
X0150017Y0023835D01*
X0149990Y0023890D01*
X0149967Y0023945D01*
X0149947Y0024002D01*
X0149931Y0024061D01*
X0149918Y0024120D01*
X0149909Y0024179D01*
X0149904Y0024240D01*
X0149902Y0024300D01*
X0149902Y0039300D01*
X0149904Y0039360D01*
X0149909Y0039421D01*
X0149918Y0039480D01*
X0149931Y0039539D01*
X0149947Y0039598D01*
X0149967Y0039655D01*
X0149990Y0039710D01*
X0150017Y0039765D01*
X0150046Y0039817D01*
X0150079Y0039868D01*
X0150115Y0039917D01*
X0150153Y0039963D01*
X0150195Y0040007D01*
X0150239Y0040049D01*
X0150285Y0040087D01*
X0150334Y0040123D01*
X0150385Y0040156D01*
X0150437Y0040185D01*
X0150492Y0040212D01*
X0150547Y0040235D01*
X0150604Y0040255D01*
X0150663Y0040271D01*
X0150722Y0040284D01*
X0150781Y0040293D01*
X0150842Y0040298D01*
X0150902Y0040300D01*
X0160902Y0040300D01*
X0160962Y0040298D01*
X0161023Y0040293D01*
X0161082Y0040284D01*
X0161141Y0040271D01*
X0161200Y0040255D01*
X0161257Y0040235D01*
X0161312Y0040212D01*
X0161367Y0040185D01*
X0161419Y0040156D01*
X0161470Y0040123D01*
X0161519Y0040087D01*
X0161565Y0040049D01*
X0161609Y0040007D01*
X0161651Y0039963D01*
X0161689Y0039917D01*
X0161725Y0039868D01*
X0161758Y0039817D01*
X0161787Y0039765D01*
X0161814Y0039710D01*
X0161837Y0039655D01*
X0161857Y0039598D01*
X0161873Y0039539D01*
X0161886Y0039480D01*
X0161895Y0039421D01*
X0161900Y0039360D01*
X0161902Y0039300D01*
X0136902Y0039300D02*
X0136902Y0024300D01*
X0136900Y0024240D01*
X0136895Y0024179D01*
X0136886Y0024120D01*
X0136873Y0024061D01*
X0136857Y0024002D01*
X0136837Y0023945D01*
X0136814Y0023890D01*
X0136787Y0023835D01*
X0136758Y0023783D01*
X0136725Y0023732D01*
X0136689Y0023683D01*
X0136651Y0023637D01*
X0136609Y0023593D01*
X0136565Y0023551D01*
X0136519Y0023513D01*
X0136470Y0023477D01*
X0136419Y0023444D01*
X0136367Y0023415D01*
X0136312Y0023388D01*
X0136257Y0023365D01*
X0136200Y0023345D01*
X0136141Y0023329D01*
X0136082Y0023316D01*
X0136023Y0023307D01*
X0135962Y0023302D01*
X0135902Y0023300D01*
X0125902Y0023300D01*
X0125842Y0023302D01*
X0125781Y0023307D01*
X0125722Y0023316D01*
X0125663Y0023329D01*
X0125604Y0023345D01*
X0125547Y0023365D01*
X0125492Y0023388D01*
X0125437Y0023415D01*
X0125385Y0023444D01*
X0125334Y0023477D01*
X0125285Y0023513D01*
X0125239Y0023551D01*
X0125195Y0023593D01*
X0125153Y0023637D01*
X0125115Y0023683D01*
X0125079Y0023732D01*
X0125046Y0023783D01*
X0125017Y0023835D01*
X0124990Y0023890D01*
X0124967Y0023945D01*
X0124947Y0024002D01*
X0124931Y0024061D01*
X0124918Y0024120D01*
X0124909Y0024179D01*
X0124904Y0024240D01*
X0124902Y0024300D01*
X0124902Y0039300D01*
X0124904Y0039360D01*
X0124909Y0039421D01*
X0124918Y0039480D01*
X0124931Y0039539D01*
X0124947Y0039598D01*
X0124967Y0039655D01*
X0124990Y0039710D01*
X0125017Y0039765D01*
X0125046Y0039817D01*
X0125079Y0039868D01*
X0125115Y0039917D01*
X0125153Y0039963D01*
X0125195Y0040007D01*
X0125239Y0040049D01*
X0125285Y0040087D01*
X0125334Y0040123D01*
X0125385Y0040156D01*
X0125437Y0040185D01*
X0125492Y0040212D01*
X0125547Y0040235D01*
X0125604Y0040255D01*
X0125663Y0040271D01*
X0125722Y0040284D01*
X0125781Y0040293D01*
X0125842Y0040298D01*
X0125902Y0040300D01*
X0135902Y0040300D01*
X0135962Y0040298D01*
X0136023Y0040293D01*
X0136082Y0040284D01*
X0136141Y0040271D01*
X0136200Y0040255D01*
X0136257Y0040235D01*
X0136312Y0040212D01*
X0136367Y0040185D01*
X0136419Y0040156D01*
X0136470Y0040123D01*
X0136519Y0040087D01*
X0136565Y0040049D01*
X0136609Y0040007D01*
X0136651Y0039963D01*
X0136689Y0039917D01*
X0136725Y0039868D01*
X0136758Y0039817D01*
X0136787Y0039765D01*
X0136814Y0039710D01*
X0136837Y0039655D01*
X0136857Y0039598D01*
X0136873Y0039539D01*
X0136886Y0039480D01*
X0136895Y0039421D01*
X0136900Y0039360D01*
X0136902Y0039300D01*
X0111902Y0039300D02*
X0111902Y0024300D01*
X0111900Y0024240D01*
X0111895Y0024179D01*
X0111886Y0024120D01*
X0111873Y0024061D01*
X0111857Y0024002D01*
X0111837Y0023945D01*
X0111814Y0023890D01*
X0111787Y0023835D01*
X0111758Y0023783D01*
X0111725Y0023732D01*
X0111689Y0023683D01*
X0111651Y0023637D01*
X0111609Y0023593D01*
X0111565Y0023551D01*
X0111519Y0023513D01*
X0111470Y0023477D01*
X0111419Y0023444D01*
X0111367Y0023415D01*
X0111312Y0023388D01*
X0111257Y0023365D01*
X0111200Y0023345D01*
X0111141Y0023329D01*
X0111082Y0023316D01*
X0111023Y0023307D01*
X0110962Y0023302D01*
X0110902Y0023300D01*
X0100902Y0023300D01*
X0100842Y0023302D01*
X0100781Y0023307D01*
X0100722Y0023316D01*
X0100663Y0023329D01*
X0100604Y0023345D01*
X0100547Y0023365D01*
X0100492Y0023388D01*
X0100437Y0023415D01*
X0100385Y0023444D01*
X0100334Y0023477D01*
X0100285Y0023513D01*
X0100239Y0023551D01*
X0100195Y0023593D01*
X0100153Y0023637D01*
X0100115Y0023683D01*
X0100079Y0023732D01*
X0100046Y0023783D01*
X0100017Y0023835D01*
X0099990Y0023890D01*
X0099967Y0023945D01*
X0099947Y0024002D01*
X0099931Y0024061D01*
X0099918Y0024120D01*
X0099909Y0024179D01*
X0099904Y0024240D01*
X0099902Y0024300D01*
X0099902Y0039300D01*
X0099904Y0039360D01*
X0099909Y0039421D01*
X0099918Y0039480D01*
X0099931Y0039539D01*
X0099947Y0039598D01*
X0099967Y0039655D01*
X0099990Y0039710D01*
X0100017Y0039765D01*
X0100046Y0039817D01*
X0100079Y0039868D01*
X0100115Y0039917D01*
X0100153Y0039963D01*
X0100195Y0040007D01*
X0100239Y0040049D01*
X0100285Y0040087D01*
X0100334Y0040123D01*
X0100385Y0040156D01*
X0100437Y0040185D01*
X0100492Y0040212D01*
X0100547Y0040235D01*
X0100604Y0040255D01*
X0100663Y0040271D01*
X0100722Y0040284D01*
X0100781Y0040293D01*
X0100842Y0040298D01*
X0100902Y0040300D01*
X0110902Y0040300D01*
X0110962Y0040298D01*
X0111023Y0040293D01*
X0111082Y0040284D01*
X0111141Y0040271D01*
X0111200Y0040255D01*
X0111257Y0040235D01*
X0111312Y0040212D01*
X0111367Y0040185D01*
X0111419Y0040156D01*
X0111470Y0040123D01*
X0111519Y0040087D01*
X0111565Y0040049D01*
X0111609Y0040007D01*
X0111651Y0039963D01*
X0111689Y0039917D01*
X0111725Y0039868D01*
X0111758Y0039817D01*
X0111787Y0039765D01*
X0111814Y0039710D01*
X0111837Y0039655D01*
X0111857Y0039598D01*
X0111873Y0039539D01*
X0111886Y0039480D01*
X0111895Y0039421D01*
X0111900Y0039360D01*
X0111902Y0039300D01*
X0064087Y0021485D02*
X0064090Y0021767D01*
X0064101Y0022049D01*
X0064118Y0022331D01*
X0064142Y0022612D01*
X0064173Y0022893D01*
X0064211Y0023172D01*
X0064256Y0023451D01*
X0064308Y0023729D01*
X0064366Y0024005D01*
X0064432Y0024279D01*
X0064504Y0024552D01*
X0064582Y0024823D01*
X0064667Y0025092D01*
X0064759Y0025359D01*
X0064858Y0025624D01*
X0064962Y0025886D01*
X0065074Y0026145D01*
X0065191Y0026402D01*
X0065315Y0026656D01*
X0065445Y0026906D01*
X0065581Y0027153D01*
X0065723Y0027397D01*
X0065871Y0027637D01*
X0066025Y0027874D01*
X0066185Y0028107D01*
X0066350Y0028336D01*
X0066521Y0028560D01*
X0066697Y0028781D01*
X0066879Y0028996D01*
X0067066Y0029208D01*
X0067258Y0029415D01*
X0067455Y0029617D01*
X0067657Y0029814D01*
X0067864Y0030006D01*
X0068076Y0030193D01*
X0068291Y0030375D01*
X0068512Y0030551D01*
X0068736Y0030722D01*
X0068965Y0030887D01*
X0069198Y0031047D01*
X0069435Y0031201D01*
X0069675Y0031349D01*
X0069919Y0031491D01*
X0070166Y0031627D01*
X0070416Y0031757D01*
X0070670Y0031881D01*
X0070927Y0031998D01*
X0071186Y0032110D01*
X0071448Y0032214D01*
X0071713Y0032313D01*
X0071980Y0032405D01*
X0072249Y0032490D01*
X0072520Y0032568D01*
X0072793Y0032640D01*
X0073067Y0032706D01*
X0073343Y0032764D01*
X0073621Y0032816D01*
X0073900Y0032861D01*
X0074179Y0032899D01*
X0074460Y0032930D01*
X0074741Y0032954D01*
X0075023Y0032971D01*
X0075305Y0032982D01*
X0075587Y0032985D01*
X0075869Y0032982D01*
X0076151Y0032971D01*
X0076433Y0032954D01*
X0076714Y0032930D01*
X0076995Y0032899D01*
X0077274Y0032861D01*
X0077553Y0032816D01*
X0077831Y0032764D01*
X0078107Y0032706D01*
X0078381Y0032640D01*
X0078654Y0032568D01*
X0078925Y0032490D01*
X0079194Y0032405D01*
X0079461Y0032313D01*
X0079726Y0032214D01*
X0079988Y0032110D01*
X0080247Y0031998D01*
X0080504Y0031881D01*
X0080758Y0031757D01*
X0081008Y0031627D01*
X0081255Y0031491D01*
X0081499Y0031349D01*
X0081739Y0031201D01*
X0081976Y0031047D01*
X0082209Y0030887D01*
X0082438Y0030722D01*
X0082662Y0030551D01*
X0082883Y0030375D01*
X0083098Y0030193D01*
X0083310Y0030006D01*
X0083517Y0029814D01*
X0083719Y0029617D01*
X0083916Y0029415D01*
X0084108Y0029208D01*
X0084295Y0028996D01*
X0084477Y0028781D01*
X0084653Y0028560D01*
X0084824Y0028336D01*
X0084989Y0028107D01*
X0085149Y0027874D01*
X0085303Y0027637D01*
X0085451Y0027397D01*
X0085593Y0027153D01*
X0085729Y0026906D01*
X0085859Y0026656D01*
X0085983Y0026402D01*
X0086100Y0026145D01*
X0086212Y0025886D01*
X0086316Y0025624D01*
X0086415Y0025359D01*
X0086507Y0025092D01*
X0086592Y0024823D01*
X0086670Y0024552D01*
X0086742Y0024279D01*
X0086808Y0024005D01*
X0086866Y0023729D01*
X0086918Y0023451D01*
X0086963Y0023172D01*
X0087001Y0022893D01*
X0087032Y0022612D01*
X0087056Y0022331D01*
X0087073Y0022049D01*
X0087084Y0021767D01*
X0087087Y0021485D01*
X0087084Y0021203D01*
X0087073Y0020921D01*
X0087056Y0020639D01*
X0087032Y0020358D01*
X0087001Y0020077D01*
X0086963Y0019798D01*
X0086918Y0019519D01*
X0086866Y0019241D01*
X0086808Y0018965D01*
X0086742Y0018691D01*
X0086670Y0018418D01*
X0086592Y0018147D01*
X0086507Y0017878D01*
X0086415Y0017611D01*
X0086316Y0017346D01*
X0086212Y0017084D01*
X0086100Y0016825D01*
X0085983Y0016568D01*
X0085859Y0016314D01*
X0085729Y0016064D01*
X0085593Y0015817D01*
X0085451Y0015573D01*
X0085303Y0015333D01*
X0085149Y0015096D01*
X0084989Y0014863D01*
X0084824Y0014634D01*
X0084653Y0014410D01*
X0084477Y0014189D01*
X0084295Y0013974D01*
X0084108Y0013762D01*
X0083916Y0013555D01*
X0083719Y0013353D01*
X0083517Y0013156D01*
X0083310Y0012964D01*
X0083098Y0012777D01*
X0082883Y0012595D01*
X0082662Y0012419D01*
X0082438Y0012248D01*
X0082209Y0012083D01*
X0081976Y0011923D01*
X0081739Y0011769D01*
X0081499Y0011621D01*
X0081255Y0011479D01*
X0081008Y0011343D01*
X0080758Y0011213D01*
X0080504Y0011089D01*
X0080247Y0010972D01*
X0079988Y0010860D01*
X0079726Y0010756D01*
X0079461Y0010657D01*
X0079194Y0010565D01*
X0078925Y0010480D01*
X0078654Y0010402D01*
X0078381Y0010330D01*
X0078107Y0010264D01*
X0077831Y0010206D01*
X0077553Y0010154D01*
X0077274Y0010109D01*
X0076995Y0010071D01*
X0076714Y0010040D01*
X0076433Y0010016D01*
X0076151Y0009999D01*
X0075869Y0009988D01*
X0075587Y0009985D01*
X0075305Y0009988D01*
X0075023Y0009999D01*
X0074741Y0010016D01*
X0074460Y0010040D01*
X0074179Y0010071D01*
X0073900Y0010109D01*
X0073621Y0010154D01*
X0073343Y0010206D01*
X0073067Y0010264D01*
X0072793Y0010330D01*
X0072520Y0010402D01*
X0072249Y0010480D01*
X0071980Y0010565D01*
X0071713Y0010657D01*
X0071448Y0010756D01*
X0071186Y0010860D01*
X0070927Y0010972D01*
X0070670Y0011089D01*
X0070416Y0011213D01*
X0070166Y0011343D01*
X0069919Y0011479D01*
X0069675Y0011621D01*
X0069435Y0011769D01*
X0069198Y0011923D01*
X0068965Y0012083D01*
X0068736Y0012248D01*
X0068512Y0012419D01*
X0068291Y0012595D01*
X0068076Y0012777D01*
X0067864Y0012964D01*
X0067657Y0013156D01*
X0067455Y0013353D01*
X0067258Y0013555D01*
X0067066Y0013762D01*
X0066879Y0013974D01*
X0066697Y0014189D01*
X0066521Y0014410D01*
X0066350Y0014634D01*
X0066185Y0014863D01*
X0066025Y0015096D01*
X0065871Y0015333D01*
X0065723Y0015573D01*
X0065581Y0015817D01*
X0065445Y0016064D01*
X0065315Y0016314D01*
X0065191Y0016568D01*
X0065074Y0016825D01*
X0064962Y0017084D01*
X0064858Y0017346D01*
X0064759Y0017611D01*
X0064667Y0017878D01*
X0064582Y0018147D01*
X0064504Y0018418D01*
X0064432Y0018691D01*
X0064366Y0018965D01*
X0064308Y0019241D01*
X0064256Y0019519D01*
X0064211Y0019798D01*
X0064173Y0020077D01*
X0064142Y0020358D01*
X0064118Y0020639D01*
X0064101Y0020921D01*
X0064090Y0021203D01*
X0064087Y0021485D01*
X0330902Y0040600D02*
X0330902Y0053000D01*
X0330904Y0053076D01*
X0330910Y0053152D01*
X0330919Y0053227D01*
X0330933Y0053302D01*
X0330950Y0053376D01*
X0330971Y0053449D01*
X0330995Y0053521D01*
X0331024Y0053592D01*
X0331055Y0053661D01*
X0331090Y0053728D01*
X0331129Y0053793D01*
X0331171Y0053857D01*
X0331216Y0053918D01*
X0331264Y0053977D01*
X0331315Y0054033D01*
X0331369Y0054087D01*
X0331425Y0054138D01*
X0331484Y0054186D01*
X0331545Y0054231D01*
X0331609Y0054273D01*
X0331674Y0054312D01*
X0331741Y0054347D01*
X0331810Y0054378D01*
X0331881Y0054407D01*
X0331953Y0054431D01*
X0332026Y0054452D01*
X0332100Y0054469D01*
X0332175Y0054483D01*
X0332250Y0054492D01*
X0332326Y0054498D01*
X0332402Y0054500D01*
X0330902Y0040600D02*
X0330904Y0040524D01*
X0330910Y0040448D01*
X0330919Y0040373D01*
X0330933Y0040298D01*
X0330950Y0040224D01*
X0330971Y0040151D01*
X0330995Y0040079D01*
X0331024Y0040008D01*
X0331055Y0039939D01*
X0331090Y0039872D01*
X0331129Y0039807D01*
X0331171Y0039743D01*
X0331216Y0039682D01*
X0331264Y0039623D01*
X0331315Y0039567D01*
X0331369Y0039513D01*
X0331425Y0039462D01*
X0331484Y0039414D01*
X0331545Y0039369D01*
X0331609Y0039327D01*
X0331674Y0039288D01*
X0331741Y0039253D01*
X0331810Y0039222D01*
X0331881Y0039193D01*
X0331953Y0039169D01*
X0332026Y0039148D01*
X0332100Y0039131D01*
X0332175Y0039117D01*
X0332250Y0039108D01*
X0332326Y0039102D01*
X0332402Y0039100D01*
X0369402Y0039100D02*
X0369478Y0039102D01*
X0369554Y0039108D01*
X0369629Y0039117D01*
X0369704Y0039131D01*
X0369778Y0039148D01*
X0369851Y0039169D01*
X0369923Y0039193D01*
X0369994Y0039222D01*
X0370063Y0039253D01*
X0370130Y0039288D01*
X0370195Y0039327D01*
X0370259Y0039369D01*
X0370320Y0039414D01*
X0370379Y0039462D01*
X0370435Y0039513D01*
X0370489Y0039567D01*
X0370540Y0039623D01*
X0370588Y0039682D01*
X0370633Y0039743D01*
X0370675Y0039807D01*
X0370714Y0039872D01*
X0370749Y0039939D01*
X0370780Y0040008D01*
X0370809Y0040079D01*
X0370833Y0040151D01*
X0370854Y0040224D01*
X0370871Y0040298D01*
X0370885Y0040373D01*
X0370894Y0040448D01*
X0370900Y0040524D01*
X0370902Y0040600D01*
X0370902Y0044800D01*
X0370902Y0048800D01*
X0370902Y0053000D01*
X0370900Y0053076D01*
X0370894Y0053152D01*
X0370885Y0053227D01*
X0370871Y0053302D01*
X0370854Y0053376D01*
X0370833Y0053449D01*
X0370809Y0053521D01*
X0370780Y0053592D01*
X0370749Y0053661D01*
X0370714Y0053728D01*
X0370675Y0053793D01*
X0370633Y0053857D01*
X0370588Y0053918D01*
X0370540Y0053977D01*
X0370489Y0054033D01*
X0370435Y0054087D01*
X0370379Y0054138D01*
X0370320Y0054186D01*
X0370259Y0054231D01*
X0370195Y0054273D01*
X0370130Y0054312D01*
X0370063Y0054347D01*
X0369994Y0054378D01*
X0369923Y0054407D01*
X0369851Y0054431D01*
X0369778Y0054452D01*
X0369704Y0054469D01*
X0369629Y0054483D01*
X0369554Y0054492D01*
X0369478Y0054498D01*
X0369402Y0054500D01*
X0370902Y0048800D02*
X0370814Y0048798D01*
X0370725Y0048792D01*
X0370637Y0048782D01*
X0370550Y0048769D01*
X0370463Y0048751D01*
X0370377Y0048730D01*
X0370292Y0048705D01*
X0370209Y0048676D01*
X0370126Y0048643D01*
X0370046Y0048607D01*
X0369967Y0048568D01*
X0369889Y0048525D01*
X0369814Y0048478D01*
X0369741Y0048428D01*
X0369670Y0048375D01*
X0369601Y0048319D01*
X0369535Y0048260D01*
X0369472Y0048198D01*
X0369412Y0048134D01*
X0369354Y0048067D01*
X0369300Y0047997D01*
X0369248Y0047925D01*
X0369200Y0047851D01*
X0369155Y0047774D01*
X0369114Y0047696D01*
X0369076Y0047616D01*
X0369042Y0047535D01*
X0369011Y0047452D01*
X0368984Y0047367D01*
X0368961Y0047282D01*
X0368942Y0047196D01*
X0368926Y0047108D01*
X0368914Y0047021D01*
X0368906Y0046933D01*
X0368902Y0046844D01*
X0368902Y0046756D01*
X0368906Y0046667D01*
X0368914Y0046579D01*
X0368926Y0046492D01*
X0368942Y0046404D01*
X0368961Y0046318D01*
X0368984Y0046233D01*
X0369011Y0046148D01*
X0369042Y0046065D01*
X0369076Y0045984D01*
X0369114Y0045904D01*
X0369155Y0045826D01*
X0369200Y0045749D01*
X0369248Y0045675D01*
X0369300Y0045603D01*
X0369354Y0045533D01*
X0369412Y0045466D01*
X0369472Y0045402D01*
X0369535Y0045340D01*
X0369601Y0045281D01*
X0369670Y0045225D01*
X0369741Y0045172D01*
X0369814Y0045122D01*
X0369889Y0045075D01*
X0369967Y0045032D01*
X0370046Y0044993D01*
X0370126Y0044957D01*
X0370209Y0044924D01*
X0370292Y0044895D01*
X0370377Y0044870D01*
X0370463Y0044849D01*
X0370550Y0044831D01*
X0370637Y0044818D01*
X0370725Y0044808D01*
X0370814Y0044802D01*
X0370902Y0044800D01*
X0379048Y0021485D02*
X0379051Y0021767D01*
X0379062Y0022049D01*
X0379079Y0022331D01*
X0379103Y0022612D01*
X0379134Y0022893D01*
X0379172Y0023172D01*
X0379217Y0023451D01*
X0379269Y0023729D01*
X0379327Y0024005D01*
X0379393Y0024279D01*
X0379465Y0024552D01*
X0379543Y0024823D01*
X0379628Y0025092D01*
X0379720Y0025359D01*
X0379819Y0025624D01*
X0379923Y0025886D01*
X0380035Y0026145D01*
X0380152Y0026402D01*
X0380276Y0026656D01*
X0380406Y0026906D01*
X0380542Y0027153D01*
X0380684Y0027397D01*
X0380832Y0027637D01*
X0380986Y0027874D01*
X0381146Y0028107D01*
X0381311Y0028336D01*
X0381482Y0028560D01*
X0381658Y0028781D01*
X0381840Y0028996D01*
X0382027Y0029208D01*
X0382219Y0029415D01*
X0382416Y0029617D01*
X0382618Y0029814D01*
X0382825Y0030006D01*
X0383037Y0030193D01*
X0383252Y0030375D01*
X0383473Y0030551D01*
X0383697Y0030722D01*
X0383926Y0030887D01*
X0384159Y0031047D01*
X0384396Y0031201D01*
X0384636Y0031349D01*
X0384880Y0031491D01*
X0385127Y0031627D01*
X0385377Y0031757D01*
X0385631Y0031881D01*
X0385888Y0031998D01*
X0386147Y0032110D01*
X0386409Y0032214D01*
X0386674Y0032313D01*
X0386941Y0032405D01*
X0387210Y0032490D01*
X0387481Y0032568D01*
X0387754Y0032640D01*
X0388028Y0032706D01*
X0388304Y0032764D01*
X0388582Y0032816D01*
X0388861Y0032861D01*
X0389140Y0032899D01*
X0389421Y0032930D01*
X0389702Y0032954D01*
X0389984Y0032971D01*
X0390266Y0032982D01*
X0390548Y0032985D01*
X0390830Y0032982D01*
X0391112Y0032971D01*
X0391394Y0032954D01*
X0391675Y0032930D01*
X0391956Y0032899D01*
X0392235Y0032861D01*
X0392514Y0032816D01*
X0392792Y0032764D01*
X0393068Y0032706D01*
X0393342Y0032640D01*
X0393615Y0032568D01*
X0393886Y0032490D01*
X0394155Y0032405D01*
X0394422Y0032313D01*
X0394687Y0032214D01*
X0394949Y0032110D01*
X0395208Y0031998D01*
X0395465Y0031881D01*
X0395719Y0031757D01*
X0395969Y0031627D01*
X0396216Y0031491D01*
X0396460Y0031349D01*
X0396700Y0031201D01*
X0396937Y0031047D01*
X0397170Y0030887D01*
X0397399Y0030722D01*
X0397623Y0030551D01*
X0397844Y0030375D01*
X0398059Y0030193D01*
X0398271Y0030006D01*
X0398478Y0029814D01*
X0398680Y0029617D01*
X0398877Y0029415D01*
X0399069Y0029208D01*
X0399256Y0028996D01*
X0399438Y0028781D01*
X0399614Y0028560D01*
X0399785Y0028336D01*
X0399950Y0028107D01*
X0400110Y0027874D01*
X0400264Y0027637D01*
X0400412Y0027397D01*
X0400554Y0027153D01*
X0400690Y0026906D01*
X0400820Y0026656D01*
X0400944Y0026402D01*
X0401061Y0026145D01*
X0401173Y0025886D01*
X0401277Y0025624D01*
X0401376Y0025359D01*
X0401468Y0025092D01*
X0401553Y0024823D01*
X0401631Y0024552D01*
X0401703Y0024279D01*
X0401769Y0024005D01*
X0401827Y0023729D01*
X0401879Y0023451D01*
X0401924Y0023172D01*
X0401962Y0022893D01*
X0401993Y0022612D01*
X0402017Y0022331D01*
X0402034Y0022049D01*
X0402045Y0021767D01*
X0402048Y0021485D01*
X0402045Y0021203D01*
X0402034Y0020921D01*
X0402017Y0020639D01*
X0401993Y0020358D01*
X0401962Y0020077D01*
X0401924Y0019798D01*
X0401879Y0019519D01*
X0401827Y0019241D01*
X0401769Y0018965D01*
X0401703Y0018691D01*
X0401631Y0018418D01*
X0401553Y0018147D01*
X0401468Y0017878D01*
X0401376Y0017611D01*
X0401277Y0017346D01*
X0401173Y0017084D01*
X0401061Y0016825D01*
X0400944Y0016568D01*
X0400820Y0016314D01*
X0400690Y0016064D01*
X0400554Y0015817D01*
X0400412Y0015573D01*
X0400264Y0015333D01*
X0400110Y0015096D01*
X0399950Y0014863D01*
X0399785Y0014634D01*
X0399614Y0014410D01*
X0399438Y0014189D01*
X0399256Y0013974D01*
X0399069Y0013762D01*
X0398877Y0013555D01*
X0398680Y0013353D01*
X0398478Y0013156D01*
X0398271Y0012964D01*
X0398059Y0012777D01*
X0397844Y0012595D01*
X0397623Y0012419D01*
X0397399Y0012248D01*
X0397170Y0012083D01*
X0396937Y0011923D01*
X0396700Y0011769D01*
X0396460Y0011621D01*
X0396216Y0011479D01*
X0395969Y0011343D01*
X0395719Y0011213D01*
X0395465Y0011089D01*
X0395208Y0010972D01*
X0394949Y0010860D01*
X0394687Y0010756D01*
X0394422Y0010657D01*
X0394155Y0010565D01*
X0393886Y0010480D01*
X0393615Y0010402D01*
X0393342Y0010330D01*
X0393068Y0010264D01*
X0392792Y0010206D01*
X0392514Y0010154D01*
X0392235Y0010109D01*
X0391956Y0010071D01*
X0391675Y0010040D01*
X0391394Y0010016D01*
X0391112Y0009999D01*
X0390830Y0009988D01*
X0390548Y0009985D01*
X0390266Y0009988D01*
X0389984Y0009999D01*
X0389702Y0010016D01*
X0389421Y0010040D01*
X0389140Y0010071D01*
X0388861Y0010109D01*
X0388582Y0010154D01*
X0388304Y0010206D01*
X0388028Y0010264D01*
X0387754Y0010330D01*
X0387481Y0010402D01*
X0387210Y0010480D01*
X0386941Y0010565D01*
X0386674Y0010657D01*
X0386409Y0010756D01*
X0386147Y0010860D01*
X0385888Y0010972D01*
X0385631Y0011089D01*
X0385377Y0011213D01*
X0385127Y0011343D01*
X0384880Y0011479D01*
X0384636Y0011621D01*
X0384396Y0011769D01*
X0384159Y0011923D01*
X0383926Y0012083D01*
X0383697Y0012248D01*
X0383473Y0012419D01*
X0383252Y0012595D01*
X0383037Y0012777D01*
X0382825Y0012964D01*
X0382618Y0013156D01*
X0382416Y0013353D01*
X0382219Y0013555D01*
X0382027Y0013762D01*
X0381840Y0013974D01*
X0381658Y0014189D01*
X0381482Y0014410D01*
X0381311Y0014634D01*
X0381146Y0014863D01*
X0380986Y0015096D01*
X0380832Y0015333D01*
X0380684Y0015573D01*
X0380542Y0015817D01*
X0380406Y0016064D01*
X0380276Y0016314D01*
X0380152Y0016568D01*
X0380035Y0016825D01*
X0379923Y0017084D01*
X0379819Y0017346D01*
X0379720Y0017611D01*
X0379628Y0017878D01*
X0379543Y0018147D01*
X0379465Y0018418D01*
X0379393Y0018691D01*
X0379327Y0018965D01*
X0379269Y0019241D01*
X0379217Y0019519D01*
X0379172Y0019798D01*
X0379134Y0020077D01*
X0379103Y0020358D01*
X0379079Y0020639D01*
X0379062Y0020921D01*
X0379051Y0021203D01*
X0379048Y0021485D01*
X0342099Y0210269D02*
X0341031Y0210269D01*
X0341031Y0211336D01*
X0342099Y0211336D01*
X0342099Y0210269D01*
X0339957Y0212321D02*
X0335687Y0216591D01*
X0335687Y0218766D02*
X0338890Y0218766D01*
X0339957Y0219834D01*
X0339957Y0223037D01*
X0335687Y0223037D01*
X0335687Y0225199D02*
X0335687Y0227334D01*
X0335687Y0226266D02*
X0339957Y0226266D01*
X0339957Y0227334D01*
X0342092Y0226266D02*
X0343160Y0226266D01*
X0342099Y0224236D02*
X0342099Y0223169D01*
X0341031Y0223169D01*
X0341031Y0224236D01*
X0342099Y0224236D01*
X0342099Y0219936D02*
X0342099Y0218869D01*
X0341031Y0218869D01*
X0341031Y0219936D01*
X0342099Y0219936D01*
X0339957Y0216591D02*
X0335687Y0212321D01*
X0341031Y0214569D02*
X0342099Y0214569D01*
X0342099Y0215636D01*
X0341031Y0215636D01*
X0341031Y0214569D01*
X0335687Y0229509D02*
X0335687Y0233779D01*
X0342092Y0233779D01*
X0379048Y0257706D02*
X0379051Y0257988D01*
X0379062Y0258270D01*
X0379079Y0258552D01*
X0379103Y0258833D01*
X0379134Y0259114D01*
X0379172Y0259393D01*
X0379217Y0259672D01*
X0379269Y0259950D01*
X0379327Y0260226D01*
X0379393Y0260500D01*
X0379465Y0260773D01*
X0379543Y0261044D01*
X0379628Y0261313D01*
X0379720Y0261580D01*
X0379819Y0261845D01*
X0379923Y0262107D01*
X0380035Y0262366D01*
X0380152Y0262623D01*
X0380276Y0262877D01*
X0380406Y0263127D01*
X0380542Y0263374D01*
X0380684Y0263618D01*
X0380832Y0263858D01*
X0380986Y0264095D01*
X0381146Y0264328D01*
X0381311Y0264557D01*
X0381482Y0264781D01*
X0381658Y0265002D01*
X0381840Y0265217D01*
X0382027Y0265429D01*
X0382219Y0265636D01*
X0382416Y0265838D01*
X0382618Y0266035D01*
X0382825Y0266227D01*
X0383037Y0266414D01*
X0383252Y0266596D01*
X0383473Y0266772D01*
X0383697Y0266943D01*
X0383926Y0267108D01*
X0384159Y0267268D01*
X0384396Y0267422D01*
X0384636Y0267570D01*
X0384880Y0267712D01*
X0385127Y0267848D01*
X0385377Y0267978D01*
X0385631Y0268102D01*
X0385888Y0268219D01*
X0386147Y0268331D01*
X0386409Y0268435D01*
X0386674Y0268534D01*
X0386941Y0268626D01*
X0387210Y0268711D01*
X0387481Y0268789D01*
X0387754Y0268861D01*
X0388028Y0268927D01*
X0388304Y0268985D01*
X0388582Y0269037D01*
X0388861Y0269082D01*
X0389140Y0269120D01*
X0389421Y0269151D01*
X0389702Y0269175D01*
X0389984Y0269192D01*
X0390266Y0269203D01*
X0390548Y0269206D01*
X0390830Y0269203D01*
X0391112Y0269192D01*
X0391394Y0269175D01*
X0391675Y0269151D01*
X0391956Y0269120D01*
X0392235Y0269082D01*
X0392514Y0269037D01*
X0392792Y0268985D01*
X0393068Y0268927D01*
X0393342Y0268861D01*
X0393615Y0268789D01*
X0393886Y0268711D01*
X0394155Y0268626D01*
X0394422Y0268534D01*
X0394687Y0268435D01*
X0394949Y0268331D01*
X0395208Y0268219D01*
X0395465Y0268102D01*
X0395719Y0267978D01*
X0395969Y0267848D01*
X0396216Y0267712D01*
X0396460Y0267570D01*
X0396700Y0267422D01*
X0396937Y0267268D01*
X0397170Y0267108D01*
X0397399Y0266943D01*
X0397623Y0266772D01*
X0397844Y0266596D01*
X0398059Y0266414D01*
X0398271Y0266227D01*
X0398478Y0266035D01*
X0398680Y0265838D01*
X0398877Y0265636D01*
X0399069Y0265429D01*
X0399256Y0265217D01*
X0399438Y0265002D01*
X0399614Y0264781D01*
X0399785Y0264557D01*
X0399950Y0264328D01*
X0400110Y0264095D01*
X0400264Y0263858D01*
X0400412Y0263618D01*
X0400554Y0263374D01*
X0400690Y0263127D01*
X0400820Y0262877D01*
X0400944Y0262623D01*
X0401061Y0262366D01*
X0401173Y0262107D01*
X0401277Y0261845D01*
X0401376Y0261580D01*
X0401468Y0261313D01*
X0401553Y0261044D01*
X0401631Y0260773D01*
X0401703Y0260500D01*
X0401769Y0260226D01*
X0401827Y0259950D01*
X0401879Y0259672D01*
X0401924Y0259393D01*
X0401962Y0259114D01*
X0401993Y0258833D01*
X0402017Y0258552D01*
X0402034Y0258270D01*
X0402045Y0257988D01*
X0402048Y0257706D01*
X0402045Y0257424D01*
X0402034Y0257142D01*
X0402017Y0256860D01*
X0401993Y0256579D01*
X0401962Y0256298D01*
X0401924Y0256019D01*
X0401879Y0255740D01*
X0401827Y0255462D01*
X0401769Y0255186D01*
X0401703Y0254912D01*
X0401631Y0254639D01*
X0401553Y0254368D01*
X0401468Y0254099D01*
X0401376Y0253832D01*
X0401277Y0253567D01*
X0401173Y0253305D01*
X0401061Y0253046D01*
X0400944Y0252789D01*
X0400820Y0252535D01*
X0400690Y0252285D01*
X0400554Y0252038D01*
X0400412Y0251794D01*
X0400264Y0251554D01*
X0400110Y0251317D01*
X0399950Y0251084D01*
X0399785Y0250855D01*
X0399614Y0250631D01*
X0399438Y0250410D01*
X0399256Y0250195D01*
X0399069Y0249983D01*
X0398877Y0249776D01*
X0398680Y0249574D01*
X0398478Y0249377D01*
X0398271Y0249185D01*
X0398059Y0248998D01*
X0397844Y0248816D01*
X0397623Y0248640D01*
X0397399Y0248469D01*
X0397170Y0248304D01*
X0396937Y0248144D01*
X0396700Y0247990D01*
X0396460Y0247842D01*
X0396216Y0247700D01*
X0395969Y0247564D01*
X0395719Y0247434D01*
X0395465Y0247310D01*
X0395208Y0247193D01*
X0394949Y0247081D01*
X0394687Y0246977D01*
X0394422Y0246878D01*
X0394155Y0246786D01*
X0393886Y0246701D01*
X0393615Y0246623D01*
X0393342Y0246551D01*
X0393068Y0246485D01*
X0392792Y0246427D01*
X0392514Y0246375D01*
X0392235Y0246330D01*
X0391956Y0246292D01*
X0391675Y0246261D01*
X0391394Y0246237D01*
X0391112Y0246220D01*
X0390830Y0246209D01*
X0390548Y0246206D01*
X0390266Y0246209D01*
X0389984Y0246220D01*
X0389702Y0246237D01*
X0389421Y0246261D01*
X0389140Y0246292D01*
X0388861Y0246330D01*
X0388582Y0246375D01*
X0388304Y0246427D01*
X0388028Y0246485D01*
X0387754Y0246551D01*
X0387481Y0246623D01*
X0387210Y0246701D01*
X0386941Y0246786D01*
X0386674Y0246878D01*
X0386409Y0246977D01*
X0386147Y0247081D01*
X0385888Y0247193D01*
X0385631Y0247310D01*
X0385377Y0247434D01*
X0385127Y0247564D01*
X0384880Y0247700D01*
X0384636Y0247842D01*
X0384396Y0247990D01*
X0384159Y0248144D01*
X0383926Y0248304D01*
X0383697Y0248469D01*
X0383473Y0248640D01*
X0383252Y0248816D01*
X0383037Y0248998D01*
X0382825Y0249185D01*
X0382618Y0249377D01*
X0382416Y0249574D01*
X0382219Y0249776D01*
X0382027Y0249983D01*
X0381840Y0250195D01*
X0381658Y0250410D01*
X0381482Y0250631D01*
X0381311Y0250855D01*
X0381146Y0251084D01*
X0380986Y0251317D01*
X0380832Y0251554D01*
X0380684Y0251794D01*
X0380542Y0252038D01*
X0380406Y0252285D01*
X0380276Y0252535D01*
X0380152Y0252789D01*
X0380035Y0253046D01*
X0379923Y0253305D01*
X0379819Y0253567D01*
X0379720Y0253832D01*
X0379628Y0254099D01*
X0379543Y0254368D01*
X0379465Y0254639D01*
X0379393Y0254912D01*
X0379327Y0255186D01*
X0379269Y0255462D01*
X0379217Y0255740D01*
X0379172Y0256019D01*
X0379134Y0256298D01*
X0379103Y0256579D01*
X0379079Y0256860D01*
X0379062Y0257142D01*
X0379051Y0257424D01*
X0379048Y0257706D01*
D17*
X0380787Y0218285D02*
X0410079Y0218285D01*
X0410079Y0214466D01*
X0422992Y0214466D01*
X0422992Y0192812D01*
X0410079Y0192812D01*
X0410079Y0188993D01*
X0380787Y0188993D01*
X0380787Y0218285D01*
X0275902Y0238808D02*
X0274052Y0236957D01*
X0267753Y0236957D01*
X0265902Y0238808D01*
X0265902Y0254792D01*
X0267753Y0256643D01*
X0269642Y0256643D01*
X0272162Y0256643D01*
X0274052Y0256643D01*
X0275902Y0254792D01*
X0275902Y0238808D01*
X0265902Y0238808D02*
X0264052Y0236957D01*
X0257753Y0236957D01*
X0255902Y0238808D01*
X0255902Y0254792D01*
X0257753Y0256643D01*
X0259642Y0256643D01*
X0262162Y0256643D01*
X0264052Y0256643D01*
X0265902Y0254792D01*
X0255902Y0254792D02*
X0254052Y0256643D01*
X0252162Y0256643D01*
X0249642Y0256643D01*
X0247753Y0256643D01*
X0245902Y0254792D01*
X0245902Y0238808D01*
X0244052Y0236957D01*
X0237753Y0236957D01*
X0235902Y0238808D01*
X0234052Y0236957D01*
X0227753Y0236957D01*
X0225902Y0238808D01*
X0225902Y0254792D01*
X0227753Y0256643D01*
X0229642Y0256643D01*
X0232162Y0256643D01*
X0234052Y0256643D01*
X0235902Y0254792D01*
X0235902Y0238808D01*
X0245902Y0238808D02*
X0247753Y0236957D01*
X0254052Y0236957D01*
X0255902Y0238808D01*
X0245902Y0254792D02*
X0244052Y0256643D01*
X0242162Y0256643D01*
X0239642Y0256643D01*
X0237753Y0256643D01*
X0235902Y0254792D01*
X0125902Y0254792D02*
X0125902Y0238808D01*
X0124052Y0236957D01*
X0117753Y0236957D01*
X0115902Y0238808D01*
X0114052Y0236957D01*
X0107753Y0236957D01*
X0105902Y0238808D01*
X0104052Y0236957D01*
X0097753Y0236957D01*
X0095902Y0238808D01*
X0095902Y0254792D01*
X0097753Y0256643D01*
X0099642Y0256643D01*
X0102162Y0256643D01*
X0104052Y0256643D01*
X0105902Y0254792D01*
X0105902Y0238808D01*
X0115902Y0238808D02*
X0115902Y0254792D01*
X0114052Y0256643D01*
X0112162Y0256643D01*
X0109642Y0256643D01*
X0107753Y0256643D01*
X0105902Y0254792D01*
X0115902Y0254792D02*
X0117753Y0256643D01*
X0119642Y0256643D01*
X0122162Y0256643D01*
X0124052Y0256643D01*
X0125902Y0254792D01*
X0099052Y0171643D02*
X0100902Y0169792D01*
X0100902Y0153808D01*
X0099052Y0151957D01*
X0092753Y0151957D01*
X0090902Y0153808D01*
X0089052Y0151957D01*
X0082753Y0151957D01*
X0080902Y0153808D01*
X0079052Y0151957D01*
X0072753Y0151957D01*
X0070902Y0153808D01*
X0070902Y0169792D01*
X0072753Y0171643D01*
X0074642Y0171643D01*
X0077162Y0171643D01*
X0079052Y0171643D01*
X0080902Y0169792D01*
X0080902Y0153808D01*
X0090902Y0153808D02*
X0090902Y0169792D01*
X0089052Y0171643D01*
X0087162Y0171643D01*
X0084642Y0171643D01*
X0082753Y0171643D01*
X0080902Y0169792D01*
X0090902Y0169792D02*
X0092753Y0171643D01*
X0094642Y0171643D01*
X0097162Y0171643D01*
X0099052Y0171643D01*
X0111693Y0131975D02*
X0121693Y0131975D01*
X0121693Y0121975D01*
X0121693Y0091975D02*
X0121693Y0081975D01*
X0111693Y0081975D01*
X0076693Y0081975D02*
X0056693Y0081975D01*
X0056693Y0131975D02*
X0076693Y0131975D01*
X0170902Y0039792D02*
X0172753Y0041643D01*
X0174642Y0041643D01*
X0177162Y0041643D01*
X0179052Y0041643D01*
X0180902Y0039792D01*
X0180902Y0023808D01*
X0179052Y0021957D01*
X0172753Y0021957D01*
X0170902Y0023808D01*
X0170902Y0039792D01*
X0180902Y0039792D02*
X0182753Y0041643D01*
X0184642Y0041643D01*
X0187162Y0041643D01*
X0189052Y0041643D01*
X0190902Y0039792D01*
X0190902Y0023808D01*
X0189052Y0021957D01*
X0182753Y0021957D01*
X0180902Y0023808D01*
X0190902Y0023808D02*
X0192753Y0021957D01*
X0199052Y0021957D01*
X0200902Y0023808D01*
X0200902Y0039792D01*
X0202753Y0041643D01*
X0204642Y0041643D01*
X0207162Y0041643D01*
X0209052Y0041643D01*
X0210902Y0039792D01*
X0212753Y0041643D01*
X0214642Y0041643D01*
X0217162Y0041643D01*
X0219052Y0041643D01*
X0220902Y0039792D01*
X0220902Y0023808D01*
X0219052Y0021957D01*
X0212753Y0021957D01*
X0210902Y0023808D01*
X0210902Y0039792D01*
X0200902Y0039792D02*
X0199052Y0041643D01*
X0197162Y0041643D01*
X0194642Y0041643D01*
X0192753Y0041643D01*
X0190902Y0039792D01*
X0200902Y0023808D02*
X0202753Y0021957D01*
X0209052Y0021957D01*
X0210902Y0023808D01*
D18*
X0207162Y0025540D02*
X0207162Y0028060D01*
X0204642Y0028060D01*
X0204642Y0025540D01*
X0207162Y0025540D01*
X0207162Y0021957D02*
X0207162Y0018808D01*
X0206194Y0016811D01*
X0206177Y0016781D01*
X0206157Y0016752D01*
X0206134Y0016726D01*
X0206109Y0016703D01*
X0206081Y0016682D01*
X0206052Y0016665D01*
X0206020Y0016650D01*
X0205987Y0016639D01*
X0205954Y0016632D01*
X0205919Y0016628D01*
X0205885Y0016628D01*
X0205850Y0016632D01*
X0205817Y0016639D01*
X0205784Y0016650D01*
X0205752Y0016665D01*
X0205723Y0016682D01*
X0205695Y0016703D01*
X0205670Y0016726D01*
X0205647Y0016752D01*
X0205627Y0016781D01*
X0205610Y0016811D01*
X0204642Y0018808D01*
X0204642Y0021957D01*
X0204642Y0018808D02*
X0207162Y0018808D01*
X0214642Y0018808D02*
X0215610Y0016811D01*
X0215627Y0016781D01*
X0215647Y0016752D01*
X0215670Y0016726D01*
X0215695Y0016703D01*
X0215723Y0016682D01*
X0215752Y0016665D01*
X0215784Y0016650D01*
X0215817Y0016639D01*
X0215850Y0016632D01*
X0215885Y0016628D01*
X0215919Y0016628D01*
X0215954Y0016632D01*
X0215987Y0016639D01*
X0216020Y0016650D01*
X0216052Y0016665D01*
X0216081Y0016682D01*
X0216109Y0016703D01*
X0216134Y0016726D01*
X0216157Y0016752D01*
X0216177Y0016781D01*
X0216194Y0016811D01*
X0217162Y0018808D01*
X0214642Y0018808D01*
X0214642Y0021957D01*
X0217162Y0021957D02*
X0217162Y0018808D01*
X0217162Y0025540D02*
X0214642Y0025540D01*
X0214642Y0028060D01*
X0217162Y0028060D01*
X0217162Y0025540D01*
X0217162Y0035540D02*
X0214642Y0035540D01*
X0214642Y0038060D01*
X0217162Y0038060D01*
X0217162Y0035540D01*
X0217162Y0041643D02*
X0217162Y0044792D01*
X0216194Y0046789D01*
X0216177Y0046819D01*
X0216157Y0046848D01*
X0216134Y0046874D01*
X0216109Y0046897D01*
X0216081Y0046918D01*
X0216052Y0046935D01*
X0216020Y0046950D01*
X0215987Y0046961D01*
X0215954Y0046968D01*
X0215919Y0046972D01*
X0215885Y0046972D01*
X0215850Y0046968D01*
X0215817Y0046961D01*
X0215784Y0046950D01*
X0215752Y0046935D01*
X0215723Y0046918D01*
X0215695Y0046897D01*
X0215670Y0046874D01*
X0215647Y0046848D01*
X0215627Y0046819D01*
X0215610Y0046789D01*
X0214642Y0044792D01*
X0217162Y0044792D01*
X0214642Y0044792D02*
X0214642Y0041643D01*
X0207162Y0041643D02*
X0207162Y0044792D01*
X0206194Y0046789D01*
X0206177Y0046819D01*
X0206157Y0046848D01*
X0206134Y0046874D01*
X0206109Y0046897D01*
X0206081Y0046918D01*
X0206052Y0046935D01*
X0206020Y0046950D01*
X0205987Y0046961D01*
X0205954Y0046968D01*
X0205919Y0046972D01*
X0205885Y0046972D01*
X0205850Y0046968D01*
X0205817Y0046961D01*
X0205784Y0046950D01*
X0205752Y0046935D01*
X0205723Y0046918D01*
X0205695Y0046897D01*
X0205670Y0046874D01*
X0205647Y0046848D01*
X0205627Y0046819D01*
X0205610Y0046789D01*
X0204642Y0044792D01*
X0207162Y0044792D01*
X0204642Y0044792D02*
X0204642Y0041643D01*
X0204642Y0038060D02*
X0204642Y0035540D01*
X0207162Y0035540D01*
X0207162Y0038060D01*
X0204642Y0038060D01*
X0197162Y0038060D02*
X0197162Y0035540D01*
X0194642Y0035540D01*
X0194642Y0038060D01*
X0197162Y0038060D01*
X0197162Y0041643D02*
X0197162Y0044792D01*
X0196194Y0046789D01*
X0196177Y0046819D01*
X0196157Y0046848D01*
X0196134Y0046874D01*
X0196109Y0046897D01*
X0196081Y0046918D01*
X0196052Y0046935D01*
X0196020Y0046950D01*
X0195987Y0046961D01*
X0195954Y0046968D01*
X0195919Y0046972D01*
X0195885Y0046972D01*
X0195850Y0046968D01*
X0195817Y0046961D01*
X0195784Y0046950D01*
X0195752Y0046935D01*
X0195723Y0046918D01*
X0195695Y0046897D01*
X0195670Y0046874D01*
X0195647Y0046848D01*
X0195627Y0046819D01*
X0195610Y0046789D01*
X0194642Y0044792D01*
X0197162Y0044792D01*
X0194642Y0044792D02*
X0194642Y0041643D01*
X0187162Y0041643D02*
X0187162Y0044792D01*
X0186194Y0046789D01*
X0186177Y0046819D01*
X0186157Y0046848D01*
X0186134Y0046874D01*
X0186109Y0046897D01*
X0186081Y0046918D01*
X0186052Y0046935D01*
X0186020Y0046950D01*
X0185987Y0046961D01*
X0185954Y0046968D01*
X0185919Y0046972D01*
X0185885Y0046972D01*
X0185850Y0046968D01*
X0185817Y0046961D01*
X0185784Y0046950D01*
X0185752Y0046935D01*
X0185723Y0046918D01*
X0185695Y0046897D01*
X0185670Y0046874D01*
X0185647Y0046848D01*
X0185627Y0046819D01*
X0185610Y0046789D01*
X0184642Y0044792D01*
X0187162Y0044792D01*
X0184642Y0044792D02*
X0184642Y0041643D01*
X0184642Y0038060D02*
X0184642Y0035540D01*
X0187162Y0035540D01*
X0187162Y0038060D01*
X0184642Y0038060D01*
X0177162Y0038060D02*
X0177162Y0035540D01*
X0174642Y0035540D01*
X0174642Y0038060D01*
X0177162Y0038060D01*
X0177162Y0041643D02*
X0177162Y0044792D01*
X0176194Y0046789D01*
X0176177Y0046819D01*
X0176157Y0046848D01*
X0176134Y0046874D01*
X0176109Y0046897D01*
X0176081Y0046918D01*
X0176052Y0046935D01*
X0176020Y0046950D01*
X0175987Y0046961D01*
X0175954Y0046968D01*
X0175919Y0046972D01*
X0175885Y0046972D01*
X0175850Y0046968D01*
X0175817Y0046961D01*
X0175784Y0046950D01*
X0175752Y0046935D01*
X0175723Y0046918D01*
X0175695Y0046897D01*
X0175670Y0046874D01*
X0175647Y0046848D01*
X0175627Y0046819D01*
X0175610Y0046789D01*
X0174642Y0044792D01*
X0177162Y0044792D01*
X0174642Y0044792D02*
X0174642Y0041643D01*
X0174642Y0028060D02*
X0174642Y0025540D01*
X0177162Y0025540D01*
X0177162Y0028060D01*
X0174642Y0028060D01*
X0174642Y0021957D02*
X0174642Y0018808D01*
X0175610Y0016811D01*
X0175627Y0016781D01*
X0175647Y0016752D01*
X0175670Y0016726D01*
X0175695Y0016703D01*
X0175723Y0016682D01*
X0175752Y0016665D01*
X0175784Y0016650D01*
X0175817Y0016639D01*
X0175850Y0016632D01*
X0175885Y0016628D01*
X0175919Y0016628D01*
X0175954Y0016632D01*
X0175987Y0016639D01*
X0176020Y0016650D01*
X0176052Y0016665D01*
X0176081Y0016682D01*
X0176109Y0016703D01*
X0176134Y0016726D01*
X0176157Y0016752D01*
X0176177Y0016781D01*
X0176194Y0016811D01*
X0177162Y0018808D01*
X0174642Y0018808D01*
X0177162Y0018808D02*
X0177162Y0021957D01*
X0184642Y0021957D02*
X0184642Y0018808D01*
X0185610Y0016811D01*
X0185627Y0016781D01*
X0185647Y0016752D01*
X0185670Y0016726D01*
X0185695Y0016703D01*
X0185723Y0016682D01*
X0185752Y0016665D01*
X0185784Y0016650D01*
X0185817Y0016639D01*
X0185850Y0016632D01*
X0185885Y0016628D01*
X0185919Y0016628D01*
X0185954Y0016632D01*
X0185987Y0016639D01*
X0186020Y0016650D01*
X0186052Y0016665D01*
X0186081Y0016682D01*
X0186109Y0016703D01*
X0186134Y0016726D01*
X0186157Y0016752D01*
X0186177Y0016781D01*
X0186194Y0016811D01*
X0187162Y0018808D01*
X0184642Y0018808D01*
X0187162Y0018808D02*
X0187162Y0021957D01*
X0187162Y0025540D02*
X0184642Y0025540D01*
X0184642Y0028060D01*
X0187162Y0028060D01*
X0187162Y0025540D01*
X0194642Y0025540D02*
X0194642Y0028060D01*
X0197162Y0028060D01*
X0197162Y0025540D01*
X0194642Y0025540D01*
X0194642Y0021957D02*
X0194642Y0018808D01*
X0195610Y0016811D01*
X0195627Y0016781D01*
X0195647Y0016752D01*
X0195670Y0016726D01*
X0195695Y0016703D01*
X0195723Y0016682D01*
X0195752Y0016665D01*
X0195784Y0016650D01*
X0195817Y0016639D01*
X0195850Y0016632D01*
X0195885Y0016628D01*
X0195919Y0016628D01*
X0195954Y0016632D01*
X0195987Y0016639D01*
X0196020Y0016650D01*
X0196052Y0016665D01*
X0196081Y0016682D01*
X0196109Y0016703D01*
X0196134Y0016726D01*
X0196157Y0016752D01*
X0196177Y0016781D01*
X0196194Y0016811D01*
X0197162Y0018808D01*
X0194642Y0018808D01*
X0197162Y0018808D02*
X0197162Y0021957D01*
X0096194Y0146811D02*
X0097162Y0148808D01*
X0094642Y0148808D01*
X0095610Y0146811D01*
X0095627Y0146781D01*
X0095647Y0146752D01*
X0095670Y0146726D01*
X0095695Y0146703D01*
X0095723Y0146682D01*
X0095752Y0146665D01*
X0095784Y0146650D01*
X0095817Y0146639D01*
X0095850Y0146632D01*
X0095885Y0146628D01*
X0095919Y0146628D01*
X0095954Y0146632D01*
X0095987Y0146639D01*
X0096020Y0146650D01*
X0096052Y0146665D01*
X0096081Y0146682D01*
X0096109Y0146703D01*
X0096134Y0146726D01*
X0096157Y0146752D01*
X0096177Y0146781D01*
X0096194Y0146811D01*
X0097162Y0148808D02*
X0097162Y0151957D01*
X0094642Y0151957D02*
X0094642Y0148808D01*
X0087162Y0148808D02*
X0087162Y0151957D01*
X0084642Y0151957D02*
X0084642Y0148808D01*
X0085610Y0146811D01*
X0085627Y0146781D01*
X0085647Y0146752D01*
X0085670Y0146726D01*
X0085695Y0146703D01*
X0085723Y0146682D01*
X0085752Y0146665D01*
X0085784Y0146650D01*
X0085817Y0146639D01*
X0085850Y0146632D01*
X0085885Y0146628D01*
X0085919Y0146628D01*
X0085954Y0146632D01*
X0085987Y0146639D01*
X0086020Y0146650D01*
X0086052Y0146665D01*
X0086081Y0146682D01*
X0086109Y0146703D01*
X0086134Y0146726D01*
X0086157Y0146752D01*
X0086177Y0146781D01*
X0086194Y0146811D01*
X0087162Y0148808D01*
X0084642Y0148808D01*
X0084642Y0155540D02*
X0084642Y0158060D01*
X0087162Y0158060D01*
X0087162Y0155540D01*
X0084642Y0155540D01*
X0077162Y0155540D02*
X0074642Y0155540D01*
X0074642Y0158060D01*
X0077162Y0158060D01*
X0077162Y0155540D01*
X0077162Y0151957D02*
X0077162Y0148808D01*
X0076194Y0146811D01*
X0076177Y0146781D01*
X0076157Y0146752D01*
X0076134Y0146726D01*
X0076109Y0146703D01*
X0076081Y0146682D01*
X0076052Y0146665D01*
X0076020Y0146650D01*
X0075987Y0146639D01*
X0075954Y0146632D01*
X0075919Y0146628D01*
X0075885Y0146628D01*
X0075850Y0146632D01*
X0075817Y0146639D01*
X0075784Y0146650D01*
X0075752Y0146665D01*
X0075723Y0146682D01*
X0075695Y0146703D01*
X0075670Y0146726D01*
X0075647Y0146752D01*
X0075627Y0146781D01*
X0075610Y0146811D01*
X0074642Y0148808D01*
X0074642Y0151957D01*
X0074642Y0148808D02*
X0077162Y0148808D01*
X0094642Y0155540D02*
X0094642Y0158060D01*
X0097162Y0158060D01*
X0097162Y0155540D01*
X0094642Y0155540D01*
X0094642Y0165540D02*
X0094642Y0168060D01*
X0097162Y0168060D01*
X0097162Y0165540D01*
X0094642Y0165540D01*
X0087162Y0165540D02*
X0087162Y0168060D01*
X0084642Y0168060D01*
X0084642Y0165540D01*
X0087162Y0165540D01*
X0087162Y0171643D02*
X0087162Y0174792D01*
X0086194Y0176789D01*
X0086177Y0176819D01*
X0086157Y0176848D01*
X0086134Y0176874D01*
X0086109Y0176897D01*
X0086081Y0176918D01*
X0086052Y0176935D01*
X0086020Y0176950D01*
X0085987Y0176961D01*
X0085954Y0176968D01*
X0085919Y0176972D01*
X0085885Y0176972D01*
X0085850Y0176968D01*
X0085817Y0176961D01*
X0085784Y0176950D01*
X0085752Y0176935D01*
X0085723Y0176918D01*
X0085695Y0176897D01*
X0085670Y0176874D01*
X0085647Y0176848D01*
X0085627Y0176819D01*
X0085610Y0176789D01*
X0084642Y0174792D01*
X0087162Y0174792D01*
X0084642Y0174792D02*
X0084642Y0171643D01*
X0077162Y0171643D02*
X0077162Y0174792D01*
X0076194Y0176789D01*
X0076177Y0176819D01*
X0076157Y0176848D01*
X0076134Y0176874D01*
X0076109Y0176897D01*
X0076081Y0176918D01*
X0076052Y0176935D01*
X0076020Y0176950D01*
X0075987Y0176961D01*
X0075954Y0176968D01*
X0075919Y0176972D01*
X0075885Y0176972D01*
X0075850Y0176968D01*
X0075817Y0176961D01*
X0075784Y0176950D01*
X0075752Y0176935D01*
X0075723Y0176918D01*
X0075695Y0176897D01*
X0075670Y0176874D01*
X0075647Y0176848D01*
X0075627Y0176819D01*
X0075610Y0176789D01*
X0074642Y0174792D01*
X0077162Y0174792D01*
X0074642Y0174792D02*
X0074642Y0171643D01*
X0074642Y0168060D02*
X0074642Y0165540D01*
X0077162Y0165540D01*
X0077162Y0168060D01*
X0074642Y0168060D01*
X0094642Y0171643D02*
X0094642Y0174792D01*
X0095610Y0176789D01*
X0095627Y0176819D01*
X0095647Y0176848D01*
X0095670Y0176874D01*
X0095695Y0176897D01*
X0095723Y0176918D01*
X0095752Y0176935D01*
X0095784Y0176950D01*
X0095817Y0176961D01*
X0095850Y0176968D01*
X0095885Y0176972D01*
X0095919Y0176972D01*
X0095954Y0176968D01*
X0095987Y0176961D01*
X0096020Y0176950D01*
X0096052Y0176935D01*
X0096081Y0176918D01*
X0096109Y0176897D01*
X0096134Y0176874D01*
X0096157Y0176848D01*
X0096177Y0176819D01*
X0096194Y0176789D01*
X0097162Y0174792D01*
X0097162Y0171643D01*
X0097162Y0174792D02*
X0094642Y0174792D01*
X0100610Y0231811D02*
X0099642Y0233808D01*
X0099642Y0236957D01*
X0102162Y0236957D02*
X0102162Y0233808D01*
X0101194Y0231811D01*
X0101177Y0231781D01*
X0101157Y0231752D01*
X0101134Y0231726D01*
X0101109Y0231703D01*
X0101081Y0231682D01*
X0101052Y0231665D01*
X0101020Y0231650D01*
X0100987Y0231639D01*
X0100954Y0231632D01*
X0100919Y0231628D01*
X0100885Y0231628D01*
X0100850Y0231632D01*
X0100817Y0231639D01*
X0100784Y0231650D01*
X0100752Y0231665D01*
X0100723Y0231682D01*
X0100695Y0231703D01*
X0100670Y0231726D01*
X0100647Y0231752D01*
X0100627Y0231781D01*
X0100610Y0231811D01*
X0099642Y0233808D02*
X0102162Y0233808D01*
X0109642Y0233808D02*
X0110610Y0231811D01*
X0110627Y0231781D01*
X0110647Y0231752D01*
X0110670Y0231726D01*
X0110695Y0231703D01*
X0110723Y0231682D01*
X0110752Y0231665D01*
X0110784Y0231650D01*
X0110817Y0231639D01*
X0110850Y0231632D01*
X0110885Y0231628D01*
X0110919Y0231628D01*
X0110954Y0231632D01*
X0110987Y0231639D01*
X0111020Y0231650D01*
X0111052Y0231665D01*
X0111081Y0231682D01*
X0111109Y0231703D01*
X0111134Y0231726D01*
X0111157Y0231752D01*
X0111177Y0231781D01*
X0111194Y0231811D01*
X0112162Y0233808D01*
X0109642Y0233808D01*
X0109642Y0236957D01*
X0112162Y0236957D02*
X0112162Y0233808D01*
X0119642Y0233808D02*
X0120610Y0231811D01*
X0120627Y0231781D01*
X0120647Y0231752D01*
X0120670Y0231726D01*
X0120695Y0231703D01*
X0120723Y0231682D01*
X0120752Y0231665D01*
X0120784Y0231650D01*
X0120817Y0231639D01*
X0120850Y0231632D01*
X0120885Y0231628D01*
X0120919Y0231628D01*
X0120954Y0231632D01*
X0120987Y0231639D01*
X0121020Y0231650D01*
X0121052Y0231665D01*
X0121081Y0231682D01*
X0121109Y0231703D01*
X0121134Y0231726D01*
X0121157Y0231752D01*
X0121177Y0231781D01*
X0121194Y0231811D01*
X0122162Y0233808D01*
X0119642Y0233808D01*
X0119642Y0236957D01*
X0122162Y0236957D02*
X0122162Y0233808D01*
X0122162Y0240540D02*
X0119642Y0240540D01*
X0119642Y0243060D01*
X0122162Y0243060D01*
X0122162Y0240540D01*
X0112162Y0240540D02*
X0109642Y0240540D01*
X0109642Y0243060D01*
X0112162Y0243060D01*
X0112162Y0240540D01*
X0102162Y0240540D02*
X0099642Y0240540D01*
X0099642Y0243060D01*
X0102162Y0243060D01*
X0102162Y0240540D01*
X0102162Y0250540D02*
X0099642Y0250540D01*
X0099642Y0253060D01*
X0102162Y0253060D01*
X0102162Y0250540D01*
X0102162Y0256643D02*
X0102162Y0259792D01*
X0101194Y0261789D01*
X0101177Y0261819D01*
X0101157Y0261848D01*
X0101134Y0261874D01*
X0101109Y0261897D01*
X0101081Y0261918D01*
X0101052Y0261935D01*
X0101020Y0261950D01*
X0100987Y0261961D01*
X0100954Y0261968D01*
X0100919Y0261972D01*
X0100885Y0261972D01*
X0100850Y0261968D01*
X0100817Y0261961D01*
X0100784Y0261950D01*
X0100752Y0261935D01*
X0100723Y0261918D01*
X0100695Y0261897D01*
X0100670Y0261874D01*
X0100647Y0261848D01*
X0100627Y0261819D01*
X0100610Y0261789D01*
X0099642Y0259792D01*
X0102162Y0259792D01*
X0099642Y0259792D02*
X0099642Y0256643D01*
X0109642Y0256643D02*
X0109642Y0259792D01*
X0110610Y0261789D01*
X0110627Y0261819D01*
X0110647Y0261848D01*
X0110670Y0261874D01*
X0110695Y0261897D01*
X0110723Y0261918D01*
X0110752Y0261935D01*
X0110784Y0261950D01*
X0110817Y0261961D01*
X0110850Y0261968D01*
X0110885Y0261972D01*
X0110919Y0261972D01*
X0110954Y0261968D01*
X0110987Y0261961D01*
X0111020Y0261950D01*
X0111052Y0261935D01*
X0111081Y0261918D01*
X0111109Y0261897D01*
X0111134Y0261874D01*
X0111157Y0261848D01*
X0111177Y0261819D01*
X0111194Y0261789D01*
X0112162Y0259792D01*
X0112162Y0256643D01*
X0112162Y0259792D02*
X0109642Y0259792D01*
X0109642Y0253060D02*
X0109642Y0250540D01*
X0112162Y0250540D01*
X0112162Y0253060D01*
X0109642Y0253060D01*
X0119642Y0253060D02*
X0119642Y0250540D01*
X0122162Y0250540D01*
X0122162Y0253060D01*
X0119642Y0253060D01*
X0119642Y0256643D02*
X0119642Y0259792D01*
X0120610Y0261789D01*
X0120627Y0261819D01*
X0120647Y0261848D01*
X0120670Y0261874D01*
X0120695Y0261897D01*
X0120723Y0261918D01*
X0120752Y0261935D01*
X0120784Y0261950D01*
X0120817Y0261961D01*
X0120850Y0261968D01*
X0120885Y0261972D01*
X0120919Y0261972D01*
X0120954Y0261968D01*
X0120987Y0261961D01*
X0121020Y0261950D01*
X0121052Y0261935D01*
X0121081Y0261918D01*
X0121109Y0261897D01*
X0121134Y0261874D01*
X0121157Y0261848D01*
X0121177Y0261819D01*
X0121194Y0261789D01*
X0122162Y0259792D01*
X0122162Y0256643D01*
X0122162Y0259792D02*
X0119642Y0259792D01*
X0229642Y0259792D02*
X0229642Y0256643D01*
X0232162Y0256643D02*
X0232162Y0259792D01*
X0231194Y0261789D01*
X0231177Y0261819D01*
X0231157Y0261848D01*
X0231134Y0261874D01*
X0231109Y0261897D01*
X0231081Y0261918D01*
X0231052Y0261935D01*
X0231020Y0261950D01*
X0230987Y0261961D01*
X0230954Y0261968D01*
X0230919Y0261972D01*
X0230885Y0261972D01*
X0230850Y0261968D01*
X0230817Y0261961D01*
X0230784Y0261950D01*
X0230752Y0261935D01*
X0230723Y0261918D01*
X0230695Y0261897D01*
X0230670Y0261874D01*
X0230647Y0261848D01*
X0230627Y0261819D01*
X0230610Y0261789D01*
X0229642Y0259792D01*
X0232162Y0259792D01*
X0239642Y0259792D02*
X0239642Y0256643D01*
X0242162Y0256643D02*
X0242162Y0259792D01*
X0241194Y0261789D01*
X0241177Y0261819D01*
X0241157Y0261848D01*
X0241134Y0261874D01*
X0241109Y0261897D01*
X0241081Y0261918D01*
X0241052Y0261935D01*
X0241020Y0261950D01*
X0240987Y0261961D01*
X0240954Y0261968D01*
X0240919Y0261972D01*
X0240885Y0261972D01*
X0240850Y0261968D01*
X0240817Y0261961D01*
X0240784Y0261950D01*
X0240752Y0261935D01*
X0240723Y0261918D01*
X0240695Y0261897D01*
X0240670Y0261874D01*
X0240647Y0261848D01*
X0240627Y0261819D01*
X0240610Y0261789D01*
X0239642Y0259792D01*
X0242162Y0259792D01*
X0249642Y0259792D02*
X0249642Y0256643D01*
X0252162Y0256643D02*
X0252162Y0259792D01*
X0251194Y0261789D01*
X0251177Y0261819D01*
X0251157Y0261848D01*
X0251134Y0261874D01*
X0251109Y0261897D01*
X0251081Y0261918D01*
X0251052Y0261935D01*
X0251020Y0261950D01*
X0250987Y0261961D01*
X0250954Y0261968D01*
X0250919Y0261972D01*
X0250885Y0261972D01*
X0250850Y0261968D01*
X0250817Y0261961D01*
X0250784Y0261950D01*
X0250752Y0261935D01*
X0250723Y0261918D01*
X0250695Y0261897D01*
X0250670Y0261874D01*
X0250647Y0261848D01*
X0250627Y0261819D01*
X0250610Y0261789D01*
X0249642Y0259792D01*
X0252162Y0259792D01*
X0252162Y0253060D02*
X0249642Y0253060D01*
X0249642Y0250540D01*
X0252162Y0250540D01*
X0252162Y0253060D01*
X0259642Y0253060D02*
X0259642Y0250540D01*
X0262162Y0250540D01*
X0262162Y0253060D01*
X0259642Y0253060D01*
X0259642Y0256643D02*
X0259642Y0259792D01*
X0260610Y0261789D01*
X0260627Y0261819D01*
X0260647Y0261848D01*
X0260670Y0261874D01*
X0260695Y0261897D01*
X0260723Y0261918D01*
X0260752Y0261935D01*
X0260784Y0261950D01*
X0260817Y0261961D01*
X0260850Y0261968D01*
X0260885Y0261972D01*
X0260919Y0261972D01*
X0260954Y0261968D01*
X0260987Y0261961D01*
X0261020Y0261950D01*
X0261052Y0261935D01*
X0261081Y0261918D01*
X0261109Y0261897D01*
X0261134Y0261874D01*
X0261157Y0261848D01*
X0261177Y0261819D01*
X0261194Y0261789D01*
X0262162Y0259792D01*
X0262162Y0256643D01*
X0262162Y0259792D02*
X0259642Y0259792D01*
X0269642Y0259792D02*
X0269642Y0256643D01*
X0272162Y0256643D02*
X0272162Y0259792D01*
X0271194Y0261789D01*
X0271177Y0261819D01*
X0271157Y0261848D01*
X0271134Y0261874D01*
X0271109Y0261897D01*
X0271081Y0261918D01*
X0271052Y0261935D01*
X0271020Y0261950D01*
X0270987Y0261961D01*
X0270954Y0261968D01*
X0270919Y0261972D01*
X0270885Y0261972D01*
X0270850Y0261968D01*
X0270817Y0261961D01*
X0270784Y0261950D01*
X0270752Y0261935D01*
X0270723Y0261918D01*
X0270695Y0261897D01*
X0270670Y0261874D01*
X0270647Y0261848D01*
X0270627Y0261819D01*
X0270610Y0261789D01*
X0269642Y0259792D01*
X0272162Y0259792D01*
X0272162Y0253060D02*
X0272162Y0250540D01*
X0269642Y0250540D01*
X0269642Y0253060D01*
X0272162Y0253060D01*
X0272162Y0243060D02*
X0272162Y0240540D01*
X0269642Y0240540D01*
X0269642Y0243060D01*
X0272162Y0243060D01*
X0272162Y0236957D02*
X0272162Y0233808D01*
X0271194Y0231811D01*
X0271177Y0231781D01*
X0271157Y0231752D01*
X0271134Y0231726D01*
X0271109Y0231703D01*
X0271081Y0231682D01*
X0271052Y0231665D01*
X0271020Y0231650D01*
X0270987Y0231639D01*
X0270954Y0231632D01*
X0270919Y0231628D01*
X0270885Y0231628D01*
X0270850Y0231632D01*
X0270817Y0231639D01*
X0270784Y0231650D01*
X0270752Y0231665D01*
X0270723Y0231682D01*
X0270695Y0231703D01*
X0270670Y0231726D01*
X0270647Y0231752D01*
X0270627Y0231781D01*
X0270610Y0231811D01*
X0269642Y0233808D01*
X0269642Y0236957D01*
X0269642Y0233808D02*
X0272162Y0233808D01*
X0262162Y0233808D02*
X0261194Y0231811D01*
X0261177Y0231781D01*
X0261157Y0231752D01*
X0261134Y0231726D01*
X0261109Y0231703D01*
X0261081Y0231682D01*
X0261052Y0231665D01*
X0261020Y0231650D01*
X0260987Y0231639D01*
X0260954Y0231632D01*
X0260919Y0231628D01*
X0260885Y0231628D01*
X0260850Y0231632D01*
X0260817Y0231639D01*
X0260784Y0231650D01*
X0260752Y0231665D01*
X0260723Y0231682D01*
X0260695Y0231703D01*
X0260670Y0231726D01*
X0260647Y0231752D01*
X0260627Y0231781D01*
X0260610Y0231811D01*
X0259642Y0233808D01*
X0259642Y0236957D01*
X0262162Y0236957D02*
X0262162Y0233808D01*
X0259642Y0233808D01*
X0252162Y0233808D02*
X0251194Y0231811D01*
X0251177Y0231781D01*
X0251157Y0231752D01*
X0251134Y0231726D01*
X0251109Y0231703D01*
X0251081Y0231682D01*
X0251052Y0231665D01*
X0251020Y0231650D01*
X0250987Y0231639D01*
X0250954Y0231632D01*
X0250919Y0231628D01*
X0250885Y0231628D01*
X0250850Y0231632D01*
X0250817Y0231639D01*
X0250784Y0231650D01*
X0250752Y0231665D01*
X0250723Y0231682D01*
X0250695Y0231703D01*
X0250670Y0231726D01*
X0250647Y0231752D01*
X0250627Y0231781D01*
X0250610Y0231811D01*
X0249642Y0233808D01*
X0249642Y0236957D01*
X0252162Y0236957D02*
X0252162Y0233808D01*
X0249642Y0233808D01*
X0242162Y0233808D02*
X0242162Y0236957D01*
X0239642Y0236957D02*
X0239642Y0233808D01*
X0240610Y0231811D01*
X0240627Y0231781D01*
X0240647Y0231752D01*
X0240670Y0231726D01*
X0240695Y0231703D01*
X0240723Y0231682D01*
X0240752Y0231665D01*
X0240784Y0231650D01*
X0240817Y0231639D01*
X0240850Y0231632D01*
X0240885Y0231628D01*
X0240919Y0231628D01*
X0240954Y0231632D01*
X0240987Y0231639D01*
X0241020Y0231650D01*
X0241052Y0231665D01*
X0241081Y0231682D01*
X0241109Y0231703D01*
X0241134Y0231726D01*
X0241157Y0231752D01*
X0241177Y0231781D01*
X0241194Y0231811D01*
X0242162Y0233808D01*
X0239642Y0233808D01*
X0232162Y0233808D02*
X0232162Y0236957D01*
X0229642Y0236957D02*
X0229642Y0233808D01*
X0230610Y0231811D01*
X0230627Y0231781D01*
X0230647Y0231752D01*
X0230670Y0231726D01*
X0230695Y0231703D01*
X0230723Y0231682D01*
X0230752Y0231665D01*
X0230784Y0231650D01*
X0230817Y0231639D01*
X0230850Y0231632D01*
X0230885Y0231628D01*
X0230919Y0231628D01*
X0230954Y0231632D01*
X0230987Y0231639D01*
X0231020Y0231650D01*
X0231052Y0231665D01*
X0231081Y0231682D01*
X0231109Y0231703D01*
X0231134Y0231726D01*
X0231157Y0231752D01*
X0231177Y0231781D01*
X0231194Y0231811D01*
X0232162Y0233808D01*
X0229642Y0233808D01*
X0229642Y0240540D02*
X0229642Y0243060D01*
X0232162Y0243060D01*
X0232162Y0240540D01*
X0229642Y0240540D01*
X0239642Y0240540D02*
X0239642Y0243060D01*
X0242162Y0243060D01*
X0242162Y0240540D01*
X0239642Y0240540D01*
X0249642Y0240540D02*
X0249642Y0243060D01*
X0252162Y0243060D01*
X0252162Y0240540D01*
X0249642Y0240540D01*
X0259642Y0240540D02*
X0259642Y0243060D01*
X0262162Y0243060D01*
X0262162Y0240540D01*
X0259642Y0240540D01*
X0242162Y0250540D02*
X0239642Y0250540D01*
X0239642Y0253060D01*
X0242162Y0253060D01*
X0242162Y0250540D01*
X0232162Y0250540D02*
X0229642Y0250540D01*
X0229642Y0253060D01*
X0232162Y0253060D01*
X0232162Y0250540D01*
D19*
X0227870Y0258900D02*
X0226002Y0258900D01*
X0227870Y0260768D01*
X0227870Y0261235D01*
X0227403Y0261702D01*
X0226469Y0261702D01*
X0226002Y0261235D01*
X0226936Y0234702D02*
X0226936Y0231900D01*
X0226002Y0231900D02*
X0227870Y0231900D01*
X0226002Y0233768D02*
X0226936Y0234702D01*
X0097870Y0231900D02*
X0096002Y0231900D01*
X0096936Y0231900D02*
X0096936Y0234702D01*
X0096002Y0233768D01*
X0075587Y0246206D02*
X0075587Y0247206D01*
X0096002Y0258900D02*
X0097870Y0260768D01*
X0097870Y0261235D01*
X0097403Y0261702D01*
X0096469Y0261702D01*
X0096002Y0261235D01*
X0096002Y0258900D02*
X0097870Y0258900D01*
X0075587Y0268206D02*
X0075587Y0269206D01*
X0072403Y0176702D02*
X0071469Y0176702D01*
X0071002Y0176235D01*
X0072403Y0176702D02*
X0072870Y0176235D01*
X0072870Y0175768D01*
X0071002Y0173900D01*
X0072870Y0173900D01*
X0071936Y0149702D02*
X0071936Y0146900D01*
X0071002Y0146900D02*
X0072870Y0146900D01*
X0071002Y0148768D02*
X0071936Y0149702D01*
X0171469Y0046702D02*
X0171002Y0046235D01*
X0171469Y0046702D02*
X0172403Y0046702D01*
X0172870Y0046235D01*
X0172870Y0045768D01*
X0171002Y0043900D01*
X0172870Y0043900D01*
X0171936Y0019702D02*
X0171936Y0016900D01*
X0171002Y0016900D02*
X0172870Y0016900D01*
X0171002Y0018768D02*
X0171936Y0019702D01*
X0075587Y0010985D02*
X0075587Y0009985D01*
X0075587Y0031985D02*
X0075587Y0032985D01*
X0330902Y0053100D02*
X0370902Y0053100D01*
X0390548Y0032985D02*
X0390548Y0031985D01*
X0390548Y0010985D02*
X0390548Y0009985D01*
X0390548Y0246206D02*
X0390548Y0247206D01*
X0390548Y0268206D02*
X0390548Y0269206D01*
D20*
X0164630Y0154658D03*
M02*
