%
M48
M72
T01C0.01378
T02C0.02362
T03C0.03200
T04C0.03622
T05C0.05512
T06C0.07087
T07C0.11024
%
T01
X128737Y52489
X150902Y66800
X189760Y56426
X196650Y51505
X220764Y44615
X214367Y32804
X194190Y32804
X181886Y24930
X165646Y20993
X221749Y13611
X243952Y23075
X261611Y32312
X259150Y42646
X253245Y47076
X241926Y58394
X253737Y66269
X254721Y76111
X265548Y77095
X277359Y88906
X264072Y100225
X257182Y101702
X250292Y100717
X257182Y93828
X244386Y84969
X244386Y80048
X237497Y73158
X233560Y69713
X205509Y85954
X197635Y83493
X216335Y97272
X226670Y103178
X223225Y110068
X230902Y121800
X244879Y110560
X266532Y114989
X268501Y122863
X270469Y127784
X280804Y121387
X286217Y136150
X286217Y144517
X272438Y141564
X268501Y145993
X254623Y147298
X250292Y153375
X254410Y169075
X256690Y178965
X259642Y193729
X267516Y194713
X245885Y201687
X239957Y215383
X243894Y222272
X251768Y228178
X272438Y222765
X277359Y232115
X296552Y230146
X297044Y218828
X297044Y209969
X301461Y207842
X315547Y241729
X354813Y241800
X392811Y240520
X407190Y228553
X395476Y216018
X368861Y207819
X356591Y177981
X367910Y174044
X309347Y154359
X284249Y170107
X275883Y166662
X238770Y175236
X230115Y169123
X216827Y168139
X194682Y157312
X192221Y152883
X176473Y146977
X196158Y135658
X202556Y125816
X199111Y115973
X184347Y102194
X171060Y122371
X156788Y117450
X153343Y110560
X137103Y111052
X124800Y119418
X112497Y118434
X110528Y104654
X103638Y96780
X110528Y94812
X110528Y89891
X124800Y132706
X124800Y140580
X107083Y151406
X115449Y156328
X96257Y154851
X71158Y166170
X82477Y196190
X87398Y196190
X102654Y203080
X142024Y197174
X170075Y169123
X149898Y165678
X146946Y140580
X156788Y98257
X214859Y133198
X222241Y143532
X256198Y129261
X306394Y101702
X325095Y107115
X310823Y81524
X313776Y74635
X315745Y67745
X329032Y58887
X337398Y65776
X344780Y70698
X364465Y65776
X384642Y55442
X365449Y27883
X357575Y15580
X336414Y27883
X324603Y31328
X324603Y36249
X316237Y44615
X305902Y36249
X315745Y54950
X285725Y11150
X278343Y12627
X230115Y202587
X226178Y205540
X212398Y230639
X237989Y245402
X255705Y255737
X265548Y263611
X170075Y237036
X155804Y240973
X149898Y255245
X95764Y234083
T02
X161256Y176364
T03
X85902Y186800
X75902Y186800
X95902Y186800
X105902Y186800
X115902Y186800
X125902Y186800
X135902Y186800
X145902Y186800
X155902Y186800
X165902Y186800
X175902Y186800
X185902Y186800
X195902Y186800
X205902Y186800
X205902Y216800
X195902Y216800
X185902Y216800
X175902Y216800
X165902Y216800
X155902Y216800
X145902Y216800
X135902Y216800
X125902Y216800
X115902Y216800
X105902Y216800
X95902Y216800
X85902Y216800
X75902Y216800
T04
X361515Y106800
T05
X92126Y96149
X92126Y117802
T06
X392223Y121761
X392223Y91839
T07
X75587Y21485
X75587Y257706
X390548Y257706
X390548Y21485
M30
