G75*
%MOIN*%
%OFA0B0*%
%FSLAX25Y25*%
%IPPOS*%
%LPD*%
%AMOC8*
5,1,8,0,0,1.08239X$1,22.5*
%
%ADD10C,0.00000*%
%ADD11C,0.05600*%
%ADD12R,0.05518X0.06306*%
%ADD13R,0.04337X0.05124*%
%ADD14R,0.08274X0.06699*%
%ADD15R,0.10400X0.05400*%
%ADD16R,0.04337X0.06306*%
%ADD17C,0.02169*%
%ADD18R,0.03000X0.08400*%
%ADD19R,0.06306X0.02369*%
%ADD20R,0.02369X0.06306*%
%ADD21R,0.06306X0.05518*%
%ADD22R,0.06699X0.05124*%
%ADD23C,0.06699*%
%ADD24R,0.06699X0.06699*%
%ADD25R,0.02600X0.05400*%
%ADD26R,0.03943X0.05912*%
%ADD27C,0.11030*%
%ADD28C,0.06022*%
%ADD29R,0.24180X0.13786*%
%ADD30R,0.12211X0.03156*%
%ADD31C,0.05912*%
%ADD32C,0.21400*%
%ADD33R,0.17329X0.10243*%
%ADD34R,0.05124X0.04337*%
%ADD35R,0.05400X0.02600*%
%ADD36R,0.07290X0.03025*%
%ADD37R,0.07290X0.05321*%
D10*
X0055902Y0001800D02*
X0055902Y0277391D01*
X0410233Y0277391D01*
X0410233Y0001800D01*
X0055902Y0001800D01*
X0089370Y0096149D02*
X0089372Y0096254D01*
X0089378Y0096359D01*
X0089388Y0096463D01*
X0089402Y0096567D01*
X0089420Y0096671D01*
X0089442Y0096773D01*
X0089467Y0096875D01*
X0089497Y0096976D01*
X0089530Y0097075D01*
X0089567Y0097173D01*
X0089608Y0097270D01*
X0089653Y0097365D01*
X0089701Y0097458D01*
X0089752Y0097550D01*
X0089808Y0097639D01*
X0089866Y0097726D01*
X0089928Y0097811D01*
X0089992Y0097894D01*
X0090060Y0097974D01*
X0090131Y0098051D01*
X0090205Y0098125D01*
X0090282Y0098197D01*
X0090361Y0098266D01*
X0090443Y0098331D01*
X0090527Y0098394D01*
X0090614Y0098453D01*
X0090703Y0098509D01*
X0090794Y0098562D01*
X0090887Y0098611D01*
X0090981Y0098656D01*
X0091077Y0098698D01*
X0091175Y0098736D01*
X0091274Y0098770D01*
X0091375Y0098801D01*
X0091476Y0098827D01*
X0091579Y0098850D01*
X0091682Y0098869D01*
X0091786Y0098884D01*
X0091890Y0098895D01*
X0091995Y0098902D01*
X0092100Y0098905D01*
X0092205Y0098904D01*
X0092310Y0098899D01*
X0092414Y0098890D01*
X0092518Y0098877D01*
X0092622Y0098860D01*
X0092725Y0098839D01*
X0092827Y0098814D01*
X0092928Y0098786D01*
X0093027Y0098753D01*
X0093126Y0098717D01*
X0093223Y0098677D01*
X0093318Y0098634D01*
X0093412Y0098586D01*
X0093504Y0098536D01*
X0093594Y0098482D01*
X0093682Y0098424D01*
X0093767Y0098363D01*
X0093850Y0098299D01*
X0093931Y0098232D01*
X0094009Y0098162D01*
X0094084Y0098088D01*
X0094156Y0098013D01*
X0094226Y0097934D01*
X0094292Y0097853D01*
X0094356Y0097769D01*
X0094416Y0097683D01*
X0094472Y0097595D01*
X0094526Y0097504D01*
X0094576Y0097412D01*
X0094622Y0097318D01*
X0094665Y0097222D01*
X0094704Y0097124D01*
X0094739Y0097026D01*
X0094770Y0096925D01*
X0094798Y0096824D01*
X0094822Y0096722D01*
X0094842Y0096619D01*
X0094858Y0096515D01*
X0094870Y0096411D01*
X0094878Y0096306D01*
X0094882Y0096201D01*
X0094882Y0096097D01*
X0094878Y0095992D01*
X0094870Y0095887D01*
X0094858Y0095783D01*
X0094842Y0095679D01*
X0094822Y0095576D01*
X0094798Y0095474D01*
X0094770Y0095373D01*
X0094739Y0095272D01*
X0094704Y0095174D01*
X0094665Y0095076D01*
X0094622Y0094980D01*
X0094576Y0094886D01*
X0094526Y0094794D01*
X0094472Y0094703D01*
X0094416Y0094615D01*
X0094356Y0094529D01*
X0094292Y0094445D01*
X0094226Y0094364D01*
X0094156Y0094285D01*
X0094084Y0094210D01*
X0094009Y0094136D01*
X0093931Y0094066D01*
X0093850Y0093999D01*
X0093767Y0093935D01*
X0093682Y0093874D01*
X0093594Y0093816D01*
X0093504Y0093762D01*
X0093412Y0093712D01*
X0093318Y0093664D01*
X0093223Y0093621D01*
X0093126Y0093581D01*
X0093027Y0093545D01*
X0092928Y0093512D01*
X0092827Y0093484D01*
X0092725Y0093459D01*
X0092622Y0093438D01*
X0092518Y0093421D01*
X0092414Y0093408D01*
X0092310Y0093399D01*
X0092205Y0093394D01*
X0092100Y0093393D01*
X0091995Y0093396D01*
X0091890Y0093403D01*
X0091786Y0093414D01*
X0091682Y0093429D01*
X0091579Y0093448D01*
X0091476Y0093471D01*
X0091375Y0093497D01*
X0091274Y0093528D01*
X0091175Y0093562D01*
X0091077Y0093600D01*
X0090981Y0093642D01*
X0090887Y0093687D01*
X0090794Y0093736D01*
X0090703Y0093789D01*
X0090614Y0093845D01*
X0090527Y0093904D01*
X0090443Y0093967D01*
X0090361Y0094032D01*
X0090282Y0094101D01*
X0090205Y0094173D01*
X0090131Y0094247D01*
X0090060Y0094324D01*
X0089992Y0094404D01*
X0089928Y0094487D01*
X0089866Y0094572D01*
X0089808Y0094659D01*
X0089752Y0094748D01*
X0089701Y0094840D01*
X0089653Y0094933D01*
X0089608Y0095028D01*
X0089567Y0095125D01*
X0089530Y0095223D01*
X0089497Y0095322D01*
X0089467Y0095423D01*
X0089442Y0095525D01*
X0089420Y0095627D01*
X0089402Y0095731D01*
X0089388Y0095835D01*
X0089378Y0095939D01*
X0089372Y0096044D01*
X0089370Y0096149D01*
X0089370Y0117802D02*
X0089372Y0117907D01*
X0089378Y0118012D01*
X0089388Y0118116D01*
X0089402Y0118220D01*
X0089420Y0118324D01*
X0089442Y0118426D01*
X0089467Y0118528D01*
X0089497Y0118629D01*
X0089530Y0118728D01*
X0089567Y0118826D01*
X0089608Y0118923D01*
X0089653Y0119018D01*
X0089701Y0119111D01*
X0089752Y0119203D01*
X0089808Y0119292D01*
X0089866Y0119379D01*
X0089928Y0119464D01*
X0089992Y0119547D01*
X0090060Y0119627D01*
X0090131Y0119704D01*
X0090205Y0119778D01*
X0090282Y0119850D01*
X0090361Y0119919D01*
X0090443Y0119984D01*
X0090527Y0120047D01*
X0090614Y0120106D01*
X0090703Y0120162D01*
X0090794Y0120215D01*
X0090887Y0120264D01*
X0090981Y0120309D01*
X0091077Y0120351D01*
X0091175Y0120389D01*
X0091274Y0120423D01*
X0091375Y0120454D01*
X0091476Y0120480D01*
X0091579Y0120503D01*
X0091682Y0120522D01*
X0091786Y0120537D01*
X0091890Y0120548D01*
X0091995Y0120555D01*
X0092100Y0120558D01*
X0092205Y0120557D01*
X0092310Y0120552D01*
X0092414Y0120543D01*
X0092518Y0120530D01*
X0092622Y0120513D01*
X0092725Y0120492D01*
X0092827Y0120467D01*
X0092928Y0120439D01*
X0093027Y0120406D01*
X0093126Y0120370D01*
X0093223Y0120330D01*
X0093318Y0120287D01*
X0093412Y0120239D01*
X0093504Y0120189D01*
X0093594Y0120135D01*
X0093682Y0120077D01*
X0093767Y0120016D01*
X0093850Y0119952D01*
X0093931Y0119885D01*
X0094009Y0119815D01*
X0094084Y0119741D01*
X0094156Y0119666D01*
X0094226Y0119587D01*
X0094292Y0119506D01*
X0094356Y0119422D01*
X0094416Y0119336D01*
X0094472Y0119248D01*
X0094526Y0119157D01*
X0094576Y0119065D01*
X0094622Y0118971D01*
X0094665Y0118875D01*
X0094704Y0118777D01*
X0094739Y0118679D01*
X0094770Y0118578D01*
X0094798Y0118477D01*
X0094822Y0118375D01*
X0094842Y0118272D01*
X0094858Y0118168D01*
X0094870Y0118064D01*
X0094878Y0117959D01*
X0094882Y0117854D01*
X0094882Y0117750D01*
X0094878Y0117645D01*
X0094870Y0117540D01*
X0094858Y0117436D01*
X0094842Y0117332D01*
X0094822Y0117229D01*
X0094798Y0117127D01*
X0094770Y0117026D01*
X0094739Y0116925D01*
X0094704Y0116827D01*
X0094665Y0116729D01*
X0094622Y0116633D01*
X0094576Y0116539D01*
X0094526Y0116447D01*
X0094472Y0116356D01*
X0094416Y0116268D01*
X0094356Y0116182D01*
X0094292Y0116098D01*
X0094226Y0116017D01*
X0094156Y0115938D01*
X0094084Y0115863D01*
X0094009Y0115789D01*
X0093931Y0115719D01*
X0093850Y0115652D01*
X0093767Y0115588D01*
X0093682Y0115527D01*
X0093594Y0115469D01*
X0093504Y0115415D01*
X0093412Y0115365D01*
X0093318Y0115317D01*
X0093223Y0115274D01*
X0093126Y0115234D01*
X0093027Y0115198D01*
X0092928Y0115165D01*
X0092827Y0115137D01*
X0092725Y0115112D01*
X0092622Y0115091D01*
X0092518Y0115074D01*
X0092414Y0115061D01*
X0092310Y0115052D01*
X0092205Y0115047D01*
X0092100Y0115046D01*
X0091995Y0115049D01*
X0091890Y0115056D01*
X0091786Y0115067D01*
X0091682Y0115082D01*
X0091579Y0115101D01*
X0091476Y0115124D01*
X0091375Y0115150D01*
X0091274Y0115181D01*
X0091175Y0115215D01*
X0091077Y0115253D01*
X0090981Y0115295D01*
X0090887Y0115340D01*
X0090794Y0115389D01*
X0090703Y0115442D01*
X0090614Y0115498D01*
X0090527Y0115557D01*
X0090443Y0115620D01*
X0090361Y0115685D01*
X0090282Y0115754D01*
X0090205Y0115826D01*
X0090131Y0115900D01*
X0090060Y0115977D01*
X0089992Y0116057D01*
X0089928Y0116140D01*
X0089866Y0116225D01*
X0089808Y0116312D01*
X0089752Y0116401D01*
X0089701Y0116493D01*
X0089653Y0116586D01*
X0089608Y0116681D01*
X0089567Y0116778D01*
X0089530Y0116876D01*
X0089497Y0116975D01*
X0089467Y0117076D01*
X0089442Y0117178D01*
X0089420Y0117280D01*
X0089402Y0117384D01*
X0089388Y0117488D01*
X0089378Y0117592D01*
X0089372Y0117697D01*
X0089370Y0117802D01*
D11*
X0085902Y0184200D02*
X0085902Y0189400D01*
X0075902Y0189400D02*
X0075902Y0184200D01*
X0095902Y0184200D02*
X0095902Y0189400D01*
X0105902Y0189400D02*
X0105902Y0184200D01*
X0115902Y0184200D02*
X0115902Y0189400D01*
X0125902Y0189400D02*
X0125902Y0184200D01*
X0135902Y0184200D02*
X0135902Y0189400D01*
X0145902Y0189400D02*
X0145902Y0184200D01*
X0155902Y0184200D02*
X0155902Y0189400D01*
X0165902Y0189400D02*
X0165902Y0184200D01*
X0175902Y0184200D02*
X0175902Y0189400D01*
X0185902Y0189400D02*
X0185902Y0184200D01*
X0195902Y0184200D02*
X0195902Y0189400D01*
X0205902Y0189400D02*
X0205902Y0184200D01*
X0205902Y0214200D02*
X0205902Y0219400D01*
X0195902Y0219400D02*
X0195902Y0214200D01*
X0185902Y0214200D02*
X0185902Y0219400D01*
X0175902Y0219400D02*
X0175902Y0214200D01*
X0165902Y0214200D02*
X0165902Y0219400D01*
X0155902Y0219400D02*
X0155902Y0214200D01*
X0145902Y0214200D02*
X0145902Y0219400D01*
X0135902Y0219400D02*
X0135902Y0214200D01*
X0125902Y0214200D02*
X0125902Y0219400D01*
X0115902Y0219400D02*
X0115902Y0214200D01*
X0105902Y0214200D02*
X0105902Y0219400D01*
X0095902Y0219400D02*
X0095902Y0214200D01*
X0085902Y0214200D02*
X0085902Y0219400D01*
X0075902Y0219400D02*
X0075902Y0214200D01*
D12*
X0222162Y0216800D03*
X0229642Y0216800D03*
X0229642Y0156800D03*
X0222162Y0156800D03*
X0222162Y0131800D03*
X0229642Y0131800D03*
X0184642Y0076800D03*
X0177162Y0076800D03*
X0154642Y0076800D03*
X0147162Y0076800D03*
D13*
X0149839Y0102863D03*
X0141965Y0102863D03*
X0145902Y0110737D03*
X0166965Y0102863D03*
X0174839Y0102863D03*
X0170902Y0110737D03*
X0206965Y0102863D03*
X0214839Y0102863D03*
X0210902Y0110737D03*
X0231965Y0110737D03*
X0239839Y0110737D03*
X0235902Y0102863D03*
D14*
X0130902Y0087312D03*
X0130902Y0076288D03*
X0215902Y0251288D03*
X0215902Y0262312D03*
D15*
X0155902Y0036800D03*
X0155902Y0026800D03*
X0130902Y0026800D03*
X0130902Y0036800D03*
X0105902Y0036800D03*
X0105902Y0026800D03*
D16*
X0175902Y0044595D03*
X0185902Y0044595D03*
X0195902Y0044595D03*
X0205902Y0044595D03*
X0215902Y0044595D03*
X0215902Y0019005D03*
X0205902Y0019005D03*
X0195902Y0019005D03*
X0185902Y0019005D03*
X0095902Y0149005D03*
X0085902Y0149005D03*
X0085902Y0174595D03*
X0075902Y0174595D03*
X0095902Y0174595D03*
X0110902Y0234005D03*
X0120902Y0234005D03*
X0120902Y0259595D03*
X0110902Y0259595D03*
X0100902Y0259595D03*
X0230902Y0259595D03*
X0240902Y0259595D03*
X0250902Y0259595D03*
X0260902Y0259595D03*
X0270902Y0259595D03*
X0270902Y0234005D03*
X0260902Y0234005D03*
X0250902Y0234005D03*
X0240902Y0234005D03*
D17*
X0229818Y0231936D02*
X0229818Y0236074D01*
X0231986Y0236074D01*
X0231986Y0231936D01*
X0229818Y0231936D01*
X0229818Y0234104D02*
X0231986Y0234104D01*
X0099818Y0236074D02*
X0099818Y0231936D01*
X0099818Y0236074D02*
X0101986Y0236074D01*
X0101986Y0231936D01*
X0099818Y0231936D01*
X0099818Y0234104D02*
X0101986Y0234104D01*
X0074818Y0151074D02*
X0074818Y0146936D01*
X0074818Y0151074D02*
X0076986Y0151074D01*
X0076986Y0146936D01*
X0074818Y0146936D01*
X0074818Y0149104D02*
X0076986Y0149104D01*
X0174818Y0021074D02*
X0174818Y0016936D01*
X0174818Y0021074D02*
X0176986Y0021074D01*
X0176986Y0016936D01*
X0174818Y0016936D01*
X0174818Y0019104D02*
X0176986Y0019104D01*
D18*
X0333402Y0034700D03*
X0338402Y0034700D03*
X0343402Y0034700D03*
X0348402Y0034700D03*
X0353402Y0034700D03*
X0358402Y0034700D03*
X0363402Y0034700D03*
X0368402Y0034700D03*
X0368402Y0058900D03*
X0363402Y0058900D03*
X0358402Y0058900D03*
X0353402Y0058900D03*
X0348402Y0058900D03*
X0343402Y0058900D03*
X0338402Y0058900D03*
X0333402Y0058900D03*
D19*
G36*
X0314576Y0048723D02*
X0310118Y0053181D01*
X0311792Y0054855D01*
X0316250Y0050397D01*
X0314576Y0048723D01*
G37*
G36*
X0312349Y0046496D02*
X0307891Y0050954D01*
X0309565Y0052628D01*
X0314023Y0048170D01*
X0312349Y0046496D01*
G37*
G36*
X0310122Y0044269D02*
X0305664Y0048727D01*
X0307338Y0050401D01*
X0311796Y0045943D01*
X0310122Y0044269D01*
G37*
G36*
X0307895Y0042042D02*
X0303437Y0046500D01*
X0305111Y0048174D01*
X0309569Y0043716D01*
X0307895Y0042042D01*
G37*
G36*
X0305668Y0039815D02*
X0301210Y0044273D01*
X0302884Y0045947D01*
X0307342Y0041489D01*
X0305668Y0039815D01*
G37*
G36*
X0303441Y0037587D02*
X0298983Y0042045D01*
X0300657Y0043719D01*
X0305115Y0039261D01*
X0303441Y0037587D01*
G37*
G36*
X0301214Y0035360D02*
X0296756Y0039818D01*
X0298430Y0041492D01*
X0302888Y0037034D01*
X0301214Y0035360D01*
G37*
G36*
X0298987Y0033133D02*
X0294529Y0037591D01*
X0296203Y0039265D01*
X0300661Y0034807D01*
X0298987Y0033133D01*
G37*
G36*
X0296759Y0030906D02*
X0292301Y0035364D01*
X0293975Y0037038D01*
X0298433Y0032580D01*
X0296759Y0030906D01*
G37*
G36*
X0294532Y0028679D02*
X0290074Y0033137D01*
X0291748Y0034811D01*
X0296206Y0030353D01*
X0294532Y0028679D01*
G37*
G36*
X0292305Y0026452D02*
X0287847Y0030910D01*
X0289521Y0032584D01*
X0293979Y0028126D01*
X0292305Y0026452D01*
G37*
G36*
X0260012Y0058745D02*
X0255554Y0063203D01*
X0257228Y0064877D01*
X0261686Y0060419D01*
X0260012Y0058745D01*
G37*
G36*
X0262239Y0060972D02*
X0257781Y0065430D01*
X0259455Y0067104D01*
X0263913Y0062646D01*
X0262239Y0060972D01*
G37*
G36*
X0264466Y0063199D02*
X0260008Y0067657D01*
X0261682Y0069331D01*
X0266140Y0064873D01*
X0264466Y0063199D01*
G37*
G36*
X0266693Y0065426D02*
X0262235Y0069884D01*
X0263909Y0071558D01*
X0268367Y0067100D01*
X0266693Y0065426D01*
G37*
G36*
X0268921Y0067653D02*
X0264463Y0072111D01*
X0266137Y0073785D01*
X0270595Y0069327D01*
X0268921Y0067653D01*
G37*
G36*
X0271148Y0069881D02*
X0266690Y0074339D01*
X0268364Y0076013D01*
X0272822Y0071555D01*
X0271148Y0069881D01*
G37*
G36*
X0273375Y0072108D02*
X0268917Y0076566D01*
X0270591Y0078240D01*
X0275049Y0073782D01*
X0273375Y0072108D01*
G37*
G36*
X0275602Y0074335D02*
X0271144Y0078793D01*
X0272818Y0080467D01*
X0277276Y0076009D01*
X0275602Y0074335D01*
G37*
G36*
X0277829Y0076562D02*
X0273371Y0081020D01*
X0275045Y0082694D01*
X0279503Y0078236D01*
X0277829Y0076562D01*
G37*
G36*
X0280056Y0078789D02*
X0275598Y0083247D01*
X0277272Y0084921D01*
X0281730Y0080463D01*
X0280056Y0078789D01*
G37*
G36*
X0282283Y0081016D02*
X0277825Y0085474D01*
X0279499Y0087148D01*
X0283957Y0082690D01*
X0282283Y0081016D01*
G37*
D20*
G36*
X0289521Y0081016D02*
X0287847Y0082690D01*
X0292305Y0087148D01*
X0293979Y0085474D01*
X0289521Y0081016D01*
G37*
G36*
X0291748Y0078789D02*
X0290074Y0080463D01*
X0294532Y0084921D01*
X0296206Y0083247D01*
X0291748Y0078789D01*
G37*
G36*
X0293975Y0076562D02*
X0292301Y0078236D01*
X0296759Y0082694D01*
X0298433Y0081020D01*
X0293975Y0076562D01*
G37*
G36*
X0296203Y0074335D02*
X0294529Y0076009D01*
X0298987Y0080467D01*
X0300661Y0078793D01*
X0296203Y0074335D01*
G37*
G36*
X0298430Y0072108D02*
X0296756Y0073782D01*
X0301214Y0078240D01*
X0302888Y0076566D01*
X0298430Y0072108D01*
G37*
G36*
X0300657Y0069881D02*
X0298983Y0071555D01*
X0303441Y0076013D01*
X0305115Y0074339D01*
X0300657Y0069881D01*
G37*
G36*
X0302884Y0067653D02*
X0301210Y0069327D01*
X0305668Y0073785D01*
X0307342Y0072111D01*
X0302884Y0067653D01*
G37*
G36*
X0305111Y0065426D02*
X0303437Y0067100D01*
X0307895Y0071558D01*
X0309569Y0069884D01*
X0305111Y0065426D01*
G37*
G36*
X0307338Y0063199D02*
X0305664Y0064873D01*
X0310122Y0069331D01*
X0311796Y0067657D01*
X0307338Y0063199D01*
G37*
G36*
X0309565Y0060972D02*
X0307891Y0062646D01*
X0312349Y0067104D01*
X0314023Y0065430D01*
X0309565Y0060972D01*
G37*
G36*
X0311792Y0058745D02*
X0310118Y0060419D01*
X0314576Y0064877D01*
X0316250Y0063203D01*
X0311792Y0058745D01*
G37*
G36*
X0277272Y0028679D02*
X0275598Y0030353D01*
X0280056Y0034811D01*
X0281730Y0033137D01*
X0277272Y0028679D01*
G37*
G36*
X0279499Y0026452D02*
X0277825Y0028126D01*
X0282283Y0032584D01*
X0283957Y0030910D01*
X0279499Y0026452D01*
G37*
G36*
X0275045Y0030906D02*
X0273371Y0032580D01*
X0277829Y0037038D01*
X0279503Y0035364D01*
X0275045Y0030906D01*
G37*
G36*
X0272818Y0033133D02*
X0271144Y0034807D01*
X0275602Y0039265D01*
X0277276Y0037591D01*
X0272818Y0033133D01*
G37*
G36*
X0270591Y0035360D02*
X0268917Y0037034D01*
X0273375Y0041492D01*
X0275049Y0039818D01*
X0270591Y0035360D01*
G37*
G36*
X0268364Y0037587D02*
X0266690Y0039261D01*
X0271148Y0043719D01*
X0272822Y0042045D01*
X0268364Y0037587D01*
G37*
G36*
X0266137Y0039815D02*
X0264463Y0041489D01*
X0268921Y0045947D01*
X0270595Y0044273D01*
X0266137Y0039815D01*
G37*
G36*
X0263909Y0042042D02*
X0262235Y0043716D01*
X0266693Y0048174D01*
X0268367Y0046500D01*
X0263909Y0042042D01*
G37*
G36*
X0261682Y0044269D02*
X0260008Y0045943D01*
X0264466Y0050401D01*
X0266140Y0048727D01*
X0261682Y0044269D01*
G37*
G36*
X0259455Y0046496D02*
X0257781Y0048170D01*
X0262239Y0052628D01*
X0263913Y0050954D01*
X0259455Y0046496D01*
G37*
G36*
X0257228Y0048723D02*
X0255554Y0050397D01*
X0260012Y0054855D01*
X0261686Y0053181D01*
X0257228Y0048723D01*
G37*
D21*
X0235902Y0050540D03*
X0235902Y0043060D03*
X0235902Y0030540D03*
X0235902Y0023060D03*
X0195902Y0163060D03*
X0195902Y0170540D03*
X0185902Y0170540D03*
X0185902Y0163060D03*
X0371779Y0187193D03*
X0371779Y0194673D03*
D22*
X0372524Y0217718D03*
X0372524Y0229529D03*
D23*
X0395291Y0228568D03*
D24*
X0405291Y0238568D03*
X0385291Y0238568D03*
X0385291Y0218568D03*
X0405291Y0218568D03*
D25*
X0229602Y0196900D03*
X0222202Y0196900D03*
X0222202Y0186700D03*
X0225902Y0186700D03*
X0229602Y0186700D03*
D26*
X0165430Y0169280D03*
X0156375Y0169280D03*
X0156375Y0154320D03*
X0165430Y0154320D03*
D27*
X0392223Y0121761D03*
X0392223Y0091839D03*
D28*
X0361515Y0106800D03*
D29*
X0094409Y0079731D03*
X0094409Y0134219D03*
D30*
X0119685Y0114338D03*
X0119685Y0109416D03*
X0119685Y0104534D03*
X0119685Y0099613D03*
D31*
X0092126Y0096149D03*
X0092126Y0117802D03*
D32*
X0075587Y0021485D03*
X0390548Y0021485D03*
X0390548Y0257706D03*
X0075587Y0257706D03*
D33*
X0364564Y0151800D03*
X0397241Y0151800D03*
D34*
X0154839Y0131800D03*
X0146965Y0127863D03*
X0146965Y0135737D03*
D35*
X0280802Y0136800D03*
X0280802Y0133100D03*
X0280802Y0140500D03*
X0291002Y0140500D03*
X0291002Y0133100D03*
D36*
X0309577Y0182251D03*
X0309577Y0187172D03*
X0309577Y0192093D03*
X0309577Y0197014D03*
X0309577Y0201936D03*
X0309577Y0213747D03*
X0309577Y0218668D03*
X0309577Y0223589D03*
X0309577Y0228510D03*
X0309577Y0233432D03*
X0360758Y0233432D03*
X0360758Y0228510D03*
X0360758Y0223589D03*
X0360758Y0218668D03*
X0360758Y0213747D03*
X0360758Y0201936D03*
X0360758Y0197014D03*
X0360758Y0192093D03*
X0360758Y0187172D03*
X0360758Y0182251D03*
D37*
X0360758Y0207841D03*
X0309577Y0207841D03*
M02*
