G75*
%MOIN*%
%OFA0B0*%
%FSLAX25Y25*%
%IPPOS*%
%LPD*%
%AMOC8*
5,1,8,0,0,1.08239X$1,22.5*
%
%ADD10C,0.00000*%
%ADD11C,0.01000*%
%ADD12C,0.05200*%
%ADD13R,0.05906X0.05118*%
%ADD14R,0.05118X0.05906*%
%ADD15R,0.15748X0.07087*%
%ADD16R,0.07480X0.13386*%
%ADD17C,0.10630*%
%ADD18C,0.05622*%
%ADD19C,0.21000*%
%ADD20R,0.07087X0.05512*%
%ADD21R,0.05512X0.05512*%
%ADD22C,0.01600*%
%ADD23C,0.02578*%
%ADD24C,0.02000*%
%ADD25C,0.03562*%
%ADD26C,0.01181*%
D10*
X0055902Y0001800D02*
X0055902Y0277391D01*
X0410233Y0277391D01*
X0410233Y0001800D01*
X0055902Y0001800D01*
X0089370Y0096149D02*
X0089372Y0096254D01*
X0089378Y0096359D01*
X0089388Y0096463D01*
X0089402Y0096567D01*
X0089420Y0096671D01*
X0089442Y0096773D01*
X0089467Y0096875D01*
X0089497Y0096976D01*
X0089530Y0097075D01*
X0089567Y0097173D01*
X0089608Y0097270D01*
X0089653Y0097365D01*
X0089701Y0097458D01*
X0089752Y0097550D01*
X0089808Y0097639D01*
X0089866Y0097726D01*
X0089928Y0097811D01*
X0089992Y0097894D01*
X0090060Y0097974D01*
X0090131Y0098051D01*
X0090205Y0098125D01*
X0090282Y0098197D01*
X0090361Y0098266D01*
X0090443Y0098331D01*
X0090527Y0098394D01*
X0090614Y0098453D01*
X0090703Y0098509D01*
X0090794Y0098562D01*
X0090887Y0098611D01*
X0090981Y0098656D01*
X0091077Y0098698D01*
X0091175Y0098736D01*
X0091274Y0098770D01*
X0091375Y0098801D01*
X0091476Y0098827D01*
X0091579Y0098850D01*
X0091682Y0098869D01*
X0091786Y0098884D01*
X0091890Y0098895D01*
X0091995Y0098902D01*
X0092100Y0098905D01*
X0092205Y0098904D01*
X0092310Y0098899D01*
X0092414Y0098890D01*
X0092518Y0098877D01*
X0092622Y0098860D01*
X0092725Y0098839D01*
X0092827Y0098814D01*
X0092928Y0098786D01*
X0093027Y0098753D01*
X0093126Y0098717D01*
X0093223Y0098677D01*
X0093318Y0098634D01*
X0093412Y0098586D01*
X0093504Y0098536D01*
X0093594Y0098482D01*
X0093682Y0098424D01*
X0093767Y0098363D01*
X0093850Y0098299D01*
X0093931Y0098232D01*
X0094009Y0098162D01*
X0094084Y0098088D01*
X0094156Y0098013D01*
X0094226Y0097934D01*
X0094292Y0097853D01*
X0094356Y0097769D01*
X0094416Y0097683D01*
X0094472Y0097595D01*
X0094526Y0097504D01*
X0094576Y0097412D01*
X0094622Y0097318D01*
X0094665Y0097222D01*
X0094704Y0097124D01*
X0094739Y0097026D01*
X0094770Y0096925D01*
X0094798Y0096824D01*
X0094822Y0096722D01*
X0094842Y0096619D01*
X0094858Y0096515D01*
X0094870Y0096411D01*
X0094878Y0096306D01*
X0094882Y0096201D01*
X0094882Y0096097D01*
X0094878Y0095992D01*
X0094870Y0095887D01*
X0094858Y0095783D01*
X0094842Y0095679D01*
X0094822Y0095576D01*
X0094798Y0095474D01*
X0094770Y0095373D01*
X0094739Y0095272D01*
X0094704Y0095174D01*
X0094665Y0095076D01*
X0094622Y0094980D01*
X0094576Y0094886D01*
X0094526Y0094794D01*
X0094472Y0094703D01*
X0094416Y0094615D01*
X0094356Y0094529D01*
X0094292Y0094445D01*
X0094226Y0094364D01*
X0094156Y0094285D01*
X0094084Y0094210D01*
X0094009Y0094136D01*
X0093931Y0094066D01*
X0093850Y0093999D01*
X0093767Y0093935D01*
X0093682Y0093874D01*
X0093594Y0093816D01*
X0093504Y0093762D01*
X0093412Y0093712D01*
X0093318Y0093664D01*
X0093223Y0093621D01*
X0093126Y0093581D01*
X0093027Y0093545D01*
X0092928Y0093512D01*
X0092827Y0093484D01*
X0092725Y0093459D01*
X0092622Y0093438D01*
X0092518Y0093421D01*
X0092414Y0093408D01*
X0092310Y0093399D01*
X0092205Y0093394D01*
X0092100Y0093393D01*
X0091995Y0093396D01*
X0091890Y0093403D01*
X0091786Y0093414D01*
X0091682Y0093429D01*
X0091579Y0093448D01*
X0091476Y0093471D01*
X0091375Y0093497D01*
X0091274Y0093528D01*
X0091175Y0093562D01*
X0091077Y0093600D01*
X0090981Y0093642D01*
X0090887Y0093687D01*
X0090794Y0093736D01*
X0090703Y0093789D01*
X0090614Y0093845D01*
X0090527Y0093904D01*
X0090443Y0093967D01*
X0090361Y0094032D01*
X0090282Y0094101D01*
X0090205Y0094173D01*
X0090131Y0094247D01*
X0090060Y0094324D01*
X0089992Y0094404D01*
X0089928Y0094487D01*
X0089866Y0094572D01*
X0089808Y0094659D01*
X0089752Y0094748D01*
X0089701Y0094840D01*
X0089653Y0094933D01*
X0089608Y0095028D01*
X0089567Y0095125D01*
X0089530Y0095223D01*
X0089497Y0095322D01*
X0089467Y0095423D01*
X0089442Y0095525D01*
X0089420Y0095627D01*
X0089402Y0095731D01*
X0089388Y0095835D01*
X0089378Y0095939D01*
X0089372Y0096044D01*
X0089370Y0096149D01*
X0089370Y0117802D02*
X0089372Y0117907D01*
X0089378Y0118012D01*
X0089388Y0118116D01*
X0089402Y0118220D01*
X0089420Y0118324D01*
X0089442Y0118426D01*
X0089467Y0118528D01*
X0089497Y0118629D01*
X0089530Y0118728D01*
X0089567Y0118826D01*
X0089608Y0118923D01*
X0089653Y0119018D01*
X0089701Y0119111D01*
X0089752Y0119203D01*
X0089808Y0119292D01*
X0089866Y0119379D01*
X0089928Y0119464D01*
X0089992Y0119547D01*
X0090060Y0119627D01*
X0090131Y0119704D01*
X0090205Y0119778D01*
X0090282Y0119850D01*
X0090361Y0119919D01*
X0090443Y0119984D01*
X0090527Y0120047D01*
X0090614Y0120106D01*
X0090703Y0120162D01*
X0090794Y0120215D01*
X0090887Y0120264D01*
X0090981Y0120309D01*
X0091077Y0120351D01*
X0091175Y0120389D01*
X0091274Y0120423D01*
X0091375Y0120454D01*
X0091476Y0120480D01*
X0091579Y0120503D01*
X0091682Y0120522D01*
X0091786Y0120537D01*
X0091890Y0120548D01*
X0091995Y0120555D01*
X0092100Y0120558D01*
X0092205Y0120557D01*
X0092310Y0120552D01*
X0092414Y0120543D01*
X0092518Y0120530D01*
X0092622Y0120513D01*
X0092725Y0120492D01*
X0092827Y0120467D01*
X0092928Y0120439D01*
X0093027Y0120406D01*
X0093126Y0120370D01*
X0093223Y0120330D01*
X0093318Y0120287D01*
X0093412Y0120239D01*
X0093504Y0120189D01*
X0093594Y0120135D01*
X0093682Y0120077D01*
X0093767Y0120016D01*
X0093850Y0119952D01*
X0093931Y0119885D01*
X0094009Y0119815D01*
X0094084Y0119741D01*
X0094156Y0119666D01*
X0094226Y0119587D01*
X0094292Y0119506D01*
X0094356Y0119422D01*
X0094416Y0119336D01*
X0094472Y0119248D01*
X0094526Y0119157D01*
X0094576Y0119065D01*
X0094622Y0118971D01*
X0094665Y0118875D01*
X0094704Y0118777D01*
X0094739Y0118679D01*
X0094770Y0118578D01*
X0094798Y0118477D01*
X0094822Y0118375D01*
X0094842Y0118272D01*
X0094858Y0118168D01*
X0094870Y0118064D01*
X0094878Y0117959D01*
X0094882Y0117854D01*
X0094882Y0117750D01*
X0094878Y0117645D01*
X0094870Y0117540D01*
X0094858Y0117436D01*
X0094842Y0117332D01*
X0094822Y0117229D01*
X0094798Y0117127D01*
X0094770Y0117026D01*
X0094739Y0116925D01*
X0094704Y0116827D01*
X0094665Y0116729D01*
X0094622Y0116633D01*
X0094576Y0116539D01*
X0094526Y0116447D01*
X0094472Y0116356D01*
X0094416Y0116268D01*
X0094356Y0116182D01*
X0094292Y0116098D01*
X0094226Y0116017D01*
X0094156Y0115938D01*
X0094084Y0115863D01*
X0094009Y0115789D01*
X0093931Y0115719D01*
X0093850Y0115652D01*
X0093767Y0115588D01*
X0093682Y0115527D01*
X0093594Y0115469D01*
X0093504Y0115415D01*
X0093412Y0115365D01*
X0093318Y0115317D01*
X0093223Y0115274D01*
X0093126Y0115234D01*
X0093027Y0115198D01*
X0092928Y0115165D01*
X0092827Y0115137D01*
X0092725Y0115112D01*
X0092622Y0115091D01*
X0092518Y0115074D01*
X0092414Y0115061D01*
X0092310Y0115052D01*
X0092205Y0115047D01*
X0092100Y0115046D01*
X0091995Y0115049D01*
X0091890Y0115056D01*
X0091786Y0115067D01*
X0091682Y0115082D01*
X0091579Y0115101D01*
X0091476Y0115124D01*
X0091375Y0115150D01*
X0091274Y0115181D01*
X0091175Y0115215D01*
X0091077Y0115253D01*
X0090981Y0115295D01*
X0090887Y0115340D01*
X0090794Y0115389D01*
X0090703Y0115442D01*
X0090614Y0115498D01*
X0090527Y0115557D01*
X0090443Y0115620D01*
X0090361Y0115685D01*
X0090282Y0115754D01*
X0090205Y0115826D01*
X0090131Y0115900D01*
X0090060Y0115977D01*
X0089992Y0116057D01*
X0089928Y0116140D01*
X0089866Y0116225D01*
X0089808Y0116312D01*
X0089752Y0116401D01*
X0089701Y0116493D01*
X0089653Y0116586D01*
X0089608Y0116681D01*
X0089567Y0116778D01*
X0089530Y0116876D01*
X0089497Y0116975D01*
X0089467Y0117076D01*
X0089442Y0117178D01*
X0089420Y0117280D01*
X0089402Y0117384D01*
X0089388Y0117488D01*
X0089378Y0117592D01*
X0089372Y0117697D01*
X0089370Y0117802D01*
D11*
X0080402Y0046303D02*
X0078401Y0046303D01*
X0077733Y0045636D01*
X0077733Y0044969D01*
X0078401Y0044302D01*
X0080402Y0044302D01*
X0080402Y0046303D02*
X0080402Y0042300D01*
X0078401Y0042300D01*
X0077733Y0042967D01*
X0077733Y0043634D01*
X0078401Y0044302D01*
X0075798Y0044302D02*
X0075798Y0042967D01*
X0075131Y0042300D01*
X0073797Y0042300D01*
X0073129Y0042967D01*
X0073129Y0044302D01*
X0073797Y0044969D01*
X0075131Y0044969D01*
X0075798Y0044302D01*
X0071194Y0044969D02*
X0069860Y0044969D01*
X0070527Y0045636D02*
X0070527Y0042967D01*
X0069860Y0042300D01*
D12*
X0075902Y0184200D02*
X0075902Y0189400D01*
X0085902Y0189400D02*
X0085902Y0184200D01*
X0095902Y0184200D02*
X0095902Y0189400D01*
X0105902Y0189400D02*
X0105902Y0184200D01*
X0115902Y0184200D02*
X0115902Y0189400D01*
X0125902Y0189400D02*
X0125902Y0184200D01*
X0135902Y0184200D02*
X0135902Y0189400D01*
X0145902Y0189400D02*
X0145902Y0184200D01*
X0155902Y0184200D02*
X0155902Y0189400D01*
X0165902Y0189400D02*
X0165902Y0184200D01*
X0175902Y0184200D02*
X0175902Y0189400D01*
X0185902Y0189400D02*
X0185902Y0184200D01*
X0195902Y0184200D02*
X0195902Y0189400D01*
X0205902Y0189400D02*
X0205902Y0184200D01*
X0205902Y0214200D02*
X0205902Y0219400D01*
X0195902Y0219400D02*
X0195902Y0214200D01*
X0185902Y0214200D02*
X0185902Y0219400D01*
X0175902Y0219400D02*
X0175902Y0214200D01*
X0165902Y0214200D02*
X0165902Y0219400D01*
X0155902Y0219400D02*
X0155902Y0214200D01*
X0145902Y0214200D02*
X0145902Y0219400D01*
X0135902Y0219400D02*
X0135902Y0214200D01*
X0125902Y0214200D02*
X0125902Y0219400D01*
X0115902Y0219400D02*
X0115902Y0214200D01*
X0105902Y0214200D02*
X0105902Y0219400D01*
X0095902Y0219400D02*
X0095902Y0214200D01*
X0085902Y0214200D02*
X0085902Y0219400D01*
X0075902Y0219400D02*
X0075902Y0214200D01*
D13*
X0115902Y0150540D03*
X0115902Y0143060D03*
X0130902Y0140540D03*
X0130902Y0133060D03*
X0130902Y0110540D03*
X0130902Y0103060D03*
X0145902Y0103060D03*
X0145902Y0110540D03*
X0170902Y0128060D03*
X0170902Y0135540D03*
X0180902Y0158060D03*
X0180902Y0165540D03*
X0245902Y0183060D03*
X0245902Y0190540D03*
X0265902Y0160540D03*
X0265902Y0153060D03*
X0265902Y0140540D03*
X0265902Y0133060D03*
X0245902Y0135540D03*
X0245902Y0128060D03*
X0280902Y0115540D03*
X0280902Y0108060D03*
X0205902Y0080540D03*
X0205902Y0073060D03*
X0205902Y0055540D03*
X0205902Y0048060D03*
X0205902Y0025540D03*
X0205902Y0018060D03*
X0130902Y0058060D03*
X0130902Y0065540D03*
X0175902Y0233060D03*
X0175902Y0240540D03*
X0195902Y0240540D03*
X0195902Y0233060D03*
X0390902Y0055540D03*
X0390902Y0048060D03*
D14*
X0364642Y0021800D03*
X0357162Y0021800D03*
X0344642Y0021800D03*
X0337162Y0021800D03*
X0337162Y0076800D03*
X0344642Y0076800D03*
X0319642Y0106800D03*
X0312162Y0106800D03*
X0312162Y0116800D03*
X0319642Y0116800D03*
X0319642Y0126800D03*
X0312162Y0126800D03*
X0244642Y0161800D03*
X0237162Y0161800D03*
X0189642Y0146800D03*
X0182162Y0146800D03*
X0149642Y0171800D03*
X0142162Y0171800D03*
X0129642Y0171800D03*
X0122162Y0171800D03*
X0132162Y0156800D03*
X0139642Y0156800D03*
X0162162Y0111800D03*
X0169642Y0111800D03*
X0139642Y0046800D03*
X0132162Y0046800D03*
X0227162Y0016800D03*
X0234642Y0016800D03*
X0164642Y0231800D03*
X0157162Y0231800D03*
X0144642Y0231800D03*
X0137162Y0231800D03*
X0139642Y0246800D03*
X0132162Y0246800D03*
X0152162Y0246800D03*
X0159642Y0246800D03*
X0212162Y0236800D03*
X0219642Y0236800D03*
D15*
X0210902Y0161643D03*
X0210902Y0141957D03*
D16*
X0158579Y0261800D03*
X0143225Y0261800D03*
D17*
X0392223Y0121761D03*
X0392223Y0091839D03*
D18*
X0361515Y0106800D03*
D19*
X0390548Y0021485D03*
X0075587Y0021485D03*
X0075587Y0257706D03*
X0390548Y0257706D03*
D20*
X0265902Y0188493D03*
X0255902Y0200107D03*
X0255902Y0213493D03*
X0265902Y0175107D03*
D21*
X0265902Y0109280D03*
X0265902Y0094320D03*
D22*
X0270058Y0092329D02*
X0270058Y0090984D01*
X0269971Y0090897D01*
X0275547Y0090897D01*
X0275836Y0091186D01*
X0276824Y0091595D01*
X0277894Y0091595D01*
X0278882Y0091186D01*
X0279639Y0090429D01*
X0280048Y0089441D01*
X0280048Y0088371D01*
X0279639Y0087383D01*
X0278882Y0086627D01*
X0277894Y0086217D01*
X0276824Y0086217D01*
X0275836Y0086627D01*
X0275547Y0086916D01*
X0259975Y0086916D01*
X0240782Y0067723D01*
X0235372Y0067723D01*
X0235083Y0067434D01*
X0234095Y0067024D01*
X0233025Y0067024D01*
X0232037Y0067434D01*
X0231280Y0068190D01*
X0230871Y0069179D01*
X0230871Y0070248D01*
X0231280Y0071237D01*
X0232037Y0071993D01*
X0233025Y0072402D01*
X0234095Y0072402D01*
X0235066Y0072000D01*
X0234808Y0072623D01*
X0234808Y0073693D01*
X0235217Y0074681D01*
X0235974Y0075438D01*
X0236962Y0075847D01*
X0237371Y0075847D01*
X0241698Y0080174D01*
X0241698Y0080583D01*
X0242107Y0081571D01*
X0242863Y0082328D01*
X0243300Y0082509D01*
X0242863Y0082690D01*
X0242107Y0083446D01*
X0241698Y0084434D01*
X0241698Y0084843D01*
X0234704Y0091837D01*
X0207853Y0091837D01*
X0231121Y0068569D01*
X0231121Y0049869D01*
X0246687Y0034302D01*
X0259799Y0034302D01*
X0260088Y0034591D01*
X0261076Y0035001D01*
X0262146Y0035001D01*
X0263134Y0034591D01*
X0263890Y0033835D01*
X0264300Y0032847D01*
X0264300Y0031777D01*
X0263890Y0030789D01*
X0263134Y0030032D01*
X0262146Y0029623D01*
X0261076Y0029623D01*
X0260088Y0030032D01*
X0259799Y0030321D01*
X0245038Y0030321D01*
X0228306Y0047054D01*
X0228086Y0047274D01*
X0228086Y0021153D01*
X0230301Y0021153D01*
X0230626Y0020828D01*
X0230643Y0020858D01*
X0230978Y0021193D01*
X0231389Y0021430D01*
X0231846Y0021553D01*
X0234163Y0021553D01*
X0234163Y0017280D01*
X0235122Y0017280D01*
X0235122Y0021553D01*
X0237438Y0021553D01*
X0237896Y0021430D01*
X0238307Y0021193D01*
X0238642Y0020858D01*
X0238879Y0020448D01*
X0239001Y0019990D01*
X0239001Y0017280D01*
X0235122Y0017280D01*
X0235122Y0016320D01*
X0235122Y0012047D01*
X0237438Y0012047D01*
X0237896Y0012170D01*
X0238307Y0012407D01*
X0238642Y0012742D01*
X0238879Y0013152D01*
X0239001Y0013610D01*
X0239001Y0016320D01*
X0235122Y0016320D01*
X0234163Y0016320D01*
X0234163Y0012047D01*
X0231846Y0012047D01*
X0231389Y0012170D01*
X0230978Y0012407D01*
X0230643Y0012742D01*
X0230626Y0012772D01*
X0230301Y0012447D01*
X0224177Y0012447D01*
X0224028Y0012088D01*
X0223272Y0011331D01*
X0222284Y0010922D01*
X0221214Y0010922D01*
X0220225Y0011331D01*
X0219469Y0012088D01*
X0219060Y0013076D01*
X0219060Y0014146D01*
X0219469Y0015134D01*
X0220225Y0015891D01*
X0220923Y0016180D01*
X0223159Y0018415D01*
X0223203Y0018459D01*
X0223203Y0020333D01*
X0223286Y0020415D01*
X0223286Y0061337D01*
X0210255Y0074368D01*
X0210255Y0069921D01*
X0209435Y0069101D01*
X0205250Y0069101D01*
X0192449Y0056300D01*
X0192449Y0055891D01*
X0192040Y0054903D01*
X0191284Y0054146D01*
X0190295Y0053737D01*
X0189226Y0053737D01*
X0188237Y0054146D01*
X0187481Y0054903D01*
X0187072Y0055891D01*
X0187072Y0056961D01*
X0187481Y0057949D01*
X0188237Y0058706D01*
X0189226Y0059115D01*
X0189634Y0059115D01*
X0201549Y0071030D01*
X0201549Y0076199D01*
X0202151Y0076800D01*
X0201549Y0077401D01*
X0201549Y0078108D01*
X0179309Y0055868D01*
X0178427Y0055502D01*
X0135255Y0055502D01*
X0135255Y0054921D01*
X0134435Y0054101D01*
X0133597Y0054101D01*
X0133597Y0051153D01*
X0135301Y0051153D01*
X0135902Y0050552D01*
X0136503Y0051153D01*
X0142781Y0051153D01*
X0143601Y0050333D01*
X0143601Y0045853D01*
X0165772Y0023682D01*
X0166181Y0023682D01*
X0167170Y0023273D01*
X0167926Y0022516D01*
X0168335Y0021528D01*
X0168335Y0020458D01*
X0167926Y0019470D01*
X0167170Y0018713D01*
X0166181Y0018304D01*
X0165111Y0018304D01*
X0164123Y0018713D01*
X0163367Y0019470D01*
X0162957Y0020458D01*
X0162957Y0020867D01*
X0141377Y0042447D01*
X0136503Y0042447D01*
X0135902Y0043048D01*
X0135301Y0042447D01*
X0129023Y0042447D01*
X0128203Y0043267D01*
X0128203Y0049800D01*
X0128202Y0049800D01*
X0127214Y0050209D01*
X0126457Y0050966D01*
X0126048Y0051954D01*
X0126048Y0053024D01*
X0126457Y0054012D01*
X0126958Y0054513D01*
X0126549Y0054921D01*
X0126549Y0061199D01*
X0126874Y0061523D01*
X0126844Y0061541D01*
X0126509Y0061876D01*
X0126272Y0062286D01*
X0126149Y0062744D01*
X0126149Y0065061D01*
X0130423Y0065061D01*
X0130423Y0066020D01*
X0130423Y0069899D01*
X0127712Y0069899D01*
X0127255Y0069777D01*
X0126844Y0069540D01*
X0126509Y0069204D01*
X0126272Y0068794D01*
X0126149Y0068336D01*
X0126149Y0066020D01*
X0130423Y0066020D01*
X0131382Y0066020D01*
X0131382Y0069899D01*
X0134092Y0069899D01*
X0134550Y0069777D01*
X0134960Y0069540D01*
X0135295Y0069204D01*
X0135532Y0068794D01*
X0135655Y0068336D01*
X0135655Y0066020D01*
X0131382Y0066020D01*
X0131382Y0065061D01*
X0135655Y0065061D01*
X0135655Y0062744D01*
X0135532Y0062286D01*
X0135295Y0061876D01*
X0134960Y0061541D01*
X0134930Y0061523D01*
X0135255Y0061199D01*
X0135255Y0060302D01*
X0176955Y0060302D01*
X0187329Y0070676D01*
X0108227Y0070676D01*
X0107061Y0071842D01*
X0065723Y0113180D01*
X0065723Y0189632D01*
X0066889Y0190798D01*
X0072794Y0196704D01*
X0078380Y0196704D01*
X0079546Y0195538D01*
X0080042Y0195042D01*
X0079788Y0195655D01*
X0079788Y0196725D01*
X0080197Y0197713D01*
X0080954Y0198469D01*
X0081942Y0198879D01*
X0082351Y0198879D01*
X0090821Y0207349D01*
X0091987Y0208515D01*
X0144153Y0208515D01*
X0145838Y0210200D01*
X0145107Y0210200D01*
X0143636Y0210809D01*
X0142511Y0211934D01*
X0141902Y0213404D01*
X0141902Y0220196D01*
X0142494Y0221625D01*
X0142494Y0227447D01*
X0141503Y0227447D01*
X0141179Y0227772D01*
X0141161Y0227742D01*
X0140826Y0227407D01*
X0140416Y0227170D01*
X0139958Y0227047D01*
X0137642Y0227047D01*
X0137642Y0231320D01*
X0136683Y0231320D01*
X0136683Y0227047D01*
X0134366Y0227047D01*
X0133908Y0227170D01*
X0133498Y0227407D01*
X0133163Y0227742D01*
X0132926Y0228152D01*
X0132803Y0228610D01*
X0132803Y0231320D01*
X0136682Y0231320D01*
X0136682Y0232280D01*
X0132803Y0232280D01*
X0132803Y0232874D01*
X0119902Y0219973D01*
X0119902Y0213404D01*
X0119293Y0211934D01*
X0118168Y0210809D01*
X0116698Y0210200D01*
X0115107Y0210200D01*
X0113636Y0210809D01*
X0112511Y0211934D01*
X0111902Y0213404D01*
X0111902Y0220196D01*
X0112511Y0221666D01*
X0113636Y0222791D01*
X0115107Y0223400D01*
X0116698Y0223400D01*
X0117406Y0223107D01*
X0132834Y0238535D01*
X0137573Y0238535D01*
X0137573Y0242447D01*
X0136503Y0242447D01*
X0136179Y0242772D01*
X0136161Y0242742D01*
X0135826Y0242407D01*
X0135416Y0242170D01*
X0134958Y0242047D01*
X0132642Y0242047D01*
X0132642Y0246320D01*
X0131683Y0246320D01*
X0131683Y0242047D01*
X0129366Y0242047D01*
X0128908Y0242170D01*
X0128498Y0242407D01*
X0128163Y0242742D01*
X0127926Y0243152D01*
X0127803Y0243610D01*
X0127803Y0246320D01*
X0131682Y0246320D01*
X0131682Y0247280D01*
X0131683Y0247280D02*
X0131683Y0251553D01*
X0129366Y0251553D01*
X0128908Y0251430D01*
X0128498Y0251193D01*
X0128163Y0250858D01*
X0127926Y0250448D01*
X0127803Y0249990D01*
X0127803Y0247280D01*
X0131682Y0247280D01*
X0131683Y0247280D02*
X0132642Y0247280D01*
X0132642Y0251553D01*
X0134958Y0251553D01*
X0135416Y0251430D01*
X0135826Y0251193D01*
X0136161Y0250858D01*
X0136179Y0250828D01*
X0136503Y0251153D01*
X0142781Y0251153D01*
X0143601Y0250333D01*
X0143601Y0243267D01*
X0142781Y0242447D01*
X0141554Y0242447D01*
X0141554Y0239519D01*
X0153496Y0239519D01*
X0153115Y0240438D01*
X0153115Y0241508D01*
X0153338Y0242047D01*
X0152642Y0242047D01*
X0152642Y0246320D01*
X0151683Y0246320D01*
X0151683Y0242047D01*
X0149366Y0242047D01*
X0148908Y0242170D01*
X0148498Y0242407D01*
X0148163Y0242742D01*
X0147926Y0243152D01*
X0147803Y0243610D01*
X0147803Y0246320D01*
X0151682Y0246320D01*
X0151682Y0247280D01*
X0151683Y0247280D02*
X0151683Y0251553D01*
X0149366Y0251553D01*
X0148908Y0251430D01*
X0148498Y0251193D01*
X0148163Y0250858D01*
X0147926Y0250448D01*
X0147803Y0249990D01*
X0147803Y0247280D01*
X0151682Y0247280D01*
X0151683Y0247280D02*
X0152642Y0247280D01*
X0152642Y0251553D01*
X0154958Y0251553D01*
X0155416Y0251430D01*
X0155826Y0251193D01*
X0156161Y0250858D01*
X0156179Y0250828D01*
X0156503Y0251153D01*
X0157258Y0251153D01*
X0157258Y0253707D01*
X0154259Y0253707D01*
X0153439Y0254527D01*
X0153439Y0269073D01*
X0154259Y0269893D01*
X0162899Y0269893D01*
X0163720Y0269073D01*
X0163720Y0254527D01*
X0162899Y0253707D01*
X0161239Y0253707D01*
X0161239Y0251153D01*
X0162781Y0251153D01*
X0163601Y0250333D01*
X0163601Y0245188D01*
X0178420Y0260006D01*
X0178420Y0260006D01*
X0179586Y0261172D01*
X0259975Y0261172D01*
X0261141Y0260006D01*
X0261141Y0236876D01*
X0272564Y0225454D01*
X0272973Y0225454D01*
X0273961Y0225044D01*
X0274717Y0224288D01*
X0275127Y0223299D01*
X0275127Y0222230D01*
X0274717Y0221241D01*
X0273961Y0220485D01*
X0272973Y0220076D01*
X0271903Y0220076D01*
X0270914Y0220485D01*
X0270158Y0221241D01*
X0269749Y0222230D01*
X0269749Y0222638D01*
X0258326Y0234061D01*
X0257160Y0235227D01*
X0257160Y0253429D01*
X0256240Y0253048D01*
X0255170Y0253048D01*
X0254182Y0253457D01*
X0253893Y0253746D01*
X0203380Y0253746D01*
X0194133Y0244499D01*
X0199435Y0244499D01*
X0199986Y0243948D01*
X0224050Y0243948D01*
X0225216Y0242782D01*
X0232105Y0235892D01*
X0232105Y0204400D01*
X0232394Y0204111D01*
X0232790Y0203156D01*
X0237967Y0208333D01*
X0237967Y0213570D01*
X0237678Y0213859D01*
X0237268Y0214848D01*
X0237268Y0215918D01*
X0237678Y0216906D01*
X0238434Y0217662D01*
X0239422Y0218072D01*
X0240492Y0218072D01*
X0241481Y0217662D01*
X0241494Y0217648D01*
X0241494Y0221040D01*
X0241205Y0221738D01*
X0241205Y0222807D01*
X0241586Y0223727D01*
X0237164Y0223727D01*
X0235998Y0224893D01*
X0235998Y0243590D01*
X0235709Y0243879D01*
X0235300Y0244867D01*
X0235300Y0245937D01*
X0235709Y0246926D01*
X0236466Y0247682D01*
X0237454Y0248091D01*
X0238524Y0248091D01*
X0239512Y0247682D01*
X0240268Y0246926D01*
X0240678Y0245937D01*
X0240678Y0244867D01*
X0240268Y0243879D01*
X0239979Y0243590D01*
X0239979Y0227708D01*
X0246195Y0227708D01*
X0256254Y0217649D01*
X0259482Y0217649D01*
X0251642Y0225489D01*
X0251233Y0225489D01*
X0250245Y0225898D01*
X0249489Y0226655D01*
X0249079Y0227643D01*
X0249079Y0228713D01*
X0249489Y0229701D01*
X0250245Y0230458D01*
X0251233Y0230867D01*
X0252303Y0230867D01*
X0253292Y0230458D01*
X0254048Y0229701D01*
X0254457Y0228713D01*
X0254457Y0228304D01*
X0270802Y0211960D01*
X0295232Y0211960D01*
X0295521Y0212249D01*
X0296509Y0212658D01*
X0297579Y0212658D01*
X0298567Y0212249D01*
X0299324Y0211492D01*
X0299733Y0210504D01*
X0299733Y0209434D01*
X0299324Y0208446D01*
X0298567Y0207690D01*
X0297579Y0207280D01*
X0296509Y0207280D01*
X0295521Y0207690D01*
X0295232Y0207979D01*
X0272322Y0207979D01*
X0298361Y0181940D01*
X0355447Y0181940D01*
X0356613Y0180774D01*
X0356717Y0180670D01*
X0357126Y0180670D01*
X0358114Y0180261D01*
X0358871Y0179504D01*
X0359280Y0178516D01*
X0359280Y0177446D01*
X0358871Y0176458D01*
X0358857Y0176444D01*
X0366678Y0176444D01*
X0367375Y0176733D01*
X0368445Y0176733D01*
X0369433Y0176324D01*
X0370190Y0175567D01*
X0370599Y0174579D01*
X0370599Y0173509D01*
X0370190Y0172521D01*
X0369433Y0171764D01*
X0368445Y0171355D01*
X0367375Y0171355D01*
X0366678Y0171644D01*
X0299027Y0171644D01*
X0298145Y0172009D01*
X0297470Y0172685D01*
X0273904Y0196250D01*
X0269782Y0196250D01*
X0269796Y0196237D01*
X0270205Y0195248D01*
X0270205Y0194179D01*
X0269796Y0193190D01*
X0269255Y0192649D01*
X0270025Y0192649D01*
X0270846Y0191829D01*
X0270846Y0185157D01*
X0270025Y0184337D01*
X0265455Y0184337D01*
X0259258Y0178140D01*
X0258969Y0177442D01*
X0258213Y0176686D01*
X0257224Y0176276D01*
X0256155Y0176276D01*
X0255166Y0176686D01*
X0254410Y0177442D01*
X0254001Y0178430D01*
X0254001Y0178788D01*
X0247279Y0172066D01*
X0247279Y0166153D01*
X0247781Y0166153D01*
X0248601Y0165333D01*
X0248601Y0158810D01*
X0249467Y0158810D01*
X0261453Y0170796D01*
X0261254Y0170911D01*
X0260919Y0171246D01*
X0260682Y0171656D01*
X0260559Y0172114D01*
X0260559Y0174529D01*
X0265324Y0174529D01*
X0265324Y0175685D01*
X0260559Y0175685D01*
X0260559Y0178100D01*
X0260682Y0178558D01*
X0260919Y0178968D01*
X0261254Y0179303D01*
X0261664Y0179540D01*
X0262122Y0179663D01*
X0265324Y0179663D01*
X0265324Y0175685D01*
X0266480Y0175685D01*
X0266480Y0179663D01*
X0269683Y0179663D01*
X0270140Y0179540D01*
X0270551Y0179303D01*
X0270886Y0178968D01*
X0271123Y0178558D01*
X0271246Y0178100D01*
X0271246Y0175685D01*
X0266480Y0175685D01*
X0266480Y0174529D01*
X0271246Y0174529D01*
X0271246Y0172114D01*
X0271241Y0172098D01*
X0282436Y0172098D01*
X0282725Y0172387D01*
X0283714Y0172796D01*
X0284784Y0172796D01*
X0285772Y0172387D01*
X0286528Y0171630D01*
X0286938Y0170642D01*
X0286938Y0169572D01*
X0286528Y0168584D01*
X0285772Y0167827D01*
X0284784Y0167418D01*
X0283714Y0167418D01*
X0282725Y0167827D01*
X0282436Y0168117D01*
X0278191Y0168117D01*
X0278572Y0167197D01*
X0278572Y0166127D01*
X0278162Y0165139D01*
X0277406Y0164383D01*
X0276417Y0163973D01*
X0275348Y0163973D01*
X0274359Y0164383D01*
X0274070Y0164672D01*
X0264404Y0164672D01*
X0264231Y0164499D01*
X0269435Y0164499D01*
X0270255Y0163679D01*
X0270255Y0162665D01*
X0271439Y0162665D01*
X0272321Y0162299D01*
X0272940Y0161680D01*
X0287187Y0161680D01*
X0288069Y0161315D01*
X0288744Y0160640D01*
X0289109Y0159758D01*
X0289109Y0158803D01*
X0288744Y0157921D01*
X0288617Y0157794D01*
X0288617Y0145749D01*
X0288906Y0145051D01*
X0288906Y0143982D01*
X0288497Y0142993D01*
X0287740Y0142237D01*
X0286752Y0141828D01*
X0285682Y0141828D01*
X0284694Y0142237D01*
X0283938Y0142993D01*
X0283528Y0143982D01*
X0283528Y0145051D01*
X0283817Y0145749D01*
X0283817Y0156880D01*
X0271468Y0156880D01*
X0270586Y0157246D01*
X0270255Y0157577D01*
X0270255Y0157401D01*
X0269930Y0157077D01*
X0269960Y0157059D01*
X0270295Y0156724D01*
X0270532Y0156314D01*
X0270655Y0155856D01*
X0270655Y0153539D01*
X0266382Y0153539D01*
X0266382Y0152580D01*
X0270655Y0152580D01*
X0270655Y0150264D01*
X0270532Y0149806D01*
X0270295Y0149396D01*
X0269960Y0149060D01*
X0269550Y0148823D01*
X0269092Y0148701D01*
X0266382Y0148701D01*
X0266382Y0152580D01*
X0265423Y0152580D01*
X0265423Y0148701D01*
X0262712Y0148701D01*
X0262255Y0148823D01*
X0261844Y0149060D01*
X0261509Y0149396D01*
X0261272Y0149806D01*
X0261149Y0150264D01*
X0261149Y0152580D01*
X0265423Y0152580D01*
X0265423Y0153539D01*
X0261149Y0153539D01*
X0261149Y0155856D01*
X0261272Y0156314D01*
X0261509Y0156724D01*
X0261844Y0157059D01*
X0261874Y0157077D01*
X0261549Y0157401D01*
X0261549Y0161817D01*
X0252981Y0153249D01*
X0252981Y0152840D01*
X0252572Y0151852D01*
X0251815Y0151095D01*
X0250827Y0150686D01*
X0249757Y0150686D01*
X0248769Y0151095D01*
X0248346Y0151518D01*
X0248346Y0139499D01*
X0249435Y0139499D01*
X0250255Y0138679D01*
X0250255Y0132401D01*
X0249654Y0131800D01*
X0250255Y0131199D01*
X0250255Y0130267D01*
X0253704Y0130267D01*
X0253918Y0130784D01*
X0254674Y0131540D01*
X0255663Y0131950D01*
X0256732Y0131950D01*
X0257721Y0131540D01*
X0258477Y0130784D01*
X0258886Y0129795D01*
X0258886Y0128726D01*
X0258477Y0127737D01*
X0257721Y0126981D01*
X0256732Y0126572D01*
X0256324Y0126572D01*
X0256038Y0126286D01*
X0250255Y0126286D01*
X0250255Y0124921D01*
X0249435Y0124101D01*
X0242370Y0124101D01*
X0241549Y0124921D01*
X0241549Y0131199D01*
X0242151Y0131800D01*
X0241549Y0132401D01*
X0241549Y0138679D01*
X0242370Y0139499D01*
X0244364Y0139499D01*
X0244364Y0156848D01*
X0228212Y0140696D01*
X0228212Y0140696D01*
X0227537Y0140021D01*
X0226655Y0139656D01*
X0220176Y0139656D01*
X0220176Y0138633D01*
X0226018Y0138633D01*
X0241766Y0122885D01*
X0242086Y0122885D01*
X0243070Y0123869D01*
X0258818Y0123869D01*
X0259802Y0124854D01*
X0266688Y0124854D01*
X0266977Y0125143D01*
X0267966Y0125552D01*
X0268899Y0125552D01*
X0268190Y0126261D01*
X0267780Y0127249D01*
X0267780Y0127658D01*
X0266338Y0129101D01*
X0262370Y0129101D01*
X0261549Y0129921D01*
X0261549Y0136199D01*
X0262151Y0136800D01*
X0261549Y0137401D01*
X0261549Y0143679D01*
X0262370Y0144499D01*
X0269435Y0144499D01*
X0270255Y0143679D01*
X0270255Y0143184D01*
X0270914Y0143843D01*
X0271903Y0144253D01*
X0272973Y0144253D01*
X0273961Y0143843D01*
X0274717Y0143087D01*
X0275127Y0142099D01*
X0275127Y0141029D01*
X0274717Y0140041D01*
X0273961Y0139284D01*
X0272973Y0138875D01*
X0272564Y0138875D01*
X0272278Y0138589D01*
X0270255Y0138589D01*
X0270255Y0137401D01*
X0269654Y0136800D01*
X0270255Y0136199D01*
X0270255Y0130813D01*
X0270595Y0130473D01*
X0271004Y0130473D01*
X0271992Y0130064D01*
X0272749Y0129307D01*
X0273158Y0128319D01*
X0273158Y0127249D01*
X0272749Y0126261D01*
X0271992Y0125505D01*
X0271004Y0125095D01*
X0270071Y0125095D01*
X0270780Y0124386D01*
X0271031Y0123780D01*
X0271121Y0123869D01*
X0271121Y0123869D01*
X0283528Y0136276D01*
X0283528Y0136685D01*
X0283938Y0137674D01*
X0284694Y0138430D01*
X0285682Y0138839D01*
X0286752Y0138839D01*
X0287740Y0138430D01*
X0288497Y0137674D01*
X0288892Y0136719D01*
X0306658Y0154485D01*
X0306658Y0154894D01*
X0307068Y0155882D01*
X0307824Y0156639D01*
X0308812Y0157048D01*
X0309882Y0157048D01*
X0310870Y0156639D01*
X0311627Y0155882D01*
X0312036Y0154894D01*
X0312036Y0153824D01*
X0311627Y0152836D01*
X0310870Y0152079D01*
X0309882Y0151670D01*
X0309473Y0151670D01*
X0294468Y0136665D01*
X0317061Y0136665D01*
X0318227Y0135499D01*
X0321672Y0132054D01*
X0321672Y0131153D01*
X0322781Y0131153D01*
X0323601Y0130333D01*
X0323601Y0123267D01*
X0322781Y0122447D01*
X0321672Y0122447D01*
X0321672Y0121153D01*
X0322781Y0121153D01*
X0323601Y0120333D01*
X0323601Y0113267D01*
X0322781Y0112447D01*
X0316503Y0112447D01*
X0316179Y0112772D01*
X0316161Y0112742D01*
X0315826Y0112407D01*
X0315416Y0112170D01*
X0314958Y0112047D01*
X0312642Y0112047D01*
X0312642Y0116320D01*
X0311683Y0116320D01*
X0311683Y0112047D01*
X0309366Y0112047D01*
X0308908Y0112170D01*
X0308498Y0112407D01*
X0308163Y0112742D01*
X0307926Y0113152D01*
X0307803Y0113610D01*
X0307803Y0116320D01*
X0311682Y0116320D01*
X0311682Y0117280D01*
X0311683Y0117280D02*
X0311683Y0121553D01*
X0309366Y0121553D01*
X0308908Y0121430D01*
X0308498Y0121193D01*
X0308163Y0120858D01*
X0307926Y0120448D01*
X0307803Y0119990D01*
X0307803Y0117280D01*
X0311682Y0117280D01*
X0311683Y0117280D02*
X0312642Y0117280D01*
X0312642Y0121553D01*
X0314958Y0121553D01*
X0315416Y0121430D01*
X0315826Y0121193D01*
X0316161Y0120858D01*
X0316179Y0120828D01*
X0316503Y0121153D01*
X0317691Y0121153D01*
X0317691Y0122447D01*
X0316503Y0122447D01*
X0316179Y0122772D01*
X0316161Y0122742D01*
X0315826Y0122407D01*
X0315416Y0122170D01*
X0314958Y0122047D01*
X0312642Y0122047D01*
X0312642Y0126320D01*
X0311683Y0126320D01*
X0311683Y0122047D01*
X0309366Y0122047D01*
X0308908Y0122170D01*
X0308498Y0122407D01*
X0308163Y0122742D01*
X0307926Y0123152D01*
X0307803Y0123610D01*
X0307803Y0126320D01*
X0311682Y0126320D01*
X0311682Y0127280D01*
X0311683Y0127280D02*
X0311683Y0131553D01*
X0309366Y0131553D01*
X0308908Y0131430D01*
X0308498Y0131193D01*
X0308163Y0130858D01*
X0307926Y0130448D01*
X0307803Y0129990D01*
X0307803Y0127280D01*
X0311682Y0127280D01*
X0311683Y0127280D02*
X0312642Y0127280D01*
X0312642Y0131553D01*
X0314958Y0131553D01*
X0315416Y0131430D01*
X0315826Y0131193D01*
X0316161Y0130858D01*
X0316179Y0130828D01*
X0316503Y0131153D01*
X0316943Y0131153D01*
X0315412Y0132683D01*
X0295408Y0132683D01*
X0283434Y0120709D01*
X0283083Y0119863D01*
X0282794Y0119574D01*
X0282794Y0119499D01*
X0284435Y0119499D01*
X0285255Y0118679D01*
X0285255Y0112401D01*
X0284654Y0111800D01*
X0285255Y0111199D01*
X0285255Y0104987D01*
X0286239Y0104002D01*
X0306727Y0083515D01*
X0309011Y0083515D01*
X0309300Y0083804D01*
X0310289Y0084213D01*
X0311358Y0084213D01*
X0312347Y0083804D01*
X0313103Y0083048D01*
X0313512Y0082059D01*
X0313512Y0080990D01*
X0313103Y0080001D01*
X0312347Y0079245D01*
X0311358Y0078835D01*
X0310289Y0078835D01*
X0309300Y0079245D01*
X0309011Y0079534D01*
X0306771Y0079534D01*
X0311101Y0075203D01*
X0311497Y0076158D01*
X0312253Y0076914D01*
X0313241Y0077324D01*
X0314311Y0077324D01*
X0315299Y0076914D01*
X0316056Y0076158D01*
X0316465Y0075170D01*
X0316465Y0074761D01*
X0325428Y0065798D01*
X0326594Y0064632D01*
X0326594Y0038061D01*
X0326883Y0037772D01*
X0327278Y0036818D01*
X0334916Y0044455D01*
X0334916Y0064743D01*
X0334709Y0065241D01*
X0334709Y0066311D01*
X0334916Y0066809D01*
X0334916Y0072447D01*
X0334023Y0072447D01*
X0333203Y0073267D01*
X0333203Y0080333D01*
X0334023Y0081153D01*
X0340301Y0081153D01*
X0340902Y0080552D01*
X0341503Y0081153D01*
X0347781Y0081153D01*
X0348601Y0080333D01*
X0348601Y0073267D01*
X0347781Y0072447D01*
X0346833Y0072447D01*
X0347060Y0072221D01*
X0347469Y0071233D01*
X0347469Y0070163D01*
X0347060Y0069174D01*
X0346303Y0068418D01*
X0345315Y0068009D01*
X0344245Y0068009D01*
X0343257Y0068418D01*
X0342501Y0069174D01*
X0342091Y0070163D01*
X0342091Y0071233D01*
X0342501Y0072221D01*
X0342727Y0072447D01*
X0341503Y0072447D01*
X0340902Y0073048D01*
X0340301Y0072447D01*
X0338897Y0072447D01*
X0338897Y0068066D01*
X0338921Y0068056D01*
X0339678Y0067300D01*
X0340087Y0066311D01*
X0340087Y0065241D01*
X0339678Y0064253D01*
X0338921Y0063497D01*
X0338897Y0063487D01*
X0338897Y0042806D01*
X0337731Y0041640D01*
X0327292Y0031201D01*
X0327292Y0030793D01*
X0326883Y0029804D01*
X0326126Y0029048D01*
X0325138Y0028639D01*
X0324068Y0028639D01*
X0323080Y0029048D01*
X0322323Y0029804D01*
X0321914Y0030793D01*
X0321914Y0031862D01*
X0322323Y0032851D01*
X0323080Y0033607D01*
X0323517Y0033788D01*
X0323080Y0033969D01*
X0322323Y0034726D01*
X0321914Y0035714D01*
X0321914Y0036784D01*
X0322323Y0037772D01*
X0322612Y0038061D01*
X0322612Y0062983D01*
X0318420Y0067176D01*
X0318024Y0066222D01*
X0317268Y0065465D01*
X0316280Y0065056D01*
X0315210Y0065056D01*
X0314222Y0065465D01*
X0313465Y0066222D01*
X0313056Y0067210D01*
X0313056Y0067619D01*
X0288345Y0092329D01*
X0270058Y0092329D01*
X0270058Y0091317D02*
X0276151Y0091317D01*
X0278566Y0091317D02*
X0289358Y0091317D01*
X0290956Y0089718D02*
X0279933Y0089718D01*
X0279944Y0088120D02*
X0292555Y0088120D01*
X0294153Y0086521D02*
X0278627Y0086521D01*
X0276091Y0086521D02*
X0259580Y0086521D01*
X0257982Y0084923D02*
X0271052Y0084923D01*
X0271613Y0085483D02*
X0270447Y0084317D01*
X0265914Y0079784D01*
X0265013Y0079784D01*
X0264025Y0079375D01*
X0263268Y0078618D01*
X0263266Y0078613D01*
X0262573Y0077920D01*
X0253611Y0068957D01*
X0253202Y0068957D01*
X0252283Y0068577D01*
X0252283Y0071168D01*
X0252593Y0071168D01*
X0254847Y0073422D01*
X0255256Y0073422D01*
X0256244Y0073831D01*
X0257001Y0074588D01*
X0257410Y0075576D01*
X0257410Y0076646D01*
X0257001Y0077634D01*
X0256244Y0078391D01*
X0255256Y0078800D01*
X0254186Y0078800D01*
X0253198Y0078391D01*
X0252442Y0077634D01*
X0252032Y0076646D01*
X0252032Y0076237D01*
X0250944Y0075149D01*
X0249467Y0075149D01*
X0248301Y0073983D01*
X0248301Y0063968D01*
X0249467Y0062802D01*
X0251436Y0060833D01*
X0257160Y0060833D01*
X0257160Y0044459D01*
X0256871Y0044170D01*
X0256461Y0043181D01*
X0256461Y0042112D01*
X0256871Y0041123D01*
X0257627Y0040367D01*
X0258615Y0039957D01*
X0259685Y0039957D01*
X0260673Y0040367D01*
X0261430Y0041123D01*
X0261839Y0042112D01*
X0261839Y0043181D01*
X0261430Y0044170D01*
X0261141Y0044459D01*
X0261141Y0061999D01*
X0261141Y0063648D01*
X0259975Y0064814D01*
X0256045Y0064814D01*
X0256426Y0065734D01*
X0256426Y0066142D01*
X0264784Y0074501D01*
X0265013Y0074406D01*
X0266083Y0074406D01*
X0267071Y0074816D01*
X0267827Y0075572D01*
X0268178Y0076418D01*
X0273262Y0081502D01*
X0285885Y0081502D01*
X0312684Y0054704D01*
X0309507Y0051527D01*
X0305078Y0051527D01*
X0303912Y0050361D01*
X0303912Y0038061D01*
X0303623Y0037772D01*
X0303213Y0036784D01*
X0303213Y0035714D01*
X0303623Y0034726D01*
X0304379Y0033969D01*
X0305333Y0033574D01*
X0285599Y0013839D01*
X0285190Y0013839D01*
X0284202Y0013430D01*
X0283445Y0012674D01*
X0283036Y0011685D01*
X0283036Y0011328D01*
X0280912Y0013452D01*
X0280623Y0014150D01*
X0279866Y0014906D01*
X0278878Y0015316D01*
X0277808Y0015316D01*
X0276820Y0014906D01*
X0276064Y0014150D01*
X0275654Y0013162D01*
X0275654Y0012092D01*
X0276064Y0011104D01*
X0276820Y0010347D01*
X0277518Y0010058D01*
X0282397Y0005179D01*
X0283279Y0004813D01*
X0288171Y0004813D01*
X0289053Y0005179D01*
X0289728Y0005854D01*
X0303451Y0019577D01*
X0333203Y0019577D01*
X0333203Y0018267D01*
X0334023Y0017447D01*
X0340301Y0017447D01*
X0340902Y0018048D01*
X0341503Y0017447D01*
X0347781Y0017447D01*
X0348601Y0018267D01*
X0348601Y0022983D01*
X0352987Y0027369D01*
X0357243Y0027369D01*
X0358459Y0026153D01*
X0354023Y0026153D01*
X0353203Y0025333D01*
X0353203Y0018267D01*
X0354023Y0017447D01*
X0355585Y0017447D01*
X0355585Y0017392D01*
X0355296Y0017103D01*
X0354886Y0016114D01*
X0354886Y0015045D01*
X0355296Y0014056D01*
X0356052Y0013300D01*
X0357041Y0012891D01*
X0358110Y0012891D01*
X0359099Y0013300D01*
X0359855Y0014056D01*
X0360264Y0015045D01*
X0360264Y0016114D01*
X0359855Y0017103D01*
X0359566Y0017392D01*
X0359566Y0017447D01*
X0360301Y0017447D01*
X0360902Y0018048D01*
X0361503Y0017447D01*
X0367781Y0017447D01*
X0368601Y0018267D01*
X0368601Y0025333D01*
X0367781Y0026153D01*
X0367522Y0026153D01*
X0367729Y0026359D01*
X0368138Y0027348D01*
X0368138Y0028418D01*
X0367729Y0029406D01*
X0366973Y0030162D01*
X0365984Y0030572D01*
X0364915Y0030572D01*
X0363926Y0030162D01*
X0363170Y0029406D01*
X0362760Y0028418D01*
X0362760Y0027481D01*
X0358892Y0031350D01*
X0351338Y0031350D01*
X0350172Y0030184D01*
X0346141Y0026153D01*
X0341503Y0026153D01*
X0340902Y0025552D01*
X0340301Y0026153D01*
X0339306Y0026153D01*
X0339306Y0027868D01*
X0339161Y0028219D01*
X0373323Y0062382D01*
X0381624Y0054082D01*
X0382299Y0053407D01*
X0383181Y0053042D01*
X0383410Y0053042D01*
X0384108Y0052753D01*
X0385177Y0052753D01*
X0385875Y0053042D01*
X0386549Y0053042D01*
X0386549Y0052401D01*
X0386874Y0052077D01*
X0386844Y0052059D01*
X0386509Y0051724D01*
X0386272Y0051314D01*
X0386149Y0050856D01*
X0386149Y0048539D01*
X0390423Y0048539D01*
X0390423Y0047580D01*
X0391382Y0047580D01*
X0391382Y0048539D01*
X0395655Y0048539D01*
X0395655Y0050856D01*
X0395532Y0051314D01*
X0395295Y0051724D01*
X0394960Y0052059D01*
X0394930Y0052077D01*
X0395255Y0052401D01*
X0395255Y0058679D01*
X0394435Y0059499D01*
X0387370Y0059499D01*
X0386549Y0058679D01*
X0386549Y0057842D01*
X0385875Y0057842D01*
X0385177Y0058131D01*
X0384363Y0058131D01*
X0374683Y0067811D01*
X0373801Y0068176D01*
X0365698Y0068176D01*
X0365000Y0068465D01*
X0363930Y0068465D01*
X0362942Y0068056D01*
X0362186Y0067300D01*
X0361776Y0066311D01*
X0361776Y0065241D01*
X0362186Y0064253D01*
X0362942Y0063497D01*
X0363930Y0063087D01*
X0365000Y0063087D01*
X0365698Y0063376D01*
X0367529Y0063376D01*
X0335055Y0030902D01*
X0334379Y0030226D01*
X0334014Y0029344D01*
X0334014Y0029115D01*
X0333725Y0028418D01*
X0333725Y0027348D01*
X0334134Y0026359D01*
X0334341Y0026153D01*
X0334023Y0026153D01*
X0333203Y0025333D01*
X0333203Y0024377D01*
X0301980Y0024377D01*
X0301616Y0024226D01*
X0317061Y0039672D01*
X0318227Y0040838D01*
X0318227Y0042803D01*
X0318516Y0043092D01*
X0318926Y0044080D01*
X0318926Y0045150D01*
X0318516Y0046138D01*
X0317760Y0046895D01*
X0316772Y0047304D01*
X0315702Y0047304D01*
X0314714Y0046895D01*
X0313957Y0046138D01*
X0313548Y0045150D01*
X0313548Y0044080D01*
X0313957Y0043092D01*
X0314246Y0042803D01*
X0314246Y0042487D01*
X0308577Y0036818D01*
X0308182Y0037772D01*
X0307893Y0038061D01*
X0307893Y0047546D01*
X0311156Y0047546D01*
X0315871Y0052261D01*
X0316280Y0052261D01*
X0317268Y0052670D01*
X0318024Y0053426D01*
X0318434Y0054415D01*
X0318434Y0055484D01*
X0318024Y0056473D01*
X0317268Y0057229D01*
X0316280Y0057639D01*
X0315379Y0057639D01*
X0288700Y0084317D01*
X0288700Y0084317D01*
X0287534Y0085483D01*
X0271613Y0085483D01*
X0269454Y0083324D02*
X0256383Y0083324D01*
X0254785Y0081726D02*
X0267855Y0081726D01*
X0266257Y0080127D02*
X0253186Y0080127D01*
X0253531Y0078529D02*
X0251588Y0078529D01*
X0252150Y0076930D02*
X0249989Y0076930D01*
X0251127Y0075332D02*
X0248391Y0075332D01*
X0248301Y0073733D02*
X0246792Y0073733D01*
X0248301Y0072134D02*
X0245194Y0072134D01*
X0243595Y0070536D02*
X0248301Y0070536D01*
X0248301Y0068937D02*
X0241996Y0068937D01*
X0248301Y0067339D02*
X0234854Y0067339D01*
X0232265Y0067339D02*
X0231121Y0067339D01*
X0231121Y0065740D02*
X0248301Y0065740D01*
X0248301Y0064142D02*
X0231121Y0064142D01*
X0231121Y0062543D02*
X0249726Y0062543D01*
X0251324Y0060945D02*
X0242795Y0060945D01*
X0242461Y0061083D02*
X0241391Y0061083D01*
X0240403Y0060674D01*
X0239646Y0059918D01*
X0239237Y0058929D01*
X0239237Y0057860D01*
X0239646Y0056871D01*
X0240403Y0056115D01*
X0241391Y0055706D01*
X0241800Y0055706D01*
X0250556Y0046950D01*
X0250556Y0046541D01*
X0250965Y0045552D01*
X0251722Y0044796D01*
X0252710Y0044387D01*
X0253780Y0044387D01*
X0254768Y0044796D01*
X0255524Y0045552D01*
X0255934Y0046541D01*
X0255934Y0047610D01*
X0255524Y0048599D01*
X0254768Y0049355D01*
X0253780Y0049765D01*
X0253371Y0049765D01*
X0244615Y0058521D01*
X0244615Y0058929D01*
X0244205Y0059918D01*
X0243449Y0060674D01*
X0242461Y0061083D01*
X0241057Y0060945D02*
X0231121Y0060945D01*
X0231121Y0059346D02*
X0239410Y0059346D01*
X0239283Y0057748D02*
X0231121Y0057748D01*
X0231121Y0056149D02*
X0240368Y0056149D01*
X0242954Y0054551D02*
X0231121Y0054551D01*
X0231121Y0052952D02*
X0244553Y0052952D01*
X0246151Y0051354D02*
X0231121Y0051354D01*
X0231234Y0049755D02*
X0247750Y0049755D01*
X0249348Y0048157D02*
X0232833Y0048157D01*
X0234431Y0046558D02*
X0250556Y0046558D01*
X0251558Y0044960D02*
X0236030Y0044960D01*
X0237628Y0043361D02*
X0256536Y0043361D01*
X0256606Y0041763D02*
X0239227Y0041763D01*
X0240825Y0040164D02*
X0258116Y0040164D01*
X0260184Y0040164D02*
X0303912Y0040164D01*
X0303912Y0038566D02*
X0242424Y0038566D01*
X0244022Y0036967D02*
X0303289Y0036967D01*
X0303356Y0035369D02*
X0245621Y0035369D01*
X0243188Y0032172D02*
X0228086Y0032172D01*
X0228086Y0033770D02*
X0241589Y0033770D01*
X0239991Y0035369D02*
X0228086Y0035369D01*
X0228086Y0036967D02*
X0238392Y0036967D01*
X0236794Y0038566D02*
X0228086Y0038566D01*
X0228086Y0040164D02*
X0235195Y0040164D01*
X0233597Y0041763D02*
X0228086Y0041763D01*
X0228086Y0043361D02*
X0231998Y0043361D01*
X0230400Y0044960D02*
X0228086Y0044960D01*
X0228086Y0046558D02*
X0228801Y0046558D01*
X0223286Y0046558D02*
X0210255Y0046558D01*
X0210255Y0044960D02*
X0223286Y0044960D01*
X0223286Y0043361D02*
X0208401Y0043361D01*
X0208401Y0044101D02*
X0209435Y0044101D01*
X0210255Y0044921D01*
X0210255Y0051199D01*
X0209930Y0051523D01*
X0209960Y0051541D01*
X0210295Y0051876D01*
X0210532Y0052286D01*
X0210655Y0052744D01*
X0210655Y0055061D01*
X0206382Y0055061D01*
X0206382Y0056020D01*
X0205423Y0056020D01*
X0205423Y0059899D01*
X0202712Y0059899D01*
X0202255Y0059777D01*
X0201844Y0059540D01*
X0201509Y0059204D01*
X0201272Y0058794D01*
X0201149Y0058336D01*
X0201149Y0056020D01*
X0205423Y0056020D01*
X0205423Y0055061D01*
X0201149Y0055061D01*
X0201149Y0052744D01*
X0201272Y0052286D01*
X0201509Y0051876D01*
X0201844Y0051541D01*
X0201874Y0051523D01*
X0201549Y0051199D01*
X0201549Y0050952D01*
X0200597Y0050952D01*
X0199219Y0052330D01*
X0198930Y0053028D01*
X0198173Y0053784D01*
X0197185Y0054194D01*
X0196115Y0054194D01*
X0195127Y0053784D01*
X0194371Y0053028D01*
X0193961Y0052040D01*
X0193961Y0050970D01*
X0194371Y0049982D01*
X0195127Y0049225D01*
X0195825Y0048936D01*
X0198244Y0046517D01*
X0199126Y0046152D01*
X0201549Y0046152D01*
X0201549Y0044921D01*
X0202370Y0044101D01*
X0203601Y0044101D01*
X0203601Y0029499D01*
X0202370Y0029499D01*
X0201549Y0028679D01*
X0201549Y0022401D01*
X0201874Y0022077D01*
X0201844Y0022059D01*
X0201509Y0021724D01*
X0201272Y0021314D01*
X0201149Y0020856D01*
X0201149Y0018539D01*
X0205423Y0018539D01*
X0205423Y0017580D01*
X0206382Y0017580D01*
X0206382Y0018539D01*
X0210655Y0018539D01*
X0210655Y0020856D01*
X0210532Y0021314D01*
X0210295Y0021724D01*
X0209960Y0022059D01*
X0209930Y0022077D01*
X0210255Y0022401D01*
X0210255Y0028679D01*
X0209435Y0029499D01*
X0208401Y0029499D01*
X0208401Y0035376D01*
X0211798Y0031978D01*
X0212087Y0031281D01*
X0212844Y0030524D01*
X0213832Y0030115D01*
X0214902Y0030115D01*
X0215890Y0030524D01*
X0216646Y0031281D01*
X0217056Y0032269D01*
X0217056Y0033339D01*
X0216646Y0034327D01*
X0215890Y0035084D01*
X0215192Y0035373D01*
X0209020Y0041545D01*
X0208401Y0042164D01*
X0208401Y0044101D01*
X0208802Y0041763D02*
X0223286Y0041763D01*
X0223286Y0040164D02*
X0210401Y0040164D01*
X0211999Y0038566D02*
X0223286Y0038566D01*
X0223286Y0036967D02*
X0213598Y0036967D01*
X0215201Y0035369D02*
X0223286Y0035369D01*
X0223286Y0033770D02*
X0216877Y0033770D01*
X0217015Y0032172D02*
X0223286Y0032172D01*
X0223286Y0030573D02*
X0215939Y0030573D01*
X0212795Y0030573D02*
X0208401Y0030573D01*
X0208401Y0032172D02*
X0211605Y0032172D01*
X0210006Y0033770D02*
X0208401Y0033770D01*
X0208401Y0035369D02*
X0208408Y0035369D01*
X0203601Y0035369D02*
X0195024Y0035369D01*
X0194724Y0035493D02*
X0193655Y0035493D01*
X0192666Y0035084D01*
X0191910Y0034327D01*
X0191501Y0033339D01*
X0191501Y0032930D01*
X0185491Y0026920D01*
X0183699Y0026920D01*
X0183410Y0027210D01*
X0182421Y0027619D01*
X0181352Y0027619D01*
X0180363Y0027210D01*
X0179607Y0026453D01*
X0179198Y0025465D01*
X0179198Y0024395D01*
X0179607Y0023407D01*
X0180363Y0022650D01*
X0181352Y0022241D01*
X0182421Y0022241D01*
X0183410Y0022650D01*
X0183699Y0022939D01*
X0185491Y0022939D01*
X0187140Y0022939D01*
X0194316Y0030115D01*
X0194724Y0030115D01*
X0195713Y0030524D01*
X0196469Y0031281D01*
X0196879Y0032269D01*
X0196879Y0033339D01*
X0196469Y0034327D01*
X0195713Y0035084D01*
X0194724Y0035493D01*
X0193355Y0035369D02*
X0154086Y0035369D01*
X0155684Y0033770D02*
X0191679Y0033770D01*
X0190742Y0032172D02*
X0157283Y0032172D01*
X0158881Y0030573D02*
X0189144Y0030573D01*
X0187545Y0028975D02*
X0160480Y0028975D01*
X0162078Y0027376D02*
X0180766Y0027376D01*
X0179327Y0025778D02*
X0163677Y0025778D01*
X0165275Y0024179D02*
X0179287Y0024179D01*
X0180531Y0022581D02*
X0167861Y0022581D01*
X0168335Y0020982D02*
X0201183Y0020982D01*
X0201149Y0019384D02*
X0167840Y0019384D01*
X0163453Y0019384D02*
X0087724Y0019384D01*
X0087733Y0019421D02*
X0087875Y0020685D01*
X0076387Y0020685D01*
X0076387Y0009197D01*
X0077651Y0009340D01*
X0078998Y0009647D01*
X0080302Y0010103D01*
X0081546Y0010703D01*
X0082716Y0011438D01*
X0083796Y0012299D01*
X0084773Y0013276D01*
X0085634Y0014356D01*
X0086369Y0015526D01*
X0086969Y0016771D01*
X0087425Y0018075D01*
X0087733Y0019421D01*
X0087324Y0017785D02*
X0205423Y0017785D01*
X0205423Y0017580D02*
X0201149Y0017580D01*
X0201149Y0015264D01*
X0201272Y0014806D01*
X0201509Y0014396D01*
X0201844Y0014060D01*
X0202255Y0013823D01*
X0202712Y0013701D01*
X0205423Y0013701D01*
X0205423Y0017580D01*
X0206382Y0017580D02*
X0206382Y0013701D01*
X0209092Y0013701D01*
X0209550Y0013823D01*
X0209960Y0014060D01*
X0210295Y0014396D01*
X0210532Y0014806D01*
X0210655Y0015264D01*
X0210655Y0017580D01*
X0206382Y0017580D01*
X0206382Y0017785D02*
X0222529Y0017785D01*
X0223203Y0019384D02*
X0210655Y0019384D01*
X0210621Y0020982D02*
X0223286Y0020982D01*
X0223286Y0022581D02*
X0210255Y0022581D01*
X0210255Y0024179D02*
X0223286Y0024179D01*
X0223286Y0025778D02*
X0210255Y0025778D01*
X0210255Y0027376D02*
X0223286Y0027376D01*
X0223286Y0028975D02*
X0209959Y0028975D01*
X0203601Y0030573D02*
X0195762Y0030573D01*
X0196838Y0032172D02*
X0203601Y0032172D01*
X0203601Y0033770D02*
X0196700Y0033770D01*
X0203601Y0036967D02*
X0152487Y0036967D01*
X0150889Y0038566D02*
X0203601Y0038566D01*
X0203601Y0040164D02*
X0149290Y0040164D01*
X0147691Y0041763D02*
X0203601Y0041763D01*
X0203601Y0043361D02*
X0146093Y0043361D01*
X0144494Y0044960D02*
X0201549Y0044960D01*
X0198203Y0046558D02*
X0143601Y0046558D01*
X0143601Y0048157D02*
X0196604Y0048157D01*
X0194597Y0049755D02*
X0143601Y0049755D01*
X0134885Y0054551D02*
X0187833Y0054551D01*
X0187072Y0056149D02*
X0179591Y0056149D01*
X0181189Y0057748D02*
X0187398Y0057748D01*
X0189866Y0059346D02*
X0182788Y0059346D01*
X0184386Y0060945D02*
X0191464Y0060945D01*
X0193063Y0062543D02*
X0185985Y0062543D01*
X0187583Y0064142D02*
X0194661Y0064142D01*
X0196260Y0065740D02*
X0189182Y0065740D01*
X0190780Y0067339D02*
X0197858Y0067339D01*
X0199457Y0068937D02*
X0192379Y0068937D01*
X0193977Y0070536D02*
X0201055Y0070536D01*
X0201549Y0072134D02*
X0195576Y0072134D01*
X0197174Y0073733D02*
X0201549Y0073733D01*
X0201549Y0075332D02*
X0198773Y0075332D01*
X0200371Y0076930D02*
X0202021Y0076930D01*
X0201549Y0082940D02*
X0200316Y0082940D01*
X0200323Y0082958D01*
X0200323Y0084028D01*
X0199914Y0085016D01*
X0199158Y0085773D01*
X0198169Y0086182D01*
X0197100Y0086182D01*
X0196111Y0085773D01*
X0195355Y0085016D01*
X0194946Y0084028D01*
X0194946Y0083619D01*
X0185983Y0074657D01*
X0109876Y0074657D01*
X0092940Y0091593D01*
X0093032Y0091593D01*
X0094707Y0092286D01*
X0095988Y0093568D01*
X0096682Y0095242D01*
X0096682Y0097055D01*
X0095988Y0098729D01*
X0094707Y0100011D01*
X0093032Y0100704D01*
X0091220Y0100704D01*
X0089545Y0100011D01*
X0088264Y0098729D01*
X0087570Y0097055D01*
X0087570Y0096963D01*
X0069704Y0114829D01*
X0069704Y0163862D01*
X0070623Y0163481D01*
X0071693Y0163481D01*
X0072681Y0163890D01*
X0073438Y0164647D01*
X0073847Y0165635D01*
X0073847Y0166044D01*
X0082231Y0174428D01*
X0086574Y0170085D01*
X0118203Y0170085D01*
X0118203Y0168267D01*
X0118310Y0168161D01*
X0115117Y0168161D01*
X0113951Y0166995D01*
X0101156Y0154199D01*
X0101156Y0106290D01*
X0102322Y0105124D01*
X0118070Y0089376D01*
X0204684Y0089376D01*
X0205418Y0088643D01*
X0204974Y0088643D01*
X0203985Y0088233D01*
X0203229Y0087477D01*
X0202820Y0086488D01*
X0202820Y0085419D01*
X0203109Y0084721D01*
X0203109Y0084499D01*
X0202370Y0084499D01*
X0201549Y0083679D01*
X0201549Y0082940D01*
X0201549Y0083324D02*
X0200323Y0083324D01*
X0199953Y0084923D02*
X0203025Y0084923D01*
X0202833Y0086521D02*
X0098012Y0086521D01*
X0099610Y0084923D02*
X0195316Y0084923D01*
X0194651Y0083324D02*
X0101209Y0083324D01*
X0102807Y0081726D02*
X0193052Y0081726D01*
X0191454Y0080127D02*
X0104406Y0080127D01*
X0106004Y0078529D02*
X0189855Y0078529D01*
X0188257Y0076930D02*
X0107603Y0076930D01*
X0109202Y0075332D02*
X0186658Y0075332D01*
X0187189Y0070536D02*
X0057702Y0070536D01*
X0057702Y0072134D02*
X0106768Y0072134D01*
X0105170Y0073733D02*
X0057702Y0073733D01*
X0057702Y0075332D02*
X0103571Y0075332D01*
X0101973Y0076930D02*
X0057702Y0076930D01*
X0057702Y0078529D02*
X0100374Y0078529D01*
X0098776Y0080127D02*
X0057702Y0080127D01*
X0057702Y0081726D02*
X0097177Y0081726D01*
X0095579Y0083324D02*
X0057702Y0083324D01*
X0057702Y0084923D02*
X0093980Y0084923D01*
X0092382Y0086521D02*
X0057702Y0086521D01*
X0057702Y0088120D02*
X0090783Y0088120D01*
X0089185Y0089718D02*
X0057702Y0089718D01*
X0057702Y0091317D02*
X0087586Y0091317D01*
X0085988Y0092915D02*
X0057702Y0092915D01*
X0057702Y0094514D02*
X0084389Y0094514D01*
X0082791Y0096112D02*
X0057702Y0096112D01*
X0057702Y0097711D02*
X0081192Y0097711D01*
X0079594Y0099309D02*
X0057702Y0099309D01*
X0057702Y0100908D02*
X0077995Y0100908D01*
X0076397Y0102506D02*
X0057702Y0102506D01*
X0057702Y0104105D02*
X0074798Y0104105D01*
X0073200Y0105703D02*
X0057702Y0105703D01*
X0057702Y0107302D02*
X0071601Y0107302D01*
X0070003Y0108900D02*
X0057702Y0108900D01*
X0057702Y0110499D02*
X0068404Y0110499D01*
X0066806Y0112097D02*
X0057702Y0112097D01*
X0057702Y0113696D02*
X0065723Y0113696D01*
X0065723Y0115294D02*
X0057702Y0115294D01*
X0057702Y0116893D02*
X0065723Y0116893D01*
X0065723Y0118491D02*
X0057702Y0118491D01*
X0057702Y0120090D02*
X0065723Y0120090D01*
X0065723Y0121688D02*
X0057702Y0121688D01*
X0057702Y0123287D02*
X0065723Y0123287D01*
X0065723Y0124885D02*
X0057702Y0124885D01*
X0057702Y0126484D02*
X0065723Y0126484D01*
X0065723Y0128082D02*
X0057702Y0128082D01*
X0057702Y0129681D02*
X0065723Y0129681D01*
X0065723Y0131279D02*
X0057702Y0131279D01*
X0057702Y0132878D02*
X0065723Y0132878D01*
X0065723Y0134476D02*
X0057702Y0134476D01*
X0057702Y0136075D02*
X0065723Y0136075D01*
X0065723Y0137673D02*
X0057702Y0137673D01*
X0057702Y0139272D02*
X0065723Y0139272D01*
X0065723Y0140870D02*
X0057702Y0140870D01*
X0057702Y0142469D02*
X0065723Y0142469D01*
X0065723Y0144068D02*
X0057702Y0144068D01*
X0057702Y0145666D02*
X0065723Y0145666D01*
X0065723Y0147265D02*
X0057702Y0147265D01*
X0057702Y0148863D02*
X0065723Y0148863D01*
X0065723Y0150462D02*
X0057702Y0150462D01*
X0057702Y0152060D02*
X0065723Y0152060D01*
X0065723Y0153659D02*
X0057702Y0153659D01*
X0057702Y0155257D02*
X0065723Y0155257D01*
X0065723Y0156856D02*
X0057702Y0156856D01*
X0057702Y0158454D02*
X0065723Y0158454D01*
X0065723Y0160053D02*
X0057702Y0160053D01*
X0057702Y0161651D02*
X0065723Y0161651D01*
X0065723Y0163250D02*
X0057702Y0163250D01*
X0057702Y0164848D02*
X0065723Y0164848D01*
X0065723Y0166447D02*
X0057702Y0166447D01*
X0057702Y0168045D02*
X0065723Y0168045D01*
X0065723Y0169644D02*
X0057702Y0169644D01*
X0057702Y0171242D02*
X0065723Y0171242D01*
X0065723Y0172841D02*
X0057702Y0172841D01*
X0057702Y0174439D02*
X0065723Y0174439D01*
X0065723Y0176038D02*
X0057702Y0176038D01*
X0057702Y0177636D02*
X0065723Y0177636D01*
X0065723Y0179235D02*
X0057702Y0179235D01*
X0057702Y0180833D02*
X0065723Y0180833D01*
X0065723Y0182432D02*
X0057702Y0182432D01*
X0057702Y0184030D02*
X0065723Y0184030D01*
X0065723Y0185629D02*
X0057702Y0185629D01*
X0057702Y0187227D02*
X0065723Y0187227D01*
X0065723Y0188826D02*
X0057702Y0188826D01*
X0057702Y0190424D02*
X0066515Y0190424D01*
X0068113Y0192023D02*
X0057702Y0192023D01*
X0057702Y0193621D02*
X0069712Y0193621D01*
X0071310Y0195220D02*
X0057702Y0195220D01*
X0057702Y0196818D02*
X0079827Y0196818D01*
X0079864Y0195220D02*
X0079968Y0195220D01*
X0080901Y0198417D02*
X0057702Y0198417D01*
X0057702Y0200015D02*
X0083488Y0200015D01*
X0085086Y0201614D02*
X0057702Y0201614D01*
X0057702Y0203212D02*
X0086685Y0203212D01*
X0088283Y0204811D02*
X0057702Y0204811D01*
X0057702Y0206409D02*
X0089882Y0206409D01*
X0091480Y0208008D02*
X0057702Y0208008D01*
X0057702Y0209606D02*
X0145244Y0209606D01*
X0143240Y0211205D02*
X0139130Y0211205D01*
X0139258Y0211334D02*
X0139665Y0211894D01*
X0139980Y0212511D01*
X0140194Y0213170D01*
X0140302Y0213854D01*
X0140302Y0216800D01*
X0140302Y0219746D01*
X0140194Y0220430D01*
X0139980Y0221089D01*
X0139665Y0221706D01*
X0139258Y0222266D01*
X0138769Y0222756D01*
X0138208Y0223163D01*
X0137591Y0223478D01*
X0136933Y0223692D01*
X0136249Y0223800D01*
X0135902Y0223800D01*
X0135556Y0223800D01*
X0134872Y0223692D01*
X0134213Y0223478D01*
X0133596Y0223163D01*
X0133036Y0222756D01*
X0132546Y0222266D01*
X0132139Y0221706D01*
X0131825Y0221089D01*
X0131611Y0220430D01*
X0131502Y0219746D01*
X0131502Y0216800D01*
X0131502Y0213854D01*
X0131611Y0213170D01*
X0131825Y0212511D01*
X0132139Y0211894D01*
X0132546Y0211334D01*
X0133036Y0210844D01*
X0133596Y0210437D01*
X0134213Y0210122D01*
X0134872Y0209908D01*
X0135556Y0209800D01*
X0135902Y0209800D01*
X0135902Y0216800D01*
X0135902Y0216800D01*
X0131502Y0216800D01*
X0135902Y0216800D01*
X0135902Y0223800D01*
X0135902Y0216800D01*
X0135902Y0216800D01*
X0135902Y0216800D01*
X0135902Y0209800D01*
X0136249Y0209800D01*
X0136933Y0209908D01*
X0137591Y0210122D01*
X0138208Y0210437D01*
X0138769Y0210844D01*
X0139258Y0211334D01*
X0140075Y0212803D02*
X0142151Y0212803D01*
X0141902Y0214402D02*
X0140302Y0214402D01*
X0140302Y0216001D02*
X0141902Y0216001D01*
X0141902Y0217599D02*
X0140302Y0217599D01*
X0140302Y0216800D02*
X0135902Y0216800D01*
X0135902Y0216800D01*
X0140302Y0216800D01*
X0140302Y0219198D02*
X0141902Y0219198D01*
X0142151Y0220796D02*
X0140075Y0220796D01*
X0139130Y0222395D02*
X0142494Y0222395D01*
X0142494Y0223993D02*
X0123922Y0223993D01*
X0123636Y0222791D02*
X0122511Y0221666D01*
X0121902Y0220196D01*
X0121902Y0213404D01*
X0122511Y0211934D01*
X0123636Y0210809D01*
X0125107Y0210200D01*
X0126698Y0210200D01*
X0128168Y0210809D01*
X0129293Y0211934D01*
X0129902Y0213404D01*
X0129902Y0220196D01*
X0129293Y0221666D01*
X0128168Y0222791D01*
X0126698Y0223400D01*
X0125107Y0223400D01*
X0123636Y0222791D01*
X0123240Y0222395D02*
X0122324Y0222395D01*
X0122151Y0220796D02*
X0120725Y0220796D01*
X0119902Y0219198D02*
X0121902Y0219198D01*
X0121902Y0217599D02*
X0119902Y0217599D01*
X0119902Y0216001D02*
X0121902Y0216001D01*
X0121902Y0214402D02*
X0119902Y0214402D01*
X0119653Y0212803D02*
X0122151Y0212803D01*
X0123240Y0211205D02*
X0118564Y0211205D01*
X0113240Y0211205D02*
X0108564Y0211205D01*
X0108168Y0210809D02*
X0109293Y0211934D01*
X0109902Y0213404D01*
X0109902Y0220196D01*
X0109293Y0221666D01*
X0108168Y0222791D01*
X0106698Y0223400D01*
X0105107Y0223400D01*
X0103636Y0222791D01*
X0102511Y0221666D01*
X0101902Y0220196D01*
X0101902Y0213404D01*
X0102511Y0211934D01*
X0103636Y0210809D01*
X0105107Y0210200D01*
X0106698Y0210200D01*
X0108168Y0210809D01*
X0109653Y0212803D02*
X0112151Y0212803D01*
X0111902Y0214402D02*
X0109902Y0214402D01*
X0109902Y0216001D02*
X0111902Y0216001D01*
X0111902Y0217599D02*
X0109902Y0217599D01*
X0109902Y0219198D02*
X0111902Y0219198D01*
X0112151Y0220796D02*
X0109654Y0220796D01*
X0108565Y0222395D02*
X0113240Y0222395D01*
X0118292Y0223993D02*
X0057702Y0223993D01*
X0057702Y0222395D02*
X0073240Y0222395D01*
X0073636Y0222791D02*
X0072511Y0221666D01*
X0071902Y0220196D01*
X0071902Y0213404D01*
X0072511Y0211934D01*
X0073636Y0210809D01*
X0075107Y0210200D01*
X0076698Y0210200D01*
X0078168Y0210809D01*
X0079293Y0211934D01*
X0079902Y0213404D01*
X0079902Y0220196D01*
X0079293Y0221666D01*
X0078168Y0222791D01*
X0076698Y0223400D01*
X0075107Y0223400D01*
X0073636Y0222791D01*
X0072151Y0220796D02*
X0057702Y0220796D01*
X0057702Y0219198D02*
X0071902Y0219198D01*
X0071902Y0217599D02*
X0057702Y0217599D01*
X0057702Y0216001D02*
X0071902Y0216001D01*
X0071902Y0214402D02*
X0057702Y0214402D01*
X0057702Y0212803D02*
X0072151Y0212803D01*
X0073240Y0211205D02*
X0057702Y0211205D01*
X0057702Y0225592D02*
X0119891Y0225592D01*
X0121489Y0227190D02*
X0057702Y0227190D01*
X0057702Y0228789D02*
X0123088Y0228789D01*
X0124686Y0230387D02*
X0057702Y0230387D01*
X0057702Y0231986D02*
X0126285Y0231986D01*
X0127883Y0233584D02*
X0057702Y0233584D01*
X0057702Y0235183D02*
X0129482Y0235183D01*
X0131080Y0236781D02*
X0057702Y0236781D01*
X0057702Y0238380D02*
X0132679Y0238380D01*
X0132642Y0243175D02*
X0131683Y0243175D01*
X0131683Y0244774D02*
X0132642Y0244774D01*
X0131682Y0246372D02*
X0080402Y0246372D01*
X0080302Y0246324D02*
X0081546Y0246923D01*
X0082716Y0247658D01*
X0083796Y0248520D01*
X0084773Y0249497D01*
X0085634Y0250577D01*
X0086369Y0251746D01*
X0086969Y0252991D01*
X0087425Y0254295D01*
X0087733Y0255642D01*
X0087875Y0256906D01*
X0076387Y0256906D01*
X0076387Y0258505D01*
X0087875Y0258505D01*
X0087733Y0259769D01*
X0087425Y0261116D01*
X0086969Y0262420D01*
X0086369Y0263665D01*
X0085634Y0264834D01*
X0084773Y0265914D01*
X0083796Y0266891D01*
X0082716Y0267753D01*
X0081546Y0268488D01*
X0080302Y0269087D01*
X0078998Y0269543D01*
X0077651Y0269851D01*
X0076387Y0269993D01*
X0076387Y0258506D01*
X0074787Y0258506D01*
X0074787Y0269993D01*
X0073524Y0269851D01*
X0072177Y0269543D01*
X0070873Y0269087D01*
X0069628Y0268488D01*
X0068458Y0267753D01*
X0067378Y0266891D01*
X0066401Y0265914D01*
X0065540Y0264834D01*
X0064805Y0263665D01*
X0064206Y0262420D01*
X0063749Y0261116D01*
X0063442Y0259769D01*
X0063300Y0258505D01*
X0074787Y0258505D01*
X0074787Y0256906D01*
X0063300Y0256906D01*
X0063442Y0255642D01*
X0063749Y0254295D01*
X0064206Y0252991D01*
X0064805Y0251746D01*
X0065540Y0250577D01*
X0066401Y0249497D01*
X0067378Y0248520D01*
X0068458Y0247658D01*
X0069628Y0246923D01*
X0070873Y0246324D01*
X0072177Y0245868D01*
X0073524Y0245560D01*
X0074787Y0245418D01*
X0074787Y0256905D01*
X0076387Y0256905D01*
X0076387Y0245418D01*
X0077651Y0245560D01*
X0078998Y0245868D01*
X0080302Y0246324D01*
X0083108Y0247971D02*
X0127803Y0247971D01*
X0127803Y0249569D02*
X0084831Y0249569D01*
X0086006Y0251168D02*
X0128472Y0251168D01*
X0131683Y0251168D02*
X0132642Y0251168D01*
X0132642Y0249569D02*
X0131683Y0249569D01*
X0131683Y0247971D02*
X0132642Y0247971D01*
X0135852Y0251168D02*
X0148472Y0251168D01*
X0148856Y0252766D02*
X0086861Y0252766D01*
X0087441Y0254365D02*
X0138247Y0254365D01*
X0138085Y0254527D02*
X0138905Y0253707D01*
X0147545Y0253707D01*
X0147601Y0253763D01*
X0147619Y0253722D01*
X0148375Y0252965D01*
X0149363Y0252556D01*
X0150433Y0252556D01*
X0151421Y0252965D01*
X0152178Y0253722D01*
X0152587Y0254710D01*
X0152587Y0255780D01*
X0152178Y0256768D01*
X0151421Y0257524D01*
X0150724Y0257813D01*
X0148365Y0260172D01*
X0148365Y0269073D01*
X0147545Y0269893D01*
X0138905Y0269893D01*
X0138085Y0269073D01*
X0138085Y0254527D01*
X0138085Y0255963D02*
X0087769Y0255963D01*
X0087801Y0259160D02*
X0138085Y0259160D01*
X0138085Y0257562D02*
X0076387Y0257562D01*
X0076387Y0259160D02*
X0074787Y0259160D01*
X0074787Y0257562D02*
X0057702Y0257562D01*
X0057702Y0259160D02*
X0063373Y0259160D01*
X0063668Y0260759D02*
X0057702Y0260759D01*
X0057702Y0262357D02*
X0064184Y0262357D01*
X0064988Y0263956D02*
X0057702Y0263956D01*
X0057702Y0265554D02*
X0066114Y0265554D01*
X0067706Y0267153D02*
X0057702Y0267153D01*
X0057702Y0268751D02*
X0070176Y0268751D01*
X0074787Y0268751D02*
X0076387Y0268751D01*
X0076387Y0267153D02*
X0074787Y0267153D01*
X0074787Y0265554D02*
X0076387Y0265554D01*
X0076387Y0263956D02*
X0074787Y0263956D01*
X0074787Y0262357D02*
X0076387Y0262357D01*
X0076387Y0260759D02*
X0074787Y0260759D01*
X0074787Y0255963D02*
X0076387Y0255963D01*
X0076387Y0254365D02*
X0074787Y0254365D01*
X0074787Y0252766D02*
X0076387Y0252766D01*
X0076387Y0251168D02*
X0074787Y0251168D01*
X0074787Y0249569D02*
X0076387Y0249569D01*
X0076387Y0247971D02*
X0074787Y0247971D01*
X0074787Y0246372D02*
X0076387Y0246372D01*
X0070772Y0246372D02*
X0057702Y0246372D01*
X0057702Y0244774D02*
X0127803Y0244774D01*
X0127920Y0243175D02*
X0057702Y0243175D01*
X0057702Y0241577D02*
X0137573Y0241577D01*
X0137573Y0239978D02*
X0057702Y0239978D01*
X0057702Y0247971D02*
X0068067Y0247971D01*
X0066343Y0249569D02*
X0057702Y0249569D01*
X0057702Y0251168D02*
X0065169Y0251168D01*
X0064314Y0252766D02*
X0057702Y0252766D01*
X0057702Y0254365D02*
X0063733Y0254365D01*
X0063406Y0255963D02*
X0057702Y0255963D01*
X0057702Y0270350D02*
X0408433Y0270350D01*
X0408433Y0271948D02*
X0057702Y0271948D01*
X0057702Y0273547D02*
X0408433Y0273547D01*
X0408433Y0275145D02*
X0057702Y0275145D01*
X0057702Y0275591D02*
X0408433Y0275591D01*
X0408433Y0003600D01*
X0057702Y0003600D01*
X0057702Y0275591D01*
X0080999Y0268751D02*
X0138085Y0268751D01*
X0138085Y0267153D02*
X0083468Y0267153D01*
X0085060Y0265554D02*
X0138085Y0265554D01*
X0138085Y0263956D02*
X0086186Y0263956D01*
X0086991Y0262357D02*
X0138085Y0262357D01*
X0138085Y0260759D02*
X0087507Y0260759D01*
X0128718Y0228789D02*
X0132803Y0228789D01*
X0132803Y0230387D02*
X0130316Y0230387D01*
X0131915Y0231986D02*
X0136682Y0231986D01*
X0136683Y0230387D02*
X0137642Y0230387D01*
X0137642Y0228789D02*
X0136683Y0228789D01*
X0136683Y0227190D02*
X0137642Y0227190D01*
X0140451Y0227190D02*
X0142494Y0227190D01*
X0142494Y0225592D02*
X0125521Y0225592D01*
X0127119Y0227190D02*
X0133873Y0227190D01*
X0132674Y0222395D02*
X0128565Y0222395D01*
X0129654Y0220796D02*
X0131729Y0220796D01*
X0131502Y0219198D02*
X0129902Y0219198D01*
X0129902Y0217599D02*
X0131502Y0217599D01*
X0131502Y0216001D02*
X0129902Y0216001D01*
X0129902Y0214402D02*
X0131502Y0214402D01*
X0131730Y0212803D02*
X0129653Y0212803D01*
X0128564Y0211205D02*
X0132675Y0211205D01*
X0135902Y0211205D02*
X0135902Y0211205D01*
X0135902Y0212803D02*
X0135902Y0212803D01*
X0135902Y0214402D02*
X0135902Y0214402D01*
X0135902Y0216001D02*
X0135902Y0216001D01*
X0135902Y0217599D02*
X0135902Y0217599D01*
X0135902Y0219198D02*
X0135902Y0219198D01*
X0135902Y0220796D02*
X0135902Y0220796D01*
X0135902Y0222395D02*
X0135902Y0222395D01*
X0141554Y0239978D02*
X0153305Y0239978D01*
X0153143Y0241577D02*
X0141554Y0241577D01*
X0143509Y0243175D02*
X0147920Y0243175D01*
X0147803Y0244774D02*
X0143601Y0244774D01*
X0143601Y0246372D02*
X0151682Y0246372D01*
X0151683Y0244774D02*
X0152642Y0244774D01*
X0152642Y0243175D02*
X0151683Y0243175D01*
X0151683Y0247971D02*
X0152642Y0247971D01*
X0152642Y0249569D02*
X0151683Y0249569D01*
X0151683Y0251168D02*
X0152642Y0251168D01*
X0150941Y0252766D02*
X0157258Y0252766D01*
X0157258Y0251168D02*
X0155852Y0251168D01*
X0153602Y0254365D02*
X0152444Y0254365D01*
X0152511Y0255963D02*
X0153439Y0255963D01*
X0153439Y0257562D02*
X0151331Y0257562D01*
X0149377Y0259160D02*
X0153439Y0259160D01*
X0153439Y0260759D02*
X0148365Y0260759D01*
X0148365Y0262357D02*
X0153439Y0262357D01*
X0153439Y0263956D02*
X0148365Y0263956D01*
X0148365Y0265554D02*
X0153439Y0265554D01*
X0153439Y0267153D02*
X0148365Y0267153D01*
X0148365Y0268751D02*
X0153439Y0268751D01*
X0163720Y0268751D02*
X0385136Y0268751D01*
X0384589Y0268488D02*
X0383419Y0267753D01*
X0382339Y0266891D01*
X0381362Y0265914D01*
X0380501Y0264834D01*
X0379766Y0263665D01*
X0379166Y0262420D01*
X0378710Y0261116D01*
X0378403Y0259769D01*
X0378260Y0258505D01*
X0389748Y0258505D01*
X0389748Y0256906D01*
X0378260Y0256906D01*
X0378403Y0255642D01*
X0378710Y0254295D01*
X0379166Y0252991D01*
X0379766Y0251746D01*
X0380501Y0250577D01*
X0381362Y0249497D01*
X0382339Y0248520D01*
X0383419Y0247658D01*
X0384589Y0246923D01*
X0385833Y0246324D01*
X0387137Y0245868D01*
X0388484Y0245560D01*
X0389748Y0245418D01*
X0389748Y0256905D01*
X0391348Y0256905D01*
X0391348Y0245418D01*
X0392611Y0245560D01*
X0393958Y0245868D01*
X0395262Y0246324D01*
X0396507Y0246923D01*
X0397677Y0247658D01*
X0398757Y0248520D01*
X0399734Y0249497D01*
X0400595Y0250577D01*
X0401330Y0251746D01*
X0401930Y0252991D01*
X0402386Y0254295D01*
X0402693Y0255642D01*
X0402836Y0256906D01*
X0391348Y0256906D01*
X0391348Y0258505D01*
X0402836Y0258505D01*
X0402693Y0259769D01*
X0402386Y0261116D01*
X0401930Y0262420D01*
X0401330Y0263665D01*
X0400595Y0264834D01*
X0399734Y0265914D01*
X0398757Y0266891D01*
X0397677Y0267753D01*
X0396507Y0268488D01*
X0395262Y0269087D01*
X0393958Y0269543D01*
X0392611Y0269851D01*
X0391348Y0269993D01*
X0391348Y0258506D01*
X0389748Y0258506D01*
X0389748Y0269993D01*
X0388484Y0269851D01*
X0387137Y0269543D01*
X0385833Y0269087D01*
X0384589Y0268488D01*
X0382667Y0267153D02*
X0163720Y0267153D01*
X0163720Y0265554D02*
X0263688Y0265554D01*
X0264025Y0265891D02*
X0263268Y0265134D01*
X0262859Y0264146D01*
X0262859Y0263076D01*
X0263268Y0262088D01*
X0263557Y0261799D01*
X0263557Y0260326D01*
X0293863Y0230020D01*
X0293863Y0229612D01*
X0294272Y0228623D01*
X0295029Y0227867D01*
X0296017Y0227457D01*
X0297087Y0227457D01*
X0298075Y0227867D01*
X0298831Y0228623D01*
X0299241Y0229612D01*
X0299241Y0230681D01*
X0298831Y0231670D01*
X0298075Y0232426D01*
X0297087Y0232835D01*
X0296678Y0232835D01*
X0267626Y0261887D01*
X0267827Y0262088D01*
X0268237Y0263076D01*
X0268237Y0264146D01*
X0267827Y0265134D01*
X0267071Y0265891D01*
X0266083Y0266300D01*
X0265013Y0266300D01*
X0264025Y0265891D01*
X0262859Y0263956D02*
X0163720Y0263956D01*
X0163720Y0262357D02*
X0263157Y0262357D01*
X0263557Y0260759D02*
X0260388Y0260759D01*
X0261141Y0259160D02*
X0264723Y0259160D01*
X0266321Y0257562D02*
X0261141Y0257562D01*
X0261141Y0255963D02*
X0267920Y0255963D01*
X0269518Y0254365D02*
X0261141Y0254365D01*
X0261141Y0252766D02*
X0271117Y0252766D01*
X0272715Y0251168D02*
X0261141Y0251168D01*
X0261141Y0249569D02*
X0274314Y0249569D01*
X0275912Y0247971D02*
X0261141Y0247971D01*
X0261141Y0246372D02*
X0277511Y0246372D01*
X0279109Y0244774D02*
X0261141Y0244774D01*
X0261141Y0243175D02*
X0280708Y0243175D01*
X0282307Y0241577D02*
X0261141Y0241577D01*
X0261141Y0239978D02*
X0283905Y0239978D01*
X0285504Y0238380D02*
X0261141Y0238380D01*
X0261236Y0236781D02*
X0287102Y0236781D01*
X0288701Y0235183D02*
X0262835Y0235183D01*
X0264433Y0233584D02*
X0275057Y0233584D01*
X0275079Y0233638D02*
X0274670Y0232650D01*
X0274670Y0231580D01*
X0275079Y0230592D01*
X0275836Y0229835D01*
X0276824Y0229426D01*
X0277894Y0229426D01*
X0278882Y0229835D01*
X0279171Y0230124D01*
X0282932Y0230124D01*
X0294355Y0218701D01*
X0294355Y0218293D01*
X0294764Y0217304D01*
X0295521Y0216548D01*
X0296509Y0216139D01*
X0297579Y0216139D01*
X0298567Y0216548D01*
X0299324Y0217304D01*
X0299733Y0218293D01*
X0299733Y0219362D01*
X0299324Y0220351D01*
X0298567Y0221107D01*
X0297579Y0221517D01*
X0297170Y0221517D01*
X0285747Y0232939D01*
X0284581Y0234105D01*
X0279171Y0234105D01*
X0278882Y0234395D01*
X0277894Y0234804D01*
X0276824Y0234804D01*
X0275836Y0234395D01*
X0275079Y0233638D01*
X0274670Y0231986D02*
X0266032Y0231986D01*
X0267630Y0230387D02*
X0275284Y0230387D01*
X0270827Y0227190D02*
X0285866Y0227190D01*
X0284268Y0228789D02*
X0269229Y0228789D01*
X0266796Y0225592D02*
X0257170Y0225592D01*
X0255571Y0227190D02*
X0265197Y0227190D01*
X0263599Y0228789D02*
X0254426Y0228789D01*
X0253362Y0230387D02*
X0262000Y0230387D01*
X0260402Y0231986D02*
X0239979Y0231986D01*
X0239979Y0233584D02*
X0258803Y0233584D01*
X0257205Y0235183D02*
X0239979Y0235183D01*
X0239979Y0236781D02*
X0257160Y0236781D01*
X0257160Y0238380D02*
X0239979Y0238380D01*
X0239979Y0239978D02*
X0257160Y0239978D01*
X0257160Y0241577D02*
X0239979Y0241577D01*
X0239979Y0243175D02*
X0257160Y0243175D01*
X0257160Y0244774D02*
X0240639Y0244774D01*
X0240498Y0246372D02*
X0257160Y0246372D01*
X0257160Y0247971D02*
X0238815Y0247971D01*
X0237163Y0247971D02*
X0197605Y0247971D01*
X0199203Y0249569D02*
X0257160Y0249569D01*
X0257160Y0251168D02*
X0200802Y0251168D01*
X0202400Y0252766D02*
X0257160Y0252766D01*
X0268755Y0260759D02*
X0378628Y0260759D01*
X0378334Y0259160D02*
X0270353Y0259160D01*
X0271952Y0257562D02*
X0389748Y0257562D01*
X0389748Y0259160D02*
X0391348Y0259160D01*
X0391348Y0257562D02*
X0408433Y0257562D01*
X0408433Y0259160D02*
X0402762Y0259160D01*
X0402467Y0260759D02*
X0408433Y0260759D01*
X0408433Y0262357D02*
X0401951Y0262357D01*
X0401147Y0263956D02*
X0408433Y0263956D01*
X0408433Y0265554D02*
X0400021Y0265554D01*
X0398429Y0267153D02*
X0408433Y0267153D01*
X0408433Y0268751D02*
X0395959Y0268751D01*
X0391348Y0268751D02*
X0389748Y0268751D01*
X0389748Y0267153D02*
X0391348Y0267153D01*
X0391348Y0265554D02*
X0389748Y0265554D01*
X0389748Y0263956D02*
X0391348Y0263956D01*
X0391348Y0262357D02*
X0389748Y0262357D01*
X0389748Y0260759D02*
X0391348Y0260759D01*
X0391348Y0255963D02*
X0389748Y0255963D01*
X0389748Y0254365D02*
X0391348Y0254365D01*
X0391348Y0252766D02*
X0389748Y0252766D01*
X0389748Y0251168D02*
X0391348Y0251168D01*
X0391348Y0249569D02*
X0389748Y0249569D01*
X0389748Y0247971D02*
X0391348Y0247971D01*
X0391348Y0246372D02*
X0389748Y0246372D01*
X0385733Y0246372D02*
X0283141Y0246372D01*
X0284740Y0244774D02*
X0408433Y0244774D01*
X0408433Y0246372D02*
X0395363Y0246372D01*
X0398069Y0247971D02*
X0408433Y0247971D01*
X0408433Y0249569D02*
X0399792Y0249569D01*
X0400967Y0251168D02*
X0408433Y0251168D01*
X0408433Y0252766D02*
X0401821Y0252766D01*
X0402402Y0254365D02*
X0408433Y0254365D01*
X0408433Y0255963D02*
X0402729Y0255963D01*
X0408433Y0243175D02*
X0286338Y0243175D01*
X0287937Y0241577D02*
X0408433Y0241577D01*
X0408433Y0239978D02*
X0289535Y0239978D01*
X0291134Y0238380D02*
X0408433Y0238380D01*
X0408433Y0236781D02*
X0292732Y0236781D01*
X0294331Y0235183D02*
X0408433Y0235183D01*
X0408433Y0233584D02*
X0295929Y0233584D01*
X0298515Y0231986D02*
X0408433Y0231986D01*
X0408433Y0230387D02*
X0299241Y0230387D01*
X0298900Y0228789D02*
X0408433Y0228789D01*
X0408433Y0227190D02*
X0291496Y0227190D01*
X0289898Y0228789D02*
X0294204Y0228789D01*
X0293496Y0230387D02*
X0288299Y0230387D01*
X0286701Y0231986D02*
X0291898Y0231986D01*
X0290299Y0233584D02*
X0285102Y0233584D01*
X0287465Y0225592D02*
X0272426Y0225592D01*
X0274839Y0223993D02*
X0289063Y0223993D01*
X0290662Y0222395D02*
X0275127Y0222395D01*
X0274272Y0220796D02*
X0292260Y0220796D01*
X0293859Y0219198D02*
X0263564Y0219198D01*
X0261965Y0220796D02*
X0270603Y0220796D01*
X0269749Y0222395D02*
X0260367Y0222395D01*
X0258768Y0223993D02*
X0268394Y0223993D01*
X0265162Y0217599D02*
X0294642Y0217599D01*
X0299446Y0217599D02*
X0408433Y0217599D01*
X0408433Y0216001D02*
X0266761Y0216001D01*
X0268359Y0214402D02*
X0408433Y0214402D01*
X0408433Y0212803D02*
X0269958Y0212803D01*
X0273891Y0206409D02*
X0408433Y0206409D01*
X0408433Y0204811D02*
X0275490Y0204811D01*
X0277088Y0203212D02*
X0408433Y0203212D01*
X0408433Y0201614D02*
X0278687Y0201614D01*
X0280285Y0200015D02*
X0408433Y0200015D01*
X0408433Y0198417D02*
X0281884Y0198417D01*
X0283482Y0196818D02*
X0408433Y0196818D01*
X0408433Y0195220D02*
X0285081Y0195220D01*
X0286679Y0193621D02*
X0408433Y0193621D01*
X0408433Y0192023D02*
X0288278Y0192023D01*
X0289876Y0190424D02*
X0408433Y0190424D01*
X0408433Y0188826D02*
X0291475Y0188826D01*
X0293073Y0187227D02*
X0408433Y0187227D01*
X0408433Y0185629D02*
X0294672Y0185629D01*
X0296270Y0184030D02*
X0408433Y0184030D01*
X0408433Y0182432D02*
X0297869Y0182432D01*
X0292518Y0177636D02*
X0271246Y0177636D01*
X0271246Y0176038D02*
X0294117Y0176038D01*
X0295715Y0174439D02*
X0271246Y0174439D01*
X0271246Y0172841D02*
X0297314Y0172841D01*
X0290920Y0179235D02*
X0270619Y0179235D01*
X0266480Y0179235D02*
X0265324Y0179235D01*
X0265324Y0177636D02*
X0266480Y0177636D01*
X0266480Y0176038D02*
X0265324Y0176038D01*
X0260559Y0176038D02*
X0251251Y0176038D01*
X0252849Y0177636D02*
X0254330Y0177636D01*
X0259050Y0177636D02*
X0260559Y0177636D01*
X0260353Y0179235D02*
X0261185Y0179235D01*
X0261952Y0180833D02*
X0289321Y0180833D01*
X0287723Y0182432D02*
X0263550Y0182432D01*
X0265149Y0184030D02*
X0286124Y0184030D01*
X0284526Y0185629D02*
X0270846Y0185629D01*
X0270846Y0187227D02*
X0282927Y0187227D01*
X0281329Y0188826D02*
X0270846Y0188826D01*
X0270846Y0190424D02*
X0279730Y0190424D01*
X0278132Y0192023D02*
X0270651Y0192023D01*
X0269975Y0193621D02*
X0276533Y0193621D01*
X0274935Y0195220D02*
X0270205Y0195220D01*
X0253305Y0195220D02*
X0197019Y0195220D01*
X0196698Y0193400D02*
X0195199Y0193400D01*
X0198459Y0196660D01*
X0231924Y0196660D01*
X0240782Y0205518D01*
X0241948Y0206684D01*
X0241948Y0212951D01*
X0242535Y0212364D01*
X0251207Y0203691D01*
X0250959Y0203443D01*
X0250959Y0196771D01*
X0251779Y0195951D01*
X0253305Y0195951D01*
X0253305Y0184881D01*
X0250655Y0182230D01*
X0250655Y0182580D01*
X0246382Y0182580D01*
X0246382Y0183539D01*
X0250655Y0183539D01*
X0250655Y0185856D01*
X0250532Y0186314D01*
X0250295Y0186724D01*
X0249960Y0187059D01*
X0249930Y0187077D01*
X0250255Y0187401D01*
X0250255Y0193679D01*
X0249435Y0194499D01*
X0242370Y0194499D01*
X0241549Y0193679D01*
X0241549Y0190262D01*
X0229290Y0178003D01*
X0228124Y0176837D01*
X0228124Y0170935D01*
X0227835Y0170646D01*
X0227426Y0169658D01*
X0227426Y0168588D01*
X0227835Y0167600D01*
X0228592Y0166843D01*
X0229580Y0166434D01*
X0229989Y0166434D01*
X0233203Y0163220D01*
X0233203Y0158267D01*
X0234023Y0157447D01*
X0238175Y0157447D01*
X0225184Y0144456D01*
X0224769Y0144456D01*
X0224520Y0145055D01*
X0223764Y0145812D01*
X0222776Y0146221D01*
X0221706Y0146221D01*
X0220718Y0145812D01*
X0220176Y0145270D01*
X0220176Y0146081D01*
X0219356Y0146901D01*
X0202448Y0146901D01*
X0201628Y0146081D01*
X0201628Y0143338D01*
X0196491Y0148476D01*
X0193601Y0148476D01*
X0193601Y0150333D01*
X0193452Y0150482D01*
X0193744Y0150603D01*
X0194501Y0151359D01*
X0194910Y0152348D01*
X0194910Y0153418D01*
X0194501Y0154406D01*
X0193744Y0155162D01*
X0192756Y0155572D01*
X0192347Y0155572D01*
X0189290Y0158628D01*
X0188124Y0159794D01*
X0185255Y0159794D01*
X0185255Y0161199D01*
X0184930Y0161523D01*
X0184960Y0161541D01*
X0185295Y0161876D01*
X0185532Y0162286D01*
X0185655Y0162744D01*
X0185655Y0165061D01*
X0181382Y0165061D01*
X0181382Y0166020D01*
X0180423Y0166020D01*
X0180423Y0169899D01*
X0177712Y0169899D01*
X0177255Y0169777D01*
X0176844Y0169540D01*
X0176509Y0169204D01*
X0176272Y0168794D01*
X0176149Y0168336D01*
X0176149Y0166020D01*
X0180423Y0166020D01*
X0180423Y0165061D01*
X0176149Y0165061D01*
X0176149Y0162744D01*
X0176272Y0162286D01*
X0176509Y0161876D01*
X0176844Y0161541D01*
X0176874Y0161523D01*
X0176549Y0161199D01*
X0176549Y0154921D01*
X0177370Y0154101D01*
X0179896Y0154101D01*
X0179896Y0151153D01*
X0179023Y0151153D01*
X0178203Y0150333D01*
X0178203Y0149050D01*
X0177996Y0149257D01*
X0177008Y0149666D01*
X0175938Y0149666D01*
X0174950Y0149257D01*
X0174193Y0148500D01*
X0173784Y0147512D01*
X0173784Y0146442D01*
X0174193Y0145454D01*
X0174950Y0144698D01*
X0175938Y0144288D01*
X0177008Y0144288D01*
X0177996Y0144698D01*
X0178203Y0144904D01*
X0178203Y0143267D01*
X0179023Y0142447D01*
X0185301Y0142447D01*
X0185902Y0143048D01*
X0186503Y0142447D01*
X0192781Y0142447D01*
X0193601Y0143267D01*
X0193601Y0144494D01*
X0194841Y0144494D01*
X0199089Y0140247D01*
X0199089Y0137019D01*
X0198459Y0137649D01*
X0197970Y0137649D01*
X0197681Y0137938D01*
X0196693Y0138347D01*
X0195623Y0138347D01*
X0194635Y0137938D01*
X0194346Y0137649D01*
X0175255Y0137649D01*
X0175255Y0138679D01*
X0174435Y0139499D01*
X0167370Y0139499D01*
X0166549Y0138679D01*
X0166549Y0132401D01*
X0167151Y0131800D01*
X0166549Y0131199D01*
X0166549Y0124921D01*
X0167370Y0124101D01*
X0168987Y0124101D01*
X0168780Y0123894D01*
X0168371Y0122906D01*
X0168371Y0121836D01*
X0168563Y0121372D01*
X0167990Y0121945D01*
X0167108Y0122310D01*
X0162703Y0122310D01*
X0145409Y0139605D01*
X0145409Y0141549D01*
X0145043Y0142431D01*
X0144368Y0143106D01*
X0135027Y0152447D01*
X0135301Y0152447D01*
X0135626Y0152772D01*
X0135643Y0152742D01*
X0135978Y0152407D01*
X0136389Y0152170D01*
X0136846Y0152047D01*
X0139163Y0152047D01*
X0139163Y0156320D01*
X0140122Y0156320D01*
X0140122Y0152047D01*
X0142438Y0152047D01*
X0142896Y0152170D01*
X0143307Y0152407D01*
X0143642Y0152742D01*
X0143879Y0153152D01*
X0144001Y0153610D01*
X0144001Y0156320D01*
X0140122Y0156320D01*
X0140122Y0157280D01*
X0144001Y0157280D01*
X0144001Y0159990D01*
X0143934Y0160243D01*
X0159089Y0160243D01*
X0175821Y0176975D01*
X0178774Y0176975D01*
X0181727Y0179928D01*
X0182893Y0181094D01*
X0182893Y0181553D01*
X0183636Y0180809D01*
X0185107Y0180200D01*
X0186698Y0180200D01*
X0188168Y0180809D01*
X0189293Y0181934D01*
X0189902Y0183404D01*
X0189902Y0190196D01*
X0189293Y0191666D01*
X0189220Y0191739D01*
X0192584Y0191739D01*
X0192511Y0191666D01*
X0191902Y0190196D01*
X0191902Y0183404D01*
X0192511Y0181934D01*
X0193636Y0180809D01*
X0195107Y0180200D01*
X0196698Y0180200D01*
X0198168Y0180809D01*
X0199293Y0181934D01*
X0199902Y0183404D01*
X0199902Y0190196D01*
X0199293Y0191666D01*
X0198168Y0192791D01*
X0196698Y0193400D01*
X0195421Y0193621D02*
X0241549Y0193621D01*
X0241549Y0192023D02*
X0208936Y0192023D01*
X0209293Y0191666D02*
X0208168Y0192791D01*
X0206698Y0193400D01*
X0205107Y0193400D01*
X0203636Y0192791D01*
X0202511Y0191666D01*
X0201902Y0190196D01*
X0201902Y0183404D01*
X0202511Y0181934D01*
X0203636Y0180809D01*
X0205107Y0180200D01*
X0206698Y0180200D01*
X0208168Y0180809D01*
X0209293Y0181934D01*
X0209902Y0183404D01*
X0209902Y0190196D01*
X0209293Y0191666D01*
X0209807Y0190424D02*
X0241549Y0190424D01*
X0240113Y0188826D02*
X0209902Y0188826D01*
X0209902Y0187227D02*
X0238514Y0187227D01*
X0236916Y0185629D02*
X0209902Y0185629D01*
X0209902Y0184030D02*
X0235317Y0184030D01*
X0233719Y0182432D02*
X0209499Y0182432D01*
X0208192Y0180833D02*
X0232120Y0180833D01*
X0230522Y0179235D02*
X0181034Y0179235D01*
X0182632Y0180833D02*
X0183612Y0180833D01*
X0188192Y0180833D02*
X0193612Y0180833D01*
X0192305Y0182432D02*
X0189499Y0182432D01*
X0189902Y0184030D02*
X0191902Y0184030D01*
X0191902Y0185629D02*
X0189902Y0185629D01*
X0189902Y0187227D02*
X0191902Y0187227D01*
X0191902Y0188826D02*
X0189902Y0188826D01*
X0189807Y0190424D02*
X0191997Y0190424D01*
X0198936Y0192023D02*
X0202868Y0192023D01*
X0201997Y0190424D02*
X0199807Y0190424D01*
X0199902Y0188826D02*
X0201902Y0188826D01*
X0201902Y0187227D02*
X0199902Y0187227D01*
X0199902Y0185629D02*
X0201902Y0185629D01*
X0201902Y0184030D02*
X0199902Y0184030D01*
X0199499Y0182432D02*
X0202305Y0182432D01*
X0203612Y0180833D02*
X0198192Y0180833D01*
X0185295Y0169204D02*
X0184960Y0169540D01*
X0184550Y0169777D01*
X0184092Y0169899D01*
X0181382Y0169899D01*
X0181382Y0166020D01*
X0185655Y0166020D01*
X0185655Y0168336D01*
X0185532Y0168794D01*
X0185295Y0169204D01*
X0184780Y0169644D02*
X0214540Y0169644D01*
X0214548Y0169662D02*
X0214259Y0168964D01*
X0211881Y0166586D01*
X0202448Y0166586D01*
X0201628Y0165766D01*
X0201628Y0157519D01*
X0202448Y0156699D01*
X0219356Y0156699D01*
X0220176Y0157519D01*
X0220176Y0165766D01*
X0219356Y0166586D01*
X0219077Y0166586D01*
X0219107Y0166615D01*
X0219516Y0167604D01*
X0219516Y0168673D01*
X0219107Y0169662D01*
X0218351Y0170418D01*
X0217362Y0170828D01*
X0216293Y0170828D01*
X0215304Y0170418D01*
X0214548Y0169662D01*
X0213340Y0168045D02*
X0185655Y0168045D01*
X0185655Y0166447D02*
X0202309Y0166447D01*
X0201628Y0164848D02*
X0185655Y0164848D01*
X0185655Y0163250D02*
X0201628Y0163250D01*
X0201628Y0161651D02*
X0185071Y0161651D01*
X0185255Y0160053D02*
X0201628Y0160053D01*
X0201628Y0158454D02*
X0189465Y0158454D01*
X0191063Y0156856D02*
X0202292Y0156856D01*
X0194810Y0153659D02*
X0234386Y0153659D01*
X0235985Y0155257D02*
X0193515Y0155257D01*
X0194791Y0152060D02*
X0232788Y0152060D01*
X0231189Y0150462D02*
X0193473Y0150462D01*
X0193601Y0148863D02*
X0229591Y0148863D01*
X0227992Y0147265D02*
X0197702Y0147265D01*
X0199300Y0145666D02*
X0201628Y0145666D01*
X0201628Y0144068D02*
X0200899Y0144068D01*
X0198465Y0140870D02*
X0145409Y0140870D01*
X0145742Y0139272D02*
X0167142Y0139272D01*
X0166549Y0137673D02*
X0147340Y0137673D01*
X0148939Y0136075D02*
X0166549Y0136075D01*
X0166549Y0134476D02*
X0150537Y0134476D01*
X0152136Y0132878D02*
X0166549Y0132878D01*
X0166630Y0131279D02*
X0153734Y0131279D01*
X0155333Y0129681D02*
X0166549Y0129681D01*
X0166549Y0128082D02*
X0156931Y0128082D01*
X0158530Y0126484D02*
X0166549Y0126484D01*
X0166585Y0124885D02*
X0160128Y0124885D01*
X0161727Y0123287D02*
X0168529Y0123287D01*
X0168432Y0121688D02*
X0168247Y0121688D01*
X0170061Y0119874D02*
X0170525Y0119682D01*
X0171595Y0119682D01*
X0172583Y0120091D01*
X0173339Y0120848D01*
X0173749Y0121836D01*
X0173749Y0122906D01*
X0173339Y0123894D01*
X0173133Y0124101D01*
X0174435Y0124101D01*
X0175255Y0124921D01*
X0175255Y0131199D01*
X0174654Y0131800D01*
X0175255Y0132401D01*
X0175255Y0133668D01*
X0194346Y0133668D01*
X0194635Y0133379D01*
X0195623Y0132969D01*
X0196693Y0132969D01*
X0197270Y0133208D01*
X0201987Y0128491D01*
X0201033Y0128095D01*
X0200276Y0127339D01*
X0199867Y0126351D01*
X0199867Y0125281D01*
X0200276Y0124293D01*
X0201033Y0123536D01*
X0202021Y0123127D01*
X0202430Y0123127D01*
X0221416Y0104140D01*
X0224158Y0104140D01*
X0223981Y0103713D01*
X0223981Y0103304D01*
X0219940Y0099263D01*
X0218148Y0099263D01*
X0217858Y0099552D01*
X0216870Y0099961D01*
X0215800Y0099961D01*
X0214812Y0099552D01*
X0214056Y0098796D01*
X0213646Y0097807D01*
X0213646Y0096738D01*
X0214027Y0095818D01*
X0128577Y0095818D01*
X0114487Y0109908D01*
X0114487Y0116622D01*
X0114776Y0116911D01*
X0115186Y0117899D01*
X0115186Y0118969D01*
X0114776Y0119957D01*
X0114020Y0120713D01*
X0113032Y0121123D01*
X0111962Y0121123D01*
X0110974Y0120713D01*
X0110217Y0119957D01*
X0109808Y0118969D01*
X0109808Y0117899D01*
X0110217Y0116911D01*
X0110506Y0116622D01*
X0110506Y0108259D01*
X0111672Y0107093D01*
X0125408Y0093357D01*
X0119719Y0093357D01*
X0105137Y0107939D01*
X0105137Y0149550D01*
X0105560Y0149127D01*
X0106548Y0148717D01*
X0107618Y0148717D01*
X0108607Y0149127D01*
X0109363Y0149883D01*
X0109772Y0150871D01*
X0109772Y0151941D01*
X0109389Y0152866D01*
X0112760Y0156237D01*
X0112760Y0155793D01*
X0113170Y0154804D01*
X0113459Y0154515D01*
X0113459Y0154499D01*
X0112370Y0154499D01*
X0111549Y0153679D01*
X0111549Y0147401D01*
X0112151Y0146800D01*
X0111549Y0146199D01*
X0111549Y0139921D01*
X0112370Y0139101D01*
X0113951Y0139101D01*
X0113951Y0127944D01*
X0122111Y0119784D01*
X0122111Y0118883D01*
X0122520Y0117895D01*
X0123277Y0117139D01*
X0124265Y0116729D01*
X0125166Y0116729D01*
X0127396Y0114499D01*
X0127370Y0114499D01*
X0126549Y0113679D01*
X0126549Y0107401D01*
X0126874Y0107077D01*
X0126844Y0107059D01*
X0126509Y0106724D01*
X0126272Y0106314D01*
X0126149Y0105856D01*
X0126149Y0103539D01*
X0130423Y0103539D01*
X0130423Y0102580D01*
X0131382Y0102580D01*
X0131382Y0103539D01*
X0135655Y0103539D01*
X0135655Y0105856D01*
X0135532Y0106314D01*
X0135295Y0106724D01*
X0134960Y0107059D01*
X0134930Y0107077D01*
X0135255Y0107401D01*
X0135255Y0108569D01*
X0136070Y0108569D01*
X0136568Y0108363D01*
X0137638Y0108363D01*
X0138626Y0108772D01*
X0139383Y0109529D01*
X0139792Y0110517D01*
X0139792Y0111587D01*
X0139383Y0112575D01*
X0138626Y0113332D01*
X0137638Y0113741D01*
X0136568Y0113741D01*
X0135580Y0113332D01*
X0135255Y0113007D01*
X0135255Y0113679D01*
X0134435Y0114499D01*
X0133026Y0114499D01*
X0127430Y0120095D01*
X0127079Y0120941D01*
X0126323Y0121698D01*
X0125477Y0122048D01*
X0117932Y0129593D01*
X0117932Y0139101D01*
X0119435Y0139101D01*
X0120255Y0139921D01*
X0120255Y0146199D01*
X0119654Y0146800D01*
X0120255Y0147401D01*
X0120255Y0153679D01*
X0119435Y0154499D01*
X0117440Y0154499D01*
X0117440Y0154515D01*
X0117729Y0154804D01*
X0118138Y0155793D01*
X0118138Y0156862D01*
X0117729Y0157851D01*
X0116973Y0158607D01*
X0115984Y0159017D01*
X0115540Y0159017D01*
X0116766Y0160243D01*
X0128203Y0160243D01*
X0128203Y0153267D01*
X0129023Y0152447D01*
X0129782Y0152447D01*
X0129782Y0151421D01*
X0130147Y0150539D01*
X0140609Y0140078D01*
X0140609Y0138134D01*
X0140974Y0137252D01*
X0159675Y0118551D01*
X0160350Y0117876D01*
X0161232Y0117510D01*
X0165636Y0117510D01*
X0166994Y0116153D01*
X0166503Y0116153D01*
X0165902Y0115552D01*
X0165301Y0116153D01*
X0159161Y0116153D01*
X0159477Y0116915D01*
X0159477Y0117984D01*
X0159068Y0118973D01*
X0158311Y0119729D01*
X0157323Y0120139D01*
X0156914Y0120139D01*
X0143523Y0133530D01*
X0142357Y0134696D01*
X0135255Y0134696D01*
X0135255Y0136199D01*
X0134654Y0136800D01*
X0135255Y0137401D01*
X0135255Y0143679D01*
X0134435Y0144499D01*
X0127370Y0144499D01*
X0126549Y0143679D01*
X0126549Y0142633D01*
X0126323Y0142859D01*
X0125335Y0143268D01*
X0124265Y0143268D01*
X0123277Y0142859D01*
X0122520Y0142103D01*
X0122111Y0141114D01*
X0122111Y0140045D01*
X0122520Y0139056D01*
X0123277Y0138300D01*
X0124265Y0137891D01*
X0125335Y0137891D01*
X0126323Y0138300D01*
X0126549Y0138526D01*
X0126549Y0137401D01*
X0127151Y0136800D01*
X0126549Y0136199D01*
X0126549Y0134759D01*
X0126323Y0134985D01*
X0125335Y0135394D01*
X0124265Y0135394D01*
X0123277Y0134985D01*
X0122520Y0134229D01*
X0122111Y0133240D01*
X0122111Y0132171D01*
X0122520Y0131182D01*
X0123277Y0130426D01*
X0124265Y0130017D01*
X0125335Y0130017D01*
X0126323Y0130426D01*
X0126549Y0130652D01*
X0126549Y0129921D01*
X0127370Y0129101D01*
X0134435Y0129101D01*
X0135255Y0129921D01*
X0135255Y0130715D01*
X0140708Y0130715D01*
X0154099Y0117324D01*
X0154099Y0116915D01*
X0154508Y0115926D01*
X0155265Y0115170D01*
X0156253Y0114761D01*
X0157323Y0114761D01*
X0158203Y0115125D01*
X0158203Y0112960D01*
X0154576Y0112960D01*
X0153878Y0113249D01*
X0152808Y0113249D01*
X0152111Y0112960D01*
X0150255Y0112960D01*
X0150255Y0113679D01*
X0149435Y0114499D01*
X0142370Y0114499D01*
X0141549Y0113679D01*
X0141549Y0107401D01*
X0141874Y0107077D01*
X0141844Y0107059D01*
X0141509Y0106724D01*
X0141272Y0106314D01*
X0141149Y0105856D01*
X0141149Y0103539D01*
X0145423Y0103539D01*
X0145423Y0102580D01*
X0146382Y0102580D01*
X0146382Y0098701D01*
X0149092Y0098701D01*
X0149550Y0098823D01*
X0149960Y0099060D01*
X0150295Y0099396D01*
X0150532Y0099806D01*
X0150655Y0100264D01*
X0150655Y0102580D01*
X0146382Y0102580D01*
X0146382Y0103539D01*
X0150655Y0103539D01*
X0150655Y0105856D01*
X0150532Y0106314D01*
X0150295Y0106724D01*
X0149960Y0107059D01*
X0149930Y0107077D01*
X0150255Y0107401D01*
X0150255Y0108160D01*
X0152111Y0108160D01*
X0152808Y0107871D01*
X0153878Y0107871D01*
X0154576Y0108160D01*
X0158311Y0108160D01*
X0159023Y0107447D01*
X0165301Y0107447D01*
X0165902Y0108048D01*
X0166503Y0107447D01*
X0172781Y0107447D01*
X0173601Y0108267D01*
X0173601Y0108652D01*
X0174495Y0108652D01*
X0181779Y0101368D01*
X0182068Y0100671D01*
X0182824Y0099914D01*
X0183812Y0099505D01*
X0184882Y0099505D01*
X0185580Y0099794D01*
X0185809Y0099794D01*
X0186691Y0100159D01*
X0187366Y0100834D01*
X0199936Y0113405D01*
X0200634Y0113694D01*
X0201390Y0114450D01*
X0201800Y0115438D01*
X0201800Y0116508D01*
X0201390Y0117496D01*
X0200634Y0118253D01*
X0199646Y0118662D01*
X0198576Y0118662D01*
X0197588Y0118253D01*
X0196831Y0117496D01*
X0196542Y0116799D01*
X0184839Y0105096D01*
X0177523Y0112411D01*
X0176848Y0113087D01*
X0175966Y0113452D01*
X0173601Y0113452D01*
X0173601Y0115333D01*
X0172781Y0116153D01*
X0171983Y0116153D01*
X0171983Y0117435D01*
X0171618Y0118317D01*
X0170943Y0118992D01*
X0170061Y0119874D01*
X0171444Y0118491D02*
X0198164Y0118491D01*
X0200058Y0118491D02*
X0207065Y0118491D01*
X0208664Y0116893D02*
X0201641Y0116893D01*
X0201740Y0115294D02*
X0210262Y0115294D01*
X0211861Y0113696D02*
X0200636Y0113696D01*
X0198629Y0112097D02*
X0213459Y0112097D01*
X0215058Y0110499D02*
X0197031Y0110499D01*
X0195432Y0108900D02*
X0216656Y0108900D01*
X0218255Y0107302D02*
X0193834Y0107302D01*
X0192235Y0105703D02*
X0219853Y0105703D01*
X0224143Y0104105D02*
X0190636Y0104105D01*
X0189038Y0102506D02*
X0223183Y0102506D01*
X0221585Y0100908D02*
X0187439Y0100908D01*
X0181969Y0100908D02*
X0150655Y0100908D01*
X0150655Y0102506D02*
X0180640Y0102506D01*
X0179042Y0104105D02*
X0150655Y0104105D01*
X0150655Y0105703D02*
X0177443Y0105703D01*
X0175845Y0107302D02*
X0150156Y0107302D01*
X0146382Y0102506D02*
X0145423Y0102506D01*
X0145423Y0102580D02*
X0145423Y0098701D01*
X0142712Y0098701D01*
X0142255Y0098823D01*
X0141844Y0099060D01*
X0141509Y0099396D01*
X0141272Y0099806D01*
X0141149Y0100264D01*
X0141149Y0102580D01*
X0145423Y0102580D01*
X0145423Y0100908D02*
X0146382Y0100908D01*
X0146382Y0099309D02*
X0145423Y0099309D01*
X0141595Y0099309D02*
X0135209Y0099309D01*
X0135295Y0099396D02*
X0135532Y0099806D01*
X0135655Y0100264D01*
X0135655Y0102580D01*
X0131382Y0102580D01*
X0131382Y0098701D01*
X0134092Y0098701D01*
X0134550Y0098823D01*
X0134960Y0099060D01*
X0135295Y0099396D01*
X0135655Y0100908D02*
X0141149Y0100908D01*
X0141149Y0102506D02*
X0135655Y0102506D01*
X0135655Y0104105D02*
X0141149Y0104105D01*
X0141149Y0105703D02*
X0135655Y0105703D01*
X0135156Y0107302D02*
X0141649Y0107302D01*
X0141549Y0108900D02*
X0138754Y0108900D01*
X0139784Y0110499D02*
X0141549Y0110499D01*
X0141549Y0112097D02*
X0139581Y0112097D01*
X0137747Y0113696D02*
X0141566Y0113696D01*
X0136459Y0113696D02*
X0135238Y0113696D01*
X0132231Y0115294D02*
X0155141Y0115294D01*
X0154108Y0116893D02*
X0130632Y0116893D01*
X0129034Y0118491D02*
X0152931Y0118491D01*
X0151333Y0120090D02*
X0127435Y0120090D01*
X0126332Y0121688D02*
X0149734Y0121688D01*
X0148136Y0123287D02*
X0124238Y0123287D01*
X0122640Y0124885D02*
X0146537Y0124885D01*
X0144939Y0126484D02*
X0121041Y0126484D01*
X0119443Y0128082D02*
X0143340Y0128082D01*
X0141742Y0129681D02*
X0135015Y0129681D01*
X0135255Y0136075D02*
X0142150Y0136075D01*
X0142576Y0134476D02*
X0143749Y0134476D01*
X0144175Y0132878D02*
X0145348Y0132878D01*
X0145773Y0131279D02*
X0146946Y0131279D01*
X0147372Y0129681D02*
X0148545Y0129681D01*
X0148970Y0128082D02*
X0150143Y0128082D01*
X0150569Y0126484D02*
X0151742Y0126484D01*
X0152167Y0124885D02*
X0153340Y0124885D01*
X0153766Y0123287D02*
X0154939Y0123287D01*
X0155364Y0121688D02*
X0156537Y0121688D01*
X0157441Y0120090D02*
X0158136Y0120090D01*
X0159267Y0118491D02*
X0159734Y0118491D01*
X0159468Y0116893D02*
X0166254Y0116893D01*
X0171983Y0116893D02*
X0196581Y0116893D01*
X0195038Y0115294D02*
X0173601Y0115294D01*
X0173601Y0113696D02*
X0193439Y0113696D01*
X0191841Y0112097D02*
X0177838Y0112097D01*
X0179436Y0110499D02*
X0190242Y0110499D01*
X0188644Y0108900D02*
X0181035Y0108900D01*
X0182633Y0107302D02*
X0187045Y0107302D01*
X0185447Y0105703D02*
X0184232Y0105703D01*
X0172579Y0120090D02*
X0205467Y0120090D01*
X0203868Y0121688D02*
X0173688Y0121688D01*
X0173591Y0123287D02*
X0201634Y0123287D01*
X0200031Y0124885D02*
X0175219Y0124885D01*
X0175255Y0126484D02*
X0199922Y0126484D01*
X0201020Y0128082D02*
X0175255Y0128082D01*
X0175255Y0129681D02*
X0200797Y0129681D01*
X0199198Y0131279D02*
X0175174Y0131279D01*
X0175255Y0132878D02*
X0197600Y0132878D01*
X0201456Y0134652D02*
X0212551Y0134652D01*
X0212170Y0133733D01*
X0212170Y0132663D01*
X0212579Y0131674D01*
X0213336Y0130918D01*
X0214324Y0130509D01*
X0215394Y0130509D01*
X0216382Y0130918D01*
X0216671Y0131207D01*
X0223877Y0131207D01*
X0238641Y0116443D01*
X0264224Y0116443D01*
X0263843Y0115524D01*
X0263843Y0114454D01*
X0264253Y0113466D01*
X0264282Y0113436D01*
X0262566Y0113436D01*
X0261746Y0112616D01*
X0261746Y0106153D01*
X0260467Y0106153D01*
X0258680Y0107939D01*
X0257514Y0109105D01*
X0225737Y0109105D01*
X0225914Y0109533D01*
X0225914Y0110603D01*
X0225505Y0111591D01*
X0224748Y0112347D01*
X0223760Y0112757D01*
X0223351Y0112757D01*
X0201456Y0134652D01*
X0201631Y0134476D02*
X0212478Y0134476D01*
X0212170Y0132878D02*
X0203230Y0132878D01*
X0204828Y0131279D02*
X0212974Y0131279D01*
X0209624Y0126484D02*
X0228600Y0126484D01*
X0227002Y0128082D02*
X0208025Y0128082D01*
X0206427Y0129681D02*
X0225403Y0129681D01*
X0230175Y0134476D02*
X0241549Y0134476D01*
X0241549Y0132878D02*
X0231773Y0132878D01*
X0233372Y0131279D02*
X0241630Y0131279D01*
X0241549Y0129681D02*
X0234970Y0129681D01*
X0236569Y0128082D02*
X0241549Y0128082D01*
X0241549Y0126484D02*
X0238167Y0126484D01*
X0239766Y0124885D02*
X0241585Y0124885D01*
X0241364Y0123287D02*
X0242487Y0123287D01*
X0236593Y0118491D02*
X0217616Y0118491D01*
X0216018Y0120090D02*
X0234994Y0120090D01*
X0233396Y0121688D02*
X0214419Y0121688D01*
X0212821Y0123287D02*
X0231797Y0123287D01*
X0230199Y0124885D02*
X0211222Y0124885D01*
X0219215Y0116893D02*
X0238191Y0116893D01*
X0225914Y0110499D02*
X0261746Y0110499D01*
X0261746Y0112097D02*
X0224998Y0112097D01*
X0222412Y0113696D02*
X0264157Y0113696D01*
X0263843Y0115294D02*
X0220814Y0115294D01*
X0219986Y0099309D02*
X0218101Y0099309D01*
X0214569Y0099309D02*
X0150209Y0099309D01*
X0150238Y0113696D02*
X0158203Y0113696D01*
X0131382Y0102506D02*
X0130423Y0102506D01*
X0130423Y0102580D02*
X0130423Y0098701D01*
X0127712Y0098701D01*
X0127255Y0098823D01*
X0126844Y0099060D01*
X0126509Y0099396D01*
X0126272Y0099806D01*
X0126149Y0100264D01*
X0126149Y0102580D01*
X0130423Y0102580D01*
X0130423Y0100908D02*
X0131382Y0100908D01*
X0131382Y0099309D02*
X0130423Y0099309D01*
X0126595Y0099309D02*
X0125086Y0099309D01*
X0126149Y0100908D02*
X0123488Y0100908D01*
X0121889Y0102506D02*
X0126149Y0102506D01*
X0126149Y0104105D02*
X0120291Y0104105D01*
X0118692Y0105703D02*
X0126149Y0105703D01*
X0126649Y0107302D02*
X0117093Y0107302D01*
X0115495Y0108900D02*
X0126549Y0108900D01*
X0126549Y0110499D02*
X0114487Y0110499D01*
X0114487Y0112097D02*
X0126549Y0112097D01*
X0126566Y0113696D02*
X0114487Y0113696D01*
X0114487Y0115294D02*
X0126601Y0115294D01*
X0123870Y0116893D02*
X0114758Y0116893D01*
X0115186Y0118491D02*
X0122273Y0118491D01*
X0121805Y0120090D02*
X0114644Y0120090D01*
X0110350Y0120090D02*
X0105137Y0120090D01*
X0105137Y0121688D02*
X0120207Y0121688D01*
X0118608Y0123287D02*
X0105137Y0123287D01*
X0105137Y0124885D02*
X0117010Y0124885D01*
X0115411Y0126484D02*
X0105137Y0126484D01*
X0105137Y0128082D02*
X0113951Y0128082D01*
X0113951Y0129681D02*
X0105137Y0129681D01*
X0105137Y0131279D02*
X0113951Y0131279D01*
X0113951Y0132878D02*
X0105137Y0132878D01*
X0105137Y0134476D02*
X0113951Y0134476D01*
X0113951Y0136075D02*
X0105137Y0136075D01*
X0105137Y0137673D02*
X0113951Y0137673D01*
X0112198Y0139272D02*
X0105137Y0139272D01*
X0105137Y0140870D02*
X0111549Y0140870D01*
X0111549Y0142469D02*
X0105137Y0142469D01*
X0105137Y0144068D02*
X0111549Y0144068D01*
X0111549Y0145666D02*
X0105137Y0145666D01*
X0105137Y0147265D02*
X0111686Y0147265D01*
X0111549Y0148863D02*
X0107970Y0148863D01*
X0106197Y0148863D02*
X0105137Y0148863D01*
X0101156Y0148863D02*
X0069704Y0148863D01*
X0069704Y0147265D02*
X0101156Y0147265D01*
X0101156Y0145666D02*
X0069704Y0145666D01*
X0069704Y0144068D02*
X0101156Y0144068D01*
X0101156Y0142469D02*
X0069704Y0142469D01*
X0069704Y0140870D02*
X0101156Y0140870D01*
X0101156Y0139272D02*
X0069704Y0139272D01*
X0069704Y0137673D02*
X0101156Y0137673D01*
X0101156Y0136075D02*
X0069704Y0136075D01*
X0069704Y0134476D02*
X0101156Y0134476D01*
X0101156Y0132878D02*
X0069704Y0132878D01*
X0069704Y0131279D02*
X0101156Y0131279D01*
X0101156Y0129681D02*
X0069704Y0129681D01*
X0069704Y0128082D02*
X0101156Y0128082D01*
X0101156Y0126484D02*
X0069704Y0126484D01*
X0069704Y0124885D02*
X0101156Y0124885D01*
X0101156Y0123287D02*
X0069704Y0123287D01*
X0069704Y0121688D02*
X0089603Y0121688D01*
X0089545Y0121664D02*
X0088264Y0120383D01*
X0087570Y0118708D01*
X0087570Y0116896D01*
X0088264Y0115221D01*
X0089545Y0113940D01*
X0091220Y0113246D01*
X0093032Y0113246D01*
X0094707Y0113940D01*
X0095988Y0115221D01*
X0096682Y0116896D01*
X0096682Y0118708D01*
X0095988Y0120383D01*
X0094707Y0121664D01*
X0093032Y0122358D01*
X0091220Y0122358D01*
X0089545Y0121664D01*
X0088142Y0120090D02*
X0069704Y0120090D01*
X0069704Y0118491D02*
X0087570Y0118491D01*
X0087571Y0116893D02*
X0069704Y0116893D01*
X0069704Y0115294D02*
X0088233Y0115294D01*
X0090134Y0113696D02*
X0070837Y0113696D01*
X0072436Y0112097D02*
X0101156Y0112097D01*
X0101156Y0110499D02*
X0074034Y0110499D01*
X0075633Y0108900D02*
X0101156Y0108900D01*
X0101156Y0107302D02*
X0077231Y0107302D01*
X0078830Y0105703D02*
X0101743Y0105703D01*
X0103341Y0104105D02*
X0080428Y0104105D01*
X0082027Y0102506D02*
X0104940Y0102506D01*
X0106539Y0100908D02*
X0083625Y0100908D01*
X0085224Y0099309D02*
X0088843Y0099309D01*
X0087842Y0097711D02*
X0086822Y0097711D01*
X0095408Y0099309D02*
X0102717Y0099309D01*
X0103104Y0099469D02*
X0102115Y0099060D01*
X0101359Y0098303D01*
X0100949Y0097315D01*
X0100949Y0096245D01*
X0101359Y0095257D01*
X0102115Y0094501D01*
X0103104Y0094091D01*
X0103512Y0094091D01*
X0107839Y0089764D01*
X0107839Y0089356D01*
X0108249Y0088367D01*
X0109005Y0087611D01*
X0109993Y0087202D01*
X0111063Y0087202D01*
X0112051Y0087611D01*
X0112808Y0088367D01*
X0113217Y0089356D01*
X0113217Y0090425D01*
X0112808Y0091414D01*
X0112051Y0092170D01*
X0111063Y0092580D01*
X0110654Y0092580D01*
X0106327Y0096906D01*
X0106327Y0097315D01*
X0105918Y0098303D01*
X0105162Y0099060D01*
X0104173Y0099469D01*
X0103104Y0099469D01*
X0104560Y0099309D02*
X0108137Y0099309D01*
X0109736Y0097711D02*
X0106164Y0097711D01*
X0107122Y0096112D02*
X0111334Y0096112D01*
X0112933Y0094514D02*
X0108720Y0094514D01*
X0110319Y0092915D02*
X0114531Y0092915D01*
X0116130Y0091317D02*
X0112848Y0091317D01*
X0113217Y0089718D02*
X0117728Y0089718D01*
X0118563Y0094514D02*
X0124251Y0094514D01*
X0122653Y0096112D02*
X0116964Y0096112D01*
X0115366Y0097711D02*
X0121054Y0097711D01*
X0119456Y0099309D02*
X0113767Y0099309D01*
X0112169Y0100908D02*
X0117857Y0100908D01*
X0116259Y0102506D02*
X0110570Y0102506D01*
X0108972Y0104105D02*
X0114660Y0104105D01*
X0113062Y0105703D02*
X0107373Y0105703D01*
X0105775Y0107302D02*
X0111463Y0107302D01*
X0110506Y0108900D02*
X0105137Y0108900D01*
X0105137Y0110499D02*
X0110506Y0110499D01*
X0110506Y0112097D02*
X0105137Y0112097D01*
X0105137Y0113696D02*
X0110506Y0113696D01*
X0110506Y0115294D02*
X0105137Y0115294D01*
X0105137Y0116893D02*
X0110235Y0116893D01*
X0109808Y0118491D02*
X0105137Y0118491D01*
X0101156Y0118491D02*
X0096682Y0118491D01*
X0096680Y0116893D02*
X0101156Y0116893D01*
X0101156Y0115294D02*
X0096018Y0115294D01*
X0094118Y0113696D02*
X0101156Y0113696D01*
X0101156Y0120090D02*
X0096109Y0120090D01*
X0094649Y0121688D02*
X0101156Y0121688D01*
X0117932Y0129681D02*
X0126789Y0129681D01*
X0122480Y0131279D02*
X0117932Y0131279D01*
X0117932Y0132878D02*
X0122111Y0132878D01*
X0122768Y0134476D02*
X0117932Y0134476D01*
X0117932Y0136075D02*
X0126549Y0136075D01*
X0126549Y0137673D02*
X0117932Y0137673D01*
X0119606Y0139272D02*
X0122431Y0139272D01*
X0122111Y0140870D02*
X0120255Y0140870D01*
X0120255Y0142469D02*
X0122887Y0142469D01*
X0120255Y0144068D02*
X0126938Y0144068D01*
X0120255Y0145666D02*
X0135020Y0145666D01*
X0134867Y0144068D02*
X0136619Y0144068D01*
X0135255Y0142469D02*
X0138217Y0142469D01*
X0139816Y0140870D02*
X0135255Y0140870D01*
X0135255Y0139272D02*
X0140609Y0139272D01*
X0140799Y0137673D02*
X0135255Y0137673D01*
X0143407Y0144068D02*
X0178203Y0144068D01*
X0179001Y0142469D02*
X0145005Y0142469D01*
X0141808Y0145666D02*
X0174106Y0145666D01*
X0173784Y0147265D02*
X0140210Y0147265D01*
X0138611Y0148863D02*
X0174556Y0148863D01*
X0178332Y0150462D02*
X0137013Y0150462D01*
X0136798Y0152060D02*
X0135414Y0152060D01*
X0139163Y0152060D02*
X0140122Y0152060D01*
X0140122Y0153659D02*
X0139163Y0153659D01*
X0139163Y0155257D02*
X0140122Y0155257D01*
X0140122Y0156856D02*
X0176549Y0156856D01*
X0176549Y0158454D02*
X0144001Y0158454D01*
X0143985Y0160053D02*
X0176549Y0160053D01*
X0176734Y0161651D02*
X0160498Y0161651D01*
X0162096Y0163250D02*
X0176149Y0163250D01*
X0176149Y0164848D02*
X0163695Y0164848D01*
X0165293Y0166447D02*
X0176149Y0166447D01*
X0176149Y0168045D02*
X0166892Y0168045D01*
X0168490Y0169644D02*
X0177025Y0169644D01*
X0180423Y0169644D02*
X0181382Y0169644D01*
X0181382Y0168045D02*
X0180423Y0168045D01*
X0180423Y0166447D02*
X0181382Y0166447D01*
X0173286Y0174439D02*
X0228124Y0174439D01*
X0228124Y0172841D02*
X0171687Y0172841D01*
X0170089Y0171242D02*
X0228124Y0171242D01*
X0227426Y0169644D02*
X0219115Y0169644D01*
X0219516Y0168045D02*
X0227651Y0168045D01*
X0229549Y0166447D02*
X0219495Y0166447D01*
X0220176Y0164848D02*
X0231574Y0164848D01*
X0233173Y0163250D02*
X0220176Y0163250D01*
X0220176Y0161651D02*
X0233203Y0161651D01*
X0233203Y0160053D02*
X0220176Y0160053D01*
X0220176Y0158454D02*
X0233203Y0158454D01*
X0237583Y0156856D02*
X0219513Y0156856D01*
X0220176Y0145666D02*
X0220572Y0145666D01*
X0223910Y0145666D02*
X0226394Y0145666D01*
X0229985Y0142469D02*
X0244364Y0142469D01*
X0244364Y0144068D02*
X0231584Y0144068D01*
X0233182Y0145666D02*
X0244364Y0145666D01*
X0244364Y0147265D02*
X0234781Y0147265D01*
X0236379Y0148863D02*
X0244364Y0148863D01*
X0244364Y0150462D02*
X0237978Y0150462D01*
X0239576Y0152060D02*
X0244364Y0152060D01*
X0244364Y0153659D02*
X0241175Y0153659D01*
X0242773Y0155257D02*
X0244364Y0155257D01*
X0248601Y0160053D02*
X0250710Y0160053D01*
X0252308Y0161651D02*
X0248601Y0161651D01*
X0248601Y0163250D02*
X0253907Y0163250D01*
X0255505Y0164848D02*
X0248601Y0164848D01*
X0247279Y0166447D02*
X0257104Y0166447D01*
X0258702Y0168045D02*
X0247279Y0168045D01*
X0247279Y0169644D02*
X0260301Y0169644D01*
X0260922Y0171242D02*
X0247279Y0171242D01*
X0248054Y0172841D02*
X0260559Y0172841D01*
X0260559Y0174439D02*
X0249652Y0174439D01*
X0246061Y0177636D02*
X0234554Y0177636D01*
X0236152Y0179235D02*
X0241670Y0179235D01*
X0241509Y0179396D02*
X0241844Y0179060D01*
X0242255Y0178823D01*
X0242712Y0178701D01*
X0245423Y0178701D01*
X0245423Y0182580D01*
X0246382Y0182580D01*
X0246382Y0178701D01*
X0247125Y0178701D01*
X0243519Y0175094D01*
X0242844Y0174419D01*
X0242479Y0173537D01*
X0242479Y0166153D01*
X0241503Y0166153D01*
X0240902Y0165552D01*
X0240301Y0166153D01*
X0235900Y0166153D01*
X0232804Y0169249D01*
X0232804Y0169658D01*
X0232394Y0170646D01*
X0232105Y0170935D01*
X0232105Y0175188D01*
X0241149Y0184232D01*
X0241149Y0183539D01*
X0245423Y0183539D01*
X0245423Y0182580D01*
X0241149Y0182580D01*
X0241149Y0180264D01*
X0241272Y0179806D01*
X0241509Y0179396D01*
X0241149Y0180833D02*
X0237751Y0180833D01*
X0239349Y0182432D02*
X0241149Y0182432D01*
X0241149Y0184030D02*
X0240948Y0184030D01*
X0245423Y0182432D02*
X0246382Y0182432D01*
X0246382Y0180833D02*
X0245423Y0180833D01*
X0245423Y0179235D02*
X0246382Y0179235D01*
X0244462Y0176038D02*
X0232955Y0176038D01*
X0232105Y0174439D02*
X0242864Y0174439D01*
X0243519Y0175094D02*
X0243519Y0175094D01*
X0242479Y0172841D02*
X0232105Y0172841D01*
X0232105Y0171242D02*
X0242479Y0171242D01*
X0242479Y0169644D02*
X0232804Y0169644D01*
X0234008Y0168045D02*
X0242479Y0168045D01*
X0242479Y0166447D02*
X0235606Y0166447D01*
X0228124Y0176038D02*
X0174884Y0176038D01*
X0172451Y0179235D02*
X0140680Y0179235D01*
X0141372Y0179928D02*
X0139586Y0178141D01*
X0139586Y0176553D01*
X0141683Y0176553D01*
X0141683Y0172280D01*
X0142642Y0172280D01*
X0142642Y0176553D01*
X0144958Y0176553D01*
X0145416Y0176430D01*
X0145826Y0176193D01*
X0146161Y0175858D01*
X0146179Y0175828D01*
X0146503Y0176153D01*
X0152781Y0176153D01*
X0153601Y0175333D01*
X0153601Y0168267D01*
X0152781Y0167447D01*
X0152298Y0167447D01*
X0152298Y0166910D01*
X0152587Y0166213D01*
X0152587Y0165143D01*
X0152206Y0164224D01*
X0157440Y0164224D01*
X0173006Y0179790D01*
X0173911Y0180695D01*
X0173636Y0180809D01*
X0172511Y0181934D01*
X0171902Y0183404D01*
X0171902Y0190196D01*
X0172511Y0191666D01*
X0173568Y0192723D01*
X0168236Y0192723D01*
X0169293Y0191666D01*
X0169902Y0190196D01*
X0169902Y0183404D01*
X0169293Y0181934D01*
X0168168Y0180809D01*
X0166698Y0180200D01*
X0165107Y0180200D01*
X0163636Y0180809D01*
X0162511Y0181934D01*
X0161902Y0183404D01*
X0161902Y0190196D01*
X0162511Y0191666D01*
X0163568Y0192723D01*
X0158236Y0192723D01*
X0159293Y0191666D01*
X0159902Y0190196D01*
X0159902Y0183404D01*
X0159293Y0181934D01*
X0158168Y0180809D01*
X0156698Y0180200D01*
X0155107Y0180200D01*
X0153636Y0180809D01*
X0152511Y0181934D01*
X0151902Y0183404D01*
X0151902Y0190196D01*
X0152511Y0191666D01*
X0153568Y0192723D01*
X0148802Y0192723D01*
X0149258Y0192266D01*
X0149665Y0191706D01*
X0149980Y0191089D01*
X0150194Y0190430D01*
X0150302Y0189746D01*
X0150302Y0186800D01*
X0145902Y0186800D01*
X0145902Y0186800D01*
X0145902Y0179800D01*
X0145556Y0179800D01*
X0144872Y0179908D01*
X0144213Y0180122D01*
X0143596Y0180437D01*
X0143036Y0180844D01*
X0142546Y0181334D01*
X0142538Y0181344D01*
X0142538Y0181094D01*
X0141372Y0179928D01*
X0142278Y0180833D02*
X0143050Y0180833D01*
X0145902Y0180833D02*
X0145902Y0180833D01*
X0145902Y0179800D02*
X0146249Y0179800D01*
X0146933Y0179908D01*
X0147591Y0180122D01*
X0148208Y0180437D01*
X0148769Y0180844D01*
X0149258Y0181334D01*
X0149665Y0181894D01*
X0149980Y0182511D01*
X0150194Y0183170D01*
X0150302Y0183854D01*
X0150302Y0186800D01*
X0145902Y0186800D01*
X0145902Y0179800D01*
X0145902Y0182432D02*
X0145902Y0182432D01*
X0145902Y0184030D02*
X0145902Y0184030D01*
X0145902Y0185629D02*
X0145902Y0185629D01*
X0145902Y0186800D02*
X0145902Y0186800D01*
X0150302Y0187227D02*
X0151902Y0187227D01*
X0151902Y0185629D02*
X0150302Y0185629D01*
X0150302Y0184030D02*
X0151902Y0184030D01*
X0152305Y0182432D02*
X0149940Y0182432D01*
X0148754Y0180833D02*
X0153612Y0180833D01*
X0158192Y0180833D02*
X0163612Y0180833D01*
X0162305Y0182432D02*
X0159499Y0182432D01*
X0159902Y0184030D02*
X0161902Y0184030D01*
X0161902Y0185629D02*
X0159902Y0185629D01*
X0159902Y0187227D02*
X0161902Y0187227D01*
X0161902Y0188826D02*
X0159902Y0188826D01*
X0159807Y0190424D02*
X0161997Y0190424D01*
X0162868Y0192023D02*
X0158936Y0192023D01*
X0152868Y0192023D02*
X0149435Y0192023D01*
X0150195Y0190424D02*
X0151997Y0190424D01*
X0151902Y0188826D02*
X0150302Y0188826D01*
X0168192Y0180833D02*
X0173612Y0180833D01*
X0172305Y0182432D02*
X0169499Y0182432D01*
X0169902Y0184030D02*
X0171902Y0184030D01*
X0171902Y0185629D02*
X0169902Y0185629D01*
X0169902Y0187227D02*
X0171902Y0187227D01*
X0171902Y0188826D02*
X0169902Y0188826D01*
X0169807Y0190424D02*
X0171997Y0190424D01*
X0172868Y0192023D02*
X0168936Y0192023D01*
X0170853Y0177636D02*
X0139586Y0177636D01*
X0141683Y0176038D02*
X0142642Y0176038D01*
X0142642Y0174439D02*
X0141683Y0174439D01*
X0141683Y0172841D02*
X0142642Y0172841D01*
X0142642Y0171320D02*
X0142642Y0167047D01*
X0144958Y0167047D01*
X0145416Y0167170D01*
X0145826Y0167407D01*
X0146161Y0167742D01*
X0146179Y0167772D01*
X0146503Y0167447D01*
X0147498Y0167447D01*
X0147498Y0166910D01*
X0147209Y0166213D01*
X0147209Y0165143D01*
X0147590Y0164224D01*
X0133542Y0164224D01*
X0137830Y0168511D01*
X0137926Y0168152D01*
X0138163Y0167742D01*
X0138498Y0167407D01*
X0138908Y0167170D01*
X0139366Y0167047D01*
X0141683Y0167047D01*
X0141683Y0171320D01*
X0142642Y0171320D01*
X0142642Y0171242D02*
X0141683Y0171242D01*
X0141683Y0169644D02*
X0142642Y0169644D01*
X0142642Y0168045D02*
X0141683Y0168045D01*
X0137988Y0168045D02*
X0137364Y0168045D01*
X0135766Y0166447D02*
X0147306Y0166447D01*
X0147331Y0164848D02*
X0134167Y0164848D01*
X0128203Y0160053D02*
X0116576Y0160053D01*
X0117126Y0158454D02*
X0128203Y0158454D01*
X0128203Y0156856D02*
X0118138Y0156856D01*
X0117917Y0155257D02*
X0128203Y0155257D01*
X0128203Y0153659D02*
X0120255Y0153659D01*
X0120255Y0152060D02*
X0129782Y0152060D01*
X0130225Y0150462D02*
X0120255Y0150462D01*
X0120255Y0148863D02*
X0131823Y0148863D01*
X0133422Y0147265D02*
X0120118Y0147265D01*
X0111549Y0150462D02*
X0109603Y0150462D01*
X0109723Y0152060D02*
X0111549Y0152060D01*
X0111549Y0153659D02*
X0110182Y0153659D01*
X0111781Y0155257D02*
X0112982Y0155257D01*
X0107009Y0160053D02*
X0069704Y0160053D01*
X0069704Y0161651D02*
X0108608Y0161651D01*
X0110206Y0163250D02*
X0069704Y0163250D01*
X0073521Y0164848D02*
X0111805Y0164848D01*
X0113403Y0166447D02*
X0074250Y0166447D01*
X0075848Y0168045D02*
X0115002Y0168045D01*
X0118203Y0169644D02*
X0077447Y0169644D01*
X0079045Y0171242D02*
X0085417Y0171242D01*
X0083818Y0172841D02*
X0080644Y0172841D01*
X0069704Y0158454D02*
X0105411Y0158454D01*
X0103812Y0156856D02*
X0069704Y0156856D01*
X0069704Y0155257D02*
X0102214Y0155257D01*
X0101156Y0153659D02*
X0069704Y0153659D01*
X0069704Y0152060D02*
X0101156Y0152060D01*
X0101156Y0150462D02*
X0069704Y0150462D01*
X0096410Y0097711D02*
X0101113Y0097711D01*
X0101005Y0096112D02*
X0096682Y0096112D01*
X0096380Y0094514D02*
X0102102Y0094514D01*
X0104689Y0092915D02*
X0095335Y0092915D01*
X0093216Y0091317D02*
X0106287Y0091317D01*
X0107839Y0089718D02*
X0094815Y0089718D01*
X0096413Y0088120D02*
X0108496Y0088120D01*
X0112560Y0088120D02*
X0203872Y0088120D01*
X0208374Y0091317D02*
X0235224Y0091317D01*
X0236823Y0089718D02*
X0209972Y0089718D01*
X0211571Y0088120D02*
X0238421Y0088120D01*
X0240020Y0086521D02*
X0213169Y0086521D01*
X0214768Y0084923D02*
X0241618Y0084923D01*
X0242229Y0083324D02*
X0216366Y0083324D01*
X0217965Y0081726D02*
X0242261Y0081726D01*
X0241650Y0080127D02*
X0219563Y0080127D01*
X0221162Y0078529D02*
X0240052Y0078529D01*
X0238453Y0076930D02*
X0222760Y0076930D01*
X0224359Y0075332D02*
X0235867Y0075332D01*
X0234824Y0073733D02*
X0225957Y0073733D01*
X0227556Y0072134D02*
X0232378Y0072134D01*
X0230990Y0070536D02*
X0229155Y0070536D01*
X0230753Y0068937D02*
X0230971Y0068937D01*
X0234741Y0072134D02*
X0235010Y0072134D01*
X0244442Y0059346D02*
X0257160Y0059346D01*
X0257160Y0057748D02*
X0245387Y0057748D01*
X0246986Y0056149D02*
X0257160Y0056149D01*
X0257160Y0054551D02*
X0248584Y0054551D01*
X0250183Y0052952D02*
X0257160Y0052952D01*
X0257160Y0051354D02*
X0251782Y0051354D01*
X0253802Y0049755D02*
X0257160Y0049755D01*
X0257160Y0048157D02*
X0255707Y0048157D01*
X0255934Y0046558D02*
X0257160Y0046558D01*
X0257160Y0044960D02*
X0254932Y0044960D01*
X0261141Y0044960D02*
X0303912Y0044960D01*
X0303912Y0046558D02*
X0261141Y0046558D01*
X0261141Y0048157D02*
X0303912Y0048157D01*
X0303912Y0049755D02*
X0261141Y0049755D01*
X0261141Y0051354D02*
X0304905Y0051354D01*
X0307893Y0046558D02*
X0314377Y0046558D01*
X0313548Y0044960D02*
X0307893Y0044960D01*
X0307893Y0043361D02*
X0313846Y0043361D01*
X0313522Y0041763D02*
X0307893Y0041763D01*
X0307893Y0040164D02*
X0311924Y0040164D01*
X0310325Y0038566D02*
X0307893Y0038566D01*
X0308515Y0036967D02*
X0308727Y0036967D01*
X0311160Y0033770D02*
X0323474Y0033770D01*
X0322057Y0035369D02*
X0312758Y0035369D01*
X0314357Y0036967D02*
X0321990Y0036967D01*
X0322612Y0038566D02*
X0315955Y0038566D01*
X0317554Y0040164D02*
X0322612Y0040164D01*
X0322612Y0041763D02*
X0318227Y0041763D01*
X0318628Y0043361D02*
X0322612Y0043361D01*
X0322612Y0044960D02*
X0318926Y0044960D01*
X0318096Y0046558D02*
X0322612Y0046558D01*
X0322612Y0048157D02*
X0311767Y0048157D01*
X0313366Y0049755D02*
X0322612Y0049755D01*
X0322612Y0051354D02*
X0314964Y0051354D01*
X0317550Y0052952D02*
X0322612Y0052952D01*
X0322612Y0054551D02*
X0318434Y0054551D01*
X0318158Y0056149D02*
X0322612Y0056149D01*
X0322612Y0057748D02*
X0315269Y0057748D01*
X0313671Y0059346D02*
X0322612Y0059346D01*
X0322612Y0060945D02*
X0312072Y0060945D01*
X0310474Y0062543D02*
X0322612Y0062543D01*
X0321454Y0064142D02*
X0308875Y0064142D01*
X0307277Y0065740D02*
X0313946Y0065740D01*
X0313056Y0067339D02*
X0305678Y0067339D01*
X0304080Y0068937D02*
X0311737Y0068937D01*
X0310139Y0070536D02*
X0302481Y0070536D01*
X0300883Y0072134D02*
X0308540Y0072134D01*
X0306942Y0073733D02*
X0299284Y0073733D01*
X0297686Y0075332D02*
X0305343Y0075332D01*
X0303745Y0076930D02*
X0296087Y0076930D01*
X0294489Y0078529D02*
X0302146Y0078529D01*
X0300548Y0080127D02*
X0292890Y0080127D01*
X0291292Y0081726D02*
X0298949Y0081726D01*
X0297350Y0083324D02*
X0289693Y0083324D01*
X0288095Y0084923D02*
X0295752Y0084923D01*
X0302122Y0088120D02*
X0386155Y0088120D01*
X0386295Y0087878D02*
X0386862Y0087138D01*
X0387522Y0086479D01*
X0388262Y0085911D01*
X0389070Y0085444D01*
X0389931Y0085088D01*
X0390832Y0084846D01*
X0391423Y0084768D01*
X0391423Y0091039D01*
X0393023Y0091039D01*
X0393023Y0084768D01*
X0393614Y0084846D01*
X0394515Y0085088D01*
X0395377Y0085444D01*
X0396184Y0085911D01*
X0396924Y0086479D01*
X0397584Y0087138D01*
X0398152Y0087878D01*
X0398618Y0088686D01*
X0398975Y0089547D01*
X0399216Y0090448D01*
X0399294Y0091039D01*
X0393023Y0091039D01*
X0393023Y0092639D01*
X0399294Y0092639D01*
X0399216Y0093230D01*
X0398975Y0094131D01*
X0398618Y0094993D01*
X0398152Y0095801D01*
X0397584Y0096541D01*
X0396924Y0097200D01*
X0396184Y0097768D01*
X0395377Y0098234D01*
X0394515Y0098591D01*
X0393614Y0098833D01*
X0393023Y0098910D01*
X0393023Y0092639D01*
X0391423Y0092639D01*
X0391423Y0091039D01*
X0385152Y0091039D01*
X0385230Y0090448D01*
X0385471Y0089547D01*
X0385828Y0088686D01*
X0386295Y0087878D01*
X0387479Y0086521D02*
X0303721Y0086521D01*
X0305319Y0084923D02*
X0390547Y0084923D01*
X0391423Y0084923D02*
X0393023Y0084923D01*
X0393899Y0084923D02*
X0408433Y0084923D01*
X0408433Y0086521D02*
X0396967Y0086521D01*
X0398291Y0088120D02*
X0408433Y0088120D01*
X0408433Y0089718D02*
X0399021Y0089718D01*
X0399258Y0092915D02*
X0408433Y0092915D01*
X0408433Y0091317D02*
X0393023Y0091317D01*
X0393023Y0092915D02*
X0391423Y0092915D01*
X0391423Y0092639D02*
X0391423Y0098910D01*
X0390832Y0098833D01*
X0389931Y0098591D01*
X0389070Y0098234D01*
X0388262Y0097768D01*
X0387522Y0097200D01*
X0386862Y0096541D01*
X0386295Y0095801D01*
X0385828Y0094993D01*
X0385471Y0094131D01*
X0385230Y0093230D01*
X0385152Y0092639D01*
X0391423Y0092639D01*
X0391423Y0091317D02*
X0298925Y0091317D01*
X0297327Y0092915D02*
X0385188Y0092915D01*
X0385630Y0094514D02*
X0295728Y0094514D01*
X0294130Y0096112D02*
X0386534Y0096112D01*
X0388187Y0097711D02*
X0292531Y0097711D01*
X0290932Y0099309D02*
X0305143Y0099309D01*
X0304871Y0099422D02*
X0305859Y0099013D01*
X0306929Y0099013D01*
X0307918Y0099422D01*
X0308674Y0100178D01*
X0309083Y0101167D01*
X0309083Y0101575D01*
X0309955Y0102447D01*
X0315301Y0102447D01*
X0315902Y0103048D01*
X0316503Y0102447D01*
X0322781Y0102447D01*
X0323601Y0103267D01*
X0323601Y0104823D01*
X0324560Y0104426D01*
X0325630Y0104426D01*
X0326618Y0104835D01*
X0327375Y0105592D01*
X0327784Y0106580D01*
X0327784Y0107650D01*
X0327375Y0108638D01*
X0326618Y0109395D01*
X0325630Y0109804D01*
X0324560Y0109804D01*
X0323601Y0109407D01*
X0323601Y0110333D01*
X0322781Y0111153D01*
X0316503Y0111153D01*
X0315902Y0110552D01*
X0315301Y0111153D01*
X0309023Y0111153D01*
X0308203Y0110333D01*
X0308203Y0106325D01*
X0306268Y0104391D01*
X0305859Y0104391D01*
X0304871Y0103981D01*
X0304115Y0103225D01*
X0303705Y0102236D01*
X0303705Y0101167D01*
X0304115Y0100178D01*
X0304871Y0099422D01*
X0303813Y0100908D02*
X0289334Y0100908D01*
X0287735Y0102506D02*
X0303817Y0102506D01*
X0305169Y0104105D02*
X0286137Y0104105D01*
X0285255Y0105703D02*
X0307581Y0105703D01*
X0308203Y0107302D02*
X0285255Y0107302D01*
X0285255Y0108900D02*
X0308203Y0108900D01*
X0308369Y0110499D02*
X0285255Y0110499D01*
X0284951Y0112097D02*
X0309179Y0112097D01*
X0307803Y0113696D02*
X0285255Y0113696D01*
X0285255Y0115294D02*
X0307803Y0115294D01*
X0307803Y0118491D02*
X0285255Y0118491D01*
X0285255Y0116893D02*
X0311682Y0116893D01*
X0311683Y0118491D02*
X0312642Y0118491D01*
X0312642Y0120090D02*
X0311683Y0120090D01*
X0311683Y0123287D02*
X0312642Y0123287D01*
X0312642Y0124885D02*
X0311683Y0124885D01*
X0311682Y0126484D02*
X0289208Y0126484D01*
X0287610Y0124885D02*
X0307803Y0124885D01*
X0307890Y0123287D02*
X0286011Y0123287D01*
X0284413Y0121688D02*
X0317691Y0121688D01*
X0321672Y0121688D02*
X0391423Y0121688D01*
X0391423Y0120961D02*
X0385152Y0120961D01*
X0385230Y0120370D01*
X0385471Y0119469D01*
X0385828Y0118607D01*
X0386295Y0117799D01*
X0386862Y0117059D01*
X0387522Y0116400D01*
X0388262Y0115832D01*
X0389070Y0115366D01*
X0389931Y0115009D01*
X0390832Y0114767D01*
X0391423Y0114690D01*
X0391423Y0120961D01*
X0391423Y0122561D01*
X0391423Y0128832D01*
X0390832Y0128754D01*
X0389931Y0128512D01*
X0389070Y0128156D01*
X0388262Y0127689D01*
X0387522Y0127121D01*
X0386862Y0126462D01*
X0386295Y0125722D01*
X0385828Y0124914D01*
X0385471Y0124053D01*
X0385230Y0123152D01*
X0385152Y0122561D01*
X0391423Y0122561D01*
X0393023Y0122561D01*
X0393023Y0128832D01*
X0393614Y0128754D01*
X0394515Y0128512D01*
X0395377Y0128156D01*
X0396184Y0127689D01*
X0396924Y0127121D01*
X0397584Y0126462D01*
X0398152Y0125722D01*
X0398618Y0124914D01*
X0398975Y0124053D01*
X0399216Y0123152D01*
X0399294Y0122561D01*
X0393023Y0122561D01*
X0393023Y0120961D01*
X0399294Y0120961D01*
X0399216Y0120370D01*
X0398975Y0119469D01*
X0398618Y0118607D01*
X0398152Y0117799D01*
X0397584Y0117059D01*
X0396924Y0116400D01*
X0396184Y0115832D01*
X0395377Y0115366D01*
X0394515Y0115009D01*
X0393614Y0114767D01*
X0393023Y0114690D01*
X0393023Y0120961D01*
X0391423Y0120961D01*
X0391423Y0120090D02*
X0393023Y0120090D01*
X0393023Y0121688D02*
X0408433Y0121688D01*
X0408433Y0120090D02*
X0399141Y0120090D01*
X0398551Y0118491D02*
X0408433Y0118491D01*
X0408433Y0116893D02*
X0397417Y0116893D01*
X0395204Y0115294D02*
X0408433Y0115294D01*
X0408433Y0113696D02*
X0323601Y0113696D01*
X0323601Y0115294D02*
X0389242Y0115294D01*
X0391423Y0115294D02*
X0393023Y0115294D01*
X0393023Y0116893D02*
X0391423Y0116893D01*
X0391423Y0118491D02*
X0393023Y0118491D01*
X0387029Y0116893D02*
X0323601Y0116893D01*
X0323601Y0118491D02*
X0385895Y0118491D01*
X0385305Y0120090D02*
X0323601Y0120090D01*
X0323601Y0123287D02*
X0385266Y0123287D01*
X0385816Y0124885D02*
X0323601Y0124885D01*
X0323601Y0126484D02*
X0386884Y0126484D01*
X0388943Y0128082D02*
X0323601Y0128082D01*
X0323601Y0129681D02*
X0408433Y0129681D01*
X0408433Y0131279D02*
X0321672Y0131279D01*
X0320848Y0132878D02*
X0408433Y0132878D01*
X0408433Y0134476D02*
X0319249Y0134476D01*
X0317651Y0136075D02*
X0408433Y0136075D01*
X0408433Y0137673D02*
X0295477Y0137673D01*
X0297075Y0139272D02*
X0408433Y0139272D01*
X0408433Y0140870D02*
X0298674Y0140870D01*
X0300272Y0142469D02*
X0408433Y0142469D01*
X0408433Y0144068D02*
X0301871Y0144068D01*
X0303469Y0145666D02*
X0408433Y0145666D01*
X0408433Y0147265D02*
X0305068Y0147265D01*
X0306666Y0148863D02*
X0408433Y0148863D01*
X0408433Y0150462D02*
X0308265Y0150462D01*
X0310823Y0152060D02*
X0408433Y0152060D01*
X0408433Y0153659D02*
X0311967Y0153659D01*
X0311886Y0155257D02*
X0408433Y0155257D01*
X0408433Y0156856D02*
X0310347Y0156856D01*
X0308348Y0156856D02*
X0288617Y0156856D01*
X0288617Y0155257D02*
X0306809Y0155257D01*
X0305832Y0153659D02*
X0288617Y0153659D01*
X0288617Y0152060D02*
X0304233Y0152060D01*
X0302635Y0150462D02*
X0288617Y0150462D01*
X0288617Y0148863D02*
X0301036Y0148863D01*
X0299438Y0147265D02*
X0288617Y0147265D01*
X0288652Y0145666D02*
X0297839Y0145666D01*
X0296241Y0144068D02*
X0288906Y0144068D01*
X0287972Y0142469D02*
X0294642Y0142469D01*
X0293043Y0140870D02*
X0275061Y0140870D01*
X0274973Y0142469D02*
X0284462Y0142469D01*
X0283528Y0144068D02*
X0273420Y0144068D01*
X0271456Y0144068D02*
X0269867Y0144068D01*
X0273931Y0139272D02*
X0291445Y0139272D01*
X0289846Y0137673D02*
X0288497Y0137673D01*
X0283938Y0137673D02*
X0270255Y0137673D01*
X0270255Y0136075D02*
X0283327Y0136075D01*
X0281728Y0134476D02*
X0270255Y0134476D01*
X0270255Y0132878D02*
X0280130Y0132878D01*
X0278531Y0131279D02*
X0270255Y0131279D01*
X0272375Y0129681D02*
X0276933Y0129681D01*
X0275334Y0128082D02*
X0273158Y0128082D01*
X0272841Y0126484D02*
X0273736Y0126484D01*
X0272137Y0124885D02*
X0270281Y0124885D01*
X0268097Y0126484D02*
X0256236Y0126484D01*
X0258620Y0128082D02*
X0267356Y0128082D01*
X0266720Y0124885D02*
X0250219Y0124885D01*
X0250174Y0131279D02*
X0254414Y0131279D01*
X0257981Y0131279D02*
X0261549Y0131279D01*
X0261549Y0132878D02*
X0250255Y0132878D01*
X0250255Y0134476D02*
X0261549Y0134476D01*
X0261549Y0136075D02*
X0250255Y0136075D01*
X0250255Y0137673D02*
X0261549Y0137673D01*
X0261549Y0139272D02*
X0249662Y0139272D01*
X0248346Y0140870D02*
X0261549Y0140870D01*
X0261549Y0142469D02*
X0248346Y0142469D01*
X0248346Y0144068D02*
X0261938Y0144068D01*
X0262186Y0148863D02*
X0248346Y0148863D01*
X0248346Y0147265D02*
X0283817Y0147265D01*
X0283817Y0148863D02*
X0269618Y0148863D01*
X0270655Y0150462D02*
X0283817Y0150462D01*
X0283817Y0152060D02*
X0270655Y0152060D01*
X0270655Y0153659D02*
X0283817Y0153659D01*
X0283817Y0155257D02*
X0270655Y0155257D01*
X0270164Y0156856D02*
X0283817Y0156856D01*
X0288965Y0158454D02*
X0408433Y0158454D01*
X0408433Y0160053D02*
X0288987Y0160053D01*
X0287257Y0161651D02*
X0408433Y0161651D01*
X0408433Y0163250D02*
X0270255Y0163250D01*
X0277871Y0164848D02*
X0408433Y0164848D01*
X0408433Y0166447D02*
X0278572Y0166447D01*
X0278220Y0168045D02*
X0282508Y0168045D01*
X0285990Y0168045D02*
X0408433Y0168045D01*
X0408433Y0169644D02*
X0286938Y0169644D01*
X0286689Y0171242D02*
X0408433Y0171242D01*
X0408433Y0172841D02*
X0370322Y0172841D01*
X0370599Y0174439D02*
X0408433Y0174439D01*
X0408433Y0176038D02*
X0369719Y0176038D01*
X0359280Y0177636D02*
X0408433Y0177636D01*
X0408433Y0179235D02*
X0358982Y0179235D01*
X0356554Y0180833D02*
X0408433Y0180833D01*
X0408433Y0208008D02*
X0298885Y0208008D01*
X0299733Y0209606D02*
X0408433Y0209606D01*
X0408433Y0211205D02*
X0299443Y0211205D01*
X0299733Y0219198D02*
X0408433Y0219198D01*
X0408433Y0220796D02*
X0298878Y0220796D01*
X0296292Y0222395D02*
X0408433Y0222395D01*
X0408433Y0223993D02*
X0294693Y0223993D01*
X0293095Y0225592D02*
X0408433Y0225592D01*
X0383027Y0247971D02*
X0281543Y0247971D01*
X0279944Y0249569D02*
X0381304Y0249569D01*
X0380129Y0251168D02*
X0278346Y0251168D01*
X0276747Y0252766D02*
X0379275Y0252766D01*
X0378694Y0254365D02*
X0275149Y0254365D01*
X0273550Y0255963D02*
X0378366Y0255963D01*
X0379144Y0262357D02*
X0267939Y0262357D01*
X0268237Y0263956D02*
X0379949Y0263956D01*
X0381075Y0265554D02*
X0267407Y0265554D01*
X0235480Y0246372D02*
X0196006Y0246372D01*
X0194408Y0244774D02*
X0235339Y0244774D01*
X0235998Y0243175D02*
X0224822Y0243175D01*
X0226421Y0241577D02*
X0235998Y0241577D01*
X0235998Y0239978D02*
X0228019Y0239978D01*
X0229618Y0238380D02*
X0235998Y0238380D01*
X0235998Y0236781D02*
X0231216Y0236781D01*
X0232105Y0235183D02*
X0235998Y0235183D01*
X0235998Y0233584D02*
X0232105Y0233584D01*
X0232105Y0231986D02*
X0235998Y0231986D01*
X0235998Y0230387D02*
X0232105Y0230387D01*
X0232105Y0228789D02*
X0235998Y0228789D01*
X0235998Y0227190D02*
X0232105Y0227190D01*
X0232105Y0225592D02*
X0235998Y0225592D01*
X0236898Y0223993D02*
X0232105Y0223993D01*
X0232105Y0222395D02*
X0241205Y0222395D01*
X0241494Y0220796D02*
X0232105Y0220796D01*
X0232105Y0219198D02*
X0241494Y0219198D01*
X0238371Y0217599D02*
X0232105Y0217599D01*
X0232105Y0216001D02*
X0237303Y0216001D01*
X0237453Y0214402D02*
X0232105Y0214402D01*
X0232105Y0212803D02*
X0237967Y0212803D01*
X0237967Y0211205D02*
X0232105Y0211205D01*
X0232105Y0209606D02*
X0237967Y0209606D01*
X0237642Y0208008D02*
X0232105Y0208008D01*
X0232105Y0206409D02*
X0236043Y0206409D01*
X0234445Y0204811D02*
X0232105Y0204811D01*
X0232766Y0203212D02*
X0232846Y0203212D01*
X0235279Y0200015D02*
X0250959Y0200015D01*
X0250959Y0198417D02*
X0233681Y0198417D01*
X0232082Y0196818D02*
X0250959Y0196818D01*
X0250255Y0193621D02*
X0253305Y0193621D01*
X0253305Y0192023D02*
X0250255Y0192023D01*
X0250255Y0190424D02*
X0253305Y0190424D01*
X0253305Y0188826D02*
X0250255Y0188826D01*
X0250081Y0187227D02*
X0253305Y0187227D01*
X0253305Y0185629D02*
X0250655Y0185629D01*
X0250655Y0184030D02*
X0252455Y0184030D01*
X0250856Y0182432D02*
X0250655Y0182432D01*
X0228923Y0177636D02*
X0179435Y0177636D01*
X0169254Y0176038D02*
X0152896Y0176038D01*
X0153601Y0174439D02*
X0167656Y0174439D01*
X0166057Y0172841D02*
X0153601Y0172841D01*
X0153601Y0171242D02*
X0164459Y0171242D01*
X0162860Y0169644D02*
X0153601Y0169644D01*
X0153379Y0168045D02*
X0161261Y0168045D01*
X0159663Y0166447D02*
X0152490Y0166447D01*
X0152465Y0164848D02*
X0158064Y0164848D01*
X0146388Y0176038D02*
X0145982Y0176038D01*
X0144001Y0155257D02*
X0176549Y0155257D01*
X0179896Y0153659D02*
X0144001Y0153659D01*
X0142486Y0152060D02*
X0179896Y0152060D01*
X0185323Y0142469D02*
X0186482Y0142469D01*
X0192803Y0142469D02*
X0196867Y0142469D01*
X0195268Y0144068D02*
X0193601Y0144068D01*
X0199089Y0139272D02*
X0174662Y0139272D01*
X0175255Y0137673D02*
X0194371Y0137673D01*
X0197946Y0137673D02*
X0199089Y0137673D01*
X0220176Y0139272D02*
X0242142Y0139272D01*
X0241549Y0137673D02*
X0226978Y0137673D01*
X0228576Y0136075D02*
X0241549Y0136075D01*
X0244364Y0140870D02*
X0228386Y0140870D01*
X0248346Y0145666D02*
X0283783Y0145666D01*
X0266382Y0148863D02*
X0265423Y0148863D01*
X0265423Y0150462D02*
X0266382Y0150462D01*
X0266382Y0152060D02*
X0265423Y0152060D01*
X0261149Y0152060D02*
X0252658Y0152060D01*
X0253391Y0153659D02*
X0261149Y0153659D01*
X0261149Y0155257D02*
X0254989Y0155257D01*
X0256588Y0156856D02*
X0261641Y0156856D01*
X0261549Y0158454D02*
X0258186Y0158454D01*
X0259785Y0160053D02*
X0261549Y0160053D01*
X0261549Y0161651D02*
X0261383Y0161651D01*
X0261149Y0150462D02*
X0248346Y0150462D01*
X0258886Y0129681D02*
X0261789Y0129681D01*
X0283177Y0120090D02*
X0307830Y0120090D01*
X0311683Y0115294D02*
X0312642Y0115294D01*
X0312642Y0113696D02*
X0311683Y0113696D01*
X0311683Y0112097D02*
X0312642Y0112097D01*
X0315145Y0112097D02*
X0408433Y0112097D01*
X0408433Y0110499D02*
X0363589Y0110499D01*
X0363900Y0110370D02*
X0362352Y0111011D01*
X0360677Y0111011D01*
X0359129Y0110370D01*
X0357945Y0109185D01*
X0357303Y0107638D01*
X0357303Y0105962D01*
X0357945Y0104415D01*
X0359129Y0103230D01*
X0360677Y0102589D01*
X0362352Y0102589D01*
X0363900Y0103230D01*
X0365084Y0104415D01*
X0365726Y0105962D01*
X0365726Y0107638D01*
X0365084Y0109185D01*
X0363900Y0110370D01*
X0365203Y0108900D02*
X0408433Y0108900D01*
X0408433Y0107302D02*
X0365726Y0107302D01*
X0365618Y0105703D02*
X0408433Y0105703D01*
X0408433Y0104105D02*
X0364775Y0104105D01*
X0358254Y0104105D02*
X0323601Y0104105D01*
X0322840Y0102506D02*
X0408433Y0102506D01*
X0408433Y0100908D02*
X0308976Y0100908D01*
X0307645Y0099309D02*
X0408433Y0099309D01*
X0408433Y0097711D02*
X0396259Y0097711D01*
X0397913Y0096112D02*
X0408433Y0096112D01*
X0408433Y0094514D02*
X0398817Y0094514D01*
X0393023Y0094514D02*
X0391423Y0094514D01*
X0391423Y0096112D02*
X0393023Y0096112D01*
X0393023Y0097711D02*
X0391423Y0097711D01*
X0391423Y0089718D02*
X0393023Y0089718D01*
X0393023Y0088120D02*
X0391423Y0088120D01*
X0391423Y0086521D02*
X0393023Y0086521D01*
X0385426Y0089718D02*
X0300524Y0089718D01*
X0312827Y0083324D02*
X0408433Y0083324D01*
X0408433Y0081726D02*
X0313512Y0081726D01*
X0313155Y0080127D02*
X0333203Y0080127D01*
X0333203Y0078529D02*
X0307776Y0078529D01*
X0309375Y0076930D02*
X0312291Y0076930D01*
X0311154Y0075332D02*
X0310973Y0075332D01*
X0315261Y0076930D02*
X0333203Y0076930D01*
X0333203Y0075332D02*
X0316398Y0075332D01*
X0317493Y0073733D02*
X0333203Y0073733D01*
X0334916Y0072134D02*
X0319091Y0072134D01*
X0320690Y0070536D02*
X0334916Y0070536D01*
X0334916Y0068937D02*
X0322288Y0068937D01*
X0323887Y0067339D02*
X0334916Y0067339D01*
X0334709Y0065740D02*
X0325485Y0065740D01*
X0326594Y0064142D02*
X0334916Y0064142D01*
X0334916Y0062543D02*
X0326594Y0062543D01*
X0326594Y0060945D02*
X0334916Y0060945D01*
X0334916Y0059346D02*
X0326594Y0059346D01*
X0326594Y0057748D02*
X0334916Y0057748D01*
X0334916Y0056149D02*
X0326594Y0056149D01*
X0326594Y0054551D02*
X0334916Y0054551D01*
X0334916Y0052952D02*
X0326594Y0052952D01*
X0326594Y0051354D02*
X0334916Y0051354D01*
X0334916Y0049755D02*
X0326594Y0049755D01*
X0326594Y0048157D02*
X0334916Y0048157D01*
X0334916Y0046558D02*
X0326594Y0046558D01*
X0326594Y0044960D02*
X0334916Y0044960D01*
X0333822Y0043361D02*
X0326594Y0043361D01*
X0326594Y0041763D02*
X0332223Y0041763D01*
X0330625Y0040164D02*
X0326594Y0040164D01*
X0326594Y0038566D02*
X0329026Y0038566D01*
X0327428Y0036967D02*
X0327216Y0036967D01*
X0329861Y0033770D02*
X0337923Y0033770D01*
X0336325Y0032172D02*
X0328262Y0032172D01*
X0327201Y0030573D02*
X0334726Y0030573D01*
X0333956Y0028975D02*
X0325949Y0028975D01*
X0323257Y0028975D02*
X0306364Y0028975D01*
X0304766Y0027376D02*
X0333725Y0027376D01*
X0333648Y0025778D02*
X0303167Y0025778D01*
X0300734Y0028975D02*
X0228086Y0028975D01*
X0228086Y0030573D02*
X0244786Y0030573D01*
X0238518Y0020982D02*
X0292742Y0020982D01*
X0294340Y0022581D02*
X0228086Y0022581D01*
X0228086Y0024179D02*
X0295939Y0024179D01*
X0297537Y0025778D02*
X0228086Y0025778D01*
X0228086Y0027376D02*
X0299136Y0027376D01*
X0302333Y0030573D02*
X0263675Y0030573D01*
X0264300Y0032172D02*
X0303931Y0032172D01*
X0304859Y0033770D02*
X0263917Y0033770D01*
X0261695Y0041763D02*
X0303912Y0041763D01*
X0303912Y0043361D02*
X0261765Y0043361D01*
X0261141Y0052952D02*
X0310932Y0052952D01*
X0312531Y0054551D02*
X0261141Y0054551D01*
X0261141Y0056149D02*
X0311238Y0056149D01*
X0309639Y0057748D02*
X0261141Y0057748D01*
X0261141Y0059346D02*
X0308041Y0059346D01*
X0306442Y0060945D02*
X0261141Y0060945D01*
X0261141Y0062543D02*
X0304844Y0062543D01*
X0303245Y0064142D02*
X0260647Y0064142D01*
X0257622Y0067339D02*
X0300048Y0067339D01*
X0298450Y0068937D02*
X0259221Y0068937D01*
X0260819Y0070536D02*
X0296851Y0070536D01*
X0295253Y0072134D02*
X0262418Y0072134D01*
X0264016Y0073733D02*
X0293654Y0073733D01*
X0292056Y0075332D02*
X0267587Y0075332D01*
X0268690Y0076930D02*
X0290457Y0076930D01*
X0288859Y0078529D02*
X0270288Y0078529D01*
X0271887Y0080127D02*
X0287260Y0080127D01*
X0301647Y0065740D02*
X0256426Y0065740D01*
X0253154Y0068937D02*
X0252283Y0068937D01*
X0252283Y0070536D02*
X0255189Y0070536D01*
X0256788Y0072134D02*
X0253560Y0072134D01*
X0256007Y0073733D02*
X0258386Y0073733D01*
X0257309Y0075332D02*
X0259985Y0075332D01*
X0261583Y0076930D02*
X0257292Y0076930D01*
X0255911Y0078529D02*
X0263182Y0078529D01*
X0223286Y0060945D02*
X0197094Y0060945D01*
X0195496Y0059346D02*
X0201651Y0059346D01*
X0201149Y0057748D02*
X0193897Y0057748D01*
X0192449Y0056149D02*
X0201149Y0056149D01*
X0201149Y0054551D02*
X0191688Y0054551D01*
X0194339Y0052952D02*
X0133597Y0052952D01*
X0133597Y0051354D02*
X0193961Y0051354D01*
X0198961Y0052952D02*
X0201149Y0052952D01*
X0201705Y0051354D02*
X0200195Y0051354D01*
X0205423Y0056149D02*
X0206382Y0056149D01*
X0206382Y0056020D02*
X0206382Y0059899D01*
X0209092Y0059899D01*
X0209550Y0059777D01*
X0209960Y0059540D01*
X0210295Y0059204D01*
X0210532Y0058794D01*
X0210655Y0058336D01*
X0210655Y0056020D01*
X0206382Y0056020D01*
X0206382Y0057748D02*
X0205423Y0057748D01*
X0205423Y0059346D02*
X0206382Y0059346D01*
X0210153Y0059346D02*
X0223286Y0059346D01*
X0223286Y0057748D02*
X0210655Y0057748D01*
X0210655Y0056149D02*
X0223286Y0056149D01*
X0223286Y0054551D02*
X0210655Y0054551D01*
X0210655Y0052952D02*
X0223286Y0052952D01*
X0223286Y0051354D02*
X0210100Y0051354D01*
X0210255Y0049755D02*
X0223286Y0049755D01*
X0223286Y0048157D02*
X0210255Y0048157D01*
X0198693Y0062543D02*
X0222080Y0062543D01*
X0220481Y0064142D02*
X0200292Y0064142D01*
X0201890Y0065740D02*
X0218883Y0065740D01*
X0217284Y0067339D02*
X0203489Y0067339D01*
X0205087Y0068937D02*
X0215686Y0068937D01*
X0214087Y0070536D02*
X0210255Y0070536D01*
X0210255Y0072134D02*
X0212489Y0072134D01*
X0210890Y0073733D02*
X0210255Y0073733D01*
X0185590Y0068937D02*
X0135449Y0068937D01*
X0135655Y0067339D02*
X0183992Y0067339D01*
X0182393Y0065740D02*
X0131382Y0065740D01*
X0130423Y0065740D02*
X0057702Y0065740D01*
X0057702Y0064142D02*
X0126149Y0064142D01*
X0126203Y0062543D02*
X0057702Y0062543D01*
X0057702Y0060945D02*
X0126549Y0060945D01*
X0126549Y0059346D02*
X0057702Y0059346D01*
X0057702Y0057748D02*
X0126549Y0057748D01*
X0126549Y0056149D02*
X0057702Y0056149D01*
X0057702Y0054551D02*
X0126919Y0054551D01*
X0126048Y0052952D02*
X0057702Y0052952D01*
X0057702Y0051354D02*
X0126297Y0051354D01*
X0128203Y0049755D02*
X0057702Y0049755D01*
X0057702Y0048157D02*
X0077567Y0048157D01*
X0077614Y0048203D02*
X0076946Y0047536D01*
X0076099Y0046688D01*
X0075918Y0046869D01*
X0073010Y0046869D01*
X0072495Y0046355D01*
X0071981Y0046869D01*
X0071314Y0047536D01*
X0069740Y0047536D01*
X0069073Y0046869D01*
X0067960Y0045756D01*
X0067960Y0044182D01*
X0068507Y0043634D01*
X0067960Y0043087D01*
X0067960Y0041513D01*
X0069073Y0040400D01*
X0070647Y0040400D01*
X0071828Y0041581D01*
X0072342Y0041067D01*
X0073010Y0040400D01*
X0075918Y0040400D01*
X0076766Y0041248D01*
X0077614Y0040400D01*
X0081189Y0040400D01*
X0082302Y0041513D01*
X0082302Y0045089D01*
X0082302Y0045516D01*
X0082302Y0047090D01*
X0081189Y0048203D01*
X0077614Y0048203D01*
X0081236Y0048157D02*
X0128203Y0048157D01*
X0128203Y0046558D02*
X0082302Y0046558D01*
X0082302Y0044960D02*
X0128203Y0044960D01*
X0128203Y0043361D02*
X0082302Y0043361D01*
X0082302Y0041763D02*
X0142061Y0041763D01*
X0143660Y0040164D02*
X0057702Y0040164D01*
X0057702Y0038566D02*
X0145258Y0038566D01*
X0146857Y0036967D02*
X0057702Y0036967D01*
X0057702Y0035369D02*
X0148455Y0035369D01*
X0150054Y0033770D02*
X0076409Y0033770D01*
X0076387Y0033770D02*
X0074787Y0033770D01*
X0074787Y0033773D02*
X0073524Y0033630D01*
X0072177Y0033323D01*
X0070873Y0032867D01*
X0069628Y0032267D01*
X0068458Y0031532D01*
X0067378Y0030671D01*
X0066401Y0029694D01*
X0065540Y0028614D01*
X0064805Y0027444D01*
X0064206Y0026199D01*
X0063749Y0024895D01*
X0063442Y0023549D01*
X0063300Y0022285D01*
X0074787Y0022285D01*
X0074787Y0020685D01*
X0063300Y0020685D01*
X0063442Y0019421D01*
X0063749Y0018075D01*
X0064206Y0016771D01*
X0064805Y0015526D01*
X0065540Y0014356D01*
X0066401Y0013276D01*
X0067378Y0012299D01*
X0068458Y0011438D01*
X0069628Y0010703D01*
X0070873Y0010103D01*
X0072177Y0009647D01*
X0073524Y0009340D01*
X0074787Y0009197D01*
X0074787Y0020685D01*
X0076387Y0020685D01*
X0076387Y0022285D01*
X0074787Y0022285D01*
X0074787Y0033773D01*
X0074765Y0033770D02*
X0057702Y0033770D01*
X0057702Y0032172D02*
X0069476Y0032172D01*
X0067281Y0030573D02*
X0057702Y0030573D01*
X0057702Y0028975D02*
X0065828Y0028975D01*
X0064772Y0027376D02*
X0057702Y0027376D01*
X0057702Y0025778D02*
X0064058Y0025778D01*
X0063586Y0024179D02*
X0057702Y0024179D01*
X0057702Y0022581D02*
X0063333Y0022581D01*
X0063451Y0019384D02*
X0057702Y0019384D01*
X0057702Y0020982D02*
X0074787Y0020982D01*
X0074787Y0019384D02*
X0076387Y0019384D01*
X0076387Y0020982D02*
X0162842Y0020982D01*
X0161244Y0022581D02*
X0087842Y0022581D01*
X0087875Y0022285D02*
X0087733Y0023549D01*
X0087425Y0024895D01*
X0086969Y0026199D01*
X0086369Y0027444D01*
X0085634Y0028614D01*
X0084773Y0029694D01*
X0083796Y0030671D01*
X0082716Y0031532D01*
X0081546Y0032267D01*
X0080302Y0032867D01*
X0078998Y0033323D01*
X0077651Y0033630D01*
X0076387Y0033773D01*
X0076387Y0022285D01*
X0087875Y0022285D01*
X0087589Y0024179D02*
X0159645Y0024179D01*
X0158047Y0025778D02*
X0087116Y0025778D01*
X0086402Y0027376D02*
X0156448Y0027376D01*
X0154849Y0028975D02*
X0085347Y0028975D01*
X0083894Y0030573D02*
X0153251Y0030573D01*
X0151652Y0032172D02*
X0081698Y0032172D01*
X0076387Y0032172D02*
X0074787Y0032172D01*
X0074787Y0030573D02*
X0076387Y0030573D01*
X0076387Y0028975D02*
X0074787Y0028975D01*
X0074787Y0027376D02*
X0076387Y0027376D01*
X0076387Y0025778D02*
X0074787Y0025778D01*
X0074787Y0024179D02*
X0076387Y0024179D01*
X0076387Y0022581D02*
X0074787Y0022581D01*
X0074787Y0017785D02*
X0076387Y0017785D01*
X0076387Y0016187D02*
X0074787Y0016187D01*
X0074787Y0014588D02*
X0076387Y0014588D01*
X0076387Y0012990D02*
X0074787Y0012990D01*
X0074787Y0011391D02*
X0076387Y0011391D01*
X0076387Y0009793D02*
X0074787Y0009793D01*
X0071761Y0009793D02*
X0057702Y0009793D01*
X0057702Y0011391D02*
X0068533Y0011391D01*
X0066688Y0012990D02*
X0057702Y0012990D01*
X0057702Y0014588D02*
X0065394Y0014588D01*
X0064487Y0016187D02*
X0057702Y0016187D01*
X0057702Y0017785D02*
X0063851Y0017785D01*
X0057702Y0008194D02*
X0279382Y0008194D01*
X0280980Y0006596D02*
X0057702Y0006596D01*
X0057702Y0004997D02*
X0282836Y0004997D01*
X0288614Y0004997D02*
X0408433Y0004997D01*
X0408433Y0006596D02*
X0290470Y0006596D01*
X0292068Y0008194D02*
X0408433Y0008194D01*
X0408433Y0009793D02*
X0394374Y0009793D01*
X0393958Y0009647D02*
X0395262Y0010103D01*
X0396507Y0010703D01*
X0397677Y0011438D01*
X0398757Y0012299D01*
X0399734Y0013276D01*
X0400595Y0014356D01*
X0401330Y0015526D01*
X0401930Y0016771D01*
X0402386Y0018075D01*
X0402693Y0019421D01*
X0402836Y0020685D01*
X0391348Y0020685D01*
X0391348Y0022285D01*
X0402836Y0022285D01*
X0402693Y0023549D01*
X0402386Y0024895D01*
X0401930Y0026199D01*
X0401330Y0027444D01*
X0400595Y0028614D01*
X0399734Y0029694D01*
X0398757Y0030671D01*
X0397677Y0031532D01*
X0396507Y0032267D01*
X0395262Y0032867D01*
X0393958Y0033323D01*
X0392611Y0033630D01*
X0391348Y0033773D01*
X0391348Y0022285D01*
X0389748Y0022285D01*
X0389748Y0033773D01*
X0388484Y0033630D01*
X0387137Y0033323D01*
X0385833Y0032867D01*
X0384589Y0032267D01*
X0383419Y0031532D01*
X0382339Y0030671D01*
X0381362Y0029694D01*
X0380501Y0028614D01*
X0379766Y0027444D01*
X0379166Y0026199D01*
X0378710Y0024895D01*
X0378403Y0023549D01*
X0378260Y0022285D01*
X0389748Y0022285D01*
X0389748Y0020685D01*
X0391348Y0020685D01*
X0391348Y0009197D01*
X0392611Y0009340D01*
X0393958Y0009647D01*
X0391348Y0009793D02*
X0389748Y0009793D01*
X0389748Y0009197D02*
X0389748Y0020685D01*
X0378260Y0020685D01*
X0378403Y0019421D01*
X0378710Y0018075D01*
X0379166Y0016771D01*
X0379766Y0015526D01*
X0380501Y0014356D01*
X0381362Y0013276D01*
X0382339Y0012299D01*
X0383419Y0011438D01*
X0384589Y0010703D01*
X0385833Y0010103D01*
X0387137Y0009647D01*
X0388484Y0009340D01*
X0389748Y0009197D01*
X0389748Y0011391D02*
X0391348Y0011391D01*
X0391348Y0012990D02*
X0389748Y0012990D01*
X0389748Y0014588D02*
X0391348Y0014588D01*
X0391348Y0016187D02*
X0389748Y0016187D01*
X0389748Y0017785D02*
X0391348Y0017785D01*
X0391348Y0019384D02*
X0389748Y0019384D01*
X0389748Y0020982D02*
X0368601Y0020982D01*
X0368601Y0019384D02*
X0378411Y0019384D01*
X0378811Y0017785D02*
X0368119Y0017785D01*
X0368601Y0022581D02*
X0378294Y0022581D01*
X0378546Y0024179D02*
X0368601Y0024179D01*
X0368156Y0025778D02*
X0379019Y0025778D01*
X0379733Y0027376D02*
X0368138Y0027376D01*
X0367908Y0028975D02*
X0380788Y0028975D01*
X0382241Y0030573D02*
X0359668Y0030573D01*
X0361267Y0028975D02*
X0362991Y0028975D01*
X0353648Y0025778D02*
X0351396Y0025778D01*
X0349797Y0024179D02*
X0353203Y0024179D01*
X0353203Y0022581D02*
X0348601Y0022581D01*
X0348601Y0020982D02*
X0353203Y0020982D01*
X0353203Y0019384D02*
X0348601Y0019384D01*
X0348119Y0017785D02*
X0353685Y0017785D01*
X0354916Y0016187D02*
X0300061Y0016187D01*
X0301659Y0017785D02*
X0333685Y0017785D01*
X0333203Y0019384D02*
X0303258Y0019384D01*
X0298462Y0014588D02*
X0355076Y0014588D01*
X0356802Y0012990D02*
X0296864Y0012990D01*
X0295265Y0011391D02*
X0383493Y0011391D01*
X0381649Y0012990D02*
X0358349Y0012990D01*
X0360075Y0014588D02*
X0380355Y0014588D01*
X0379448Y0016187D02*
X0360235Y0016187D01*
X0360639Y0017785D02*
X0361166Y0017785D01*
X0348963Y0028975D02*
X0339916Y0028975D01*
X0339306Y0027376D02*
X0347364Y0027376D01*
X0350561Y0030573D02*
X0341514Y0030573D01*
X0343113Y0032172D02*
X0384437Y0032172D01*
X0389748Y0032172D02*
X0391348Y0032172D01*
X0391348Y0033770D02*
X0389748Y0033770D01*
X0389726Y0033770D02*
X0344711Y0033770D01*
X0346310Y0035369D02*
X0408433Y0035369D01*
X0408433Y0036967D02*
X0347908Y0036967D01*
X0349507Y0038566D02*
X0408433Y0038566D01*
X0408433Y0040164D02*
X0351105Y0040164D01*
X0352704Y0041763D02*
X0408433Y0041763D01*
X0408433Y0043361D02*
X0354303Y0043361D01*
X0355901Y0044960D02*
X0386231Y0044960D01*
X0386272Y0044806D02*
X0386509Y0044396D01*
X0386844Y0044060D01*
X0387255Y0043823D01*
X0387712Y0043701D01*
X0390423Y0043701D01*
X0390423Y0047580D01*
X0386149Y0047580D01*
X0386149Y0045264D01*
X0386272Y0044806D01*
X0386149Y0046558D02*
X0357500Y0046558D01*
X0359098Y0048157D02*
X0390423Y0048157D01*
X0391382Y0048157D02*
X0408433Y0048157D01*
X0408433Y0049755D02*
X0395655Y0049755D01*
X0395509Y0051354D02*
X0408433Y0051354D01*
X0408433Y0052952D02*
X0395255Y0052952D01*
X0395255Y0054551D02*
X0408433Y0054551D01*
X0408433Y0056149D02*
X0395255Y0056149D01*
X0395255Y0057748D02*
X0408433Y0057748D01*
X0408433Y0059346D02*
X0394588Y0059346D01*
X0387217Y0059346D02*
X0383148Y0059346D01*
X0381549Y0060945D02*
X0408433Y0060945D01*
X0408433Y0062543D02*
X0379951Y0062543D01*
X0378352Y0064142D02*
X0408433Y0064142D01*
X0408433Y0065740D02*
X0376754Y0065740D01*
X0375155Y0067339D02*
X0408433Y0067339D01*
X0408433Y0068937D02*
X0346823Y0068937D01*
X0347469Y0070536D02*
X0408433Y0070536D01*
X0408433Y0072134D02*
X0347096Y0072134D01*
X0348601Y0073733D02*
X0408433Y0073733D01*
X0408433Y0075332D02*
X0348601Y0075332D01*
X0348601Y0076930D02*
X0408433Y0076930D01*
X0408433Y0078529D02*
X0348601Y0078529D01*
X0348601Y0080127D02*
X0408433Y0080127D01*
X0379556Y0056149D02*
X0367091Y0056149D01*
X0368689Y0057748D02*
X0377958Y0057748D01*
X0376359Y0059346D02*
X0370288Y0059346D01*
X0371886Y0060945D02*
X0374761Y0060945D01*
X0366696Y0062543D02*
X0338897Y0062543D01*
X0338897Y0060945D02*
X0365098Y0060945D01*
X0363499Y0059346D02*
X0338897Y0059346D01*
X0338897Y0057748D02*
X0361901Y0057748D01*
X0360302Y0056149D02*
X0338897Y0056149D01*
X0338897Y0054551D02*
X0358704Y0054551D01*
X0357105Y0052952D02*
X0338897Y0052952D01*
X0338897Y0051354D02*
X0355507Y0051354D01*
X0353908Y0049755D02*
X0338897Y0049755D01*
X0338897Y0048157D02*
X0352310Y0048157D01*
X0350711Y0046558D02*
X0338897Y0046558D01*
X0338897Y0044960D02*
X0349113Y0044960D01*
X0347514Y0043361D02*
X0338897Y0043361D01*
X0337853Y0041763D02*
X0345916Y0041763D01*
X0344317Y0040164D02*
X0336255Y0040164D01*
X0334656Y0038566D02*
X0342719Y0038566D01*
X0341120Y0036967D02*
X0333058Y0036967D01*
X0331459Y0035369D02*
X0339522Y0035369D01*
X0340676Y0025778D02*
X0341128Y0025778D01*
X0341166Y0017785D02*
X0340639Y0017785D01*
X0322005Y0030573D02*
X0307963Y0030573D01*
X0309561Y0032172D02*
X0322042Y0032172D01*
X0291143Y0019384D02*
X0239001Y0019384D01*
X0239001Y0017785D02*
X0289545Y0017785D01*
X0287946Y0016187D02*
X0239001Y0016187D01*
X0239001Y0014588D02*
X0276502Y0014588D01*
X0275654Y0012990D02*
X0238785Y0012990D01*
X0235122Y0012990D02*
X0234163Y0012990D01*
X0234163Y0014588D02*
X0235122Y0014588D01*
X0235122Y0016187D02*
X0234163Y0016187D01*
X0234163Y0017785D02*
X0235122Y0017785D01*
X0235122Y0019384D02*
X0234163Y0019384D01*
X0234163Y0020982D02*
X0235122Y0020982D01*
X0230767Y0020982D02*
X0230472Y0020982D01*
X0220930Y0016187D02*
X0210655Y0016187D01*
X0210406Y0014588D02*
X0219243Y0014588D01*
X0219096Y0012990D02*
X0084487Y0012990D01*
X0085780Y0014588D02*
X0201398Y0014588D01*
X0201149Y0016187D02*
X0086688Y0016187D01*
X0082642Y0011391D02*
X0220166Y0011391D01*
X0223332Y0011391D02*
X0275944Y0011391D01*
X0277783Y0009793D02*
X0079413Y0009793D01*
X0067960Y0041763D02*
X0057702Y0041763D01*
X0057702Y0043361D02*
X0068234Y0043361D01*
X0067960Y0044960D02*
X0057702Y0044960D01*
X0057702Y0046558D02*
X0068762Y0046558D01*
X0072292Y0046558D02*
X0072699Y0046558D01*
X0057702Y0067339D02*
X0126149Y0067339D01*
X0126355Y0068937D02*
X0057702Y0068937D01*
X0126685Y0097711D02*
X0213646Y0097711D01*
X0213905Y0096112D02*
X0128283Y0096112D01*
X0130423Y0068937D02*
X0131382Y0068937D01*
X0131382Y0067339D02*
X0130423Y0067339D01*
X0135655Y0064142D02*
X0180795Y0064142D01*
X0179196Y0062543D02*
X0135601Y0062543D01*
X0135255Y0060945D02*
X0177598Y0060945D01*
X0183007Y0027376D02*
X0185947Y0027376D01*
X0188380Y0024179D02*
X0201549Y0024179D01*
X0201549Y0022581D02*
X0183241Y0022581D01*
X0189978Y0025778D02*
X0201549Y0025778D01*
X0201549Y0027376D02*
X0191577Y0027376D01*
X0193175Y0028975D02*
X0201845Y0028975D01*
X0205423Y0016187D02*
X0206382Y0016187D01*
X0206382Y0014588D02*
X0205423Y0014588D01*
X0280185Y0014588D02*
X0286348Y0014588D01*
X0283761Y0012990D02*
X0281374Y0012990D01*
X0282973Y0011391D02*
X0283036Y0011391D01*
X0293667Y0009793D02*
X0386722Y0009793D01*
X0397602Y0011391D02*
X0408433Y0011391D01*
X0408433Y0012990D02*
X0399447Y0012990D01*
X0400741Y0014588D02*
X0408433Y0014588D01*
X0408433Y0016187D02*
X0401648Y0016187D01*
X0402284Y0017785D02*
X0408433Y0017785D01*
X0408433Y0019384D02*
X0402685Y0019384D01*
X0402802Y0022581D02*
X0408433Y0022581D01*
X0408433Y0024179D02*
X0402549Y0024179D01*
X0402077Y0025778D02*
X0408433Y0025778D01*
X0408433Y0027376D02*
X0401363Y0027376D01*
X0400307Y0028975D02*
X0408433Y0028975D01*
X0408433Y0030573D02*
X0398855Y0030573D01*
X0396659Y0032172D02*
X0408433Y0032172D01*
X0408433Y0033770D02*
X0391370Y0033770D01*
X0391348Y0030573D02*
X0389748Y0030573D01*
X0389748Y0028975D02*
X0391348Y0028975D01*
X0391348Y0027376D02*
X0389748Y0027376D01*
X0389748Y0025778D02*
X0391348Y0025778D01*
X0391348Y0024179D02*
X0389748Y0024179D01*
X0389748Y0022581D02*
X0391348Y0022581D01*
X0391348Y0020982D02*
X0408433Y0020982D01*
X0408433Y0044960D02*
X0395574Y0044960D01*
X0395532Y0044806D02*
X0395655Y0045264D01*
X0395655Y0047580D01*
X0391382Y0047580D01*
X0391382Y0043701D01*
X0394092Y0043701D01*
X0394550Y0043823D01*
X0394960Y0044060D01*
X0395295Y0044396D01*
X0395532Y0044806D01*
X0395655Y0046558D02*
X0408433Y0046558D01*
X0391382Y0046558D02*
X0390423Y0046558D01*
X0390423Y0044960D02*
X0391382Y0044960D01*
X0386149Y0049755D02*
X0360697Y0049755D01*
X0362295Y0051354D02*
X0386295Y0051354D01*
X0386549Y0052952D02*
X0385659Y0052952D01*
X0383626Y0052952D02*
X0363894Y0052952D01*
X0365492Y0054551D02*
X0381155Y0054551D01*
X0362297Y0064142D02*
X0339567Y0064142D01*
X0340087Y0065740D02*
X0361776Y0065740D01*
X0362225Y0067339D02*
X0339638Y0067339D01*
X0338897Y0068937D02*
X0342738Y0068937D01*
X0342091Y0070536D02*
X0338897Y0070536D01*
X0338897Y0072134D02*
X0342465Y0072134D01*
X0319855Y0065740D02*
X0317543Y0065740D01*
X0316444Y0102506D02*
X0315360Y0102506D01*
X0323435Y0110499D02*
X0359440Y0110499D01*
X0357826Y0108900D02*
X0327113Y0108900D01*
X0327784Y0107302D02*
X0357303Y0107302D01*
X0357411Y0105703D02*
X0327421Y0105703D01*
X0312642Y0128082D02*
X0311683Y0128082D01*
X0311683Y0129681D02*
X0312642Y0129681D01*
X0312642Y0131279D02*
X0311683Y0131279D01*
X0308647Y0131279D02*
X0294004Y0131279D01*
X0292405Y0129681D02*
X0307803Y0129681D01*
X0307803Y0128082D02*
X0290807Y0128082D01*
X0315677Y0131279D02*
X0316816Y0131279D01*
X0261746Y0108900D02*
X0257719Y0108900D01*
X0259318Y0107302D02*
X0261746Y0107302D01*
X0250959Y0201614D02*
X0236878Y0201614D01*
X0238476Y0203212D02*
X0250959Y0203212D01*
X0250088Y0204811D02*
X0240075Y0204811D01*
X0241673Y0206409D02*
X0248489Y0206409D01*
X0246891Y0208008D02*
X0241948Y0208008D01*
X0241948Y0209606D02*
X0245292Y0209606D01*
X0243694Y0211205D02*
X0241948Y0211205D01*
X0241948Y0212803D02*
X0242095Y0212803D01*
X0251509Y0222395D02*
X0254737Y0222395D01*
X0253138Y0223993D02*
X0249910Y0223993D01*
X0250986Y0225592D02*
X0248312Y0225592D01*
X0249267Y0227190D02*
X0246713Y0227190D01*
X0249111Y0228789D02*
X0239979Y0228789D01*
X0239979Y0230387D02*
X0250175Y0230387D01*
X0253107Y0220796D02*
X0256335Y0220796D01*
X0257934Y0219198D02*
X0254706Y0219198D01*
X0179172Y0260759D02*
X0163720Y0260759D01*
X0163720Y0259160D02*
X0177573Y0259160D01*
X0175975Y0257562D02*
X0163720Y0257562D01*
X0163720Y0255963D02*
X0174376Y0255963D01*
X0172778Y0254365D02*
X0163557Y0254365D01*
X0161239Y0252766D02*
X0171179Y0252766D01*
X0169581Y0251168D02*
X0161239Y0251168D01*
X0163601Y0249569D02*
X0167982Y0249569D01*
X0166384Y0247971D02*
X0163601Y0247971D01*
X0163601Y0246372D02*
X0164785Y0246372D01*
X0147803Y0247971D02*
X0143601Y0247971D01*
X0143601Y0249569D02*
X0147803Y0249569D01*
X0103240Y0222395D02*
X0098565Y0222395D01*
X0098168Y0222791D02*
X0096698Y0223400D01*
X0095107Y0223400D01*
X0093636Y0222791D01*
X0092511Y0221666D01*
X0091902Y0220196D01*
X0091902Y0213404D01*
X0092511Y0211934D01*
X0093636Y0210809D01*
X0095107Y0210200D01*
X0096698Y0210200D01*
X0098168Y0210809D01*
X0099293Y0211934D01*
X0099902Y0213404D01*
X0099902Y0220196D01*
X0099293Y0221666D01*
X0098168Y0222791D01*
X0099654Y0220796D02*
X0102151Y0220796D01*
X0101902Y0219198D02*
X0099902Y0219198D01*
X0099902Y0217599D02*
X0101902Y0217599D01*
X0101902Y0216001D02*
X0099902Y0216001D01*
X0099902Y0214402D02*
X0101902Y0214402D01*
X0102151Y0212803D02*
X0099653Y0212803D01*
X0098564Y0211205D02*
X0103240Y0211205D01*
X0093240Y0211205D02*
X0088564Y0211205D01*
X0088168Y0210809D02*
X0089293Y0211934D01*
X0089902Y0213404D01*
X0089902Y0220196D01*
X0089293Y0221666D01*
X0088168Y0222791D01*
X0086698Y0223400D01*
X0085107Y0223400D01*
X0083636Y0222791D01*
X0082511Y0221666D01*
X0081902Y0220196D01*
X0081902Y0213404D01*
X0082511Y0211934D01*
X0083636Y0210809D01*
X0085107Y0210200D01*
X0086698Y0210200D01*
X0088168Y0210809D01*
X0089653Y0212803D02*
X0092151Y0212803D01*
X0091902Y0214402D02*
X0089902Y0214402D01*
X0089902Y0216001D02*
X0091902Y0216001D01*
X0091902Y0217599D02*
X0089902Y0217599D01*
X0089902Y0219198D02*
X0091902Y0219198D01*
X0092151Y0220796D02*
X0089654Y0220796D01*
X0088565Y0222395D02*
X0093240Y0222395D01*
X0083240Y0222395D02*
X0078565Y0222395D01*
X0079654Y0220796D02*
X0082151Y0220796D01*
X0081902Y0219198D02*
X0079902Y0219198D01*
X0079902Y0217599D02*
X0081902Y0217599D01*
X0081902Y0216001D02*
X0079902Y0216001D01*
X0079902Y0214402D02*
X0081902Y0214402D01*
X0082151Y0212803D02*
X0079653Y0212803D01*
X0078564Y0211205D02*
X0083240Y0211205D01*
X0391423Y0128082D02*
X0393023Y0128082D01*
X0393023Y0126484D02*
X0391423Y0126484D01*
X0391423Y0124885D02*
X0393023Y0124885D01*
X0393023Y0123287D02*
X0391423Y0123287D01*
X0395503Y0128082D02*
X0408433Y0128082D01*
X0408433Y0126484D02*
X0397562Y0126484D01*
X0398630Y0124885D02*
X0408433Y0124885D01*
X0408433Y0123287D02*
X0399180Y0123287D01*
D23*
X0367910Y0174044D03*
X0356591Y0177981D03*
X0368861Y0207819D03*
X0395476Y0216018D03*
X0407190Y0228553D03*
X0392811Y0240520D03*
X0354813Y0241800D03*
X0315547Y0241729D03*
X0296552Y0230146D03*
X0297044Y0218828D03*
X0297044Y0209969D03*
X0301461Y0207842D03*
X0272438Y0222765D03*
X0277359Y0232115D03*
X0251768Y0228178D03*
X0243894Y0222272D03*
X0239957Y0215383D03*
X0226178Y0205540D03*
X0230115Y0202587D03*
X0245885Y0201687D03*
X0259642Y0193729D03*
X0267516Y0194713D03*
X0256690Y0178965D03*
X0254410Y0169075D03*
X0238770Y0175236D03*
X0230115Y0169123D03*
X0216827Y0168139D03*
X0194682Y0157312D03*
X0192221Y0152883D03*
X0176473Y0146977D03*
X0196158Y0135658D03*
X0202556Y0125816D03*
X0199111Y0115973D03*
X0184347Y0102194D03*
X0205509Y0085954D03*
X0197635Y0083493D03*
X0216335Y0097272D03*
X0226670Y0103178D03*
X0223225Y0110068D03*
X0230902Y0121800D03*
X0244879Y0110560D03*
X0250292Y0100717D03*
X0257182Y0101702D03*
X0264072Y0100225D03*
X0257182Y0093828D03*
X0244386Y0084969D03*
X0244386Y0080048D03*
X0237497Y0073158D03*
X0233560Y0069713D03*
X0241926Y0058394D03*
X0253737Y0066269D03*
X0254721Y0076111D03*
X0265548Y0077095D03*
X0277359Y0088906D03*
X0306394Y0101702D03*
X0325095Y0107115D03*
X0310823Y0081524D03*
X0313776Y0074635D03*
X0315745Y0067745D03*
X0329032Y0058887D03*
X0337398Y0065776D03*
X0344780Y0070698D03*
X0364465Y0065776D03*
X0384642Y0055442D03*
X0365449Y0027883D03*
X0357575Y0015580D03*
X0336414Y0027883D03*
X0324603Y0031328D03*
X0324603Y0036249D03*
X0316237Y0044615D03*
X0305902Y0036249D03*
X0315745Y0054950D03*
X0259150Y0042646D03*
X0253245Y0047076D03*
X0261611Y0032312D03*
X0243952Y0023075D03*
X0221749Y0013611D03*
X0214367Y0032804D03*
X0220764Y0044615D03*
X0196650Y0051505D03*
X0189760Y0056426D03*
X0194190Y0032804D03*
X0181886Y0024930D03*
X0165646Y0020993D03*
X0128737Y0052489D03*
X0150902Y0066800D03*
X0156788Y0098257D03*
X0153343Y0110560D03*
X0156788Y0117450D03*
X0171060Y0122371D03*
X0146946Y0140580D03*
X0124800Y0140580D03*
X0124800Y0132706D03*
X0124800Y0119418D03*
X0112497Y0118434D03*
X0110528Y0104654D03*
X0103638Y0096780D03*
X0110528Y0094812D03*
X0110528Y0089891D03*
X0137103Y0111052D03*
X0107083Y0151406D03*
X0115449Y0156328D03*
X0096257Y0154851D03*
X0071158Y0166170D03*
X0082477Y0196190D03*
X0087398Y0196190D03*
X0102654Y0203080D03*
X0142024Y0197174D03*
X0170075Y0169123D03*
X0149898Y0165678D03*
X0214859Y0133198D03*
X0222241Y0143532D03*
X0250292Y0153375D03*
X0254623Y0147298D03*
X0268501Y0145993D03*
X0272438Y0141564D03*
X0286217Y0144517D03*
X0286217Y0136150D03*
X0270469Y0127784D03*
X0268501Y0122863D03*
X0280804Y0121387D03*
X0266532Y0114989D03*
X0256198Y0129261D03*
X0275883Y0166662D03*
X0284249Y0170107D03*
X0309347Y0154359D03*
X0212398Y0230639D03*
X0237989Y0245402D03*
X0255705Y0255737D03*
X0265548Y0263611D03*
X0170075Y0237036D03*
X0155804Y0240973D03*
X0149898Y0255245D03*
X0095764Y0234083D03*
X0278343Y0012627D03*
X0285725Y0011150D03*
D24*
X0283757Y0007213D02*
X0278343Y0012627D01*
X0283757Y0007213D02*
X0287694Y0007213D01*
X0302457Y0021977D01*
X0335922Y0021977D01*
X0337162Y0021800D01*
X0336906Y0021977D01*
X0336906Y0027391D01*
X0336414Y0027883D01*
X0336414Y0028867D01*
X0372339Y0064792D01*
X0372339Y0065776D01*
X0364465Y0065776D01*
X0372339Y0065776D02*
X0373323Y0065776D01*
X0383658Y0055442D01*
X0384642Y0055442D01*
X0390548Y0055442D01*
X0390902Y0055540D01*
X0286217Y0144517D02*
X0286217Y0159280D01*
X0271946Y0159280D01*
X0270961Y0160265D01*
X0266040Y0160265D01*
X0265902Y0160540D01*
X0265423Y0153539D02*
X0265548Y0153375D01*
X0265902Y0153060D01*
X0266040Y0153375D01*
X0265423Y0153539D01*
X0265902Y0153060D02*
X0263579Y0152391D01*
X0263579Y0152580D01*
X0254721Y0150422D02*
X0254623Y0150422D01*
X0251276Y0147469D02*
X0250969Y0147658D01*
X0244879Y0160265D02*
X0244386Y0160265D01*
X0226178Y0142056D01*
X0222241Y0142056D01*
X0222241Y0143532D01*
X0222241Y0142056D02*
X0210922Y0142056D01*
X0210902Y0141957D01*
X0194682Y0157312D02*
X0186808Y0165186D01*
X0180902Y0165186D01*
X0180902Y0165540D01*
X0210430Y0161741D02*
X0210902Y0161643D01*
X0210430Y0161741D02*
X0216827Y0168139D01*
X0244879Y0173060D02*
X0244879Y0162233D01*
X0244642Y0161800D01*
X0244879Y0161249D01*
X0244879Y0160265D01*
X0244879Y0173060D02*
X0255705Y0183887D01*
X0255705Y0199635D01*
X0255902Y0200107D01*
X0256690Y0198650D01*
X0274898Y0198650D01*
X0299505Y0174044D01*
X0367910Y0174044D01*
X0286709Y0159280D02*
X0286217Y0159280D01*
X0268993Y0152580D02*
X0268993Y0151898D01*
X0256690Y0178965D02*
X0265548Y0187824D01*
X0265902Y0188493D01*
X0255902Y0200107D02*
X0256690Y0201603D01*
X0243894Y0214398D01*
X0243894Y0222272D01*
X0212398Y0230639D02*
X0212398Y0236544D01*
X0212162Y0236800D01*
X0149898Y0255245D02*
X0143501Y0261643D01*
X0143225Y0261800D01*
X0135902Y0186800D02*
X0135627Y0186347D01*
X0135627Y0182410D01*
X0129721Y0176505D01*
X0129721Y0172076D01*
X0129642Y0171800D01*
X0149642Y0171800D02*
X0149898Y0171583D01*
X0149898Y0165678D01*
X0132162Y0156800D02*
X0132182Y0156328D01*
X0132182Y0151898D01*
X0143009Y0141072D01*
X0143009Y0138611D01*
X0161709Y0119910D01*
X0166631Y0119910D01*
X0169583Y0116957D01*
X0169583Y0112036D01*
X0169642Y0111800D01*
X0170075Y0111052D01*
X0175489Y0111052D01*
X0184347Y0102194D01*
X0185331Y0102194D01*
X0199111Y0115973D01*
X0162162Y0111800D02*
X0161709Y0111544D01*
X0160725Y0110560D01*
X0153343Y0110560D01*
X0145961Y0110560D01*
X0145902Y0110540D01*
X0130902Y0103060D02*
X0130705Y0103178D01*
X0125292Y0103178D01*
X0125292Y0111544D01*
X0114465Y0122371D01*
X0108560Y0122371D01*
X0108560Y0109083D01*
X0110528Y0107115D01*
X0110528Y0104654D01*
X0110528Y0095796D02*
X0110528Y0094812D01*
X0110528Y0095796D02*
X0100194Y0106131D01*
X0100194Y0150914D01*
X0096257Y0154851D01*
X0177949Y0057902D02*
X0200587Y0080540D01*
X0205902Y0080540D01*
X0206493Y0081524D01*
X0225686Y0062331D01*
X0225686Y0018040D01*
X0227162Y0016800D01*
X0227162Y0017056D01*
X0225194Y0017056D01*
X0221749Y0013611D01*
X0205902Y0025540D02*
X0206001Y0025914D01*
X0206001Y0040186D01*
X0206985Y0040186D01*
X0214367Y0032804D01*
X0206001Y0040186D02*
X0206001Y0048060D01*
X0205902Y0048060D01*
X0205016Y0048552D01*
X0199603Y0048552D01*
X0196650Y0051505D01*
X0177949Y0057902D02*
X0132182Y0057902D01*
X0130902Y0058060D01*
X0131198Y0057902D01*
X0131198Y0052489D01*
X0128737Y0052489D01*
X0131198Y0052489D02*
X0131198Y0047568D01*
X0131690Y0047076D01*
X0132162Y0046800D01*
X0205509Y0080540D02*
X0205902Y0080540D01*
X0205509Y0080540D02*
X0205509Y0085954D01*
D25*
X0161256Y0176364D03*
D26*
X0174997Y0178965D02*
X0177949Y0178965D01*
X0180902Y0181918D01*
X0180902Y0191761D01*
X0190745Y0201603D01*
X0229131Y0201603D01*
X0230115Y0202587D01*
X0230115Y0235068D01*
X0223225Y0241957D01*
X0197635Y0241957D01*
X0196650Y0240973D01*
X0195902Y0240540D01*
X0190745Y0243926D02*
X0190745Y0211446D01*
X0174012Y0194713D01*
X0144485Y0194713D01*
X0143501Y0193729D01*
X0140548Y0193729D01*
X0140548Y0181918D01*
X0137595Y0178965D01*
X0137595Y0171091D01*
X0132674Y0166170D01*
X0115942Y0166170D01*
X0103146Y0153375D01*
X0103146Y0107115D01*
X0118894Y0091367D01*
X0205509Y0091367D01*
X0229131Y0067745D01*
X0229131Y0049044D01*
X0245863Y0032312D01*
X0261611Y0032312D01*
X0259150Y0042646D02*
X0259150Y0062824D01*
X0252260Y0062824D01*
X0250292Y0064792D01*
X0250292Y0073158D01*
X0251768Y0073158D01*
X0254721Y0076111D01*
X0253737Y0066269D02*
X0264564Y0077095D01*
X0265548Y0077095D01*
X0266040Y0077095D01*
X0272438Y0083493D01*
X0286709Y0083493D01*
X0315253Y0054950D01*
X0315745Y0054950D01*
X0310331Y0049536D01*
X0305902Y0049536D01*
X0305902Y0036249D01*
X0316237Y0041662D02*
X0316237Y0044615D01*
X0316237Y0041662D02*
X0285725Y0011150D01*
X0324603Y0031328D02*
X0336906Y0043631D01*
X0336906Y0065776D01*
X0337398Y0065776D01*
X0336906Y0065776D02*
X0336906Y0076603D01*
X0337162Y0076800D01*
X0344642Y0076800D02*
X0344780Y0076603D01*
X0344780Y0070698D01*
X0324603Y0063808D02*
X0324603Y0036249D01*
X0344642Y0021800D02*
X0344780Y0021977D01*
X0352162Y0029359D01*
X0358068Y0029359D01*
X0364465Y0022961D01*
X0364465Y0021977D01*
X0364642Y0021800D01*
X0364465Y0023454D01*
X0365449Y0024438D01*
X0365449Y0027883D01*
X0357575Y0021485D02*
X0357162Y0021800D01*
X0357575Y0021485D02*
X0357575Y0015580D01*
X0324603Y0063808D02*
X0313776Y0074635D01*
X0315745Y0067745D02*
X0289170Y0094320D01*
X0265902Y0094320D01*
X0264072Y0100225D02*
X0262595Y0101702D01*
X0257182Y0101702D01*
X0259642Y0104162D02*
X0256690Y0107115D01*
X0225194Y0107115D01*
X0224209Y0106131D01*
X0222241Y0106131D01*
X0202556Y0125816D01*
X0202064Y0136643D02*
X0225194Y0136643D01*
X0240942Y0120894D01*
X0242910Y0120894D01*
X0243894Y0121879D01*
X0259642Y0121879D01*
X0260627Y0122863D01*
X0268501Y0122863D01*
X0271946Y0121879D02*
X0271946Y0118434D01*
X0239465Y0118434D01*
X0224701Y0133198D01*
X0214859Y0133198D01*
X0202064Y0136643D02*
X0201079Y0137627D01*
X0201079Y0141072D01*
X0195666Y0146485D01*
X0189760Y0146485D01*
X0189642Y0146800D01*
X0182162Y0146800D02*
X0181394Y0146977D01*
X0176473Y0146977D01*
X0181886Y0146977D02*
X0182162Y0146800D01*
X0181886Y0146977D02*
X0181886Y0157312D01*
X0180902Y0158060D01*
X0180902Y0157804D01*
X0187300Y0157804D01*
X0192221Y0152883D01*
X0196158Y0135658D02*
X0171060Y0135658D01*
X0170902Y0135540D01*
X0170902Y0128060D02*
X0171060Y0127784D01*
X0171060Y0122371D01*
X0156788Y0117450D02*
X0141532Y0132706D01*
X0131198Y0132706D01*
X0130902Y0133060D01*
X0130705Y0132706D01*
X0124800Y0132706D01*
X0124800Y0140580D02*
X0130705Y0140580D01*
X0130902Y0140540D01*
X0115942Y0143040D02*
X0115942Y0128769D01*
X0125046Y0119664D01*
X0124800Y0119418D01*
X0125046Y0119664D02*
X0133658Y0111052D01*
X0130902Y0110540D01*
X0131198Y0110560D01*
X0136611Y0110560D01*
X0137103Y0111052D01*
X0127753Y0093828D02*
X0112497Y0109083D01*
X0112497Y0118434D01*
X0103638Y0096780D02*
X0110528Y0089891D01*
X0127753Y0093828D02*
X0235528Y0093828D01*
X0244386Y0084969D01*
X0244386Y0080048D02*
X0237497Y0073158D01*
X0239957Y0069713D02*
X0233560Y0069713D01*
X0239957Y0069713D02*
X0259150Y0088906D01*
X0277359Y0088906D01*
X0284249Y0103178D02*
X0266532Y0103178D01*
X0265548Y0104162D01*
X0259642Y0104162D01*
X0266040Y0109083D02*
X0265902Y0109280D01*
X0266040Y0109083D02*
X0279820Y0109083D01*
X0280804Y0108099D01*
X0280902Y0108060D01*
X0284249Y0103178D02*
X0305902Y0081524D01*
X0310823Y0081524D01*
X0306394Y0101702D02*
X0311808Y0107115D01*
X0312162Y0106800D01*
X0319642Y0106800D02*
X0319682Y0107115D01*
X0325095Y0107115D01*
X0319642Y0116800D02*
X0319682Y0116957D01*
X0319682Y0126800D01*
X0319642Y0126800D01*
X0319682Y0127292D01*
X0319682Y0131229D01*
X0316237Y0134674D01*
X0294583Y0134674D01*
X0281296Y0121387D01*
X0280804Y0121387D01*
X0280804Y0115973D01*
X0280902Y0115540D01*
X0277359Y0120402D02*
X0277359Y0123847D01*
X0278343Y0123847D01*
X0287201Y0132706D01*
X0287694Y0132706D01*
X0309347Y0154359D01*
X0286217Y0136150D02*
X0271946Y0121879D01*
X0270469Y0127784D02*
X0265548Y0132706D01*
X0265902Y0133060D01*
X0265902Y0140540D02*
X0266040Y0140580D01*
X0271453Y0140580D01*
X0272438Y0141564D01*
X0256198Y0129261D02*
X0255213Y0128276D01*
X0246355Y0128276D01*
X0245902Y0128060D01*
X0245902Y0135540D02*
X0246355Y0135658D01*
X0246355Y0156820D01*
X0250292Y0156820D01*
X0263579Y0170107D01*
X0284249Y0170107D01*
X0275883Y0166662D02*
X0263579Y0166662D01*
X0250292Y0153375D01*
X0237162Y0161800D02*
X0237005Y0162233D01*
X0230115Y0169123D01*
X0230115Y0176013D01*
X0243894Y0189792D01*
X0245863Y0189792D01*
X0245902Y0190540D01*
X0259642Y0193729D02*
X0260627Y0194713D01*
X0267516Y0194713D01*
X0269977Y0207509D02*
X0262103Y0207509D01*
X0256198Y0213414D01*
X0255902Y0213493D01*
X0255705Y0213906D01*
X0255705Y0215383D01*
X0245371Y0225717D01*
X0237989Y0225717D01*
X0237989Y0245402D01*
X0226178Y0230639D02*
X0219780Y0237036D01*
X0219642Y0236800D01*
X0226178Y0230639D02*
X0226178Y0205540D01*
X0231099Y0198650D02*
X0239957Y0207509D01*
X0239957Y0215383D01*
X0251768Y0228178D02*
X0269977Y0209969D01*
X0297044Y0209969D01*
X0297044Y0218828D02*
X0283757Y0232115D01*
X0277359Y0232115D01*
X0272438Y0222765D02*
X0259150Y0236052D01*
X0259150Y0259182D01*
X0180410Y0259182D01*
X0158757Y0237528D01*
X0139564Y0237528D01*
X0139564Y0246387D01*
X0139642Y0246800D01*
X0139564Y0237528D02*
X0139564Y0236544D01*
X0133658Y0236544D01*
X0115942Y0218828D01*
X0115942Y0216859D01*
X0115902Y0216800D01*
X0102654Y0203080D02*
X0175489Y0203080D01*
X0185823Y0213414D01*
X0185823Y0216367D01*
X0185902Y0216800D01*
X0175981Y0216859D02*
X0175902Y0216800D01*
X0175981Y0216859D02*
X0175981Y0232607D01*
X0175902Y0233060D01*
X0170075Y0237036D02*
X0173520Y0240481D01*
X0175489Y0240481D01*
X0175902Y0240540D01*
X0164642Y0231800D02*
X0164170Y0231623D01*
X0164170Y0218335D01*
X0165646Y0216859D01*
X0165902Y0216800D01*
X0150883Y0212430D02*
X0150883Y0225717D01*
X0156788Y0231623D01*
X0157162Y0231800D01*
X0155804Y0240973D02*
X0159249Y0244418D01*
X0159249Y0246387D01*
X0159642Y0246800D01*
X0159249Y0246879D01*
X0159249Y0261150D01*
X0158757Y0261643D01*
X0158579Y0261800D01*
X0190745Y0243926D02*
X0202556Y0255737D01*
X0255705Y0255737D01*
X0265548Y0261150D02*
X0296552Y0230146D01*
X0269977Y0207509D02*
X0297536Y0179950D01*
X0354623Y0179950D01*
X0356591Y0177981D01*
X0277359Y0120402D02*
X0272930Y0115973D01*
X0267516Y0115973D01*
X0266532Y0114989D01*
X0250292Y0100717D02*
X0257182Y0093828D01*
X0226670Y0103178D02*
X0220764Y0097272D01*
X0216335Y0097272D01*
X0223225Y0110068D02*
X0197635Y0135658D01*
X0196158Y0135658D01*
X0158264Y0162233D02*
X0174997Y0178965D01*
X0185902Y0186800D02*
X0186808Y0186839D01*
X0186808Y0193729D01*
X0192713Y0193729D01*
X0197635Y0198650D01*
X0231099Y0198650D01*
X0196158Y0216859D02*
X0195902Y0216800D01*
X0196158Y0216859D02*
X0196158Y0232607D01*
X0195902Y0233060D01*
X0150883Y0212430D02*
X0144977Y0206524D01*
X0092812Y0206524D01*
X0082477Y0196190D01*
X0087398Y0196190D02*
X0088383Y0197174D01*
X0142024Y0197174D01*
X0140548Y0193729D02*
X0138579Y0193729D01*
X0137595Y0194713D01*
X0133658Y0194713D01*
X0125784Y0186839D01*
X0125902Y0186800D01*
X0121847Y0172076D02*
X0122162Y0171800D01*
X0121847Y0172076D02*
X0087398Y0172076D01*
X0082231Y0177243D01*
X0071158Y0166170D01*
X0082231Y0177243D02*
X0076079Y0183394D01*
X0076079Y0186347D01*
X0075902Y0186800D01*
X0077556Y0194713D02*
X0085430Y0186839D01*
X0085902Y0186800D01*
X0077556Y0194713D02*
X0073619Y0194713D01*
X0067713Y0188808D01*
X0067713Y0114005D01*
X0109052Y0072666D01*
X0186808Y0072666D01*
X0197635Y0083493D01*
X0205902Y0073060D02*
X0206001Y0072666D01*
X0189760Y0056426D01*
X0194190Y0032804D02*
X0186316Y0024930D01*
X0181886Y0024930D01*
X0165646Y0020993D02*
X0140056Y0046583D01*
X0139642Y0046800D01*
X0241926Y0058394D02*
X0253245Y0047076D01*
X0115942Y0143040D02*
X0115902Y0143060D01*
X0115902Y0150540D02*
X0115449Y0150914D01*
X0115449Y0156328D01*
X0115942Y0162233D02*
X0158264Y0162233D01*
X0115942Y0162233D02*
X0107083Y0153375D01*
X0107083Y0151406D01*
X0145469Y0216859D02*
X0145902Y0216800D01*
X0145469Y0216859D02*
X0144485Y0217843D01*
X0144485Y0231623D01*
X0144642Y0231800D01*
X0265548Y0261150D02*
X0265548Y0263611D01*
M02*
