G75*
%MOIN*%
%OFA0B0*%
%FSLAX25Y25*%
%IPPOS*%
%LPD*%
%AMOC8*
5,1,8,0,0,1.08239X$1,22.5*
%
%ADD10C,0.00000*%
%ADD11C,0.01100*%
%ADD12C,0.01000*%
%ADD13C,0.05562*%
%ADD14R,0.02600X0.08000*%
%ADD15R,0.05906X0.01969*%
%ADD16R,0.01969X0.05906*%
%ADD17R,0.05000X0.02200*%
%ADD18R,0.06300X0.04600*%
%ADD19R,0.05118X0.05906*%
%ADD20R,0.05906X0.05118*%
%ADD21R,0.08465X0.07087*%
%ADD22R,0.15748X0.07087*%
%ADD23R,0.07480X0.13386*%
%ADD24R,0.05512X0.03937*%
%ADD25R,0.03937X0.04724*%
%ADD26C,0.05906*%
%ADD27C,0.04173*%
%ADD28C,0.01600*%
%ADD29C,0.03346*%
%ADD30C,0.02000*%
%ADD31C,0.01181*%
D10*
X0055902Y0001256D02*
X0055902Y0276846D01*
X0410233Y0276846D01*
X0410233Y0001256D01*
X0055902Y0001256D01*
X0070075Y0020941D02*
X0070077Y0021089D01*
X0070083Y0021237D01*
X0070093Y0021385D01*
X0070107Y0021532D01*
X0070125Y0021679D01*
X0070146Y0021825D01*
X0070172Y0021971D01*
X0070202Y0022116D01*
X0070235Y0022260D01*
X0070273Y0022403D01*
X0070314Y0022545D01*
X0070359Y0022686D01*
X0070407Y0022826D01*
X0070460Y0022965D01*
X0070516Y0023102D01*
X0070576Y0023237D01*
X0070639Y0023371D01*
X0070706Y0023503D01*
X0070777Y0023633D01*
X0070851Y0023761D01*
X0070928Y0023887D01*
X0071009Y0024011D01*
X0071093Y0024133D01*
X0071180Y0024252D01*
X0071271Y0024369D01*
X0071365Y0024484D01*
X0071461Y0024596D01*
X0071561Y0024706D01*
X0071663Y0024812D01*
X0071769Y0024916D01*
X0071877Y0025017D01*
X0071988Y0025115D01*
X0072101Y0025211D01*
X0072217Y0025303D01*
X0072335Y0025392D01*
X0072456Y0025477D01*
X0072579Y0025560D01*
X0072704Y0025639D01*
X0072831Y0025715D01*
X0072960Y0025787D01*
X0073091Y0025856D01*
X0073224Y0025921D01*
X0073359Y0025982D01*
X0073495Y0026040D01*
X0073632Y0026095D01*
X0073771Y0026145D01*
X0073912Y0026192D01*
X0074053Y0026235D01*
X0074196Y0026275D01*
X0074340Y0026310D01*
X0074484Y0026342D01*
X0074630Y0026369D01*
X0074776Y0026393D01*
X0074923Y0026413D01*
X0075070Y0026429D01*
X0075217Y0026441D01*
X0075365Y0026449D01*
X0075513Y0026453D01*
X0075661Y0026453D01*
X0075809Y0026449D01*
X0075957Y0026441D01*
X0076104Y0026429D01*
X0076251Y0026413D01*
X0076398Y0026393D01*
X0076544Y0026369D01*
X0076690Y0026342D01*
X0076834Y0026310D01*
X0076978Y0026275D01*
X0077121Y0026235D01*
X0077262Y0026192D01*
X0077403Y0026145D01*
X0077542Y0026095D01*
X0077679Y0026040D01*
X0077815Y0025982D01*
X0077950Y0025921D01*
X0078083Y0025856D01*
X0078214Y0025787D01*
X0078343Y0025715D01*
X0078470Y0025639D01*
X0078595Y0025560D01*
X0078718Y0025477D01*
X0078839Y0025392D01*
X0078957Y0025303D01*
X0079073Y0025211D01*
X0079186Y0025115D01*
X0079297Y0025017D01*
X0079405Y0024916D01*
X0079511Y0024812D01*
X0079613Y0024706D01*
X0079713Y0024596D01*
X0079809Y0024484D01*
X0079903Y0024369D01*
X0079994Y0024252D01*
X0080081Y0024133D01*
X0080165Y0024011D01*
X0080246Y0023887D01*
X0080323Y0023761D01*
X0080397Y0023633D01*
X0080468Y0023503D01*
X0080535Y0023371D01*
X0080598Y0023237D01*
X0080658Y0023102D01*
X0080714Y0022965D01*
X0080767Y0022826D01*
X0080815Y0022686D01*
X0080860Y0022545D01*
X0080901Y0022403D01*
X0080939Y0022260D01*
X0080972Y0022116D01*
X0081002Y0021971D01*
X0081028Y0021825D01*
X0081049Y0021679D01*
X0081067Y0021532D01*
X0081081Y0021385D01*
X0081091Y0021237D01*
X0081097Y0021089D01*
X0081099Y0020941D01*
X0081097Y0020793D01*
X0081091Y0020645D01*
X0081081Y0020497D01*
X0081067Y0020350D01*
X0081049Y0020203D01*
X0081028Y0020057D01*
X0081002Y0019911D01*
X0080972Y0019766D01*
X0080939Y0019622D01*
X0080901Y0019479D01*
X0080860Y0019337D01*
X0080815Y0019196D01*
X0080767Y0019056D01*
X0080714Y0018917D01*
X0080658Y0018780D01*
X0080598Y0018645D01*
X0080535Y0018511D01*
X0080468Y0018379D01*
X0080397Y0018249D01*
X0080323Y0018121D01*
X0080246Y0017995D01*
X0080165Y0017871D01*
X0080081Y0017749D01*
X0079994Y0017630D01*
X0079903Y0017513D01*
X0079809Y0017398D01*
X0079713Y0017286D01*
X0079613Y0017176D01*
X0079511Y0017070D01*
X0079405Y0016966D01*
X0079297Y0016865D01*
X0079186Y0016767D01*
X0079073Y0016671D01*
X0078957Y0016579D01*
X0078839Y0016490D01*
X0078718Y0016405D01*
X0078595Y0016322D01*
X0078470Y0016243D01*
X0078343Y0016167D01*
X0078214Y0016095D01*
X0078083Y0016026D01*
X0077950Y0015961D01*
X0077815Y0015900D01*
X0077679Y0015842D01*
X0077542Y0015787D01*
X0077403Y0015737D01*
X0077262Y0015690D01*
X0077121Y0015647D01*
X0076978Y0015607D01*
X0076834Y0015572D01*
X0076690Y0015540D01*
X0076544Y0015513D01*
X0076398Y0015489D01*
X0076251Y0015469D01*
X0076104Y0015453D01*
X0075957Y0015441D01*
X0075809Y0015433D01*
X0075661Y0015429D01*
X0075513Y0015429D01*
X0075365Y0015433D01*
X0075217Y0015441D01*
X0075070Y0015453D01*
X0074923Y0015469D01*
X0074776Y0015489D01*
X0074630Y0015513D01*
X0074484Y0015540D01*
X0074340Y0015572D01*
X0074196Y0015607D01*
X0074053Y0015647D01*
X0073912Y0015690D01*
X0073771Y0015737D01*
X0073632Y0015787D01*
X0073495Y0015842D01*
X0073359Y0015900D01*
X0073224Y0015961D01*
X0073091Y0016026D01*
X0072960Y0016095D01*
X0072831Y0016167D01*
X0072704Y0016243D01*
X0072579Y0016322D01*
X0072456Y0016405D01*
X0072335Y0016490D01*
X0072217Y0016579D01*
X0072101Y0016671D01*
X0071988Y0016767D01*
X0071877Y0016865D01*
X0071769Y0016966D01*
X0071663Y0017070D01*
X0071561Y0017176D01*
X0071461Y0017286D01*
X0071365Y0017398D01*
X0071271Y0017513D01*
X0071180Y0017630D01*
X0071093Y0017749D01*
X0071009Y0017871D01*
X0070928Y0017995D01*
X0070851Y0018121D01*
X0070777Y0018249D01*
X0070706Y0018379D01*
X0070639Y0018511D01*
X0070576Y0018645D01*
X0070516Y0018780D01*
X0070460Y0018917D01*
X0070407Y0019056D01*
X0070359Y0019196D01*
X0070314Y0019337D01*
X0070273Y0019479D01*
X0070235Y0019622D01*
X0070202Y0019766D01*
X0070172Y0019911D01*
X0070146Y0020057D01*
X0070125Y0020203D01*
X0070107Y0020350D01*
X0070093Y0020497D01*
X0070083Y0020645D01*
X0070077Y0020793D01*
X0070075Y0020941D01*
X0085863Y0095429D02*
X0085865Y0095534D01*
X0085871Y0095639D01*
X0085881Y0095743D01*
X0085895Y0095847D01*
X0085913Y0095951D01*
X0085935Y0096053D01*
X0085960Y0096155D01*
X0085990Y0096256D01*
X0086023Y0096355D01*
X0086060Y0096453D01*
X0086101Y0096550D01*
X0086146Y0096645D01*
X0086194Y0096738D01*
X0086245Y0096830D01*
X0086301Y0096919D01*
X0086359Y0097006D01*
X0086421Y0097091D01*
X0086485Y0097174D01*
X0086553Y0097254D01*
X0086624Y0097331D01*
X0086698Y0097405D01*
X0086775Y0097477D01*
X0086854Y0097546D01*
X0086936Y0097611D01*
X0087020Y0097674D01*
X0087107Y0097733D01*
X0087196Y0097789D01*
X0087287Y0097842D01*
X0087380Y0097891D01*
X0087474Y0097936D01*
X0087570Y0097978D01*
X0087668Y0098016D01*
X0087767Y0098050D01*
X0087868Y0098081D01*
X0087969Y0098107D01*
X0088072Y0098130D01*
X0088175Y0098149D01*
X0088279Y0098164D01*
X0088383Y0098175D01*
X0088488Y0098182D01*
X0088593Y0098185D01*
X0088698Y0098184D01*
X0088803Y0098179D01*
X0088907Y0098170D01*
X0089011Y0098157D01*
X0089115Y0098140D01*
X0089218Y0098119D01*
X0089320Y0098094D01*
X0089421Y0098066D01*
X0089520Y0098033D01*
X0089619Y0097997D01*
X0089716Y0097957D01*
X0089811Y0097914D01*
X0089905Y0097866D01*
X0089997Y0097816D01*
X0090087Y0097762D01*
X0090175Y0097704D01*
X0090260Y0097643D01*
X0090343Y0097579D01*
X0090424Y0097512D01*
X0090502Y0097442D01*
X0090577Y0097368D01*
X0090649Y0097293D01*
X0090719Y0097214D01*
X0090785Y0097133D01*
X0090849Y0097049D01*
X0090909Y0096963D01*
X0090965Y0096875D01*
X0091019Y0096784D01*
X0091069Y0096692D01*
X0091115Y0096598D01*
X0091158Y0096502D01*
X0091197Y0096404D01*
X0091232Y0096306D01*
X0091263Y0096205D01*
X0091291Y0096104D01*
X0091315Y0096002D01*
X0091335Y0095899D01*
X0091351Y0095795D01*
X0091363Y0095691D01*
X0091371Y0095586D01*
X0091375Y0095481D01*
X0091375Y0095377D01*
X0091371Y0095272D01*
X0091363Y0095167D01*
X0091351Y0095063D01*
X0091335Y0094959D01*
X0091315Y0094856D01*
X0091291Y0094754D01*
X0091263Y0094653D01*
X0091232Y0094552D01*
X0091197Y0094454D01*
X0091158Y0094356D01*
X0091115Y0094260D01*
X0091069Y0094166D01*
X0091019Y0094074D01*
X0090965Y0093983D01*
X0090909Y0093895D01*
X0090849Y0093809D01*
X0090785Y0093725D01*
X0090719Y0093644D01*
X0090649Y0093565D01*
X0090577Y0093490D01*
X0090502Y0093416D01*
X0090424Y0093346D01*
X0090343Y0093279D01*
X0090260Y0093215D01*
X0090175Y0093154D01*
X0090087Y0093096D01*
X0089997Y0093042D01*
X0089905Y0092992D01*
X0089811Y0092944D01*
X0089716Y0092901D01*
X0089619Y0092861D01*
X0089520Y0092825D01*
X0089421Y0092792D01*
X0089320Y0092764D01*
X0089218Y0092739D01*
X0089115Y0092718D01*
X0089011Y0092701D01*
X0088907Y0092688D01*
X0088803Y0092679D01*
X0088698Y0092674D01*
X0088593Y0092673D01*
X0088488Y0092676D01*
X0088383Y0092683D01*
X0088279Y0092694D01*
X0088175Y0092709D01*
X0088072Y0092728D01*
X0087969Y0092751D01*
X0087868Y0092777D01*
X0087767Y0092808D01*
X0087668Y0092842D01*
X0087570Y0092880D01*
X0087474Y0092922D01*
X0087380Y0092967D01*
X0087287Y0093016D01*
X0087196Y0093069D01*
X0087107Y0093125D01*
X0087020Y0093184D01*
X0086936Y0093247D01*
X0086854Y0093312D01*
X0086775Y0093381D01*
X0086698Y0093453D01*
X0086624Y0093527D01*
X0086553Y0093604D01*
X0086485Y0093684D01*
X0086421Y0093767D01*
X0086359Y0093852D01*
X0086301Y0093939D01*
X0086245Y0094028D01*
X0086194Y0094120D01*
X0086146Y0094213D01*
X0086101Y0094308D01*
X0086060Y0094405D01*
X0086023Y0094503D01*
X0085990Y0094602D01*
X0085960Y0094703D01*
X0085935Y0094805D01*
X0085913Y0094907D01*
X0085895Y0095011D01*
X0085881Y0095115D01*
X0085871Y0095219D01*
X0085865Y0095324D01*
X0085863Y0095429D01*
X0085863Y0117083D02*
X0085865Y0117188D01*
X0085871Y0117293D01*
X0085881Y0117397D01*
X0085895Y0117501D01*
X0085913Y0117605D01*
X0085935Y0117707D01*
X0085960Y0117809D01*
X0085990Y0117910D01*
X0086023Y0118009D01*
X0086060Y0118107D01*
X0086101Y0118204D01*
X0086146Y0118299D01*
X0086194Y0118392D01*
X0086245Y0118484D01*
X0086301Y0118573D01*
X0086359Y0118660D01*
X0086421Y0118745D01*
X0086485Y0118828D01*
X0086553Y0118908D01*
X0086624Y0118985D01*
X0086698Y0119059D01*
X0086775Y0119131D01*
X0086854Y0119200D01*
X0086936Y0119265D01*
X0087020Y0119328D01*
X0087107Y0119387D01*
X0087196Y0119443D01*
X0087287Y0119496D01*
X0087380Y0119545D01*
X0087474Y0119590D01*
X0087570Y0119632D01*
X0087668Y0119670D01*
X0087767Y0119704D01*
X0087868Y0119735D01*
X0087969Y0119761D01*
X0088072Y0119784D01*
X0088175Y0119803D01*
X0088279Y0119818D01*
X0088383Y0119829D01*
X0088488Y0119836D01*
X0088593Y0119839D01*
X0088698Y0119838D01*
X0088803Y0119833D01*
X0088907Y0119824D01*
X0089011Y0119811D01*
X0089115Y0119794D01*
X0089218Y0119773D01*
X0089320Y0119748D01*
X0089421Y0119720D01*
X0089520Y0119687D01*
X0089619Y0119651D01*
X0089716Y0119611D01*
X0089811Y0119568D01*
X0089905Y0119520D01*
X0089997Y0119470D01*
X0090087Y0119416D01*
X0090175Y0119358D01*
X0090260Y0119297D01*
X0090343Y0119233D01*
X0090424Y0119166D01*
X0090502Y0119096D01*
X0090577Y0119022D01*
X0090649Y0118947D01*
X0090719Y0118868D01*
X0090785Y0118787D01*
X0090849Y0118703D01*
X0090909Y0118617D01*
X0090965Y0118529D01*
X0091019Y0118438D01*
X0091069Y0118346D01*
X0091115Y0118252D01*
X0091158Y0118156D01*
X0091197Y0118058D01*
X0091232Y0117960D01*
X0091263Y0117859D01*
X0091291Y0117758D01*
X0091315Y0117656D01*
X0091335Y0117553D01*
X0091351Y0117449D01*
X0091363Y0117345D01*
X0091371Y0117240D01*
X0091375Y0117135D01*
X0091375Y0117031D01*
X0091371Y0116926D01*
X0091363Y0116821D01*
X0091351Y0116717D01*
X0091335Y0116613D01*
X0091315Y0116510D01*
X0091291Y0116408D01*
X0091263Y0116307D01*
X0091232Y0116206D01*
X0091197Y0116108D01*
X0091158Y0116010D01*
X0091115Y0115914D01*
X0091069Y0115820D01*
X0091019Y0115728D01*
X0090965Y0115637D01*
X0090909Y0115549D01*
X0090849Y0115463D01*
X0090785Y0115379D01*
X0090719Y0115298D01*
X0090649Y0115219D01*
X0090577Y0115144D01*
X0090502Y0115070D01*
X0090424Y0115000D01*
X0090343Y0114933D01*
X0090260Y0114869D01*
X0090175Y0114808D01*
X0090087Y0114750D01*
X0089997Y0114696D01*
X0089905Y0114646D01*
X0089811Y0114598D01*
X0089716Y0114555D01*
X0089619Y0114515D01*
X0089520Y0114479D01*
X0089421Y0114446D01*
X0089320Y0114418D01*
X0089218Y0114393D01*
X0089115Y0114372D01*
X0089011Y0114355D01*
X0088907Y0114342D01*
X0088803Y0114333D01*
X0088698Y0114328D01*
X0088593Y0114327D01*
X0088488Y0114330D01*
X0088383Y0114337D01*
X0088279Y0114348D01*
X0088175Y0114363D01*
X0088072Y0114382D01*
X0087969Y0114405D01*
X0087868Y0114431D01*
X0087767Y0114462D01*
X0087668Y0114496D01*
X0087570Y0114534D01*
X0087474Y0114576D01*
X0087380Y0114621D01*
X0087287Y0114670D01*
X0087196Y0114723D01*
X0087107Y0114779D01*
X0087020Y0114838D01*
X0086936Y0114901D01*
X0086854Y0114966D01*
X0086775Y0115035D01*
X0086698Y0115107D01*
X0086624Y0115181D01*
X0086553Y0115258D01*
X0086485Y0115338D01*
X0086421Y0115421D01*
X0086359Y0115506D01*
X0086301Y0115593D01*
X0086245Y0115682D01*
X0086194Y0115774D01*
X0086146Y0115867D01*
X0086101Y0115962D01*
X0086060Y0116059D01*
X0086023Y0116157D01*
X0085990Y0116256D01*
X0085960Y0116357D01*
X0085935Y0116459D01*
X0085913Y0116561D01*
X0085895Y0116665D01*
X0085881Y0116769D01*
X0085871Y0116873D01*
X0085865Y0116978D01*
X0085863Y0117083D01*
X0070390Y0256256D02*
X0070392Y0256404D01*
X0070398Y0256552D01*
X0070408Y0256700D01*
X0070422Y0256847D01*
X0070440Y0256994D01*
X0070461Y0257140D01*
X0070487Y0257286D01*
X0070517Y0257431D01*
X0070550Y0257575D01*
X0070588Y0257718D01*
X0070629Y0257860D01*
X0070674Y0258001D01*
X0070722Y0258141D01*
X0070775Y0258280D01*
X0070831Y0258417D01*
X0070891Y0258552D01*
X0070954Y0258686D01*
X0071021Y0258818D01*
X0071092Y0258948D01*
X0071166Y0259076D01*
X0071243Y0259202D01*
X0071324Y0259326D01*
X0071408Y0259448D01*
X0071495Y0259567D01*
X0071586Y0259684D01*
X0071680Y0259799D01*
X0071776Y0259911D01*
X0071876Y0260021D01*
X0071978Y0260127D01*
X0072084Y0260231D01*
X0072192Y0260332D01*
X0072303Y0260430D01*
X0072416Y0260526D01*
X0072532Y0260618D01*
X0072650Y0260707D01*
X0072771Y0260792D01*
X0072894Y0260875D01*
X0073019Y0260954D01*
X0073146Y0261030D01*
X0073275Y0261102D01*
X0073406Y0261171D01*
X0073539Y0261236D01*
X0073674Y0261297D01*
X0073810Y0261355D01*
X0073947Y0261410D01*
X0074086Y0261460D01*
X0074227Y0261507D01*
X0074368Y0261550D01*
X0074511Y0261590D01*
X0074655Y0261625D01*
X0074799Y0261657D01*
X0074945Y0261684D01*
X0075091Y0261708D01*
X0075238Y0261728D01*
X0075385Y0261744D01*
X0075532Y0261756D01*
X0075680Y0261764D01*
X0075828Y0261768D01*
X0075976Y0261768D01*
X0076124Y0261764D01*
X0076272Y0261756D01*
X0076419Y0261744D01*
X0076566Y0261728D01*
X0076713Y0261708D01*
X0076859Y0261684D01*
X0077005Y0261657D01*
X0077149Y0261625D01*
X0077293Y0261590D01*
X0077436Y0261550D01*
X0077577Y0261507D01*
X0077718Y0261460D01*
X0077857Y0261410D01*
X0077994Y0261355D01*
X0078130Y0261297D01*
X0078265Y0261236D01*
X0078398Y0261171D01*
X0078529Y0261102D01*
X0078658Y0261030D01*
X0078785Y0260954D01*
X0078910Y0260875D01*
X0079033Y0260792D01*
X0079154Y0260707D01*
X0079272Y0260618D01*
X0079388Y0260526D01*
X0079501Y0260430D01*
X0079612Y0260332D01*
X0079720Y0260231D01*
X0079826Y0260127D01*
X0079928Y0260021D01*
X0080028Y0259911D01*
X0080124Y0259799D01*
X0080218Y0259684D01*
X0080309Y0259567D01*
X0080396Y0259448D01*
X0080480Y0259326D01*
X0080561Y0259202D01*
X0080638Y0259076D01*
X0080712Y0258948D01*
X0080783Y0258818D01*
X0080850Y0258686D01*
X0080913Y0258552D01*
X0080973Y0258417D01*
X0081029Y0258280D01*
X0081082Y0258141D01*
X0081130Y0258001D01*
X0081175Y0257860D01*
X0081216Y0257718D01*
X0081254Y0257575D01*
X0081287Y0257431D01*
X0081317Y0257286D01*
X0081343Y0257140D01*
X0081364Y0256994D01*
X0081382Y0256847D01*
X0081396Y0256700D01*
X0081406Y0256552D01*
X0081412Y0256404D01*
X0081414Y0256256D01*
X0081412Y0256108D01*
X0081406Y0255960D01*
X0081396Y0255812D01*
X0081382Y0255665D01*
X0081364Y0255518D01*
X0081343Y0255372D01*
X0081317Y0255226D01*
X0081287Y0255081D01*
X0081254Y0254937D01*
X0081216Y0254794D01*
X0081175Y0254652D01*
X0081130Y0254511D01*
X0081082Y0254371D01*
X0081029Y0254232D01*
X0080973Y0254095D01*
X0080913Y0253960D01*
X0080850Y0253826D01*
X0080783Y0253694D01*
X0080712Y0253564D01*
X0080638Y0253436D01*
X0080561Y0253310D01*
X0080480Y0253186D01*
X0080396Y0253064D01*
X0080309Y0252945D01*
X0080218Y0252828D01*
X0080124Y0252713D01*
X0080028Y0252601D01*
X0079928Y0252491D01*
X0079826Y0252385D01*
X0079720Y0252281D01*
X0079612Y0252180D01*
X0079501Y0252082D01*
X0079388Y0251986D01*
X0079272Y0251894D01*
X0079154Y0251805D01*
X0079033Y0251720D01*
X0078910Y0251637D01*
X0078785Y0251558D01*
X0078658Y0251482D01*
X0078529Y0251410D01*
X0078398Y0251341D01*
X0078265Y0251276D01*
X0078130Y0251215D01*
X0077994Y0251157D01*
X0077857Y0251102D01*
X0077718Y0251052D01*
X0077577Y0251005D01*
X0077436Y0250962D01*
X0077293Y0250922D01*
X0077149Y0250887D01*
X0077005Y0250855D01*
X0076859Y0250828D01*
X0076713Y0250804D01*
X0076566Y0250784D01*
X0076419Y0250768D01*
X0076272Y0250756D01*
X0076124Y0250748D01*
X0075976Y0250744D01*
X0075828Y0250744D01*
X0075680Y0250748D01*
X0075532Y0250756D01*
X0075385Y0250768D01*
X0075238Y0250784D01*
X0075091Y0250804D01*
X0074945Y0250828D01*
X0074799Y0250855D01*
X0074655Y0250887D01*
X0074511Y0250922D01*
X0074368Y0250962D01*
X0074227Y0251005D01*
X0074086Y0251052D01*
X0073947Y0251102D01*
X0073810Y0251157D01*
X0073674Y0251215D01*
X0073539Y0251276D01*
X0073406Y0251341D01*
X0073275Y0251410D01*
X0073146Y0251482D01*
X0073019Y0251558D01*
X0072894Y0251637D01*
X0072771Y0251720D01*
X0072650Y0251805D01*
X0072532Y0251894D01*
X0072416Y0251986D01*
X0072303Y0252082D01*
X0072192Y0252180D01*
X0072084Y0252281D01*
X0071978Y0252385D01*
X0071876Y0252491D01*
X0071776Y0252601D01*
X0071680Y0252713D01*
X0071586Y0252828D01*
X0071495Y0252945D01*
X0071408Y0253064D01*
X0071324Y0253186D01*
X0071243Y0253310D01*
X0071166Y0253436D01*
X0071092Y0253564D01*
X0071021Y0253694D01*
X0070954Y0253826D01*
X0070891Y0253960D01*
X0070831Y0254095D01*
X0070775Y0254232D01*
X0070722Y0254371D01*
X0070674Y0254511D01*
X0070629Y0254652D01*
X0070588Y0254794D01*
X0070550Y0254937D01*
X0070517Y0255081D01*
X0070487Y0255226D01*
X0070461Y0255372D01*
X0070440Y0255518D01*
X0070422Y0255665D01*
X0070408Y0255812D01*
X0070398Y0255960D01*
X0070392Y0256108D01*
X0070390Y0256256D01*
X0385036Y0257161D02*
X0385038Y0257309D01*
X0385044Y0257457D01*
X0385054Y0257605D01*
X0385068Y0257752D01*
X0385086Y0257899D01*
X0385107Y0258045D01*
X0385133Y0258191D01*
X0385163Y0258336D01*
X0385196Y0258480D01*
X0385234Y0258623D01*
X0385275Y0258765D01*
X0385320Y0258906D01*
X0385368Y0259046D01*
X0385421Y0259185D01*
X0385477Y0259322D01*
X0385537Y0259457D01*
X0385600Y0259591D01*
X0385667Y0259723D01*
X0385738Y0259853D01*
X0385812Y0259981D01*
X0385889Y0260107D01*
X0385970Y0260231D01*
X0386054Y0260353D01*
X0386141Y0260472D01*
X0386232Y0260589D01*
X0386326Y0260704D01*
X0386422Y0260816D01*
X0386522Y0260926D01*
X0386624Y0261032D01*
X0386730Y0261136D01*
X0386838Y0261237D01*
X0386949Y0261335D01*
X0387062Y0261431D01*
X0387178Y0261523D01*
X0387296Y0261612D01*
X0387417Y0261697D01*
X0387540Y0261780D01*
X0387665Y0261859D01*
X0387792Y0261935D01*
X0387921Y0262007D01*
X0388052Y0262076D01*
X0388185Y0262141D01*
X0388320Y0262202D01*
X0388456Y0262260D01*
X0388593Y0262315D01*
X0388732Y0262365D01*
X0388873Y0262412D01*
X0389014Y0262455D01*
X0389157Y0262495D01*
X0389301Y0262530D01*
X0389445Y0262562D01*
X0389591Y0262589D01*
X0389737Y0262613D01*
X0389884Y0262633D01*
X0390031Y0262649D01*
X0390178Y0262661D01*
X0390326Y0262669D01*
X0390474Y0262673D01*
X0390622Y0262673D01*
X0390770Y0262669D01*
X0390918Y0262661D01*
X0391065Y0262649D01*
X0391212Y0262633D01*
X0391359Y0262613D01*
X0391505Y0262589D01*
X0391651Y0262562D01*
X0391795Y0262530D01*
X0391939Y0262495D01*
X0392082Y0262455D01*
X0392223Y0262412D01*
X0392364Y0262365D01*
X0392503Y0262315D01*
X0392640Y0262260D01*
X0392776Y0262202D01*
X0392911Y0262141D01*
X0393044Y0262076D01*
X0393175Y0262007D01*
X0393304Y0261935D01*
X0393431Y0261859D01*
X0393556Y0261780D01*
X0393679Y0261697D01*
X0393800Y0261612D01*
X0393918Y0261523D01*
X0394034Y0261431D01*
X0394147Y0261335D01*
X0394258Y0261237D01*
X0394366Y0261136D01*
X0394472Y0261032D01*
X0394574Y0260926D01*
X0394674Y0260816D01*
X0394770Y0260704D01*
X0394864Y0260589D01*
X0394955Y0260472D01*
X0395042Y0260353D01*
X0395126Y0260231D01*
X0395207Y0260107D01*
X0395284Y0259981D01*
X0395358Y0259853D01*
X0395429Y0259723D01*
X0395496Y0259591D01*
X0395559Y0259457D01*
X0395619Y0259322D01*
X0395675Y0259185D01*
X0395728Y0259046D01*
X0395776Y0258906D01*
X0395821Y0258765D01*
X0395862Y0258623D01*
X0395900Y0258480D01*
X0395933Y0258336D01*
X0395963Y0258191D01*
X0395989Y0258045D01*
X0396010Y0257899D01*
X0396028Y0257752D01*
X0396042Y0257605D01*
X0396052Y0257457D01*
X0396058Y0257309D01*
X0396060Y0257161D01*
X0396058Y0257013D01*
X0396052Y0256865D01*
X0396042Y0256717D01*
X0396028Y0256570D01*
X0396010Y0256423D01*
X0395989Y0256277D01*
X0395963Y0256131D01*
X0395933Y0255986D01*
X0395900Y0255842D01*
X0395862Y0255699D01*
X0395821Y0255557D01*
X0395776Y0255416D01*
X0395728Y0255276D01*
X0395675Y0255137D01*
X0395619Y0255000D01*
X0395559Y0254865D01*
X0395496Y0254731D01*
X0395429Y0254599D01*
X0395358Y0254469D01*
X0395284Y0254341D01*
X0395207Y0254215D01*
X0395126Y0254091D01*
X0395042Y0253969D01*
X0394955Y0253850D01*
X0394864Y0253733D01*
X0394770Y0253618D01*
X0394674Y0253506D01*
X0394574Y0253396D01*
X0394472Y0253290D01*
X0394366Y0253186D01*
X0394258Y0253085D01*
X0394147Y0252987D01*
X0394034Y0252891D01*
X0393918Y0252799D01*
X0393800Y0252710D01*
X0393679Y0252625D01*
X0393556Y0252542D01*
X0393431Y0252463D01*
X0393304Y0252387D01*
X0393175Y0252315D01*
X0393044Y0252246D01*
X0392911Y0252181D01*
X0392776Y0252120D01*
X0392640Y0252062D01*
X0392503Y0252007D01*
X0392364Y0251957D01*
X0392223Y0251910D01*
X0392082Y0251867D01*
X0391939Y0251827D01*
X0391795Y0251792D01*
X0391651Y0251760D01*
X0391505Y0251733D01*
X0391359Y0251709D01*
X0391212Y0251689D01*
X0391065Y0251673D01*
X0390918Y0251661D01*
X0390770Y0251653D01*
X0390622Y0251649D01*
X0390474Y0251649D01*
X0390326Y0251653D01*
X0390178Y0251661D01*
X0390031Y0251673D01*
X0389884Y0251689D01*
X0389737Y0251709D01*
X0389591Y0251733D01*
X0389445Y0251760D01*
X0389301Y0251792D01*
X0389157Y0251827D01*
X0389014Y0251867D01*
X0388873Y0251910D01*
X0388732Y0251957D01*
X0388593Y0252007D01*
X0388456Y0252062D01*
X0388320Y0252120D01*
X0388185Y0252181D01*
X0388052Y0252246D01*
X0387921Y0252315D01*
X0387792Y0252387D01*
X0387665Y0252463D01*
X0387540Y0252542D01*
X0387417Y0252625D01*
X0387296Y0252710D01*
X0387178Y0252799D01*
X0387062Y0252891D01*
X0386949Y0252987D01*
X0386838Y0253085D01*
X0386730Y0253186D01*
X0386624Y0253290D01*
X0386522Y0253396D01*
X0386422Y0253506D01*
X0386326Y0253618D01*
X0386232Y0253733D01*
X0386141Y0253850D01*
X0386054Y0253969D01*
X0385970Y0254091D01*
X0385889Y0254215D01*
X0385812Y0254341D01*
X0385738Y0254469D01*
X0385667Y0254599D01*
X0385600Y0254731D01*
X0385537Y0254865D01*
X0385477Y0255000D01*
X0385421Y0255137D01*
X0385368Y0255276D01*
X0385320Y0255416D01*
X0385275Y0255557D01*
X0385234Y0255699D01*
X0385196Y0255842D01*
X0385163Y0255986D01*
X0385133Y0256131D01*
X0385107Y0256277D01*
X0385086Y0256423D01*
X0385068Y0256570D01*
X0385054Y0256717D01*
X0385044Y0256865D01*
X0385038Y0257013D01*
X0385036Y0257161D01*
X0385036Y0020941D02*
X0385038Y0021089D01*
X0385044Y0021237D01*
X0385054Y0021385D01*
X0385068Y0021532D01*
X0385086Y0021679D01*
X0385107Y0021825D01*
X0385133Y0021971D01*
X0385163Y0022116D01*
X0385196Y0022260D01*
X0385234Y0022403D01*
X0385275Y0022545D01*
X0385320Y0022686D01*
X0385368Y0022826D01*
X0385421Y0022965D01*
X0385477Y0023102D01*
X0385537Y0023237D01*
X0385600Y0023371D01*
X0385667Y0023503D01*
X0385738Y0023633D01*
X0385812Y0023761D01*
X0385889Y0023887D01*
X0385970Y0024011D01*
X0386054Y0024133D01*
X0386141Y0024252D01*
X0386232Y0024369D01*
X0386326Y0024484D01*
X0386422Y0024596D01*
X0386522Y0024706D01*
X0386624Y0024812D01*
X0386730Y0024916D01*
X0386838Y0025017D01*
X0386949Y0025115D01*
X0387062Y0025211D01*
X0387178Y0025303D01*
X0387296Y0025392D01*
X0387417Y0025477D01*
X0387540Y0025560D01*
X0387665Y0025639D01*
X0387792Y0025715D01*
X0387921Y0025787D01*
X0388052Y0025856D01*
X0388185Y0025921D01*
X0388320Y0025982D01*
X0388456Y0026040D01*
X0388593Y0026095D01*
X0388732Y0026145D01*
X0388873Y0026192D01*
X0389014Y0026235D01*
X0389157Y0026275D01*
X0389301Y0026310D01*
X0389445Y0026342D01*
X0389591Y0026369D01*
X0389737Y0026393D01*
X0389884Y0026413D01*
X0390031Y0026429D01*
X0390178Y0026441D01*
X0390326Y0026449D01*
X0390474Y0026453D01*
X0390622Y0026453D01*
X0390770Y0026449D01*
X0390918Y0026441D01*
X0391065Y0026429D01*
X0391212Y0026413D01*
X0391359Y0026393D01*
X0391505Y0026369D01*
X0391651Y0026342D01*
X0391795Y0026310D01*
X0391939Y0026275D01*
X0392082Y0026235D01*
X0392223Y0026192D01*
X0392364Y0026145D01*
X0392503Y0026095D01*
X0392640Y0026040D01*
X0392776Y0025982D01*
X0392911Y0025921D01*
X0393044Y0025856D01*
X0393175Y0025787D01*
X0393304Y0025715D01*
X0393431Y0025639D01*
X0393556Y0025560D01*
X0393679Y0025477D01*
X0393800Y0025392D01*
X0393918Y0025303D01*
X0394034Y0025211D01*
X0394147Y0025115D01*
X0394258Y0025017D01*
X0394366Y0024916D01*
X0394472Y0024812D01*
X0394574Y0024706D01*
X0394674Y0024596D01*
X0394770Y0024484D01*
X0394864Y0024369D01*
X0394955Y0024252D01*
X0395042Y0024133D01*
X0395126Y0024011D01*
X0395207Y0023887D01*
X0395284Y0023761D01*
X0395358Y0023633D01*
X0395429Y0023503D01*
X0395496Y0023371D01*
X0395559Y0023237D01*
X0395619Y0023102D01*
X0395675Y0022965D01*
X0395728Y0022826D01*
X0395776Y0022686D01*
X0395821Y0022545D01*
X0395862Y0022403D01*
X0395900Y0022260D01*
X0395933Y0022116D01*
X0395963Y0021971D01*
X0395989Y0021825D01*
X0396010Y0021679D01*
X0396028Y0021532D01*
X0396042Y0021385D01*
X0396052Y0021237D01*
X0396058Y0021089D01*
X0396060Y0020941D01*
X0396058Y0020793D01*
X0396052Y0020645D01*
X0396042Y0020497D01*
X0396028Y0020350D01*
X0396010Y0020203D01*
X0395989Y0020057D01*
X0395963Y0019911D01*
X0395933Y0019766D01*
X0395900Y0019622D01*
X0395862Y0019479D01*
X0395821Y0019337D01*
X0395776Y0019196D01*
X0395728Y0019056D01*
X0395675Y0018917D01*
X0395619Y0018780D01*
X0395559Y0018645D01*
X0395496Y0018511D01*
X0395429Y0018379D01*
X0395358Y0018249D01*
X0395284Y0018121D01*
X0395207Y0017995D01*
X0395126Y0017871D01*
X0395042Y0017749D01*
X0394955Y0017630D01*
X0394864Y0017513D01*
X0394770Y0017398D01*
X0394674Y0017286D01*
X0394574Y0017176D01*
X0394472Y0017070D01*
X0394366Y0016966D01*
X0394258Y0016865D01*
X0394147Y0016767D01*
X0394034Y0016671D01*
X0393918Y0016579D01*
X0393800Y0016490D01*
X0393679Y0016405D01*
X0393556Y0016322D01*
X0393431Y0016243D01*
X0393304Y0016167D01*
X0393175Y0016095D01*
X0393044Y0016026D01*
X0392911Y0015961D01*
X0392776Y0015900D01*
X0392640Y0015842D01*
X0392503Y0015787D01*
X0392364Y0015737D01*
X0392223Y0015690D01*
X0392082Y0015647D01*
X0391939Y0015607D01*
X0391795Y0015572D01*
X0391651Y0015540D01*
X0391505Y0015513D01*
X0391359Y0015489D01*
X0391212Y0015469D01*
X0391065Y0015453D01*
X0390918Y0015441D01*
X0390770Y0015433D01*
X0390622Y0015429D01*
X0390474Y0015429D01*
X0390326Y0015433D01*
X0390178Y0015441D01*
X0390031Y0015453D01*
X0389884Y0015469D01*
X0389737Y0015489D01*
X0389591Y0015513D01*
X0389445Y0015540D01*
X0389301Y0015572D01*
X0389157Y0015607D01*
X0389014Y0015647D01*
X0388873Y0015690D01*
X0388732Y0015737D01*
X0388593Y0015787D01*
X0388456Y0015842D01*
X0388320Y0015900D01*
X0388185Y0015961D01*
X0388052Y0016026D01*
X0387921Y0016095D01*
X0387792Y0016167D01*
X0387665Y0016243D01*
X0387540Y0016322D01*
X0387417Y0016405D01*
X0387296Y0016490D01*
X0387178Y0016579D01*
X0387062Y0016671D01*
X0386949Y0016767D01*
X0386838Y0016865D01*
X0386730Y0016966D01*
X0386624Y0017070D01*
X0386522Y0017176D01*
X0386422Y0017286D01*
X0386326Y0017398D01*
X0386232Y0017513D01*
X0386141Y0017630D01*
X0386054Y0017749D01*
X0385970Y0017871D01*
X0385889Y0017995D01*
X0385812Y0018121D01*
X0385738Y0018249D01*
X0385667Y0018379D01*
X0385600Y0018511D01*
X0385537Y0018645D01*
X0385477Y0018780D01*
X0385421Y0018917D01*
X0385368Y0019056D01*
X0385320Y0019196D01*
X0385275Y0019337D01*
X0385234Y0019479D01*
X0385196Y0019622D01*
X0385163Y0019766D01*
X0385133Y0019911D01*
X0385107Y0020057D01*
X0385086Y0020203D01*
X0385068Y0020350D01*
X0385054Y0020497D01*
X0385044Y0020645D01*
X0385038Y0020793D01*
X0385036Y0020941D01*
D11*
X0366110Y0245119D02*
X0364475Y0246754D01*
X0364475Y0250023D01*
X0367744Y0250023D02*
X0367744Y0246754D01*
X0366110Y0245119D01*
X0356695Y0245119D02*
X0353426Y0248389D01*
X0353426Y0249206D01*
X0354243Y0250023D01*
X0355878Y0250023D01*
X0356695Y0249206D01*
X0356695Y0245119D02*
X0353426Y0245119D01*
X0351170Y0245119D02*
X0350353Y0245119D01*
X0350353Y0245937D01*
X0351170Y0245937D01*
X0351170Y0245119D01*
X0348408Y0245937D02*
X0348408Y0249206D01*
X0347591Y0250023D01*
X0345956Y0250023D01*
X0345138Y0249206D01*
X0348408Y0245937D01*
X0347591Y0245119D01*
X0345956Y0245119D01*
X0345138Y0245937D01*
X0345138Y0249206D01*
X0345646Y0254779D02*
X0345646Y0259683D01*
X0347901Y0259683D02*
X0347901Y0254779D01*
X0351170Y0254779D02*
X0351170Y0259683D01*
X0349536Y0258049D01*
X0347901Y0259683D01*
X0345646Y0257231D02*
X0342376Y0257231D01*
X0340121Y0258049D02*
X0336851Y0258049D01*
X0340121Y0254779D01*
X0336851Y0254779D01*
X0342376Y0254779D02*
X0342376Y0259683D01*
X0341962Y0264439D02*
X0341962Y0269343D01*
X0341962Y0266891D02*
X0338693Y0266891D01*
X0338693Y0269343D02*
X0338693Y0264439D01*
X0344218Y0264439D02*
X0344218Y0267709D01*
X0345852Y0269343D01*
X0347487Y0267709D01*
X0347487Y0264439D01*
X0349536Y0264439D02*
X0351170Y0264439D01*
X0350353Y0264439D02*
X0350353Y0269343D01*
X0351170Y0269343D02*
X0349536Y0269343D01*
X0347487Y0266891D02*
X0344218Y0266891D01*
X0353426Y0266891D02*
X0356695Y0266891D01*
X0354243Y0269343D01*
X0354243Y0264439D01*
X0358950Y0269343D02*
X0362220Y0269343D01*
X0362220Y0264439D01*
X0364475Y0265256D02*
X0364475Y0268526D01*
X0365292Y0269343D01*
X0367744Y0269343D01*
X0367744Y0264439D01*
X0365292Y0264439D01*
X0364475Y0265256D01*
X0362220Y0266891D02*
X0360585Y0266891D01*
X0361402Y0259683D02*
X0359768Y0259683D01*
X0358950Y0258866D01*
X0362220Y0255597D01*
X0361402Y0254779D01*
X0359768Y0254779D01*
X0358950Y0255597D01*
X0358950Y0258866D01*
X0361402Y0259683D02*
X0362220Y0258866D01*
X0362220Y0255597D01*
X0364475Y0254779D02*
X0367744Y0254779D01*
X0366110Y0254779D02*
X0366110Y0259683D01*
X0367744Y0258049D01*
X0329071Y0259683D02*
X0329071Y0254779D01*
X0329071Y0256414D02*
X0326619Y0256414D01*
X0325802Y0257231D01*
X0325802Y0258866D01*
X0326619Y0259683D01*
X0329071Y0259683D01*
X0327437Y0256414D02*
X0325802Y0254779D01*
X0323547Y0255597D02*
X0323547Y0257231D01*
X0322729Y0258049D01*
X0321095Y0258049D01*
X0320277Y0257231D01*
X0320277Y0256414D01*
X0323547Y0256414D01*
X0323547Y0255597D02*
X0322729Y0254779D01*
X0321095Y0254779D01*
X0317205Y0254779D02*
X0317205Y0258866D01*
X0316387Y0259683D01*
X0316387Y0257231D02*
X0318022Y0257231D01*
X0314339Y0255597D02*
X0313521Y0255597D01*
X0313521Y0254779D01*
X0314339Y0254779D01*
X0314339Y0255597D01*
X0311576Y0257231D02*
X0308307Y0257231D01*
X0306052Y0255597D02*
X0306052Y0258866D01*
X0305234Y0259683D01*
X0303600Y0259683D01*
X0302782Y0258866D01*
X0302782Y0255597D01*
X0303600Y0254779D01*
X0305234Y0254779D01*
X0306052Y0255597D01*
X0300527Y0254779D02*
X0298075Y0254779D01*
X0297258Y0255597D01*
X0298075Y0256414D01*
X0299710Y0256414D01*
X0300527Y0257231D01*
X0299710Y0258049D01*
X0297258Y0258049D01*
X0295002Y0257231D02*
X0295002Y0255597D01*
X0294185Y0254779D01*
X0291733Y0254779D01*
X0289478Y0254779D02*
X0288660Y0254779D01*
X0288660Y0255597D01*
X0289478Y0255597D01*
X0289478Y0254779D01*
X0291733Y0258049D02*
X0294185Y0258049D01*
X0295002Y0257231D01*
D12*
X0080402Y0045759D02*
X0078401Y0045759D01*
X0077733Y0045092D01*
X0077733Y0044425D01*
X0078401Y0043758D01*
X0080402Y0043758D01*
X0080402Y0045759D02*
X0080402Y0041756D01*
X0078401Y0041756D01*
X0077733Y0042423D01*
X0077733Y0043090D01*
X0078401Y0043758D01*
X0075798Y0043758D02*
X0075798Y0042423D01*
X0075131Y0041756D01*
X0073797Y0041756D01*
X0073129Y0042423D01*
X0073129Y0043758D01*
X0073797Y0044425D01*
X0075131Y0044425D01*
X0075798Y0043758D01*
X0071194Y0044425D02*
X0069860Y0044425D01*
X0070527Y0045092D02*
X0070527Y0042423D01*
X0069860Y0041756D01*
D13*
X0075902Y0183475D02*
X0075902Y0189037D01*
X0085902Y0189037D02*
X0085902Y0183475D01*
X0095902Y0183475D02*
X0095902Y0189037D01*
X0105902Y0189037D02*
X0105902Y0183475D01*
X0115902Y0183475D02*
X0115902Y0189037D01*
X0125902Y0189037D02*
X0125902Y0183475D01*
X0135902Y0183475D02*
X0135902Y0189037D01*
X0145902Y0189037D02*
X0145902Y0183475D01*
X0155902Y0183475D02*
X0155902Y0189037D01*
X0165902Y0189037D02*
X0165902Y0183475D01*
X0175902Y0183475D02*
X0175902Y0189037D01*
X0185902Y0189037D02*
X0185902Y0183475D01*
X0195902Y0183475D02*
X0195902Y0189037D01*
X0205902Y0189037D02*
X0205902Y0183475D01*
X0205902Y0213475D02*
X0205902Y0219037D01*
X0195902Y0219037D02*
X0195902Y0213475D01*
X0185902Y0213475D02*
X0185902Y0219037D01*
X0175902Y0219037D02*
X0175902Y0213475D01*
X0165902Y0213475D02*
X0165902Y0219037D01*
X0155902Y0219037D02*
X0155902Y0213475D01*
X0145902Y0213475D02*
X0145902Y0219037D01*
X0135902Y0219037D02*
X0135902Y0213475D01*
X0125902Y0213475D02*
X0125902Y0219037D01*
X0115902Y0219037D02*
X0115902Y0213475D01*
X0105902Y0213475D02*
X0105902Y0219037D01*
X0095902Y0219037D02*
X0095902Y0213475D01*
X0085902Y0213475D02*
X0085902Y0219037D01*
X0075902Y0219037D02*
X0075902Y0213475D01*
D14*
X0333402Y0058356D03*
X0338402Y0058356D03*
X0343402Y0058356D03*
X0348402Y0058356D03*
X0353402Y0058356D03*
X0358402Y0058356D03*
X0363402Y0058356D03*
X0368402Y0058356D03*
X0368402Y0034156D03*
X0363402Y0034156D03*
X0358402Y0034156D03*
X0353402Y0034156D03*
X0348402Y0034156D03*
X0343402Y0034156D03*
X0338402Y0034156D03*
X0333402Y0034156D03*
D15*
G36*
X0300401Y0074875D02*
X0304576Y0079050D01*
X0305967Y0077659D01*
X0301792Y0073484D01*
X0300401Y0074875D01*
G37*
G36*
X0298174Y0077102D02*
X0302349Y0081277D01*
X0303740Y0079886D01*
X0299565Y0075711D01*
X0298174Y0077102D01*
G37*
G36*
X0295947Y0079329D02*
X0300122Y0083504D01*
X0301513Y0082113D01*
X0297338Y0077938D01*
X0295947Y0079329D01*
G37*
G36*
X0293720Y0081556D02*
X0297895Y0085731D01*
X0299286Y0084340D01*
X0295111Y0080165D01*
X0293720Y0081556D01*
G37*
G36*
X0291493Y0083783D02*
X0295668Y0087958D01*
X0297059Y0086567D01*
X0292884Y0082392D01*
X0291493Y0083783D01*
G37*
G36*
X0289266Y0086010D02*
X0293441Y0090185D01*
X0294832Y0088794D01*
X0290657Y0084619D01*
X0289266Y0086010D01*
G37*
G36*
X0287039Y0088238D02*
X0291214Y0092413D01*
X0292605Y0091022D01*
X0288430Y0086847D01*
X0287039Y0088238D01*
G37*
G36*
X0284812Y0090465D02*
X0288987Y0094640D01*
X0290378Y0093249D01*
X0286203Y0089074D01*
X0284812Y0090465D01*
G37*
G36*
X0282584Y0092692D02*
X0286759Y0096867D01*
X0288150Y0095476D01*
X0283975Y0091301D01*
X0282584Y0092692D01*
G37*
G36*
X0280357Y0094919D02*
X0284532Y0099094D01*
X0285923Y0097703D01*
X0281748Y0093528D01*
X0280357Y0094919D01*
G37*
G36*
X0278130Y0097146D02*
X0282305Y0101321D01*
X0283696Y0099930D01*
X0279521Y0095755D01*
X0278130Y0097146D01*
G37*
G36*
X0245837Y0064853D02*
X0250012Y0069028D01*
X0251403Y0067637D01*
X0247228Y0063462D01*
X0245837Y0064853D01*
G37*
G36*
X0248064Y0062626D02*
X0252239Y0066801D01*
X0253630Y0065410D01*
X0249455Y0061235D01*
X0248064Y0062626D01*
G37*
G36*
X0250291Y0060399D02*
X0254466Y0064574D01*
X0255857Y0063183D01*
X0251682Y0059008D01*
X0250291Y0060399D01*
G37*
G36*
X0252518Y0058172D02*
X0256693Y0062347D01*
X0258084Y0060956D01*
X0253909Y0056781D01*
X0252518Y0058172D01*
G37*
G36*
X0254746Y0055944D02*
X0258921Y0060119D01*
X0260312Y0058728D01*
X0256137Y0054553D01*
X0254746Y0055944D01*
G37*
G36*
X0256973Y0053717D02*
X0261148Y0057892D01*
X0262539Y0056501D01*
X0258364Y0052326D01*
X0256973Y0053717D01*
G37*
G36*
X0259200Y0051490D02*
X0263375Y0055665D01*
X0264766Y0054274D01*
X0260591Y0050099D01*
X0259200Y0051490D01*
G37*
G36*
X0261427Y0049263D02*
X0265602Y0053438D01*
X0266993Y0052047D01*
X0262818Y0047872D01*
X0261427Y0049263D01*
G37*
G36*
X0263654Y0047036D02*
X0267829Y0051211D01*
X0269220Y0049820D01*
X0265045Y0045645D01*
X0263654Y0047036D01*
G37*
G36*
X0265881Y0044809D02*
X0270056Y0048984D01*
X0271447Y0047593D01*
X0267272Y0043418D01*
X0265881Y0044809D01*
G37*
G36*
X0268108Y0042582D02*
X0272283Y0046757D01*
X0273674Y0045366D01*
X0269499Y0041191D01*
X0268108Y0042582D01*
G37*
D16*
G36*
X0278130Y0045366D02*
X0279521Y0046757D01*
X0283696Y0042582D01*
X0282305Y0041191D01*
X0278130Y0045366D01*
G37*
G36*
X0280357Y0047593D02*
X0281748Y0048984D01*
X0285923Y0044809D01*
X0284532Y0043418D01*
X0280357Y0047593D01*
G37*
G36*
X0282584Y0049820D02*
X0283975Y0051211D01*
X0288150Y0047036D01*
X0286759Y0045645D01*
X0282584Y0049820D01*
G37*
G36*
X0284812Y0052047D02*
X0286203Y0053438D01*
X0290378Y0049263D01*
X0288987Y0047872D01*
X0284812Y0052047D01*
G37*
G36*
X0287039Y0054274D02*
X0288430Y0055665D01*
X0292605Y0051490D01*
X0291214Y0050099D01*
X0287039Y0054274D01*
G37*
G36*
X0289266Y0056501D02*
X0290657Y0057892D01*
X0294832Y0053717D01*
X0293441Y0052326D01*
X0289266Y0056501D01*
G37*
G36*
X0291493Y0058728D02*
X0292884Y0060119D01*
X0297059Y0055944D01*
X0295668Y0054553D01*
X0291493Y0058728D01*
G37*
G36*
X0293720Y0060956D02*
X0295111Y0062347D01*
X0299286Y0058172D01*
X0297895Y0056781D01*
X0293720Y0060956D01*
G37*
G36*
X0295947Y0063183D02*
X0297338Y0064574D01*
X0301513Y0060399D01*
X0300122Y0059008D01*
X0295947Y0063183D01*
G37*
G36*
X0298174Y0065410D02*
X0299565Y0066801D01*
X0303740Y0062626D01*
X0302349Y0061235D01*
X0298174Y0065410D01*
G37*
G36*
X0300401Y0067637D02*
X0301792Y0069028D01*
X0305967Y0064853D01*
X0304576Y0063462D01*
X0300401Y0067637D01*
G37*
G36*
X0263654Y0095476D02*
X0265045Y0096867D01*
X0269220Y0092692D01*
X0267829Y0091301D01*
X0263654Y0095476D01*
G37*
G36*
X0265881Y0097703D02*
X0267272Y0099094D01*
X0271447Y0094919D01*
X0270056Y0093528D01*
X0265881Y0097703D01*
G37*
G36*
X0268108Y0099930D02*
X0269499Y0101321D01*
X0273674Y0097146D01*
X0272283Y0095755D01*
X0268108Y0099930D01*
G37*
G36*
X0261427Y0093249D02*
X0262818Y0094640D01*
X0266993Y0090465D01*
X0265602Y0089074D01*
X0261427Y0093249D01*
G37*
G36*
X0259200Y0091022D02*
X0260591Y0092413D01*
X0264766Y0088238D01*
X0263375Y0086847D01*
X0259200Y0091022D01*
G37*
G36*
X0256973Y0088794D02*
X0258364Y0090185D01*
X0262539Y0086010D01*
X0261148Y0084619D01*
X0256973Y0088794D01*
G37*
G36*
X0254746Y0086567D02*
X0256137Y0087958D01*
X0260312Y0083783D01*
X0258921Y0082392D01*
X0254746Y0086567D01*
G37*
G36*
X0252518Y0084340D02*
X0253909Y0085731D01*
X0258084Y0081556D01*
X0256693Y0080165D01*
X0252518Y0084340D01*
G37*
G36*
X0250291Y0082113D02*
X0251682Y0083504D01*
X0255857Y0079329D01*
X0254466Y0077938D01*
X0250291Y0082113D01*
G37*
G36*
X0248064Y0079886D02*
X0249455Y0081277D01*
X0253630Y0077102D01*
X0252239Y0075711D01*
X0248064Y0079886D01*
G37*
G36*
X0245837Y0077659D02*
X0247228Y0079050D01*
X0251403Y0074875D01*
X0250012Y0073484D01*
X0245837Y0077659D01*
G37*
D17*
X0290802Y0137556D03*
X0290802Y0141256D03*
X0290802Y0144956D03*
X0301002Y0144956D03*
X0301002Y0137556D03*
D18*
X0230902Y0064256D03*
X0230902Y0058256D03*
X0260902Y0034256D03*
X0260902Y0028256D03*
D19*
X0337162Y0022252D03*
X0344642Y0022252D03*
X0344642Y0011256D03*
X0337162Y0011256D03*
X0356922Y0068618D03*
X0364403Y0068618D03*
X0274642Y0141256D03*
X0267162Y0141256D03*
X0174642Y0156256D03*
X0167162Y0156256D03*
X0149642Y0156256D03*
X0142162Y0156256D03*
X0142162Y0171256D03*
X0149642Y0171256D03*
X0162162Y0116256D03*
X0169642Y0116256D03*
X0139642Y0071256D03*
X0132162Y0071256D03*
X0137162Y0231256D03*
X0144642Y0231256D03*
D20*
X0155902Y0232516D03*
X0155902Y0239996D03*
X0320902Y0134996D03*
X0320902Y0127516D03*
X0380902Y0049996D03*
X0380902Y0042516D03*
X0235902Y0034996D03*
X0235902Y0027516D03*
X0215902Y0057516D03*
X0215902Y0064996D03*
X0145902Y0102516D03*
X0145902Y0109996D03*
D21*
X0230095Y0211256D03*
X0241709Y0211256D03*
D22*
X0210902Y0161098D03*
X0210902Y0141413D03*
D23*
X0138579Y0256256D03*
X0123225Y0256256D03*
D24*
X0251572Y0249996D03*
X0260233Y0246256D03*
X0251572Y0242516D03*
D25*
X0164839Y0135193D03*
X0156965Y0135193D03*
X0160902Y0127319D03*
D26*
X0392123Y0121020D03*
X0392123Y0091098D03*
D27*
X0361414Y0106059D03*
D28*
X0339698Y0106059D01*
X0339698Y0106028D01*
X0336997Y0103561D02*
X0331493Y0103561D01*
X0331493Y0105159D02*
X0336102Y0105159D01*
X0336043Y0105301D02*
X0336600Y0103957D01*
X0337628Y0102930D01*
X0338971Y0102373D01*
X0340425Y0102373D01*
X0341768Y0102930D01*
X0342116Y0103278D01*
X0358443Y0103278D01*
X0359110Y0102611D01*
X0360605Y0101991D01*
X0362223Y0101991D01*
X0363718Y0102611D01*
X0364862Y0103755D01*
X0365482Y0105250D01*
X0365482Y0106868D01*
X0364862Y0108363D01*
X0363718Y0109507D01*
X0362223Y0110127D01*
X0360605Y0110127D01*
X0359110Y0109507D01*
X0358443Y0108840D01*
X0342053Y0108840D01*
X0341768Y0109125D01*
X0340425Y0109682D01*
X0338971Y0109682D01*
X0337628Y0109125D01*
X0336600Y0108098D01*
X0336043Y0106754D01*
X0336043Y0105301D01*
X0336045Y0106758D02*
X0331493Y0106758D01*
X0331493Y0108356D02*
X0336858Y0108356D01*
X0331493Y0109955D02*
X0360189Y0109955D01*
X0362639Y0109955D02*
X0408252Y0109955D01*
X0408252Y0111553D02*
X0331493Y0111553D01*
X0331493Y0113152D02*
X0408252Y0113152D01*
X0408252Y0114750D02*
X0331493Y0114750D01*
X0331493Y0116349D02*
X0390532Y0116349D01*
X0390229Y0116447D02*
X0390967Y0116207D01*
X0391734Y0116086D01*
X0392037Y0116086D01*
X0392037Y0120934D01*
X0392209Y0120934D01*
X0392209Y0121106D01*
X0397057Y0121106D01*
X0397057Y0121408D01*
X0396935Y0122175D01*
X0396695Y0122914D01*
X0396343Y0123606D01*
X0395886Y0124234D01*
X0395337Y0124783D01*
X0394709Y0125239D01*
X0394017Y0125592D01*
X0393278Y0125832D01*
X0392511Y0125954D01*
X0392209Y0125954D01*
X0392209Y0121106D01*
X0392037Y0121106D01*
X0392037Y0125954D01*
X0391734Y0125954D01*
X0390967Y0125832D01*
X0390229Y0125592D01*
X0389537Y0125239D01*
X0388909Y0124783D01*
X0388359Y0124234D01*
X0387903Y0123606D01*
X0387550Y0122914D01*
X0387310Y0122175D01*
X0387189Y0121408D01*
X0387189Y0121106D01*
X0392037Y0121106D01*
X0392037Y0120934D01*
X0387189Y0120934D01*
X0387189Y0120631D01*
X0387310Y0119864D01*
X0387550Y0119126D01*
X0387903Y0118434D01*
X0388359Y0117805D01*
X0388909Y0117256D01*
X0389537Y0116800D01*
X0390229Y0116447D01*
X0392037Y0116349D02*
X0392209Y0116349D01*
X0392209Y0116086D02*
X0392511Y0116086D01*
X0393278Y0116207D01*
X0394017Y0116447D01*
X0394709Y0116800D01*
X0395337Y0117256D01*
X0395886Y0117805D01*
X0396343Y0118434D01*
X0396695Y0119126D01*
X0396935Y0119864D01*
X0397057Y0120631D01*
X0397057Y0120934D01*
X0392209Y0120934D01*
X0392209Y0116086D01*
X0393713Y0116349D02*
X0408252Y0116349D01*
X0408252Y0117947D02*
X0395989Y0117947D01*
X0396832Y0119546D02*
X0408252Y0119546D01*
X0408252Y0121144D02*
X0397057Y0121144D01*
X0396751Y0122743D02*
X0408252Y0122743D01*
X0408252Y0124341D02*
X0395779Y0124341D01*
X0392598Y0125940D02*
X0408252Y0125940D01*
X0408252Y0127538D02*
X0331493Y0127538D01*
X0331493Y0125940D02*
X0391648Y0125940D01*
X0392037Y0125940D02*
X0392209Y0125940D01*
X0392209Y0124341D02*
X0392037Y0124341D01*
X0392037Y0122743D02*
X0392209Y0122743D01*
X0392209Y0121144D02*
X0392037Y0121144D01*
X0392037Y0119546D02*
X0392209Y0119546D01*
X0392209Y0117947D02*
X0392037Y0117947D01*
X0388256Y0117947D02*
X0331493Y0117947D01*
X0331493Y0119546D02*
X0387414Y0119546D01*
X0387189Y0121144D02*
X0331493Y0121144D01*
X0331493Y0122743D02*
X0387495Y0122743D01*
X0388467Y0124341D02*
X0331493Y0124341D01*
X0331493Y0129137D02*
X0408252Y0129137D01*
X0408252Y0130735D02*
X0331493Y0130735D01*
X0331493Y0132334D02*
X0408252Y0132334D01*
X0408252Y0133932D02*
X0331493Y0133932D01*
X0331493Y0135531D02*
X0408252Y0135531D01*
X0408252Y0137129D02*
X0331493Y0137129D01*
X0331493Y0138728D02*
X0408252Y0138728D01*
X0408252Y0140326D02*
X0331493Y0140326D01*
X0331493Y0141925D02*
X0408252Y0141925D01*
X0408252Y0143523D02*
X0331493Y0143523D01*
X0331493Y0145122D02*
X0408252Y0145122D01*
X0408252Y0146720D02*
X0331493Y0146720D01*
X0331493Y0148319D02*
X0408252Y0148319D01*
X0408252Y0149917D02*
X0331493Y0149917D01*
X0331493Y0151516D02*
X0408252Y0151516D01*
X0408252Y0153114D02*
X0331493Y0153114D01*
X0331493Y0154713D02*
X0408252Y0154713D01*
X0408252Y0156312D02*
X0331493Y0156312D01*
X0331493Y0157910D02*
X0408252Y0157910D01*
X0408252Y0159509D02*
X0331493Y0159509D01*
X0331493Y0161098D02*
X0280312Y0161098D01*
X0280312Y0204528D01*
X0284859Y0209076D01*
X0285582Y0209799D01*
X0285770Y0210252D01*
X0307248Y0188773D01*
X0307248Y0188029D01*
X0307804Y0186686D01*
X0308832Y0185658D01*
X0310175Y0185102D01*
X0311629Y0185102D01*
X0312972Y0185658D01*
X0314000Y0186686D01*
X0314557Y0188029D01*
X0314557Y0189483D01*
X0314000Y0190826D01*
X0312972Y0191854D01*
X0311629Y0192410D01*
X0310885Y0192410D01*
X0288474Y0214821D01*
X0288474Y0224267D01*
X0288082Y0225213D01*
X0281470Y0231825D01*
X0281982Y0232167D01*
X0282491Y0232676D01*
X0282891Y0233275D01*
X0283166Y0233940D01*
X0283307Y0234646D01*
X0283307Y0235006D01*
X0283307Y0235366D01*
X0283166Y0236072D01*
X0282891Y0236737D01*
X0282491Y0237335D01*
X0281982Y0237844D01*
X0281383Y0238244D01*
X0280718Y0238520D01*
X0280312Y0238601D01*
X0280312Y0274865D01*
X0408252Y0274865D01*
X0408252Y0205551D01*
X0407910Y0205893D01*
X0407311Y0206293D01*
X0406646Y0206569D01*
X0405940Y0206709D01*
X0405580Y0206709D01*
X0405220Y0206709D01*
X0404514Y0206569D01*
X0403849Y0206293D01*
X0403251Y0205893D01*
X0402742Y0205384D01*
X0402342Y0204786D01*
X0402066Y0204121D01*
X0401926Y0203415D01*
X0401926Y0203055D01*
X0405580Y0203055D01*
X0405580Y0203055D01*
X0401926Y0203055D01*
X0401926Y0202695D01*
X0402066Y0201989D01*
X0402342Y0201324D01*
X0402742Y0200725D01*
X0403251Y0200216D01*
X0403849Y0199817D01*
X0404514Y0199541D01*
X0405220Y0199401D01*
X0405580Y0199401D01*
X0405580Y0203055D01*
X0405580Y0206709D01*
X0405580Y0203055D01*
X0405580Y0203055D01*
X0405580Y0203055D01*
X0405580Y0199401D01*
X0405940Y0199401D01*
X0406646Y0199541D01*
X0407311Y0199817D01*
X0407910Y0200216D01*
X0408252Y0200559D01*
X0408252Y0079996D01*
X0340133Y0079996D01*
X0340133Y0083099D01*
X0339679Y0084195D01*
X0332179Y0091695D01*
X0331493Y0092381D01*
X0331493Y0161098D01*
X0347332Y0186666D02*
X0347997Y0186390D01*
X0348703Y0186250D01*
X0349063Y0186250D01*
X0349423Y0186250D01*
X0350129Y0186390D01*
X0350794Y0186666D01*
X0351392Y0187066D01*
X0351901Y0187575D01*
X0352301Y0188173D01*
X0352577Y0188838D01*
X0352717Y0189544D01*
X0352717Y0189904D01*
X0349063Y0189904D01*
X0349063Y0189904D01*
X0352717Y0189904D01*
X0352717Y0190264D01*
X0352577Y0190970D01*
X0352301Y0191635D01*
X0351901Y0192234D01*
X0351392Y0192743D01*
X0350794Y0193142D01*
X0350129Y0193418D01*
X0349423Y0193558D01*
X0349063Y0193558D01*
X0349063Y0189904D01*
X0349063Y0186250D01*
X0349063Y0189904D01*
X0349063Y0189904D01*
X0349063Y0189904D01*
X0349063Y0193558D01*
X0348703Y0193558D01*
X0347997Y0193418D01*
X0347332Y0193142D01*
X0346733Y0192743D01*
X0346224Y0192234D01*
X0345824Y0191635D01*
X0345549Y0190970D01*
X0345408Y0190264D01*
X0345408Y0189904D01*
X0345408Y0189544D01*
X0345549Y0188838D01*
X0345824Y0188173D01*
X0346224Y0187575D01*
X0346733Y0187066D01*
X0347332Y0186666D01*
X0347305Y0186683D02*
X0313998Y0186683D01*
X0314557Y0188282D02*
X0345779Y0188282D01*
X0345408Y0189880D02*
X0314392Y0189880D01*
X0313347Y0191479D02*
X0345760Y0191479D01*
X0345408Y0189904D02*
X0349063Y0189904D01*
X0345408Y0189904D01*
X0349063Y0189904D02*
X0349063Y0189904D01*
X0349063Y0189880D02*
X0349063Y0189880D01*
X0349063Y0188282D02*
X0349063Y0188282D01*
X0349063Y0186683D02*
X0349063Y0186683D01*
X0350820Y0186683D02*
X0408252Y0186683D01*
X0408252Y0185085D02*
X0280312Y0185085D01*
X0280312Y0186683D02*
X0307807Y0186683D01*
X0307248Y0188282D02*
X0280312Y0188282D01*
X0280312Y0189880D02*
X0306141Y0189880D01*
X0304543Y0191479D02*
X0292237Y0191479D01*
X0292183Y0191468D02*
X0292889Y0191608D01*
X0293554Y0191884D01*
X0294153Y0192284D01*
X0294662Y0192793D01*
X0295062Y0193391D01*
X0295337Y0194056D01*
X0295478Y0194762D01*
X0295478Y0195122D01*
X0291823Y0195122D01*
X0291823Y0195122D01*
X0291823Y0191468D01*
X0291463Y0191468D01*
X0290757Y0191608D01*
X0290092Y0191884D01*
X0289494Y0192284D01*
X0288985Y0192793D01*
X0288585Y0193391D01*
X0288309Y0194056D01*
X0288169Y0194762D01*
X0288169Y0195122D01*
X0291823Y0195122D01*
X0291823Y0195122D01*
X0291823Y0191468D01*
X0292183Y0191468D01*
X0291823Y0191479D02*
X0291823Y0191479D01*
X0291409Y0191479D02*
X0280312Y0191479D01*
X0280312Y0193077D02*
X0288795Y0193077D01*
X0288186Y0194676D02*
X0280312Y0194676D01*
X0280312Y0196274D02*
X0288345Y0196274D01*
X0288309Y0196188D02*
X0288169Y0195482D01*
X0288169Y0195122D01*
X0291823Y0195122D01*
X0291823Y0195122D01*
X0291823Y0195123D02*
X0291823Y0198777D01*
X0291463Y0198777D01*
X0290757Y0198636D01*
X0290092Y0198361D01*
X0289494Y0197961D01*
X0288985Y0197452D01*
X0288585Y0196853D01*
X0288309Y0196188D01*
X0289406Y0197873D02*
X0280312Y0197873D01*
X0280312Y0199471D02*
X0296550Y0199471D01*
X0298148Y0197873D02*
X0294241Y0197873D01*
X0294153Y0197961D02*
X0293554Y0198361D01*
X0292889Y0198636D01*
X0292183Y0198777D01*
X0291823Y0198777D01*
X0291823Y0195123D01*
X0291823Y0195123D01*
X0291823Y0195122D02*
X0295478Y0195122D01*
X0295478Y0195482D01*
X0295337Y0196188D01*
X0295062Y0196853D01*
X0294662Y0197452D01*
X0294153Y0197961D01*
X0295302Y0196274D02*
X0299747Y0196274D01*
X0301345Y0194676D02*
X0295460Y0194676D01*
X0294852Y0193077D02*
X0302944Y0193077D01*
X0307021Y0196274D02*
X0408252Y0196274D01*
X0408252Y0194676D02*
X0308619Y0194676D01*
X0310218Y0193077D02*
X0347234Y0193077D01*
X0349063Y0193077D02*
X0349063Y0193077D01*
X0349063Y0191479D02*
X0349063Y0191479D01*
X0350891Y0193077D02*
X0408252Y0193077D01*
X0408252Y0191479D02*
X0352366Y0191479D01*
X0352717Y0189880D02*
X0408252Y0189880D01*
X0408252Y0188282D02*
X0352346Y0188282D01*
X0369339Y0210287D02*
X0369938Y0209887D01*
X0370603Y0209611D01*
X0371309Y0209471D01*
X0371669Y0209471D01*
X0372029Y0209471D01*
X0372735Y0209611D01*
X0373400Y0209887D01*
X0373998Y0210287D01*
X0374507Y0210796D01*
X0374907Y0211394D01*
X0375183Y0212059D01*
X0375323Y0212765D01*
X0375323Y0213125D01*
X0371669Y0213125D01*
X0371669Y0209471D01*
X0371669Y0213125D01*
X0371669Y0213125D01*
X0371669Y0213125D01*
X0368015Y0213125D01*
X0368015Y0212765D01*
X0368155Y0212059D01*
X0368431Y0211394D01*
X0368830Y0210796D01*
X0369339Y0210287D01*
X0368965Y0210661D02*
X0292634Y0210661D01*
X0291036Y0212259D02*
X0368115Y0212259D01*
X0368015Y0213125D02*
X0371669Y0213125D01*
X0371669Y0213125D01*
X0375323Y0213125D01*
X0375323Y0213485D01*
X0375183Y0214191D01*
X0374907Y0214856D01*
X0374507Y0215455D01*
X0373998Y0215964D01*
X0373400Y0216364D01*
X0372735Y0216639D01*
X0372029Y0216780D01*
X0371669Y0216780D01*
X0371309Y0216780D01*
X0370603Y0216639D01*
X0369938Y0216364D01*
X0369339Y0215964D01*
X0368830Y0215455D01*
X0368431Y0214856D01*
X0368155Y0214191D01*
X0368015Y0213485D01*
X0368015Y0213125D01*
X0368089Y0213858D02*
X0289437Y0213858D01*
X0288474Y0215456D02*
X0368832Y0215456D01*
X0371669Y0215456D02*
X0371669Y0215456D01*
X0371669Y0216780D02*
X0371669Y0213125D01*
X0371669Y0213125D01*
X0371669Y0216780D01*
X0371669Y0213858D02*
X0371669Y0213858D01*
X0371669Y0212259D02*
X0371669Y0212259D01*
X0371669Y0210661D02*
X0371669Y0210661D01*
X0374373Y0210661D02*
X0408252Y0210661D01*
X0408252Y0212259D02*
X0375223Y0212259D01*
X0375249Y0213858D02*
X0408252Y0213858D01*
X0408252Y0215456D02*
X0374506Y0215456D01*
X0381061Y0231724D02*
X0381726Y0231448D01*
X0382432Y0231308D01*
X0382792Y0231308D01*
X0382792Y0234962D01*
X0382792Y0234962D01*
X0379138Y0234962D01*
X0379138Y0235322D01*
X0379278Y0236028D01*
X0379554Y0236693D01*
X0379954Y0237291D01*
X0380463Y0237800D01*
X0381061Y0238200D01*
X0381726Y0238476D01*
X0382432Y0238616D01*
X0382792Y0238616D01*
X0382792Y0234962D01*
X0379138Y0234962D01*
X0379138Y0234602D01*
X0379278Y0233896D01*
X0379554Y0233231D01*
X0379954Y0232632D01*
X0380463Y0232123D01*
X0381061Y0231724D01*
X0381759Y0231442D02*
X0281853Y0231442D01*
X0282734Y0233040D02*
X0379681Y0233040D01*
X0379138Y0234639D02*
X0305701Y0234639D01*
X0305641Y0234598D02*
X0306239Y0234998D01*
X0306748Y0235507D01*
X0307148Y0236106D01*
X0307424Y0236771D01*
X0307564Y0237477D01*
X0307564Y0237837D01*
X0307564Y0238197D01*
X0307424Y0238903D01*
X0307148Y0239568D01*
X0306748Y0240166D01*
X0306239Y0240675D01*
X0305641Y0241075D01*
X0304976Y0241351D01*
X0304270Y0241491D01*
X0303910Y0241491D01*
X0303910Y0237837D01*
X0307564Y0237837D01*
X0303910Y0237837D01*
X0303910Y0237837D01*
X0303910Y0237837D01*
X0303910Y0241491D01*
X0303550Y0241491D01*
X0302844Y0241351D01*
X0302179Y0241075D01*
X0301580Y0240675D01*
X0301071Y0240166D01*
X0300671Y0239568D01*
X0300396Y0238903D01*
X0300255Y0238197D01*
X0300255Y0237837D01*
X0303910Y0237837D01*
X0303910Y0234182D01*
X0304270Y0234182D01*
X0304976Y0234323D01*
X0305641Y0234598D01*
X0303910Y0234639D02*
X0303910Y0234639D01*
X0303910Y0234182D02*
X0303910Y0237837D01*
X0303910Y0237837D01*
X0303910Y0237837D01*
X0300255Y0237837D01*
X0300255Y0237477D01*
X0300396Y0236771D01*
X0300671Y0236106D01*
X0301071Y0235507D01*
X0301580Y0234998D01*
X0302179Y0234598D01*
X0302844Y0234323D01*
X0303550Y0234182D01*
X0303910Y0234182D01*
X0302118Y0234639D02*
X0283305Y0234639D01*
X0283307Y0235006D02*
X0280312Y0235006D01*
X0283307Y0235006D01*
X0283098Y0236237D02*
X0300617Y0236237D01*
X0300255Y0237836D02*
X0281991Y0237836D01*
X0280312Y0239434D02*
X0300616Y0239434D01*
X0302115Y0241033D02*
X0280312Y0241033D01*
X0280312Y0242631D02*
X0345348Y0242631D01*
X0345452Y0242588D02*
X0348094Y0242588D01*
X0348972Y0242952D01*
X0349849Y0242588D01*
X0351674Y0242588D01*
X0352298Y0242847D01*
X0352922Y0242588D01*
X0357198Y0242588D01*
X0358129Y0242973D01*
X0358841Y0243685D01*
X0359226Y0244616D01*
X0359226Y0245623D01*
X0358841Y0246553D01*
X0358231Y0247163D01*
X0358841Y0247772D01*
X0359226Y0248702D01*
X0359226Y0249709D01*
X0358841Y0250640D01*
X0357311Y0252169D01*
X0356381Y0252554D01*
X0353739Y0252554D01*
X0352809Y0252169D01*
X0352097Y0251457D01*
X0351280Y0250640D01*
X0350917Y0249763D01*
X0350554Y0250640D01*
X0349736Y0251457D01*
X0349024Y0252169D01*
X0348619Y0252337D01*
X0349335Y0252633D01*
X0349536Y0252834D01*
X0349737Y0252633D01*
X0350667Y0252248D01*
X0351674Y0252248D01*
X0352604Y0252633D01*
X0353316Y0253345D01*
X0353701Y0254276D01*
X0353701Y0260187D01*
X0353694Y0260206D01*
X0353316Y0261117D01*
X0353316Y0261117D01*
X0353316Y0261117D01*
X0353305Y0261128D01*
X0352604Y0261829D01*
X0352044Y0262061D01*
X0352604Y0262293D01*
X0352707Y0262396D01*
X0352809Y0262293D01*
X0353739Y0261908D01*
X0354746Y0261908D01*
X0355677Y0262293D01*
X0356389Y0263005D01*
X0356774Y0263936D01*
X0356774Y0264360D01*
X0357198Y0264360D01*
X0358129Y0264745D01*
X0358640Y0265257D01*
X0359151Y0264745D01*
X0359689Y0264523D01*
X0359689Y0263936D01*
X0360074Y0263005D01*
X0360786Y0262293D01*
X0360977Y0262214D01*
X0359264Y0262214D01*
X0358334Y0261829D01*
X0357516Y0261012D01*
X0356804Y0260300D01*
X0356419Y0259369D01*
X0356419Y0255093D01*
X0356804Y0254163D01*
X0357622Y0253345D01*
X0358334Y0252633D01*
X0359264Y0252248D01*
X0361906Y0252248D01*
X0362836Y0252633D01*
X0362939Y0252736D01*
X0363041Y0252633D01*
X0363602Y0252401D01*
X0363041Y0252169D01*
X0362329Y0251457D01*
X0361944Y0250527D01*
X0361944Y0246250D01*
X0362329Y0245320D01*
X0363041Y0244608D01*
X0363041Y0244608D01*
X0363964Y0243685D01*
X0364676Y0242973D01*
X0365606Y0242588D01*
X0366613Y0242588D01*
X0366632Y0242596D01*
X0367543Y0242973D01*
X0367543Y0242973D01*
X0367554Y0242984D01*
X0369890Y0245320D01*
X0370276Y0246250D01*
X0370276Y0250527D01*
X0369890Y0251457D01*
X0369178Y0252169D01*
X0368618Y0252401D01*
X0369178Y0252633D01*
X0369890Y0253345D01*
X0370276Y0254276D01*
X0370276Y0255283D01*
X0369890Y0256213D01*
X0369689Y0256414D01*
X0369890Y0256615D01*
X0370276Y0257545D01*
X0370276Y0258552D01*
X0369890Y0259482D01*
X0368255Y0261117D01*
X0367543Y0261829D01*
X0367353Y0261908D01*
X0368248Y0261908D01*
X0369178Y0262293D01*
X0369890Y0263005D01*
X0370276Y0263936D01*
X0370276Y0269847D01*
X0369890Y0270777D01*
X0369178Y0271489D01*
X0368248Y0271874D01*
X0364789Y0271874D01*
X0363859Y0271489D01*
X0363756Y0271387D01*
X0363653Y0271489D01*
X0362723Y0271874D01*
X0358447Y0271874D01*
X0357516Y0271489D01*
X0356804Y0270777D01*
X0356683Y0270483D01*
X0355677Y0271489D01*
X0354746Y0271874D01*
X0353739Y0271874D01*
X0352809Y0271489D01*
X0352707Y0271387D01*
X0352604Y0271489D01*
X0351674Y0271874D01*
X0349032Y0271874D01*
X0348102Y0271489D01*
X0347694Y0271081D01*
X0347286Y0271489D01*
X0346356Y0271874D01*
X0345349Y0271874D01*
X0344419Y0271489D01*
X0343907Y0270978D01*
X0343396Y0271489D01*
X0342466Y0271874D01*
X0341459Y0271874D01*
X0340529Y0271489D01*
X0340328Y0271288D01*
X0340127Y0271489D01*
X0339196Y0271874D01*
X0338189Y0271874D01*
X0337259Y0271489D01*
X0336547Y0270777D01*
X0336162Y0269847D01*
X0336162Y0263936D01*
X0336547Y0263005D01*
X0337259Y0262293D01*
X0338189Y0261908D01*
X0339196Y0261908D01*
X0340127Y0262293D01*
X0340328Y0262494D01*
X0340529Y0262293D01*
X0341296Y0261976D01*
X0340942Y0261829D01*
X0340230Y0261117D01*
X0340008Y0260580D01*
X0336348Y0260580D01*
X0335418Y0260194D01*
X0334706Y0259482D01*
X0334320Y0258552D01*
X0334320Y0257545D01*
X0334706Y0256615D01*
X0334907Y0256414D01*
X0334706Y0256213D01*
X0334320Y0255283D01*
X0334320Y0254276D01*
X0334706Y0253345D01*
X0335418Y0252633D01*
X0336348Y0252248D01*
X0340624Y0252248D01*
X0341248Y0252507D01*
X0341873Y0252248D01*
X0342880Y0252248D01*
X0343810Y0252633D01*
X0344011Y0252834D01*
X0344212Y0252633D01*
X0344927Y0252337D01*
X0344522Y0252169D01*
X0343705Y0251352D01*
X0343705Y0251352D01*
X0342993Y0250640D01*
X0342607Y0249709D01*
X0342607Y0245433D01*
X0342993Y0244503D01*
X0343810Y0243685D01*
X0344522Y0242973D01*
X0345452Y0242588D01*
X0343266Y0244230D02*
X0280312Y0244230D01*
X0280312Y0245828D02*
X0342607Y0245828D01*
X0342607Y0247427D02*
X0280312Y0247427D01*
X0280312Y0249025D02*
X0342607Y0249025D01*
X0342986Y0250624D02*
X0280312Y0250624D01*
X0280312Y0252222D02*
X0344650Y0252222D01*
X0348896Y0252222D02*
X0352937Y0252222D01*
X0353513Y0253821D02*
X0357147Y0253821D01*
X0357183Y0252222D02*
X0363169Y0252222D01*
X0361984Y0250624D02*
X0358847Y0250624D01*
X0359226Y0249025D02*
X0361944Y0249025D01*
X0361944Y0247427D02*
X0358495Y0247427D01*
X0359141Y0245828D02*
X0362119Y0245828D01*
X0363420Y0244230D02*
X0359066Y0244230D01*
X0357302Y0242631D02*
X0365502Y0242631D01*
X0366717Y0242631D02*
X0388845Y0242631D01*
X0390548Y0242361D02*
X0390548Y0242361D01*
X0395121Y0243086D01*
X0395121Y0243086D01*
X0399247Y0245188D01*
X0399247Y0245188D01*
X0402521Y0248462D01*
X0404624Y0252588D01*
X0405348Y0257161D01*
X0404624Y0261735D01*
X0402521Y0265861D01*
X0399247Y0269135D01*
X0395121Y0271237D01*
X0390548Y0271961D01*
X0390548Y0271961D01*
X0385974Y0271237D01*
X0381849Y0269135D01*
X0381849Y0269135D01*
X0378574Y0265861D01*
X0378574Y0265861D01*
X0376472Y0261735D01*
X0376472Y0261735D01*
X0375748Y0257161D01*
X0376472Y0252588D01*
X0378574Y0248462D01*
X0381849Y0245188D01*
X0385974Y0243086D01*
X0385974Y0243086D01*
X0390548Y0242361D01*
X0392251Y0242631D02*
X0408252Y0242631D01*
X0408252Y0241033D02*
X0305704Y0241033D01*
X0303910Y0241033D02*
X0303910Y0241033D01*
X0303910Y0239434D02*
X0303910Y0239434D01*
X0303910Y0237836D02*
X0303910Y0237836D01*
X0303910Y0236237D02*
X0303910Y0236237D01*
X0307202Y0236237D02*
X0379365Y0236237D01*
X0380515Y0237836D02*
X0307564Y0237836D01*
X0307203Y0239434D02*
X0408252Y0239434D01*
X0408252Y0237836D02*
X0385069Y0237836D01*
X0385122Y0237800D02*
X0384523Y0238200D01*
X0383858Y0238476D01*
X0383152Y0238616D01*
X0382792Y0238616D01*
X0382792Y0234962D01*
X0382792Y0234962D01*
X0382792Y0234962D01*
X0382792Y0231308D01*
X0383152Y0231308D01*
X0383858Y0231448D01*
X0384523Y0231724D01*
X0385122Y0232123D01*
X0385631Y0232632D01*
X0386031Y0233231D01*
X0386306Y0233896D01*
X0386446Y0234602D01*
X0386446Y0234962D01*
X0386446Y0235322D01*
X0386306Y0236028D01*
X0386031Y0236693D01*
X0385631Y0237291D01*
X0385122Y0237800D01*
X0386219Y0236237D02*
X0408252Y0236237D01*
X0408252Y0234639D02*
X0386446Y0234639D01*
X0386446Y0234962D02*
X0382792Y0234962D01*
X0386446Y0234962D01*
X0385903Y0233040D02*
X0408252Y0233040D01*
X0408252Y0231442D02*
X0383825Y0231442D01*
X0382792Y0231442D02*
X0382792Y0231442D01*
X0382792Y0233040D02*
X0382792Y0233040D01*
X0382792Y0234639D02*
X0382792Y0234639D01*
X0382792Y0234962D02*
X0382792Y0234962D01*
X0382792Y0236237D02*
X0382792Y0236237D01*
X0382792Y0237836D02*
X0382792Y0237836D01*
X0383730Y0244230D02*
X0368800Y0244230D01*
X0370101Y0245828D02*
X0381209Y0245828D01*
X0381849Y0245188D02*
X0381849Y0245188D01*
X0379610Y0247427D02*
X0370276Y0247427D01*
X0370276Y0249025D02*
X0378288Y0249025D01*
X0378574Y0248462D02*
X0378574Y0248462D01*
X0377473Y0250624D02*
X0370235Y0250624D01*
X0369050Y0252222D02*
X0376659Y0252222D01*
X0376472Y0252588D02*
X0376472Y0252588D01*
X0376277Y0253821D02*
X0370087Y0253821D01*
X0370219Y0255419D02*
X0376024Y0255419D01*
X0375771Y0257018D02*
X0370057Y0257018D01*
X0370249Y0258616D02*
X0375978Y0258616D01*
X0375748Y0257161D02*
X0375748Y0257161D01*
X0376231Y0260215D02*
X0369158Y0260215D01*
X0368255Y0261117D02*
X0368255Y0261117D01*
X0367559Y0261813D02*
X0376512Y0261813D01*
X0377327Y0263412D02*
X0370058Y0263412D01*
X0370276Y0265010D02*
X0378141Y0265010D01*
X0379323Y0266609D02*
X0370276Y0266609D01*
X0370276Y0268207D02*
X0380921Y0268207D01*
X0383166Y0269806D02*
X0370276Y0269806D01*
X0369263Y0271404D02*
X0387031Y0271404D01*
X0385974Y0271237D02*
X0385974Y0271237D01*
X0394065Y0271404D02*
X0408252Y0271404D01*
X0408252Y0269806D02*
X0397930Y0269806D01*
X0399247Y0269135D02*
X0399247Y0269135D01*
X0400175Y0268207D02*
X0408252Y0268207D01*
X0408252Y0266609D02*
X0401773Y0266609D01*
X0402521Y0265861D02*
X0402521Y0265861D01*
X0402955Y0265010D02*
X0408252Y0265010D01*
X0408252Y0263412D02*
X0403769Y0263412D01*
X0404584Y0261813D02*
X0408252Y0261813D01*
X0408252Y0260215D02*
X0404864Y0260215D01*
X0404624Y0261735D02*
X0404624Y0261735D01*
X0405117Y0258616D02*
X0408252Y0258616D01*
X0408252Y0257018D02*
X0405325Y0257018D01*
X0405072Y0255419D02*
X0408252Y0255419D01*
X0408252Y0253821D02*
X0404819Y0253821D01*
X0404624Y0252588D02*
X0404624Y0252588D01*
X0404437Y0252222D02*
X0408252Y0252222D01*
X0408252Y0250624D02*
X0403623Y0250624D01*
X0402808Y0249025D02*
X0408252Y0249025D01*
X0408252Y0247427D02*
X0401486Y0247427D01*
X0402521Y0248462D02*
X0402521Y0248462D01*
X0399887Y0245828D02*
X0408252Y0245828D01*
X0408252Y0244230D02*
X0397366Y0244230D01*
X0408252Y0229843D02*
X0283452Y0229843D01*
X0285050Y0228245D02*
X0408252Y0228245D01*
X0408252Y0226646D02*
X0286649Y0226646D01*
X0288151Y0225047D02*
X0408252Y0225047D01*
X0408252Y0223449D02*
X0288474Y0223449D01*
X0288474Y0221850D02*
X0408252Y0221850D01*
X0408252Y0220252D02*
X0288474Y0220252D01*
X0288474Y0218653D02*
X0408252Y0218653D01*
X0408252Y0217055D02*
X0288474Y0217055D01*
X0286959Y0209062D02*
X0284846Y0209062D01*
X0283247Y0207464D02*
X0288557Y0207464D01*
X0290156Y0205865D02*
X0281649Y0205865D01*
X0280312Y0204267D02*
X0291754Y0204267D01*
X0293353Y0202668D02*
X0280312Y0202668D01*
X0280312Y0201070D02*
X0294951Y0201070D01*
X0291823Y0197873D02*
X0291823Y0197873D01*
X0291823Y0196274D02*
X0291823Y0196274D01*
X0291823Y0194676D02*
X0291823Y0194676D01*
X0291823Y0193077D02*
X0291823Y0193077D01*
X0303824Y0199471D02*
X0404865Y0199471D01*
X0405580Y0199471D02*
X0405580Y0199471D01*
X0406295Y0199471D02*
X0408252Y0199471D01*
X0408252Y0197873D02*
X0305422Y0197873D01*
X0302225Y0201070D02*
X0402512Y0201070D01*
X0401931Y0202668D02*
X0300627Y0202668D01*
X0299028Y0204267D02*
X0402127Y0204267D01*
X0403223Y0205865D02*
X0297430Y0205865D01*
X0295831Y0207464D02*
X0408252Y0207464D01*
X0408252Y0209062D02*
X0294233Y0209062D01*
X0280312Y0183486D02*
X0408252Y0183486D01*
X0408252Y0181888D02*
X0280312Y0181888D01*
X0280312Y0180289D02*
X0408252Y0180289D01*
X0408252Y0178691D02*
X0280312Y0178691D01*
X0280312Y0177092D02*
X0408252Y0177092D01*
X0408252Y0175494D02*
X0280312Y0175494D01*
X0280312Y0173895D02*
X0408252Y0173895D01*
X0408252Y0172297D02*
X0280312Y0172297D01*
X0280312Y0170698D02*
X0408252Y0170698D01*
X0408252Y0169100D02*
X0280312Y0169100D01*
X0280312Y0167501D02*
X0408252Y0167501D01*
X0408252Y0165903D02*
X0280312Y0165903D01*
X0280312Y0164304D02*
X0408252Y0164304D01*
X0408252Y0162706D02*
X0280312Y0162706D01*
X0280312Y0161107D02*
X0408252Y0161107D01*
X0405580Y0201070D02*
X0405580Y0201070D01*
X0405580Y0202668D02*
X0405580Y0202668D01*
X0405580Y0204267D02*
X0405580Y0204267D01*
X0405580Y0205865D02*
X0405580Y0205865D01*
X0407938Y0205865D02*
X0408252Y0205865D01*
X0363964Y0243685D02*
X0363964Y0243685D01*
X0352818Y0242631D02*
X0351778Y0242631D01*
X0349745Y0242631D02*
X0348198Y0242631D01*
X0350560Y0250624D02*
X0351273Y0250624D01*
X0349736Y0251457D02*
X0349736Y0251457D01*
X0353701Y0255419D02*
X0356419Y0255419D01*
X0356419Y0257018D02*
X0353701Y0257018D01*
X0353701Y0258616D02*
X0356419Y0258616D01*
X0356769Y0260215D02*
X0353690Y0260215D01*
X0352620Y0261813D02*
X0358318Y0261813D01*
X0359906Y0263412D02*
X0356557Y0263412D01*
X0358394Y0265010D02*
X0358886Y0265010D01*
X0357432Y0271404D02*
X0355761Y0271404D01*
X0352724Y0271404D02*
X0352689Y0271404D01*
X0348017Y0271404D02*
X0347371Y0271404D01*
X0344334Y0271404D02*
X0343481Y0271404D01*
X0340444Y0271404D02*
X0340211Y0271404D01*
X0337174Y0271404D02*
X0280312Y0271404D01*
X0280312Y0269806D02*
X0336162Y0269806D01*
X0336162Y0268207D02*
X0280312Y0268207D01*
X0280312Y0266609D02*
X0336162Y0266609D01*
X0336162Y0265010D02*
X0280312Y0265010D01*
X0280312Y0263412D02*
X0336379Y0263412D01*
X0335467Y0260215D02*
X0331591Y0260215D01*
X0331602Y0260187D02*
X0331217Y0261117D01*
X0330505Y0261829D01*
X0329575Y0262214D01*
X0326116Y0262214D01*
X0325186Y0261829D01*
X0324368Y0261012D01*
X0323730Y0260374D01*
X0323233Y0260580D01*
X0320591Y0260580D01*
X0319661Y0260194D01*
X0319472Y0260006D01*
X0319350Y0260300D01*
X0317821Y0261829D01*
X0316891Y0262214D01*
X0315884Y0262214D01*
X0314953Y0261829D01*
X0314241Y0261117D01*
X0313856Y0260187D01*
X0313856Y0259180D01*
X0314155Y0258457D01*
X0314019Y0258128D01*
X0313945Y0258128D01*
X0313722Y0258665D01*
X0313010Y0259377D01*
X0312080Y0259762D01*
X0308420Y0259762D01*
X0308198Y0260300D01*
X0307485Y0261012D01*
X0307380Y0261117D01*
X0306668Y0261829D01*
X0305738Y0262214D01*
X0303096Y0262214D01*
X0302166Y0261829D01*
X0301454Y0261117D01*
X0300710Y0260374D01*
X0300213Y0260580D01*
X0296754Y0260580D01*
X0295824Y0260194D01*
X0295721Y0260092D01*
X0295619Y0260194D01*
X0294688Y0260580D01*
X0291229Y0260580D01*
X0290299Y0260194D01*
X0289587Y0259482D01*
X0289202Y0258552D01*
X0289202Y0258128D01*
X0288157Y0258128D01*
X0287226Y0257742D01*
X0286514Y0257030D01*
X0286129Y0256100D01*
X0286129Y0254276D01*
X0286514Y0253345D01*
X0287226Y0252633D01*
X0288157Y0252248D01*
X0289981Y0252248D01*
X0290605Y0252507D01*
X0291229Y0252248D01*
X0294688Y0252248D01*
X0295619Y0252633D01*
X0296130Y0253145D01*
X0296641Y0252633D01*
X0297571Y0252248D01*
X0301030Y0252248D01*
X0301961Y0252633D01*
X0302063Y0252736D01*
X0302166Y0252633D01*
X0303096Y0252248D01*
X0305738Y0252248D01*
X0306668Y0252633D01*
X0307380Y0253345D01*
X0307380Y0253345D01*
X0308198Y0254163D01*
X0308420Y0254700D01*
X0310990Y0254700D01*
X0310990Y0254276D01*
X0311376Y0253345D01*
X0312088Y0252633D01*
X0313018Y0252248D01*
X0314842Y0252248D01*
X0315772Y0252633D01*
X0316701Y0252248D01*
X0317708Y0252248D01*
X0318638Y0252633D01*
X0319150Y0253145D01*
X0319661Y0252633D01*
X0320591Y0252248D01*
X0323233Y0252248D01*
X0324163Y0252633D01*
X0324266Y0252736D01*
X0324368Y0252633D01*
X0325298Y0252248D01*
X0326305Y0252248D01*
X0327236Y0252633D01*
X0327437Y0252834D01*
X0327638Y0252633D01*
X0328568Y0252248D01*
X0329575Y0252248D01*
X0330505Y0252633D01*
X0331217Y0253345D01*
X0331602Y0254276D01*
X0331602Y0260187D01*
X0331602Y0258616D02*
X0334347Y0258616D01*
X0334539Y0257018D02*
X0331602Y0257018D01*
X0331602Y0255419D02*
X0334377Y0255419D01*
X0334509Y0253821D02*
X0331414Y0253821D01*
X0330521Y0261813D02*
X0340927Y0261813D01*
X0325170Y0261813D02*
X0317837Y0261813D01*
X0319386Y0260215D02*
X0319710Y0260215D01*
X0314938Y0261813D02*
X0306684Y0261813D01*
X0307380Y0261117D02*
X0307380Y0261117D01*
X0307485Y0261012D02*
X0307485Y0261012D01*
X0308233Y0260215D02*
X0313868Y0260215D01*
X0313742Y0258616D02*
X0314090Y0258616D01*
X0311179Y0253821D02*
X0307855Y0253821D01*
X0301454Y0261117D02*
X0301454Y0261117D01*
X0302150Y0261813D02*
X0280312Y0261813D01*
X0280312Y0260215D02*
X0290348Y0260215D01*
X0289228Y0258616D02*
X0280312Y0258616D01*
X0280312Y0257018D02*
X0286509Y0257018D01*
X0286129Y0255419D02*
X0280312Y0255419D01*
X0280312Y0253821D02*
X0286318Y0253821D01*
X0295569Y0260215D02*
X0295873Y0260215D01*
X0280312Y0273003D02*
X0408252Y0273003D01*
X0408252Y0274601D02*
X0280312Y0274601D01*
X0280312Y0235006D02*
X0280312Y0235006D01*
X0363738Y0271404D02*
X0363774Y0271404D01*
X0395121Y0271237D02*
X0395121Y0271237D01*
X0408252Y0108356D02*
X0364865Y0108356D01*
X0365482Y0106758D02*
X0408252Y0106758D01*
X0408252Y0105159D02*
X0365444Y0105159D01*
X0364668Y0103561D02*
X0408252Y0103561D01*
X0408252Y0101962D02*
X0331493Y0101962D01*
X0331493Y0100364D02*
X0408252Y0100364D01*
X0408252Y0098765D02*
X0331493Y0098765D01*
X0331493Y0097167D02*
X0408252Y0097167D01*
X0408252Y0095568D02*
X0394218Y0095568D01*
X0394017Y0095671D02*
X0393278Y0095911D01*
X0392511Y0096032D01*
X0392209Y0096032D01*
X0392209Y0091184D01*
X0397057Y0091184D01*
X0397057Y0091487D01*
X0396935Y0092254D01*
X0396695Y0092992D01*
X0396343Y0093684D01*
X0395886Y0094313D01*
X0395337Y0094862D01*
X0394709Y0095318D01*
X0394017Y0095671D01*
X0392209Y0095568D02*
X0392037Y0095568D01*
X0392037Y0096032D02*
X0391734Y0096032D01*
X0390967Y0095911D01*
X0390229Y0095671D01*
X0389537Y0095318D01*
X0388909Y0094862D01*
X0388359Y0094313D01*
X0387903Y0093684D01*
X0387550Y0092992D01*
X0387310Y0092254D01*
X0387189Y0091487D01*
X0387189Y0091184D01*
X0392037Y0091184D01*
X0392037Y0091013D01*
X0387189Y0091013D01*
X0387189Y0090710D01*
X0387310Y0089943D01*
X0387550Y0089204D01*
X0387903Y0088513D01*
X0388359Y0087884D01*
X0388909Y0087335D01*
X0389537Y0086879D01*
X0390229Y0086526D01*
X0390967Y0086286D01*
X0391734Y0086165D01*
X0392037Y0086165D01*
X0392037Y0091013D01*
X0392209Y0091013D01*
X0392209Y0091184D01*
X0392037Y0091184D01*
X0392037Y0096032D01*
X0392037Y0093970D02*
X0392209Y0093970D01*
X0392209Y0092371D02*
X0392037Y0092371D01*
X0392209Y0091013D02*
X0397057Y0091013D01*
X0397057Y0090710D01*
X0396935Y0089943D01*
X0396695Y0089204D01*
X0396343Y0088513D01*
X0395886Y0087884D01*
X0395337Y0087335D01*
X0394709Y0086879D01*
X0394017Y0086526D01*
X0393278Y0086286D01*
X0392511Y0086165D01*
X0392209Y0086165D01*
X0392209Y0091013D01*
X0392209Y0090773D02*
X0392037Y0090773D01*
X0392037Y0089174D02*
X0392209Y0089174D01*
X0392209Y0087576D02*
X0392037Y0087576D01*
X0388668Y0087576D02*
X0336299Y0087576D01*
X0334700Y0089174D02*
X0387566Y0089174D01*
X0387189Y0090773D02*
X0333102Y0090773D01*
X0331503Y0092371D02*
X0387348Y0092371D01*
X0388110Y0093970D02*
X0331493Y0093970D01*
X0331493Y0095568D02*
X0390027Y0095568D01*
X0396135Y0093970D02*
X0408252Y0093970D01*
X0408252Y0092371D02*
X0396897Y0092371D01*
X0397057Y0090773D02*
X0408252Y0090773D01*
X0408252Y0089174D02*
X0396680Y0089174D01*
X0395577Y0087576D02*
X0408252Y0087576D01*
X0408252Y0085977D02*
X0337897Y0085977D01*
X0339496Y0084378D02*
X0408252Y0084378D01*
X0408252Y0082780D02*
X0340133Y0082780D01*
X0340133Y0081181D02*
X0408252Y0081181D01*
D29*
X0370902Y0067506D03*
X0348402Y0066256D03*
X0328402Y0085006D03*
X0319652Y0081256D03*
X0307152Y0073756D03*
X0307152Y0068756D03*
X0307152Y0061256D03*
X0310902Y0052506D03*
X0299652Y0052506D03*
X0298402Y0040006D03*
X0305902Y0037506D03*
X0294652Y0022506D03*
X0289652Y0017506D03*
X0267152Y0037506D03*
X0255902Y0045006D03*
X0255902Y0050006D03*
X0243402Y0052506D03*
X0244652Y0068756D03*
X0239652Y0068756D03*
X0250902Y0087506D03*
X0248402Y0092506D03*
X0253402Y0092506D03*
X0255902Y0101256D03*
X0259652Y0105006D03*
X0267152Y0108756D03*
X0268402Y0126256D03*
X0255902Y0133756D03*
X0237152Y0120006D03*
X0224652Y0131256D03*
X0219652Y0135006D03*
X0210902Y0132506D03*
X0199652Y0135006D03*
X0193402Y0138756D03*
X0197152Y0148756D03*
X0190902Y0157506D03*
X0175902Y0162506D03*
X0169652Y0146256D03*
X0178402Y0130006D03*
X0178402Y0125006D03*
X0182152Y0121256D03*
X0185902Y0117506D03*
X0210902Y0090006D03*
X0244652Y0096256D03*
X0290902Y0108756D03*
X0290902Y0113756D03*
X0298402Y0118756D03*
X0294652Y0123756D03*
X0287152Y0127506D03*
X0300902Y0131256D03*
X0307152Y0133756D03*
X0307152Y0138756D03*
X0314652Y0122506D03*
X0324652Y0121256D03*
X0339698Y0106028D03*
X0301473Y0097220D03*
X0300902Y0092506D03*
X0242152Y0033756D03*
X0225902Y0025006D03*
X0220902Y0041256D03*
X0212152Y0050006D03*
X0194652Y0063756D03*
X0183402Y0060006D03*
X0178442Y0056374D03*
X0190902Y0047506D03*
X0180902Y0020006D03*
X0144652Y0027506D03*
X0138402Y0021256D03*
X0128245Y0049976D03*
X0140902Y0053756D03*
X0127152Y0066256D03*
X0096257Y0046039D03*
X0097733Y0021925D03*
X0145902Y0096256D03*
X0121847Y0117890D03*
X0118402Y0124780D03*
X0121847Y0128224D03*
X0106591Y0137083D03*
X0107083Y0142496D03*
X0092152Y0158756D03*
X0070902Y0172506D03*
X0080902Y0180006D03*
X0060902Y0150006D03*
X0122152Y0162506D03*
X0134652Y0165006D03*
X0147152Y0165006D03*
X0152152Y0163756D03*
X0129652Y0146256D03*
X0143402Y0138756D03*
X0148402Y0121256D03*
X0210902Y0148756D03*
X0224652Y0158756D03*
X0229652Y0166256D03*
X0217152Y0173756D03*
X0209652Y0167506D03*
X0225902Y0180006D03*
X0217152Y0198756D03*
X0210902Y0198756D03*
X0229652Y0218756D03*
X0217152Y0225006D03*
X0220902Y0237506D03*
X0217152Y0251256D03*
X0189652Y0256256D03*
X0189652Y0242506D03*
X0169652Y0236256D03*
X0162152Y0245006D03*
X0134652Y0266256D03*
X0125902Y0267506D03*
X0115902Y0237506D03*
X0129652Y0235006D03*
X0130902Y0222506D03*
X0135902Y0200006D03*
X0169652Y0208756D03*
X0180902Y0197506D03*
X0245902Y0237506D03*
X0250902Y0227506D03*
X0260902Y0227506D03*
X0273402Y0217506D03*
X0277152Y0223756D03*
X0279652Y0235006D03*
X0303910Y0237837D03*
X0277152Y0210006D03*
X0269652Y0205006D03*
X0291823Y0195122D03*
X0310902Y0188756D03*
X0349063Y0189904D03*
X0371669Y0213125D03*
X0382792Y0234962D03*
X0405580Y0203055D03*
X0273402Y0170006D03*
X0267152Y0178756D03*
X0254652Y0166256D03*
X0245902Y0255006D03*
X0255902Y0258756D03*
X0265902Y0268756D03*
X0270902Y0268756D03*
X0372152Y0027506D03*
X0364652Y0026256D03*
X0330902Y0013756D03*
D30*
X0332777Y0015631D01*
X0337152Y0011256D01*
X0337162Y0011256D01*
X0332777Y0015631D02*
X0332152Y0016256D01*
X0332152Y0032506D01*
X0333402Y0033756D01*
X0333402Y0034156D01*
X0333402Y0035006D01*
X0324652Y0043756D01*
X0324652Y0082506D01*
X0323402Y0083756D01*
X0323402Y0090006D01*
X0329652Y0090006D01*
X0337152Y0082506D01*
X0337152Y0060006D01*
X0338402Y0058756D01*
X0338402Y0058356D01*
X0338402Y0058756D02*
X0343402Y0058756D01*
X0343402Y0058356D01*
X0368402Y0058356D02*
X0368402Y0058756D01*
X0380902Y0058756D01*
X0380902Y0049996D01*
X0380902Y0058756D02*
X0380902Y0080006D01*
X0380902Y0042516D02*
X0380902Y0042506D01*
X0372152Y0033756D01*
X0372152Y0027506D01*
X0364652Y0026256D02*
X0364652Y0032506D01*
X0363402Y0033756D01*
X0363402Y0034156D01*
X0363402Y0033756D02*
X0358402Y0033756D01*
X0358402Y0034156D01*
X0260902Y0028256D02*
X0260902Y0027506D01*
X0235902Y0027506D01*
X0235902Y0027516D01*
X0235902Y0028756D01*
X0233402Y0028756D01*
X0227152Y0035006D01*
X0227152Y0046256D01*
X0215902Y0057506D01*
X0215902Y0057516D01*
X0217152Y0055006D01*
X0212152Y0050006D01*
X0222152Y0058756D02*
X0222152Y0060006D01*
X0215902Y0066256D01*
X0215902Y0085006D01*
X0210902Y0090006D01*
X0210902Y0132506D01*
X0210902Y0141413D01*
X0210902Y0148756D01*
X0210902Y0161098D02*
X0210902Y0161256D01*
X0217152Y0167506D01*
X0217152Y0173756D01*
X0224652Y0180006D02*
X0225902Y0180006D01*
X0243402Y0197506D01*
X0243402Y0225006D01*
X0217152Y0251256D01*
X0245902Y0237506D02*
X0247152Y0237506D01*
X0255902Y0228756D01*
X0255902Y0218756D01*
X0269652Y0205006D01*
X0268402Y0205006D01*
X0254652Y0191256D01*
X0254652Y0166256D01*
X0267152Y0178756D02*
X0267152Y0141256D01*
X0267162Y0141256D01*
X0274642Y0141256D02*
X0274652Y0141256D01*
X0274652Y0133756D01*
X0268402Y0127506D01*
X0268402Y0126256D01*
X0274652Y0133756D02*
X0297152Y0133756D01*
X0300902Y0137506D01*
X0301002Y0137556D01*
X0290802Y0141256D02*
X0285902Y0141256D01*
X0285902Y0161256D01*
X0320902Y0135006D02*
X0320902Y0134996D01*
X0320902Y0135006D02*
X0331493Y0135006D01*
X0240902Y0210006D02*
X0240902Y0211256D01*
X0241709Y0211256D01*
X0240902Y0210006D02*
X0224652Y0193756D01*
X0224652Y0180006D01*
X0224652Y0158756D01*
X0224652Y0131256D01*
X0178402Y0125006D02*
X0169652Y0116256D01*
X0169642Y0116256D01*
X0162162Y0116256D02*
X0162152Y0116256D01*
X0162152Y0125006D01*
X0160902Y0127319D01*
X0160902Y0126256D01*
X0162152Y0125006D01*
X0169652Y0132506D01*
X0169652Y0146256D01*
X0164652Y0143756D02*
X0164652Y0153756D01*
X0167152Y0156256D01*
X0167162Y0156256D01*
X0164652Y0143756D02*
X0157152Y0136256D01*
X0156965Y0135193D01*
X0155902Y0135006D01*
X0153402Y0132506D01*
X0153402Y0108756D01*
X0145902Y0101256D01*
X0138402Y0108756D01*
X0138402Y0152506D01*
X0142152Y0156256D01*
X0142162Y0156256D01*
X0142152Y0156256D02*
X0142152Y0171256D01*
X0142162Y0171256D01*
X0143402Y0171256D01*
X0144652Y0172506D01*
X0144652Y0185006D01*
X0145902Y0186256D01*
X0144652Y0186256D01*
X0144652Y0207506D01*
X0135902Y0216256D01*
X0135902Y0230006D01*
X0137152Y0231256D01*
X0137162Y0231256D01*
X0155902Y0232516D02*
X0155902Y0233756D01*
X0162152Y0233756D01*
X0162152Y0245006D01*
X0123225Y0256256D02*
X0122152Y0256256D01*
X0115902Y0250006D01*
X0115902Y0237506D01*
X0135902Y0200006D02*
X0135902Y0186256D01*
X0134652Y0185006D01*
X0134652Y0165006D01*
X0134652Y0072506D01*
X0133402Y0071256D01*
X0132162Y0071256D01*
X0132152Y0070006D01*
X0132152Y0027506D01*
X0138402Y0021256D01*
X0144652Y0027506D02*
X0140902Y0031256D01*
X0140902Y0053756D01*
X0140902Y0071256D01*
X0139642Y0071256D01*
X0139652Y0071256D01*
X0145902Y0077506D01*
X0145902Y0096256D01*
X0145902Y0101256D01*
X0145902Y0102516D01*
X0145902Y0109996D02*
X0145902Y0110006D01*
X0143402Y0112506D01*
X0143402Y0138756D01*
X0148402Y0156256D02*
X0149642Y0156256D01*
X0148402Y0156256D02*
X0148402Y0121256D01*
X0147152Y0165006D02*
X0147152Y0170006D01*
X0148402Y0171256D01*
X0149642Y0171256D01*
X0229652Y0211256D02*
X0230095Y0211256D01*
X0229652Y0211256D02*
X0229652Y0218756D01*
X0245902Y0237506D02*
X0250902Y0242506D01*
X0251572Y0242516D01*
X0279652Y0235006D02*
X0280312Y0235006D01*
X0132162Y0071256D02*
X0132152Y0071256D01*
X0127152Y0066256D01*
X0215902Y0066256D02*
X0215902Y0064996D01*
X0215902Y0065006D01*
X0222152Y0058756D02*
X0230902Y0058756D01*
X0230902Y0058256D01*
X0230902Y0040006D01*
X0235902Y0035006D01*
X0235902Y0034996D01*
D31*
X0242152Y0033756D02*
X0247152Y0038756D01*
X0247152Y0060006D01*
X0250902Y0063756D01*
X0250847Y0064018D01*
X0252152Y0061256D02*
X0253074Y0061791D01*
X0252152Y0061256D02*
X0249652Y0058756D01*
X0249652Y0051256D01*
X0255902Y0045006D01*
X0255902Y0050006D02*
X0255902Y0051256D01*
X0259652Y0055006D01*
X0259756Y0055109D01*
X0261983Y0052882D02*
X0262152Y0052506D01*
X0259652Y0050006D01*
X0259652Y0036256D01*
X0260902Y0035006D01*
X0260902Y0034256D01*
X0260902Y0033756D01*
X0290902Y0033756D01*
X0290902Y0021256D01*
X0293402Y0018756D01*
X0302152Y0018756D01*
X0302152Y0043756D01*
X0307152Y0048756D01*
X0307152Y0061256D01*
X0305902Y0062506D01*
X0305902Y0063756D01*
X0303402Y0066256D01*
X0303184Y0066245D01*
X0300957Y0064018D02*
X0300902Y0063756D01*
X0303402Y0061256D01*
X0303402Y0048756D01*
X0298402Y0043756D01*
X0298402Y0040006D01*
X0305902Y0037506D02*
X0318402Y0025006D01*
X0318402Y0013756D01*
X0328402Y0003756D01*
X0368402Y0003756D01*
X0368402Y0034156D01*
X0349652Y0032506D02*
X0348402Y0033756D01*
X0348402Y0034156D01*
X0349652Y0032506D02*
X0349652Y0006256D01*
X0333402Y0006256D01*
X0320902Y0018756D01*
X0320902Y0080006D01*
X0319652Y0081256D01*
X0328402Y0085006D02*
X0328402Y0063756D01*
X0333402Y0058756D01*
X0333402Y0058356D01*
X0348402Y0066256D02*
X0353402Y0061256D01*
X0353402Y0058356D01*
X0358402Y0058356D02*
X0358402Y0066256D01*
X0357152Y0067506D01*
X0356922Y0068618D01*
X0363402Y0067506D02*
X0364403Y0068618D01*
X0364652Y0067506D01*
X0370902Y0067506D01*
X0363402Y0067506D02*
X0363402Y0058356D01*
X0343402Y0034156D02*
X0343402Y0022506D01*
X0344642Y0022252D01*
X0338402Y0022506D02*
X0337162Y0022252D01*
X0338402Y0021256D01*
X0338402Y0020006D01*
X0342152Y0016256D01*
X0342152Y0012506D01*
X0343402Y0011256D01*
X0344642Y0011256D01*
X0338402Y0022506D02*
X0338402Y0034156D01*
X0314652Y0051256D02*
X0312152Y0048756D01*
X0307152Y0048756D01*
X0310902Y0052506D02*
X0310902Y0135006D01*
X0307152Y0138756D01*
X0307152Y0133756D02*
X0307152Y0088756D01*
X0299652Y0081256D01*
X0298730Y0080721D01*
X0300902Y0078756D02*
X0300957Y0078494D01*
X0300902Y0078756D02*
X0303402Y0081256D01*
X0305902Y0081256D01*
X0308402Y0078756D01*
X0308402Y0075006D01*
X0307152Y0073756D01*
X0303402Y0072506D02*
X0303402Y0076256D01*
X0303184Y0076267D01*
X0303402Y0072506D02*
X0307152Y0068756D01*
X0294652Y0057506D02*
X0294276Y0057336D01*
X0294652Y0057506D02*
X0299652Y0052506D01*
X0294652Y0052506D02*
X0292049Y0055109D01*
X0294652Y0052506D02*
X0294652Y0022506D01*
X0289652Y0017506D02*
X0187152Y0017506D01*
X0187152Y0113756D01*
X0189652Y0116256D01*
X0189652Y0153756D01*
X0180902Y0162506D01*
X0180902Y0197506D01*
X0180902Y0202506D02*
X0190902Y0192506D01*
X0190902Y0157506D01*
X0197152Y0148756D02*
X0197152Y0185006D01*
X0195902Y0186256D01*
X0205902Y0186256D02*
X0205902Y0171256D01*
X0209652Y0167506D01*
X0229652Y0166256D02*
X0240902Y0155006D01*
X0240902Y0111256D01*
X0257152Y0095006D01*
X0257152Y0090006D01*
X0259756Y0087402D01*
X0257529Y0085175D02*
X0257152Y0085006D01*
X0254652Y0087506D01*
X0254652Y0091256D01*
X0253402Y0092506D01*
X0248402Y0092506D02*
X0247152Y0091256D01*
X0247152Y0086256D01*
X0252152Y0081256D01*
X0253074Y0080721D01*
X0250902Y0078756D02*
X0250847Y0078494D01*
X0250902Y0078756D02*
X0244652Y0085006D01*
X0244652Y0096256D01*
X0250902Y0087506D02*
X0254652Y0083756D01*
X0255301Y0082948D01*
X0248620Y0076267D02*
X0248402Y0076256D01*
X0239652Y0076256D01*
X0239652Y0068756D01*
X0242152Y0066256D02*
X0240902Y0065006D01*
X0240902Y0055006D01*
X0243402Y0052506D01*
X0240902Y0065006D02*
X0235902Y0065006D01*
X0235902Y0118756D01*
X0237152Y0120006D01*
X0250902Y0125006D02*
X0250902Y0227506D01*
X0248402Y0225006D02*
X0242152Y0231256D01*
X0242152Y0251256D01*
X0245902Y0255006D01*
X0255902Y0258756D02*
X0210902Y0258756D01*
X0210902Y0198756D01*
X0217152Y0198756D02*
X0217152Y0225006D01*
X0205902Y0216256D02*
X0200902Y0211256D01*
X0200902Y0136256D01*
X0200902Y0056256D01*
X0213402Y0043756D01*
X0213402Y0041256D01*
X0220902Y0041256D01*
X0225902Y0025006D02*
X0198402Y0052506D01*
X0198402Y0131256D01*
X0193402Y0136256D01*
X0193402Y0138756D01*
X0199652Y0135006D02*
X0200902Y0136256D01*
X0185902Y0145006D02*
X0174652Y0156256D01*
X0174642Y0156256D01*
X0174652Y0156256D02*
X0175902Y0157506D01*
X0175902Y0162506D01*
X0170902Y0167506D01*
X0170902Y0207506D01*
X0169652Y0208756D01*
X0180902Y0202506D02*
X0180902Y0271256D01*
X0069652Y0271256D01*
X0060902Y0262506D01*
X0060902Y0250006D01*
X0080902Y0230006D01*
X0080902Y0180006D01*
X0075902Y0175006D02*
X0075902Y0186256D01*
X0085902Y0186256D02*
X0100902Y0171256D01*
X0101178Y0171039D01*
X0101178Y0017496D01*
X0139564Y0017496D01*
X0178442Y0056374D01*
X0183402Y0060006D02*
X0183402Y0022506D01*
X0180902Y0020006D01*
X0190902Y0047506D02*
X0194652Y0051256D01*
X0194652Y0063756D01*
X0230902Y0064256D02*
X0230902Y0065006D01*
X0235902Y0065006D01*
X0242152Y0066256D02*
X0244652Y0066256D01*
X0244652Y0068756D01*
X0244652Y0066256D02*
X0248402Y0066256D01*
X0248620Y0066245D01*
X0261983Y0089630D02*
X0262152Y0090006D01*
X0259652Y0092506D01*
X0259652Y0105006D01*
X0255902Y0101256D02*
X0248402Y0108756D01*
X0248402Y0225006D01*
X0260902Y0227506D02*
X0260902Y0246256D01*
X0260233Y0246256D01*
X0265902Y0240006D02*
X0265902Y0268756D01*
X0270902Y0268756D02*
X0270902Y0238756D01*
X0285902Y0223756D01*
X0285902Y0213756D01*
X0310902Y0188756D01*
X0283402Y0211256D02*
X0283402Y0222506D01*
X0265902Y0240006D01*
X0277152Y0223756D02*
X0277152Y0210006D01*
X0277152Y0205006D02*
X0283402Y0211256D01*
X0277152Y0205006D02*
X0277152Y0160006D01*
X0279652Y0157506D01*
X0279652Y0137506D01*
X0289652Y0137506D01*
X0290802Y0137556D01*
X0290902Y0137506D01*
X0295902Y0137506D01*
X0295902Y0140006D01*
X0300902Y0145006D01*
X0301002Y0144956D01*
X0295902Y0150006D02*
X0315902Y0150006D01*
X0315902Y0131256D01*
X0318402Y0128756D01*
X0320902Y0128756D01*
X0320902Y0127516D01*
X0320902Y0125006D01*
X0324652Y0121256D01*
X0314652Y0122506D02*
X0314652Y0051256D01*
X0296552Y0082949D02*
X0296503Y0082948D01*
X0296552Y0082949D02*
X0304426Y0090823D01*
X0304426Y0094268D01*
X0301473Y0097220D01*
X0300902Y0092506D02*
X0297152Y0088756D01*
X0297152Y0087506D01*
X0294652Y0085006D01*
X0294276Y0085175D01*
X0292049Y0087402D02*
X0292152Y0087506D01*
X0297152Y0092506D01*
X0297152Y0117506D01*
X0298402Y0118756D01*
X0294652Y0123756D02*
X0294652Y0095006D01*
X0289652Y0090006D01*
X0289822Y0089630D01*
X0287595Y0091857D02*
X0288402Y0092506D01*
X0290902Y0095006D01*
X0290902Y0108756D01*
X0288402Y0106256D02*
X0287152Y0107506D01*
X0287152Y0110006D01*
X0290902Y0113756D01*
X0290902Y0118756D02*
X0284652Y0112506D01*
X0284652Y0102506D01*
X0285902Y0101256D01*
X0285902Y0098756D01*
X0283402Y0096256D01*
X0283140Y0096311D01*
X0285902Y0095006D02*
X0285367Y0094084D01*
X0285902Y0095006D02*
X0288402Y0097506D01*
X0288402Y0106256D01*
X0280902Y0098756D02*
X0280913Y0098538D01*
X0280902Y0098756D02*
X0280902Y0121256D01*
X0287152Y0127506D01*
X0290902Y0127506D02*
X0290902Y0118756D01*
X0290902Y0127506D02*
X0294652Y0127506D01*
X0298402Y0131256D01*
X0300902Y0131256D01*
X0290902Y0145006D02*
X0290802Y0144956D01*
X0290902Y0145006D02*
X0295902Y0150006D01*
X0273402Y0170006D02*
X0273402Y0217506D01*
X0220902Y0237506D02*
X0220902Y0136256D01*
X0219652Y0135006D01*
X0250902Y0125006D02*
X0267152Y0108756D01*
X0270902Y0118756D02*
X0270902Y0098756D01*
X0270891Y0098538D01*
X0270902Y0118756D02*
X0255902Y0133756D01*
X0185902Y0145006D02*
X0185902Y0117506D01*
X0182152Y0121256D02*
X0182152Y0126256D01*
X0178402Y0130006D01*
X0152152Y0163756D02*
X0160902Y0172506D01*
X0160902Y0227506D01*
X0169652Y0236256D01*
X0155902Y0239996D02*
X0155902Y0240006D01*
X0150902Y0245006D01*
X0150902Y0221256D01*
X0155902Y0216256D01*
X0145902Y0216256D02*
X0145902Y0230006D01*
X0144652Y0231256D01*
X0144642Y0231256D01*
X0129652Y0235006D02*
X0129652Y0261256D01*
X0134652Y0266256D01*
X0125902Y0267506D02*
X0090902Y0267506D01*
X0090902Y0191256D01*
X0095902Y0186256D01*
X0105902Y0186256D02*
X0105902Y0206256D01*
X0095902Y0216256D01*
X0105902Y0216256D02*
X0106099Y0215823D01*
X0110528Y0211394D01*
X0110528Y0141020D01*
X0106591Y0137083D01*
X0107083Y0142496D02*
X0106099Y0143480D01*
X0106099Y0145941D01*
X0105902Y0146256D01*
X0105902Y0186256D01*
X0114957Y0185311D02*
X0115902Y0186256D01*
X0114957Y0185311D02*
X0114957Y0063264D01*
X0128245Y0049976D01*
X0096257Y0046039D02*
X0095764Y0046531D01*
X0095764Y0155291D01*
X0093796Y0157260D01*
X0093402Y0157506D01*
X0092152Y0158756D01*
X0075902Y0175006D01*
X0070902Y0172506D02*
X0090902Y0152506D01*
X0091335Y0152339D01*
X0093304Y0150370D01*
X0093304Y0093776D01*
X0092812Y0093283D01*
X0092812Y0026846D01*
X0097733Y0021925D01*
X0121847Y0117890D02*
X0121847Y0128224D01*
X0118402Y0124780D02*
X0118402Y0168579D01*
X0130705Y0180882D01*
X0130902Y0181256D01*
X0130902Y0222506D01*
X0129652Y0235006D02*
X0115902Y0221256D01*
X0115902Y0216256D01*
X0150902Y0245006D02*
X0139652Y0256256D01*
X0138579Y0256256D01*
X0185902Y0273756D02*
X0185902Y0216256D01*
X0189652Y0242506D02*
X0189652Y0256256D01*
X0185902Y0273756D02*
X0068402Y0273756D01*
X0058402Y0263756D01*
X0058402Y0152506D01*
X0060902Y0150006D01*
X0122152Y0162506D02*
X0129652Y0155006D01*
X0129652Y0146256D01*
X0270891Y0043974D02*
X0270902Y0043756D01*
X0270902Y0041256D01*
X0267152Y0037506D01*
M02*
