%
M48
M72
T01C0.01378
T02C0.02362
T03C0.03200
T04C0.03600
T05C0.03622
T06C0.05512
T07C0.07087
T08C0.11024
%
T01
X128737Y52489
X165646Y20993
X181886Y24930
X194190Y32804
X214367Y32804
X220764Y44615
X241926Y51997
X241926Y58394
X253245Y51997
X253245Y47076
X248816Y45107
X247339Y36249
X257674Y28375
X261611Y32312
X276375Y43139
X269485Y50028
X253737Y66269
X237497Y67253
X237497Y73158
X244386Y80048
X244386Y84969
X257182Y93828
X257182Y101702
X250292Y100717
X244879Y110560
X251345Y116736
X266532Y114989
X268501Y122863
X270469Y127784
X280804Y121387
X286217Y136643
X286217Y144517
X272438Y141564
X268501Y145993
X254623Y147298
X256198Y129261
X223225Y110068
X226670Y103178
X216335Y97272
X205509Y85954
X197635Y83493
X184347Y102194
X199111Y115973
X202556Y125816
X196158Y135658
X178624Y140150
X176473Y146977
X192221Y152883
X194682Y157312
X216827Y168139
X230115Y169123
X238770Y175236
X254410Y169075
X256690Y178965
X259642Y193729
X267516Y194713
X269485Y202587
X262595Y207509
X245885Y201687
X239957Y215383
X243894Y222272
X251768Y228178
X273422Y225225
X289170Y225225
X307871Y208493
X311808Y204556
X308406Y193245
X320120Y192084
X335334Y192155
X349622Y192937
X358656Y195698
X375778Y191468
X395476Y191018
X407190Y203553
X392917Y216160
X380705Y219320
X373816Y221288
X373816Y213414
X373816Y232115
X374505Y238993
X369879Y247863
X369879Y255737
X365942Y259674
X361853Y248831
X388532Y236587
X314760Y237036
X315039Y248459
X310823Y250816
X265548Y263611
X255705Y255737
X246847Y251800
X237989Y245894
X219288Y230146
X212398Y230639
X226178Y205540
X230115Y202587
X280151Y188274
X310504Y179759
X222241Y142548
X178695Y130789
X171060Y122371
X156788Y117450
X153343Y110560
X137103Y111052
X124800Y119418
X112497Y118434
X110528Y104654
X103638Y96780
X110528Y94812
X110528Y89891
X83694Y106396
X76888Y92568
X124800Y132706
X124800Y140580
X107083Y151406
X115449Y156328
X96257Y154851
X71158Y166170
X82477Y196190
X87398Y196190
X102654Y203080
X142024Y197174
X161256Y176364
X170075Y169123
X149898Y165678
X146946Y140580
X156788Y98257
X189760Y56426
X196650Y51505
X221257Y19517
X221749Y13611
X241926Y23946
X278343Y12627
X285725Y11150
X292615Y22961
X305902Y36249
X315745Y36249
X316237Y44615
X321158Y43139
X324603Y36249
X324603Y31328
X336414Y27883
X357575Y15580
X365449Y27883
X385902Y41800
X395902Y36800
X384642Y55442
X364465Y65776
X344780Y70698
X337398Y65776
X329032Y58887
X317713Y52981
X315745Y67745
X313776Y74635
X310823Y81524
X306394Y101702
X325095Y107115
X274898Y86446
X264072Y83001
X265548Y78080
X264072Y100225
X170075Y237036
X155804Y240973
X149898Y255245
X134101Y257581
X172044Y255737
X95764Y234083
T02
X140760Y65946
T03
X85902Y186800
X75902Y186800
X95902Y186800
X105902Y186800
X115902Y186800
X125902Y186800
X135902Y186800
X145902Y186800
X155902Y186800
X165902Y186800
X175902Y186800
X185902Y186800
X195902Y186800
X205902Y186800
X205902Y216800
X195902Y216800
X185902Y216800
X175902Y216800
X165902Y216800
X155902Y216800
X145902Y216800
X135902Y216800
X125902Y216800
X115902Y216800
X105902Y216800
X95902Y216800
X85902Y216800
X75902Y216800
T04
X104591Y37456
X104591Y27456
X131721Y27456
X131721Y37456
X156722Y37456
X156722Y27456
T05
X361515Y106800
T06
X92126Y96149
X92126Y117802
T07
X392223Y121761
X392223Y91839
T08
X75587Y21485
X75587Y257706
X390548Y257706
X390548Y21485
M30
