G75*
%MOIN*%
%OFA0B0*%
%FSLAX25Y25*%
%IPPOS*%
%LPD*%
%AMOC8*
5,1,8,0,0,1.08239X$1,22.5*
%
%ADD10C,0.00000*%
%ADD11C,0.01000*%
%ADD12C,0.05562*%
%ADD13R,0.05906X0.05118*%
%ADD14R,0.05118X0.05906*%
%ADD15R,0.15748X0.07087*%
%ADD16R,0.07480X0.13386*%
%ADD17C,0.10630*%
%ADD18C,0.05984*%
%ADD19C,0.21000*%
%ADD20R,0.07087X0.05512*%
%ADD21R,0.05512X0.05512*%
%ADD22C,0.05962*%
%ADD23C,0.01600*%
%ADD24C,0.03346*%
%ADD25C,0.02000*%
%ADD26C,0.04331*%
%ADD27C,0.01181*%
D10*
X0055902Y0001800D02*
X0055902Y0277391D01*
X0410233Y0277391D01*
X0410233Y0001800D01*
X0055902Y0001800D01*
X0089370Y0096149D02*
X0089372Y0096254D01*
X0089378Y0096359D01*
X0089388Y0096463D01*
X0089402Y0096567D01*
X0089420Y0096671D01*
X0089442Y0096773D01*
X0089467Y0096875D01*
X0089497Y0096976D01*
X0089530Y0097075D01*
X0089567Y0097173D01*
X0089608Y0097270D01*
X0089653Y0097365D01*
X0089701Y0097458D01*
X0089752Y0097550D01*
X0089808Y0097639D01*
X0089866Y0097726D01*
X0089928Y0097811D01*
X0089992Y0097894D01*
X0090060Y0097974D01*
X0090131Y0098051D01*
X0090205Y0098125D01*
X0090282Y0098197D01*
X0090361Y0098266D01*
X0090443Y0098331D01*
X0090527Y0098394D01*
X0090614Y0098453D01*
X0090703Y0098509D01*
X0090794Y0098562D01*
X0090887Y0098611D01*
X0090981Y0098656D01*
X0091077Y0098698D01*
X0091175Y0098736D01*
X0091274Y0098770D01*
X0091375Y0098801D01*
X0091476Y0098827D01*
X0091579Y0098850D01*
X0091682Y0098869D01*
X0091786Y0098884D01*
X0091890Y0098895D01*
X0091995Y0098902D01*
X0092100Y0098905D01*
X0092205Y0098904D01*
X0092310Y0098899D01*
X0092414Y0098890D01*
X0092518Y0098877D01*
X0092622Y0098860D01*
X0092725Y0098839D01*
X0092827Y0098814D01*
X0092928Y0098786D01*
X0093027Y0098753D01*
X0093126Y0098717D01*
X0093223Y0098677D01*
X0093318Y0098634D01*
X0093412Y0098586D01*
X0093504Y0098536D01*
X0093594Y0098482D01*
X0093682Y0098424D01*
X0093767Y0098363D01*
X0093850Y0098299D01*
X0093931Y0098232D01*
X0094009Y0098162D01*
X0094084Y0098088D01*
X0094156Y0098013D01*
X0094226Y0097934D01*
X0094292Y0097853D01*
X0094356Y0097769D01*
X0094416Y0097683D01*
X0094472Y0097595D01*
X0094526Y0097504D01*
X0094576Y0097412D01*
X0094622Y0097318D01*
X0094665Y0097222D01*
X0094704Y0097124D01*
X0094739Y0097026D01*
X0094770Y0096925D01*
X0094798Y0096824D01*
X0094822Y0096722D01*
X0094842Y0096619D01*
X0094858Y0096515D01*
X0094870Y0096411D01*
X0094878Y0096306D01*
X0094882Y0096201D01*
X0094882Y0096097D01*
X0094878Y0095992D01*
X0094870Y0095887D01*
X0094858Y0095783D01*
X0094842Y0095679D01*
X0094822Y0095576D01*
X0094798Y0095474D01*
X0094770Y0095373D01*
X0094739Y0095272D01*
X0094704Y0095174D01*
X0094665Y0095076D01*
X0094622Y0094980D01*
X0094576Y0094886D01*
X0094526Y0094794D01*
X0094472Y0094703D01*
X0094416Y0094615D01*
X0094356Y0094529D01*
X0094292Y0094445D01*
X0094226Y0094364D01*
X0094156Y0094285D01*
X0094084Y0094210D01*
X0094009Y0094136D01*
X0093931Y0094066D01*
X0093850Y0093999D01*
X0093767Y0093935D01*
X0093682Y0093874D01*
X0093594Y0093816D01*
X0093504Y0093762D01*
X0093412Y0093712D01*
X0093318Y0093664D01*
X0093223Y0093621D01*
X0093126Y0093581D01*
X0093027Y0093545D01*
X0092928Y0093512D01*
X0092827Y0093484D01*
X0092725Y0093459D01*
X0092622Y0093438D01*
X0092518Y0093421D01*
X0092414Y0093408D01*
X0092310Y0093399D01*
X0092205Y0093394D01*
X0092100Y0093393D01*
X0091995Y0093396D01*
X0091890Y0093403D01*
X0091786Y0093414D01*
X0091682Y0093429D01*
X0091579Y0093448D01*
X0091476Y0093471D01*
X0091375Y0093497D01*
X0091274Y0093528D01*
X0091175Y0093562D01*
X0091077Y0093600D01*
X0090981Y0093642D01*
X0090887Y0093687D01*
X0090794Y0093736D01*
X0090703Y0093789D01*
X0090614Y0093845D01*
X0090527Y0093904D01*
X0090443Y0093967D01*
X0090361Y0094032D01*
X0090282Y0094101D01*
X0090205Y0094173D01*
X0090131Y0094247D01*
X0090060Y0094324D01*
X0089992Y0094404D01*
X0089928Y0094487D01*
X0089866Y0094572D01*
X0089808Y0094659D01*
X0089752Y0094748D01*
X0089701Y0094840D01*
X0089653Y0094933D01*
X0089608Y0095028D01*
X0089567Y0095125D01*
X0089530Y0095223D01*
X0089497Y0095322D01*
X0089467Y0095423D01*
X0089442Y0095525D01*
X0089420Y0095627D01*
X0089402Y0095731D01*
X0089388Y0095835D01*
X0089378Y0095939D01*
X0089372Y0096044D01*
X0089370Y0096149D01*
X0089370Y0117802D02*
X0089372Y0117907D01*
X0089378Y0118012D01*
X0089388Y0118116D01*
X0089402Y0118220D01*
X0089420Y0118324D01*
X0089442Y0118426D01*
X0089467Y0118528D01*
X0089497Y0118629D01*
X0089530Y0118728D01*
X0089567Y0118826D01*
X0089608Y0118923D01*
X0089653Y0119018D01*
X0089701Y0119111D01*
X0089752Y0119203D01*
X0089808Y0119292D01*
X0089866Y0119379D01*
X0089928Y0119464D01*
X0089992Y0119547D01*
X0090060Y0119627D01*
X0090131Y0119704D01*
X0090205Y0119778D01*
X0090282Y0119850D01*
X0090361Y0119919D01*
X0090443Y0119984D01*
X0090527Y0120047D01*
X0090614Y0120106D01*
X0090703Y0120162D01*
X0090794Y0120215D01*
X0090887Y0120264D01*
X0090981Y0120309D01*
X0091077Y0120351D01*
X0091175Y0120389D01*
X0091274Y0120423D01*
X0091375Y0120454D01*
X0091476Y0120480D01*
X0091579Y0120503D01*
X0091682Y0120522D01*
X0091786Y0120537D01*
X0091890Y0120548D01*
X0091995Y0120555D01*
X0092100Y0120558D01*
X0092205Y0120557D01*
X0092310Y0120552D01*
X0092414Y0120543D01*
X0092518Y0120530D01*
X0092622Y0120513D01*
X0092725Y0120492D01*
X0092827Y0120467D01*
X0092928Y0120439D01*
X0093027Y0120406D01*
X0093126Y0120370D01*
X0093223Y0120330D01*
X0093318Y0120287D01*
X0093412Y0120239D01*
X0093504Y0120189D01*
X0093594Y0120135D01*
X0093682Y0120077D01*
X0093767Y0120016D01*
X0093850Y0119952D01*
X0093931Y0119885D01*
X0094009Y0119815D01*
X0094084Y0119741D01*
X0094156Y0119666D01*
X0094226Y0119587D01*
X0094292Y0119506D01*
X0094356Y0119422D01*
X0094416Y0119336D01*
X0094472Y0119248D01*
X0094526Y0119157D01*
X0094576Y0119065D01*
X0094622Y0118971D01*
X0094665Y0118875D01*
X0094704Y0118777D01*
X0094739Y0118679D01*
X0094770Y0118578D01*
X0094798Y0118477D01*
X0094822Y0118375D01*
X0094842Y0118272D01*
X0094858Y0118168D01*
X0094870Y0118064D01*
X0094878Y0117959D01*
X0094882Y0117854D01*
X0094882Y0117750D01*
X0094878Y0117645D01*
X0094870Y0117540D01*
X0094858Y0117436D01*
X0094842Y0117332D01*
X0094822Y0117229D01*
X0094798Y0117127D01*
X0094770Y0117026D01*
X0094739Y0116925D01*
X0094704Y0116827D01*
X0094665Y0116729D01*
X0094622Y0116633D01*
X0094576Y0116539D01*
X0094526Y0116447D01*
X0094472Y0116356D01*
X0094416Y0116268D01*
X0094356Y0116182D01*
X0094292Y0116098D01*
X0094226Y0116017D01*
X0094156Y0115938D01*
X0094084Y0115863D01*
X0094009Y0115789D01*
X0093931Y0115719D01*
X0093850Y0115652D01*
X0093767Y0115588D01*
X0093682Y0115527D01*
X0093594Y0115469D01*
X0093504Y0115415D01*
X0093412Y0115365D01*
X0093318Y0115317D01*
X0093223Y0115274D01*
X0093126Y0115234D01*
X0093027Y0115198D01*
X0092928Y0115165D01*
X0092827Y0115137D01*
X0092725Y0115112D01*
X0092622Y0115091D01*
X0092518Y0115074D01*
X0092414Y0115061D01*
X0092310Y0115052D01*
X0092205Y0115047D01*
X0092100Y0115046D01*
X0091995Y0115049D01*
X0091890Y0115056D01*
X0091786Y0115067D01*
X0091682Y0115082D01*
X0091579Y0115101D01*
X0091476Y0115124D01*
X0091375Y0115150D01*
X0091274Y0115181D01*
X0091175Y0115215D01*
X0091077Y0115253D01*
X0090981Y0115295D01*
X0090887Y0115340D01*
X0090794Y0115389D01*
X0090703Y0115442D01*
X0090614Y0115498D01*
X0090527Y0115557D01*
X0090443Y0115620D01*
X0090361Y0115685D01*
X0090282Y0115754D01*
X0090205Y0115826D01*
X0090131Y0115900D01*
X0090060Y0115977D01*
X0089992Y0116057D01*
X0089928Y0116140D01*
X0089866Y0116225D01*
X0089808Y0116312D01*
X0089752Y0116401D01*
X0089701Y0116493D01*
X0089653Y0116586D01*
X0089608Y0116681D01*
X0089567Y0116778D01*
X0089530Y0116876D01*
X0089497Y0116975D01*
X0089467Y0117076D01*
X0089442Y0117178D01*
X0089420Y0117280D01*
X0089402Y0117384D01*
X0089388Y0117488D01*
X0089378Y0117592D01*
X0089372Y0117697D01*
X0089370Y0117802D01*
D11*
X0080402Y0046303D02*
X0078401Y0046303D01*
X0077733Y0045636D01*
X0077733Y0044969D01*
X0078401Y0044302D01*
X0080402Y0044302D01*
X0080402Y0046303D02*
X0080402Y0042300D01*
X0078401Y0042300D01*
X0077733Y0042967D01*
X0077733Y0043634D01*
X0078401Y0044302D01*
X0075798Y0044302D02*
X0075798Y0042967D01*
X0075131Y0042300D01*
X0073797Y0042300D01*
X0073129Y0042967D01*
X0073129Y0044302D01*
X0073797Y0044969D01*
X0075131Y0044969D01*
X0075798Y0044302D01*
X0071194Y0044969D02*
X0069860Y0044969D01*
X0070527Y0045636D02*
X0070527Y0042967D01*
X0069860Y0042300D01*
D12*
X0075902Y0184019D02*
X0075902Y0189581D01*
X0085902Y0189581D02*
X0085902Y0184019D01*
X0095902Y0184019D02*
X0095902Y0189581D01*
X0105902Y0189581D02*
X0105902Y0184019D01*
X0115902Y0184019D02*
X0115902Y0189581D01*
X0125902Y0189581D02*
X0125902Y0184019D01*
X0135902Y0184019D02*
X0135902Y0189581D01*
X0145902Y0189581D02*
X0145902Y0184019D01*
X0155902Y0184019D02*
X0155902Y0189581D01*
X0165902Y0189581D02*
X0165902Y0184019D01*
X0175902Y0184019D02*
X0175902Y0189581D01*
X0185902Y0189581D02*
X0185902Y0184019D01*
X0195902Y0184019D02*
X0195902Y0189581D01*
X0205902Y0189581D02*
X0205902Y0184019D01*
X0205902Y0214019D02*
X0205902Y0219581D01*
X0195902Y0219581D02*
X0195902Y0214019D01*
X0185902Y0214019D02*
X0185902Y0219581D01*
X0175902Y0219581D02*
X0175902Y0214019D01*
X0165902Y0214019D02*
X0165902Y0219581D01*
X0155902Y0219581D02*
X0155902Y0214019D01*
X0145902Y0214019D02*
X0145902Y0219581D01*
X0135902Y0219581D02*
X0135902Y0214019D01*
X0125902Y0214019D02*
X0125902Y0219581D01*
X0115902Y0219581D02*
X0115902Y0214019D01*
X0105902Y0214019D02*
X0105902Y0219581D01*
X0095902Y0219581D02*
X0095902Y0214019D01*
X0085902Y0214019D02*
X0085902Y0219581D01*
X0075902Y0219581D02*
X0075902Y0214019D01*
D13*
X0115902Y0150540D03*
X0115902Y0143060D03*
X0130902Y0140540D03*
X0130902Y0133060D03*
X0130902Y0110540D03*
X0130902Y0103060D03*
X0145902Y0103060D03*
X0145902Y0110540D03*
X0170902Y0128060D03*
X0170902Y0135540D03*
X0180902Y0158060D03*
X0180902Y0165540D03*
X0245902Y0183060D03*
X0245902Y0190540D03*
X0265902Y0160540D03*
X0265902Y0153060D03*
X0265902Y0140540D03*
X0265902Y0133060D03*
X0245902Y0135540D03*
X0245902Y0128060D03*
X0280902Y0115540D03*
X0280902Y0108060D03*
X0205902Y0080540D03*
X0205902Y0073060D03*
X0205902Y0055540D03*
X0205902Y0048060D03*
X0205902Y0025540D03*
X0205902Y0018060D03*
X0130902Y0058060D03*
X0130902Y0065540D03*
X0175902Y0233060D03*
X0175902Y0240540D03*
X0195902Y0240540D03*
X0195902Y0233060D03*
X0390902Y0055540D03*
X0390902Y0048060D03*
D14*
X0364642Y0021800D03*
X0357162Y0021800D03*
X0344642Y0021800D03*
X0337162Y0021800D03*
X0337162Y0076800D03*
X0344642Y0076800D03*
X0319642Y0106800D03*
X0312162Y0106800D03*
X0312162Y0116800D03*
X0319642Y0116800D03*
X0319642Y0126800D03*
X0312162Y0126800D03*
X0244642Y0161800D03*
X0237162Y0161800D03*
X0189642Y0146800D03*
X0182162Y0146800D03*
X0149642Y0171800D03*
X0142162Y0171800D03*
X0129642Y0171800D03*
X0122162Y0171800D03*
X0132162Y0156800D03*
X0139642Y0156800D03*
X0162162Y0111800D03*
X0169642Y0111800D03*
X0139642Y0046800D03*
X0132162Y0046800D03*
X0227162Y0016800D03*
X0234642Y0016800D03*
X0164642Y0231800D03*
X0157162Y0231800D03*
X0144642Y0231800D03*
X0137162Y0231800D03*
X0139642Y0246800D03*
X0132162Y0246800D03*
X0152162Y0246800D03*
X0159642Y0246800D03*
X0212162Y0236800D03*
X0219642Y0236800D03*
D15*
X0210902Y0161643D03*
X0210902Y0141957D03*
D16*
X0158579Y0261800D03*
X0143225Y0261800D03*
D17*
X0392223Y0121761D03*
X0392223Y0091839D03*
D18*
X0361515Y0106800D03*
D19*
X0390548Y0021485D03*
X0075587Y0021485D03*
X0075587Y0257706D03*
X0390548Y0257706D03*
D20*
X0265902Y0188493D03*
X0255902Y0200107D03*
X0255902Y0213493D03*
X0265902Y0175107D03*
D21*
X0265902Y0109280D03*
X0265902Y0094320D03*
D22*
X0159703Y0037456D02*
X0153741Y0037456D01*
X0153741Y0027456D02*
X0159703Y0027456D01*
X0134702Y0027456D02*
X0128740Y0027456D01*
X0128740Y0037456D02*
X0134702Y0037456D01*
X0107572Y0037456D02*
X0101609Y0037456D01*
X0101609Y0027456D02*
X0107572Y0027456D01*
D23*
X0112534Y0027376D02*
X0123778Y0027376D01*
X0123778Y0026469D02*
X0124534Y0024645D01*
X0125929Y0023249D01*
X0127753Y0022494D01*
X0135690Y0022494D01*
X0137513Y0023249D01*
X0138909Y0024645D01*
X0139665Y0026469D01*
X0139665Y0028443D01*
X0138909Y0030267D01*
X0137513Y0031663D01*
X0135690Y0032418D01*
X0127753Y0032418D01*
X0125929Y0031663D01*
X0124534Y0030267D01*
X0123778Y0028443D01*
X0123778Y0026469D01*
X0124064Y0025778D02*
X0112248Y0025778D01*
X0112534Y0026469D02*
X0111778Y0024645D01*
X0110383Y0023249D01*
X0108559Y0022494D01*
X0100622Y0022494D01*
X0098799Y0023249D01*
X0097403Y0024645D01*
X0096647Y0026469D01*
X0096647Y0028443D01*
X0097403Y0030267D01*
X0098799Y0031663D01*
X0100622Y0032418D01*
X0108559Y0032418D01*
X0110383Y0031663D01*
X0111778Y0030267D01*
X0112534Y0028443D01*
X0112534Y0026469D01*
X0112314Y0028975D02*
X0123998Y0028975D01*
X0124840Y0030573D02*
X0111472Y0030573D01*
X0109154Y0032172D02*
X0127158Y0032172D01*
X0127753Y0032494D02*
X0125929Y0033249D01*
X0124534Y0034645D01*
X0123778Y0036469D01*
X0123778Y0038443D01*
X0124534Y0040267D01*
X0125929Y0041663D01*
X0127753Y0042418D01*
X0128230Y0042418D01*
X0127622Y0043027D01*
X0127622Y0048995D01*
X0126667Y0049391D01*
X0125639Y0050419D01*
X0125083Y0051762D01*
X0125083Y0053216D01*
X0125639Y0054559D01*
X0125968Y0054888D01*
X0125968Y0061439D01*
X0126338Y0061809D01*
X0126103Y0062216D01*
X0125968Y0062720D01*
X0125968Y0065061D01*
X0130423Y0065061D01*
X0130423Y0066020D01*
X0130423Y0070080D01*
X0127689Y0070080D01*
X0127185Y0069945D01*
X0126733Y0069684D01*
X0126364Y0069316D01*
X0126103Y0068864D01*
X0125968Y0068360D01*
X0125968Y0066020D01*
X0130423Y0066020D01*
X0131382Y0066020D01*
X0131382Y0070080D01*
X0134116Y0070080D01*
X0134620Y0069945D01*
X0135071Y0069684D01*
X0135440Y0069316D01*
X0135701Y0068864D01*
X0135836Y0068360D01*
X0135836Y0066020D01*
X0131382Y0066020D01*
X0131382Y0065061D01*
X0135836Y0065061D01*
X0135836Y0062720D01*
X0135701Y0062216D01*
X0135466Y0061809D01*
X0135836Y0061439D01*
X0135836Y0060883D01*
X0176715Y0060883D01*
X0185926Y0070094D01*
X0108540Y0070094D01*
X0107595Y0070486D01*
X0106872Y0071209D01*
X0090954Y0087127D01*
X0090954Y0012246D01*
X0210349Y0012246D01*
X0217602Y0019499D01*
X0217602Y0020243D01*
X0218159Y0021587D01*
X0219187Y0022615D01*
X0220530Y0023171D01*
X0221983Y0023171D01*
X0222705Y0022872D01*
X0222705Y0041516D01*
X0222495Y0041377D01*
X0221830Y0041101D01*
X0221124Y0040961D01*
X0220764Y0040961D01*
X0220764Y0044615D01*
X0220764Y0044615D01*
X0217110Y0044615D01*
X0217110Y0044975D01*
X0217251Y0045681D01*
X0217526Y0046346D01*
X0217926Y0046944D01*
X0218435Y0047453D01*
X0219033Y0047853D01*
X0219698Y0048129D01*
X0220405Y0048269D01*
X0220764Y0048269D01*
X0220764Y0044615D01*
X0217110Y0044615D01*
X0217110Y0044255D01*
X0217251Y0043549D01*
X0217526Y0042884D01*
X0217926Y0042285D01*
X0218435Y0041776D01*
X0219033Y0041377D01*
X0219698Y0041101D01*
X0220405Y0040961D01*
X0220764Y0040961D01*
X0220764Y0044615D01*
X0220764Y0044615D01*
X0220764Y0044615D01*
X0220764Y0048269D01*
X0221124Y0048269D01*
X0221830Y0048129D01*
X0222495Y0047853D01*
X0222705Y0047714D01*
X0222705Y0061097D01*
X0210836Y0072965D01*
X0210836Y0069680D01*
X0209676Y0068520D01*
X0205491Y0068520D01*
X0193415Y0056443D01*
X0193415Y0055699D01*
X0192858Y0054356D01*
X0191830Y0053328D01*
X0190487Y0052772D01*
X0189034Y0052772D01*
X0187690Y0053328D01*
X0186662Y0054356D01*
X0186106Y0055699D01*
X0186106Y0057153D01*
X0186662Y0058496D01*
X0187690Y0059524D01*
X0189034Y0060080D01*
X0189778Y0060080D01*
X0200968Y0071271D01*
X0200968Y0076439D01*
X0201329Y0076800D01*
X0201196Y0076933D01*
X0179638Y0055375D01*
X0178542Y0054921D01*
X0135836Y0054921D01*
X0135836Y0054680D01*
X0134676Y0053520D01*
X0134179Y0053520D01*
X0134179Y0051734D01*
X0135542Y0051734D01*
X0135902Y0051373D01*
X0136263Y0051734D01*
X0143022Y0051734D01*
X0144183Y0050573D01*
X0144183Y0046094D01*
X0149772Y0040504D01*
X0150930Y0041663D01*
X0152754Y0042418D01*
X0160690Y0042418D01*
X0162514Y0041663D01*
X0163910Y0040267D01*
X0164665Y0038443D01*
X0164665Y0036469D01*
X0163910Y0034645D01*
X0162514Y0033249D01*
X0160690Y0032494D01*
X0157782Y0032494D01*
X0157858Y0032418D01*
X0160094Y0032418D01*
X0160865Y0032296D01*
X0161608Y0032055D01*
X0162304Y0031700D01*
X0162936Y0031241D01*
X0163488Y0030689D01*
X0163947Y0030057D01*
X0164302Y0029361D01*
X0164543Y0028618D01*
X0164665Y0027847D01*
X0164665Y0027556D01*
X0162720Y0027556D01*
X0162920Y0027356D01*
X0164665Y0027356D01*
X0164665Y0027065D01*
X0164543Y0026294D01*
X0164406Y0025871D01*
X0165629Y0024647D01*
X0166373Y0024647D01*
X0167716Y0024091D01*
X0168744Y0023063D01*
X0169301Y0021720D01*
X0169301Y0020266D01*
X0168744Y0018923D01*
X0167716Y0017895D01*
X0166373Y0017339D01*
X0164919Y0017339D01*
X0163576Y0017895D01*
X0162548Y0018923D01*
X0161992Y0020266D01*
X0161992Y0021010D01*
X0160452Y0022551D01*
X0160094Y0022494D01*
X0156822Y0022494D01*
X0156822Y0026180D01*
X0156622Y0026380D01*
X0156622Y0022494D01*
X0153350Y0022494D01*
X0152579Y0022616D01*
X0151836Y0022857D01*
X0151140Y0023212D01*
X0150508Y0023671D01*
X0149956Y0024223D01*
X0149497Y0024855D01*
X0149142Y0025551D01*
X0148901Y0026294D01*
X0148779Y0027065D01*
X0148779Y0027356D01*
X0155646Y0027356D01*
X0155446Y0027556D01*
X0148779Y0027556D01*
X0148779Y0027847D01*
X0148901Y0028618D01*
X0149142Y0029361D01*
X0149497Y0030057D01*
X0149956Y0030689D01*
X0150508Y0031241D01*
X0151140Y0031700D01*
X0151248Y0031755D01*
X0141136Y0041866D01*
X0137022Y0041866D01*
X0137513Y0041663D01*
X0138909Y0040267D01*
X0139665Y0038443D01*
X0139665Y0036469D01*
X0138909Y0034645D01*
X0137513Y0033249D01*
X0135690Y0032494D01*
X0127753Y0032494D01*
X0125408Y0033770D02*
X0110904Y0033770D01*
X0110383Y0033249D02*
X0111778Y0034645D01*
X0112534Y0036469D01*
X0112534Y0038443D01*
X0111778Y0040267D01*
X0110383Y0041663D01*
X0108559Y0042418D01*
X0100622Y0042418D01*
X0098799Y0041663D01*
X0097403Y0040267D01*
X0096647Y0038443D01*
X0096647Y0036469D01*
X0097403Y0034645D01*
X0098799Y0033249D01*
X0100622Y0032494D01*
X0108559Y0032494D01*
X0110383Y0033249D01*
X0112078Y0035369D02*
X0124234Y0035369D01*
X0123778Y0036967D02*
X0112534Y0036967D01*
X0112483Y0038566D02*
X0123829Y0038566D01*
X0124491Y0040164D02*
X0111821Y0040164D01*
X0110141Y0041763D02*
X0126171Y0041763D01*
X0127622Y0043361D02*
X0090954Y0043361D01*
X0090954Y0041763D02*
X0099040Y0041763D01*
X0097360Y0040164D02*
X0090954Y0040164D01*
X0090954Y0038566D02*
X0096698Y0038566D01*
X0096647Y0036967D02*
X0090954Y0036967D01*
X0090954Y0035369D02*
X0097103Y0035369D01*
X0098278Y0033770D02*
X0090954Y0033770D01*
X0090954Y0032172D02*
X0100027Y0032172D01*
X0097709Y0030573D02*
X0090954Y0030573D01*
X0090954Y0028975D02*
X0096868Y0028975D01*
X0096647Y0027376D02*
X0090954Y0027376D01*
X0090954Y0025778D02*
X0096934Y0025778D01*
X0097869Y0024179D02*
X0090954Y0024179D01*
X0090954Y0022581D02*
X0100413Y0022581D01*
X0108768Y0022581D02*
X0127544Y0022581D01*
X0125000Y0024179D02*
X0111312Y0024179D01*
X0090954Y0020982D02*
X0161992Y0020982D01*
X0162357Y0019384D02*
X0090954Y0019384D01*
X0090954Y0017785D02*
X0163841Y0017785D01*
X0167451Y0017785D02*
X0205423Y0017785D01*
X0205423Y0017580D02*
X0200968Y0017580D01*
X0200968Y0015240D01*
X0201103Y0014736D01*
X0201364Y0014284D01*
X0201733Y0013916D01*
X0202185Y0013655D01*
X0202689Y0013520D01*
X0205423Y0013520D01*
X0205423Y0017580D01*
X0206382Y0017580D01*
X0206382Y0013520D01*
X0209116Y0013520D01*
X0209620Y0013655D01*
X0210071Y0013916D01*
X0210440Y0014284D01*
X0210701Y0014736D01*
X0210836Y0015240D01*
X0210836Y0017580D01*
X0206382Y0017580D01*
X0206382Y0018539D01*
X0210836Y0018539D01*
X0210836Y0020880D01*
X0210701Y0021384D01*
X0210466Y0021791D01*
X0210836Y0022160D01*
X0210836Y0028920D01*
X0209676Y0030080D01*
X0208982Y0030080D01*
X0208982Y0033973D01*
X0210712Y0032242D01*
X0210712Y0032077D01*
X0211269Y0030734D01*
X0212297Y0029706D01*
X0213640Y0029150D01*
X0215094Y0029150D01*
X0216437Y0029706D01*
X0217465Y0030734D01*
X0218021Y0032077D01*
X0218021Y0033531D01*
X0217465Y0034874D01*
X0216437Y0035902D01*
X0215094Y0036458D01*
X0214928Y0036458D01*
X0209512Y0041874D01*
X0208982Y0042405D01*
X0208982Y0043520D01*
X0209676Y0043520D01*
X0210836Y0044680D01*
X0210836Y0051439D01*
X0210466Y0051809D01*
X0210701Y0052216D01*
X0210836Y0052720D01*
X0210836Y0055061D01*
X0206382Y0055061D01*
X0206382Y0056020D01*
X0205423Y0056020D01*
X0205423Y0060080D01*
X0202689Y0060080D01*
X0202185Y0059945D01*
X0201733Y0059684D01*
X0201364Y0059316D01*
X0201103Y0058864D01*
X0200968Y0058360D01*
X0200968Y0056020D01*
X0205423Y0056020D01*
X0205423Y0055061D01*
X0200968Y0055061D01*
X0200968Y0052720D01*
X0201103Y0052216D01*
X0201338Y0051809D01*
X0201062Y0051533D01*
X0200838Y0051533D01*
X0200305Y0052066D01*
X0200305Y0052232D01*
X0199748Y0053575D01*
X0198720Y0054603D01*
X0197377Y0055159D01*
X0195923Y0055159D01*
X0194580Y0054603D01*
X0193552Y0053575D01*
X0192996Y0052232D01*
X0192996Y0050778D01*
X0193552Y0049435D01*
X0194580Y0048407D01*
X0195923Y0047850D01*
X0196089Y0047850D01*
X0197914Y0046025D01*
X0199010Y0045571D01*
X0200968Y0045571D01*
X0200968Y0044680D01*
X0202129Y0043520D01*
X0203020Y0043520D01*
X0203020Y0030080D01*
X0202129Y0030080D01*
X0200968Y0028920D01*
X0200968Y0022160D01*
X0201338Y0021791D01*
X0201103Y0021384D01*
X0200968Y0020880D01*
X0200968Y0018539D01*
X0205423Y0018539D01*
X0205423Y0017580D01*
X0206382Y0017785D02*
X0215888Y0017785D01*
X0214290Y0016187D02*
X0210836Y0016187D01*
X0210616Y0014588D02*
X0212691Y0014588D01*
X0211093Y0012990D02*
X0090954Y0012990D01*
X0090954Y0014588D02*
X0201189Y0014588D01*
X0200968Y0016187D02*
X0090954Y0016187D01*
X0085811Y0014297D02*
X0085811Y0009162D01*
X0086202Y0008217D01*
X0086926Y0007494D01*
X0087871Y0007102D01*
X0211926Y0007102D01*
X0212871Y0007494D01*
X0218143Y0012766D01*
X0218651Y0011541D01*
X0219679Y0010513D01*
X0221022Y0009957D01*
X0222476Y0009957D01*
X0223819Y0010513D01*
X0224847Y0011541D01*
X0224981Y0011866D01*
X0230542Y0011866D01*
X0230912Y0012236D01*
X0231319Y0012001D01*
X0231823Y0011866D01*
X0234163Y0011866D01*
X0234163Y0016320D01*
X0235122Y0016320D01*
X0235122Y0011866D01*
X0237462Y0011866D01*
X0237966Y0012001D01*
X0238418Y0012262D01*
X0238787Y0012631D01*
X0239048Y0013083D01*
X0239183Y0013586D01*
X0239183Y0016320D01*
X0235122Y0016320D01*
X0235122Y0017280D01*
X0234163Y0017280D01*
X0234163Y0021734D01*
X0231823Y0021734D01*
X0231319Y0021599D01*
X0230912Y0021364D01*
X0230542Y0021734D01*
X0228667Y0021734D01*
X0228667Y0045871D01*
X0244406Y0030132D01*
X0245351Y0029740D01*
X0254284Y0029740D01*
X0254020Y0029102D01*
X0254020Y0027648D01*
X0254576Y0026305D01*
X0255604Y0025277D01*
X0256947Y0024720D01*
X0257691Y0024720D01*
X0278631Y0003781D01*
X0057883Y0003781D01*
X0057883Y0275409D01*
X0139851Y0275409D01*
X0099330Y0234888D01*
X0099278Y0235149D01*
X0099003Y0235814D01*
X0098603Y0236413D01*
X0098094Y0236922D01*
X0097495Y0237322D01*
X0096830Y0237597D01*
X0096124Y0237738D01*
X0095764Y0237738D01*
X0095405Y0237738D01*
X0094698Y0237597D01*
X0094033Y0237322D01*
X0093435Y0236922D01*
X0092926Y0236413D01*
X0092526Y0235814D01*
X0092251Y0235149D01*
X0092110Y0234443D01*
X0092110Y0234084D01*
X0095764Y0234084D01*
X0095764Y0237738D01*
X0095764Y0234084D01*
X0095764Y0234084D01*
X0095764Y0234083D01*
X0092110Y0234083D01*
X0092110Y0233724D01*
X0092251Y0233018D01*
X0092526Y0232352D01*
X0092926Y0231754D01*
X0093435Y0231245D01*
X0094033Y0230845D01*
X0094698Y0230570D01*
X0094959Y0230518D01*
X0089155Y0224713D01*
X0088764Y0223768D01*
X0088764Y0223454D01*
X0088600Y0223618D01*
X0086849Y0224343D01*
X0084955Y0224343D01*
X0083205Y0223618D01*
X0081865Y0222279D01*
X0081140Y0220528D01*
X0081140Y0213072D01*
X0081865Y0211321D01*
X0082364Y0210822D01*
X0082005Y0210673D01*
X0081281Y0209950D01*
X0062580Y0191249D01*
X0062189Y0190304D01*
X0062189Y0112509D01*
X0062580Y0111564D01*
X0063304Y0110840D01*
X0078140Y0096005D01*
X0077954Y0096082D01*
X0077248Y0096222D01*
X0076888Y0096222D01*
X0076888Y0092568D01*
X0080542Y0092568D01*
X0080542Y0092928D01*
X0080401Y0093634D01*
X0080324Y0093820D01*
X0085811Y0088333D01*
X0085811Y0028674D01*
X0085782Y0028719D01*
X0084908Y0029815D01*
X0083917Y0030806D01*
X0082821Y0031680D01*
X0081634Y0032426D01*
X0080371Y0033034D01*
X0079048Y0033497D01*
X0077681Y0033809D01*
X0076387Y0033955D01*
X0076387Y0022285D01*
X0074787Y0022285D01*
X0074787Y0020685D01*
X0063117Y0020685D01*
X0063263Y0019391D01*
X0063575Y0018024D01*
X0064038Y0016701D01*
X0064646Y0015438D01*
X0065392Y0014251D01*
X0066266Y0013155D01*
X0067257Y0012164D01*
X0068353Y0011290D01*
X0069540Y0010544D01*
X0070803Y0009936D01*
X0072127Y0009473D01*
X0073493Y0009161D01*
X0074787Y0009015D01*
X0074787Y0020685D01*
X0076387Y0020685D01*
X0076387Y0009015D01*
X0077681Y0009161D01*
X0079048Y0009473D01*
X0080371Y0009936D01*
X0081634Y0010544D01*
X0082821Y0011290D01*
X0083917Y0012164D01*
X0084908Y0013155D01*
X0085782Y0014251D01*
X0085811Y0014297D01*
X0085811Y0012990D02*
X0084743Y0012990D01*
X0085811Y0011391D02*
X0082948Y0011391D01*
X0085811Y0009793D02*
X0079962Y0009793D01*
X0076387Y0009793D02*
X0074787Y0009793D01*
X0074787Y0011391D02*
X0076387Y0011391D01*
X0076387Y0012990D02*
X0074787Y0012990D01*
X0074787Y0014588D02*
X0076387Y0014588D01*
X0076387Y0016187D02*
X0074787Y0016187D01*
X0074787Y0017785D02*
X0076387Y0017785D01*
X0076387Y0019384D02*
X0074787Y0019384D01*
X0074787Y0020982D02*
X0057883Y0020982D01*
X0057883Y0019384D02*
X0063265Y0019384D01*
X0063659Y0017785D02*
X0057883Y0017785D01*
X0057883Y0016187D02*
X0064286Y0016187D01*
X0065180Y0014588D02*
X0057883Y0014588D01*
X0057883Y0012990D02*
X0066432Y0012990D01*
X0068227Y0011391D02*
X0057883Y0011391D01*
X0057883Y0009793D02*
X0071213Y0009793D01*
X0057883Y0008194D02*
X0086226Y0008194D01*
X0076387Y0022581D02*
X0074787Y0022581D01*
X0074787Y0022285D02*
X0074787Y0033955D01*
X0073493Y0033809D01*
X0072127Y0033497D01*
X0070803Y0033034D01*
X0069540Y0032426D01*
X0068353Y0031680D01*
X0067257Y0030806D01*
X0066266Y0029815D01*
X0065392Y0028719D01*
X0064646Y0027532D01*
X0064038Y0026269D01*
X0063575Y0024946D01*
X0063263Y0023579D01*
X0063117Y0022285D01*
X0074787Y0022285D01*
X0074787Y0024179D02*
X0076387Y0024179D01*
X0076387Y0025778D02*
X0074787Y0025778D01*
X0074787Y0027376D02*
X0076387Y0027376D01*
X0076387Y0028975D02*
X0074787Y0028975D01*
X0074787Y0030573D02*
X0076387Y0030573D01*
X0076387Y0032172D02*
X0074787Y0032172D01*
X0074787Y0033770D02*
X0076387Y0033770D01*
X0077852Y0033770D02*
X0085811Y0033770D01*
X0085811Y0032172D02*
X0082039Y0032172D01*
X0084150Y0030573D02*
X0085811Y0030573D01*
X0085811Y0028975D02*
X0085578Y0028975D01*
X0085811Y0035369D02*
X0057883Y0035369D01*
X0057883Y0036967D02*
X0085811Y0036967D01*
X0085811Y0038566D02*
X0057883Y0038566D01*
X0057883Y0040164D02*
X0068533Y0040164D01*
X0068454Y0040197D02*
X0069366Y0039819D01*
X0070353Y0039819D01*
X0071265Y0040197D01*
X0071828Y0040760D01*
X0072391Y0040197D01*
X0073303Y0039819D01*
X0075625Y0039819D01*
X0076536Y0040197D01*
X0076766Y0040426D01*
X0076995Y0040197D01*
X0077907Y0039819D01*
X0080896Y0039819D01*
X0081808Y0040197D01*
X0082506Y0040895D01*
X0082883Y0041806D01*
X0082883Y0044795D01*
X0082883Y0045810D01*
X0082883Y0046797D01*
X0082506Y0047709D01*
X0081808Y0048407D01*
X0080896Y0048785D01*
X0077907Y0048785D01*
X0076995Y0048407D01*
X0076328Y0047740D01*
X0075917Y0047329D01*
X0075625Y0047450D01*
X0073303Y0047450D01*
X0072539Y0047133D01*
X0071933Y0047740D01*
X0071021Y0048117D01*
X0070034Y0048117D01*
X0069122Y0047740D01*
X0068454Y0047072D01*
X0067757Y0046374D01*
X0067379Y0045462D01*
X0067379Y0044475D01*
X0067727Y0043634D01*
X0067379Y0042794D01*
X0067379Y0041806D01*
X0067757Y0040895D01*
X0068454Y0040197D01*
X0067397Y0041763D02*
X0057883Y0041763D01*
X0057883Y0043361D02*
X0067614Y0043361D01*
X0067379Y0044960D02*
X0057883Y0044960D01*
X0057883Y0046558D02*
X0067940Y0046558D01*
X0071187Y0040164D02*
X0072469Y0040164D01*
X0076458Y0040164D02*
X0077073Y0040164D01*
X0081730Y0040164D02*
X0085811Y0040164D01*
X0085811Y0041763D02*
X0082865Y0041763D01*
X0082883Y0043361D02*
X0085811Y0043361D01*
X0085811Y0044960D02*
X0082883Y0044960D01*
X0082883Y0046558D02*
X0085811Y0046558D01*
X0085811Y0048157D02*
X0082058Y0048157D01*
X0085811Y0049755D02*
X0057883Y0049755D01*
X0057883Y0048157D02*
X0076745Y0048157D01*
X0085811Y0051354D02*
X0057883Y0051354D01*
X0057883Y0052952D02*
X0085811Y0052952D01*
X0085811Y0054551D02*
X0057883Y0054551D01*
X0057883Y0056149D02*
X0085811Y0056149D01*
X0085811Y0057748D02*
X0057883Y0057748D01*
X0057883Y0059346D02*
X0085811Y0059346D01*
X0085811Y0060945D02*
X0057883Y0060945D01*
X0057883Y0062543D02*
X0085811Y0062543D01*
X0085811Y0064142D02*
X0057883Y0064142D01*
X0057883Y0065740D02*
X0085811Y0065740D01*
X0085811Y0067339D02*
X0057883Y0067339D01*
X0057883Y0068937D02*
X0085811Y0068937D01*
X0085811Y0070536D02*
X0057883Y0070536D01*
X0057883Y0072134D02*
X0085811Y0072134D01*
X0085811Y0073733D02*
X0057883Y0073733D01*
X0057883Y0075332D02*
X0085811Y0075332D01*
X0085811Y0076930D02*
X0057883Y0076930D01*
X0057883Y0078529D02*
X0085811Y0078529D01*
X0085811Y0080127D02*
X0057883Y0080127D01*
X0057883Y0081726D02*
X0085811Y0081726D01*
X0085811Y0083324D02*
X0057883Y0083324D01*
X0057883Y0084923D02*
X0085811Y0084923D01*
X0085811Y0086521D02*
X0057883Y0086521D01*
X0057883Y0088120D02*
X0085811Y0088120D01*
X0084426Y0089718D02*
X0079200Y0089718D01*
X0079217Y0089729D02*
X0079726Y0090238D01*
X0080126Y0090837D01*
X0080401Y0091502D01*
X0080542Y0092208D01*
X0080542Y0092568D01*
X0076888Y0092568D01*
X0076888Y0092568D01*
X0076888Y0092568D01*
X0076888Y0096222D01*
X0076528Y0096222D01*
X0075822Y0096082D01*
X0075157Y0095806D01*
X0074558Y0095406D01*
X0074049Y0094897D01*
X0073649Y0094299D01*
X0073374Y0093634D01*
X0073233Y0092928D01*
X0073233Y0092568D01*
X0076887Y0092568D01*
X0076887Y0092568D01*
X0073233Y0092568D01*
X0073233Y0092208D01*
X0073374Y0091502D01*
X0073649Y0090837D01*
X0074049Y0090238D01*
X0074558Y0089729D01*
X0075157Y0089329D01*
X0075822Y0089054D01*
X0076528Y0088913D01*
X0076888Y0088913D01*
X0077248Y0088913D01*
X0077954Y0089054D01*
X0078619Y0089329D01*
X0079217Y0089729D01*
X0080325Y0091317D02*
X0082827Y0091317D01*
X0081229Y0092915D02*
X0080542Y0092915D01*
X0076888Y0092915D02*
X0076888Y0092915D01*
X0076888Y0092568D02*
X0076888Y0088913D01*
X0076888Y0092568D01*
X0076888Y0092568D01*
X0076888Y0091317D02*
X0076888Y0091317D01*
X0076888Y0089718D02*
X0076888Y0089718D01*
X0074575Y0089718D02*
X0057883Y0089718D01*
X0057883Y0091317D02*
X0073450Y0091317D01*
X0073233Y0092915D02*
X0057883Y0092915D01*
X0057883Y0094514D02*
X0073793Y0094514D01*
X0075975Y0096112D02*
X0057883Y0096112D01*
X0057883Y0097711D02*
X0076433Y0097711D01*
X0076888Y0096112D02*
X0076888Y0096112D01*
X0077800Y0096112D02*
X0078032Y0096112D01*
X0076888Y0094514D02*
X0076888Y0094514D01*
X0074835Y0099309D02*
X0057883Y0099309D01*
X0057883Y0100908D02*
X0073236Y0100908D01*
X0071638Y0102506D02*
X0057883Y0102506D01*
X0057883Y0104105D02*
X0070039Y0104105D01*
X0068441Y0105703D02*
X0057883Y0105703D01*
X0057883Y0107302D02*
X0066842Y0107302D01*
X0065244Y0108900D02*
X0057883Y0108900D01*
X0057883Y0110499D02*
X0063645Y0110499D01*
X0063304Y0110840D02*
X0063304Y0110840D01*
X0062359Y0112097D02*
X0057883Y0112097D01*
X0057883Y0113696D02*
X0062189Y0113696D01*
X0062189Y0115294D02*
X0057883Y0115294D01*
X0057883Y0116893D02*
X0062189Y0116893D01*
X0062189Y0118491D02*
X0057883Y0118491D01*
X0057883Y0120090D02*
X0062189Y0120090D01*
X0062189Y0121688D02*
X0057883Y0121688D01*
X0057883Y0123287D02*
X0062189Y0123287D01*
X0062189Y0124885D02*
X0057883Y0124885D01*
X0057883Y0126484D02*
X0062189Y0126484D01*
X0062189Y0128082D02*
X0057883Y0128082D01*
X0057883Y0129681D02*
X0062189Y0129681D01*
X0062189Y0131279D02*
X0057883Y0131279D01*
X0057883Y0132878D02*
X0062189Y0132878D01*
X0062189Y0134476D02*
X0057883Y0134476D01*
X0057883Y0136075D02*
X0062189Y0136075D01*
X0062189Y0137673D02*
X0057883Y0137673D01*
X0057883Y0139272D02*
X0062189Y0139272D01*
X0062189Y0140870D02*
X0057883Y0140870D01*
X0057883Y0142469D02*
X0062189Y0142469D01*
X0062189Y0144068D02*
X0057883Y0144068D01*
X0057883Y0145666D02*
X0062189Y0145666D01*
X0062189Y0147265D02*
X0057883Y0147265D01*
X0057883Y0148863D02*
X0062189Y0148863D01*
X0062189Y0150462D02*
X0057883Y0150462D01*
X0057883Y0152060D02*
X0062189Y0152060D01*
X0062189Y0153659D02*
X0057883Y0153659D01*
X0057883Y0155257D02*
X0062189Y0155257D01*
X0062189Y0156856D02*
X0057883Y0156856D01*
X0057883Y0158454D02*
X0062189Y0158454D01*
X0062189Y0160053D02*
X0057883Y0160053D01*
X0057883Y0161651D02*
X0062189Y0161651D01*
X0062189Y0163250D02*
X0057883Y0163250D01*
X0057883Y0164848D02*
X0062189Y0164848D01*
X0062189Y0166447D02*
X0057883Y0166447D01*
X0057883Y0168045D02*
X0062189Y0168045D01*
X0062189Y0169644D02*
X0057883Y0169644D01*
X0057883Y0171242D02*
X0062189Y0171242D01*
X0062189Y0172841D02*
X0057883Y0172841D01*
X0057883Y0174439D02*
X0062189Y0174439D01*
X0062189Y0176038D02*
X0057883Y0176038D01*
X0057883Y0177636D02*
X0062189Y0177636D01*
X0062189Y0179235D02*
X0057883Y0179235D01*
X0057883Y0180833D02*
X0062189Y0180833D01*
X0062189Y0182432D02*
X0057883Y0182432D01*
X0057883Y0184030D02*
X0062189Y0184030D01*
X0062189Y0185629D02*
X0057883Y0185629D01*
X0057883Y0187227D02*
X0062189Y0187227D01*
X0062189Y0188826D02*
X0057883Y0188826D01*
X0057883Y0190424D02*
X0062239Y0190424D01*
X0063354Y0192023D02*
X0057883Y0192023D01*
X0057883Y0193621D02*
X0064953Y0193621D01*
X0066551Y0195220D02*
X0057883Y0195220D01*
X0057883Y0196818D02*
X0068150Y0196818D01*
X0069748Y0198417D02*
X0057883Y0198417D01*
X0057883Y0200015D02*
X0071347Y0200015D01*
X0072945Y0201614D02*
X0057883Y0201614D01*
X0057883Y0203212D02*
X0074544Y0203212D01*
X0076142Y0204811D02*
X0057883Y0204811D01*
X0057883Y0206409D02*
X0077741Y0206409D01*
X0079339Y0208008D02*
X0057883Y0208008D01*
X0057883Y0209606D02*
X0074111Y0209606D01*
X0074955Y0209257D02*
X0076849Y0209257D01*
X0078600Y0209982D01*
X0079939Y0211321D01*
X0080664Y0213072D01*
X0080664Y0220528D01*
X0079939Y0222279D01*
X0078600Y0223618D01*
X0076849Y0224343D01*
X0074955Y0224343D01*
X0073205Y0223618D01*
X0071865Y0222279D01*
X0071140Y0220528D01*
X0071140Y0213072D01*
X0071865Y0211321D01*
X0073205Y0209982D01*
X0074955Y0209257D01*
X0077694Y0209606D02*
X0080938Y0209606D01*
X0081981Y0211205D02*
X0079823Y0211205D01*
X0080553Y0212803D02*
X0081251Y0212803D01*
X0081140Y0214402D02*
X0080664Y0214402D01*
X0080664Y0216001D02*
X0081140Y0216001D01*
X0081140Y0217599D02*
X0080664Y0217599D01*
X0080664Y0219198D02*
X0081140Y0219198D01*
X0081251Y0220796D02*
X0080554Y0220796D01*
X0079824Y0222395D02*
X0081981Y0222395D01*
X0084109Y0223993D02*
X0077695Y0223993D01*
X0074109Y0223993D02*
X0057883Y0223993D01*
X0057883Y0222395D02*
X0071981Y0222395D01*
X0071251Y0220796D02*
X0057883Y0220796D01*
X0057883Y0219198D02*
X0071140Y0219198D01*
X0071140Y0217599D02*
X0057883Y0217599D01*
X0057883Y0216001D02*
X0071140Y0216001D01*
X0071140Y0214402D02*
X0057883Y0214402D01*
X0057883Y0212803D02*
X0071251Y0212803D01*
X0071981Y0211205D02*
X0057883Y0211205D01*
X0057883Y0225592D02*
X0090033Y0225592D01*
X0088857Y0223993D02*
X0087695Y0223993D01*
X0091632Y0227190D02*
X0057883Y0227190D01*
X0057883Y0228789D02*
X0093230Y0228789D01*
X0094829Y0230387D02*
X0057883Y0230387D01*
X0057883Y0231986D02*
X0092771Y0231986D01*
X0092138Y0233584D02*
X0057883Y0233584D01*
X0057883Y0235183D02*
X0092264Y0235183D01*
X0093294Y0236781D02*
X0057883Y0236781D01*
X0057883Y0238380D02*
X0102821Y0238380D01*
X0101223Y0236781D02*
X0098235Y0236781D01*
X0099265Y0235183D02*
X0099624Y0235183D01*
X0095764Y0235183D02*
X0095764Y0235183D01*
X0095764Y0236781D02*
X0095764Y0236781D01*
X0104420Y0239978D02*
X0057883Y0239978D01*
X0057883Y0241577D02*
X0106018Y0241577D01*
X0107617Y0243175D02*
X0057883Y0243175D01*
X0057883Y0244774D02*
X0109215Y0244774D01*
X0110814Y0246372D02*
X0080819Y0246372D01*
X0080371Y0246156D02*
X0081634Y0246765D01*
X0082821Y0247510D01*
X0083917Y0248384D01*
X0084908Y0249376D01*
X0085782Y0250472D01*
X0086528Y0251659D01*
X0087136Y0252922D01*
X0087599Y0254245D01*
X0087911Y0255612D01*
X0088057Y0256906D01*
X0076387Y0256906D01*
X0076387Y0258505D01*
X0088057Y0258505D01*
X0087911Y0259799D01*
X0087599Y0261166D01*
X0087136Y0262489D01*
X0086528Y0263752D01*
X0085782Y0264939D01*
X0084908Y0266035D01*
X0083917Y0267027D01*
X0082821Y0267901D01*
X0081634Y0268646D01*
X0080371Y0269255D01*
X0079048Y0269718D01*
X0077681Y0270030D01*
X0076387Y0270175D01*
X0076387Y0258506D01*
X0074787Y0258506D01*
X0074787Y0270175D01*
X0073493Y0270030D01*
X0072127Y0269718D01*
X0070803Y0269255D01*
X0069540Y0268646D01*
X0068353Y0267901D01*
X0067257Y0267027D01*
X0066266Y0266035D01*
X0065392Y0264939D01*
X0064646Y0263752D01*
X0064038Y0262489D01*
X0063575Y0261166D01*
X0063263Y0259799D01*
X0063117Y0258505D01*
X0074787Y0258505D01*
X0074787Y0256906D01*
X0063117Y0256906D01*
X0063263Y0255612D01*
X0063575Y0254245D01*
X0064038Y0252922D01*
X0064646Y0251659D01*
X0065392Y0250472D01*
X0066266Y0249376D01*
X0067257Y0248384D01*
X0068353Y0247510D01*
X0069540Y0246765D01*
X0070803Y0246156D01*
X0072127Y0245693D01*
X0073493Y0245381D01*
X0074787Y0245236D01*
X0074787Y0256905D01*
X0076387Y0256905D01*
X0076387Y0245236D01*
X0077681Y0245381D01*
X0079048Y0245693D01*
X0080371Y0246156D01*
X0083398Y0247971D02*
X0112412Y0247971D01*
X0114011Y0249569D02*
X0085063Y0249569D01*
X0086220Y0251168D02*
X0115610Y0251168D01*
X0117208Y0252766D02*
X0087062Y0252766D01*
X0087627Y0254365D02*
X0118807Y0254365D01*
X0120405Y0255963D02*
X0087951Y0255963D01*
X0087983Y0259160D02*
X0123602Y0259160D01*
X0122004Y0257562D02*
X0076387Y0257562D01*
X0076387Y0259160D02*
X0074787Y0259160D01*
X0074787Y0257562D02*
X0057883Y0257562D01*
X0057883Y0259160D02*
X0063191Y0259160D01*
X0063482Y0260759D02*
X0057883Y0260759D01*
X0057883Y0262357D02*
X0063992Y0262357D01*
X0064774Y0263956D02*
X0057883Y0263956D01*
X0057883Y0265554D02*
X0065883Y0265554D01*
X0067416Y0267153D02*
X0057883Y0267153D01*
X0057883Y0268751D02*
X0069758Y0268751D01*
X0074787Y0268751D02*
X0076387Y0268751D01*
X0076387Y0267153D02*
X0074787Y0267153D01*
X0074787Y0265554D02*
X0076387Y0265554D01*
X0076387Y0263956D02*
X0074787Y0263956D01*
X0074787Y0262357D02*
X0076387Y0262357D01*
X0076387Y0260759D02*
X0074787Y0260759D01*
X0074787Y0255963D02*
X0076387Y0255963D01*
X0076387Y0254365D02*
X0074787Y0254365D01*
X0074787Y0252766D02*
X0076387Y0252766D01*
X0076387Y0251168D02*
X0074787Y0251168D01*
X0074787Y0249569D02*
X0076387Y0249569D01*
X0076387Y0247971D02*
X0074787Y0247971D01*
X0074787Y0246372D02*
X0076387Y0246372D01*
X0070355Y0246372D02*
X0057883Y0246372D01*
X0057883Y0247971D02*
X0067776Y0247971D01*
X0066112Y0249569D02*
X0057883Y0249569D01*
X0057883Y0251168D02*
X0064955Y0251168D01*
X0064113Y0252766D02*
X0057883Y0252766D01*
X0057883Y0254365D02*
X0063548Y0254365D01*
X0063223Y0255963D02*
X0057883Y0255963D01*
X0057883Y0270350D02*
X0134792Y0270350D01*
X0136390Y0271948D02*
X0057883Y0271948D01*
X0057883Y0273547D02*
X0137989Y0273547D01*
X0139587Y0275145D02*
X0057883Y0275145D01*
X0081416Y0268751D02*
X0133193Y0268751D01*
X0131595Y0267153D02*
X0083759Y0267153D01*
X0085292Y0265554D02*
X0129996Y0265554D01*
X0128398Y0263956D02*
X0086400Y0263956D01*
X0087183Y0262357D02*
X0126799Y0262357D01*
X0125201Y0260759D02*
X0087692Y0260759D01*
X0113292Y0241577D02*
X0132101Y0241577D01*
X0132101Y0241576D02*
X0131670Y0241576D01*
X0130725Y0241185D01*
X0129003Y0239462D01*
X0129003Y0239462D01*
X0128279Y0238739D01*
X0114485Y0224945D01*
X0113761Y0224221D01*
X0113575Y0223772D01*
X0113205Y0223618D01*
X0111865Y0222279D01*
X0111140Y0220528D01*
X0111140Y0213072D01*
X0111865Y0211321D01*
X0113205Y0209982D01*
X0114955Y0209257D01*
X0116849Y0209257D01*
X0118600Y0209982D01*
X0119939Y0211321D01*
X0120664Y0213072D01*
X0120664Y0220528D01*
X0119939Y0222279D01*
X0119516Y0222702D01*
X0131278Y0234465D01*
X0132622Y0234465D01*
X0132622Y0232280D01*
X0136682Y0232280D01*
X0136682Y0231320D01*
X0132622Y0231320D01*
X0132622Y0228586D01*
X0132757Y0228083D01*
X0133018Y0227631D01*
X0133387Y0227262D01*
X0133838Y0227001D01*
X0134342Y0226866D01*
X0136683Y0226866D01*
X0136683Y0231320D01*
X0137642Y0231320D01*
X0137642Y0226866D01*
X0139982Y0226866D01*
X0140486Y0227001D01*
X0140893Y0227236D01*
X0141263Y0226866D01*
X0141913Y0226866D01*
X0141913Y0222327D01*
X0141865Y0222279D01*
X0141140Y0220528D01*
X0141140Y0213072D01*
X0141865Y0211321D01*
X0143205Y0209982D01*
X0144331Y0209515D01*
X0143912Y0209096D01*
X0093907Y0209096D01*
X0093907Y0209691D01*
X0094955Y0209257D01*
X0096849Y0209257D01*
X0098600Y0209982D01*
X0099939Y0211321D01*
X0100664Y0213072D01*
X0100664Y0220528D01*
X0099939Y0222279D01*
X0098600Y0223618D01*
X0096849Y0224343D01*
X0096059Y0224343D01*
X0130746Y0259031D01*
X0130587Y0258647D01*
X0130447Y0257941D01*
X0130447Y0257581D01*
X0134101Y0257581D01*
X0134101Y0261235D01*
X0133741Y0261235D01*
X0133035Y0261095D01*
X0132651Y0260935D01*
X0137504Y0265788D01*
X0137504Y0258915D01*
X0137339Y0259312D01*
X0136940Y0259910D01*
X0136431Y0260419D01*
X0135832Y0260819D01*
X0135167Y0261095D01*
X0134461Y0261235D01*
X0134101Y0261235D01*
X0134101Y0257581D01*
X0134101Y0257581D01*
X0134101Y0257581D01*
X0130447Y0257581D01*
X0130447Y0257221D01*
X0130587Y0256515D01*
X0130863Y0255850D01*
X0131263Y0255251D01*
X0131772Y0254742D01*
X0132370Y0254342D01*
X0133035Y0254067D01*
X0133741Y0253926D01*
X0134101Y0253926D01*
X0134101Y0257581D01*
X0134101Y0253926D01*
X0134461Y0253926D01*
X0135167Y0254067D01*
X0135832Y0254342D01*
X0136431Y0254742D01*
X0136940Y0255251D01*
X0137339Y0255850D01*
X0137504Y0256246D01*
X0137504Y0254286D01*
X0138664Y0253126D01*
X0146849Y0253126D01*
X0147828Y0252147D01*
X0149028Y0251650D01*
X0148838Y0251599D01*
X0148387Y0251338D01*
X0148018Y0250969D01*
X0147757Y0250517D01*
X0147622Y0250014D01*
X0147622Y0247280D01*
X0151682Y0247280D01*
X0151683Y0247280D02*
X0151683Y0251734D01*
X0150971Y0251734D01*
X0151968Y0252147D01*
X0152996Y0253175D01*
X0153281Y0253863D01*
X0154019Y0253126D01*
X0156677Y0253126D01*
X0156677Y0251734D01*
X0156263Y0251734D01*
X0155893Y0251364D01*
X0155486Y0251599D01*
X0154982Y0251734D01*
X0152642Y0251734D01*
X0152642Y0247280D01*
X0151683Y0247280D01*
X0151682Y0247280D02*
X0151682Y0246320D01*
X0147622Y0246320D01*
X0147622Y0243586D01*
X0147757Y0243083D01*
X0148018Y0242631D01*
X0148387Y0242262D01*
X0148838Y0242001D01*
X0149342Y0241866D01*
X0151683Y0241866D01*
X0151683Y0246320D01*
X0152642Y0246320D01*
X0152642Y0242888D01*
X0152149Y0241700D01*
X0152149Y0240246D01*
X0152414Y0239608D01*
X0137406Y0239608D01*
X0139664Y0241866D01*
X0143022Y0241866D01*
X0144183Y0243027D01*
X0144183Y0250573D01*
X0143022Y0251734D01*
X0136263Y0251734D01*
X0135893Y0251364D01*
X0135486Y0251599D01*
X0134982Y0251734D01*
X0132642Y0251734D01*
X0132642Y0247280D01*
X0131683Y0247280D01*
X0131683Y0251734D01*
X0129342Y0251734D01*
X0128838Y0251599D01*
X0128387Y0251338D01*
X0128018Y0250969D01*
X0127757Y0250517D01*
X0127622Y0250014D01*
X0127622Y0247280D01*
X0131682Y0247280D01*
X0131682Y0246320D01*
X0127622Y0246320D01*
X0127622Y0243586D01*
X0127757Y0243083D01*
X0128018Y0242631D01*
X0128387Y0242262D01*
X0128838Y0242001D01*
X0129342Y0241866D01*
X0131683Y0241866D01*
X0131683Y0246320D01*
X0132642Y0246320D01*
X0132642Y0242117D01*
X0132101Y0241576D01*
X0131683Y0243175D02*
X0132642Y0243175D01*
X0132642Y0244774D02*
X0131683Y0244774D01*
X0131682Y0246372D02*
X0118088Y0246372D01*
X0119686Y0247971D02*
X0127622Y0247971D01*
X0127622Y0249569D02*
X0121285Y0249569D01*
X0122883Y0251168D02*
X0128216Y0251168D01*
X0131683Y0251168D02*
X0132642Y0251168D01*
X0132642Y0249569D02*
X0131683Y0249569D01*
X0131683Y0247971D02*
X0132642Y0247971D01*
X0127622Y0244774D02*
X0116489Y0244774D01*
X0114891Y0243175D02*
X0127732Y0243175D01*
X0129518Y0239978D02*
X0111694Y0239978D01*
X0110095Y0238380D02*
X0127920Y0238380D01*
X0128279Y0238739D02*
X0128279Y0238739D01*
X0126321Y0236781D02*
X0108497Y0236781D01*
X0106898Y0235183D02*
X0124723Y0235183D01*
X0123124Y0233584D02*
X0105300Y0233584D01*
X0103701Y0231986D02*
X0121526Y0231986D01*
X0119927Y0230387D02*
X0102103Y0230387D01*
X0100504Y0228789D02*
X0118329Y0228789D01*
X0116730Y0227190D02*
X0098906Y0227190D01*
X0097307Y0225592D02*
X0115132Y0225592D01*
X0113667Y0223993D02*
X0107695Y0223993D01*
X0106849Y0224343D02*
X0104955Y0224343D01*
X0103205Y0223618D01*
X0101865Y0222279D01*
X0101140Y0220528D01*
X0101140Y0213072D01*
X0101865Y0211321D01*
X0103205Y0209982D01*
X0104955Y0209257D01*
X0106849Y0209257D01*
X0108600Y0209982D01*
X0109939Y0211321D01*
X0110664Y0213072D01*
X0110664Y0220528D01*
X0109939Y0222279D01*
X0108600Y0223618D01*
X0106849Y0224343D01*
X0104109Y0223993D02*
X0097695Y0223993D01*
X0099824Y0222395D02*
X0101981Y0222395D01*
X0101251Y0220796D02*
X0100554Y0220796D01*
X0100664Y0219198D02*
X0101140Y0219198D01*
X0101140Y0217599D02*
X0100664Y0217599D01*
X0100664Y0216001D02*
X0101140Y0216001D01*
X0101140Y0214402D02*
X0100664Y0214402D01*
X0100553Y0212803D02*
X0101251Y0212803D01*
X0101981Y0211205D02*
X0099823Y0211205D01*
X0097694Y0209606D02*
X0104111Y0209606D01*
X0107694Y0209606D02*
X0114111Y0209606D01*
X0111981Y0211205D02*
X0109823Y0211205D01*
X0110553Y0212803D02*
X0111251Y0212803D01*
X0111140Y0214402D02*
X0110664Y0214402D01*
X0110664Y0216001D02*
X0111140Y0216001D01*
X0111140Y0217599D02*
X0110664Y0217599D01*
X0110664Y0219198D02*
X0111140Y0219198D01*
X0111251Y0220796D02*
X0110554Y0220796D01*
X0109824Y0222395D02*
X0111981Y0222395D01*
X0119824Y0222395D02*
X0121981Y0222395D01*
X0121865Y0222279D02*
X0121140Y0220528D01*
X0121140Y0213072D01*
X0121865Y0211321D01*
X0123205Y0209982D01*
X0124955Y0209257D01*
X0126849Y0209257D01*
X0128600Y0209982D01*
X0129939Y0211321D01*
X0130664Y0213072D01*
X0130664Y0220528D01*
X0129939Y0222279D01*
X0128600Y0223618D01*
X0126849Y0224343D01*
X0124955Y0224343D01*
X0123205Y0223618D01*
X0121865Y0222279D01*
X0121251Y0220796D02*
X0120554Y0220796D01*
X0120664Y0219198D02*
X0121140Y0219198D01*
X0121140Y0217599D02*
X0120664Y0217599D01*
X0120664Y0216001D02*
X0121140Y0216001D01*
X0121140Y0214402D02*
X0120664Y0214402D01*
X0120553Y0212803D02*
X0121251Y0212803D01*
X0121981Y0211205D02*
X0119823Y0211205D01*
X0117694Y0209606D02*
X0124111Y0209606D01*
X0127694Y0209606D02*
X0134072Y0209606D01*
X0134074Y0209606D02*
X0134787Y0209374D01*
X0135527Y0209257D01*
X0135902Y0209257D01*
X0135902Y0216800D01*
X0135902Y0216800D01*
X0131140Y0216800D01*
X0131140Y0219956D01*
X0131257Y0220696D01*
X0131489Y0221409D01*
X0131829Y0222077D01*
X0132270Y0222683D01*
X0132800Y0223213D01*
X0133406Y0223654D01*
X0134074Y0223994D01*
X0134787Y0224226D01*
X0135527Y0224343D01*
X0135902Y0224343D01*
X0135902Y0216800D01*
X0131140Y0216800D01*
X0131140Y0213644D01*
X0131257Y0212904D01*
X0131489Y0212191D01*
X0131829Y0211523D01*
X0132270Y0210917D01*
X0132800Y0210386D01*
X0133406Y0209946D01*
X0134074Y0209606D01*
X0135902Y0209606D02*
X0135902Y0209606D01*
X0135902Y0209257D02*
X0136277Y0209257D01*
X0137017Y0209374D01*
X0137730Y0209606D01*
X0138398Y0209946D01*
X0139005Y0210386D01*
X0139535Y0210917D01*
X0139975Y0211523D01*
X0140316Y0212191D01*
X0140547Y0212904D01*
X0140664Y0213644D01*
X0140664Y0216800D01*
X0140664Y0219956D01*
X0140547Y0220696D01*
X0140316Y0221409D01*
X0139975Y0222077D01*
X0139535Y0222683D01*
X0139005Y0223213D01*
X0138398Y0223654D01*
X0137730Y0223994D01*
X0137017Y0224226D01*
X0136277Y0224343D01*
X0135902Y0224343D01*
X0135902Y0216800D01*
X0135902Y0216800D01*
X0135902Y0216800D01*
X0135902Y0209257D01*
X0137732Y0209606D02*
X0144111Y0209606D01*
X0141981Y0211205D02*
X0139744Y0211205D01*
X0140515Y0212803D02*
X0141251Y0212803D01*
X0141140Y0214402D02*
X0140664Y0214402D01*
X0140664Y0216001D02*
X0141140Y0216001D01*
X0140664Y0216800D02*
X0135902Y0216800D01*
X0140664Y0216800D01*
X0140664Y0217599D02*
X0141140Y0217599D01*
X0141140Y0219198D02*
X0140664Y0219198D01*
X0140515Y0220796D02*
X0141251Y0220796D01*
X0141913Y0222395D02*
X0139745Y0222395D01*
X0137733Y0223993D02*
X0141913Y0223993D01*
X0141913Y0225592D02*
X0122405Y0225592D01*
X0120807Y0223993D02*
X0124109Y0223993D01*
X0124004Y0227190D02*
X0133511Y0227190D01*
X0132622Y0228789D02*
X0125602Y0228789D01*
X0127201Y0230387D02*
X0132622Y0230387D01*
X0132622Y0233584D02*
X0130398Y0233584D01*
X0128800Y0231986D02*
X0136682Y0231986D01*
X0136683Y0230387D02*
X0137642Y0230387D01*
X0137642Y0228789D02*
X0136683Y0228789D01*
X0136683Y0227190D02*
X0137642Y0227190D01*
X0140813Y0227190D02*
X0140939Y0227190D01*
X0135902Y0223993D02*
X0135902Y0223993D01*
X0135902Y0222395D02*
X0135902Y0222395D01*
X0135902Y0220796D02*
X0135902Y0220796D01*
X0135902Y0219198D02*
X0135902Y0219198D01*
X0135902Y0217599D02*
X0135902Y0217599D01*
X0135902Y0216800D02*
X0135902Y0216800D01*
X0135902Y0216001D02*
X0135902Y0216001D01*
X0135902Y0214402D02*
X0135902Y0214402D01*
X0135902Y0212803D02*
X0135902Y0212803D01*
X0135902Y0211205D02*
X0135902Y0211205D01*
X0132060Y0211205D02*
X0129823Y0211205D01*
X0130553Y0212803D02*
X0131290Y0212803D01*
X0131140Y0214402D02*
X0130664Y0214402D01*
X0130664Y0216001D02*
X0131140Y0216001D01*
X0131140Y0217599D02*
X0130664Y0217599D01*
X0130664Y0219198D02*
X0131140Y0219198D01*
X0131290Y0220796D02*
X0130554Y0220796D01*
X0129824Y0222395D02*
X0132060Y0222395D01*
X0134072Y0223993D02*
X0127695Y0223993D01*
X0137776Y0239978D02*
X0152261Y0239978D01*
X0152149Y0241577D02*
X0139375Y0241577D01*
X0144183Y0243175D02*
X0147732Y0243175D01*
X0147622Y0244774D02*
X0144183Y0244774D01*
X0144183Y0246372D02*
X0151682Y0246372D01*
X0151683Y0244774D02*
X0152642Y0244774D01*
X0152642Y0243175D02*
X0151683Y0243175D01*
X0151683Y0247971D02*
X0152642Y0247971D01*
X0152642Y0249569D02*
X0151683Y0249569D01*
X0151683Y0251168D02*
X0152642Y0251168D01*
X0152588Y0252766D02*
X0156677Y0252766D01*
X0148216Y0251168D02*
X0143588Y0251168D01*
X0144183Y0249569D02*
X0147622Y0249569D01*
X0147622Y0247971D02*
X0144183Y0247971D01*
X0147209Y0252766D02*
X0124482Y0252766D01*
X0126080Y0254365D02*
X0132336Y0254365D01*
X0134101Y0254365D02*
X0134101Y0254365D01*
X0134101Y0255963D02*
X0134101Y0255963D01*
X0134101Y0257562D02*
X0134101Y0257562D01*
X0134101Y0257581D02*
X0134101Y0257581D01*
X0134101Y0259160D02*
X0134101Y0259160D01*
X0134101Y0260759D02*
X0134101Y0260759D01*
X0134073Y0262357D02*
X0137504Y0262357D01*
X0137504Y0260759D02*
X0135922Y0260759D01*
X0137402Y0259160D02*
X0137504Y0259160D01*
X0137504Y0255963D02*
X0137387Y0255963D01*
X0137504Y0254365D02*
X0135866Y0254365D01*
X0130816Y0255963D02*
X0127679Y0255963D01*
X0129277Y0257562D02*
X0130447Y0257562D01*
X0135671Y0263956D02*
X0137504Y0263956D01*
X0137504Y0265554D02*
X0137270Y0265554D01*
X0094111Y0209606D02*
X0093907Y0209606D01*
X0140167Y0177900D02*
X0140167Y0176734D01*
X0141683Y0176734D01*
X0141683Y0172280D01*
X0142642Y0172280D01*
X0142642Y0176734D01*
X0144982Y0176734D01*
X0145486Y0176599D01*
X0145893Y0176364D01*
X0146263Y0176734D01*
X0153022Y0176734D01*
X0154183Y0175573D01*
X0154183Y0168027D01*
X0153262Y0167106D01*
X0153553Y0166405D01*
X0153553Y0164951D01*
X0153492Y0164805D01*
X0157199Y0164805D01*
X0172790Y0180396D01*
X0171865Y0181321D01*
X0171140Y0183072D01*
X0171140Y0190528D01*
X0171808Y0192142D01*
X0169996Y0192142D01*
X0170664Y0190528D01*
X0170664Y0183072D01*
X0169939Y0181321D01*
X0168600Y0179982D01*
X0166849Y0179257D01*
X0164955Y0179257D01*
X0163205Y0179982D01*
X0161865Y0181321D01*
X0161140Y0183072D01*
X0161140Y0190528D01*
X0161808Y0192142D01*
X0159996Y0192142D01*
X0160664Y0190528D01*
X0160664Y0183072D01*
X0159939Y0181321D01*
X0158600Y0179982D01*
X0156849Y0179257D01*
X0154955Y0179257D01*
X0153205Y0179982D01*
X0151865Y0181321D01*
X0151140Y0183072D01*
X0151140Y0190528D01*
X0151808Y0192142D01*
X0149928Y0192142D01*
X0149975Y0192077D01*
X0150316Y0191409D01*
X0150547Y0190696D01*
X0150664Y0189956D01*
X0150664Y0186800D01*
X0145902Y0186800D01*
X0145902Y0186800D01*
X0145902Y0179257D01*
X0145527Y0179257D01*
X0144787Y0179374D01*
X0144074Y0179606D01*
X0143406Y0179946D01*
X0142800Y0180386D01*
X0142726Y0180460D01*
X0142005Y0179738D01*
X0140167Y0177900D01*
X0140167Y0177636D02*
X0157828Y0177636D01*
X0157743Y0177430D02*
X0157602Y0176724D01*
X0157602Y0176364D01*
X0157602Y0176004D01*
X0157743Y0175298D01*
X0158018Y0174633D01*
X0158418Y0174035D01*
X0158927Y0173526D01*
X0159525Y0173126D01*
X0160190Y0172850D01*
X0160896Y0172710D01*
X0161256Y0172710D01*
X0161256Y0176364D01*
X0157602Y0176364D01*
X0161256Y0176364D01*
X0161256Y0176364D01*
X0161256Y0176364D01*
X0161256Y0172710D01*
X0161616Y0172710D01*
X0162322Y0172850D01*
X0162987Y0173126D01*
X0163586Y0173526D01*
X0164095Y0174035D01*
X0164495Y0174633D01*
X0164770Y0175298D01*
X0164911Y0176004D01*
X0164911Y0176364D01*
X0161257Y0176364D01*
X0161257Y0176364D01*
X0164911Y0176364D01*
X0164911Y0176724D01*
X0164770Y0177430D01*
X0164495Y0178095D01*
X0164095Y0178694D01*
X0163586Y0179203D01*
X0162987Y0179603D01*
X0162322Y0179878D01*
X0161616Y0180019D01*
X0161256Y0180019D01*
X0160896Y0180019D01*
X0160190Y0179878D01*
X0159525Y0179603D01*
X0158927Y0179203D01*
X0158418Y0178694D01*
X0158018Y0178095D01*
X0157743Y0177430D01*
X0157602Y0176038D02*
X0153718Y0176038D01*
X0154183Y0174439D02*
X0158148Y0174439D01*
X0160239Y0172841D02*
X0154183Y0172841D01*
X0154183Y0171242D02*
X0163637Y0171242D01*
X0162274Y0172841D02*
X0165235Y0172841D01*
X0164365Y0174439D02*
X0166834Y0174439D01*
X0168432Y0176038D02*
X0164911Y0176038D01*
X0164685Y0177636D02*
X0170031Y0177636D01*
X0171629Y0179235D02*
X0163538Y0179235D01*
X0162353Y0180833D02*
X0159451Y0180833D01*
X0158975Y0179235D02*
X0141501Y0179235D01*
X0141683Y0176038D02*
X0142642Y0176038D01*
X0142642Y0174439D02*
X0141683Y0174439D01*
X0141683Y0172841D02*
X0142642Y0172841D01*
X0142642Y0171320D02*
X0142642Y0166866D01*
X0144982Y0166866D01*
X0145486Y0167001D01*
X0145893Y0167236D01*
X0146263Y0166866D01*
X0146435Y0166866D01*
X0146244Y0166405D01*
X0146244Y0164951D01*
X0146305Y0164805D01*
X0134945Y0164805D01*
X0137928Y0167787D01*
X0138018Y0167631D01*
X0138387Y0167262D01*
X0138838Y0167001D01*
X0139342Y0166866D01*
X0141683Y0166866D01*
X0141683Y0171320D01*
X0142642Y0171320D01*
X0142642Y0171242D02*
X0141683Y0171242D01*
X0141683Y0169644D02*
X0142642Y0169644D01*
X0142642Y0168045D02*
X0141683Y0168045D01*
X0146261Y0166447D02*
X0136587Y0166447D01*
X0134989Y0164848D02*
X0146287Y0164848D01*
X0153510Y0164848D02*
X0157243Y0164848D01*
X0158841Y0166447D02*
X0153535Y0166447D01*
X0154183Y0168045D02*
X0160440Y0168045D01*
X0162038Y0169644D02*
X0154183Y0169644D01*
X0161256Y0172841D02*
X0161256Y0172841D01*
X0161256Y0174439D02*
X0161256Y0174439D01*
X0161256Y0176038D02*
X0161256Y0176038D01*
X0161256Y0176364D02*
X0161256Y0180019D01*
X0161256Y0176364D01*
X0161256Y0176364D01*
X0161256Y0177636D02*
X0161256Y0177636D01*
X0161256Y0179235D02*
X0161256Y0179235D01*
X0161405Y0182432D02*
X0160399Y0182432D01*
X0160664Y0184030D02*
X0161140Y0184030D01*
X0161140Y0185629D02*
X0160664Y0185629D01*
X0160664Y0187227D02*
X0161140Y0187227D01*
X0161140Y0188826D02*
X0160664Y0188826D01*
X0160664Y0190424D02*
X0161140Y0190424D01*
X0161759Y0192023D02*
X0160045Y0192023D01*
X0151759Y0192023D02*
X0150003Y0192023D01*
X0150590Y0190424D02*
X0151140Y0190424D01*
X0151140Y0188826D02*
X0150664Y0188826D01*
X0150664Y0187227D02*
X0151140Y0187227D01*
X0150664Y0186800D02*
X0145902Y0186800D01*
X0145902Y0179257D01*
X0146277Y0179257D01*
X0147017Y0179374D01*
X0147730Y0179606D01*
X0148398Y0179946D01*
X0149005Y0180386D01*
X0149535Y0180917D01*
X0149975Y0181523D01*
X0150316Y0182191D01*
X0150547Y0182904D01*
X0150664Y0183644D01*
X0150664Y0186800D01*
X0150664Y0185629D02*
X0151140Y0185629D01*
X0151140Y0184030D02*
X0150664Y0184030D01*
X0150394Y0182432D02*
X0151405Y0182432D01*
X0152353Y0180833D02*
X0149451Y0180833D01*
X0145902Y0180833D02*
X0145902Y0180833D01*
X0145902Y0182432D02*
X0145902Y0182432D01*
X0145902Y0184030D02*
X0145902Y0184030D01*
X0145902Y0185629D02*
X0145902Y0185629D01*
X0145902Y0186800D02*
X0145902Y0186800D01*
X0169451Y0180833D02*
X0172353Y0180833D01*
X0171405Y0182432D02*
X0170399Y0182432D01*
X0170664Y0184030D02*
X0171140Y0184030D01*
X0171140Y0185629D02*
X0170664Y0185629D01*
X0170664Y0187227D02*
X0171140Y0187227D01*
X0171140Y0188826D02*
X0170664Y0188826D01*
X0170664Y0190424D02*
X0171140Y0190424D01*
X0171759Y0192023D02*
X0170045Y0192023D01*
X0182359Y0179738D02*
X0182904Y0180283D01*
X0183205Y0179982D01*
X0184955Y0179257D01*
X0186849Y0179257D01*
X0188600Y0179982D01*
X0189939Y0181321D01*
X0190664Y0183072D01*
X0190664Y0190528D01*
X0190404Y0191157D01*
X0191401Y0191157D01*
X0191140Y0190528D01*
X0191140Y0183072D01*
X0191865Y0181321D01*
X0193205Y0179982D01*
X0194955Y0179257D01*
X0196849Y0179257D01*
X0198600Y0179982D01*
X0199939Y0181321D01*
X0200664Y0183072D01*
X0200664Y0190528D01*
X0199939Y0192279D01*
X0198600Y0193618D01*
X0196931Y0194310D01*
X0198700Y0196079D01*
X0231611Y0196079D01*
X0232556Y0196470D01*
X0241414Y0205329D01*
X0242137Y0206052D01*
X0242529Y0206997D01*
X0242529Y0211548D01*
X0250386Y0203691D01*
X0250378Y0203684D01*
X0250378Y0196531D01*
X0251538Y0195370D01*
X0252724Y0195370D01*
X0252724Y0185121D01*
X0250183Y0182580D01*
X0246382Y0182580D01*
X0246382Y0183539D01*
X0250836Y0183539D01*
X0250836Y0185880D01*
X0250701Y0186384D01*
X0250466Y0186791D01*
X0250836Y0187160D01*
X0250836Y0193920D01*
X0249676Y0195080D01*
X0242129Y0195080D01*
X0240968Y0193920D01*
X0240968Y0190503D01*
X0228658Y0178193D01*
X0227935Y0177469D01*
X0227543Y0176524D01*
X0227543Y0171719D01*
X0227017Y0171193D01*
X0226460Y0169850D01*
X0226460Y0168396D01*
X0227017Y0167053D01*
X0228045Y0166025D01*
X0229388Y0165469D01*
X0230132Y0165469D01*
X0232622Y0162979D01*
X0232622Y0158027D01*
X0233782Y0156866D01*
X0236772Y0156866D01*
X0224943Y0145037D01*
X0224920Y0145037D01*
X0224311Y0145646D01*
X0222968Y0146202D01*
X0221514Y0146202D01*
X0220757Y0145889D01*
X0220757Y0146321D01*
X0219597Y0147482D01*
X0202208Y0147482D01*
X0201047Y0146321D01*
X0201047Y0144741D01*
X0197123Y0148665D01*
X0196178Y0149057D01*
X0194183Y0149057D01*
X0194183Y0149740D01*
X0194291Y0149785D01*
X0195319Y0150813D01*
X0195875Y0152156D01*
X0195875Y0153610D01*
X0195790Y0153816D01*
X0196413Y0154073D01*
X0197011Y0154473D01*
X0197520Y0154982D01*
X0197920Y0155581D01*
X0198196Y0156246D01*
X0198336Y0156952D01*
X0198336Y0157312D01*
X0198336Y0157672D01*
X0198196Y0158378D01*
X0197920Y0159043D01*
X0197520Y0159641D01*
X0197011Y0160150D01*
X0196413Y0160550D01*
X0195748Y0160826D01*
X0195042Y0160966D01*
X0194682Y0160966D01*
X0194682Y0157312D01*
X0198336Y0157312D01*
X0194682Y0157312D01*
X0194682Y0157312D01*
X0194682Y0157312D01*
X0194682Y0160966D01*
X0194322Y0160966D01*
X0193616Y0160826D01*
X0192951Y0160550D01*
X0192352Y0160150D01*
X0191843Y0159641D01*
X0191443Y0159043D01*
X0191168Y0158378D01*
X0191034Y0157706D01*
X0189480Y0159261D01*
X0188757Y0159984D01*
X0187811Y0160376D01*
X0185836Y0160376D01*
X0185836Y0161439D01*
X0185466Y0161809D01*
X0185701Y0162216D01*
X0185836Y0162720D01*
X0185836Y0165061D01*
X0181382Y0165061D01*
X0181382Y0166020D01*
X0180423Y0166020D01*
X0180423Y0170080D01*
X0177689Y0170080D01*
X0177185Y0169945D01*
X0176733Y0169684D01*
X0176364Y0169316D01*
X0176103Y0168864D01*
X0175968Y0168360D01*
X0175968Y0166020D01*
X0180423Y0166020D01*
X0180423Y0165061D01*
X0175968Y0165061D01*
X0175968Y0162720D01*
X0176103Y0162216D01*
X0176338Y0161809D01*
X0175968Y0161439D01*
X0175968Y0154680D01*
X0177129Y0153520D01*
X0179315Y0153520D01*
X0179315Y0151734D01*
X0178782Y0151734D01*
X0177622Y0150573D01*
X0177622Y0150457D01*
X0177200Y0150631D01*
X0175746Y0150631D01*
X0174403Y0150075D01*
X0173375Y0149047D01*
X0172819Y0147704D01*
X0172819Y0146250D01*
X0173375Y0144907D01*
X0174403Y0143879D01*
X0175746Y0143323D01*
X0176795Y0143323D01*
X0176295Y0142988D01*
X0175786Y0142479D01*
X0175386Y0141881D01*
X0175110Y0141216D01*
X0174970Y0140510D01*
X0174970Y0140150D01*
X0178624Y0140150D01*
X0178624Y0140150D01*
X0182278Y0140150D01*
X0182278Y0140510D01*
X0182138Y0141216D01*
X0181869Y0141866D01*
X0185542Y0141866D01*
X0185902Y0142227D01*
X0186263Y0141866D01*
X0193022Y0141866D01*
X0194183Y0143027D01*
X0194183Y0143913D01*
X0194601Y0143913D01*
X0198508Y0140006D01*
X0198508Y0138477D01*
X0198228Y0138756D01*
X0196885Y0139313D01*
X0195431Y0139313D01*
X0194088Y0138756D01*
X0193562Y0138230D01*
X0181736Y0138230D01*
X0181862Y0138419D01*
X0182138Y0139084D01*
X0182278Y0139790D01*
X0182278Y0140150D01*
X0178624Y0140150D01*
X0178624Y0140150D01*
X0174970Y0140150D01*
X0174970Y0139790D01*
X0174971Y0139785D01*
X0174676Y0140080D01*
X0167129Y0140080D01*
X0165968Y0138920D01*
X0165968Y0132160D01*
X0166329Y0131800D01*
X0165968Y0131439D01*
X0165968Y0124680D01*
X0167129Y0123520D01*
X0167580Y0123520D01*
X0167405Y0123098D01*
X0167405Y0122816D01*
X0167224Y0122891D01*
X0162944Y0122891D01*
X0148548Y0137288D01*
X0148677Y0137341D01*
X0149275Y0137741D01*
X0149784Y0138250D01*
X0150184Y0138849D01*
X0150459Y0139514D01*
X0150600Y0140220D01*
X0150600Y0140579D01*
X0146946Y0140579D01*
X0146946Y0140580D01*
X0146945Y0140580D01*
X0146945Y0144234D01*
X0146586Y0144234D01*
X0145880Y0144093D01*
X0145215Y0143818D01*
X0144773Y0143523D01*
X0144697Y0143599D01*
X0136263Y0152034D01*
X0136319Y0152001D01*
X0136823Y0151866D01*
X0139163Y0151866D01*
X0139163Y0156320D01*
X0140122Y0156320D01*
X0140122Y0151866D01*
X0142462Y0151866D01*
X0142966Y0152001D01*
X0143418Y0152262D01*
X0143787Y0152631D01*
X0144048Y0153083D01*
X0144183Y0153586D01*
X0144183Y0156320D01*
X0140122Y0156320D01*
X0140122Y0157280D01*
X0144183Y0157280D01*
X0144183Y0159661D01*
X0158776Y0159661D01*
X0159721Y0160053D01*
X0166926Y0167258D01*
X0167237Y0166793D01*
X0167746Y0166284D01*
X0168344Y0165884D01*
X0169010Y0165609D01*
X0169716Y0165469D01*
X0170075Y0165469D01*
X0170075Y0169123D01*
X0170076Y0169123D01*
X0173730Y0169123D01*
X0173730Y0169483D01*
X0173589Y0170189D01*
X0173314Y0170854D01*
X0172914Y0171452D01*
X0172405Y0171961D01*
X0171940Y0172272D01*
X0176062Y0176394D01*
X0178461Y0176394D01*
X0179406Y0176785D01*
X0182359Y0179738D01*
X0181856Y0179235D02*
X0229700Y0179235D01*
X0231299Y0180833D02*
X0209451Y0180833D01*
X0209939Y0181321D02*
X0210664Y0183072D01*
X0210664Y0190528D01*
X0209939Y0192279D01*
X0208600Y0193618D01*
X0206849Y0194343D01*
X0204955Y0194343D01*
X0203205Y0193618D01*
X0201865Y0192279D01*
X0201140Y0190528D01*
X0201140Y0183072D01*
X0201865Y0181321D01*
X0203205Y0179982D01*
X0204955Y0179257D01*
X0206849Y0179257D01*
X0208600Y0179982D01*
X0209939Y0181321D01*
X0210399Y0182432D02*
X0232897Y0182432D01*
X0234496Y0184030D02*
X0210664Y0184030D01*
X0210664Y0185629D02*
X0236094Y0185629D01*
X0237693Y0187227D02*
X0210664Y0187227D01*
X0210664Y0188826D02*
X0239291Y0188826D01*
X0240890Y0190424D02*
X0210664Y0190424D01*
X0210045Y0192023D02*
X0240968Y0192023D01*
X0240968Y0193621D02*
X0208592Y0193621D01*
X0203212Y0193621D02*
X0198592Y0193621D01*
X0197841Y0195220D02*
X0252724Y0195220D01*
X0252724Y0193621D02*
X0250836Y0193621D01*
X0250836Y0192023D02*
X0252724Y0192023D01*
X0252724Y0190424D02*
X0250836Y0190424D01*
X0250836Y0188826D02*
X0252724Y0188826D01*
X0252724Y0187227D02*
X0250836Y0187227D01*
X0250836Y0185629D02*
X0252724Y0185629D01*
X0251633Y0184030D02*
X0250836Y0184030D01*
X0246382Y0182580D02*
X0246382Y0178779D01*
X0242411Y0174808D01*
X0242425Y0174876D01*
X0242425Y0175236D01*
X0242425Y0175596D01*
X0242284Y0176302D01*
X0242009Y0176967D01*
X0241609Y0177566D01*
X0241100Y0178075D01*
X0240501Y0178474D01*
X0239836Y0178750D01*
X0239130Y0178890D01*
X0238770Y0178890D01*
X0238410Y0178890D01*
X0237704Y0178750D01*
X0237039Y0178474D01*
X0236441Y0178075D01*
X0235932Y0177566D01*
X0235532Y0176967D01*
X0235256Y0176302D01*
X0235116Y0175596D01*
X0235116Y0175236D01*
X0235116Y0174876D01*
X0235256Y0174170D01*
X0235532Y0173505D01*
X0235932Y0172907D01*
X0236441Y0172398D01*
X0237039Y0171998D01*
X0237704Y0171722D01*
X0238410Y0171582D01*
X0238770Y0171582D01*
X0238770Y0175236D01*
X0235116Y0175236D01*
X0238770Y0175236D01*
X0238770Y0175236D01*
X0238770Y0175236D01*
X0238770Y0178890D01*
X0238770Y0175236D01*
X0238770Y0175236D01*
X0238770Y0171582D01*
X0239130Y0171582D01*
X0239836Y0171722D01*
X0240501Y0171998D01*
X0241100Y0172398D01*
X0241609Y0172907D01*
X0241898Y0173339D01*
X0241898Y0166734D01*
X0241263Y0166734D01*
X0240902Y0166373D01*
X0240542Y0166734D01*
X0236141Y0166734D01*
X0233769Y0169105D01*
X0233769Y0169850D01*
X0233213Y0171193D01*
X0232686Y0171719D01*
X0232686Y0174947D01*
X0241278Y0183539D01*
X0245423Y0183539D01*
X0245423Y0182580D01*
X0246382Y0182580D01*
X0246382Y0182432D02*
X0245423Y0182432D01*
X0245423Y0182580D02*
X0245423Y0178520D01*
X0242689Y0178520D01*
X0242185Y0178655D01*
X0241733Y0178916D01*
X0241364Y0179284D01*
X0241103Y0179736D01*
X0240968Y0180240D01*
X0240968Y0182580D01*
X0245423Y0182580D01*
X0245423Y0180833D02*
X0246382Y0180833D01*
X0246382Y0179235D02*
X0245423Y0179235D01*
X0245239Y0177636D02*
X0241538Y0177636D01*
X0241414Y0179235D02*
X0236974Y0179235D01*
X0236002Y0177636D02*
X0235375Y0177636D01*
X0235204Y0176038D02*
X0233777Y0176038D01*
X0232686Y0174439D02*
X0235203Y0174439D01*
X0235997Y0172841D02*
X0232686Y0172841D01*
X0233163Y0171242D02*
X0241898Y0171242D01*
X0241898Y0169644D02*
X0233769Y0169644D01*
X0234829Y0168045D02*
X0241898Y0168045D01*
X0240976Y0166447D02*
X0240829Y0166447D01*
X0232351Y0163250D02*
X0220757Y0163250D01*
X0220757Y0164848D02*
X0230753Y0164848D01*
X0227623Y0166447D02*
X0220317Y0166447D01*
X0220151Y0166613D02*
X0220482Y0167412D01*
X0220482Y0168865D01*
X0219925Y0170209D01*
X0218897Y0171237D01*
X0217554Y0171793D01*
X0216101Y0171793D01*
X0214757Y0171237D01*
X0213729Y0170209D01*
X0213173Y0168865D01*
X0213173Y0168700D01*
X0211640Y0167167D01*
X0202208Y0167167D01*
X0201047Y0166006D01*
X0201047Y0157279D01*
X0202208Y0156118D01*
X0219597Y0156118D01*
X0220757Y0157279D01*
X0220757Y0166006D01*
X0220151Y0166613D01*
X0220482Y0168045D02*
X0226606Y0168045D01*
X0226460Y0169644D02*
X0220159Y0169644D01*
X0218884Y0171242D02*
X0227066Y0171242D01*
X0227543Y0172841D02*
X0172509Y0172841D01*
X0173054Y0171242D02*
X0214771Y0171242D01*
X0213495Y0169644D02*
X0185112Y0169644D01*
X0185071Y0169684D02*
X0184620Y0169945D01*
X0184116Y0170080D01*
X0181382Y0170080D01*
X0181382Y0166020D01*
X0185836Y0166020D01*
X0185836Y0168360D01*
X0185701Y0168864D01*
X0185440Y0169316D01*
X0185071Y0169684D01*
X0185836Y0168045D02*
X0212518Y0168045D01*
X0220757Y0161651D02*
X0232622Y0161651D01*
X0232622Y0160053D02*
X0220757Y0160053D01*
X0220757Y0158454D02*
X0232622Y0158454D01*
X0235163Y0155257D02*
X0197704Y0155257D01*
X0198317Y0156856D02*
X0201470Y0156856D01*
X0201047Y0158454D02*
X0198164Y0158454D01*
X0197109Y0160053D02*
X0201047Y0160053D01*
X0201047Y0161651D02*
X0185624Y0161651D01*
X0185836Y0163250D02*
X0201047Y0163250D01*
X0201047Y0164848D02*
X0185836Y0164848D01*
X0185836Y0166447D02*
X0201487Y0166447D01*
X0194682Y0160053D02*
X0194682Y0160053D01*
X0194682Y0158454D02*
X0194682Y0158454D01*
X0192255Y0160053D02*
X0188591Y0160053D01*
X0190287Y0158454D02*
X0191199Y0158454D01*
X0195855Y0153659D02*
X0233565Y0153659D01*
X0231966Y0152060D02*
X0195836Y0152060D01*
X0194968Y0150462D02*
X0230368Y0150462D01*
X0228769Y0148863D02*
X0196645Y0148863D01*
X0198523Y0147265D02*
X0201990Y0147265D01*
X0201047Y0145666D02*
X0200122Y0145666D01*
X0196045Y0142469D02*
X0193625Y0142469D01*
X0195333Y0139272D02*
X0182175Y0139272D01*
X0182207Y0140870D02*
X0197644Y0140870D01*
X0196983Y0139272D02*
X0198508Y0139272D01*
X0202859Y0134071D02*
X0224128Y0134071D01*
X0238761Y0119438D01*
X0239485Y0118714D01*
X0240430Y0118323D01*
X0243422Y0118323D01*
X0244367Y0118714D01*
X0244960Y0119307D01*
X0248748Y0119307D01*
X0248506Y0119066D01*
X0248106Y0118467D01*
X0247831Y0117802D01*
X0247690Y0117096D01*
X0247690Y0116736D01*
X0247690Y0116376D01*
X0247831Y0115670D01*
X0248106Y0115005D01*
X0248506Y0114407D01*
X0249015Y0113898D01*
X0249614Y0113498D01*
X0250279Y0113222D01*
X0250985Y0113082D01*
X0251345Y0113082D01*
X0251704Y0113082D01*
X0252410Y0113222D01*
X0253076Y0113498D01*
X0253674Y0113898D01*
X0254183Y0114407D01*
X0254583Y0115005D01*
X0254858Y0115670D01*
X0254999Y0116376D01*
X0254999Y0116736D01*
X0251345Y0116736D01*
X0254999Y0116736D01*
X0254999Y0117096D01*
X0254858Y0117802D01*
X0254583Y0118467D01*
X0254183Y0119066D01*
X0253941Y0119307D01*
X0260154Y0119307D01*
X0261099Y0119699D01*
X0261692Y0120291D01*
X0265904Y0120291D01*
X0266431Y0119765D01*
X0267308Y0119402D01*
X0266550Y0118643D01*
X0265805Y0118643D01*
X0264462Y0118087D01*
X0263434Y0117059D01*
X0262878Y0115716D01*
X0262878Y0114262D01*
X0262979Y0114017D01*
X0262326Y0114017D01*
X0261165Y0112857D01*
X0261165Y0106734D01*
X0260708Y0106734D01*
X0258870Y0108572D01*
X0258146Y0109295D01*
X0257201Y0109687D01*
X0248431Y0109687D01*
X0248533Y0110200D01*
X0248533Y0110560D01*
X0248533Y0110920D01*
X0248392Y0111626D01*
X0248117Y0112291D01*
X0247717Y0112889D01*
X0247208Y0113398D01*
X0246610Y0113798D01*
X0245945Y0114074D01*
X0245239Y0114214D01*
X0244879Y0114214D01*
X0244879Y0110560D01*
X0248533Y0110560D01*
X0244879Y0110560D01*
X0244879Y0110560D01*
X0244879Y0110560D01*
X0244879Y0114214D01*
X0244519Y0114214D01*
X0243813Y0114074D01*
X0243148Y0113798D01*
X0242549Y0113398D01*
X0242040Y0112889D01*
X0241640Y0112291D01*
X0241365Y0111626D01*
X0241224Y0110920D01*
X0241224Y0110560D01*
X0244878Y0110560D01*
X0244878Y0110560D01*
X0241224Y0110560D01*
X0241224Y0110200D01*
X0241326Y0109687D01*
X0226879Y0109687D01*
X0226879Y0110795D01*
X0226323Y0112138D01*
X0225295Y0113166D01*
X0223952Y0113722D01*
X0223208Y0113722D01*
X0202859Y0134071D01*
X0204052Y0132878D02*
X0225321Y0132878D01*
X0226920Y0131279D02*
X0205650Y0131279D01*
X0207249Y0129681D02*
X0228518Y0129681D01*
X0230117Y0128082D02*
X0208847Y0128082D01*
X0210446Y0126484D02*
X0231715Y0126484D01*
X0233314Y0124885D02*
X0212044Y0124885D01*
X0213643Y0123287D02*
X0234912Y0123287D01*
X0236511Y0121688D02*
X0215241Y0121688D01*
X0216840Y0120090D02*
X0238109Y0120090D01*
X0240023Y0118491D02*
X0218438Y0118491D01*
X0220037Y0116893D02*
X0247690Y0116893D01*
X0247690Y0116736D02*
X0251344Y0116736D01*
X0247690Y0116736D01*
X0247986Y0115294D02*
X0221635Y0115294D01*
X0224015Y0113696D02*
X0242994Y0113696D01*
X0244879Y0113696D02*
X0244879Y0113696D01*
X0244879Y0112097D02*
X0244879Y0112097D01*
X0246763Y0113696D02*
X0249317Y0113696D01*
X0248197Y0112097D02*
X0261165Y0112097D01*
X0261165Y0110499D02*
X0248533Y0110499D01*
X0251345Y0113082D02*
X0251345Y0116736D01*
X0251345Y0116736D01*
X0251345Y0113082D01*
X0251345Y0113696D02*
X0251345Y0113696D01*
X0251345Y0115294D02*
X0251345Y0115294D01*
X0251345Y0116736D02*
X0251345Y0116736D01*
X0251344Y0116736D02*
X0251344Y0116736D01*
X0253372Y0113696D02*
X0262004Y0113696D01*
X0262878Y0115294D02*
X0254703Y0115294D01*
X0254999Y0116893D02*
X0263365Y0116893D01*
X0265438Y0118491D02*
X0254567Y0118491D01*
X0248122Y0118491D02*
X0243828Y0118491D01*
X0241560Y0112097D02*
X0226340Y0112097D01*
X0226879Y0110499D02*
X0241224Y0110499D01*
X0258541Y0108900D02*
X0261165Y0108900D01*
X0261165Y0107302D02*
X0260140Y0107302D01*
X0261490Y0120090D02*
X0266106Y0120090D01*
X0260115Y0125435D02*
X0259170Y0125043D01*
X0258577Y0124450D01*
X0250606Y0124450D01*
X0250836Y0124680D01*
X0250836Y0125705D01*
X0255233Y0125705D01*
X0255471Y0125606D01*
X0256924Y0125606D01*
X0258268Y0126163D01*
X0259295Y0127191D01*
X0259852Y0128534D01*
X0259852Y0129988D01*
X0259295Y0131331D01*
X0258268Y0132359D01*
X0256924Y0132915D01*
X0255471Y0132915D01*
X0254127Y0132359D01*
X0253100Y0131331D01*
X0252900Y0130848D01*
X0250836Y0130848D01*
X0250836Y0131439D01*
X0250476Y0131800D01*
X0250836Y0132160D01*
X0250836Y0138920D01*
X0249676Y0140080D01*
X0249419Y0140080D01*
X0249419Y0149357D01*
X0260968Y0160906D01*
X0260968Y0157160D01*
X0261338Y0156791D01*
X0261103Y0156384D01*
X0260968Y0155880D01*
X0260968Y0153539D01*
X0265423Y0153539D01*
X0265423Y0152580D01*
X0266382Y0152580D01*
X0266382Y0153539D01*
X0270836Y0153539D01*
X0270836Y0155880D01*
X0270701Y0156384D01*
X0270560Y0156627D01*
X0271353Y0156299D01*
X0283236Y0156299D01*
X0283236Y0146703D01*
X0283119Y0146587D01*
X0282563Y0145243D01*
X0282563Y0144135D01*
X0275034Y0144135D01*
X0274508Y0144662D01*
X0273165Y0145218D01*
X0272072Y0145218D01*
X0272155Y0145633D01*
X0272155Y0145993D01*
X0272155Y0146353D01*
X0272015Y0147059D01*
X0271739Y0147724D01*
X0271339Y0148322D01*
X0270830Y0148831D01*
X0270325Y0149169D01*
X0270440Y0149284D01*
X0270701Y0149736D01*
X0270836Y0150240D01*
X0270836Y0152580D01*
X0266382Y0152580D01*
X0266382Y0148972D01*
X0266171Y0148831D01*
X0265662Y0148322D01*
X0265262Y0147724D01*
X0264987Y0147059D01*
X0264846Y0146353D01*
X0264846Y0145993D01*
X0268501Y0145993D01*
X0272155Y0145993D01*
X0268501Y0145993D01*
X0268501Y0145993D01*
X0268501Y0145993D01*
X0264846Y0145993D01*
X0264846Y0145633D01*
X0264956Y0145080D01*
X0262129Y0145080D01*
X0260968Y0143920D01*
X0260968Y0137160D01*
X0261329Y0136800D01*
X0260968Y0136439D01*
X0260968Y0129680D01*
X0262129Y0128520D01*
X0266097Y0128520D01*
X0266815Y0127802D01*
X0266815Y0127057D01*
X0267146Y0126257D01*
X0266431Y0125961D01*
X0265904Y0125435D01*
X0260115Y0125435D01*
X0259012Y0124885D02*
X0250836Y0124885D01*
X0258589Y0126484D02*
X0267052Y0126484D01*
X0266534Y0128082D02*
X0259665Y0128082D01*
X0259852Y0129681D02*
X0260968Y0129681D01*
X0260968Y0131279D02*
X0259317Y0131279D01*
X0260968Y0132878D02*
X0257014Y0132878D01*
X0255381Y0132878D02*
X0250836Y0132878D01*
X0250836Y0134476D02*
X0260968Y0134476D01*
X0260968Y0136075D02*
X0250836Y0136075D01*
X0250836Y0137673D02*
X0260968Y0137673D01*
X0260968Y0139272D02*
X0250484Y0139272D01*
X0249419Y0140870D02*
X0260968Y0140870D01*
X0260968Y0142469D02*
X0249419Y0142469D01*
X0249419Y0144068D02*
X0252880Y0144068D01*
X0252892Y0144059D02*
X0253557Y0143784D01*
X0254263Y0143643D01*
X0254623Y0143643D01*
X0254983Y0143643D01*
X0255689Y0143784D01*
X0256354Y0144059D01*
X0256952Y0144459D01*
X0257462Y0144968D01*
X0257861Y0145567D01*
X0258137Y0146232D01*
X0258277Y0146938D01*
X0258277Y0147298D01*
X0258277Y0147658D01*
X0258137Y0148364D01*
X0257861Y0149029D01*
X0257462Y0149627D01*
X0256952Y0150136D01*
X0256354Y0150536D01*
X0255689Y0150812D01*
X0254983Y0150952D01*
X0254623Y0150952D01*
X0254263Y0150952D01*
X0253557Y0150812D01*
X0252892Y0150536D01*
X0252294Y0150136D01*
X0251784Y0149627D01*
X0251385Y0149029D01*
X0251109Y0148364D01*
X0250969Y0147658D01*
X0250969Y0147298D01*
X0254623Y0147298D01*
X0254623Y0150952D01*
X0254623Y0147298D01*
X0254623Y0147298D01*
X0254623Y0147298D01*
X0258277Y0147298D01*
X0254623Y0147298D01*
X0254623Y0147298D01*
X0250969Y0147298D01*
X0250969Y0146938D01*
X0251109Y0146232D01*
X0251385Y0145567D01*
X0251784Y0144968D01*
X0252294Y0144459D01*
X0252892Y0144059D01*
X0254623Y0144068D02*
X0254623Y0144068D01*
X0254623Y0143643D02*
X0254623Y0147298D01*
X0254623Y0147298D01*
X0254623Y0143643D01*
X0256366Y0144068D02*
X0261116Y0144068D01*
X0257903Y0145666D02*
X0264846Y0145666D01*
X0265072Y0147265D02*
X0258277Y0147265D01*
X0257930Y0148863D02*
X0261824Y0148863D01*
X0261733Y0148916D02*
X0262185Y0148655D01*
X0262689Y0148520D01*
X0265423Y0148520D01*
X0265423Y0152580D01*
X0260968Y0152580D01*
X0260968Y0150240D01*
X0261103Y0149736D01*
X0261364Y0149284D01*
X0261733Y0148916D01*
X0260968Y0150462D02*
X0256465Y0150462D01*
X0254623Y0150462D02*
X0254623Y0150462D01*
X0254623Y0148863D02*
X0254623Y0148863D01*
X0254623Y0147265D02*
X0254623Y0147265D01*
X0254623Y0145666D02*
X0254623Y0145666D01*
X0251343Y0145666D02*
X0249419Y0145666D01*
X0249419Y0147265D02*
X0250969Y0147265D01*
X0251316Y0148863D02*
X0249419Y0148863D01*
X0250523Y0150462D02*
X0252781Y0150462D01*
X0252122Y0152060D02*
X0260968Y0152060D01*
X0260968Y0153659D02*
X0253720Y0153659D01*
X0255319Y0155257D02*
X0260968Y0155257D01*
X0261273Y0156856D02*
X0256918Y0156856D01*
X0258516Y0158454D02*
X0260968Y0158454D01*
X0260968Y0160053D02*
X0260115Y0160053D01*
X0256038Y0163250D02*
X0249183Y0163250D01*
X0249183Y0164848D02*
X0257636Y0164848D01*
X0256739Y0166236D02*
X0257248Y0166745D01*
X0257648Y0167344D01*
X0257924Y0168009D01*
X0258064Y0168715D01*
X0258064Y0169075D01*
X0258064Y0169435D01*
X0257924Y0170141D01*
X0257648Y0170806D01*
X0257248Y0171404D01*
X0256739Y0171913D01*
X0256141Y0172313D01*
X0255476Y0172589D01*
X0254770Y0172729D01*
X0254410Y0172729D01*
X0254410Y0169075D01*
X0258064Y0169075D01*
X0254410Y0169075D01*
X0254410Y0169075D01*
X0254410Y0169075D01*
X0254410Y0172729D01*
X0254050Y0172729D01*
X0253344Y0172589D01*
X0252679Y0172313D01*
X0252080Y0171913D01*
X0251571Y0171404D01*
X0251171Y0170806D01*
X0250896Y0170141D01*
X0250755Y0169435D01*
X0250755Y0169075D01*
X0254410Y0169075D01*
X0254410Y0165421D01*
X0254770Y0165421D01*
X0255476Y0165561D01*
X0256141Y0165836D01*
X0256739Y0166236D01*
X0256950Y0166447D02*
X0259235Y0166447D01*
X0257931Y0168045D02*
X0260833Y0168045D01*
X0262432Y0169644D02*
X0258023Y0169644D01*
X0257357Y0171242D02*
X0260712Y0171242D01*
X0260774Y0171135D02*
X0261142Y0170766D01*
X0261594Y0170505D01*
X0262098Y0170370D01*
X0263158Y0170370D01*
X0244667Y0151879D01*
X0244275Y0150934D01*
X0244275Y0140080D01*
X0242129Y0140080D01*
X0240968Y0138920D01*
X0240968Y0132160D01*
X0241329Y0131800D01*
X0240968Y0131439D01*
X0240968Y0124680D01*
X0242014Y0123635D01*
X0241926Y0123547D01*
X0226650Y0138823D01*
X0226042Y0139075D01*
X0226771Y0139075D01*
X0227866Y0139529D01*
X0228705Y0140367D01*
X0245204Y0156866D01*
X0248022Y0156866D01*
X0249183Y0158027D01*
X0249183Y0165573D01*
X0248022Y0166734D01*
X0247860Y0166734D01*
X0247860Y0171825D01*
X0253398Y0177363D01*
X0253592Y0176895D01*
X0254620Y0175867D01*
X0255963Y0175311D01*
X0257417Y0175311D01*
X0258760Y0175867D01*
X0259788Y0176895D01*
X0260344Y0178238D01*
X0260344Y0178404D01*
X0260493Y0178552D01*
X0260378Y0178124D01*
X0260378Y0175685D01*
X0265324Y0175685D01*
X0265324Y0174529D01*
X0260378Y0174529D01*
X0260378Y0172090D01*
X0260513Y0171586D01*
X0260774Y0171135D01*
X0260378Y0172841D02*
X0248875Y0172841D01*
X0247860Y0171242D02*
X0251463Y0171242D01*
X0250797Y0169644D02*
X0247860Y0169644D01*
X0247860Y0168045D02*
X0250889Y0168045D01*
X0250896Y0168009D02*
X0251171Y0167344D01*
X0251571Y0166745D01*
X0252080Y0166236D01*
X0252679Y0165836D01*
X0253344Y0165561D01*
X0254050Y0165421D01*
X0254410Y0165421D01*
X0254410Y0169075D01*
X0254410Y0169075D01*
X0254410Y0169075D01*
X0250755Y0169075D01*
X0250755Y0168715D01*
X0250896Y0168009D01*
X0251870Y0166447D02*
X0248309Y0166447D01*
X0249183Y0161651D02*
X0254439Y0161651D01*
X0252841Y0160053D02*
X0249183Y0160053D01*
X0249183Y0158454D02*
X0251242Y0158454D01*
X0249644Y0156856D02*
X0245193Y0156856D01*
X0243595Y0155257D02*
X0248045Y0155257D01*
X0246447Y0153659D02*
X0241996Y0153659D01*
X0240398Y0152060D02*
X0244848Y0152060D01*
X0244275Y0150462D02*
X0238799Y0150462D01*
X0237201Y0148863D02*
X0244275Y0148863D01*
X0244275Y0147265D02*
X0235602Y0147265D01*
X0234004Y0145666D02*
X0244275Y0145666D01*
X0244275Y0144068D02*
X0232405Y0144068D01*
X0230807Y0142469D02*
X0244275Y0142469D01*
X0244275Y0140870D02*
X0229208Y0140870D01*
X0227247Y0139272D02*
X0241321Y0139272D01*
X0240968Y0137673D02*
X0227799Y0137673D01*
X0229398Y0136075D02*
X0240968Y0136075D01*
X0240968Y0134476D02*
X0230996Y0134476D01*
X0232595Y0132878D02*
X0240968Y0132878D01*
X0240968Y0131279D02*
X0234194Y0131279D01*
X0235792Y0129681D02*
X0240968Y0129681D01*
X0240968Y0128082D02*
X0237391Y0128082D01*
X0238989Y0126484D02*
X0240968Y0126484D01*
X0240968Y0124885D02*
X0240588Y0124885D01*
X0250836Y0131279D02*
X0253078Y0131279D01*
X0272155Y0145666D02*
X0282738Y0145666D01*
X0283236Y0147265D02*
X0271929Y0147265D01*
X0270783Y0148863D02*
X0283236Y0148863D01*
X0283236Y0150462D02*
X0270836Y0150462D01*
X0270836Y0152060D02*
X0283236Y0152060D01*
X0283236Y0153659D02*
X0270836Y0153659D01*
X0270836Y0155257D02*
X0283236Y0155257D01*
X0266382Y0152060D02*
X0265423Y0152060D01*
X0265423Y0150462D02*
X0266382Y0150462D01*
X0266219Y0148863D02*
X0265423Y0148863D01*
X0254410Y0166447D02*
X0254410Y0166447D01*
X0254410Y0168045D02*
X0254410Y0168045D01*
X0254410Y0169644D02*
X0254410Y0169644D01*
X0254410Y0171242D02*
X0254410Y0171242D01*
X0250474Y0174439D02*
X0260378Y0174439D01*
X0260378Y0176038D02*
X0258930Y0176038D01*
X0260095Y0177636D02*
X0260378Y0177636D01*
X0261669Y0179729D02*
X0265696Y0183756D01*
X0270266Y0183756D01*
X0271427Y0184916D01*
X0271427Y0192069D01*
X0270684Y0192812D01*
X0271171Y0193986D01*
X0271171Y0195440D01*
X0270614Y0196783D01*
X0269586Y0197811D01*
X0268243Y0198368D01*
X0266789Y0198368D01*
X0265446Y0197811D01*
X0264920Y0197285D01*
X0261427Y0197285D01*
X0261427Y0199606D01*
X0267298Y0199606D01*
X0267415Y0199489D01*
X0268758Y0198933D01*
X0270212Y0198933D01*
X0271555Y0199489D01*
X0272583Y0200517D01*
X0273139Y0201860D01*
X0273139Y0203170D01*
X0286517Y0189792D01*
X0283474Y0186749D01*
X0283664Y0187208D01*
X0283805Y0187914D01*
X0283805Y0188274D01*
X0280151Y0188274D01*
X0280151Y0188274D01*
X0283805Y0188274D01*
X0283805Y0188634D01*
X0283664Y0189340D01*
X0283389Y0190005D01*
X0282989Y0190604D01*
X0282480Y0191113D01*
X0281881Y0191512D01*
X0281216Y0191788D01*
X0280510Y0191928D01*
X0280151Y0191928D01*
X0280151Y0188274D01*
X0280151Y0184620D01*
X0280510Y0184620D01*
X0281216Y0184760D01*
X0281676Y0184950D01*
X0271254Y0174529D01*
X0266480Y0174529D01*
X0266480Y0175685D01*
X0265324Y0175685D01*
X0265324Y0179844D01*
X0262098Y0179844D01*
X0261669Y0179729D01*
X0262773Y0180833D02*
X0277558Y0180833D01*
X0275960Y0179235D02*
X0270875Y0179235D01*
X0271031Y0179079D02*
X0270662Y0179448D01*
X0270210Y0179709D01*
X0269706Y0179844D01*
X0266480Y0179844D01*
X0266480Y0175685D01*
X0271427Y0175685D01*
X0271427Y0178124D01*
X0271292Y0178628D01*
X0271031Y0179079D01*
X0271427Y0177636D02*
X0274361Y0177636D01*
X0272763Y0176038D02*
X0271427Y0176038D01*
X0266480Y0176038D02*
X0265324Y0176038D01*
X0265324Y0177636D02*
X0266480Y0177636D01*
X0266480Y0179235D02*
X0265324Y0179235D01*
X0264372Y0182432D02*
X0279157Y0182432D01*
X0280755Y0184030D02*
X0270541Y0184030D01*
X0271427Y0185629D02*
X0277628Y0185629D01*
X0277821Y0185436D02*
X0278420Y0185036D01*
X0279085Y0184760D01*
X0279791Y0184620D01*
X0280150Y0184620D01*
X0280150Y0188274D01*
X0276496Y0188274D01*
X0276496Y0187914D01*
X0276637Y0187208D01*
X0276912Y0186543D01*
X0277312Y0185945D01*
X0277821Y0185436D01*
X0276633Y0187227D02*
X0271427Y0187227D01*
X0271427Y0188826D02*
X0276534Y0188826D01*
X0276496Y0188634D02*
X0276496Y0188274D01*
X0280150Y0188274D01*
X0280150Y0188274D01*
X0280151Y0188274D01*
X0280150Y0188274D01*
X0280150Y0191928D01*
X0279791Y0191928D01*
X0279085Y0191788D01*
X0278420Y0191512D01*
X0277821Y0191113D01*
X0277312Y0190604D01*
X0276912Y0190005D01*
X0276637Y0189340D01*
X0276496Y0188634D01*
X0277192Y0190424D02*
X0271427Y0190424D01*
X0271427Y0192023D02*
X0284287Y0192023D01*
X0283109Y0190424D02*
X0285885Y0190424D01*
X0285551Y0188826D02*
X0283767Y0188826D01*
X0283668Y0187227D02*
X0283953Y0187227D01*
X0280151Y0187227D02*
X0280150Y0187227D01*
X0280150Y0185629D02*
X0280151Y0185629D01*
X0280150Y0188826D02*
X0280151Y0188826D01*
X0280150Y0190424D02*
X0280151Y0190424D01*
X0282688Y0193621D02*
X0271019Y0193621D01*
X0271171Y0195220D02*
X0281090Y0195220D01*
X0279491Y0196818D02*
X0270579Y0196818D01*
X0272081Y0200015D02*
X0276294Y0200015D01*
X0277893Y0198417D02*
X0261427Y0198417D01*
X0250378Y0198417D02*
X0247539Y0198417D01*
X0247616Y0198449D02*
X0248215Y0198849D01*
X0248724Y0199358D01*
X0249124Y0199956D01*
X0249399Y0200621D01*
X0249540Y0201327D01*
X0249540Y0201687D01*
X0245885Y0201687D01*
X0242231Y0201687D01*
X0242231Y0201327D01*
X0242371Y0200621D01*
X0242647Y0199956D01*
X0243047Y0199358D01*
X0243556Y0198849D01*
X0244154Y0198449D01*
X0244819Y0198173D01*
X0245525Y0198033D01*
X0245885Y0198033D01*
X0245885Y0201687D01*
X0245885Y0201687D01*
X0245885Y0201687D01*
X0242231Y0201687D01*
X0242231Y0202047D01*
X0242371Y0202753D01*
X0242647Y0203418D01*
X0243047Y0204017D01*
X0243556Y0204526D01*
X0244154Y0204926D01*
X0244819Y0205201D01*
X0245525Y0205342D01*
X0245885Y0205342D01*
X0245885Y0201687D01*
X0245885Y0198033D01*
X0246245Y0198033D01*
X0246951Y0198173D01*
X0247616Y0198449D01*
X0245885Y0198417D02*
X0245885Y0198417D01*
X0245885Y0200015D02*
X0245885Y0200015D01*
X0245885Y0201614D02*
X0245885Y0201614D01*
X0245885Y0201687D02*
X0245885Y0201687D01*
X0245885Y0201687D01*
X0245885Y0205342D01*
X0246245Y0205342D01*
X0246951Y0205201D01*
X0247616Y0204926D01*
X0248215Y0204526D01*
X0248724Y0204017D01*
X0249124Y0203418D01*
X0249399Y0202753D01*
X0249540Y0202047D01*
X0249540Y0201687D01*
X0245885Y0201687D01*
X0245885Y0203212D02*
X0245885Y0203212D01*
X0245885Y0204811D02*
X0245885Y0204811D01*
X0243983Y0204811D02*
X0240896Y0204811D01*
X0242286Y0206409D02*
X0247667Y0206409D01*
X0247788Y0204811D02*
X0249266Y0204811D01*
X0249209Y0203212D02*
X0250378Y0203212D01*
X0250378Y0201614D02*
X0249540Y0201614D01*
X0249148Y0200015D02*
X0250378Y0200015D01*
X0250378Y0196818D02*
X0232904Y0196818D01*
X0234502Y0198417D02*
X0244231Y0198417D01*
X0242622Y0200015D02*
X0236101Y0200015D01*
X0237699Y0201614D02*
X0242231Y0201614D01*
X0242562Y0203212D02*
X0239298Y0203212D01*
X0242529Y0208008D02*
X0246069Y0208008D01*
X0244470Y0209606D02*
X0242529Y0209606D01*
X0242529Y0211205D02*
X0242872Y0211205D01*
X0273037Y0201614D02*
X0274696Y0201614D01*
X0306505Y0201614D02*
X0309582Y0201614D01*
X0309738Y0201458D02*
X0311081Y0200902D01*
X0312535Y0200902D01*
X0313173Y0201166D01*
X0313173Y0196763D01*
X0311541Y0195131D01*
X0311244Y0195575D01*
X0310735Y0196084D01*
X0310137Y0196484D01*
X0309472Y0196759D01*
X0308766Y0196900D01*
X0308406Y0196900D01*
X0308406Y0193245D01*
X0308406Y0193245D01*
X0308406Y0196900D01*
X0308046Y0196900D01*
X0307340Y0196759D01*
X0306675Y0196484D01*
X0306505Y0196370D01*
X0306505Y0205103D01*
X0306805Y0204979D01*
X0307511Y0204839D01*
X0307871Y0204839D01*
X0308153Y0204839D01*
X0308153Y0203829D01*
X0308710Y0202486D01*
X0309738Y0201458D01*
X0308409Y0203212D02*
X0306505Y0203212D01*
X0306505Y0204811D02*
X0308153Y0204811D01*
X0307871Y0204839D02*
X0307871Y0208493D01*
X0307871Y0208493D01*
X0307871Y0204839D01*
X0307871Y0206409D02*
X0307871Y0206409D01*
X0307871Y0208008D02*
X0307871Y0208008D01*
X0306505Y0211883D02*
X0306505Y0223768D01*
X0306114Y0224713D01*
X0268833Y0261994D01*
X0269202Y0262884D01*
X0269202Y0264338D01*
X0268646Y0265681D01*
X0267618Y0266709D01*
X0266275Y0267265D01*
X0264821Y0267265D01*
X0263478Y0266709D01*
X0262450Y0265681D01*
X0262087Y0264804D01*
X0254040Y0272850D01*
X0355496Y0272850D01*
X0355496Y0223729D01*
X0355887Y0222784D01*
X0370651Y0208020D01*
X0371375Y0207297D01*
X0372320Y0206906D01*
X0378134Y0206906D01*
X0378134Y0194280D01*
X0378108Y0194307D01*
X0377509Y0194707D01*
X0376844Y0194982D01*
X0376138Y0195122D01*
X0375778Y0195122D01*
X0375418Y0195122D01*
X0374712Y0194982D01*
X0374047Y0194707D01*
X0373449Y0194307D01*
X0372940Y0193798D01*
X0372540Y0193199D01*
X0372264Y0192534D01*
X0372124Y0191828D01*
X0372124Y0191468D01*
X0372124Y0191108D01*
X0372264Y0190402D01*
X0372540Y0189737D01*
X0372940Y0189139D01*
X0373449Y0188630D01*
X0374047Y0188230D01*
X0374712Y0187954D01*
X0375418Y0187814D01*
X0375778Y0187814D01*
X0375778Y0191468D01*
X0375778Y0191468D01*
X0372124Y0191468D01*
X0375778Y0191468D01*
X0375778Y0191468D01*
X0375778Y0187814D01*
X0376138Y0187814D01*
X0376844Y0187954D01*
X0377509Y0188230D01*
X0378108Y0188630D01*
X0378134Y0188656D01*
X0378134Y0091840D01*
X0378525Y0090894D01*
X0379249Y0090171D01*
X0393882Y0075538D01*
X0393882Y0060080D01*
X0387129Y0060080D01*
X0385968Y0058920D01*
X0385968Y0058848D01*
X0385369Y0059096D01*
X0384220Y0059096D01*
X0375012Y0068304D01*
X0373916Y0068757D01*
X0366652Y0068757D01*
X0366535Y0068874D01*
X0365192Y0069431D01*
X0363738Y0069431D01*
X0362395Y0068874D01*
X0361367Y0067846D01*
X0360811Y0066503D01*
X0360811Y0065049D01*
X0361367Y0063706D01*
X0362395Y0062678D01*
X0363738Y0062122D01*
X0365192Y0062122D01*
X0365638Y0062307D01*
X0334725Y0031394D01*
X0333887Y0030556D01*
X0333864Y0030501D01*
X0333316Y0029953D01*
X0332760Y0028610D01*
X0332760Y0027156D01*
X0333183Y0026134D01*
X0332622Y0025573D01*
X0332622Y0024958D01*
X0303170Y0024958D01*
X0312572Y0034360D01*
X0312647Y0034179D01*
X0313675Y0033151D01*
X0315018Y0032594D01*
X0316472Y0032594D01*
X0317815Y0033151D01*
X0318843Y0034179D01*
X0319399Y0035522D01*
X0319399Y0036266D01*
X0322031Y0038899D01*
X0322031Y0038845D01*
X0321505Y0038319D01*
X0320949Y0036976D01*
X0320949Y0035522D01*
X0321505Y0034179D01*
X0321896Y0033788D01*
X0321505Y0033398D01*
X0320949Y0032054D01*
X0320949Y0030601D01*
X0321505Y0029258D01*
X0322533Y0028230D01*
X0323876Y0027673D01*
X0325330Y0027673D01*
X0326673Y0028230D01*
X0327701Y0029258D01*
X0328257Y0030601D01*
X0328257Y0031345D01*
X0338363Y0041451D01*
X0339086Y0042174D01*
X0339478Y0043119D01*
X0339478Y0062688D01*
X0340496Y0063706D01*
X0341053Y0065049D01*
X0341053Y0066503D01*
X0340496Y0067846D01*
X0339478Y0068865D01*
X0339478Y0071866D01*
X0340542Y0071866D01*
X0340902Y0072227D01*
X0341263Y0071866D01*
X0341309Y0071866D01*
X0341126Y0071425D01*
X0341126Y0069971D01*
X0341682Y0068628D01*
X0342710Y0067600D01*
X0344053Y0067043D01*
X0345507Y0067043D01*
X0346850Y0067600D01*
X0347878Y0068628D01*
X0348434Y0069971D01*
X0348434Y0071425D01*
X0348184Y0072028D01*
X0349183Y0073027D01*
X0349183Y0080573D01*
X0348022Y0081734D01*
X0341263Y0081734D01*
X0340902Y0081373D01*
X0340542Y0081734D01*
X0333782Y0081734D01*
X0332622Y0080573D01*
X0332622Y0073027D01*
X0333782Y0071866D01*
X0334335Y0071866D01*
X0334335Y0067881D01*
X0334300Y0067846D01*
X0333744Y0066503D01*
X0333744Y0065049D01*
X0334300Y0063706D01*
X0334335Y0063672D01*
X0334335Y0044696D01*
X0327776Y0038137D01*
X0327701Y0038319D01*
X0327175Y0038845D01*
X0327175Y0055733D01*
X0327301Y0055648D01*
X0327966Y0055373D01*
X0328672Y0055232D01*
X0329032Y0055232D01*
X0329032Y0058886D01*
X0329032Y0058886D01*
X0329032Y0055232D01*
X0329392Y0055232D01*
X0330098Y0055373D01*
X0330763Y0055648D01*
X0331362Y0056048D01*
X0331871Y0056557D01*
X0332271Y0057156D01*
X0332546Y0057821D01*
X0332686Y0058527D01*
X0332686Y0058887D01*
X0332686Y0059247D01*
X0332546Y0059953D01*
X0332271Y0060618D01*
X0331871Y0061216D01*
X0331362Y0061725D01*
X0330763Y0062125D01*
X0330098Y0062401D01*
X0329392Y0062541D01*
X0329032Y0062541D01*
X0328672Y0062541D01*
X0327966Y0062401D01*
X0327301Y0062125D01*
X0327175Y0062040D01*
X0327175Y0064319D01*
X0326783Y0065265D01*
X0326060Y0065988D01*
X0317431Y0074617D01*
X0317431Y0075362D01*
X0316874Y0076705D01*
X0315846Y0077733D01*
X0314503Y0078289D01*
X0313049Y0078289D01*
X0311706Y0077733D01*
X0310678Y0076705D01*
X0310603Y0076523D01*
X0308174Y0078953D01*
X0308227Y0078953D01*
X0308753Y0078426D01*
X0310097Y0077870D01*
X0311550Y0077870D01*
X0312893Y0078426D01*
X0313921Y0079454D01*
X0314478Y0080798D01*
X0314478Y0082251D01*
X0313921Y0083594D01*
X0312893Y0084622D01*
X0311550Y0085179D01*
X0310097Y0085179D01*
X0308753Y0084622D01*
X0308227Y0084096D01*
X0306967Y0084096D01*
X0286429Y0104635D01*
X0285836Y0105227D01*
X0285836Y0111439D01*
X0285476Y0111800D01*
X0285836Y0112160D01*
X0285836Y0118920D01*
X0284676Y0120080D01*
X0284218Y0120080D01*
X0284458Y0120660D01*
X0284458Y0120912D01*
X0295649Y0132102D01*
X0315172Y0132102D01*
X0315901Y0131373D01*
X0315893Y0131364D01*
X0315486Y0131599D01*
X0314982Y0131734D01*
X0312642Y0131734D01*
X0312642Y0127280D01*
X0311683Y0127280D01*
X0311683Y0131734D01*
X0309342Y0131734D01*
X0308838Y0131599D01*
X0308387Y0131338D01*
X0308018Y0130969D01*
X0307757Y0130517D01*
X0307622Y0130014D01*
X0307622Y0127280D01*
X0311682Y0127280D01*
X0311682Y0126320D01*
X0307622Y0126320D01*
X0307622Y0123586D01*
X0307757Y0123083D01*
X0308018Y0122631D01*
X0308387Y0122262D01*
X0308838Y0122001D01*
X0309342Y0121866D01*
X0311683Y0121866D01*
X0311683Y0126320D01*
X0312642Y0126320D01*
X0312642Y0121866D01*
X0314982Y0121866D01*
X0315486Y0122001D01*
X0315893Y0122236D01*
X0316263Y0121866D01*
X0317110Y0121866D01*
X0317110Y0121734D01*
X0316263Y0121734D01*
X0315893Y0121364D01*
X0315486Y0121599D01*
X0314982Y0121734D01*
X0312642Y0121734D01*
X0312642Y0117280D01*
X0311683Y0117280D01*
X0311683Y0121734D01*
X0309342Y0121734D01*
X0308838Y0121599D01*
X0308387Y0121338D01*
X0308018Y0120969D01*
X0307757Y0120517D01*
X0307622Y0120014D01*
X0307622Y0117280D01*
X0311682Y0117280D01*
X0311682Y0116320D01*
X0307622Y0116320D01*
X0307622Y0113586D01*
X0307757Y0113083D01*
X0308018Y0112631D01*
X0308387Y0112262D01*
X0308838Y0112001D01*
X0309342Y0111866D01*
X0311683Y0111866D01*
X0311683Y0116320D01*
X0312642Y0116320D01*
X0312642Y0111866D01*
X0314982Y0111866D01*
X0315486Y0112001D01*
X0315893Y0112236D01*
X0316263Y0111866D01*
X0323022Y0111866D01*
X0324183Y0113027D01*
X0324183Y0120573D01*
X0323022Y0121734D01*
X0322253Y0121734D01*
X0322253Y0121866D01*
X0323022Y0121866D01*
X0324183Y0123027D01*
X0324183Y0130573D01*
X0323022Y0131734D01*
X0322253Y0131734D01*
X0322253Y0131741D01*
X0321862Y0132686D01*
X0318417Y0136131D01*
X0317694Y0136854D01*
X0316748Y0137246D01*
X0295378Y0137246D01*
X0305390Y0147258D01*
X0306114Y0147981D01*
X0306505Y0148926D01*
X0306505Y0182821D01*
X0316550Y0192866D01*
X0316466Y0192444D01*
X0316466Y0192084D01*
X0316466Y0191724D01*
X0316607Y0191018D01*
X0316882Y0190353D01*
X0317282Y0189755D01*
X0317791Y0189246D01*
X0318389Y0188846D01*
X0319055Y0188570D01*
X0319761Y0188430D01*
X0320120Y0188430D01*
X0320120Y0192084D01*
X0316466Y0192084D01*
X0320120Y0192084D01*
X0320120Y0192084D01*
X0320121Y0192084D01*
X0320121Y0192084D01*
X0323775Y0192084D01*
X0323775Y0191724D01*
X0323634Y0191018D01*
X0323359Y0190353D01*
X0322959Y0189755D01*
X0322450Y0189246D01*
X0321851Y0188846D01*
X0321186Y0188570D01*
X0320480Y0188430D01*
X0320121Y0188430D01*
X0320121Y0192084D01*
X0323775Y0192084D01*
X0323775Y0192444D01*
X0323634Y0193150D01*
X0323359Y0193815D01*
X0322959Y0194414D01*
X0322450Y0194923D01*
X0321851Y0195323D01*
X0321186Y0195598D01*
X0320480Y0195739D01*
X0320121Y0195739D01*
X0320121Y0192084D01*
X0320120Y0192084D01*
X0320120Y0195739D01*
X0319761Y0195739D01*
X0319055Y0195598D01*
X0318389Y0195323D01*
X0318316Y0195274D01*
X0318316Y0236072D01*
X0318415Y0236309D01*
X0318415Y0237763D01*
X0317858Y0239106D01*
X0316830Y0240134D01*
X0315487Y0240691D01*
X0314034Y0240691D01*
X0313805Y0240596D01*
X0313805Y0245015D01*
X0313973Y0244946D01*
X0314679Y0244805D01*
X0315038Y0244805D01*
X0315038Y0248459D01*
X0315039Y0248459D01*
X0315039Y0248460D01*
X0315038Y0248460D01*
X0315038Y0252114D01*
X0314679Y0252114D01*
X0314275Y0252033D01*
X0313921Y0252886D01*
X0312893Y0253914D01*
X0311550Y0254470D01*
X0310097Y0254470D01*
X0308753Y0253914D01*
X0307725Y0252886D01*
X0307169Y0251543D01*
X0307169Y0250089D01*
X0307725Y0248746D01*
X0307842Y0248629D01*
X0307842Y0212147D01*
X0307511Y0212147D01*
X0306805Y0212007D01*
X0306505Y0211883D01*
X0306505Y0212803D02*
X0307842Y0212803D01*
X0307842Y0214402D02*
X0306505Y0214402D01*
X0306505Y0216001D02*
X0307842Y0216001D01*
X0307842Y0217599D02*
X0306505Y0217599D01*
X0306505Y0219198D02*
X0307842Y0219198D01*
X0307842Y0220796D02*
X0306505Y0220796D01*
X0306505Y0222395D02*
X0307842Y0222395D01*
X0307842Y0223993D02*
X0306412Y0223993D01*
X0305236Y0225592D02*
X0307842Y0225592D01*
X0307842Y0227190D02*
X0303637Y0227190D01*
X0302039Y0228789D02*
X0307842Y0228789D01*
X0307842Y0230387D02*
X0300440Y0230387D01*
X0298842Y0231986D02*
X0307842Y0231986D01*
X0307842Y0233584D02*
X0297243Y0233584D01*
X0295645Y0235183D02*
X0307842Y0235183D01*
X0307842Y0236781D02*
X0294046Y0236781D01*
X0292448Y0238380D02*
X0307842Y0238380D01*
X0307842Y0239978D02*
X0290849Y0239978D01*
X0289251Y0241577D02*
X0307842Y0241577D01*
X0307842Y0243175D02*
X0287652Y0243175D01*
X0286054Y0244774D02*
X0307842Y0244774D01*
X0307842Y0246372D02*
X0284455Y0246372D01*
X0282857Y0247971D02*
X0307842Y0247971D01*
X0307384Y0249569D02*
X0281258Y0249569D01*
X0279659Y0251168D02*
X0307169Y0251168D01*
X0307676Y0252766D02*
X0278061Y0252766D01*
X0276462Y0254365D02*
X0309842Y0254365D01*
X0311805Y0254365D02*
X0355496Y0254365D01*
X0355496Y0255963D02*
X0274864Y0255963D01*
X0273265Y0257562D02*
X0355496Y0257562D01*
X0355496Y0259160D02*
X0271667Y0259160D01*
X0270068Y0260759D02*
X0355496Y0260759D01*
X0355496Y0262357D02*
X0268984Y0262357D01*
X0269202Y0263956D02*
X0355496Y0263956D01*
X0355496Y0265554D02*
X0268698Y0265554D01*
X0266546Y0267153D02*
X0355496Y0267153D01*
X0355496Y0268751D02*
X0258139Y0268751D01*
X0259737Y0267153D02*
X0264549Y0267153D01*
X0262397Y0265554D02*
X0261336Y0265554D01*
X0256540Y0270350D02*
X0355496Y0270350D01*
X0355496Y0271948D02*
X0254942Y0271948D01*
X0313971Y0252766D02*
X0355496Y0252766D01*
X0355496Y0251168D02*
X0317498Y0251168D01*
X0317368Y0251298D02*
X0316770Y0251698D01*
X0316104Y0251973D01*
X0315398Y0252114D01*
X0315039Y0252114D01*
X0315039Y0248460D01*
X0318693Y0248460D01*
X0318693Y0248819D01*
X0318552Y0249525D01*
X0318277Y0250190D01*
X0317877Y0250789D01*
X0317368Y0251298D01*
X0318534Y0249569D02*
X0355496Y0249569D01*
X0355496Y0247971D02*
X0318667Y0247971D01*
X0318693Y0248100D02*
X0318693Y0248459D01*
X0315039Y0248459D01*
X0315039Y0244805D01*
X0315398Y0244805D01*
X0316104Y0244946D01*
X0316770Y0245221D01*
X0317368Y0245621D01*
X0317877Y0246130D01*
X0318277Y0246729D01*
X0318552Y0247394D01*
X0318693Y0248100D01*
X0318039Y0246372D02*
X0355496Y0246372D01*
X0355496Y0244774D02*
X0313805Y0244774D01*
X0313805Y0243175D02*
X0355496Y0243175D01*
X0355496Y0241577D02*
X0313805Y0241577D01*
X0316987Y0239978D02*
X0355496Y0239978D01*
X0355496Y0238380D02*
X0318159Y0238380D01*
X0318415Y0236781D02*
X0355496Y0236781D01*
X0355496Y0235183D02*
X0318316Y0235183D01*
X0318316Y0233584D02*
X0355496Y0233584D01*
X0355496Y0231986D02*
X0318316Y0231986D01*
X0318316Y0230387D02*
X0355496Y0230387D01*
X0355496Y0228789D02*
X0318316Y0228789D01*
X0318316Y0227190D02*
X0355496Y0227190D01*
X0355496Y0225592D02*
X0318316Y0225592D01*
X0318316Y0223993D02*
X0355496Y0223993D01*
X0356277Y0222395D02*
X0318316Y0222395D01*
X0318316Y0220796D02*
X0357876Y0220796D01*
X0359474Y0219198D02*
X0318316Y0219198D01*
X0318316Y0217599D02*
X0361073Y0217599D01*
X0362671Y0216001D02*
X0318316Y0216001D01*
X0318316Y0214402D02*
X0364270Y0214402D01*
X0365868Y0212803D02*
X0318316Y0212803D01*
X0318316Y0211205D02*
X0367467Y0211205D01*
X0369065Y0209606D02*
X0318316Y0209606D01*
X0318316Y0208008D02*
X0370664Y0208008D01*
X0378134Y0206409D02*
X0318316Y0206409D01*
X0318316Y0204811D02*
X0378134Y0204811D01*
X0378134Y0203212D02*
X0318316Y0203212D01*
X0318316Y0201614D02*
X0378134Y0201614D01*
X0378134Y0200015D02*
X0318316Y0200015D01*
X0318316Y0198417D02*
X0356208Y0198417D01*
X0356327Y0198536D02*
X0355818Y0198027D01*
X0355418Y0197429D01*
X0355143Y0196764D01*
X0355002Y0196058D01*
X0355002Y0195698D01*
X0358656Y0195698D01*
X0358656Y0195698D01*
X0358656Y0199352D01*
X0358297Y0199352D01*
X0357591Y0199212D01*
X0356925Y0198936D01*
X0356327Y0198536D01*
X0355165Y0196818D02*
X0318316Y0196818D01*
X0320120Y0195220D02*
X0320121Y0195220D01*
X0320120Y0193621D02*
X0320121Y0193621D01*
X0320120Y0192023D02*
X0320121Y0192023D01*
X0320120Y0190424D02*
X0320121Y0190424D01*
X0320120Y0188826D02*
X0320121Y0188826D01*
X0321803Y0188826D02*
X0333823Y0188826D01*
X0333603Y0188917D02*
X0334268Y0188642D01*
X0334974Y0188501D01*
X0335334Y0188501D01*
X0335694Y0188501D01*
X0336400Y0188642D01*
X0337065Y0188917D01*
X0337663Y0189317D01*
X0338172Y0189826D01*
X0338572Y0190424D01*
X0346967Y0190424D01*
X0346784Y0190607D02*
X0347293Y0190098D01*
X0347891Y0189698D01*
X0348556Y0189423D01*
X0349262Y0189283D01*
X0349622Y0189283D01*
X0349622Y0192937D01*
X0349622Y0192937D01*
X0345968Y0192937D01*
X0345968Y0193297D01*
X0346108Y0194003D01*
X0346384Y0194668D01*
X0346784Y0195266D01*
X0347293Y0195775D01*
X0347891Y0196175D01*
X0348556Y0196451D01*
X0349262Y0196591D01*
X0349622Y0196591D01*
X0349622Y0192937D01*
X0349622Y0192937D01*
X0345968Y0192937D01*
X0345968Y0192577D01*
X0346108Y0191871D01*
X0346384Y0191206D01*
X0346784Y0190607D01*
X0346078Y0192023D02*
X0338988Y0192023D01*
X0338988Y0192155D02*
X0335334Y0192155D01*
X0335334Y0192155D01*
X0335334Y0188501D01*
X0335334Y0192155D01*
X0335334Y0192155D01*
X0338988Y0192155D01*
X0338988Y0191796D01*
X0338848Y0191090D01*
X0338572Y0190424D01*
X0338988Y0192155D02*
X0338988Y0192515D01*
X0338848Y0193221D01*
X0338572Y0193886D01*
X0338172Y0194485D01*
X0337663Y0194994D01*
X0337065Y0195394D01*
X0336400Y0195669D01*
X0335694Y0195810D01*
X0335334Y0195810D01*
X0335334Y0192156D01*
X0335334Y0192156D01*
X0335334Y0195810D01*
X0334974Y0195810D01*
X0334268Y0195669D01*
X0333603Y0195394D01*
X0333004Y0194994D01*
X0332495Y0194485D01*
X0332095Y0193886D01*
X0331820Y0193221D01*
X0331679Y0192515D01*
X0331679Y0192155D01*
X0331679Y0191796D01*
X0331820Y0191090D01*
X0332095Y0190424D01*
X0323388Y0190424D01*
X0323775Y0192023D02*
X0331679Y0192023D01*
X0331679Y0192155D02*
X0335334Y0192155D01*
X0335334Y0192155D01*
X0331679Y0192155D01*
X0331985Y0193621D02*
X0323439Y0193621D01*
X0322005Y0195220D02*
X0333342Y0195220D01*
X0335334Y0195220D02*
X0335334Y0195220D01*
X0335334Y0193621D02*
X0335334Y0193621D01*
X0335334Y0192023D02*
X0335334Y0192023D01*
X0335334Y0190424D02*
X0335334Y0190424D01*
X0335334Y0188826D02*
X0335334Y0188826D01*
X0336844Y0188826D02*
X0373252Y0188826D01*
X0372260Y0190424D02*
X0352278Y0190424D01*
X0352461Y0190607D02*
X0352861Y0191206D01*
X0353136Y0191871D01*
X0353277Y0192577D01*
X0353277Y0192937D01*
X0353277Y0193297D01*
X0353136Y0194003D01*
X0352861Y0194668D01*
X0352461Y0195266D01*
X0351952Y0195775D01*
X0351353Y0196175D01*
X0350688Y0196451D01*
X0349982Y0196591D01*
X0349622Y0196591D01*
X0349622Y0192937D01*
X0349622Y0192937D01*
X0353277Y0192937D01*
X0349622Y0192937D01*
X0349622Y0192937D01*
X0349622Y0189283D01*
X0349982Y0189283D01*
X0350688Y0189423D01*
X0351353Y0189698D01*
X0351952Y0190098D01*
X0352461Y0190607D01*
X0353166Y0192023D02*
X0372163Y0192023D01*
X0372822Y0193621D02*
X0361664Y0193621D01*
X0361495Y0193368D02*
X0361895Y0193967D01*
X0362170Y0194632D01*
X0362311Y0195338D01*
X0362311Y0195698D01*
X0362311Y0196058D01*
X0362170Y0196764D01*
X0361895Y0197429D01*
X0361495Y0198027D01*
X0360986Y0198536D01*
X0360387Y0198936D01*
X0359722Y0199212D01*
X0359016Y0199352D01*
X0358656Y0199352D01*
X0358656Y0195698D01*
X0358656Y0195698D01*
X0355002Y0195698D01*
X0355002Y0195338D01*
X0355143Y0194632D01*
X0355418Y0193967D01*
X0355818Y0193368D01*
X0356327Y0192859D01*
X0356925Y0192459D01*
X0357591Y0192184D01*
X0358297Y0192043D01*
X0358656Y0192043D01*
X0358656Y0195698D01*
X0358656Y0195698D01*
X0358657Y0195698D02*
X0362311Y0195698D01*
X0358657Y0195698D01*
X0358657Y0195698D01*
X0358656Y0195698D02*
X0358656Y0192043D01*
X0359016Y0192043D01*
X0359722Y0192184D01*
X0360387Y0192459D01*
X0360986Y0192859D01*
X0361495Y0193368D01*
X0362287Y0195220D02*
X0378134Y0195220D01*
X0378134Y0196818D02*
X0362148Y0196818D01*
X0361105Y0198417D02*
X0378134Y0198417D01*
X0375778Y0195122D02*
X0375778Y0191468D01*
X0375778Y0195122D01*
X0375778Y0193621D02*
X0375778Y0193621D01*
X0375778Y0192023D02*
X0375778Y0192023D01*
X0375778Y0191468D02*
X0375778Y0191468D01*
X0375778Y0190424D02*
X0375778Y0190424D01*
X0375778Y0188826D02*
X0375778Y0188826D01*
X0378134Y0187227D02*
X0310911Y0187227D01*
X0309313Y0185629D02*
X0378134Y0185629D01*
X0378134Y0184030D02*
X0307714Y0184030D01*
X0308773Y0182998D02*
X0308175Y0182598D01*
X0307666Y0182089D01*
X0307266Y0181490D01*
X0306990Y0180825D01*
X0306850Y0180119D01*
X0306850Y0179759D01*
X0306850Y0179399D01*
X0306990Y0178693D01*
X0307266Y0178028D01*
X0307666Y0177430D01*
X0308175Y0176921D01*
X0308773Y0176521D01*
X0309438Y0176245D01*
X0310144Y0176105D01*
X0310504Y0176105D01*
X0310504Y0179759D01*
X0310504Y0179759D01*
X0306850Y0179759D01*
X0310504Y0179759D01*
X0310504Y0179759D01*
X0310504Y0176105D01*
X0310864Y0176105D01*
X0311570Y0176245D01*
X0312235Y0176521D01*
X0312834Y0176921D01*
X0313343Y0177430D01*
X0313743Y0178028D01*
X0314018Y0178693D01*
X0314158Y0179399D01*
X0314158Y0179759D01*
X0310504Y0179759D01*
X0310504Y0179759D01*
X0310504Y0183414D01*
X0310144Y0183414D01*
X0309438Y0183273D01*
X0308773Y0182998D01*
X0308009Y0182432D02*
X0306505Y0182432D01*
X0306505Y0180833D02*
X0306994Y0180833D01*
X0306883Y0179235D02*
X0306505Y0179235D01*
X0306505Y0177636D02*
X0307528Y0177636D01*
X0306505Y0176038D02*
X0378134Y0176038D01*
X0378134Y0177636D02*
X0313481Y0177636D01*
X0314126Y0179235D02*
X0378134Y0179235D01*
X0378134Y0180833D02*
X0314015Y0180833D01*
X0314018Y0180825D02*
X0313743Y0181490D01*
X0313343Y0182089D01*
X0312834Y0182598D01*
X0312235Y0182998D01*
X0311570Y0183273D01*
X0310864Y0183414D01*
X0310504Y0183414D01*
X0310504Y0179759D01*
X0310504Y0179759D01*
X0314158Y0179759D01*
X0314158Y0180119D01*
X0314018Y0180825D01*
X0313000Y0182432D02*
X0378134Y0182432D01*
X0383277Y0182432D02*
X0408252Y0182432D01*
X0408252Y0184030D02*
X0383277Y0184030D01*
X0383277Y0185629D02*
X0408252Y0185629D01*
X0408252Y0187227D02*
X0383277Y0187227D01*
X0383277Y0188826D02*
X0392546Y0188826D01*
X0392637Y0188689D02*
X0393146Y0188180D01*
X0393745Y0187780D01*
X0394410Y0187504D01*
X0395116Y0187364D01*
X0395476Y0187364D01*
X0395836Y0187364D01*
X0396542Y0187504D01*
X0397207Y0187780D01*
X0397805Y0188180D01*
X0398314Y0188689D01*
X0398714Y0189287D01*
X0398990Y0189952D01*
X0399130Y0190658D01*
X0399130Y0191018D01*
X0399130Y0191378D01*
X0398990Y0192084D01*
X0398714Y0192749D01*
X0398314Y0193348D01*
X0397805Y0193857D01*
X0397207Y0194256D01*
X0396542Y0194532D01*
X0395836Y0194672D01*
X0395476Y0194672D01*
X0395476Y0191018D01*
X0399130Y0191018D01*
X0395476Y0191018D01*
X0395476Y0191018D01*
X0395476Y0187364D01*
X0395476Y0191018D01*
X0395476Y0191018D01*
X0395476Y0191018D01*
X0395476Y0194672D01*
X0395116Y0194672D01*
X0394410Y0194532D01*
X0393745Y0194256D01*
X0393146Y0193857D01*
X0392637Y0193348D01*
X0392237Y0192749D01*
X0391962Y0192084D01*
X0391821Y0191378D01*
X0391821Y0191018D01*
X0391821Y0190658D01*
X0391962Y0189952D01*
X0392237Y0189287D01*
X0392637Y0188689D01*
X0391868Y0190424D02*
X0383277Y0190424D01*
X0383277Y0192023D02*
X0391950Y0192023D01*
X0391821Y0191018D02*
X0395476Y0191018D01*
X0391821Y0191018D01*
X0392911Y0193621D02*
X0383277Y0193621D01*
X0383277Y0195220D02*
X0408252Y0195220D01*
X0408252Y0196818D02*
X0383277Y0196818D01*
X0383277Y0198417D02*
X0408252Y0198417D01*
X0408252Y0200015D02*
X0408135Y0200015D01*
X0408252Y0200039D02*
X0408252Y0003781D01*
X0380324Y0003781D01*
X0380324Y0014297D01*
X0380353Y0014251D01*
X0381227Y0013155D01*
X0382218Y0012164D01*
X0383314Y0011290D01*
X0384501Y0010544D01*
X0385764Y0009936D01*
X0387087Y0009473D01*
X0388454Y0009161D01*
X0389748Y0009015D01*
X0389748Y0020685D01*
X0391348Y0020685D01*
X0391348Y0022285D01*
X0403018Y0022285D01*
X0402872Y0023579D01*
X0402560Y0024946D01*
X0402097Y0026269D01*
X0401489Y0027532D01*
X0400743Y0028719D01*
X0399869Y0029815D01*
X0398878Y0030806D01*
X0397782Y0031680D01*
X0396595Y0032426D01*
X0395332Y0033034D01*
X0394009Y0033497D01*
X0392642Y0033809D01*
X0391348Y0033955D01*
X0391348Y0022285D01*
X0389748Y0022285D01*
X0389748Y0033955D01*
X0388835Y0033852D01*
X0392274Y0037291D01*
X0392248Y0037160D01*
X0392248Y0036800D01*
X0395902Y0036800D01*
X0395902Y0036800D01*
X0392248Y0036800D01*
X0392248Y0036440D01*
X0392388Y0035734D01*
X0392664Y0035069D01*
X0393064Y0034470D01*
X0393573Y0033961D01*
X0394171Y0033562D01*
X0394836Y0033286D01*
X0395542Y0033146D01*
X0395902Y0033146D01*
X0395902Y0036800D01*
X0395902Y0040454D01*
X0395542Y0040454D01*
X0395411Y0040428D01*
X0397910Y0042927D01*
X0398634Y0043650D01*
X0399025Y0044596D01*
X0399025Y0077115D01*
X0398634Y0078060D01*
X0391423Y0085270D01*
X0391423Y0091039D01*
X0393023Y0091039D01*
X0393023Y0084586D01*
X0393650Y0084668D01*
X0394573Y0084916D01*
X0395457Y0085282D01*
X0396285Y0085760D01*
X0397044Y0086342D01*
X0397720Y0087018D01*
X0398303Y0087777D01*
X0398781Y0088605D01*
X0399147Y0089489D01*
X0399394Y0090413D01*
X0399477Y0091039D01*
X0393023Y0091039D01*
X0393023Y0092639D01*
X0399477Y0092639D01*
X0399394Y0093266D01*
X0399147Y0094190D01*
X0398781Y0095073D01*
X0398303Y0095902D01*
X0397720Y0096660D01*
X0397044Y0097337D01*
X0396285Y0097919D01*
X0395457Y0098397D01*
X0394573Y0098763D01*
X0393650Y0099011D01*
X0393023Y0099093D01*
X0393023Y0092639D01*
X0391423Y0092639D01*
X0391423Y0091039D01*
X0385654Y0091039D01*
X0383277Y0093416D01*
X0383277Y0216723D01*
X0383803Y0217250D01*
X0384360Y0218593D01*
X0384360Y0220047D01*
X0383803Y0221390D01*
X0383277Y0221916D01*
X0383277Y0245422D01*
X0382886Y0246367D01*
X0382162Y0247090D01*
X0373533Y0255720D01*
X0373533Y0256464D01*
X0372977Y0257807D01*
X0371949Y0258835D01*
X0370605Y0259391D01*
X0369596Y0259391D01*
X0369596Y0260401D01*
X0369040Y0261744D01*
X0368012Y0262772D01*
X0366668Y0263328D01*
X0365215Y0263328D01*
X0363872Y0262772D01*
X0362844Y0261744D01*
X0362287Y0260401D01*
X0362287Y0258947D01*
X0362844Y0257604D01*
X0362960Y0257487D01*
X0362960Y0252328D01*
X0362919Y0252345D01*
X0362213Y0252486D01*
X0361853Y0252486D01*
X0361493Y0252486D01*
X0360787Y0252345D01*
X0360639Y0252284D01*
X0360639Y0275409D01*
X0408252Y0275409D01*
X0408252Y0207068D01*
X0407550Y0207208D01*
X0407190Y0207208D01*
X0406830Y0207208D01*
X0406124Y0207067D01*
X0405459Y0206792D01*
X0404861Y0206392D01*
X0404352Y0205883D01*
X0403952Y0205284D01*
X0403676Y0204619D01*
X0403536Y0203913D01*
X0403536Y0203553D01*
X0403536Y0203193D01*
X0403676Y0202487D01*
X0403952Y0201822D01*
X0404352Y0201224D01*
X0404861Y0200715D01*
X0405459Y0200315D01*
X0406124Y0200040D01*
X0406830Y0199899D01*
X0407190Y0199899D01*
X0407190Y0203553D01*
X0407190Y0199899D01*
X0407550Y0199899D01*
X0408252Y0200039D01*
X0407190Y0200015D02*
X0407190Y0200015D01*
X0406245Y0200015D02*
X0383277Y0200015D01*
X0383277Y0201614D02*
X0404091Y0201614D01*
X0403536Y0203212D02*
X0383277Y0203212D01*
X0383277Y0204811D02*
X0403755Y0204811D01*
X0403536Y0203553D02*
X0407190Y0203553D01*
X0407190Y0203553D01*
X0403536Y0203553D01*
X0404887Y0206409D02*
X0383277Y0206409D01*
X0383277Y0208008D02*
X0408252Y0208008D01*
X0407190Y0207208D02*
X0407190Y0203554D01*
X0407190Y0207208D01*
X0407190Y0206409D02*
X0407190Y0206409D01*
X0407190Y0204811D02*
X0407190Y0204811D01*
X0407190Y0203554D02*
X0407190Y0203554D01*
X0407190Y0203553D02*
X0407190Y0203553D01*
X0407190Y0203212D02*
X0407190Y0203212D01*
X0407190Y0201614D02*
X0407190Y0201614D01*
X0408252Y0209606D02*
X0383277Y0209606D01*
X0383277Y0211205D02*
X0408252Y0211205D01*
X0408252Y0212803D02*
X0394363Y0212803D01*
X0394648Y0212922D02*
X0395247Y0213322D01*
X0395756Y0213831D01*
X0396156Y0214429D01*
X0396431Y0215094D01*
X0396572Y0215800D01*
X0396572Y0216160D01*
X0392917Y0216160D01*
X0389263Y0216160D01*
X0389263Y0215800D01*
X0389403Y0215094D01*
X0389679Y0214429D01*
X0390079Y0213831D01*
X0390588Y0213322D01*
X0391186Y0212922D01*
X0391851Y0212646D01*
X0392557Y0212506D01*
X0392917Y0212506D01*
X0392917Y0216160D01*
X0392917Y0216160D01*
X0392917Y0216160D01*
X0389263Y0216160D01*
X0389263Y0216520D01*
X0389403Y0217226D01*
X0389679Y0217891D01*
X0390079Y0218490D01*
X0390588Y0218999D01*
X0391186Y0219399D01*
X0391851Y0219674D01*
X0392557Y0219815D01*
X0392917Y0219815D01*
X0392917Y0216160D01*
X0392917Y0212506D01*
X0393277Y0212506D01*
X0393983Y0212646D01*
X0394648Y0212922D01*
X0392917Y0212803D02*
X0392917Y0212803D01*
X0391472Y0212803D02*
X0383277Y0212803D01*
X0383277Y0214402D02*
X0389697Y0214402D01*
X0389263Y0216001D02*
X0383277Y0216001D01*
X0383948Y0217599D02*
X0389558Y0217599D01*
X0390885Y0219198D02*
X0384360Y0219198D01*
X0384049Y0220796D02*
X0408252Y0220796D01*
X0408252Y0219198D02*
X0394949Y0219198D01*
X0395247Y0218999D02*
X0394648Y0219399D01*
X0393983Y0219674D01*
X0393277Y0219815D01*
X0392917Y0219815D01*
X0392917Y0216160D01*
X0392917Y0216160D01*
X0392917Y0216160D01*
X0396572Y0216160D01*
X0396572Y0216520D01*
X0396431Y0217226D01*
X0396156Y0217891D01*
X0395756Y0218490D01*
X0395247Y0218999D01*
X0396277Y0217599D02*
X0408252Y0217599D01*
X0408252Y0216001D02*
X0396572Y0216001D01*
X0396138Y0214402D02*
X0408252Y0214402D01*
X0408252Y0222395D02*
X0383277Y0222395D01*
X0383277Y0223993D02*
X0408252Y0223993D01*
X0408252Y0225592D02*
X0383277Y0225592D01*
X0383277Y0227190D02*
X0408252Y0227190D01*
X0408252Y0228789D02*
X0383277Y0228789D01*
X0383277Y0230387D02*
X0408252Y0230387D01*
X0408252Y0231986D02*
X0383277Y0231986D01*
X0383277Y0233584D02*
X0386448Y0233584D01*
X0386202Y0233748D02*
X0386801Y0233348D01*
X0387466Y0233073D01*
X0388172Y0232932D01*
X0388532Y0232932D01*
X0388892Y0232932D01*
X0389598Y0233073D01*
X0390263Y0233348D01*
X0390861Y0233748D01*
X0391370Y0234257D01*
X0391770Y0234856D01*
X0392046Y0235521D01*
X0392186Y0236227D01*
X0392186Y0236587D01*
X0392186Y0236947D01*
X0392046Y0237653D01*
X0391770Y0238318D01*
X0391370Y0238916D01*
X0390861Y0239425D01*
X0390263Y0239825D01*
X0389598Y0240101D01*
X0388892Y0240241D01*
X0388532Y0240241D01*
X0388532Y0236587D01*
X0392186Y0236587D01*
X0388532Y0236587D01*
X0388532Y0236587D01*
X0388532Y0236587D01*
X0388532Y0240241D01*
X0388172Y0240241D01*
X0387466Y0240101D01*
X0386801Y0239825D01*
X0386202Y0239425D01*
X0385693Y0238916D01*
X0385293Y0238318D01*
X0385018Y0237653D01*
X0384877Y0236947D01*
X0384877Y0236587D01*
X0388532Y0236587D01*
X0388532Y0232932D01*
X0388532Y0236587D01*
X0388532Y0236587D01*
X0388532Y0236587D01*
X0384877Y0236587D01*
X0384877Y0236227D01*
X0385018Y0235521D01*
X0385293Y0234856D01*
X0385693Y0234257D01*
X0386202Y0233748D01*
X0385158Y0235183D02*
X0383277Y0235183D01*
X0383277Y0236781D02*
X0384877Y0236781D01*
X0385335Y0238380D02*
X0383277Y0238380D01*
X0383277Y0239978D02*
X0387170Y0239978D01*
X0388532Y0239978D02*
X0388532Y0239978D01*
X0389893Y0239978D02*
X0408252Y0239978D01*
X0408252Y0238380D02*
X0391729Y0238380D01*
X0392186Y0236781D02*
X0408252Y0236781D01*
X0408252Y0235183D02*
X0391906Y0235183D01*
X0390616Y0233584D02*
X0408252Y0233584D01*
X0408252Y0241577D02*
X0383277Y0241577D01*
X0383277Y0243175D02*
X0408252Y0243175D01*
X0408252Y0244774D02*
X0383277Y0244774D01*
X0382880Y0246372D02*
X0385316Y0246372D01*
X0385764Y0246156D02*
X0387087Y0245693D01*
X0388454Y0245381D01*
X0389748Y0245236D01*
X0389748Y0256905D01*
X0391348Y0256905D01*
X0391348Y0245236D01*
X0392642Y0245381D01*
X0394009Y0245693D01*
X0395332Y0246156D01*
X0396595Y0246765D01*
X0397782Y0247510D01*
X0398878Y0248384D01*
X0399869Y0249376D01*
X0400743Y0250472D01*
X0401489Y0251659D01*
X0402097Y0252922D01*
X0402560Y0254245D01*
X0402872Y0255612D01*
X0403018Y0256906D01*
X0391348Y0256906D01*
X0391348Y0258505D01*
X0403018Y0258505D01*
X0402872Y0259799D01*
X0402560Y0261166D01*
X0402097Y0262489D01*
X0401489Y0263752D01*
X0400743Y0264939D01*
X0399869Y0266035D01*
X0398878Y0267027D01*
X0397782Y0267901D01*
X0396595Y0268646D01*
X0395332Y0269255D01*
X0394009Y0269718D01*
X0392642Y0270030D01*
X0391348Y0270175D01*
X0391348Y0258506D01*
X0389748Y0258506D01*
X0389748Y0270175D01*
X0388454Y0270030D01*
X0387087Y0269718D01*
X0385764Y0269255D01*
X0384501Y0268646D01*
X0383314Y0267901D01*
X0382218Y0267027D01*
X0381227Y0266035D01*
X0380353Y0264939D01*
X0379607Y0263752D01*
X0378999Y0262489D01*
X0378536Y0261166D01*
X0378224Y0259799D01*
X0378078Y0258505D01*
X0389748Y0258505D01*
X0389748Y0256906D01*
X0378078Y0256906D01*
X0378224Y0255612D01*
X0378536Y0254245D01*
X0378999Y0252922D01*
X0379607Y0251659D01*
X0380353Y0250472D01*
X0381227Y0249376D01*
X0382218Y0248384D01*
X0383314Y0247510D01*
X0384501Y0246765D01*
X0385764Y0246156D01*
X0382737Y0247971D02*
X0381282Y0247971D01*
X0381072Y0249569D02*
X0379683Y0249569D01*
X0379915Y0251168D02*
X0378085Y0251168D01*
X0379074Y0252766D02*
X0376486Y0252766D01*
X0374888Y0254365D02*
X0378508Y0254365D01*
X0378184Y0255963D02*
X0373533Y0255963D01*
X0373078Y0257562D02*
X0389748Y0257562D01*
X0389748Y0259160D02*
X0391348Y0259160D01*
X0391348Y0257562D02*
X0408252Y0257562D01*
X0408252Y0259160D02*
X0402944Y0259160D01*
X0402653Y0260759D02*
X0408252Y0260759D01*
X0408252Y0262357D02*
X0402143Y0262357D01*
X0401361Y0263956D02*
X0408252Y0263956D01*
X0408252Y0265554D02*
X0400253Y0265554D01*
X0398719Y0267153D02*
X0408252Y0267153D01*
X0408252Y0268751D02*
X0396377Y0268751D01*
X0391348Y0268751D02*
X0389748Y0268751D01*
X0389748Y0267153D02*
X0391348Y0267153D01*
X0391348Y0265554D02*
X0389748Y0265554D01*
X0389748Y0263956D02*
X0391348Y0263956D01*
X0391348Y0262357D02*
X0389748Y0262357D01*
X0389748Y0260759D02*
X0391348Y0260759D01*
X0391348Y0255963D02*
X0389748Y0255963D01*
X0389748Y0254365D02*
X0391348Y0254365D01*
X0391348Y0252766D02*
X0389748Y0252766D01*
X0389748Y0251168D02*
X0391348Y0251168D01*
X0391348Y0249569D02*
X0389748Y0249569D01*
X0389748Y0247971D02*
X0391348Y0247971D01*
X0391348Y0246372D02*
X0389748Y0246372D01*
X0395780Y0246372D02*
X0408252Y0246372D01*
X0408252Y0247971D02*
X0398359Y0247971D01*
X0400023Y0249569D02*
X0408252Y0249569D01*
X0408252Y0251168D02*
X0401180Y0251168D01*
X0402022Y0252766D02*
X0408252Y0252766D01*
X0408252Y0254365D02*
X0402587Y0254365D01*
X0402912Y0255963D02*
X0408252Y0255963D01*
X0408252Y0270350D02*
X0360639Y0270350D01*
X0360639Y0271948D02*
X0408252Y0271948D01*
X0408252Y0273547D02*
X0360639Y0273547D01*
X0360639Y0275145D02*
X0408252Y0275145D01*
X0384719Y0268751D02*
X0360639Y0268751D01*
X0360639Y0267153D02*
X0382376Y0267153D01*
X0380843Y0265554D02*
X0360639Y0265554D01*
X0360639Y0263956D02*
X0379735Y0263956D01*
X0378953Y0262357D02*
X0368426Y0262357D01*
X0369448Y0260759D02*
X0378443Y0260759D01*
X0378152Y0259160D02*
X0371163Y0259160D01*
X0363457Y0262357D02*
X0360639Y0262357D01*
X0360639Y0260759D02*
X0362436Y0260759D01*
X0362287Y0259160D02*
X0360639Y0259160D01*
X0360639Y0257562D02*
X0362886Y0257562D01*
X0362960Y0255963D02*
X0360639Y0255963D01*
X0360639Y0254365D02*
X0362960Y0254365D01*
X0362960Y0252766D02*
X0360639Y0252766D01*
X0361853Y0252486D02*
X0361853Y0248831D01*
X0361853Y0248831D01*
X0361853Y0245177D01*
X0361493Y0245177D01*
X0360787Y0245317D01*
X0360639Y0245379D01*
X0360639Y0225306D01*
X0362960Y0222985D01*
X0362960Y0245335D01*
X0362919Y0245317D01*
X0362213Y0245177D01*
X0361853Y0245177D01*
X0361853Y0248831D01*
X0361853Y0248831D01*
X0361853Y0252486D01*
X0361853Y0251168D02*
X0361853Y0251168D01*
X0361853Y0249569D02*
X0361853Y0249569D01*
X0361853Y0247971D02*
X0361853Y0247971D01*
X0361853Y0246372D02*
X0361853Y0246372D01*
X0362960Y0244774D02*
X0360639Y0244774D01*
X0360639Y0243175D02*
X0362960Y0243175D01*
X0362960Y0241577D02*
X0360639Y0241577D01*
X0360639Y0239978D02*
X0362960Y0239978D01*
X0362960Y0238380D02*
X0360639Y0238380D01*
X0360639Y0236781D02*
X0362960Y0236781D01*
X0362960Y0235183D02*
X0360639Y0235183D01*
X0360639Y0233584D02*
X0362960Y0233584D01*
X0362960Y0231986D02*
X0360639Y0231986D01*
X0360639Y0230387D02*
X0362960Y0230387D01*
X0362960Y0228789D02*
X0360639Y0228789D01*
X0360639Y0227190D02*
X0362960Y0227190D01*
X0362960Y0225592D02*
X0360639Y0225592D01*
X0361952Y0223993D02*
X0362960Y0223993D01*
X0374505Y0238993D02*
X0374505Y0242647D01*
X0374865Y0242647D01*
X0375571Y0242507D01*
X0376236Y0242232D01*
X0376834Y0241832D01*
X0377343Y0241323D01*
X0377743Y0240724D01*
X0378019Y0240059D01*
X0378134Y0239481D01*
X0378134Y0243845D01*
X0373533Y0248446D01*
X0373533Y0247136D01*
X0373434Y0246898D01*
X0373434Y0242505D01*
X0373439Y0242507D01*
X0374145Y0242647D01*
X0374505Y0242647D01*
X0374505Y0238993D01*
X0374505Y0238993D01*
X0374505Y0239978D02*
X0374505Y0239978D01*
X0374505Y0241577D02*
X0374505Y0241577D01*
X0373434Y0243175D02*
X0378134Y0243175D01*
X0378134Y0241577D02*
X0377089Y0241577D01*
X0378035Y0239978D02*
X0378134Y0239978D01*
X0377205Y0244774D02*
X0373434Y0244774D01*
X0373434Y0246372D02*
X0375607Y0246372D01*
X0374008Y0247971D02*
X0373533Y0247971D01*
X0388532Y0238380D02*
X0388532Y0238380D01*
X0388532Y0236781D02*
X0388532Y0236781D01*
X0388532Y0235183D02*
X0388532Y0235183D01*
X0388532Y0233584D02*
X0388532Y0233584D01*
X0392917Y0219198D02*
X0392917Y0219198D01*
X0392917Y0217599D02*
X0392917Y0217599D01*
X0392917Y0216001D02*
X0392917Y0216001D01*
X0392917Y0214402D02*
X0392917Y0214402D01*
X0395476Y0193621D02*
X0395476Y0193621D01*
X0395476Y0192023D02*
X0395476Y0192023D01*
X0395476Y0191018D02*
X0395476Y0191018D01*
X0395476Y0190424D02*
X0395476Y0190424D01*
X0395476Y0188826D02*
X0395476Y0188826D01*
X0398406Y0188826D02*
X0408252Y0188826D01*
X0408252Y0190424D02*
X0399084Y0190424D01*
X0399002Y0192023D02*
X0408252Y0192023D01*
X0408252Y0193621D02*
X0398040Y0193621D01*
X0408252Y0180833D02*
X0383277Y0180833D01*
X0383277Y0179235D02*
X0408252Y0179235D01*
X0408252Y0177636D02*
X0383277Y0177636D01*
X0383277Y0176038D02*
X0408252Y0176038D01*
X0408252Y0174439D02*
X0383277Y0174439D01*
X0383277Y0172841D02*
X0408252Y0172841D01*
X0408252Y0171242D02*
X0383277Y0171242D01*
X0383277Y0169644D02*
X0408252Y0169644D01*
X0408252Y0168045D02*
X0383277Y0168045D01*
X0383277Y0166447D02*
X0408252Y0166447D01*
X0408252Y0164848D02*
X0383277Y0164848D01*
X0383277Y0163250D02*
X0408252Y0163250D01*
X0408252Y0161651D02*
X0383277Y0161651D01*
X0383277Y0160053D02*
X0408252Y0160053D01*
X0408252Y0158454D02*
X0383277Y0158454D01*
X0383277Y0156856D02*
X0408252Y0156856D01*
X0408252Y0155257D02*
X0383277Y0155257D01*
X0383277Y0153659D02*
X0408252Y0153659D01*
X0408252Y0152060D02*
X0383277Y0152060D01*
X0383277Y0150462D02*
X0408252Y0150462D01*
X0408252Y0148863D02*
X0383277Y0148863D01*
X0383277Y0147265D02*
X0408252Y0147265D01*
X0408252Y0145666D02*
X0383277Y0145666D01*
X0383277Y0144068D02*
X0408252Y0144068D01*
X0408252Y0142469D02*
X0383277Y0142469D01*
X0383277Y0140870D02*
X0408252Y0140870D01*
X0408252Y0139272D02*
X0383277Y0139272D01*
X0383277Y0137673D02*
X0408252Y0137673D01*
X0408252Y0136075D02*
X0383277Y0136075D01*
X0383277Y0134476D02*
X0408252Y0134476D01*
X0408252Y0132878D02*
X0383277Y0132878D01*
X0383277Y0131279D02*
X0408252Y0131279D01*
X0408252Y0129681D02*
X0383277Y0129681D01*
X0383277Y0128082D02*
X0388581Y0128082D01*
X0388989Y0128318D02*
X0388161Y0127840D01*
X0387402Y0127258D01*
X0386726Y0126582D01*
X0386144Y0125823D01*
X0385665Y0124995D01*
X0385299Y0124111D01*
X0385052Y0123187D01*
X0384969Y0122561D01*
X0391423Y0122561D01*
X0391423Y0129014D01*
X0390797Y0128932D01*
X0389873Y0128684D01*
X0388989Y0128318D01*
X0391423Y0128082D02*
X0393023Y0128082D01*
X0393023Y0129014D02*
X0393023Y0122561D01*
X0391423Y0122561D01*
X0391423Y0120961D01*
X0384969Y0120961D01*
X0385052Y0120334D01*
X0385299Y0119410D01*
X0385665Y0118527D01*
X0386144Y0117698D01*
X0386726Y0116940D01*
X0387402Y0116263D01*
X0388161Y0115681D01*
X0388989Y0115203D01*
X0389873Y0114837D01*
X0390797Y0114589D01*
X0391423Y0114507D01*
X0391423Y0120961D01*
X0393023Y0120961D01*
X0393023Y0122561D01*
X0399477Y0122561D01*
X0399394Y0123187D01*
X0399147Y0124111D01*
X0398781Y0124995D01*
X0398303Y0125823D01*
X0397720Y0126582D01*
X0397044Y0127258D01*
X0396285Y0127840D01*
X0395457Y0128318D01*
X0394573Y0128684D01*
X0393650Y0128932D01*
X0393023Y0129014D01*
X0393023Y0126484D02*
X0391423Y0126484D01*
X0391423Y0124885D02*
X0393023Y0124885D01*
X0393023Y0123287D02*
X0391423Y0123287D01*
X0391423Y0121688D02*
X0383277Y0121688D01*
X0383277Y0120090D02*
X0385117Y0120090D01*
X0385686Y0118491D02*
X0383277Y0118491D01*
X0383277Y0116893D02*
X0386773Y0116893D01*
X0388831Y0115294D02*
X0383277Y0115294D01*
X0383277Y0113696D02*
X0408252Y0113696D01*
X0408252Y0115294D02*
X0395615Y0115294D01*
X0395457Y0115203D02*
X0396285Y0115681D01*
X0397044Y0116263D01*
X0397720Y0116940D01*
X0398303Y0117698D01*
X0398781Y0118527D01*
X0399147Y0119410D01*
X0399394Y0120334D01*
X0399477Y0120961D01*
X0393023Y0120961D01*
X0393023Y0114507D01*
X0393650Y0114589D01*
X0394573Y0114837D01*
X0395457Y0115203D01*
X0393023Y0115294D02*
X0391423Y0115294D01*
X0391423Y0116893D02*
X0393023Y0116893D01*
X0393023Y0118491D02*
X0391423Y0118491D01*
X0391423Y0120090D02*
X0393023Y0120090D01*
X0393023Y0121688D02*
X0408252Y0121688D01*
X0408252Y0120090D02*
X0399329Y0120090D01*
X0398760Y0118491D02*
X0408252Y0118491D01*
X0408252Y0116893D02*
X0397674Y0116893D01*
X0399368Y0123287D02*
X0408252Y0123287D01*
X0408252Y0124885D02*
X0398826Y0124885D01*
X0397795Y0126484D02*
X0408252Y0126484D01*
X0408252Y0128082D02*
X0395866Y0128082D01*
X0386651Y0126484D02*
X0383277Y0126484D01*
X0383277Y0124885D02*
X0385620Y0124885D01*
X0385079Y0123287D02*
X0383277Y0123287D01*
X0378134Y0123287D02*
X0324183Y0123287D01*
X0324183Y0124885D02*
X0378134Y0124885D01*
X0378134Y0126484D02*
X0324183Y0126484D01*
X0324183Y0128082D02*
X0378134Y0128082D01*
X0378134Y0129681D02*
X0324183Y0129681D01*
X0323476Y0131279D02*
X0378134Y0131279D01*
X0378134Y0132878D02*
X0321670Y0132878D01*
X0320071Y0134476D02*
X0378134Y0134476D01*
X0378134Y0136075D02*
X0318473Y0136075D01*
X0312642Y0131279D02*
X0311683Y0131279D01*
X0311683Y0129681D02*
X0312642Y0129681D01*
X0312642Y0128082D02*
X0311683Y0128082D01*
X0311682Y0126484D02*
X0290030Y0126484D01*
X0291629Y0128082D02*
X0307622Y0128082D01*
X0307622Y0129681D02*
X0293227Y0129681D01*
X0294826Y0131279D02*
X0308328Y0131279D01*
X0307622Y0124885D02*
X0288432Y0124885D01*
X0286833Y0123287D02*
X0307702Y0123287D01*
X0309172Y0121688D02*
X0285235Y0121688D01*
X0284222Y0120090D02*
X0307642Y0120090D01*
X0307622Y0118491D02*
X0285836Y0118491D01*
X0285836Y0116893D02*
X0311682Y0116893D01*
X0311683Y0118491D02*
X0312642Y0118491D01*
X0312642Y0120090D02*
X0311683Y0120090D01*
X0311683Y0121688D02*
X0312642Y0121688D01*
X0312642Y0123287D02*
X0311683Y0123287D01*
X0311683Y0124885D02*
X0312642Y0124885D01*
X0315152Y0121688D02*
X0316217Y0121688D01*
X0312642Y0115294D02*
X0311683Y0115294D01*
X0311683Y0113696D02*
X0312642Y0113696D01*
X0312642Y0112097D02*
X0311683Y0112097D01*
X0308782Y0111734D02*
X0307622Y0110573D01*
X0307622Y0106566D01*
X0306412Y0105356D01*
X0305667Y0105356D01*
X0304324Y0104800D01*
X0303296Y0103772D01*
X0302740Y0102428D01*
X0302740Y0100975D01*
X0303296Y0099632D01*
X0304324Y0098604D01*
X0305667Y0098047D01*
X0307121Y0098047D01*
X0308464Y0098604D01*
X0309492Y0099632D01*
X0310049Y0100975D01*
X0310049Y0101719D01*
X0310196Y0101866D01*
X0315542Y0101866D01*
X0315902Y0102227D01*
X0316263Y0101866D01*
X0323022Y0101866D01*
X0324183Y0103027D01*
X0324183Y0103538D01*
X0324368Y0103461D01*
X0325822Y0103461D01*
X0327165Y0104017D01*
X0328193Y0105045D01*
X0328749Y0106388D01*
X0328749Y0107842D01*
X0328193Y0109185D01*
X0327165Y0110213D01*
X0325822Y0110769D01*
X0324368Y0110769D01*
X0324098Y0110657D01*
X0323022Y0111734D01*
X0316263Y0111734D01*
X0315902Y0111373D01*
X0315542Y0111734D01*
X0308782Y0111734D01*
X0308672Y0112097D02*
X0285773Y0112097D01*
X0285836Y0110499D02*
X0307622Y0110499D01*
X0307622Y0108900D02*
X0285836Y0108900D01*
X0285836Y0107302D02*
X0307622Y0107302D01*
X0306759Y0105703D02*
X0285836Y0105703D01*
X0286959Y0104105D02*
X0303630Y0104105D01*
X0302772Y0102506D02*
X0288557Y0102506D01*
X0290156Y0100908D02*
X0302768Y0100908D01*
X0303619Y0099309D02*
X0291754Y0099309D01*
X0293353Y0097711D02*
X0378134Y0097711D01*
X0378134Y0099309D02*
X0309170Y0099309D01*
X0310021Y0100908D02*
X0378134Y0100908D01*
X0378134Y0102506D02*
X0364144Y0102506D01*
X0364332Y0102584D02*
X0365731Y0103983D01*
X0366488Y0105811D01*
X0366488Y0107789D01*
X0365731Y0109617D01*
X0364332Y0111016D01*
X0362504Y0111773D01*
X0360525Y0111773D01*
X0358697Y0111016D01*
X0357298Y0109617D01*
X0356541Y0107789D01*
X0356541Y0105811D01*
X0357298Y0103983D01*
X0358697Y0102584D01*
X0360525Y0101827D01*
X0362504Y0101827D01*
X0364332Y0102584D01*
X0365781Y0104105D02*
X0378134Y0104105D01*
X0378134Y0105703D02*
X0366443Y0105703D01*
X0366488Y0107302D02*
X0378134Y0107302D01*
X0378134Y0108900D02*
X0366028Y0108900D01*
X0364849Y0110499D02*
X0378134Y0110499D01*
X0378134Y0112097D02*
X0323253Y0112097D01*
X0324183Y0113696D02*
X0378134Y0113696D01*
X0378134Y0115294D02*
X0324183Y0115294D01*
X0324183Y0116893D02*
X0378134Y0116893D01*
X0378134Y0118491D02*
X0324183Y0118491D01*
X0324183Y0120090D02*
X0378134Y0120090D01*
X0378134Y0121688D02*
X0323068Y0121688D01*
X0316032Y0112097D02*
X0315652Y0112097D01*
X0307622Y0113696D02*
X0285836Y0113696D01*
X0285836Y0115294D02*
X0307622Y0115294D01*
X0326475Y0110499D02*
X0358180Y0110499D01*
X0357001Y0108900D02*
X0328311Y0108900D01*
X0328749Y0107302D02*
X0356541Y0107302D01*
X0356586Y0105703D02*
X0328466Y0105703D01*
X0327253Y0104105D02*
X0357248Y0104105D01*
X0358885Y0102506D02*
X0323662Y0102506D01*
X0304542Y0086521D02*
X0382899Y0086521D01*
X0384497Y0084923D02*
X0312169Y0084923D01*
X0314033Y0083324D02*
X0386096Y0083324D01*
X0387694Y0081726D02*
X0348030Y0081726D01*
X0349183Y0080127D02*
X0389293Y0080127D01*
X0390891Y0078529D02*
X0349183Y0078529D01*
X0349183Y0076930D02*
X0392490Y0076930D01*
X0393882Y0075332D02*
X0349183Y0075332D01*
X0349183Y0073733D02*
X0393882Y0073733D01*
X0393882Y0072134D02*
X0348290Y0072134D01*
X0348434Y0070536D02*
X0393882Y0070536D01*
X0393882Y0068937D02*
X0366383Y0068937D01*
X0362548Y0068937D02*
X0348006Y0068937D01*
X0346221Y0067339D02*
X0361157Y0067339D01*
X0360811Y0065740D02*
X0341053Y0065740D01*
X0340706Y0067339D02*
X0343339Y0067339D01*
X0341554Y0068937D02*
X0339478Y0068937D01*
X0339478Y0070536D02*
X0341126Y0070536D01*
X0340994Y0072134D02*
X0340810Y0072134D01*
X0334335Y0070536D02*
X0321512Y0070536D01*
X0323110Y0068937D02*
X0334335Y0068937D01*
X0334090Y0067339D02*
X0324709Y0067339D01*
X0326307Y0065740D02*
X0333744Y0065740D01*
X0334120Y0064142D02*
X0327175Y0064142D01*
X0327175Y0062543D02*
X0334335Y0062543D01*
X0334335Y0060945D02*
X0332052Y0060945D01*
X0332667Y0059346D02*
X0334335Y0059346D01*
X0334335Y0057748D02*
X0332516Y0057748D01*
X0332686Y0058887D02*
X0329032Y0058887D01*
X0329032Y0062541D01*
X0329032Y0058887D01*
X0329032Y0058887D01*
X0332686Y0058887D01*
X0331463Y0056149D02*
X0334335Y0056149D01*
X0334335Y0054551D02*
X0327175Y0054551D01*
X0327175Y0052952D02*
X0334335Y0052952D01*
X0334335Y0051354D02*
X0327175Y0051354D01*
X0327175Y0049755D02*
X0334335Y0049755D01*
X0334335Y0048157D02*
X0327175Y0048157D01*
X0327175Y0046558D02*
X0334335Y0046558D01*
X0334335Y0044960D02*
X0327175Y0044960D01*
X0327175Y0043361D02*
X0333000Y0043361D01*
X0331401Y0041763D02*
X0327175Y0041763D01*
X0327175Y0040164D02*
X0329803Y0040164D01*
X0328204Y0038566D02*
X0327454Y0038566D01*
X0330683Y0033770D02*
X0337101Y0033770D01*
X0335503Y0032172D02*
X0329084Y0032172D01*
X0328246Y0030573D02*
X0333904Y0030573D01*
X0332911Y0028975D02*
X0327418Y0028975D01*
X0332760Y0027376D02*
X0305588Y0027376D01*
X0307186Y0028975D02*
X0321788Y0028975D01*
X0320960Y0030573D02*
X0308785Y0030573D01*
X0310383Y0032172D02*
X0320997Y0032172D01*
X0321878Y0033770D02*
X0318434Y0033770D01*
X0319336Y0035369D02*
X0321012Y0035369D01*
X0320949Y0036967D02*
X0320100Y0036967D01*
X0321699Y0038566D02*
X0321752Y0038566D01*
X0313055Y0033770D02*
X0311982Y0033770D01*
X0303989Y0025778D02*
X0332826Y0025778D01*
X0339894Y0026734D02*
X0340068Y0027156D01*
X0340068Y0028305D01*
X0373323Y0061560D01*
X0381131Y0053753D01*
X0381969Y0052914D01*
X0382024Y0052892D01*
X0382572Y0052344D01*
X0383915Y0051787D01*
X0385369Y0051787D01*
X0386057Y0052072D01*
X0386338Y0051791D01*
X0386103Y0051384D01*
X0385968Y0050880D01*
X0385968Y0048539D01*
X0390423Y0048539D01*
X0390423Y0047580D01*
X0391382Y0047580D01*
X0391382Y0043672D01*
X0389557Y0041847D01*
X0389557Y0042160D01*
X0389416Y0042866D01*
X0389145Y0043520D01*
X0390423Y0043520D01*
X0390423Y0047580D01*
X0385968Y0047580D01*
X0385968Y0045454D01*
X0385902Y0045454D01*
X0385542Y0045454D01*
X0384836Y0045314D01*
X0384171Y0045038D01*
X0383573Y0044638D01*
X0383064Y0044129D01*
X0382664Y0043531D01*
X0382388Y0042866D01*
X0382248Y0042160D01*
X0382248Y0041800D01*
X0385902Y0041800D01*
X0385902Y0041800D01*
X0382248Y0041800D01*
X0382248Y0041440D01*
X0382388Y0040734D01*
X0382664Y0040069D01*
X0383064Y0039470D01*
X0383573Y0038961D01*
X0384171Y0038562D01*
X0384836Y0038286D01*
X0385542Y0038146D01*
X0385855Y0038146D01*
X0375572Y0027863D01*
X0375181Y0026918D01*
X0375181Y0025895D01*
X0375181Y0006340D01*
X0291036Y0006340D01*
X0303692Y0018996D01*
X0332622Y0018996D01*
X0332622Y0018027D01*
X0333782Y0016866D01*
X0340542Y0016866D01*
X0340902Y0017227D01*
X0341263Y0016866D01*
X0348022Y0016866D01*
X0349183Y0018027D01*
X0349183Y0022743D01*
X0353227Y0026787D01*
X0357002Y0026787D01*
X0357056Y0026734D01*
X0353782Y0026734D01*
X0352622Y0025573D01*
X0352622Y0018027D01*
X0353782Y0016866D01*
X0354153Y0016866D01*
X0353921Y0016306D01*
X0353921Y0014853D01*
X0354477Y0013510D01*
X0355505Y0012482D01*
X0356849Y0011925D01*
X0358302Y0011925D01*
X0359645Y0012482D01*
X0360673Y0013510D01*
X0361230Y0014853D01*
X0361230Y0016306D01*
X0360864Y0017189D01*
X0360902Y0017227D01*
X0361263Y0016866D01*
X0368022Y0016866D01*
X0369183Y0018027D01*
X0369183Y0025573D01*
X0368663Y0026093D01*
X0369104Y0027156D01*
X0369104Y0028610D01*
X0368547Y0029953D01*
X0367519Y0030981D01*
X0366176Y0031537D01*
X0364723Y0031537D01*
X0363379Y0030981D01*
X0362351Y0029953D01*
X0361988Y0029075D01*
X0359524Y0031539D01*
X0358579Y0031931D01*
X0351651Y0031931D01*
X0350705Y0031539D01*
X0349982Y0030816D01*
X0345900Y0026734D01*
X0341263Y0026734D01*
X0340902Y0026373D01*
X0340542Y0026734D01*
X0339894Y0026734D01*
X0340068Y0027376D02*
X0346542Y0027376D01*
X0348141Y0028975D02*
X0340738Y0028975D01*
X0342336Y0030573D02*
X0349739Y0030573D01*
X0345533Y0033770D02*
X0381480Y0033770D01*
X0383078Y0035369D02*
X0347132Y0035369D01*
X0348730Y0036967D02*
X0384677Y0036967D01*
X0384165Y0038566D02*
X0350329Y0038566D01*
X0351927Y0040164D02*
X0382624Y0040164D01*
X0382248Y0041763D02*
X0353526Y0041763D01*
X0355124Y0043361D02*
X0382594Y0043361D01*
X0384054Y0044960D02*
X0356723Y0044960D01*
X0358321Y0046558D02*
X0385968Y0046558D01*
X0385902Y0045454D02*
X0385902Y0041800D01*
X0385902Y0045454D01*
X0385902Y0044960D02*
X0385902Y0044960D01*
X0385902Y0043361D02*
X0385902Y0043361D01*
X0385902Y0041800D02*
X0385902Y0041800D01*
X0389211Y0043361D02*
X0391071Y0043361D01*
X0391382Y0044960D02*
X0390423Y0044960D01*
X0390423Y0046558D02*
X0391382Y0046558D01*
X0390423Y0048157D02*
X0359920Y0048157D01*
X0361518Y0049755D02*
X0385968Y0049755D01*
X0386095Y0051354D02*
X0363117Y0051354D01*
X0364715Y0052952D02*
X0381932Y0052952D01*
X0380333Y0054551D02*
X0366314Y0054551D01*
X0367912Y0056149D02*
X0378735Y0056149D01*
X0377136Y0057748D02*
X0369511Y0057748D01*
X0371109Y0059346D02*
X0375538Y0059346D01*
X0373939Y0060945D02*
X0372708Y0060945D01*
X0364276Y0060945D02*
X0339478Y0060945D01*
X0339478Y0062543D02*
X0362721Y0062543D01*
X0361187Y0064142D02*
X0340677Y0064142D01*
X0339478Y0059346D02*
X0362678Y0059346D01*
X0361079Y0057748D02*
X0339478Y0057748D01*
X0339478Y0056149D02*
X0359481Y0056149D01*
X0357882Y0054551D02*
X0339478Y0054551D01*
X0339478Y0052952D02*
X0356284Y0052952D01*
X0354685Y0051354D02*
X0339478Y0051354D01*
X0339478Y0049755D02*
X0353087Y0049755D01*
X0351488Y0048157D02*
X0339478Y0048157D01*
X0339478Y0046558D02*
X0349890Y0046558D01*
X0348291Y0044960D02*
X0339478Y0044960D01*
X0339478Y0043361D02*
X0346692Y0043361D01*
X0345094Y0041763D02*
X0338675Y0041763D01*
X0337077Y0040164D02*
X0343495Y0040164D01*
X0341897Y0038566D02*
X0335478Y0038566D01*
X0333880Y0036967D02*
X0340298Y0036967D01*
X0338700Y0035369D02*
X0332281Y0035369D01*
X0343935Y0032172D02*
X0379881Y0032172D01*
X0378283Y0030573D02*
X0367927Y0030573D01*
X0368953Y0028975D02*
X0376684Y0028975D01*
X0375371Y0027376D02*
X0369104Y0027376D01*
X0368978Y0025778D02*
X0375181Y0025778D01*
X0375181Y0024179D02*
X0369183Y0024179D01*
X0369183Y0022581D02*
X0375181Y0022581D01*
X0375181Y0020982D02*
X0369183Y0020982D01*
X0369183Y0019384D02*
X0375181Y0019384D01*
X0375181Y0017785D02*
X0368941Y0017785D01*
X0375181Y0016187D02*
X0361230Y0016187D01*
X0361120Y0014588D02*
X0375181Y0014588D01*
X0375181Y0012990D02*
X0360154Y0012990D01*
X0354997Y0012990D02*
X0297686Y0012990D01*
X0299284Y0014588D02*
X0354031Y0014588D01*
X0353921Y0016187D02*
X0300883Y0016187D01*
X0302481Y0017785D02*
X0332863Y0017785D01*
X0348941Y0017785D02*
X0352863Y0017785D01*
X0352622Y0019384D02*
X0349183Y0019384D01*
X0349183Y0020982D02*
X0352622Y0020982D01*
X0352622Y0022581D02*
X0349183Y0022581D01*
X0350619Y0024179D02*
X0352622Y0024179D01*
X0352826Y0025778D02*
X0352218Y0025778D01*
X0360490Y0030573D02*
X0362972Y0030573D01*
X0375181Y0011391D02*
X0296087Y0011391D01*
X0294489Y0009793D02*
X0375181Y0009793D01*
X0375181Y0008194D02*
X0292890Y0008194D01*
X0291292Y0006596D02*
X0375181Y0006596D01*
X0380324Y0006596D02*
X0408252Y0006596D01*
X0408252Y0008194D02*
X0380324Y0008194D01*
X0380324Y0009793D02*
X0386174Y0009793D01*
X0383187Y0011391D02*
X0380324Y0011391D01*
X0380324Y0012990D02*
X0381392Y0012990D01*
X0380324Y0004997D02*
X0408252Y0004997D01*
X0408252Y0009793D02*
X0394922Y0009793D01*
X0395332Y0009936D02*
X0394009Y0009473D01*
X0392642Y0009161D01*
X0391348Y0009015D01*
X0391348Y0020685D01*
X0403018Y0020685D01*
X0402872Y0019391D01*
X0402560Y0018024D01*
X0402097Y0016701D01*
X0401489Y0015438D01*
X0400743Y0014251D01*
X0399869Y0013155D01*
X0398878Y0012164D01*
X0397782Y0011290D01*
X0396595Y0010544D01*
X0395332Y0009936D01*
X0397909Y0011391D02*
X0408252Y0011391D01*
X0408252Y0012990D02*
X0399703Y0012990D01*
X0400955Y0014588D02*
X0408252Y0014588D01*
X0408252Y0016187D02*
X0401849Y0016187D01*
X0402476Y0017785D02*
X0408252Y0017785D01*
X0408252Y0019384D02*
X0402870Y0019384D01*
X0402985Y0022581D02*
X0408252Y0022581D01*
X0408252Y0024179D02*
X0402735Y0024179D01*
X0402269Y0025778D02*
X0408252Y0025778D01*
X0408252Y0027376D02*
X0401564Y0027376D01*
X0400539Y0028975D02*
X0408252Y0028975D01*
X0408252Y0030573D02*
X0399111Y0030573D01*
X0396999Y0032172D02*
X0408252Y0032172D01*
X0408252Y0033770D02*
X0397945Y0033770D01*
X0398232Y0033961D02*
X0398741Y0034470D01*
X0399141Y0035069D01*
X0399416Y0035734D01*
X0399557Y0036440D01*
X0399557Y0036800D01*
X0399557Y0037160D01*
X0399416Y0037866D01*
X0399141Y0038531D01*
X0398741Y0039129D01*
X0398232Y0039638D01*
X0397633Y0040038D01*
X0396968Y0040314D01*
X0396262Y0040454D01*
X0395902Y0040454D01*
X0395902Y0036800D01*
X0395902Y0036800D01*
X0395902Y0036800D01*
X0395902Y0033146D01*
X0396262Y0033146D01*
X0396968Y0033286D01*
X0397633Y0033562D01*
X0398232Y0033961D01*
X0399265Y0035369D02*
X0408252Y0035369D01*
X0408252Y0036967D02*
X0399557Y0036967D01*
X0399557Y0036800D02*
X0395902Y0036800D01*
X0395902Y0036800D01*
X0399557Y0036800D01*
X0399117Y0038566D02*
X0408252Y0038566D01*
X0408252Y0040164D02*
X0397329Y0040164D01*
X0395902Y0040164D02*
X0395902Y0040164D01*
X0395902Y0038566D02*
X0395902Y0038566D01*
X0395902Y0036967D02*
X0395902Y0036967D01*
X0395902Y0035369D02*
X0395902Y0035369D01*
X0395902Y0033770D02*
X0395902Y0033770D01*
X0393859Y0033770D02*
X0392813Y0033770D01*
X0391348Y0033770D02*
X0389748Y0033770D01*
X0389748Y0032172D02*
X0391348Y0032172D01*
X0391348Y0030573D02*
X0389748Y0030573D01*
X0389748Y0028975D02*
X0391348Y0028975D01*
X0391348Y0027376D02*
X0389748Y0027376D01*
X0389748Y0025778D02*
X0391348Y0025778D01*
X0391348Y0024179D02*
X0389748Y0024179D01*
X0389748Y0022581D02*
X0391348Y0022581D01*
X0391348Y0020982D02*
X0408252Y0020982D01*
X0391348Y0019384D02*
X0389748Y0019384D01*
X0389748Y0017785D02*
X0391348Y0017785D01*
X0391348Y0016187D02*
X0389748Y0016187D01*
X0389748Y0014588D02*
X0391348Y0014588D01*
X0391348Y0012990D02*
X0389748Y0012990D01*
X0389748Y0011391D02*
X0391348Y0011391D01*
X0391348Y0009793D02*
X0389748Y0009793D01*
X0390352Y0035369D02*
X0392540Y0035369D01*
X0392248Y0036967D02*
X0391950Y0036967D01*
X0396746Y0041763D02*
X0408252Y0041763D01*
X0408252Y0043361D02*
X0398344Y0043361D01*
X0399025Y0044960D02*
X0408252Y0044960D01*
X0408252Y0046558D02*
X0399025Y0046558D01*
X0399025Y0048157D02*
X0408252Y0048157D01*
X0408252Y0049755D02*
X0399025Y0049755D01*
X0399025Y0051354D02*
X0408252Y0051354D01*
X0408252Y0052952D02*
X0399025Y0052952D01*
X0399025Y0054551D02*
X0408252Y0054551D01*
X0408252Y0056149D02*
X0399025Y0056149D01*
X0399025Y0057748D02*
X0408252Y0057748D01*
X0408252Y0059346D02*
X0399025Y0059346D01*
X0399025Y0060945D02*
X0408252Y0060945D01*
X0408252Y0062543D02*
X0399025Y0062543D01*
X0399025Y0064142D02*
X0408252Y0064142D01*
X0408252Y0065740D02*
X0399025Y0065740D01*
X0399025Y0067339D02*
X0408252Y0067339D01*
X0408252Y0068937D02*
X0399025Y0068937D01*
X0399025Y0070536D02*
X0408252Y0070536D01*
X0408252Y0072134D02*
X0399025Y0072134D01*
X0399025Y0073733D02*
X0408252Y0073733D01*
X0408252Y0075332D02*
X0399025Y0075332D01*
X0399025Y0076930D02*
X0408252Y0076930D01*
X0408252Y0078529D02*
X0398165Y0078529D01*
X0396566Y0080127D02*
X0408252Y0080127D01*
X0408252Y0081726D02*
X0394968Y0081726D01*
X0393369Y0083324D02*
X0408252Y0083324D01*
X0408252Y0084923D02*
X0394590Y0084923D01*
X0393023Y0084923D02*
X0391771Y0084923D01*
X0391423Y0086521D02*
X0393023Y0086521D01*
X0393023Y0088120D02*
X0391423Y0088120D01*
X0391423Y0089718D02*
X0393023Y0089718D01*
X0393023Y0091317D02*
X0408252Y0091317D01*
X0408252Y0092915D02*
X0399441Y0092915D01*
X0399013Y0094514D02*
X0408252Y0094514D01*
X0408252Y0096112D02*
X0398141Y0096112D01*
X0396557Y0097711D02*
X0408252Y0097711D01*
X0408252Y0099309D02*
X0383277Y0099309D01*
X0383277Y0097711D02*
X0387890Y0097711D01*
X0388161Y0097919D02*
X0387402Y0097337D01*
X0386726Y0096660D01*
X0386144Y0095902D01*
X0385665Y0095073D01*
X0385299Y0094190D01*
X0385052Y0093266D01*
X0384969Y0092639D01*
X0391423Y0092639D01*
X0391423Y0099093D01*
X0390797Y0099011D01*
X0389873Y0098763D01*
X0388989Y0098397D01*
X0388161Y0097919D01*
X0386305Y0096112D02*
X0383277Y0096112D01*
X0383277Y0094514D02*
X0385434Y0094514D01*
X0385006Y0092915D02*
X0383778Y0092915D01*
X0385377Y0091317D02*
X0391423Y0091317D01*
X0391423Y0092915D02*
X0393023Y0092915D01*
X0393023Y0094514D02*
X0391423Y0094514D01*
X0391423Y0096112D02*
X0393023Y0096112D01*
X0393023Y0097711D02*
X0391423Y0097711D01*
X0383277Y0100908D02*
X0408252Y0100908D01*
X0408252Y0102506D02*
X0383277Y0102506D01*
X0383277Y0104105D02*
X0408252Y0104105D01*
X0408252Y0105703D02*
X0383277Y0105703D01*
X0383277Y0107302D02*
X0408252Y0107302D01*
X0408252Y0108900D02*
X0383277Y0108900D01*
X0383277Y0110499D02*
X0408252Y0110499D01*
X0408252Y0112097D02*
X0383277Y0112097D01*
X0378134Y0096112D02*
X0294951Y0096112D01*
X0296550Y0094514D02*
X0378134Y0094514D01*
X0378134Y0092915D02*
X0298148Y0092915D01*
X0299747Y0091317D02*
X0378350Y0091317D01*
X0379702Y0089718D02*
X0301345Y0089718D01*
X0302944Y0088120D02*
X0381300Y0088120D01*
X0397223Y0086521D02*
X0408252Y0086521D01*
X0408252Y0088120D02*
X0398500Y0088120D01*
X0399208Y0089718D02*
X0408252Y0089718D01*
X0393882Y0067339D02*
X0375977Y0067339D01*
X0377575Y0065740D02*
X0393882Y0065740D01*
X0393882Y0064142D02*
X0379174Y0064142D01*
X0380772Y0062543D02*
X0393882Y0062543D01*
X0393882Y0060945D02*
X0382371Y0060945D01*
X0383969Y0059346D02*
X0386395Y0059346D01*
X0341254Y0081726D02*
X0340550Y0081726D01*
X0333774Y0081726D02*
X0314478Y0081726D01*
X0314200Y0080127D02*
X0332622Y0080127D01*
X0332622Y0078529D02*
X0312996Y0078529D01*
X0310904Y0076930D02*
X0310196Y0076930D01*
X0308651Y0078529D02*
X0308598Y0078529D01*
X0309478Y0084923D02*
X0306141Y0084923D01*
X0316649Y0076930D02*
X0332622Y0076930D01*
X0332622Y0075332D02*
X0317431Y0075332D01*
X0318315Y0073733D02*
X0332622Y0073733D01*
X0333514Y0072134D02*
X0319913Y0072134D01*
X0329032Y0060945D02*
X0329032Y0060945D01*
X0329032Y0059346D02*
X0329032Y0059346D01*
X0329032Y0058887D02*
X0329032Y0058887D01*
X0329032Y0057748D02*
X0329032Y0057748D01*
X0329032Y0056149D02*
X0329032Y0056149D01*
X0271021Y0011391D02*
X0224697Y0011391D01*
X0218801Y0011391D02*
X0216768Y0011391D01*
X0215169Y0009793D02*
X0272619Y0009793D01*
X0274218Y0008194D02*
X0213571Y0008194D01*
X0206382Y0014588D02*
X0205423Y0014588D01*
X0205423Y0016187D02*
X0206382Y0016187D01*
X0210836Y0019384D02*
X0217487Y0019384D01*
X0217908Y0020982D02*
X0210809Y0020982D01*
X0210836Y0022581D02*
X0219153Y0022581D01*
X0222705Y0024179D02*
X0210836Y0024179D01*
X0210836Y0025778D02*
X0222705Y0025778D01*
X0222705Y0027376D02*
X0210836Y0027376D01*
X0210781Y0028975D02*
X0222705Y0028975D01*
X0222705Y0030573D02*
X0217304Y0030573D01*
X0218021Y0032172D02*
X0222705Y0032172D01*
X0222705Y0033770D02*
X0217922Y0033770D01*
X0216970Y0035369D02*
X0222705Y0035369D01*
X0222705Y0036967D02*
X0214419Y0036967D01*
X0212821Y0038566D02*
X0222705Y0038566D01*
X0222705Y0040164D02*
X0211222Y0040164D01*
X0209624Y0041763D02*
X0218455Y0041763D01*
X0217328Y0043361D02*
X0208982Y0043361D01*
X0210836Y0044960D02*
X0217110Y0044960D01*
X0217668Y0046558D02*
X0210836Y0046558D01*
X0210836Y0048157D02*
X0219839Y0048157D01*
X0220764Y0048157D02*
X0220764Y0048157D01*
X0221690Y0048157D02*
X0222705Y0048157D01*
X0222705Y0049755D02*
X0210836Y0049755D01*
X0210836Y0051354D02*
X0222705Y0051354D01*
X0222705Y0052952D02*
X0210836Y0052952D01*
X0210836Y0054551D02*
X0222705Y0054551D01*
X0222705Y0056149D02*
X0210836Y0056149D01*
X0210836Y0056020D02*
X0210836Y0058360D01*
X0210701Y0058864D01*
X0210440Y0059316D01*
X0210071Y0059684D01*
X0209620Y0059945D01*
X0209116Y0060080D01*
X0206382Y0060080D01*
X0206382Y0056020D01*
X0210836Y0056020D01*
X0210836Y0057748D02*
X0222705Y0057748D01*
X0222705Y0059346D02*
X0210409Y0059346D01*
X0206382Y0059346D02*
X0205423Y0059346D01*
X0205423Y0057748D02*
X0206382Y0057748D01*
X0206382Y0056149D02*
X0205423Y0056149D01*
X0200968Y0056149D02*
X0193415Y0056149D01*
X0192939Y0054551D02*
X0194528Y0054551D01*
X0193294Y0052952D02*
X0190924Y0052952D01*
X0188597Y0052952D02*
X0134179Y0052952D01*
X0135707Y0054551D02*
X0186582Y0054551D01*
X0186106Y0056149D02*
X0180412Y0056149D01*
X0182011Y0057748D02*
X0186353Y0057748D01*
X0187513Y0059346D02*
X0183609Y0059346D01*
X0185208Y0060945D02*
X0190643Y0060945D01*
X0192241Y0062543D02*
X0186806Y0062543D01*
X0188405Y0064142D02*
X0193840Y0064142D01*
X0195438Y0065740D02*
X0190003Y0065740D01*
X0191602Y0067339D02*
X0197037Y0067339D01*
X0198635Y0068937D02*
X0193201Y0068937D01*
X0194799Y0070536D02*
X0200234Y0070536D01*
X0200968Y0072134D02*
X0196398Y0072134D01*
X0197996Y0073733D02*
X0200968Y0073733D01*
X0200968Y0075332D02*
X0199595Y0075332D01*
X0201193Y0076930D02*
X0201199Y0076930D01*
X0201283Y0084234D02*
X0200732Y0085563D01*
X0199705Y0086591D01*
X0198361Y0087147D01*
X0196908Y0087147D01*
X0195564Y0086591D01*
X0194537Y0085563D01*
X0193980Y0084220D01*
X0193980Y0083475D01*
X0185743Y0075238D01*
X0110117Y0075238D01*
X0093687Y0091668D01*
X0094809Y0092133D01*
X0096142Y0093465D01*
X0096863Y0095206D01*
X0096863Y0097091D01*
X0096142Y0098832D01*
X0094809Y0100164D01*
X0093068Y0100886D01*
X0091184Y0100886D01*
X0089443Y0100164D01*
X0088110Y0098832D01*
X0087645Y0097710D01*
X0082364Y0102991D01*
X0082628Y0102882D01*
X0083334Y0102741D01*
X0083694Y0102741D01*
X0084054Y0102741D01*
X0084760Y0102882D01*
X0085425Y0103157D01*
X0086023Y0103557D01*
X0086532Y0104066D01*
X0086932Y0104665D01*
X0087208Y0105330D01*
X0087348Y0106036D01*
X0087348Y0106396D01*
X0087348Y0106756D01*
X0087208Y0107462D01*
X0086932Y0108127D01*
X0086532Y0108725D01*
X0086023Y0109234D01*
X0085425Y0109634D01*
X0084760Y0109910D01*
X0084054Y0110050D01*
X0083694Y0110050D01*
X0083694Y0106396D01*
X0083694Y0106396D01*
X0087348Y0106396D01*
X0083694Y0106396D01*
X0083694Y0106396D01*
X0083694Y0110050D01*
X0083334Y0110050D01*
X0082628Y0109910D01*
X0081963Y0109634D01*
X0081364Y0109234D01*
X0080855Y0108725D01*
X0080455Y0108127D01*
X0080180Y0107462D01*
X0080039Y0106756D01*
X0080039Y0106396D01*
X0083694Y0106396D01*
X0083694Y0106396D01*
X0083694Y0102741D01*
X0083694Y0106396D01*
X0083694Y0106396D01*
X0080039Y0106396D01*
X0080039Y0106036D01*
X0080180Y0105330D01*
X0080289Y0105066D01*
X0070285Y0115070D01*
X0070285Y0162576D01*
X0070431Y0162516D01*
X0071885Y0162516D01*
X0073228Y0163072D01*
X0074256Y0164100D01*
X0074812Y0165443D01*
X0074812Y0166188D01*
X0082231Y0173606D01*
X0085942Y0169895D01*
X0086887Y0169504D01*
X0117622Y0169504D01*
X0117622Y0168742D01*
X0115430Y0168742D01*
X0114485Y0168350D01*
X0113761Y0167627D01*
X0113761Y0167627D01*
X0100966Y0154832D01*
X0100575Y0153886D01*
X0100575Y0106603D01*
X0100966Y0105658D01*
X0108664Y0097961D01*
X0108199Y0097650D01*
X0107690Y0097141D01*
X0107379Y0096676D01*
X0107293Y0096763D01*
X0107293Y0097507D01*
X0106736Y0098850D01*
X0105708Y0099878D01*
X0104365Y0100435D01*
X0102912Y0100435D01*
X0101568Y0099878D01*
X0100540Y0098850D01*
X0099984Y0097507D01*
X0099984Y0096053D01*
X0100540Y0094710D01*
X0101568Y0093682D01*
X0102912Y0093126D01*
X0103656Y0093126D01*
X0106874Y0089908D01*
X0106874Y0089164D01*
X0107430Y0087821D01*
X0108458Y0086793D01*
X0109801Y0086236D01*
X0111255Y0086236D01*
X0112598Y0086793D01*
X0113626Y0087821D01*
X0114183Y0089164D01*
X0114183Y0090617D01*
X0113626Y0091961D01*
X0113236Y0092351D01*
X0113367Y0092482D01*
X0113677Y0092947D01*
X0117438Y0089187D01*
X0118383Y0088795D01*
X0203182Y0088795D01*
X0202411Y0088024D01*
X0201854Y0086680D01*
X0201854Y0085227D01*
X0201978Y0084929D01*
X0201283Y0084234D01*
X0200998Y0084923D02*
X0201971Y0084923D01*
X0201854Y0086521D02*
X0199774Y0086521D01*
X0202507Y0088120D02*
X0113750Y0088120D01*
X0114183Y0089718D02*
X0116906Y0089718D01*
X0115308Y0091317D02*
X0113893Y0091317D01*
X0113709Y0092915D02*
X0113656Y0092915D01*
X0110528Y0094812D02*
X0110528Y0096096D01*
X0110528Y0096096D01*
X0110528Y0094812D01*
X0110528Y0094812D01*
X0108289Y0097711D02*
X0107208Y0097711D01*
X0107315Y0099309D02*
X0106278Y0099309D01*
X0105717Y0100908D02*
X0084447Y0100908D01*
X0082849Y0102506D02*
X0104118Y0102506D01*
X0102520Y0104105D02*
X0086558Y0104105D01*
X0087282Y0105703D02*
X0100948Y0105703D01*
X0100575Y0107302D02*
X0087239Y0107302D01*
X0086357Y0108900D02*
X0100575Y0108900D01*
X0100575Y0110499D02*
X0074856Y0110499D01*
X0073258Y0112097D02*
X0100575Y0112097D01*
X0100575Y0113696D02*
X0094591Y0113696D01*
X0094809Y0113786D02*
X0096142Y0115119D01*
X0096863Y0116860D01*
X0096863Y0118744D01*
X0096142Y0120485D01*
X0094809Y0121818D01*
X0093068Y0122539D01*
X0091184Y0122539D01*
X0089443Y0121818D01*
X0088110Y0120485D01*
X0087389Y0118744D01*
X0087389Y0116860D01*
X0088110Y0115119D01*
X0089443Y0113786D01*
X0091184Y0113065D01*
X0093068Y0113065D01*
X0094809Y0113786D01*
X0096214Y0115294D02*
X0100575Y0115294D01*
X0100575Y0116893D02*
X0096863Y0116893D01*
X0096863Y0118491D02*
X0100575Y0118491D01*
X0100575Y0120090D02*
X0096305Y0120090D01*
X0094939Y0121688D02*
X0100575Y0121688D01*
X0100575Y0123287D02*
X0070285Y0123287D01*
X0070285Y0124885D02*
X0100575Y0124885D01*
X0100575Y0126484D02*
X0070285Y0126484D01*
X0070285Y0128082D02*
X0100575Y0128082D01*
X0100575Y0129681D02*
X0070285Y0129681D01*
X0070285Y0131279D02*
X0100575Y0131279D01*
X0100575Y0132878D02*
X0070285Y0132878D01*
X0070285Y0134476D02*
X0100575Y0134476D01*
X0100575Y0136075D02*
X0070285Y0136075D01*
X0070285Y0137673D02*
X0100575Y0137673D01*
X0100575Y0139272D02*
X0070285Y0139272D01*
X0070285Y0140870D02*
X0100575Y0140870D01*
X0100575Y0142469D02*
X0070285Y0142469D01*
X0070285Y0144068D02*
X0100575Y0144068D01*
X0100575Y0145666D02*
X0070285Y0145666D01*
X0070285Y0147265D02*
X0100575Y0147265D01*
X0100575Y0148863D02*
X0070285Y0148863D01*
X0070285Y0150462D02*
X0100575Y0150462D01*
X0100575Y0152060D02*
X0098633Y0152060D01*
X0098586Y0152013D02*
X0099095Y0152522D01*
X0099495Y0153120D01*
X0099770Y0153785D01*
X0099911Y0154491D01*
X0099911Y0154851D01*
X0096257Y0154851D01*
X0096257Y0154851D01*
X0099911Y0154851D01*
X0099911Y0155211D01*
X0099770Y0155917D01*
X0099495Y0156582D01*
X0099095Y0157181D01*
X0098586Y0157690D01*
X0097988Y0158090D01*
X0097322Y0158365D01*
X0096616Y0158505D01*
X0096257Y0158505D01*
X0096257Y0154851D01*
X0096257Y0151197D01*
X0096616Y0151197D01*
X0097322Y0151337D01*
X0097988Y0151613D01*
X0098586Y0152013D01*
X0099718Y0153659D02*
X0100575Y0153659D01*
X0099902Y0155257D02*
X0101392Y0155257D01*
X0102990Y0156856D02*
X0099312Y0156856D01*
X0096875Y0158454D02*
X0104589Y0158454D01*
X0106187Y0160053D02*
X0070285Y0160053D01*
X0070285Y0161651D02*
X0107786Y0161651D01*
X0109384Y0163250D02*
X0073406Y0163250D01*
X0074566Y0164848D02*
X0110983Y0164848D01*
X0112581Y0166447D02*
X0075072Y0166447D01*
X0076670Y0168045D02*
X0114180Y0168045D01*
X0117007Y0159661D02*
X0127622Y0159661D01*
X0127622Y0153027D01*
X0128782Y0151866D01*
X0129201Y0151866D01*
X0129201Y0151305D01*
X0129654Y0150210D01*
X0140027Y0139837D01*
X0140027Y0138018D01*
X0140481Y0136922D01*
X0142185Y0135219D01*
X0142044Y0135277D01*
X0135836Y0135277D01*
X0135836Y0136439D01*
X0135476Y0136800D01*
X0135836Y0137160D01*
X0135836Y0143920D01*
X0134676Y0145080D01*
X0127129Y0145080D01*
X0126061Y0144013D01*
X0125527Y0144234D01*
X0124073Y0144234D01*
X0122730Y0143678D01*
X0121702Y0142650D01*
X0121146Y0141306D01*
X0121146Y0139853D01*
X0121702Y0138510D01*
X0122730Y0137482D01*
X0124073Y0136925D01*
X0125527Y0136925D01*
X0126005Y0137123D01*
X0126329Y0136800D01*
X0125968Y0136439D01*
X0125968Y0136177D01*
X0125527Y0136360D01*
X0124073Y0136360D01*
X0122730Y0135803D01*
X0121702Y0134776D01*
X0121146Y0133432D01*
X0121146Y0131979D01*
X0121702Y0130635D01*
X0122730Y0129608D01*
X0124073Y0129051D01*
X0125527Y0129051D01*
X0126284Y0129365D01*
X0127129Y0128520D01*
X0134676Y0128520D01*
X0135836Y0129680D01*
X0135836Y0130134D01*
X0140467Y0130134D01*
X0153134Y0117467D01*
X0153134Y0116723D01*
X0153690Y0115380D01*
X0154718Y0114352D01*
X0156061Y0113795D01*
X0157515Y0113795D01*
X0157622Y0113840D01*
X0157622Y0113541D01*
X0155530Y0113541D01*
X0155413Y0113658D01*
X0154070Y0114214D01*
X0152616Y0114214D01*
X0151273Y0113658D01*
X0151156Y0113541D01*
X0150836Y0113541D01*
X0150836Y0113920D01*
X0149676Y0115080D01*
X0142129Y0115080D01*
X0140968Y0113920D01*
X0140968Y0107160D01*
X0141338Y0106791D01*
X0141103Y0106384D01*
X0140968Y0105880D01*
X0140968Y0103539D01*
X0145423Y0103539D01*
X0145423Y0102580D01*
X0146382Y0102580D01*
X0146382Y0098520D01*
X0149116Y0098520D01*
X0149620Y0098655D01*
X0150071Y0098916D01*
X0150440Y0099284D01*
X0150701Y0099736D01*
X0150836Y0100240D01*
X0150836Y0102580D01*
X0146382Y0102580D01*
X0146382Y0103539D01*
X0150836Y0103539D01*
X0150836Y0105880D01*
X0150701Y0106384D01*
X0150466Y0106791D01*
X0150836Y0107160D01*
X0150836Y0107579D01*
X0151156Y0107579D01*
X0151273Y0107462D01*
X0152616Y0106906D01*
X0154070Y0106906D01*
X0155413Y0107462D01*
X0155530Y0107579D01*
X0158070Y0107579D01*
X0158782Y0106866D01*
X0165542Y0106866D01*
X0165902Y0107227D01*
X0166263Y0106866D01*
X0173022Y0106866D01*
X0174183Y0108027D01*
X0174183Y0108071D01*
X0174254Y0108071D01*
X0180693Y0101632D01*
X0180693Y0101467D01*
X0181249Y0100124D01*
X0182277Y0099096D01*
X0183620Y0098539D01*
X0185074Y0098539D01*
X0186417Y0099096D01*
X0186965Y0099644D01*
X0187020Y0099666D01*
X0187859Y0100505D01*
X0199672Y0112319D01*
X0199838Y0112319D01*
X0201181Y0112875D01*
X0202209Y0113903D01*
X0202765Y0115246D01*
X0202765Y0116700D01*
X0202209Y0118043D01*
X0201181Y0119071D01*
X0199838Y0119628D01*
X0198384Y0119628D01*
X0197041Y0119071D01*
X0196013Y0118043D01*
X0195457Y0116700D01*
X0195457Y0116535D01*
X0184839Y0105917D01*
X0178016Y0112741D01*
X0177177Y0113579D01*
X0176082Y0114033D01*
X0174183Y0114033D01*
X0174183Y0115573D01*
X0173022Y0116734D01*
X0172564Y0116734D01*
X0172564Y0117550D01*
X0172111Y0118646D01*
X0171966Y0118791D01*
X0173130Y0119273D01*
X0174158Y0120301D01*
X0174714Y0121644D01*
X0174714Y0123098D01*
X0174539Y0123520D01*
X0174676Y0123520D01*
X0175836Y0124680D01*
X0175836Y0128490D01*
X0175856Y0128460D01*
X0176365Y0127951D01*
X0176964Y0127551D01*
X0177629Y0127276D01*
X0178335Y0127135D01*
X0178695Y0127135D01*
X0179055Y0127135D01*
X0179761Y0127276D01*
X0180426Y0127551D01*
X0181024Y0127951D01*
X0181533Y0128460D01*
X0181933Y0129059D01*
X0182209Y0129724D01*
X0182349Y0130430D01*
X0182349Y0130789D01*
X0178695Y0130789D01*
X0178695Y0127135D01*
X0178695Y0130789D01*
X0178695Y0130789D01*
X0178695Y0130790D01*
X0182349Y0130790D01*
X0182349Y0131149D01*
X0182209Y0131855D01*
X0181933Y0132520D01*
X0181555Y0133087D01*
X0193562Y0133087D01*
X0194088Y0132560D01*
X0195431Y0132004D01*
X0196885Y0132004D01*
X0197427Y0132229D01*
X0200667Y0128989D01*
X0200486Y0128914D01*
X0199458Y0127886D01*
X0198901Y0126543D01*
X0198901Y0125089D01*
X0199458Y0123746D01*
X0200486Y0122718D01*
X0201829Y0122161D01*
X0202573Y0122161D01*
X0220784Y0103951D01*
X0221729Y0103559D01*
X0223016Y0103559D01*
X0223016Y0103160D01*
X0219699Y0099844D01*
X0218932Y0099844D01*
X0218405Y0100370D01*
X0217062Y0100927D01*
X0215608Y0100927D01*
X0214265Y0100370D01*
X0213237Y0099342D01*
X0212681Y0097999D01*
X0212681Y0096546D01*
X0212742Y0096399D01*
X0159942Y0096399D01*
X0160026Y0096526D01*
X0160302Y0097191D01*
X0160442Y0097897D01*
X0160442Y0098257D01*
X0160442Y0098617D01*
X0160302Y0099323D01*
X0160026Y0099988D01*
X0159627Y0100586D01*
X0159118Y0101095D01*
X0158519Y0101495D01*
X0157854Y0101771D01*
X0157148Y0101911D01*
X0156788Y0101911D01*
X0156428Y0101911D01*
X0155722Y0101771D01*
X0155057Y0101495D01*
X0154459Y0101095D01*
X0153950Y0100586D01*
X0153550Y0099988D01*
X0153274Y0099323D01*
X0153134Y0098617D01*
X0153134Y0098257D01*
X0156788Y0098257D01*
X0156788Y0101911D01*
X0156788Y0098257D01*
X0156788Y0098257D01*
X0156788Y0098257D01*
X0160442Y0098257D01*
X0156788Y0098257D01*
X0156788Y0098257D01*
X0153134Y0098257D01*
X0153134Y0097897D01*
X0153274Y0097191D01*
X0153550Y0096526D01*
X0153634Y0096399D01*
X0128818Y0096399D01*
X0115068Y0110149D01*
X0115068Y0115837D01*
X0115595Y0116364D01*
X0116151Y0117707D01*
X0116151Y0119161D01*
X0115595Y0120504D01*
X0114567Y0121532D01*
X0113224Y0122088D01*
X0111770Y0122088D01*
X0110427Y0121532D01*
X0109399Y0120504D01*
X0108842Y0119161D01*
X0108842Y0117707D01*
X0109399Y0116364D01*
X0109925Y0115837D01*
X0109925Y0108572D01*
X0110044Y0108284D01*
X0109462Y0108168D01*
X0108797Y0107893D01*
X0108199Y0107493D01*
X0107690Y0106984D01*
X0107379Y0106519D01*
X0105718Y0108180D01*
X0105718Y0148016D01*
X0106356Y0147752D01*
X0107810Y0147752D01*
X0109153Y0148308D01*
X0110181Y0149336D01*
X0110738Y0150679D01*
X0110738Y0152133D01*
X0110369Y0153023D01*
X0110968Y0153623D01*
X0110968Y0147160D01*
X0111329Y0146800D01*
X0110968Y0146439D01*
X0110968Y0139680D01*
X0112129Y0138520D01*
X0113370Y0138520D01*
X0113370Y0128257D01*
X0113761Y0127312D01*
X0121146Y0119928D01*
X0121146Y0118691D01*
X0121702Y0117348D01*
X0122730Y0116320D01*
X0124073Y0115764D01*
X0125309Y0115764D01*
X0126561Y0114512D01*
X0125968Y0113920D01*
X0125968Y0107160D01*
X0126338Y0106791D01*
X0126103Y0106384D01*
X0125968Y0105880D01*
X0125968Y0103539D01*
X0130423Y0103539D01*
X0130423Y0102580D01*
X0131382Y0102580D01*
X0131382Y0103539D01*
X0135836Y0103539D01*
X0135836Y0105880D01*
X0135701Y0106384D01*
X0135466Y0106791D01*
X0135836Y0107160D01*
X0135836Y0107621D01*
X0136376Y0107398D01*
X0137830Y0107398D01*
X0139173Y0107954D01*
X0140201Y0108982D01*
X0140757Y0110325D01*
X0140757Y0111779D01*
X0140201Y0113122D01*
X0139173Y0114150D01*
X0137830Y0114706D01*
X0136376Y0114706D01*
X0135438Y0114318D01*
X0134676Y0115080D01*
X0133267Y0115080D01*
X0128454Y0119893D01*
X0128454Y0120145D01*
X0127898Y0121488D01*
X0126870Y0122516D01*
X0125527Y0123072D01*
X0125275Y0123072D01*
X0118513Y0129834D01*
X0118513Y0138520D01*
X0119676Y0138520D01*
X0120836Y0139680D01*
X0120836Y0146439D01*
X0120476Y0146800D01*
X0120836Y0147160D01*
X0120836Y0153920D01*
X0119676Y0155080D01*
X0118888Y0155080D01*
X0119104Y0155601D01*
X0119104Y0157054D01*
X0118547Y0158398D01*
X0117519Y0159426D01*
X0116990Y0159645D01*
X0117007Y0159661D01*
X0118491Y0158454D02*
X0127622Y0158454D01*
X0127622Y0156856D02*
X0119104Y0156856D01*
X0118961Y0155257D02*
X0127622Y0155257D01*
X0127622Y0153659D02*
X0120836Y0153659D01*
X0120836Y0152060D02*
X0128588Y0152060D01*
X0129550Y0150462D02*
X0120836Y0150462D01*
X0120836Y0148863D02*
X0131001Y0148863D01*
X0132600Y0147265D02*
X0120836Y0147265D01*
X0120836Y0145666D02*
X0134198Y0145666D01*
X0135688Y0144068D02*
X0135797Y0144068D01*
X0135836Y0142469D02*
X0137395Y0142469D01*
X0135836Y0140870D02*
X0138994Y0140870D01*
X0140027Y0139272D02*
X0135836Y0139272D01*
X0135836Y0137673D02*
X0140170Y0137673D01*
X0141329Y0136075D02*
X0135836Y0136075D01*
X0135836Y0129681D02*
X0140920Y0129681D01*
X0142518Y0128082D02*
X0120265Y0128082D01*
X0121863Y0126484D02*
X0144117Y0126484D01*
X0145715Y0124885D02*
X0123462Y0124885D01*
X0125060Y0123287D02*
X0147314Y0123287D01*
X0148912Y0121688D02*
X0127698Y0121688D01*
X0128454Y0120090D02*
X0150511Y0120090D01*
X0152109Y0118491D02*
X0129856Y0118491D01*
X0131454Y0116893D02*
X0153134Y0116893D01*
X0153775Y0115294D02*
X0133053Y0115294D01*
X0139627Y0113696D02*
X0140968Y0113696D01*
X0140968Y0112097D02*
X0140625Y0112097D01*
X0140757Y0110499D02*
X0140968Y0110499D01*
X0140968Y0108900D02*
X0140119Y0108900D01*
X0140968Y0107302D02*
X0135836Y0107302D01*
X0135836Y0105703D02*
X0140968Y0105703D01*
X0140968Y0104105D02*
X0135836Y0104105D01*
X0135836Y0102580D02*
X0131382Y0102580D01*
X0131382Y0098520D01*
X0134116Y0098520D01*
X0134620Y0098655D01*
X0135071Y0098916D01*
X0135440Y0099284D01*
X0135701Y0099736D01*
X0135836Y0100240D01*
X0135836Y0102580D01*
X0135836Y0102506D02*
X0140968Y0102506D01*
X0140968Y0102580D02*
X0140968Y0100240D01*
X0141103Y0099736D01*
X0141364Y0099284D01*
X0141733Y0098916D01*
X0142185Y0098655D01*
X0142689Y0098520D01*
X0145423Y0098520D01*
X0145423Y0102580D01*
X0140968Y0102580D01*
X0140968Y0100908D02*
X0135836Y0100908D01*
X0135455Y0099309D02*
X0141350Y0099309D01*
X0145423Y0099309D02*
X0146382Y0099309D01*
X0146382Y0100908D02*
X0145423Y0100908D01*
X0145423Y0102506D02*
X0146382Y0102506D01*
X0150836Y0102506D02*
X0179819Y0102506D01*
X0180924Y0100908D02*
X0159305Y0100908D01*
X0160305Y0099309D02*
X0182064Y0099309D01*
X0186631Y0099309D02*
X0213224Y0099309D01*
X0212681Y0097711D02*
X0160405Y0097711D01*
X0156788Y0099309D02*
X0156788Y0099309D01*
X0156788Y0100908D02*
X0156788Y0100908D01*
X0154271Y0100908D02*
X0150836Y0100908D01*
X0150455Y0099309D02*
X0153271Y0099309D01*
X0153171Y0097711D02*
X0127506Y0097711D01*
X0127689Y0098520D02*
X0130423Y0098520D01*
X0130423Y0102580D01*
X0125968Y0102580D01*
X0125968Y0100240D01*
X0126103Y0099736D01*
X0126364Y0099284D01*
X0126733Y0098916D01*
X0127185Y0098655D01*
X0127689Y0098520D01*
X0126350Y0099309D02*
X0125908Y0099309D01*
X0125968Y0100908D02*
X0124309Y0100908D01*
X0122711Y0102506D02*
X0125968Y0102506D01*
X0125968Y0104105D02*
X0121112Y0104105D01*
X0119514Y0105703D02*
X0125968Y0105703D01*
X0125968Y0107302D02*
X0117915Y0107302D01*
X0116317Y0108900D02*
X0125968Y0108900D01*
X0125968Y0110499D02*
X0115068Y0110499D01*
X0115068Y0112097D02*
X0125968Y0112097D01*
X0125968Y0113696D02*
X0115068Y0113696D01*
X0115068Y0115294D02*
X0125779Y0115294D01*
X0122157Y0116893D02*
X0115814Y0116893D01*
X0116151Y0118491D02*
X0121228Y0118491D01*
X0120983Y0120090D02*
X0115766Y0120090D01*
X0114189Y0121688D02*
X0119385Y0121688D01*
X0117786Y0123287D02*
X0105718Y0123287D01*
X0105718Y0124885D02*
X0116188Y0124885D01*
X0114589Y0126484D02*
X0105718Y0126484D01*
X0105718Y0128082D02*
X0113442Y0128082D01*
X0113370Y0129681D02*
X0105718Y0129681D01*
X0105718Y0131279D02*
X0113370Y0131279D01*
X0113370Y0132878D02*
X0105718Y0132878D01*
X0105718Y0134476D02*
X0113370Y0134476D01*
X0113370Y0136075D02*
X0105718Y0136075D01*
X0105718Y0137673D02*
X0113370Y0137673D01*
X0111377Y0139272D02*
X0105718Y0139272D01*
X0105718Y0140870D02*
X0110968Y0140870D01*
X0110968Y0142469D02*
X0105718Y0142469D01*
X0105718Y0144068D02*
X0110968Y0144068D01*
X0110968Y0145666D02*
X0105718Y0145666D01*
X0105718Y0147265D02*
X0110968Y0147265D01*
X0110968Y0148863D02*
X0109708Y0148863D01*
X0110647Y0150462D02*
X0110968Y0150462D01*
X0110968Y0152060D02*
X0110738Y0152060D01*
X0120836Y0144068D02*
X0123671Y0144068D01*
X0125928Y0144068D02*
X0126116Y0144068D01*
X0121627Y0142469D02*
X0120836Y0142469D01*
X0120836Y0140870D02*
X0121146Y0140870D01*
X0121386Y0139272D02*
X0120428Y0139272D01*
X0118513Y0137673D02*
X0122538Y0137673D01*
X0123385Y0136075D02*
X0118513Y0136075D01*
X0118513Y0134476D02*
X0121578Y0134476D01*
X0121146Y0132878D02*
X0118513Y0132878D01*
X0118513Y0131279D02*
X0121435Y0131279D01*
X0122656Y0129681D02*
X0118666Y0129681D01*
X0110805Y0121688D02*
X0105718Y0121688D01*
X0105718Y0120090D02*
X0109227Y0120090D01*
X0108842Y0118491D02*
X0105718Y0118491D01*
X0105718Y0116893D02*
X0109180Y0116893D01*
X0109925Y0115294D02*
X0105718Y0115294D01*
X0105718Y0113696D02*
X0109925Y0113696D01*
X0109925Y0112097D02*
X0105718Y0112097D01*
X0105718Y0110499D02*
X0109925Y0110499D01*
X0109925Y0108900D02*
X0105718Y0108900D01*
X0106596Y0107302D02*
X0108008Y0107302D01*
X0110528Y0107302D02*
X0110528Y0107302D01*
X0110528Y0107415D02*
X0110528Y0104654D01*
X0110528Y0107415D01*
X0110528Y0107415D01*
X0110528Y0105703D02*
X0110528Y0105703D01*
X0110528Y0104654D02*
X0110528Y0104654D01*
X0100999Y0099309D02*
X0095664Y0099309D01*
X0096606Y0097711D02*
X0100068Y0097711D01*
X0099984Y0096112D02*
X0096863Y0096112D01*
X0096576Y0094514D02*
X0100737Y0094514D01*
X0103867Y0092915D02*
X0095592Y0092915D01*
X0094038Y0091317D02*
X0105465Y0091317D01*
X0106874Y0089718D02*
X0095637Y0089718D01*
X0097235Y0088120D02*
X0107306Y0088120D01*
X0109114Y0086521D02*
X0098834Y0086521D01*
X0100432Y0084923D02*
X0194271Y0084923D01*
X0193829Y0083324D02*
X0102031Y0083324D01*
X0103629Y0081726D02*
X0192230Y0081726D01*
X0190632Y0080127D02*
X0105228Y0080127D01*
X0106826Y0078529D02*
X0189033Y0078529D01*
X0187435Y0076930D02*
X0108425Y0076930D01*
X0110023Y0075332D02*
X0185836Y0075332D01*
X0184769Y0068937D02*
X0143633Y0068937D01*
X0143461Y0069109D02*
X0142933Y0069493D01*
X0142352Y0069789D01*
X0141731Y0069991D01*
X0141086Y0070093D01*
X0140760Y0070093D01*
X0140434Y0070093D01*
X0139789Y0069991D01*
X0139168Y0069789D01*
X0138587Y0069493D01*
X0138059Y0069109D01*
X0137597Y0068648D01*
X0137214Y0068120D01*
X0136917Y0067538D01*
X0136716Y0066917D01*
X0136614Y0066273D01*
X0136614Y0065946D01*
X0136614Y0065620D01*
X0136716Y0064975D01*
X0136917Y0064355D01*
X0137214Y0063773D01*
X0137597Y0063245D01*
X0138059Y0062784D01*
X0138587Y0062400D01*
X0139168Y0062104D01*
X0139789Y0061902D01*
X0140434Y0061800D01*
X0140760Y0061800D01*
X0140760Y0065946D01*
X0140760Y0065946D01*
X0140760Y0061800D01*
X0141086Y0061800D01*
X0141731Y0061902D01*
X0142352Y0062104D01*
X0142933Y0062400D01*
X0143461Y0062784D01*
X0143923Y0063245D01*
X0144306Y0063773D01*
X0144603Y0064355D01*
X0144804Y0064975D01*
X0144906Y0065620D01*
X0144906Y0065946D01*
X0140760Y0065946D01*
X0136614Y0065946D01*
X0140760Y0065946D01*
X0140760Y0065946D01*
X0140760Y0065946D01*
X0144906Y0065946D01*
X0144906Y0066273D01*
X0144804Y0066917D01*
X0144603Y0067538D01*
X0144306Y0068120D01*
X0143923Y0068648D01*
X0143461Y0069109D01*
X0144667Y0067339D02*
X0183170Y0067339D01*
X0181572Y0065740D02*
X0144906Y0065740D01*
X0144494Y0064142D02*
X0179973Y0064142D01*
X0178375Y0062543D02*
X0143131Y0062543D01*
X0140760Y0062543D02*
X0140760Y0062543D01*
X0140760Y0064142D02*
X0140760Y0064142D01*
X0140760Y0065740D02*
X0140760Y0065740D01*
X0140760Y0065947D02*
X0140760Y0070093D01*
X0140760Y0065947D01*
X0140760Y0065947D01*
X0140760Y0067339D02*
X0140760Y0067339D01*
X0140760Y0068937D02*
X0140760Y0068937D01*
X0137887Y0068937D02*
X0135659Y0068937D01*
X0135836Y0067339D02*
X0136853Y0067339D01*
X0136614Y0065740D02*
X0131382Y0065740D01*
X0130423Y0065740D02*
X0090954Y0065740D01*
X0090954Y0064142D02*
X0125968Y0064142D01*
X0126016Y0062543D02*
X0090954Y0062543D01*
X0090954Y0060945D02*
X0125968Y0060945D01*
X0125968Y0059346D02*
X0090954Y0059346D01*
X0090954Y0057748D02*
X0125968Y0057748D01*
X0125968Y0056149D02*
X0090954Y0056149D01*
X0090954Y0054551D02*
X0125636Y0054551D01*
X0125083Y0052952D02*
X0090954Y0052952D01*
X0090954Y0051354D02*
X0125252Y0051354D01*
X0126302Y0049755D02*
X0090954Y0049755D01*
X0090954Y0048157D02*
X0127622Y0048157D01*
X0127622Y0046558D02*
X0090954Y0046558D01*
X0090954Y0044960D02*
X0127622Y0044960D01*
X0137272Y0041763D02*
X0141240Y0041763D01*
X0142838Y0040164D02*
X0138952Y0040164D01*
X0139614Y0038566D02*
X0144437Y0038566D01*
X0146035Y0036967D02*
X0139665Y0036967D01*
X0139209Y0035369D02*
X0147634Y0035369D01*
X0149232Y0033770D02*
X0138034Y0033770D01*
X0136285Y0032172D02*
X0150831Y0032172D01*
X0149872Y0030573D02*
X0138603Y0030573D01*
X0139444Y0028975D02*
X0149017Y0028975D01*
X0149069Y0025778D02*
X0139378Y0025778D01*
X0139665Y0027376D02*
X0155626Y0027376D01*
X0156622Y0025778D02*
X0156822Y0025778D01*
X0156822Y0024179D02*
X0156622Y0024179D01*
X0156622Y0022581D02*
X0156822Y0022581D01*
X0152802Y0022581D02*
X0135899Y0022581D01*
X0138443Y0024179D02*
X0150000Y0024179D01*
X0162900Y0027376D02*
X0179165Y0027376D01*
X0178788Y0027000D02*
X0178232Y0025657D01*
X0178232Y0024203D01*
X0178788Y0022860D01*
X0179816Y0021832D01*
X0181160Y0021276D01*
X0182613Y0021276D01*
X0183956Y0021832D01*
X0184483Y0022358D01*
X0185804Y0022358D01*
X0186827Y0022358D01*
X0187772Y0022750D01*
X0194172Y0029150D01*
X0194917Y0029150D01*
X0196260Y0029706D01*
X0197288Y0030734D01*
X0197844Y0032077D01*
X0197844Y0033531D01*
X0197288Y0034874D01*
X0196260Y0035902D01*
X0194917Y0036458D01*
X0193463Y0036458D01*
X0192120Y0035902D01*
X0191092Y0034874D01*
X0190535Y0033531D01*
X0190535Y0032786D01*
X0185250Y0027502D01*
X0184483Y0027502D01*
X0183956Y0028028D01*
X0182613Y0028584D01*
X0181160Y0028584D01*
X0179816Y0028028D01*
X0178788Y0027000D01*
X0178282Y0025778D02*
X0164498Y0025778D01*
X0164427Y0028975D02*
X0186724Y0028975D01*
X0188322Y0030573D02*
X0163572Y0030573D01*
X0161248Y0032172D02*
X0189921Y0032172D01*
X0190634Y0033770D02*
X0163035Y0033770D01*
X0164210Y0035369D02*
X0191586Y0035369D01*
X0196793Y0035369D02*
X0203020Y0035369D01*
X0203020Y0036967D02*
X0164665Y0036967D01*
X0164614Y0038566D02*
X0203020Y0038566D01*
X0203020Y0040164D02*
X0163952Y0040164D01*
X0162272Y0041763D02*
X0203020Y0041763D01*
X0203020Y0043361D02*
X0146915Y0043361D01*
X0148513Y0041763D02*
X0151172Y0041763D01*
X0145316Y0044960D02*
X0200968Y0044960D01*
X0197381Y0046558D02*
X0144183Y0046558D01*
X0144183Y0048157D02*
X0195184Y0048157D01*
X0193419Y0049755D02*
X0144183Y0049755D01*
X0143402Y0051354D02*
X0192996Y0051354D01*
X0198772Y0054551D02*
X0200968Y0054551D01*
X0200968Y0052952D02*
X0200006Y0052952D01*
X0200968Y0057748D02*
X0194719Y0057748D01*
X0196318Y0059346D02*
X0201395Y0059346D01*
X0199515Y0062543D02*
X0221258Y0062543D01*
X0222705Y0060945D02*
X0197916Y0060945D01*
X0201113Y0064142D02*
X0219659Y0064142D01*
X0218061Y0065740D02*
X0202712Y0065740D01*
X0204310Y0067339D02*
X0216462Y0067339D01*
X0214864Y0068937D02*
X0210093Y0068937D01*
X0210836Y0070536D02*
X0213265Y0070536D01*
X0211667Y0072134D02*
X0210836Y0072134D01*
X0195495Y0086521D02*
X0111943Y0086521D01*
X0101151Y0076930D02*
X0090954Y0076930D01*
X0090954Y0075332D02*
X0102750Y0075332D01*
X0104348Y0073733D02*
X0090954Y0073733D01*
X0090954Y0072134D02*
X0105947Y0072134D01*
X0107545Y0070536D02*
X0090954Y0070536D01*
X0090954Y0068937D02*
X0126146Y0068937D01*
X0125968Y0067339D02*
X0090954Y0067339D01*
X0090954Y0078529D02*
X0099553Y0078529D01*
X0097954Y0080127D02*
X0090954Y0080127D01*
X0090954Y0081726D02*
X0096356Y0081726D01*
X0094757Y0083324D02*
X0090954Y0083324D01*
X0090954Y0084923D02*
X0093159Y0084923D01*
X0091560Y0086521D02*
X0090954Y0086521D01*
X0087646Y0097711D02*
X0087644Y0097711D01*
X0088587Y0099309D02*
X0086046Y0099309D01*
X0083694Y0104105D02*
X0083694Y0104105D01*
X0083694Y0105703D02*
X0083694Y0105703D01*
X0083694Y0107302D02*
X0083694Y0107302D01*
X0083694Y0108900D02*
X0083694Y0108900D01*
X0081030Y0108900D02*
X0076455Y0108900D01*
X0078053Y0107302D02*
X0080148Y0107302D01*
X0080105Y0105703D02*
X0079652Y0105703D01*
X0071659Y0113696D02*
X0089661Y0113696D01*
X0088037Y0115294D02*
X0070285Y0115294D01*
X0070285Y0116893D02*
X0087389Y0116893D01*
X0087389Y0118491D02*
X0070285Y0118491D01*
X0070285Y0120090D02*
X0087946Y0120090D01*
X0089313Y0121688D02*
X0070285Y0121688D01*
X0094526Y0151613D02*
X0095191Y0151337D01*
X0095897Y0151197D01*
X0096256Y0151197D01*
X0096256Y0154851D01*
X0092602Y0154851D01*
X0092602Y0154491D01*
X0092743Y0153785D01*
X0093018Y0153120D01*
X0093418Y0152522D01*
X0093927Y0152013D01*
X0094526Y0151613D01*
X0093880Y0152060D02*
X0070285Y0152060D01*
X0070285Y0153659D02*
X0092795Y0153659D01*
X0092602Y0154851D02*
X0096256Y0154851D01*
X0096256Y0154851D01*
X0096257Y0154851D01*
X0096256Y0154851D01*
X0096256Y0158505D01*
X0095897Y0158505D01*
X0095191Y0158365D01*
X0094526Y0158090D01*
X0093927Y0157690D01*
X0093418Y0157181D01*
X0093018Y0156582D01*
X0092743Y0155917D01*
X0092602Y0155211D01*
X0092602Y0154851D01*
X0092611Y0155257D02*
X0070285Y0155257D01*
X0070285Y0156856D02*
X0093201Y0156856D01*
X0095638Y0158454D02*
X0070285Y0158454D01*
X0078269Y0169644D02*
X0086549Y0169644D01*
X0084595Y0171242D02*
X0079867Y0171242D01*
X0081466Y0172841D02*
X0082996Y0172841D01*
X0096256Y0158454D02*
X0096257Y0158454D01*
X0096256Y0156856D02*
X0096257Y0156856D01*
X0096256Y0155257D02*
X0096257Y0155257D01*
X0096256Y0153659D02*
X0096257Y0153659D01*
X0096256Y0152060D02*
X0096257Y0152060D01*
X0137835Y0150462D02*
X0175336Y0150462D01*
X0177610Y0150462D02*
X0177622Y0150462D01*
X0179315Y0152060D02*
X0143068Y0152060D01*
X0144183Y0153659D02*
X0176990Y0153659D01*
X0175968Y0155257D02*
X0144183Y0155257D01*
X0144183Y0158454D02*
X0175968Y0158454D01*
X0175968Y0156856D02*
X0140122Y0156856D01*
X0140122Y0155257D02*
X0139163Y0155257D01*
X0139163Y0153659D02*
X0140122Y0153659D01*
X0140122Y0152060D02*
X0139163Y0152060D01*
X0139433Y0148863D02*
X0173299Y0148863D01*
X0172819Y0147265D02*
X0141032Y0147265D01*
X0142630Y0145666D02*
X0173061Y0145666D01*
X0174215Y0144068D02*
X0148074Y0144068D01*
X0148011Y0144093D02*
X0147305Y0144234D01*
X0146946Y0144234D01*
X0146946Y0140580D01*
X0150600Y0140580D01*
X0150600Y0140939D01*
X0150459Y0141645D01*
X0150184Y0142310D01*
X0149784Y0142909D01*
X0149275Y0143418D01*
X0148677Y0143818D01*
X0148011Y0144093D01*
X0146946Y0144068D02*
X0146945Y0144068D01*
X0145817Y0144068D02*
X0144229Y0144068D01*
X0144697Y0143599D02*
X0144697Y0143599D01*
X0146945Y0142469D02*
X0146946Y0142469D01*
X0146945Y0140870D02*
X0146946Y0140870D01*
X0150078Y0142469D02*
X0175779Y0142469D01*
X0175041Y0140870D02*
X0150600Y0140870D01*
X0150359Y0139272D02*
X0166321Y0139272D01*
X0165968Y0137673D02*
X0149174Y0137673D01*
X0149761Y0136075D02*
X0165968Y0136075D01*
X0165968Y0134476D02*
X0151359Y0134476D01*
X0152958Y0132878D02*
X0165968Y0132878D01*
X0165968Y0131279D02*
X0154556Y0131279D01*
X0156155Y0129681D02*
X0165968Y0129681D01*
X0165968Y0128082D02*
X0157753Y0128082D01*
X0159352Y0126484D02*
X0165968Y0126484D01*
X0165968Y0124885D02*
X0160950Y0124885D01*
X0162549Y0123287D02*
X0167484Y0123287D01*
X0172175Y0118491D02*
X0196461Y0118491D01*
X0195536Y0116893D02*
X0172564Y0116893D01*
X0174183Y0115294D02*
X0194216Y0115294D01*
X0192618Y0113696D02*
X0176896Y0113696D01*
X0178659Y0112097D02*
X0191019Y0112097D01*
X0189421Y0110499D02*
X0180258Y0110499D01*
X0181856Y0108900D02*
X0187822Y0108900D01*
X0186223Y0107302D02*
X0183455Y0107302D01*
X0178220Y0104105D02*
X0150836Y0104105D01*
X0150836Y0105703D02*
X0176622Y0105703D01*
X0175023Y0107302D02*
X0173458Y0107302D01*
X0188261Y0100908D02*
X0215562Y0100908D01*
X0217108Y0100908D02*
X0220763Y0100908D01*
X0222361Y0102506D02*
X0189860Y0102506D01*
X0191458Y0104105D02*
X0220630Y0104105D01*
X0219031Y0105703D02*
X0193057Y0105703D01*
X0194655Y0107302D02*
X0217433Y0107302D01*
X0215834Y0108900D02*
X0196254Y0108900D01*
X0197852Y0110499D02*
X0214236Y0110499D01*
X0212637Y0112097D02*
X0199451Y0112097D01*
X0202001Y0113696D02*
X0211039Y0113696D01*
X0209440Y0115294D02*
X0202765Y0115294D01*
X0202685Y0116893D02*
X0207842Y0116893D01*
X0206243Y0118491D02*
X0201761Y0118491D01*
X0204645Y0120090D02*
X0173947Y0120090D01*
X0174714Y0121688D02*
X0203046Y0121688D01*
X0199917Y0123287D02*
X0174636Y0123287D01*
X0175836Y0124885D02*
X0198986Y0124885D01*
X0198901Y0126484D02*
X0175836Y0126484D01*
X0175836Y0128082D02*
X0176234Y0128082D01*
X0178695Y0128082D02*
X0178695Y0128082D01*
X0178695Y0129681D02*
X0178695Y0129681D01*
X0181156Y0128082D02*
X0199654Y0128082D01*
X0199975Y0129681D02*
X0182191Y0129681D01*
X0182323Y0131279D02*
X0198376Y0131279D01*
X0193770Y0132878D02*
X0181695Y0132878D01*
X0157622Y0113696D02*
X0155322Y0113696D01*
X0151365Y0113696D02*
X0150836Y0113696D01*
X0150836Y0107302D02*
X0151660Y0107302D01*
X0155027Y0107302D02*
X0158347Y0107302D01*
X0131382Y0102506D02*
X0130423Y0102506D01*
X0130423Y0100908D02*
X0131382Y0100908D01*
X0131382Y0099309D02*
X0130423Y0099309D01*
X0130423Y0068937D02*
X0131382Y0068937D01*
X0131382Y0067339D02*
X0130423Y0067339D01*
X0135836Y0064142D02*
X0137026Y0064142D01*
X0135789Y0062543D02*
X0138389Y0062543D01*
X0135836Y0060945D02*
X0176776Y0060945D01*
X0197745Y0033770D02*
X0203020Y0033770D01*
X0203020Y0032172D02*
X0197844Y0032172D01*
X0197127Y0030573D02*
X0203020Y0030573D01*
X0201023Y0028975D02*
X0193997Y0028975D01*
X0192399Y0027376D02*
X0200968Y0027376D01*
X0200968Y0025778D02*
X0190800Y0025778D01*
X0189202Y0024179D02*
X0200968Y0024179D01*
X0200968Y0022581D02*
X0187364Y0022581D01*
X0179068Y0022581D02*
X0168944Y0022581D01*
X0169301Y0020982D02*
X0200996Y0020982D01*
X0200968Y0019384D02*
X0168935Y0019384D01*
X0167503Y0024179D02*
X0178242Y0024179D01*
X0208982Y0030573D02*
X0211430Y0030573D01*
X0210712Y0032172D02*
X0208982Y0032172D01*
X0208982Y0033770D02*
X0209185Y0033770D01*
X0220764Y0041763D02*
X0220764Y0041763D01*
X0220764Y0043361D02*
X0220764Y0043361D01*
X0220764Y0044960D02*
X0220764Y0044960D01*
X0220764Y0046558D02*
X0220764Y0046558D01*
X0228667Y0044960D02*
X0229578Y0044960D01*
X0228667Y0043361D02*
X0231177Y0043361D01*
X0232775Y0041763D02*
X0228667Y0041763D01*
X0228667Y0040164D02*
X0234374Y0040164D01*
X0235972Y0038566D02*
X0228667Y0038566D01*
X0228667Y0036967D02*
X0237571Y0036967D01*
X0239169Y0035369D02*
X0228667Y0035369D01*
X0228667Y0033770D02*
X0240768Y0033770D01*
X0242366Y0032172D02*
X0228667Y0032172D01*
X0228667Y0030573D02*
X0243965Y0030573D01*
X0242992Y0027460D02*
X0242286Y0027600D01*
X0241926Y0027600D01*
X0241926Y0023946D01*
X0241926Y0023946D01*
X0245580Y0023946D01*
X0245580Y0024306D01*
X0245440Y0025012D01*
X0245164Y0025677D01*
X0244764Y0026275D01*
X0244255Y0026784D01*
X0243657Y0027184D01*
X0242992Y0027460D01*
X0243193Y0027376D02*
X0254132Y0027376D01*
X0254020Y0028975D02*
X0228667Y0028975D01*
X0228667Y0027376D02*
X0240659Y0027376D01*
X0240860Y0027460D02*
X0240195Y0027184D01*
X0239596Y0026784D01*
X0239087Y0026275D01*
X0238687Y0025677D01*
X0238412Y0025012D01*
X0238272Y0024306D01*
X0238272Y0023946D01*
X0241926Y0023946D01*
X0241926Y0023946D01*
X0241926Y0027600D01*
X0241566Y0027600D01*
X0240860Y0027460D01*
X0241926Y0027376D02*
X0241926Y0027376D01*
X0241926Y0025778D02*
X0241926Y0025778D01*
X0241926Y0024179D02*
X0241926Y0024179D01*
X0241926Y0023946D02*
X0241926Y0023946D01*
X0245580Y0023946D01*
X0245580Y0023586D01*
X0245440Y0022880D01*
X0245164Y0022215D01*
X0244764Y0021616D01*
X0244255Y0021107D01*
X0243657Y0020707D01*
X0242992Y0020432D01*
X0242286Y0020291D01*
X0241926Y0020291D01*
X0241926Y0023946D01*
X0241926Y0023946D01*
X0238272Y0023946D01*
X0238272Y0023586D01*
X0238412Y0022880D01*
X0238687Y0022215D01*
X0239087Y0021616D01*
X0239596Y0021107D01*
X0240195Y0020707D01*
X0240860Y0020432D01*
X0241566Y0020291D01*
X0241926Y0020291D01*
X0241926Y0023946D01*
X0241926Y0022581D02*
X0241926Y0022581D01*
X0241926Y0020982D02*
X0241926Y0020982D01*
X0244068Y0020982D02*
X0261430Y0020982D01*
X0263028Y0019384D02*
X0239183Y0019384D01*
X0239183Y0020014D02*
X0239183Y0017280D01*
X0235122Y0017280D01*
X0235122Y0021734D01*
X0237462Y0021734D01*
X0237966Y0021599D01*
X0238418Y0021338D01*
X0238787Y0020969D01*
X0239048Y0020517D01*
X0239183Y0020014D01*
X0238774Y0020982D02*
X0239783Y0020982D01*
X0238536Y0022581D02*
X0228667Y0022581D01*
X0228667Y0024179D02*
X0238272Y0024179D01*
X0238755Y0025778D02*
X0228667Y0025778D01*
X0234163Y0020982D02*
X0235122Y0020982D01*
X0235122Y0019384D02*
X0234163Y0019384D01*
X0234163Y0017785D02*
X0235122Y0017785D01*
X0235122Y0016187D02*
X0234163Y0016187D01*
X0234163Y0014588D02*
X0235122Y0014588D01*
X0235122Y0012990D02*
X0234163Y0012990D01*
X0238994Y0012990D02*
X0269422Y0012990D01*
X0267824Y0014588D02*
X0239183Y0014588D01*
X0239183Y0016187D02*
X0266225Y0016187D01*
X0264627Y0017785D02*
X0239183Y0017785D01*
X0245316Y0022581D02*
X0259831Y0022581D01*
X0258233Y0024179D02*
X0245580Y0024179D01*
X0245097Y0025778D02*
X0255103Y0025778D01*
X0275816Y0006596D02*
X0057883Y0006596D01*
X0057883Y0004997D02*
X0277415Y0004997D01*
X0295806Y0137673D02*
X0378134Y0137673D01*
X0378134Y0139272D02*
X0297405Y0139272D01*
X0299003Y0140870D02*
X0378134Y0140870D01*
X0378134Y0142469D02*
X0300602Y0142469D01*
X0302200Y0144068D02*
X0378134Y0144068D01*
X0378134Y0145666D02*
X0303799Y0145666D01*
X0305397Y0147265D02*
X0378134Y0147265D01*
X0378134Y0148863D02*
X0306479Y0148863D01*
X0306505Y0150462D02*
X0378134Y0150462D01*
X0378134Y0152060D02*
X0306505Y0152060D01*
X0306505Y0153659D02*
X0378134Y0153659D01*
X0378134Y0155257D02*
X0306505Y0155257D01*
X0306505Y0156856D02*
X0378134Y0156856D01*
X0378134Y0158454D02*
X0306505Y0158454D01*
X0306505Y0160053D02*
X0378134Y0160053D01*
X0378134Y0161651D02*
X0306505Y0161651D01*
X0306505Y0163250D02*
X0378134Y0163250D01*
X0378134Y0164848D02*
X0306505Y0164848D01*
X0306505Y0166447D02*
X0378134Y0166447D01*
X0378134Y0168045D02*
X0306505Y0168045D01*
X0306505Y0169644D02*
X0378134Y0169644D01*
X0378134Y0171242D02*
X0306505Y0171242D01*
X0306505Y0172841D02*
X0378134Y0172841D01*
X0378134Y0174439D02*
X0306505Y0174439D01*
X0310504Y0177636D02*
X0310504Y0177636D01*
X0310504Y0179235D02*
X0310504Y0179235D01*
X0310504Y0180833D02*
X0310504Y0180833D01*
X0310504Y0182432D02*
X0310504Y0182432D01*
X0312510Y0188826D02*
X0318438Y0188826D01*
X0316853Y0190424D02*
X0314108Y0190424D01*
X0315707Y0192023D02*
X0316466Y0192023D01*
X0311630Y0195220D02*
X0311482Y0195220D01*
X0313173Y0196818D02*
X0309175Y0196818D01*
X0308406Y0196818D02*
X0308406Y0196818D01*
X0307637Y0196818D02*
X0306505Y0196818D01*
X0306505Y0198417D02*
X0313173Y0198417D01*
X0313173Y0200015D02*
X0306505Y0200015D01*
X0308406Y0195220D02*
X0308406Y0195220D01*
X0308406Y0193621D02*
X0308406Y0193621D01*
X0332095Y0190424D02*
X0332495Y0189826D01*
X0333004Y0189317D01*
X0333603Y0188917D01*
X0338682Y0193621D02*
X0346032Y0193621D01*
X0346753Y0195220D02*
X0337325Y0195220D01*
X0349622Y0195220D02*
X0349622Y0195220D01*
X0349622Y0193621D02*
X0349622Y0193621D01*
X0349622Y0192023D02*
X0349622Y0192023D01*
X0349622Y0190424D02*
X0349622Y0190424D01*
X0353212Y0193621D02*
X0355649Y0193621D01*
X0355026Y0195220D02*
X0352492Y0195220D01*
X0358656Y0195220D02*
X0358656Y0195220D01*
X0358656Y0196818D02*
X0358656Y0196818D01*
X0358656Y0198417D02*
X0358656Y0198417D01*
X0358656Y0193621D02*
X0358656Y0193621D01*
X0315039Y0246372D02*
X0315038Y0246372D01*
X0315038Y0247971D02*
X0315039Y0247971D01*
X0315038Y0249569D02*
X0315039Y0249569D01*
X0315038Y0251168D02*
X0315039Y0251168D01*
X0240968Y0182432D02*
X0240171Y0182432D01*
X0240968Y0180833D02*
X0238572Y0180833D01*
X0238770Y0177636D02*
X0238770Y0177636D01*
X0238770Y0176038D02*
X0238770Y0176038D01*
X0238770Y0175236D02*
X0242425Y0175236D01*
X0238770Y0175236D01*
X0238770Y0175236D01*
X0238770Y0174439D02*
X0238770Y0174439D01*
X0238770Y0172841D02*
X0238770Y0172841D01*
X0241543Y0172841D02*
X0241898Y0172841D01*
X0242337Y0176038D02*
X0243641Y0176038D01*
X0252072Y0176038D02*
X0254449Y0176038D01*
X0228102Y0177636D02*
X0180257Y0177636D01*
X0175706Y0176038D02*
X0227543Y0176038D01*
X0227543Y0174439D02*
X0174107Y0174439D01*
X0173698Y0169644D02*
X0176692Y0169644D01*
X0175968Y0168045D02*
X0173584Y0168045D01*
X0173589Y0168057D02*
X0173730Y0168763D01*
X0173730Y0169123D01*
X0170076Y0169123D01*
X0170076Y0169123D01*
X0170076Y0165469D01*
X0170435Y0165469D01*
X0171141Y0165609D01*
X0171806Y0165884D01*
X0172405Y0166284D01*
X0172914Y0166793D01*
X0173314Y0167392D01*
X0173589Y0168057D01*
X0172567Y0166447D02*
X0175968Y0166447D01*
X0175968Y0164848D02*
X0164516Y0164848D01*
X0162918Y0163250D02*
X0175968Y0163250D01*
X0176180Y0161651D02*
X0161319Y0161651D01*
X0159720Y0160053D02*
X0175968Y0160053D01*
X0180423Y0166447D02*
X0181382Y0166447D01*
X0181382Y0168045D02*
X0180423Y0168045D01*
X0180423Y0169644D02*
X0181382Y0169644D01*
X0170076Y0168045D02*
X0170075Y0168045D01*
X0170075Y0166447D02*
X0170076Y0166447D01*
X0167584Y0166447D02*
X0166115Y0166447D01*
X0189451Y0180833D02*
X0192353Y0180833D01*
X0191405Y0182432D02*
X0190399Y0182432D01*
X0190664Y0184030D02*
X0191140Y0184030D01*
X0191140Y0185629D02*
X0190664Y0185629D01*
X0190664Y0187227D02*
X0191140Y0187227D01*
X0191140Y0188826D02*
X0190664Y0188826D01*
X0190664Y0190424D02*
X0191140Y0190424D01*
X0200045Y0192023D02*
X0201759Y0192023D01*
X0201140Y0190424D02*
X0200664Y0190424D01*
X0200664Y0188826D02*
X0201140Y0188826D01*
X0201140Y0187227D02*
X0200664Y0187227D01*
X0200664Y0185629D02*
X0201140Y0185629D01*
X0201140Y0184030D02*
X0200664Y0184030D01*
X0200399Y0182432D02*
X0201405Y0182432D01*
X0202353Y0180833D02*
X0199451Y0180833D01*
X0220334Y0156856D02*
X0236762Y0156856D01*
X0227171Y0147265D02*
X0219814Y0147265D01*
X0224263Y0145666D02*
X0225572Y0145666D01*
X0073323Y0033770D02*
X0057883Y0033770D01*
X0057883Y0032172D02*
X0069136Y0032172D01*
X0067024Y0030573D02*
X0057883Y0030573D01*
X0057883Y0028975D02*
X0065596Y0028975D01*
X0064571Y0027376D02*
X0057883Y0027376D01*
X0057883Y0025778D02*
X0063866Y0025778D01*
X0063400Y0024179D02*
X0057883Y0024179D01*
X0057883Y0022581D02*
X0063151Y0022581D01*
D24*
X0128737Y0052489D03*
X0165646Y0020993D03*
X0181886Y0024930D03*
X0194190Y0032804D03*
X0214367Y0032804D03*
X0220764Y0044615D03*
X0241926Y0051997D03*
X0241926Y0058394D03*
X0253245Y0051997D03*
X0253245Y0047076D03*
X0248816Y0045107D03*
X0247339Y0036249D03*
X0257674Y0028375D03*
X0261611Y0032312D03*
X0276375Y0043139D03*
X0269485Y0050028D03*
X0253737Y0066269D03*
X0237497Y0067253D03*
X0237497Y0073158D03*
X0244386Y0080048D03*
X0244386Y0084969D03*
X0257182Y0093828D03*
X0257182Y0101702D03*
X0250292Y0100717D03*
X0244879Y0110560D03*
X0251345Y0116736D03*
X0266532Y0114989D03*
X0268501Y0122863D03*
X0270469Y0127784D03*
X0280804Y0121387D03*
X0286217Y0136643D03*
X0286217Y0144517D03*
X0272438Y0141564D03*
X0268501Y0145993D03*
X0254623Y0147298D03*
X0256198Y0129261D03*
X0223225Y0110068D03*
X0226670Y0103178D03*
X0216335Y0097272D03*
X0205509Y0085954D03*
X0197635Y0083493D03*
X0184347Y0102194D03*
X0199111Y0115973D03*
X0202556Y0125816D03*
X0196158Y0135658D03*
X0178624Y0140150D03*
X0176473Y0146977D03*
X0192221Y0152883D03*
X0194682Y0157312D03*
X0216827Y0168139D03*
X0230115Y0169123D03*
X0238770Y0175236D03*
X0254410Y0169075D03*
X0256690Y0178965D03*
X0259642Y0193729D03*
X0267516Y0194713D03*
X0269485Y0202587D03*
X0262595Y0207509D03*
X0245885Y0201687D03*
X0239957Y0215383D03*
X0243894Y0222272D03*
X0251768Y0228178D03*
X0273422Y0225225D03*
X0289170Y0225225D03*
X0307871Y0208493D03*
X0311808Y0204556D03*
X0308406Y0193245D03*
X0320120Y0192084D03*
X0335334Y0192155D03*
X0349622Y0192937D03*
X0358656Y0195698D03*
X0375778Y0191468D03*
X0395476Y0191018D03*
X0407190Y0203553D03*
X0392917Y0216160D03*
X0380705Y0219320D03*
X0373816Y0221288D03*
X0373816Y0213414D03*
X0373816Y0232115D03*
X0374505Y0238993D03*
X0369879Y0247863D03*
X0369879Y0255737D03*
X0365942Y0259674D03*
X0361853Y0248831D03*
X0388532Y0236587D03*
X0314760Y0237036D03*
X0315039Y0248459D03*
X0310823Y0250816D03*
X0265548Y0263611D03*
X0255705Y0255737D03*
X0246847Y0251800D03*
X0237989Y0245894D03*
X0219288Y0230146D03*
X0212398Y0230639D03*
X0226178Y0205540D03*
X0230115Y0202587D03*
X0280151Y0188274D03*
X0310504Y0179759D03*
X0222241Y0142548D03*
X0178695Y0130789D03*
X0171060Y0122371D03*
X0156788Y0117450D03*
X0153343Y0110560D03*
X0137103Y0111052D03*
X0124800Y0119418D03*
X0112497Y0118434D03*
X0110528Y0104654D03*
X0103638Y0096780D03*
X0110528Y0094812D03*
X0110528Y0089891D03*
X0083694Y0106396D03*
X0076888Y0092568D03*
X0124800Y0132706D03*
X0124800Y0140580D03*
X0107083Y0151406D03*
X0115449Y0156328D03*
X0096257Y0154851D03*
X0071158Y0166170D03*
X0082477Y0196190D03*
X0087398Y0196190D03*
X0102654Y0203080D03*
X0142024Y0197174D03*
X0161256Y0176364D03*
X0170075Y0169123D03*
X0149898Y0165678D03*
X0146946Y0140580D03*
X0156788Y0098257D03*
X0189760Y0056426D03*
X0196650Y0051505D03*
X0221257Y0019517D03*
X0221749Y0013611D03*
X0241926Y0023946D03*
X0278343Y0012627D03*
X0285725Y0011150D03*
X0292615Y0022961D03*
X0305902Y0036249D03*
X0315745Y0036249D03*
X0316237Y0044615D03*
X0321158Y0043139D03*
X0324603Y0036249D03*
X0324603Y0031328D03*
X0336414Y0027883D03*
X0357575Y0015580D03*
X0365449Y0027883D03*
X0385902Y0041800D03*
X0395902Y0036800D03*
X0384642Y0055442D03*
X0364465Y0065776D03*
X0344780Y0070698D03*
X0337398Y0065776D03*
X0329032Y0058887D03*
X0317713Y0052981D03*
X0315745Y0067745D03*
X0313776Y0074635D03*
X0310823Y0081524D03*
X0306394Y0101702D03*
X0325095Y0107115D03*
X0274898Y0086446D03*
X0264072Y0083001D03*
X0265548Y0078080D03*
X0264072Y0100225D03*
X0170075Y0237036D03*
X0155804Y0240973D03*
X0149898Y0255245D03*
X0134101Y0257581D03*
X0172044Y0255737D03*
X0095764Y0234083D03*
D25*
X0143225Y0261800D02*
X0143501Y0261643D01*
X0149898Y0255245D01*
X0212162Y0236800D02*
X0212398Y0236544D01*
X0212398Y0230639D01*
X0243894Y0222272D02*
X0243894Y0214398D01*
X0256690Y0201603D01*
X0255902Y0200107D01*
X0256690Y0200619D01*
X0258658Y0202587D01*
X0269485Y0202587D01*
X0255902Y0200107D02*
X0255705Y0199635D01*
X0255705Y0183887D01*
X0244879Y0173060D01*
X0244879Y0162233D01*
X0244642Y0161800D01*
X0244879Y0161249D01*
X0244879Y0160265D01*
X0244386Y0160265D01*
X0226178Y0142056D01*
X0222241Y0142056D01*
X0222241Y0142548D01*
X0222241Y0142056D02*
X0210922Y0142056D01*
X0210902Y0141957D01*
X0194682Y0157312D02*
X0186808Y0165186D01*
X0180902Y0165186D01*
X0180902Y0165540D01*
X0210430Y0161741D02*
X0210902Y0161643D01*
X0210430Y0161741D02*
X0216827Y0168139D01*
X0256690Y0178965D02*
X0265548Y0187824D01*
X0265902Y0188493D01*
X0265902Y0160540D02*
X0266040Y0160265D01*
X0270961Y0160265D01*
X0271946Y0159280D01*
X0286217Y0159280D01*
X0286217Y0144517D01*
X0268993Y0151898D02*
X0268993Y0152580D01*
X0266040Y0153375D02*
X0265423Y0153539D01*
X0266040Y0153375D02*
X0265902Y0153060D01*
X0263579Y0152391D01*
X0263579Y0152580D01*
X0254721Y0150422D02*
X0254623Y0150422D01*
X0286217Y0159280D02*
X0286709Y0159280D01*
X0308406Y0193245D02*
X0307871Y0193729D01*
X0307871Y0208493D01*
X0310823Y0211446D02*
X0311808Y0210461D01*
X0311808Y0204556D01*
X0310823Y0211446D02*
X0310823Y0250816D01*
X0365942Y0259674D02*
X0365942Y0221288D01*
X0373816Y0213414D01*
X0205509Y0085954D02*
X0205509Y0080540D01*
X0205902Y0080540D01*
X0200587Y0080540D01*
X0177949Y0057902D01*
X0132182Y0057902D01*
X0130902Y0058060D01*
X0131198Y0057902D01*
X0131198Y0052489D01*
X0128737Y0052489D01*
X0131198Y0052489D02*
X0131198Y0047568D01*
X0131690Y0047076D01*
X0132162Y0046800D01*
X0110528Y0094812D02*
X0110528Y0095796D01*
X0100194Y0106131D01*
X0100194Y0150914D01*
X0096257Y0154851D01*
X0129642Y0171800D02*
X0129721Y0172076D01*
X0129721Y0176505D01*
X0135627Y0182410D01*
X0135627Y0186347D01*
X0135902Y0186800D01*
X0149642Y0171800D02*
X0149898Y0171583D01*
X0149898Y0165678D01*
X0132162Y0156800D02*
X0132182Y0156328D01*
X0132182Y0151898D01*
X0143009Y0141072D01*
X0143009Y0138611D01*
X0161709Y0119910D01*
X0166631Y0119910D01*
X0169583Y0116957D01*
X0169583Y0112036D01*
X0169642Y0111800D01*
X0170075Y0111052D01*
X0175489Y0111052D01*
X0184347Y0102194D01*
X0185331Y0102194D01*
X0199111Y0115973D01*
X0162162Y0111800D02*
X0161709Y0111544D01*
X0160725Y0110560D01*
X0153343Y0110560D01*
X0145961Y0110560D01*
X0145902Y0110540D01*
X0130902Y0103060D02*
X0130705Y0103178D01*
X0125292Y0103178D01*
X0125292Y0111544D01*
X0114465Y0122371D01*
X0108560Y0122371D01*
X0108560Y0109083D01*
X0110528Y0107115D01*
X0110528Y0104654D01*
X0196650Y0051505D02*
X0199603Y0048552D01*
X0205016Y0048552D01*
X0205902Y0048060D01*
X0206001Y0048060D01*
X0206001Y0040186D01*
X0206985Y0040186D01*
X0214367Y0032804D01*
X0206001Y0025914D02*
X0205902Y0025540D01*
X0206001Y0025914D02*
X0206001Y0040186D01*
X0225686Y0062331D02*
X0206493Y0081524D01*
X0205902Y0080540D01*
X0225686Y0062331D02*
X0225686Y0018040D01*
X0227162Y0016800D01*
X0227162Y0017056D01*
X0225194Y0017056D01*
X0221749Y0013611D01*
X0278343Y0012627D02*
X0283757Y0007213D01*
X0287694Y0007213D01*
X0302457Y0021977D01*
X0335922Y0021977D01*
X0337162Y0021800D01*
X0336906Y0021977D01*
X0336906Y0027391D01*
X0336414Y0027883D01*
X0336414Y0028867D01*
X0372339Y0064792D01*
X0372339Y0065776D01*
X0364465Y0065776D01*
X0372339Y0065776D02*
X0373323Y0065776D01*
X0383658Y0055442D01*
X0384642Y0055442D01*
X0390548Y0055442D01*
X0390902Y0055540D01*
D26*
X0140760Y0065946D03*
D27*
X0139642Y0046800D02*
X0140056Y0046583D01*
X0165646Y0020993D01*
X0181886Y0024930D02*
X0186316Y0024930D01*
X0194190Y0032804D01*
X0211414Y0009674D02*
X0221257Y0019517D01*
X0211414Y0009674D02*
X0088383Y0009674D01*
X0088383Y0089398D01*
X0064760Y0113020D01*
X0064760Y0189792D01*
X0083461Y0208493D01*
X0091335Y0208493D01*
X0091335Y0223257D01*
X0143501Y0275422D01*
X0358068Y0275422D01*
X0358068Y0224241D01*
X0372831Y0209477D01*
X0377753Y0209477D01*
X0377753Y0217351D01*
X0373816Y0221288D01*
X0380705Y0219320D02*
X0380705Y0244910D01*
X0369879Y0255737D01*
X0369879Y0247863D02*
X0370863Y0246879D01*
X0370863Y0235068D01*
X0373816Y0232115D01*
X0380705Y0219320D02*
X0380705Y0092351D01*
X0396453Y0076603D01*
X0396453Y0045107D01*
X0377753Y0026406D01*
X0377753Y0003769D01*
X0282280Y0003769D01*
X0257674Y0028375D01*
X0261611Y0032312D02*
X0245863Y0032312D01*
X0229131Y0049044D01*
X0229131Y0067745D01*
X0205509Y0091367D01*
X0118894Y0091367D01*
X0103146Y0107115D01*
X0103146Y0153375D01*
X0115942Y0166170D01*
X0132674Y0166170D01*
X0137595Y0171091D01*
X0137595Y0178965D01*
X0140548Y0181918D01*
X0140548Y0193729D01*
X0143501Y0193729D01*
X0144485Y0194713D01*
X0174012Y0194713D01*
X0190745Y0211446D01*
X0190745Y0243926D01*
X0202556Y0255737D01*
X0255705Y0255737D01*
X0246847Y0251800D02*
X0273422Y0225225D01*
X0289170Y0225225D02*
X0289170Y0190776D01*
X0251768Y0228178D01*
X0237989Y0233099D02*
X0256690Y0214398D01*
X0255902Y0213493D01*
X0256690Y0213414D01*
X0262595Y0207509D01*
X0260627Y0194713D02*
X0259642Y0193729D01*
X0260627Y0194713D02*
X0267516Y0194713D01*
X0245902Y0190540D02*
X0245863Y0189792D01*
X0243894Y0189792D01*
X0230115Y0176013D01*
X0230115Y0169123D01*
X0237005Y0162233D01*
X0237162Y0161800D01*
X0246847Y0150422D02*
X0266532Y0170107D01*
X0270469Y0170107D01*
X0289170Y0188808D01*
X0289170Y0190776D01*
X0303934Y0183887D02*
X0315745Y0195698D01*
X0315745Y0236052D01*
X0314760Y0237036D01*
X0303934Y0223257D02*
X0265548Y0261643D01*
X0265548Y0263611D01*
X0250784Y0272469D02*
X0188776Y0272469D01*
X0172044Y0255737D01*
X0159249Y0261150D02*
X0158757Y0261643D01*
X0158579Y0261800D01*
X0159249Y0261150D02*
X0159249Y0246879D01*
X0159642Y0246800D01*
X0159249Y0246387D01*
X0159249Y0244418D01*
X0155804Y0240973D01*
X0158264Y0237036D02*
X0130705Y0237036D01*
X0130459Y0237282D01*
X0132182Y0239005D01*
X0133166Y0239005D01*
X0139564Y0245402D01*
X0139564Y0246387D01*
X0139642Y0246800D01*
X0130459Y0237282D02*
X0115942Y0222765D01*
X0115942Y0216859D01*
X0115902Y0216800D01*
X0102654Y0203080D02*
X0175489Y0203080D01*
X0185823Y0213414D01*
X0185823Y0216367D01*
X0185902Y0216800D01*
X0175981Y0216859D02*
X0175902Y0216800D01*
X0175981Y0216859D02*
X0175981Y0232607D01*
X0175902Y0233060D01*
X0170075Y0237036D02*
X0173520Y0240481D01*
X0175489Y0240481D01*
X0175902Y0240540D01*
X0164642Y0231800D02*
X0164170Y0231623D01*
X0164170Y0218335D01*
X0165646Y0216859D01*
X0165902Y0216800D01*
X0150883Y0212430D02*
X0150883Y0225717D01*
X0156788Y0231623D01*
X0157162Y0231800D01*
X0158264Y0237036D02*
X0190745Y0269517D01*
X0249800Y0269517D01*
X0293107Y0226209D01*
X0293107Y0146485D01*
X0287201Y0140580D01*
X0285233Y0140580D01*
X0284249Y0141564D01*
X0272438Y0141564D01*
X0267516Y0141564D01*
X0266532Y0140580D01*
X0265902Y0140540D01*
X0265902Y0133060D02*
X0265548Y0132706D01*
X0270469Y0127784D01*
X0268501Y0122863D02*
X0260627Y0122863D01*
X0259642Y0121879D01*
X0243894Y0121879D01*
X0242910Y0120894D01*
X0240942Y0120894D01*
X0225194Y0136643D01*
X0202064Y0136643D01*
X0201079Y0137627D01*
X0201079Y0141072D01*
X0195666Y0146485D01*
X0189760Y0146485D01*
X0189642Y0146800D01*
X0182162Y0146800D02*
X0181394Y0146977D01*
X0176473Y0146977D01*
X0181886Y0146977D02*
X0182162Y0146800D01*
X0181886Y0146977D02*
X0181886Y0157312D01*
X0180902Y0158060D01*
X0180902Y0157804D01*
X0187300Y0157804D01*
X0192221Y0152883D01*
X0196158Y0135658D02*
X0171060Y0135658D01*
X0170902Y0135540D01*
X0170902Y0128060D02*
X0171060Y0127784D01*
X0171060Y0122371D01*
X0156788Y0117450D02*
X0141532Y0132706D01*
X0131198Y0132706D01*
X0130902Y0133060D01*
X0130705Y0132706D01*
X0124800Y0132706D01*
X0124800Y0140580D02*
X0130705Y0140580D01*
X0130902Y0140540D01*
X0115942Y0143040D02*
X0115942Y0128769D01*
X0125046Y0119664D01*
X0124800Y0119418D01*
X0125046Y0119664D02*
X0133658Y0111052D01*
X0130902Y0110540D01*
X0131198Y0110560D01*
X0136611Y0110560D01*
X0137103Y0111052D01*
X0127753Y0093828D02*
X0112497Y0109083D01*
X0112497Y0118434D01*
X0103638Y0096780D02*
X0110528Y0089891D01*
X0127753Y0093828D02*
X0235528Y0093828D01*
X0244386Y0084969D01*
X0244386Y0080048D02*
X0237497Y0073158D01*
X0237497Y0067253D02*
X0256690Y0086446D01*
X0274898Y0086446D01*
X0264072Y0083001D02*
X0260627Y0079556D01*
X0253245Y0079556D01*
X0247339Y0073650D01*
X0247339Y0058394D01*
X0253245Y0052489D01*
X0253245Y0051997D01*
X0256690Y0048552D01*
X0256690Y0045599D01*
X0253983Y0042893D01*
X0257674Y0039202D01*
X0276375Y0039202D01*
X0292615Y0022961D01*
X0285725Y0011150D02*
X0316237Y0041662D01*
X0316237Y0044615D01*
X0321158Y0043139D02*
X0321158Y0041662D01*
X0315745Y0036249D01*
X0324603Y0036249D02*
X0324603Y0063808D01*
X0313776Y0074635D01*
X0315745Y0067745D02*
X0289170Y0094320D01*
X0265902Y0094320D01*
X0264072Y0100225D02*
X0262595Y0101702D01*
X0257182Y0101702D01*
X0259642Y0104162D02*
X0256690Y0107115D01*
X0225194Y0107115D01*
X0224209Y0106131D01*
X0222241Y0106131D01*
X0202556Y0125816D01*
X0197635Y0135658D02*
X0196158Y0135658D01*
X0197635Y0135658D02*
X0223225Y0110068D01*
X0226670Y0103178D02*
X0220764Y0097272D01*
X0216335Y0097272D01*
X0197635Y0083493D02*
X0186808Y0072666D01*
X0109052Y0072666D01*
X0067713Y0114005D01*
X0067713Y0188808D01*
X0073619Y0194713D01*
X0077556Y0194713D01*
X0085430Y0186839D01*
X0085902Y0186800D01*
X0076079Y0186347D02*
X0076079Y0183394D01*
X0082231Y0177243D01*
X0071158Y0166170D01*
X0082231Y0177243D02*
X0087398Y0172076D01*
X0121847Y0172076D01*
X0122162Y0171800D01*
X0115942Y0162233D02*
X0158264Y0162233D01*
X0174997Y0178965D01*
X0177949Y0178965D01*
X0180902Y0181918D01*
X0180902Y0191761D01*
X0190745Y0201603D01*
X0229131Y0201603D01*
X0230115Y0202587D01*
X0230115Y0235068D01*
X0223225Y0241957D01*
X0197635Y0241957D01*
X0196650Y0240973D01*
X0195902Y0240540D01*
X0195902Y0233060D02*
X0196158Y0232607D01*
X0196158Y0216859D01*
X0195902Y0216800D01*
X0189760Y0204556D02*
X0175981Y0190776D01*
X0175981Y0186839D01*
X0175902Y0186800D01*
X0185902Y0186800D02*
X0186808Y0186839D01*
X0186808Y0193729D01*
X0192713Y0193729D01*
X0197635Y0198650D01*
X0231099Y0198650D01*
X0239957Y0207509D01*
X0239957Y0215383D01*
X0226178Y0205540D02*
X0226178Y0230639D01*
X0219780Y0237036D01*
X0219642Y0236800D01*
X0219288Y0230146D02*
X0219288Y0220304D01*
X0203540Y0204556D01*
X0189760Y0204556D01*
X0150883Y0212430D02*
X0144977Y0206524D01*
X0092812Y0206524D01*
X0082477Y0196190D01*
X0087398Y0196190D02*
X0088383Y0197174D01*
X0142024Y0197174D01*
X0140548Y0193729D02*
X0138579Y0193729D01*
X0137595Y0194713D01*
X0133658Y0194713D01*
X0125784Y0186839D01*
X0125902Y0186800D01*
X0115942Y0162233D02*
X0107083Y0153375D01*
X0107083Y0151406D01*
X0115449Y0150914D02*
X0115449Y0156328D01*
X0115449Y0150914D02*
X0115902Y0150540D01*
X0115902Y0143060D02*
X0115942Y0143040D01*
X0076079Y0186347D02*
X0075902Y0186800D01*
X0144485Y0217843D02*
X0145469Y0216859D01*
X0145902Y0216800D01*
X0144485Y0217843D02*
X0144485Y0231623D01*
X0144642Y0231800D01*
X0237989Y0233099D02*
X0237989Y0245894D01*
X0250784Y0272469D02*
X0296060Y0227194D01*
X0296060Y0145501D01*
X0287201Y0136643D01*
X0286217Y0136643D01*
X0287201Y0132706D02*
X0284249Y0132706D01*
X0266532Y0114989D01*
X0265902Y0109280D02*
X0266040Y0109083D01*
X0279820Y0109083D01*
X0280804Y0108099D01*
X0280902Y0108060D01*
X0284249Y0103178D02*
X0266532Y0103178D01*
X0265548Y0104162D01*
X0259642Y0104162D01*
X0250292Y0100717D02*
X0257182Y0093828D01*
X0265548Y0078080D02*
X0266532Y0078572D01*
X0268501Y0078572D01*
X0305902Y0041170D01*
X0317713Y0052981D01*
X0305902Y0041170D02*
X0303442Y0038709D01*
X0305902Y0036249D01*
X0324603Y0031328D02*
X0336906Y0043631D01*
X0336906Y0065776D01*
X0337398Y0065776D01*
X0336906Y0065776D02*
X0336906Y0076603D01*
X0337162Y0076800D01*
X0344642Y0076800D02*
X0344780Y0076603D01*
X0344780Y0070698D01*
X0310823Y0081524D02*
X0305902Y0081524D01*
X0284249Y0103178D01*
X0280902Y0115540D02*
X0280804Y0115973D01*
X0280804Y0121387D01*
X0281296Y0121387D01*
X0294583Y0134674D01*
X0316237Y0134674D01*
X0319682Y0131229D01*
X0319682Y0127292D01*
X0319642Y0126800D01*
X0319682Y0126800D01*
X0319682Y0116957D01*
X0319642Y0116800D01*
X0319682Y0107115D02*
X0319642Y0106800D01*
X0319682Y0107115D02*
X0325095Y0107115D01*
X0312162Y0106800D02*
X0311808Y0107115D01*
X0306394Y0101702D01*
X0265548Y0078080D02*
X0265056Y0077095D01*
X0265548Y0078080D02*
X0253737Y0066269D01*
X0241926Y0058394D02*
X0253245Y0047076D01*
X0253983Y0042893D02*
X0247339Y0036249D01*
X0248816Y0045107D02*
X0241926Y0051997D01*
X0269485Y0050028D02*
X0276375Y0043139D01*
X0344642Y0021800D02*
X0344780Y0021977D01*
X0352162Y0029359D01*
X0358068Y0029359D01*
X0364465Y0022961D01*
X0364465Y0021977D01*
X0364642Y0021800D01*
X0364465Y0023454D01*
X0365449Y0024438D01*
X0365449Y0027883D01*
X0357575Y0021485D02*
X0357162Y0021800D01*
X0357575Y0021485D02*
X0357575Y0015580D01*
X0206001Y0072666D02*
X0205902Y0073060D01*
X0206001Y0072666D02*
X0189760Y0056426D01*
X0245902Y0128060D02*
X0246355Y0128276D01*
X0255213Y0128276D01*
X0256198Y0129261D01*
X0246847Y0135658D02*
X0245902Y0135540D01*
X0246847Y0135658D02*
X0246847Y0150422D01*
X0287201Y0132706D02*
X0303934Y0149438D01*
X0303934Y0183887D01*
X0303934Y0223257D01*
M02*
