G75*
%MOIN*%
%OFA0B0*%
%FSLAX25Y25*%
%IPPOS*%
%LPD*%
%AMOC8*
5,1,8,0,0,1.08239X$1,22.5*
%
%ADD10C,0.00000*%
%ADD11C,0.00900*%
%ADD12C,0.00300*%
%ADD13C,0.00500*%
%ADD14C,0.00800*%
%ADD15R,0.06200X0.02400*%
D10*
X0055902Y0001800D02*
X0055902Y0277391D01*
X0410233Y0277391D01*
X0410233Y0001800D01*
X0055902Y0001800D01*
X0089370Y0096149D02*
X0089372Y0096254D01*
X0089378Y0096359D01*
X0089388Y0096463D01*
X0089402Y0096567D01*
X0089420Y0096671D01*
X0089442Y0096773D01*
X0089467Y0096875D01*
X0089497Y0096976D01*
X0089530Y0097075D01*
X0089567Y0097173D01*
X0089608Y0097270D01*
X0089653Y0097365D01*
X0089701Y0097458D01*
X0089752Y0097550D01*
X0089808Y0097639D01*
X0089866Y0097726D01*
X0089928Y0097811D01*
X0089992Y0097894D01*
X0090060Y0097974D01*
X0090131Y0098051D01*
X0090205Y0098125D01*
X0090282Y0098197D01*
X0090361Y0098266D01*
X0090443Y0098331D01*
X0090527Y0098394D01*
X0090614Y0098453D01*
X0090703Y0098509D01*
X0090794Y0098562D01*
X0090887Y0098611D01*
X0090981Y0098656D01*
X0091077Y0098698D01*
X0091175Y0098736D01*
X0091274Y0098770D01*
X0091375Y0098801D01*
X0091476Y0098827D01*
X0091579Y0098850D01*
X0091682Y0098869D01*
X0091786Y0098884D01*
X0091890Y0098895D01*
X0091995Y0098902D01*
X0092100Y0098905D01*
X0092205Y0098904D01*
X0092310Y0098899D01*
X0092414Y0098890D01*
X0092518Y0098877D01*
X0092622Y0098860D01*
X0092725Y0098839D01*
X0092827Y0098814D01*
X0092928Y0098786D01*
X0093027Y0098753D01*
X0093126Y0098717D01*
X0093223Y0098677D01*
X0093318Y0098634D01*
X0093412Y0098586D01*
X0093504Y0098536D01*
X0093594Y0098482D01*
X0093682Y0098424D01*
X0093767Y0098363D01*
X0093850Y0098299D01*
X0093931Y0098232D01*
X0094009Y0098162D01*
X0094084Y0098088D01*
X0094156Y0098013D01*
X0094226Y0097934D01*
X0094292Y0097853D01*
X0094356Y0097769D01*
X0094416Y0097683D01*
X0094472Y0097595D01*
X0094526Y0097504D01*
X0094576Y0097412D01*
X0094622Y0097318D01*
X0094665Y0097222D01*
X0094704Y0097124D01*
X0094739Y0097026D01*
X0094770Y0096925D01*
X0094798Y0096824D01*
X0094822Y0096722D01*
X0094842Y0096619D01*
X0094858Y0096515D01*
X0094870Y0096411D01*
X0094878Y0096306D01*
X0094882Y0096201D01*
X0094882Y0096097D01*
X0094878Y0095992D01*
X0094870Y0095887D01*
X0094858Y0095783D01*
X0094842Y0095679D01*
X0094822Y0095576D01*
X0094798Y0095474D01*
X0094770Y0095373D01*
X0094739Y0095272D01*
X0094704Y0095174D01*
X0094665Y0095076D01*
X0094622Y0094980D01*
X0094576Y0094886D01*
X0094526Y0094794D01*
X0094472Y0094703D01*
X0094416Y0094615D01*
X0094356Y0094529D01*
X0094292Y0094445D01*
X0094226Y0094364D01*
X0094156Y0094285D01*
X0094084Y0094210D01*
X0094009Y0094136D01*
X0093931Y0094066D01*
X0093850Y0093999D01*
X0093767Y0093935D01*
X0093682Y0093874D01*
X0093594Y0093816D01*
X0093504Y0093762D01*
X0093412Y0093712D01*
X0093318Y0093664D01*
X0093223Y0093621D01*
X0093126Y0093581D01*
X0093027Y0093545D01*
X0092928Y0093512D01*
X0092827Y0093484D01*
X0092725Y0093459D01*
X0092622Y0093438D01*
X0092518Y0093421D01*
X0092414Y0093408D01*
X0092310Y0093399D01*
X0092205Y0093394D01*
X0092100Y0093393D01*
X0091995Y0093396D01*
X0091890Y0093403D01*
X0091786Y0093414D01*
X0091682Y0093429D01*
X0091579Y0093448D01*
X0091476Y0093471D01*
X0091375Y0093497D01*
X0091274Y0093528D01*
X0091175Y0093562D01*
X0091077Y0093600D01*
X0090981Y0093642D01*
X0090887Y0093687D01*
X0090794Y0093736D01*
X0090703Y0093789D01*
X0090614Y0093845D01*
X0090527Y0093904D01*
X0090443Y0093967D01*
X0090361Y0094032D01*
X0090282Y0094101D01*
X0090205Y0094173D01*
X0090131Y0094247D01*
X0090060Y0094324D01*
X0089992Y0094404D01*
X0089928Y0094487D01*
X0089866Y0094572D01*
X0089808Y0094659D01*
X0089752Y0094748D01*
X0089701Y0094840D01*
X0089653Y0094933D01*
X0089608Y0095028D01*
X0089567Y0095125D01*
X0089530Y0095223D01*
X0089497Y0095322D01*
X0089467Y0095423D01*
X0089442Y0095525D01*
X0089420Y0095627D01*
X0089402Y0095731D01*
X0089388Y0095835D01*
X0089378Y0095939D01*
X0089372Y0096044D01*
X0089370Y0096149D01*
X0089370Y0117802D02*
X0089372Y0117907D01*
X0089378Y0118012D01*
X0089388Y0118116D01*
X0089402Y0118220D01*
X0089420Y0118324D01*
X0089442Y0118426D01*
X0089467Y0118528D01*
X0089497Y0118629D01*
X0089530Y0118728D01*
X0089567Y0118826D01*
X0089608Y0118923D01*
X0089653Y0119018D01*
X0089701Y0119111D01*
X0089752Y0119203D01*
X0089808Y0119292D01*
X0089866Y0119379D01*
X0089928Y0119464D01*
X0089992Y0119547D01*
X0090060Y0119627D01*
X0090131Y0119704D01*
X0090205Y0119778D01*
X0090282Y0119850D01*
X0090361Y0119919D01*
X0090443Y0119984D01*
X0090527Y0120047D01*
X0090614Y0120106D01*
X0090703Y0120162D01*
X0090794Y0120215D01*
X0090887Y0120264D01*
X0090981Y0120309D01*
X0091077Y0120351D01*
X0091175Y0120389D01*
X0091274Y0120423D01*
X0091375Y0120454D01*
X0091476Y0120480D01*
X0091579Y0120503D01*
X0091682Y0120522D01*
X0091786Y0120537D01*
X0091890Y0120548D01*
X0091995Y0120555D01*
X0092100Y0120558D01*
X0092205Y0120557D01*
X0092310Y0120552D01*
X0092414Y0120543D01*
X0092518Y0120530D01*
X0092622Y0120513D01*
X0092725Y0120492D01*
X0092827Y0120467D01*
X0092928Y0120439D01*
X0093027Y0120406D01*
X0093126Y0120370D01*
X0093223Y0120330D01*
X0093318Y0120287D01*
X0093412Y0120239D01*
X0093504Y0120189D01*
X0093594Y0120135D01*
X0093682Y0120077D01*
X0093767Y0120016D01*
X0093850Y0119952D01*
X0093931Y0119885D01*
X0094009Y0119815D01*
X0094084Y0119741D01*
X0094156Y0119666D01*
X0094226Y0119587D01*
X0094292Y0119506D01*
X0094356Y0119422D01*
X0094416Y0119336D01*
X0094472Y0119248D01*
X0094526Y0119157D01*
X0094576Y0119065D01*
X0094622Y0118971D01*
X0094665Y0118875D01*
X0094704Y0118777D01*
X0094739Y0118679D01*
X0094770Y0118578D01*
X0094798Y0118477D01*
X0094822Y0118375D01*
X0094842Y0118272D01*
X0094858Y0118168D01*
X0094870Y0118064D01*
X0094878Y0117959D01*
X0094882Y0117854D01*
X0094882Y0117750D01*
X0094878Y0117645D01*
X0094870Y0117540D01*
X0094858Y0117436D01*
X0094842Y0117332D01*
X0094822Y0117229D01*
X0094798Y0117127D01*
X0094770Y0117026D01*
X0094739Y0116925D01*
X0094704Y0116827D01*
X0094665Y0116729D01*
X0094622Y0116633D01*
X0094576Y0116539D01*
X0094526Y0116447D01*
X0094472Y0116356D01*
X0094416Y0116268D01*
X0094356Y0116182D01*
X0094292Y0116098D01*
X0094226Y0116017D01*
X0094156Y0115938D01*
X0094084Y0115863D01*
X0094009Y0115789D01*
X0093931Y0115719D01*
X0093850Y0115652D01*
X0093767Y0115588D01*
X0093682Y0115527D01*
X0093594Y0115469D01*
X0093504Y0115415D01*
X0093412Y0115365D01*
X0093318Y0115317D01*
X0093223Y0115274D01*
X0093126Y0115234D01*
X0093027Y0115198D01*
X0092928Y0115165D01*
X0092827Y0115137D01*
X0092725Y0115112D01*
X0092622Y0115091D01*
X0092518Y0115074D01*
X0092414Y0115061D01*
X0092310Y0115052D01*
X0092205Y0115047D01*
X0092100Y0115046D01*
X0091995Y0115049D01*
X0091890Y0115056D01*
X0091786Y0115067D01*
X0091682Y0115082D01*
X0091579Y0115101D01*
X0091476Y0115124D01*
X0091375Y0115150D01*
X0091274Y0115181D01*
X0091175Y0115215D01*
X0091077Y0115253D01*
X0090981Y0115295D01*
X0090887Y0115340D01*
X0090794Y0115389D01*
X0090703Y0115442D01*
X0090614Y0115498D01*
X0090527Y0115557D01*
X0090443Y0115620D01*
X0090361Y0115685D01*
X0090282Y0115754D01*
X0090205Y0115826D01*
X0090131Y0115900D01*
X0090060Y0115977D01*
X0089992Y0116057D01*
X0089928Y0116140D01*
X0089866Y0116225D01*
X0089808Y0116312D01*
X0089752Y0116401D01*
X0089701Y0116493D01*
X0089653Y0116586D01*
X0089608Y0116681D01*
X0089567Y0116778D01*
X0089530Y0116876D01*
X0089497Y0116975D01*
X0089467Y0117076D01*
X0089442Y0117178D01*
X0089420Y0117280D01*
X0089402Y0117384D01*
X0089388Y0117488D01*
X0089378Y0117592D01*
X0089372Y0117697D01*
X0089370Y0117802D01*
D11*
X0288525Y0256862D02*
X0289209Y0256862D01*
X0289209Y0257546D01*
X0288525Y0257546D01*
X0288525Y0256862D01*
X0291077Y0256862D02*
X0293129Y0256862D01*
X0293813Y0257546D01*
X0293813Y0258914D01*
X0293129Y0259598D01*
X0291077Y0259598D01*
X0295681Y0259598D02*
X0297733Y0259598D01*
X0298417Y0258914D01*
X0297733Y0258230D01*
X0296365Y0258230D01*
X0295681Y0257546D01*
X0296365Y0256862D01*
X0298417Y0256862D01*
X0300285Y0257546D02*
X0300285Y0260281D01*
X0300969Y0260965D01*
X0302337Y0260965D01*
X0303021Y0260281D01*
X0303021Y0257546D01*
X0302337Y0256862D01*
X0300969Y0256862D01*
X0300285Y0257546D01*
X0304889Y0258914D02*
X0307625Y0258914D01*
X0309243Y0257546D02*
X0309243Y0256862D01*
X0309927Y0256862D01*
X0309927Y0257546D01*
X0309243Y0257546D01*
X0311628Y0258914D02*
X0312996Y0258914D01*
X0312312Y0260281D02*
X0312312Y0256862D01*
X0314864Y0258230D02*
X0317600Y0258230D01*
X0317600Y0258914D02*
X0316916Y0259598D01*
X0315548Y0259598D01*
X0314864Y0258914D01*
X0314864Y0258230D01*
X0315548Y0256862D02*
X0316916Y0256862D01*
X0317600Y0257546D01*
X0317600Y0258914D01*
X0319468Y0258914D02*
X0319468Y0260281D01*
X0320152Y0260965D01*
X0322204Y0260965D01*
X0322204Y0256862D01*
X0322204Y0258230D02*
X0320152Y0258230D01*
X0319468Y0258914D01*
X0320836Y0258230D02*
X0319468Y0256862D01*
X0312312Y0260281D02*
X0311628Y0260965D01*
X0328676Y0259598D02*
X0331412Y0256862D01*
X0328676Y0256862D01*
X0328676Y0259598D02*
X0331412Y0259598D01*
X0333280Y0258914D02*
X0336016Y0258914D01*
X0336016Y0260965D02*
X0336016Y0256862D01*
X0337884Y0256862D02*
X0337884Y0260965D01*
X0339252Y0259598D01*
X0340620Y0260965D01*
X0340620Y0256862D01*
X0343172Y0252915D02*
X0344540Y0252915D01*
X0345224Y0252231D01*
X0343172Y0252915D02*
X0342488Y0252231D01*
X0342488Y0251548D01*
X0345224Y0248812D01*
X0342488Y0248812D01*
X0340620Y0248812D02*
X0339936Y0248812D01*
X0339936Y0249496D01*
X0340620Y0249496D01*
X0340620Y0248812D01*
X0338318Y0248812D02*
X0335582Y0251548D01*
X0335582Y0252231D01*
X0336266Y0252915D01*
X0337634Y0252915D01*
X0338318Y0252231D01*
X0338318Y0248812D02*
X0335582Y0248812D01*
X0333280Y0256862D02*
X0333280Y0260965D01*
X0332947Y0264912D02*
X0332947Y0269015D01*
X0332947Y0266964D02*
X0330211Y0266964D01*
X0330211Y0269015D02*
X0330211Y0264912D01*
X0334815Y0264912D02*
X0334815Y0267648D01*
X0336183Y0269015D01*
X0337550Y0267648D01*
X0337550Y0264912D01*
X0339252Y0264912D02*
X0340620Y0264912D01*
X0339936Y0264912D02*
X0339936Y0269015D01*
X0340620Y0269015D02*
X0339252Y0269015D01*
X0337550Y0266964D02*
X0334815Y0266964D01*
X0342488Y0266964D02*
X0345224Y0266964D01*
X0343172Y0269015D01*
X0343172Y0264912D01*
X0348460Y0266964D02*
X0349828Y0266964D01*
X0349828Y0269015D02*
X0347092Y0269015D01*
X0349828Y0269015D02*
X0349828Y0264912D01*
X0351696Y0265596D02*
X0351696Y0268331D01*
X0352380Y0269015D01*
X0354431Y0269015D01*
X0354431Y0264912D01*
X0352380Y0264912D01*
X0351696Y0265596D01*
X0353064Y0260965D02*
X0353064Y0256862D01*
X0354431Y0256862D02*
X0351696Y0256862D01*
X0349828Y0257546D02*
X0347092Y0260281D01*
X0347092Y0257546D01*
X0347776Y0256862D01*
X0349144Y0256862D01*
X0349828Y0257546D01*
X0349828Y0260281D01*
X0349144Y0260965D01*
X0347776Y0260965D01*
X0347092Y0260281D01*
X0353064Y0260965D02*
X0354431Y0259598D01*
X0354431Y0252915D02*
X0354431Y0250180D01*
X0353064Y0248812D01*
X0351696Y0250180D01*
X0351696Y0252915D01*
D12*
X0271400Y0188410D02*
X0271400Y0185941D01*
X0271400Y0184727D02*
X0271400Y0182258D01*
X0271400Y0183492D02*
X0275103Y0183492D01*
X0273869Y0182258D01*
X0275103Y0181043D02*
X0274486Y0179809D01*
X0273252Y0178575D01*
X0273252Y0180426D01*
X0272634Y0181043D01*
X0272017Y0181043D01*
X0271400Y0180426D01*
X0271400Y0179192D01*
X0272017Y0178575D01*
X0273252Y0178575D01*
X0274486Y0177360D02*
X0272017Y0177360D01*
X0271400Y0176743D01*
X0271400Y0174891D01*
X0275103Y0174891D01*
X0275103Y0176743D01*
X0274486Y0177360D01*
X0273869Y0185941D02*
X0275103Y0187175D01*
X0271400Y0187175D01*
X0253708Y0188311D02*
X0253091Y0187077D01*
X0251857Y0185842D01*
X0251857Y0187694D01*
X0251240Y0188311D01*
X0250623Y0188311D01*
X0250005Y0187694D01*
X0250005Y0186459D01*
X0250623Y0185842D01*
X0251857Y0185842D01*
X0251857Y0184628D02*
X0251240Y0184011D01*
X0251240Y0182159D01*
X0251240Y0183393D02*
X0250005Y0184628D01*
X0251857Y0184628D02*
X0253091Y0184628D01*
X0253708Y0184011D01*
X0253708Y0182159D01*
X0250005Y0182159D01*
X0250005Y0189525D02*
X0250005Y0191994D01*
X0250005Y0193208D02*
X0250005Y0195677D01*
X0250005Y0194443D02*
X0253708Y0194443D01*
X0252474Y0193208D01*
X0253708Y0190760D02*
X0250005Y0190760D01*
X0252474Y0189525D02*
X0253708Y0190760D01*
X0270470Y0166153D02*
X0270470Y0163684D01*
X0270470Y0164919D02*
X0274173Y0164919D01*
X0272939Y0163684D01*
X0273556Y0162470D02*
X0274173Y0161853D01*
X0274173Y0160618D01*
X0273556Y0160001D01*
X0272939Y0160001D01*
X0272322Y0160618D01*
X0272322Y0162470D01*
X0273556Y0162470D02*
X0271087Y0162470D01*
X0270470Y0161853D01*
X0270470Y0160618D01*
X0271087Y0160001D01*
X0271087Y0158787D02*
X0270470Y0158169D01*
X0270470Y0156935D01*
X0271087Y0156318D01*
X0271087Y0155104D02*
X0270470Y0154486D01*
X0270470Y0153252D01*
X0271087Y0152635D01*
X0273556Y0152635D01*
X0274173Y0153252D01*
X0274173Y0154486D01*
X0273556Y0155104D01*
X0274173Y0156318D02*
X0272322Y0156318D01*
X0272939Y0157552D01*
X0272939Y0158169D01*
X0272322Y0158787D01*
X0271087Y0158787D01*
X0274173Y0158787D02*
X0274173Y0156318D01*
X0270159Y0146498D02*
X0270159Y0144029D01*
X0270159Y0145264D02*
X0273862Y0145264D01*
X0272628Y0144029D01*
X0273245Y0142815D02*
X0270776Y0142815D01*
X0270159Y0142198D01*
X0270159Y0140963D01*
X0270776Y0140346D01*
X0273245Y0142815D01*
X0273862Y0142198D01*
X0273862Y0140963D01*
X0273245Y0140346D01*
X0270776Y0140346D01*
X0270776Y0139132D02*
X0270159Y0138515D01*
X0270159Y0137280D01*
X0270776Y0136663D01*
X0272011Y0136663D02*
X0272628Y0137897D01*
X0272628Y0138515D01*
X0272011Y0139132D01*
X0270776Y0139132D01*
X0272011Y0136663D02*
X0273862Y0136663D01*
X0273862Y0139132D01*
X0273245Y0135449D02*
X0272011Y0135449D01*
X0271393Y0134832D01*
X0271393Y0132980D01*
X0270159Y0132980D02*
X0273862Y0132980D01*
X0273862Y0134832D01*
X0273245Y0135449D01*
X0271393Y0134214D02*
X0270159Y0135449D01*
X0253779Y0136118D02*
X0253779Y0137352D01*
X0253162Y0137969D01*
X0250693Y0135501D01*
X0250076Y0136118D01*
X0250076Y0137352D01*
X0250693Y0137969D01*
X0253162Y0137969D01*
X0252545Y0139184D02*
X0253779Y0140418D01*
X0250076Y0140418D01*
X0250076Y0139184D02*
X0250076Y0141653D01*
X0250693Y0135501D02*
X0253162Y0135501D01*
X0253779Y0136118D01*
X0253162Y0134286D02*
X0253779Y0133669D01*
X0253779Y0132435D01*
X0253162Y0131817D01*
X0253162Y0130603D02*
X0251927Y0130603D01*
X0251310Y0129986D01*
X0251310Y0128134D01*
X0250076Y0128134D02*
X0253779Y0128134D01*
X0253779Y0129986D01*
X0253162Y0130603D01*
X0251310Y0129369D02*
X0250076Y0130603D01*
X0250076Y0131817D02*
X0252545Y0134286D01*
X0253162Y0134286D01*
X0250076Y0134286D02*
X0250076Y0131817D01*
X0247681Y0153647D02*
X0247681Y0157351D01*
X0245830Y0157351D01*
X0245212Y0156733D01*
X0245212Y0155499D01*
X0245830Y0154882D01*
X0247681Y0154882D01*
X0246447Y0154882D02*
X0245212Y0153647D01*
X0243998Y0154265D02*
X0243381Y0153647D01*
X0242146Y0153647D01*
X0241529Y0154265D01*
X0241529Y0154882D01*
X0242146Y0155499D01*
X0243998Y0155499D01*
X0243998Y0154265D01*
X0243998Y0155499D02*
X0242764Y0156733D01*
X0241529Y0157351D01*
X0240315Y0156116D02*
X0239080Y0157351D01*
X0239080Y0153647D01*
X0237846Y0153647D02*
X0240315Y0153647D01*
X0236632Y0153647D02*
X0234163Y0156116D01*
X0234163Y0156733D01*
X0234780Y0157351D01*
X0236015Y0157351D01*
X0236632Y0156733D01*
X0236632Y0153647D02*
X0234163Y0153647D01*
X0221881Y0140005D02*
X0221881Y0136302D01*
X0219412Y0136302D01*
X0218198Y0136919D02*
X0217581Y0136302D01*
X0216347Y0136302D01*
X0215729Y0136919D01*
X0215729Y0137536D01*
X0216347Y0138153D01*
X0218198Y0138153D01*
X0218198Y0136919D01*
X0218198Y0138153D02*
X0216964Y0139388D01*
X0215729Y0140005D01*
X0214515Y0138770D02*
X0213281Y0140005D01*
X0213281Y0136302D01*
X0214515Y0136302D02*
X0212046Y0136302D01*
X0210832Y0136302D02*
X0208363Y0136302D01*
X0209597Y0136302D02*
X0209597Y0140005D01*
X0210832Y0138770D01*
X0190252Y0151021D02*
X0190252Y0154724D01*
X0188401Y0154724D01*
X0187783Y0154107D01*
X0187783Y0152872D01*
X0188401Y0152255D01*
X0190252Y0152255D01*
X0189018Y0152255D02*
X0187783Y0151021D01*
X0186569Y0151021D02*
X0184100Y0151021D01*
X0185335Y0151021D02*
X0185335Y0154724D01*
X0186569Y0153490D01*
X0182886Y0152872D02*
X0181651Y0153490D01*
X0181034Y0153490D01*
X0180417Y0152872D01*
X0180417Y0151638D01*
X0181034Y0151021D01*
X0182269Y0151021D01*
X0182886Y0151638D01*
X0182886Y0152872D02*
X0182886Y0154724D01*
X0180417Y0154724D01*
X0179203Y0153490D02*
X0177968Y0154724D01*
X0177968Y0151021D01*
X0176734Y0151021D02*
X0179203Y0151021D01*
X0186046Y0158119D02*
X0186663Y0157502D01*
X0189132Y0157502D01*
X0189749Y0158119D01*
X0189749Y0159354D01*
X0189132Y0159971D01*
X0188515Y0161185D02*
X0189749Y0162420D01*
X0186046Y0162420D01*
X0186046Y0163654D02*
X0186046Y0161185D01*
X0186663Y0159971D02*
X0186046Y0159354D01*
X0186046Y0158119D01*
X0186663Y0164869D02*
X0186046Y0165486D01*
X0186046Y0166720D01*
X0186663Y0167337D01*
X0187898Y0167337D01*
X0188515Y0166720D01*
X0188515Y0166103D01*
X0187898Y0164869D01*
X0189749Y0164869D01*
X0189749Y0167337D01*
X0189132Y0168552D02*
X0189749Y0169169D01*
X0189749Y0170403D01*
X0189132Y0171020D01*
X0188515Y0171020D01*
X0186046Y0168552D01*
X0186046Y0171020D01*
X0153407Y0157363D02*
X0153407Y0154894D01*
X0152789Y0154277D01*
X0151555Y0154277D01*
X0150938Y0154894D01*
X0149724Y0154894D02*
X0149106Y0154277D01*
X0147872Y0154277D01*
X0147255Y0154894D01*
X0147255Y0155512D01*
X0147872Y0156129D01*
X0149724Y0156129D01*
X0149724Y0154894D01*
X0149724Y0156129D02*
X0148489Y0157363D01*
X0147255Y0157980D01*
X0146040Y0156746D02*
X0144806Y0157980D01*
X0144806Y0154277D01*
X0146040Y0154277D02*
X0143572Y0154277D01*
X0142357Y0154277D02*
X0139888Y0154277D01*
X0141123Y0154277D02*
X0141123Y0157980D01*
X0142357Y0156746D01*
X0150938Y0157363D02*
X0151555Y0157980D01*
X0152789Y0157980D01*
X0153407Y0157363D01*
X0133058Y0148571D02*
X0133058Y0144868D01*
X0133058Y0146103D02*
X0131207Y0146103D01*
X0130589Y0146720D01*
X0130589Y0147954D01*
X0131207Y0148571D01*
X0133058Y0148571D01*
X0131824Y0146103D02*
X0130589Y0144868D01*
X0129375Y0145485D02*
X0128758Y0144868D01*
X0127523Y0144868D01*
X0126906Y0145485D01*
X0126906Y0147954D01*
X0127523Y0148571D01*
X0128758Y0148571D01*
X0129375Y0147954D01*
X0129375Y0147337D01*
X0128758Y0146720D01*
X0126906Y0146720D01*
X0125692Y0147337D02*
X0124458Y0148571D01*
X0124458Y0144868D01*
X0125692Y0144868D02*
X0123223Y0144868D01*
X0122009Y0145485D02*
X0121392Y0144868D01*
X0120157Y0144868D01*
X0119540Y0145485D01*
X0119540Y0146720D01*
X0120157Y0147337D01*
X0120774Y0147337D01*
X0122009Y0146720D01*
X0122009Y0148571D01*
X0119540Y0148571D01*
X0134821Y0136612D02*
X0136055Y0135994D01*
X0137289Y0134760D01*
X0135438Y0134760D01*
X0134821Y0134143D01*
X0134821Y0133526D01*
X0135438Y0132908D01*
X0136672Y0132908D01*
X0137289Y0133526D01*
X0137289Y0134760D01*
X0138504Y0132908D02*
X0140972Y0132908D01*
X0139738Y0132908D02*
X0139738Y0136612D01*
X0140972Y0135377D01*
X0142187Y0134760D02*
X0144038Y0134760D01*
X0144656Y0135377D01*
X0144656Y0135994D01*
X0144038Y0136612D01*
X0142804Y0136612D01*
X0142187Y0135994D01*
X0142187Y0133526D01*
X0142804Y0132908D01*
X0144038Y0132908D01*
X0144656Y0133526D01*
X0145870Y0132908D02*
X0147104Y0134143D01*
X0146487Y0134143D02*
X0148339Y0134143D01*
X0148339Y0132908D02*
X0148339Y0136612D01*
X0146487Y0136612D01*
X0145870Y0135994D01*
X0145870Y0134760D01*
X0146487Y0134143D01*
X0158995Y0120004D02*
X0158995Y0116301D01*
X0160229Y0116301D02*
X0157760Y0116301D01*
X0160229Y0118769D02*
X0158995Y0120004D01*
X0161444Y0119387D02*
X0161444Y0116918D01*
X0162061Y0116301D01*
X0163295Y0116301D01*
X0163912Y0116918D01*
X0161444Y0119387D01*
X0162061Y0120004D01*
X0163295Y0120004D01*
X0163912Y0119387D01*
X0163912Y0116918D01*
X0165127Y0119387D02*
X0167596Y0116918D01*
X0167596Y0116301D01*
X0168810Y0116301D02*
X0170044Y0117535D01*
X0169427Y0117535D02*
X0171279Y0117535D01*
X0171279Y0116301D02*
X0171279Y0120004D01*
X0169427Y0120004D01*
X0168810Y0119387D01*
X0168810Y0118152D01*
X0169427Y0117535D01*
X0167596Y0120004D02*
X0165127Y0120004D01*
X0165127Y0119387D01*
X0175623Y0122949D02*
X0179326Y0122949D01*
X0179326Y0124801D01*
X0178709Y0125418D01*
X0177474Y0125418D01*
X0176857Y0124801D01*
X0176857Y0122949D01*
X0176857Y0124184D02*
X0175623Y0125418D01*
X0176240Y0126632D02*
X0175623Y0127250D01*
X0175623Y0128484D01*
X0176240Y0129101D01*
X0178709Y0129101D01*
X0179326Y0128484D01*
X0179326Y0127250D01*
X0178709Y0126632D01*
X0178091Y0126632D01*
X0177474Y0127250D01*
X0177474Y0129101D01*
X0178091Y0130316D02*
X0179326Y0131550D01*
X0175623Y0131550D01*
X0175623Y0130316D02*
X0175623Y0132784D01*
X0177474Y0133999D02*
X0177474Y0136468D01*
X0175623Y0135850D02*
X0179326Y0135850D01*
X0177474Y0133999D01*
X0154054Y0115122D02*
X0150351Y0115122D01*
X0150351Y0116356D02*
X0150351Y0113887D01*
X0150968Y0112673D02*
X0153437Y0112673D01*
X0154054Y0112056D01*
X0154054Y0110821D01*
X0153437Y0110204D01*
X0152820Y0110204D01*
X0152202Y0110821D01*
X0152202Y0112673D01*
X0150968Y0112673D02*
X0150351Y0112056D01*
X0150351Y0110821D01*
X0150968Y0110204D01*
X0153437Y0108990D02*
X0150968Y0106521D01*
X0150351Y0106521D01*
X0150968Y0105307D02*
X0150351Y0104690D01*
X0150351Y0103455D01*
X0150968Y0102838D01*
X0153437Y0102838D01*
X0154054Y0103455D01*
X0154054Y0104690D01*
X0153437Y0105307D01*
X0154054Y0106521D02*
X0154054Y0108990D01*
X0153437Y0108990D01*
X0152820Y0113887D02*
X0154054Y0115122D01*
X0126102Y0111570D02*
X0126102Y0107867D01*
X0126102Y0109101D02*
X0124250Y0109101D01*
X0123633Y0109718D01*
X0123633Y0110953D01*
X0124250Y0111570D01*
X0126102Y0111570D01*
X0124867Y0109101D02*
X0123633Y0107867D01*
X0122418Y0108484D02*
X0121801Y0107867D01*
X0120567Y0107867D01*
X0119950Y0108484D01*
X0119950Y0110953D01*
X0120567Y0111570D01*
X0121801Y0111570D01*
X0122418Y0110953D01*
X0122418Y0110336D01*
X0121801Y0109718D01*
X0119950Y0109718D01*
X0118735Y0110336D02*
X0117501Y0111570D01*
X0117501Y0107867D01*
X0118735Y0107867D02*
X0116267Y0107867D01*
X0115052Y0108484D02*
X0114435Y0107867D01*
X0113201Y0107867D01*
X0112583Y0108484D01*
X0112583Y0109101D01*
X0113201Y0109718D01*
X0113818Y0109718D01*
X0113201Y0109718D02*
X0112583Y0110336D01*
X0112583Y0110953D01*
X0113201Y0111570D01*
X0114435Y0111570D01*
X0115052Y0110953D01*
X0136896Y0063830D02*
X0136279Y0063213D01*
X0136279Y0062596D01*
X0138748Y0060127D01*
X0136279Y0060127D01*
X0139962Y0060127D02*
X0142431Y0060127D01*
X0141197Y0060127D02*
X0141197Y0063830D01*
X0142431Y0062596D01*
X0143645Y0063213D02*
X0144263Y0063830D01*
X0145497Y0063830D01*
X0146114Y0063213D01*
X0146114Y0062596D01*
X0145497Y0061979D01*
X0143645Y0061979D01*
X0143645Y0063213D02*
X0143645Y0060744D01*
X0144263Y0060127D01*
X0145497Y0060127D01*
X0146114Y0060744D01*
X0147329Y0060744D02*
X0147946Y0060127D01*
X0149180Y0060127D01*
X0149797Y0060744D01*
X0149797Y0063213D01*
X0149180Y0063830D01*
X0147946Y0063830D01*
X0147329Y0063213D01*
X0138748Y0063213D02*
X0138131Y0063830D01*
X0136896Y0063830D01*
X0142101Y0048115D02*
X0142101Y0044412D01*
X0143335Y0044412D02*
X0140867Y0044412D01*
X0143335Y0046880D02*
X0142101Y0048115D01*
X0145784Y0048115D02*
X0145784Y0044412D01*
X0147018Y0044412D02*
X0144550Y0044412D01*
X0147018Y0046880D02*
X0145784Y0048115D01*
X0148233Y0047498D02*
X0148233Y0046880D01*
X0148850Y0046263D01*
X0148233Y0045646D01*
X0148233Y0045029D01*
X0148850Y0044412D01*
X0150084Y0044412D01*
X0150702Y0045029D01*
X0151916Y0044412D02*
X0153150Y0045646D01*
X0152533Y0045646D02*
X0154385Y0045646D01*
X0154385Y0044412D02*
X0154385Y0048115D01*
X0152533Y0048115D01*
X0151916Y0047498D01*
X0151916Y0046263D01*
X0152533Y0045646D01*
X0150702Y0047498D02*
X0150084Y0048115D01*
X0148850Y0048115D01*
X0148233Y0047498D01*
X0148850Y0046263D02*
X0149467Y0046263D01*
X0211445Y0047409D02*
X0211445Y0048644D01*
X0212062Y0049261D01*
X0211445Y0050475D02*
X0213914Y0052944D01*
X0214531Y0052944D01*
X0215148Y0052327D01*
X0215148Y0051093D01*
X0214531Y0050475D01*
X0214531Y0049261D02*
X0215148Y0048644D01*
X0215148Y0047409D01*
X0214531Y0046792D01*
X0212062Y0046792D01*
X0211445Y0047409D01*
X0211445Y0050475D02*
X0211445Y0052944D01*
X0212062Y0054159D02*
X0211445Y0054776D01*
X0211445Y0056010D01*
X0212062Y0056627D01*
X0214531Y0056627D01*
X0215148Y0056010D01*
X0215148Y0054776D01*
X0214531Y0054159D01*
X0213914Y0054159D01*
X0213297Y0054776D01*
X0213297Y0056627D01*
X0214531Y0057842D02*
X0215148Y0058459D01*
X0215148Y0059693D01*
X0214531Y0060310D01*
X0213914Y0060310D01*
X0211445Y0057842D01*
X0211445Y0060310D01*
X0211234Y0072384D02*
X0214937Y0072384D01*
X0214937Y0074235D01*
X0214320Y0074852D01*
X0213086Y0074852D01*
X0212469Y0074235D01*
X0212469Y0072384D01*
X0212469Y0073618D02*
X0211234Y0074852D01*
X0211852Y0076067D02*
X0211234Y0076684D01*
X0211234Y0077918D01*
X0211852Y0078536D01*
X0214320Y0078536D01*
X0214937Y0077918D01*
X0214937Y0076684D01*
X0214320Y0076067D01*
X0213703Y0076067D01*
X0213086Y0076684D01*
X0213086Y0078536D01*
X0213086Y0079750D02*
X0213703Y0080984D01*
X0213703Y0081602D01*
X0213086Y0082219D01*
X0211852Y0082219D01*
X0211234Y0081602D01*
X0211234Y0080367D01*
X0211852Y0079750D01*
X0213086Y0079750D02*
X0214937Y0079750D01*
X0214937Y0082219D01*
X0213703Y0083433D02*
X0214937Y0084668D01*
X0211234Y0084668D01*
X0211234Y0085902D02*
X0211234Y0083433D01*
X0255980Y0094789D02*
X0255980Y0096641D01*
X0256597Y0097258D01*
X0259066Y0097258D01*
X0259683Y0096641D01*
X0259683Y0094789D01*
X0255980Y0094789D01*
X0257831Y0098473D02*
X0257831Y0100941D01*
X0256597Y0102156D02*
X0259066Y0104624D01*
X0256597Y0104624D01*
X0255980Y0104007D01*
X0255980Y0102773D01*
X0256597Y0102156D01*
X0259066Y0102156D01*
X0259683Y0102773D01*
X0259683Y0104007D01*
X0259066Y0104624D01*
X0258449Y0105839D02*
X0259683Y0107073D01*
X0255980Y0107073D01*
X0255980Y0105839D02*
X0255980Y0108308D01*
X0255980Y0100324D02*
X0259683Y0100324D01*
X0257831Y0098473D01*
X0285203Y0107576D02*
X0288906Y0107576D01*
X0288906Y0109428D01*
X0288289Y0110045D01*
X0287054Y0110045D01*
X0286437Y0109428D01*
X0286437Y0107576D01*
X0286437Y0108811D02*
X0285203Y0110045D01*
X0287054Y0111259D02*
X0287054Y0113728D01*
X0287672Y0114943D02*
X0288906Y0116177D01*
X0285203Y0116177D01*
X0285203Y0114943D02*
X0285203Y0117411D01*
X0285203Y0118626D02*
X0285203Y0121094D01*
X0285203Y0119860D02*
X0288906Y0119860D01*
X0287672Y0118626D01*
X0288906Y0113111D02*
X0285203Y0113111D01*
X0287054Y0111259D02*
X0288906Y0113111D01*
X0320750Y0115565D02*
X0323219Y0115565D01*
X0324433Y0115565D02*
X0326902Y0115565D01*
X0325668Y0115565D02*
X0325668Y0119268D01*
X0326902Y0118034D01*
X0328116Y0117417D02*
X0330585Y0117417D01*
X0328734Y0119268D01*
X0328734Y0115565D01*
X0331800Y0116182D02*
X0332417Y0115565D01*
X0333651Y0115565D01*
X0334268Y0116182D01*
X0334268Y0118651D01*
X0333651Y0119268D01*
X0332417Y0119268D01*
X0331800Y0118651D01*
X0323219Y0118034D02*
X0321985Y0119268D01*
X0321985Y0115565D01*
X0322290Y0109601D02*
X0322290Y0105897D01*
X0321056Y0105897D02*
X0323525Y0105897D01*
X0324739Y0106515D02*
X0325356Y0105897D01*
X0326591Y0105897D01*
X0327208Y0106515D01*
X0328422Y0106515D02*
X0328422Y0108983D01*
X0329040Y0109601D01*
X0330274Y0109601D01*
X0330891Y0108983D01*
X0330891Y0108366D01*
X0330274Y0107749D01*
X0328422Y0107749D01*
X0328422Y0106515D02*
X0329040Y0105897D01*
X0330274Y0105897D01*
X0330891Y0106515D01*
X0332105Y0105897D02*
X0333340Y0107132D01*
X0332723Y0107132D02*
X0334574Y0107132D01*
X0334574Y0105897D02*
X0334574Y0109601D01*
X0332723Y0109601D01*
X0332105Y0108983D01*
X0332105Y0107749D01*
X0332723Y0107132D01*
X0327208Y0108983D02*
X0326591Y0109601D01*
X0325356Y0109601D01*
X0324739Y0108983D01*
X0324739Y0108366D01*
X0325356Y0107749D01*
X0324739Y0107132D01*
X0324739Y0106515D01*
X0325356Y0107749D02*
X0325974Y0107749D01*
X0323525Y0108366D02*
X0322290Y0109601D01*
X0321734Y0125871D02*
X0324203Y0125871D01*
X0321734Y0128339D01*
X0321734Y0128957D01*
X0322351Y0129574D01*
X0323586Y0129574D01*
X0324203Y0128957D01*
X0326652Y0129574D02*
X0326652Y0125871D01*
X0327886Y0125871D02*
X0325417Y0125871D01*
X0327886Y0128339D02*
X0326652Y0129574D01*
X0329718Y0129574D02*
X0331569Y0127722D01*
X0329100Y0127722D01*
X0329718Y0125871D02*
X0329718Y0129574D01*
X0332784Y0128957D02*
X0332784Y0127722D01*
X0333401Y0127105D01*
X0335252Y0127105D01*
X0334018Y0127105D02*
X0332784Y0125871D01*
X0335252Y0125871D02*
X0335252Y0129574D01*
X0333401Y0129574D01*
X0332784Y0128957D01*
X0348236Y0078929D02*
X0348236Y0075226D01*
X0349470Y0075226D02*
X0347001Y0075226D01*
X0349470Y0077694D02*
X0348236Y0078929D01*
X0351919Y0078929D02*
X0351919Y0075226D01*
X0353153Y0075226D02*
X0350684Y0075226D01*
X0353153Y0077694D02*
X0351919Y0078929D01*
X0354368Y0078312D02*
X0354368Y0077694D01*
X0354985Y0077077D01*
X0354368Y0076460D01*
X0354368Y0075843D01*
X0354985Y0075226D01*
X0356219Y0075226D01*
X0356836Y0075843D01*
X0358051Y0075843D02*
X0358668Y0075226D01*
X0359902Y0075226D01*
X0360520Y0075843D01*
X0360520Y0078312D01*
X0359902Y0078929D01*
X0358668Y0078929D01*
X0358051Y0078312D01*
X0356836Y0078312D02*
X0356219Y0078929D01*
X0354985Y0078929D01*
X0354368Y0078312D01*
X0354985Y0077077D02*
X0355602Y0077077D01*
X0381642Y0062838D02*
X0381642Y0059134D01*
X0382876Y0059134D02*
X0380408Y0059134D01*
X0382876Y0061603D02*
X0381642Y0062838D01*
X0384091Y0062220D02*
X0384708Y0062838D01*
X0385942Y0062838D01*
X0386560Y0062220D01*
X0386560Y0061603D01*
X0385942Y0060986D01*
X0384091Y0060986D01*
X0384091Y0059752D02*
X0384091Y0062220D01*
X0384091Y0059752D02*
X0384708Y0059134D01*
X0385942Y0059134D01*
X0386560Y0059752D01*
X0387774Y0059752D02*
X0388391Y0059134D01*
X0389626Y0059134D01*
X0390243Y0059752D01*
X0391457Y0059752D02*
X0392074Y0059134D01*
X0393309Y0059134D01*
X0393926Y0059752D01*
X0393926Y0062220D01*
X0393309Y0062838D01*
X0392074Y0062838D01*
X0391457Y0062220D01*
X0390243Y0062220D02*
X0389626Y0062838D01*
X0388391Y0062838D01*
X0387774Y0062220D01*
X0387774Y0061603D01*
X0388391Y0060986D01*
X0387774Y0060369D01*
X0387774Y0059752D01*
X0388391Y0060986D02*
X0389008Y0060986D01*
X0364614Y0030319D02*
X0363380Y0030319D01*
X0362762Y0029701D01*
X0361548Y0029701D02*
X0360931Y0030319D01*
X0359696Y0030319D01*
X0359079Y0029701D01*
X0359079Y0029084D01*
X0359696Y0028467D01*
X0359079Y0027850D01*
X0359079Y0027233D01*
X0359696Y0026615D01*
X0360931Y0026615D01*
X0361548Y0027233D01*
X0362762Y0027233D02*
X0363380Y0026615D01*
X0364614Y0026615D01*
X0365231Y0027233D01*
X0365231Y0029701D01*
X0364614Y0030319D01*
X0360314Y0028467D02*
X0359696Y0028467D01*
X0357865Y0027233D02*
X0355396Y0029701D01*
X0355396Y0027233D01*
X0356013Y0026615D01*
X0357248Y0026615D01*
X0357865Y0027233D01*
X0357865Y0029701D01*
X0357248Y0030319D01*
X0356013Y0030319D01*
X0355396Y0029701D01*
X0354182Y0029084D02*
X0352947Y0030319D01*
X0352947Y0026615D01*
X0351713Y0026615D02*
X0354182Y0026615D01*
X0344860Y0026669D02*
X0344860Y0030372D01*
X0343009Y0030372D01*
X0342391Y0029755D01*
X0342391Y0028521D01*
X0343009Y0027904D01*
X0344860Y0027904D01*
X0343626Y0027904D02*
X0342391Y0026669D01*
X0341177Y0027286D02*
X0340560Y0026669D01*
X0339326Y0026669D01*
X0338708Y0027286D01*
X0338708Y0027904D01*
X0339326Y0028521D01*
X0339943Y0028521D01*
X0339326Y0028521D02*
X0338708Y0029138D01*
X0338708Y0029755D01*
X0339326Y0030372D01*
X0340560Y0030372D01*
X0341177Y0029755D01*
X0337494Y0029755D02*
X0337494Y0027286D01*
X0335025Y0029755D01*
X0335025Y0027286D01*
X0335642Y0026669D01*
X0336877Y0026669D01*
X0337494Y0027286D01*
X0337494Y0029755D02*
X0336877Y0030372D01*
X0335642Y0030372D01*
X0335025Y0029755D01*
X0333811Y0029138D02*
X0332576Y0030372D01*
X0332576Y0026669D01*
X0331342Y0026669D02*
X0333811Y0026669D01*
X0235666Y0025815D02*
X0235666Y0023346D01*
X0235049Y0022729D01*
X0233814Y0022729D01*
X0233197Y0023346D01*
X0231983Y0024581D02*
X0229514Y0024581D01*
X0228300Y0025198D02*
X0227682Y0024581D01*
X0225831Y0024581D01*
X0225831Y0025815D02*
X0226448Y0026432D01*
X0227682Y0026432D01*
X0228300Y0025815D01*
X0228300Y0025198D01*
X0228300Y0023346D02*
X0227682Y0022729D01*
X0226448Y0022729D01*
X0225831Y0023346D01*
X0225831Y0025815D01*
X0224616Y0025198D02*
X0223382Y0026432D01*
X0223382Y0022729D01*
X0224616Y0022729D02*
X0222148Y0022729D01*
X0214976Y0022122D02*
X0214976Y0023356D01*
X0214359Y0023974D01*
X0213742Y0023974D01*
X0211273Y0021505D01*
X0211273Y0023974D01*
X0211890Y0025188D02*
X0211273Y0025805D01*
X0211273Y0027040D01*
X0211890Y0027657D01*
X0214359Y0027657D01*
X0214976Y0027040D01*
X0214976Y0025805D01*
X0214359Y0025188D01*
X0213742Y0025188D01*
X0213125Y0025805D01*
X0213125Y0027657D01*
X0213742Y0028871D02*
X0214976Y0030105D01*
X0211273Y0030105D01*
X0211273Y0028871D02*
X0211273Y0031340D01*
X0214976Y0022122D02*
X0214359Y0021505D01*
X0214359Y0020290D02*
X0214976Y0019673D01*
X0214976Y0018439D01*
X0214359Y0017822D01*
X0211890Y0017822D01*
X0211273Y0018439D01*
X0211273Y0019673D01*
X0211890Y0020290D01*
X0230131Y0022729D02*
X0230131Y0026432D01*
X0231983Y0024581D01*
X0233197Y0025815D02*
X0233814Y0026432D01*
X0235049Y0026432D01*
X0235666Y0025815D01*
X0149883Y0175986D02*
X0148648Y0175986D01*
X0148031Y0176604D01*
X0146817Y0175986D02*
X0144348Y0175986D01*
X0145582Y0175986D02*
X0145582Y0179690D01*
X0146817Y0178455D01*
X0148031Y0179072D02*
X0148648Y0179690D01*
X0149883Y0179690D01*
X0150500Y0179072D01*
X0150500Y0176604D01*
X0149883Y0175986D01*
X0143134Y0176604D02*
X0142516Y0175986D01*
X0141282Y0175986D01*
X0140665Y0176604D01*
X0140665Y0179072D01*
X0141282Y0179690D01*
X0142516Y0179690D01*
X0143134Y0179072D01*
X0143134Y0178455D01*
X0142516Y0177838D01*
X0140665Y0177838D01*
X0139450Y0178455D02*
X0138216Y0179690D01*
X0138216Y0175986D01*
X0139450Y0175986D02*
X0136982Y0175986D01*
X0130480Y0176005D02*
X0130480Y0179708D01*
X0128628Y0179708D01*
X0128011Y0179091D01*
X0128011Y0177857D01*
X0128628Y0177240D01*
X0130480Y0177240D01*
X0129245Y0177240D02*
X0128011Y0176005D01*
X0126797Y0176005D02*
X0124328Y0176005D01*
X0123113Y0176005D02*
X0120645Y0176005D01*
X0119430Y0176005D02*
X0116961Y0176005D01*
X0118196Y0176005D02*
X0118196Y0179708D01*
X0119430Y0178474D01*
X0121879Y0179708D02*
X0121879Y0176005D01*
X0123113Y0178474D02*
X0121879Y0179708D01*
X0125562Y0179708D02*
X0125562Y0176005D01*
X0126797Y0178474D02*
X0125562Y0179708D01*
X0161650Y0213710D02*
X0165353Y0213710D01*
X0165353Y0215562D01*
X0164736Y0216179D01*
X0163501Y0216179D01*
X0162884Y0215562D01*
X0162884Y0213710D01*
X0162884Y0214945D02*
X0161650Y0216179D01*
X0161650Y0217393D02*
X0161650Y0219862D01*
X0161650Y0221076D02*
X0164119Y0223545D01*
X0164736Y0223545D01*
X0165353Y0222928D01*
X0165353Y0221694D01*
X0164736Y0221076D01*
X0165353Y0218628D02*
X0161650Y0218628D01*
X0161650Y0221076D02*
X0161650Y0223545D01*
X0162267Y0224760D02*
X0161650Y0225377D01*
X0161650Y0226611D01*
X0162267Y0227228D01*
X0162884Y0227228D01*
X0163501Y0226611D01*
X0163501Y0225994D01*
X0163501Y0226611D02*
X0164119Y0227228D01*
X0164736Y0227228D01*
X0165353Y0226611D01*
X0165353Y0225377D01*
X0164736Y0224760D01*
X0165353Y0218628D02*
X0164119Y0217393D01*
X0145785Y0224240D02*
X0145168Y0223623D01*
X0143934Y0223623D01*
X0143316Y0224240D01*
X0142102Y0223623D02*
X0139633Y0223623D01*
X0140868Y0223623D02*
X0140868Y0227326D01*
X0142102Y0226092D01*
X0143316Y0226709D02*
X0143934Y0227326D01*
X0145168Y0227326D01*
X0145785Y0226709D01*
X0145785Y0224240D01*
X0138419Y0224240D02*
X0137802Y0223623D01*
X0136567Y0223623D01*
X0135950Y0224240D01*
X0135950Y0226709D01*
X0138419Y0224240D01*
X0138419Y0226709D01*
X0137802Y0227326D01*
X0136567Y0227326D01*
X0135950Y0226709D01*
X0134736Y0226709D02*
X0134119Y0227326D01*
X0132884Y0227326D01*
X0132267Y0226709D01*
X0132267Y0226092D01*
X0134736Y0223623D01*
X0132267Y0223623D01*
X0130871Y0246502D02*
X0130871Y0250205D01*
X0129019Y0250205D01*
X0128402Y0249588D01*
X0128402Y0248354D01*
X0129019Y0247737D01*
X0130871Y0247737D01*
X0129637Y0247737D02*
X0128402Y0246502D01*
X0127188Y0246502D02*
X0124719Y0246502D01*
X0125954Y0246502D02*
X0125954Y0250205D01*
X0127188Y0248971D01*
X0123505Y0248354D02*
X0121036Y0248354D01*
X0119822Y0248971D02*
X0118587Y0250205D01*
X0118587Y0246502D01*
X0117353Y0246502D02*
X0119822Y0246502D01*
X0121653Y0246502D02*
X0121653Y0250205D01*
X0123505Y0248354D01*
X0146913Y0250625D02*
X0149382Y0250625D01*
X0148148Y0250625D02*
X0148148Y0254328D01*
X0149382Y0253093D01*
X0150597Y0253711D02*
X0153065Y0251242D01*
X0152448Y0250625D01*
X0151214Y0250625D01*
X0150597Y0251242D01*
X0150597Y0253711D01*
X0151214Y0254328D01*
X0152448Y0254328D01*
X0153065Y0253711D01*
X0153065Y0251242D01*
X0154280Y0250625D02*
X0156749Y0250625D01*
X0155514Y0250625D02*
X0155514Y0254328D01*
X0156749Y0253093D01*
X0157963Y0253711D02*
X0158580Y0254328D01*
X0159815Y0254328D01*
X0160432Y0253711D01*
X0160432Y0251242D01*
X0159815Y0250625D01*
X0158580Y0250625D01*
X0157963Y0251242D01*
X0174372Y0251387D02*
X0176841Y0253856D01*
X0177458Y0253856D01*
X0178075Y0253239D01*
X0178075Y0252005D01*
X0177458Y0251387D01*
X0178075Y0248939D02*
X0174372Y0248939D01*
X0174372Y0250173D02*
X0174372Y0247704D01*
X0174372Y0246490D02*
X0175607Y0245255D01*
X0175607Y0245873D02*
X0175607Y0244021D01*
X0174372Y0244021D02*
X0178075Y0244021D01*
X0178075Y0245873D01*
X0177458Y0246490D01*
X0176224Y0246490D01*
X0175607Y0245873D01*
X0176841Y0247704D02*
X0178075Y0248939D01*
X0174372Y0251387D02*
X0174372Y0253856D01*
X0174372Y0255070D02*
X0176841Y0257539D01*
X0177458Y0257539D01*
X0178075Y0256922D01*
X0178075Y0255688D01*
X0177458Y0255070D01*
X0174372Y0255070D02*
X0174372Y0257539D01*
X0160412Y0269599D02*
X0157944Y0269599D01*
X0156729Y0269599D02*
X0154260Y0269599D01*
X0155495Y0269599D02*
X0155495Y0273302D01*
X0156729Y0272067D01*
X0153046Y0272684D02*
X0152429Y0273302D01*
X0151194Y0273302D01*
X0150577Y0272684D01*
X0153046Y0270216D01*
X0152429Y0269599D01*
X0151194Y0269599D01*
X0150577Y0270216D01*
X0150577Y0272684D01*
X0149363Y0272067D02*
X0148129Y0273302D01*
X0148129Y0269599D01*
X0149363Y0269599D02*
X0146894Y0269599D01*
X0153046Y0270216D02*
X0153046Y0272684D01*
X0160412Y0273302D02*
X0160412Y0269599D01*
X0197640Y0257308D02*
X0197640Y0254839D01*
X0197640Y0253625D02*
X0197640Y0251156D01*
X0200109Y0253625D01*
X0200726Y0253625D01*
X0201343Y0253007D01*
X0201343Y0251773D01*
X0200726Y0251156D01*
X0201343Y0248707D02*
X0197640Y0248707D01*
X0197640Y0247473D02*
X0197640Y0249941D01*
X0200109Y0247473D02*
X0201343Y0248707D01*
X0200726Y0246258D02*
X0199491Y0246258D01*
X0198874Y0245641D01*
X0198874Y0243790D01*
X0198874Y0245024D02*
X0197640Y0246258D01*
X0197640Y0243790D02*
X0201343Y0243790D01*
X0201343Y0245641D01*
X0200726Y0246258D01*
X0209592Y0241313D02*
X0212061Y0241313D01*
X0210827Y0241313D02*
X0210827Y0245016D01*
X0212061Y0243781D01*
X0213275Y0244399D02*
X0215744Y0241930D01*
X0215127Y0241313D01*
X0213893Y0241313D01*
X0213275Y0241930D01*
X0213275Y0244399D01*
X0213893Y0245016D01*
X0215127Y0245016D01*
X0215744Y0244399D01*
X0215744Y0241930D01*
X0216959Y0241930D02*
X0216959Y0242547D01*
X0217576Y0243164D01*
X0219427Y0243164D01*
X0219427Y0241930D01*
X0218810Y0241313D01*
X0217576Y0241313D01*
X0216959Y0241930D01*
X0219427Y0243164D02*
X0218193Y0244399D01*
X0216959Y0245016D01*
X0220642Y0244399D02*
X0220642Y0243164D01*
X0221259Y0242547D01*
X0223110Y0242547D01*
X0221876Y0242547D02*
X0220642Y0241313D01*
X0223110Y0241313D02*
X0223110Y0245016D01*
X0221259Y0245016D01*
X0220642Y0244399D01*
X0201343Y0256073D02*
X0197640Y0256073D01*
X0200109Y0254839D02*
X0201343Y0256073D01*
X0256780Y0233325D02*
X0256780Y0230856D01*
X0256780Y0229642D02*
X0256780Y0227173D01*
X0259248Y0229642D01*
X0259866Y0229642D01*
X0260483Y0229025D01*
X0260483Y0227790D01*
X0259866Y0227173D01*
X0259866Y0225959D02*
X0260483Y0225342D01*
X0260483Y0224107D01*
X0259866Y0223490D01*
X0259248Y0223490D01*
X0258631Y0224107D01*
X0258631Y0225959D01*
X0257397Y0225959D02*
X0259866Y0225959D01*
X0257397Y0225959D02*
X0256780Y0225342D01*
X0256780Y0224107D01*
X0257397Y0223490D01*
X0257397Y0222276D02*
X0259866Y0222276D01*
X0260483Y0221658D01*
X0260483Y0219807D01*
X0256780Y0219807D01*
X0256780Y0221658D01*
X0257397Y0222276D01*
X0259248Y0230856D02*
X0260483Y0232091D01*
X0256780Y0232091D01*
D13*
X0098504Y0077841D02*
X0098110Y0077448D01*
D14*
X0263540Y0179331D02*
X0268264Y0179331D01*
X0265902Y0183269D01*
X0263540Y0179331D01*
X0258264Y0204331D02*
X0253540Y0204331D01*
X0255902Y0208269D01*
X0258264Y0204331D01*
D15*
X0255902Y0209000D03*
X0265902Y0184000D03*
M02*
