G75*
%MOIN*%
%OFA0B0*%
%FSLAX25Y25*%
%IPPOS*%
%LPD*%
%AMOC8*
5,1,8,0,0,1.08239X$1,22.5*
%
%ADD10C,0.00000*%
%ADD11R,0.05512X0.10236*%
%ADD12R,0.03937X0.04724*%
%ADD13R,0.07874X0.06299*%
%ADD14R,0.03937X0.05906*%
%ADD15C,0.01969*%
%ADD16R,0.02600X0.08000*%
%ADD17R,0.05906X0.01969*%
%ADD18R,0.01969X0.05906*%
%ADD19R,0.05906X0.05118*%
%ADD20R,0.06300X0.04600*%
%ADD21R,0.05512X0.08661*%
%ADD22C,0.06299*%
%ADD23R,0.06299X0.06299*%
%ADD24R,0.02200X0.05000*%
%ADD25R,0.03543X0.05512*%
%ADD26R,0.23780X0.13386*%
%ADD27R,0.11811X0.02756*%
%ADD28R,0.16929X0.09843*%
%ADD29R,0.04724X0.03937*%
%ADD30R,0.05000X0.02200*%
%ADD31R,0.08661X0.05512*%
%ADD32R,0.07874X0.02362*%
%ADD33R,0.05118X0.05906*%
D10*
X0055902Y0001800D02*
X0055902Y0277391D01*
X0410233Y0277391D01*
X0410233Y0001800D01*
X0055902Y0001800D01*
X0089370Y0096149D02*
X0089372Y0096254D01*
X0089378Y0096359D01*
X0089388Y0096463D01*
X0089402Y0096567D01*
X0089420Y0096671D01*
X0089442Y0096773D01*
X0089467Y0096875D01*
X0089497Y0096976D01*
X0089530Y0097075D01*
X0089567Y0097173D01*
X0089608Y0097270D01*
X0089653Y0097365D01*
X0089701Y0097458D01*
X0089752Y0097550D01*
X0089808Y0097639D01*
X0089866Y0097726D01*
X0089928Y0097811D01*
X0089992Y0097894D01*
X0090060Y0097974D01*
X0090131Y0098051D01*
X0090205Y0098125D01*
X0090282Y0098197D01*
X0090361Y0098266D01*
X0090443Y0098331D01*
X0090527Y0098394D01*
X0090614Y0098453D01*
X0090703Y0098509D01*
X0090794Y0098562D01*
X0090887Y0098611D01*
X0090981Y0098656D01*
X0091077Y0098698D01*
X0091175Y0098736D01*
X0091274Y0098770D01*
X0091375Y0098801D01*
X0091476Y0098827D01*
X0091579Y0098850D01*
X0091682Y0098869D01*
X0091786Y0098884D01*
X0091890Y0098895D01*
X0091995Y0098902D01*
X0092100Y0098905D01*
X0092205Y0098904D01*
X0092310Y0098899D01*
X0092414Y0098890D01*
X0092518Y0098877D01*
X0092622Y0098860D01*
X0092725Y0098839D01*
X0092827Y0098814D01*
X0092928Y0098786D01*
X0093027Y0098753D01*
X0093126Y0098717D01*
X0093223Y0098677D01*
X0093318Y0098634D01*
X0093412Y0098586D01*
X0093504Y0098536D01*
X0093594Y0098482D01*
X0093682Y0098424D01*
X0093767Y0098363D01*
X0093850Y0098299D01*
X0093931Y0098232D01*
X0094009Y0098162D01*
X0094084Y0098088D01*
X0094156Y0098013D01*
X0094226Y0097934D01*
X0094292Y0097853D01*
X0094356Y0097769D01*
X0094416Y0097683D01*
X0094472Y0097595D01*
X0094526Y0097504D01*
X0094576Y0097412D01*
X0094622Y0097318D01*
X0094665Y0097222D01*
X0094704Y0097124D01*
X0094739Y0097026D01*
X0094770Y0096925D01*
X0094798Y0096824D01*
X0094822Y0096722D01*
X0094842Y0096619D01*
X0094858Y0096515D01*
X0094870Y0096411D01*
X0094878Y0096306D01*
X0094882Y0096201D01*
X0094882Y0096097D01*
X0094878Y0095992D01*
X0094870Y0095887D01*
X0094858Y0095783D01*
X0094842Y0095679D01*
X0094822Y0095576D01*
X0094798Y0095474D01*
X0094770Y0095373D01*
X0094739Y0095272D01*
X0094704Y0095174D01*
X0094665Y0095076D01*
X0094622Y0094980D01*
X0094576Y0094886D01*
X0094526Y0094794D01*
X0094472Y0094703D01*
X0094416Y0094615D01*
X0094356Y0094529D01*
X0094292Y0094445D01*
X0094226Y0094364D01*
X0094156Y0094285D01*
X0094084Y0094210D01*
X0094009Y0094136D01*
X0093931Y0094066D01*
X0093850Y0093999D01*
X0093767Y0093935D01*
X0093682Y0093874D01*
X0093594Y0093816D01*
X0093504Y0093762D01*
X0093412Y0093712D01*
X0093318Y0093664D01*
X0093223Y0093621D01*
X0093126Y0093581D01*
X0093027Y0093545D01*
X0092928Y0093512D01*
X0092827Y0093484D01*
X0092725Y0093459D01*
X0092622Y0093438D01*
X0092518Y0093421D01*
X0092414Y0093408D01*
X0092310Y0093399D01*
X0092205Y0093394D01*
X0092100Y0093393D01*
X0091995Y0093396D01*
X0091890Y0093403D01*
X0091786Y0093414D01*
X0091682Y0093429D01*
X0091579Y0093448D01*
X0091476Y0093471D01*
X0091375Y0093497D01*
X0091274Y0093528D01*
X0091175Y0093562D01*
X0091077Y0093600D01*
X0090981Y0093642D01*
X0090887Y0093687D01*
X0090794Y0093736D01*
X0090703Y0093789D01*
X0090614Y0093845D01*
X0090527Y0093904D01*
X0090443Y0093967D01*
X0090361Y0094032D01*
X0090282Y0094101D01*
X0090205Y0094173D01*
X0090131Y0094247D01*
X0090060Y0094324D01*
X0089992Y0094404D01*
X0089928Y0094487D01*
X0089866Y0094572D01*
X0089808Y0094659D01*
X0089752Y0094748D01*
X0089701Y0094840D01*
X0089653Y0094933D01*
X0089608Y0095028D01*
X0089567Y0095125D01*
X0089530Y0095223D01*
X0089497Y0095322D01*
X0089467Y0095423D01*
X0089442Y0095525D01*
X0089420Y0095627D01*
X0089402Y0095731D01*
X0089388Y0095835D01*
X0089378Y0095939D01*
X0089372Y0096044D01*
X0089370Y0096149D01*
X0089370Y0117802D02*
X0089372Y0117907D01*
X0089378Y0118012D01*
X0089388Y0118116D01*
X0089402Y0118220D01*
X0089420Y0118324D01*
X0089442Y0118426D01*
X0089467Y0118528D01*
X0089497Y0118629D01*
X0089530Y0118728D01*
X0089567Y0118826D01*
X0089608Y0118923D01*
X0089653Y0119018D01*
X0089701Y0119111D01*
X0089752Y0119203D01*
X0089808Y0119292D01*
X0089866Y0119379D01*
X0089928Y0119464D01*
X0089992Y0119547D01*
X0090060Y0119627D01*
X0090131Y0119704D01*
X0090205Y0119778D01*
X0090282Y0119850D01*
X0090361Y0119919D01*
X0090443Y0119984D01*
X0090527Y0120047D01*
X0090614Y0120106D01*
X0090703Y0120162D01*
X0090794Y0120215D01*
X0090887Y0120264D01*
X0090981Y0120309D01*
X0091077Y0120351D01*
X0091175Y0120389D01*
X0091274Y0120423D01*
X0091375Y0120454D01*
X0091476Y0120480D01*
X0091579Y0120503D01*
X0091682Y0120522D01*
X0091786Y0120537D01*
X0091890Y0120548D01*
X0091995Y0120555D01*
X0092100Y0120558D01*
X0092205Y0120557D01*
X0092310Y0120552D01*
X0092414Y0120543D01*
X0092518Y0120530D01*
X0092622Y0120513D01*
X0092725Y0120492D01*
X0092827Y0120467D01*
X0092928Y0120439D01*
X0093027Y0120406D01*
X0093126Y0120370D01*
X0093223Y0120330D01*
X0093318Y0120287D01*
X0093412Y0120239D01*
X0093504Y0120189D01*
X0093594Y0120135D01*
X0093682Y0120077D01*
X0093767Y0120016D01*
X0093850Y0119952D01*
X0093931Y0119885D01*
X0094009Y0119815D01*
X0094084Y0119741D01*
X0094156Y0119666D01*
X0094226Y0119587D01*
X0094292Y0119506D01*
X0094356Y0119422D01*
X0094416Y0119336D01*
X0094472Y0119248D01*
X0094526Y0119157D01*
X0094576Y0119065D01*
X0094622Y0118971D01*
X0094665Y0118875D01*
X0094704Y0118777D01*
X0094739Y0118679D01*
X0094770Y0118578D01*
X0094798Y0118477D01*
X0094822Y0118375D01*
X0094842Y0118272D01*
X0094858Y0118168D01*
X0094870Y0118064D01*
X0094878Y0117959D01*
X0094882Y0117854D01*
X0094882Y0117750D01*
X0094878Y0117645D01*
X0094870Y0117540D01*
X0094858Y0117436D01*
X0094842Y0117332D01*
X0094822Y0117229D01*
X0094798Y0117127D01*
X0094770Y0117026D01*
X0094739Y0116925D01*
X0094704Y0116827D01*
X0094665Y0116729D01*
X0094622Y0116633D01*
X0094576Y0116539D01*
X0094526Y0116447D01*
X0094472Y0116356D01*
X0094416Y0116268D01*
X0094356Y0116182D01*
X0094292Y0116098D01*
X0094226Y0116017D01*
X0094156Y0115938D01*
X0094084Y0115863D01*
X0094009Y0115789D01*
X0093931Y0115719D01*
X0093850Y0115652D01*
X0093767Y0115588D01*
X0093682Y0115527D01*
X0093594Y0115469D01*
X0093504Y0115415D01*
X0093412Y0115365D01*
X0093318Y0115317D01*
X0093223Y0115274D01*
X0093126Y0115234D01*
X0093027Y0115198D01*
X0092928Y0115165D01*
X0092827Y0115137D01*
X0092725Y0115112D01*
X0092622Y0115091D01*
X0092518Y0115074D01*
X0092414Y0115061D01*
X0092310Y0115052D01*
X0092205Y0115047D01*
X0092100Y0115046D01*
X0091995Y0115049D01*
X0091890Y0115056D01*
X0091786Y0115067D01*
X0091682Y0115082D01*
X0091579Y0115101D01*
X0091476Y0115124D01*
X0091375Y0115150D01*
X0091274Y0115181D01*
X0091175Y0115215D01*
X0091077Y0115253D01*
X0090981Y0115295D01*
X0090887Y0115340D01*
X0090794Y0115389D01*
X0090703Y0115442D01*
X0090614Y0115498D01*
X0090527Y0115557D01*
X0090443Y0115620D01*
X0090361Y0115685D01*
X0090282Y0115754D01*
X0090205Y0115826D01*
X0090131Y0115900D01*
X0090060Y0115977D01*
X0089992Y0116057D01*
X0089928Y0116140D01*
X0089866Y0116225D01*
X0089808Y0116312D01*
X0089752Y0116401D01*
X0089701Y0116493D01*
X0089653Y0116586D01*
X0089608Y0116681D01*
X0089567Y0116778D01*
X0089530Y0116876D01*
X0089497Y0116975D01*
X0089467Y0117076D01*
X0089442Y0117178D01*
X0089420Y0117280D01*
X0089402Y0117384D01*
X0089388Y0117488D01*
X0089378Y0117592D01*
X0089372Y0117697D01*
X0089370Y0117802D01*
D11*
X0155902Y0084871D03*
X0155902Y0068729D03*
D12*
X0149839Y0102863D03*
X0141965Y0102863D03*
X0145902Y0110737D03*
X0166965Y0102863D03*
X0174839Y0102863D03*
X0170902Y0110737D03*
X0206965Y0102863D03*
X0214839Y0102863D03*
X0210902Y0110737D03*
X0231965Y0110737D03*
X0239839Y0110737D03*
X0235902Y0102863D03*
D13*
X0130902Y0087312D03*
X0130902Y0076288D03*
X0215902Y0251288D03*
X0215902Y0262312D03*
D14*
X0230902Y0259595D03*
X0240902Y0259595D03*
X0250902Y0259595D03*
X0260902Y0259595D03*
X0270902Y0259595D03*
X0270902Y0234005D03*
X0260902Y0234005D03*
X0250902Y0234005D03*
X0240902Y0234005D03*
X0120902Y0234005D03*
X0110902Y0234005D03*
X0110902Y0259595D03*
X0100902Y0259595D03*
X0120902Y0259595D03*
X0095902Y0174595D03*
X0085902Y0174595D03*
X0075902Y0174595D03*
X0085902Y0149005D03*
X0095902Y0149005D03*
X0175902Y0044595D03*
X0185902Y0044595D03*
X0195902Y0044595D03*
X0205902Y0044595D03*
X0215902Y0044595D03*
X0215902Y0019005D03*
X0205902Y0019005D03*
X0195902Y0019005D03*
X0185902Y0019005D03*
D15*
X0174918Y0017036D02*
X0174918Y0020974D01*
X0176886Y0020974D01*
X0176886Y0017036D01*
X0174918Y0017036D01*
X0174918Y0019004D02*
X0176886Y0019004D01*
X0176886Y0020972D02*
X0174918Y0020972D01*
X0074918Y0147036D02*
X0074918Y0150974D01*
X0076886Y0150974D01*
X0076886Y0147036D01*
X0074918Y0147036D01*
X0074918Y0149004D02*
X0076886Y0149004D01*
X0076886Y0150972D02*
X0074918Y0150972D01*
X0099918Y0232036D02*
X0099918Y0235974D01*
X0101886Y0235974D01*
X0101886Y0232036D01*
X0099918Y0232036D01*
X0099918Y0234004D02*
X0101886Y0234004D01*
X0101886Y0235972D02*
X0099918Y0235972D01*
X0229918Y0235974D02*
X0229918Y0232036D01*
X0229918Y0235974D02*
X0231886Y0235974D01*
X0231886Y0232036D01*
X0229918Y0232036D01*
X0229918Y0234004D02*
X0231886Y0234004D01*
X0231886Y0235972D02*
X0229918Y0235972D01*
D16*
X0333402Y0058900D03*
X0338402Y0058900D03*
X0343402Y0058900D03*
X0348402Y0058900D03*
X0353402Y0058900D03*
X0358402Y0058900D03*
X0363402Y0058900D03*
X0368402Y0058900D03*
X0368402Y0034700D03*
X0363402Y0034700D03*
X0358402Y0034700D03*
X0353402Y0034700D03*
X0348402Y0034700D03*
X0343402Y0034700D03*
X0338402Y0034700D03*
X0333402Y0034700D03*
D17*
G36*
X0314576Y0049006D02*
X0310401Y0053181D01*
X0311792Y0054572D01*
X0315967Y0050397D01*
X0314576Y0049006D01*
G37*
G36*
X0312349Y0046779D02*
X0308174Y0050954D01*
X0309565Y0052345D01*
X0313740Y0048170D01*
X0312349Y0046779D01*
G37*
G36*
X0310122Y0044552D02*
X0305947Y0048727D01*
X0307338Y0050118D01*
X0311513Y0045943D01*
X0310122Y0044552D01*
G37*
G36*
X0307895Y0042325D02*
X0303720Y0046500D01*
X0305111Y0047891D01*
X0309286Y0043716D01*
X0307895Y0042325D01*
G37*
G36*
X0305668Y0040098D02*
X0301493Y0044273D01*
X0302884Y0045664D01*
X0307059Y0041489D01*
X0305668Y0040098D01*
G37*
G36*
X0303441Y0037870D02*
X0299266Y0042045D01*
X0300657Y0043436D01*
X0304832Y0039261D01*
X0303441Y0037870D01*
G37*
G36*
X0301214Y0035643D02*
X0297039Y0039818D01*
X0298430Y0041209D01*
X0302605Y0037034D01*
X0301214Y0035643D01*
G37*
G36*
X0298987Y0033416D02*
X0294812Y0037591D01*
X0296203Y0038982D01*
X0300378Y0034807D01*
X0298987Y0033416D01*
G37*
G36*
X0296759Y0031189D02*
X0292584Y0035364D01*
X0293975Y0036755D01*
X0298150Y0032580D01*
X0296759Y0031189D01*
G37*
G36*
X0294532Y0028962D02*
X0290357Y0033137D01*
X0291748Y0034528D01*
X0295923Y0030353D01*
X0294532Y0028962D01*
G37*
G36*
X0292305Y0026735D02*
X0288130Y0030910D01*
X0289521Y0032301D01*
X0293696Y0028126D01*
X0292305Y0026735D01*
G37*
G36*
X0260012Y0059028D02*
X0255837Y0063203D01*
X0257228Y0064594D01*
X0261403Y0060419D01*
X0260012Y0059028D01*
G37*
G36*
X0262239Y0061255D02*
X0258064Y0065430D01*
X0259455Y0066821D01*
X0263630Y0062646D01*
X0262239Y0061255D01*
G37*
G36*
X0264466Y0063482D02*
X0260291Y0067657D01*
X0261682Y0069048D01*
X0265857Y0064873D01*
X0264466Y0063482D01*
G37*
G36*
X0266693Y0065709D02*
X0262518Y0069884D01*
X0263909Y0071275D01*
X0268084Y0067100D01*
X0266693Y0065709D01*
G37*
G36*
X0268921Y0067936D02*
X0264746Y0072111D01*
X0266137Y0073502D01*
X0270312Y0069327D01*
X0268921Y0067936D01*
G37*
G36*
X0271148Y0070164D02*
X0266973Y0074339D01*
X0268364Y0075730D01*
X0272539Y0071555D01*
X0271148Y0070164D01*
G37*
G36*
X0273375Y0072391D02*
X0269200Y0076566D01*
X0270591Y0077957D01*
X0274766Y0073782D01*
X0273375Y0072391D01*
G37*
G36*
X0275602Y0074618D02*
X0271427Y0078793D01*
X0272818Y0080184D01*
X0276993Y0076009D01*
X0275602Y0074618D01*
G37*
G36*
X0277829Y0076845D02*
X0273654Y0081020D01*
X0275045Y0082411D01*
X0279220Y0078236D01*
X0277829Y0076845D01*
G37*
G36*
X0280056Y0079072D02*
X0275881Y0083247D01*
X0277272Y0084638D01*
X0281447Y0080463D01*
X0280056Y0079072D01*
G37*
G36*
X0282283Y0081299D02*
X0278108Y0085474D01*
X0279499Y0086865D01*
X0283674Y0082690D01*
X0282283Y0081299D01*
G37*
D18*
G36*
X0289521Y0081299D02*
X0288130Y0082690D01*
X0292305Y0086865D01*
X0293696Y0085474D01*
X0289521Y0081299D01*
G37*
G36*
X0291748Y0079072D02*
X0290357Y0080463D01*
X0294532Y0084638D01*
X0295923Y0083247D01*
X0291748Y0079072D01*
G37*
G36*
X0293975Y0076845D02*
X0292584Y0078236D01*
X0296759Y0082411D01*
X0298150Y0081020D01*
X0293975Y0076845D01*
G37*
G36*
X0296203Y0074618D02*
X0294812Y0076009D01*
X0298987Y0080184D01*
X0300378Y0078793D01*
X0296203Y0074618D01*
G37*
G36*
X0298430Y0072391D02*
X0297039Y0073782D01*
X0301214Y0077957D01*
X0302605Y0076566D01*
X0298430Y0072391D01*
G37*
G36*
X0300657Y0070164D02*
X0299266Y0071555D01*
X0303441Y0075730D01*
X0304832Y0074339D01*
X0300657Y0070164D01*
G37*
G36*
X0302884Y0067936D02*
X0301493Y0069327D01*
X0305668Y0073502D01*
X0307059Y0072111D01*
X0302884Y0067936D01*
G37*
G36*
X0305111Y0065709D02*
X0303720Y0067100D01*
X0307895Y0071275D01*
X0309286Y0069884D01*
X0305111Y0065709D01*
G37*
G36*
X0307338Y0063482D02*
X0305947Y0064873D01*
X0310122Y0069048D01*
X0311513Y0067657D01*
X0307338Y0063482D01*
G37*
G36*
X0309565Y0061255D02*
X0308174Y0062646D01*
X0312349Y0066821D01*
X0313740Y0065430D01*
X0309565Y0061255D01*
G37*
G36*
X0311792Y0059028D02*
X0310401Y0060419D01*
X0314576Y0064594D01*
X0315967Y0063203D01*
X0311792Y0059028D01*
G37*
G36*
X0277272Y0028962D02*
X0275881Y0030353D01*
X0280056Y0034528D01*
X0281447Y0033137D01*
X0277272Y0028962D01*
G37*
G36*
X0279499Y0026735D02*
X0278108Y0028126D01*
X0282283Y0032301D01*
X0283674Y0030910D01*
X0279499Y0026735D01*
G37*
G36*
X0275045Y0031189D02*
X0273654Y0032580D01*
X0277829Y0036755D01*
X0279220Y0035364D01*
X0275045Y0031189D01*
G37*
G36*
X0272818Y0033416D02*
X0271427Y0034807D01*
X0275602Y0038982D01*
X0276993Y0037591D01*
X0272818Y0033416D01*
G37*
G36*
X0270591Y0035643D02*
X0269200Y0037034D01*
X0273375Y0041209D01*
X0274766Y0039818D01*
X0270591Y0035643D01*
G37*
G36*
X0268364Y0037870D02*
X0266973Y0039261D01*
X0271148Y0043436D01*
X0272539Y0042045D01*
X0268364Y0037870D01*
G37*
G36*
X0266137Y0040098D02*
X0264746Y0041489D01*
X0268921Y0045664D01*
X0270312Y0044273D01*
X0266137Y0040098D01*
G37*
G36*
X0263909Y0042325D02*
X0262518Y0043716D01*
X0266693Y0047891D01*
X0268084Y0046500D01*
X0263909Y0042325D01*
G37*
G36*
X0261682Y0044552D02*
X0260291Y0045943D01*
X0264466Y0050118D01*
X0265857Y0048727D01*
X0261682Y0044552D01*
G37*
G36*
X0259455Y0046779D02*
X0258064Y0048170D01*
X0262239Y0052345D01*
X0263630Y0050954D01*
X0259455Y0046779D01*
G37*
G36*
X0257228Y0049006D02*
X0255837Y0050397D01*
X0260012Y0054572D01*
X0261403Y0053181D01*
X0257228Y0049006D01*
G37*
D19*
X0195902Y0163060D03*
X0195902Y0170540D03*
X0185902Y0170540D03*
X0185902Y0163060D03*
X0299954Y0196083D03*
X0299954Y0203564D03*
D20*
X0235902Y0049800D03*
X0235902Y0043800D03*
X0235902Y0029800D03*
X0235902Y0023800D03*
D21*
X0180902Y0070501D03*
X0180902Y0083099D03*
D22*
X0395433Y0203639D03*
D23*
X0405433Y0193639D03*
X0385433Y0193639D03*
X0385433Y0213639D03*
X0405433Y0213639D03*
D24*
X0229602Y0196900D03*
X0222202Y0196900D03*
X0222202Y0186700D03*
X0225902Y0186700D03*
X0229602Y0186700D03*
D25*
X0165430Y0169280D03*
X0156375Y0169280D03*
X0156375Y0154320D03*
X0165430Y0154320D03*
D26*
X0094409Y0134219D03*
X0094409Y0079731D03*
D27*
X0119685Y0099613D03*
X0119685Y0104534D03*
X0119685Y0109416D03*
X0119685Y0114338D03*
D28*
X0314564Y0161800D03*
X0347241Y0161800D03*
D29*
X0154839Y0131800D03*
X0146965Y0127863D03*
X0146965Y0135737D03*
D30*
X0280802Y0136800D03*
X0280802Y0133100D03*
X0280802Y0140500D03*
X0291002Y0140500D03*
X0291002Y0133100D03*
D31*
X0232201Y0131800D03*
X0219603Y0131800D03*
X0219603Y0156800D03*
X0232201Y0156800D03*
X0232201Y0216800D03*
X0219603Y0216800D03*
D32*
X0321638Y0217784D03*
X0321638Y0222508D03*
X0321638Y0227232D03*
X0321638Y0231957D03*
X0321638Y0236681D03*
X0321638Y0213059D03*
X0321638Y0208335D03*
X0321638Y0203610D03*
X0366913Y0203610D03*
X0366913Y0208335D03*
X0366913Y0213059D03*
X0366913Y0217784D03*
X0366913Y0222508D03*
X0366913Y0227232D03*
X0366913Y0231957D03*
X0366913Y0236681D03*
D33*
X0319642Y0256800D03*
X0312162Y0256800D03*
X0312162Y0266800D03*
X0319642Y0266800D03*
M02*
