G04 Filename: C:\Software\Gccam4_1_4\layer_2 *
G04 Creator: GC-CAM (TM) 4.1.4  Wed Jan 21 09:45:38 2015 *
G04 This file contains layer(s): *
G04 Layer 3: C:\WORKSHANE\DF4IAH_10MHZ.LS *
%FSLAX35Y35*%
G04 Units: mm   *
%MOMM*%
G71*
%SFA1.00000B1.00000*%
%OFA0.00000B0.00000*%
G75*
%AD*%
G04 D1105 (position 1 of UNTITLED):0.254000 Round     *
%ADD1105C,0.254000*%
G04 D1106 (position 2 of UNTITLED):1.412748 Round     *
%ADD1106C,1.412748*%
G04 D1108 (position 4 of UNTITLED):0.999998X1.199896 Rectangle *
%ADD1108R,0.999998X1.199896*%
G04 D1116 (position 12 of UNTITLED):1.500124X1.299972 Rectangle *
%ADD1116R,1.500124X1.299972*%
G04 D914 (position 14 of UNTITLED):1.299972X1.500124 Rectangle *
%ADD914R,1.299972X1.500124*%
G04 D917 (position 17 of UNTITLED):2.150110X1.800098 Rectangle *
%ADD917R,2.150110X1.800098*%
G04 D1021 (position 22 of UNTITLED):1.500124 Round     *
%ADD1021C,1.500124*%
G04 D1022 (position 23 of UNTITLED):1.059942 Round     *
%ADD1022C,1.059942*%
G04 D36 (position 27 of UNTITLED):0.406400 Round     *
%ADD36C,0.406400*%
G04 D37 (position 28 of UNTITLED):0.849884 Round     *
%ADD37C,0.849884*%
G04 D39 (position 30 of UNTITLED):0.508000 Round     *
%ADD39C,0.508000*%
G04 D40 (position 31 of UNTITLED):0.299974 Round     *
%ADD40C,0.299974*%
G04 D1122 (position 33 of UNTITLED):0.279400 Round     *
%ADD1122C,0.279400*%
G04 D1003 (position 34 of UNTITLED):0.660400X2.032000 Rectangle *
%ADD1003R,0.660400X2.032000*%
G04 D1006 (position 35 of UNTITLED):1.270000X0.558800 Rectangle *
%ADD1006R,1.270000X0.558800*%
G04 D1007 (position 36 of UNTITLED):1.600200X1.168400 Rectangle *
%ADD1007R,1.600200X1.168400*%
G04 D1011 (position 37 of UNTITLED):3.999992X1.800098 Rectangle *
%ADD1011R,3.999992X1.800098*%
G04 D1012 (position 38 of UNTITLED):1.899920X3.400044 Rectangle *
%ADD1012R,1.899920X3.400044*%
G04 D1013 (position 39 of UNTITLED):1.400048X0.999998 Rectangle *
%ADD1013R,1.400048X0.999998*%
G04 D1124 (position 40 of UNTITLED):0.010000 Ext. Poly *
%ADD1124C,0.010000*%
%IPPOS*%
G04 Layer 3: C:\WORKSHANE\DF4IAH_10MHZ.LS *
%LN(03)C:\WORKSHANE\DF4IAH_10MHZ.LS*%
%LPD*%
X0Y0D02*
D1122*
X-11079222Y-3190588D02*
Y-3315149D01*
X-11141503*
X-11162255Y-3294398*
Y-3211340*
X-11141503Y-3190588*
X-11079222*
X-11219532Y-3315149D02*
Y-3190588D01*
X-11302590*
X-11261061Y-3252869D02*
X-11219532D01*
X-11422148Y-3315149D02*
Y-3190588D01*
X-11359867Y-3252869*
X-11442900*
X-11500202Y-3315149D02*
X-11541706D01*
X-11520954D02*
Y-3190588D01*
X-11500202D02*
X-11541706D01*
X-11593750Y-3315149D02*
Y-3232091D01*
X-11635279Y-3190588*
X-11676783Y-3232091*
Y-3315149*
Y-3252869D02*
X-11593750D01*
X-11734085Y-3315149D02*
Y-3190588D01*
Y-3252869D02*
X-11817118D01*
Y-3190588D02*
Y-3315149D01*
X-11079222Y-3477455D02*
X-11120726Y-3435952D01*
Y-3560513*
X-11079222D02*
X-11162255D01*
X-11219532Y-3539736D02*
Y-3456704D01*
X-11240309Y-3435952*
X-11281813*
X-11302590Y-3456704*
Y-3539736*
X-11281813Y-3560513*
X-11240309*
X-11219532Y-3539736*
X-11302590Y-3456704*
X-11500202Y-3560513D02*
Y-3435952D01*
X-11541706Y-3477455*
X-11583235Y-3435952*
Y-3560513*
X-11640512D02*
Y-3435952D01*
Y-3498233D02*
X-11723570D01*
Y-3435952D02*
Y-3560513D01*
X-11780847Y-3477455D02*
X-11863905D01*
X-11780847Y-3560513*
X-11863905*
X-12061517D02*
Y-3435952D01*
X-12123797*
X-12144549Y-3456704*
Y-3498233*
X-12123797Y-3518984*
X-12061517*
X-12103020D02*
X-12144549Y-3560513D01*
X-12264107D02*
X-12222603D01*
X-12201826Y-3539736*
Y-3498233*
X-12222603Y-3477455*
X-12264107*
X-12284884Y-3498233*
Y-3518984*
X-12201826*
X-12362913Y-3560513D02*
Y-3456704D01*
X-12383690Y-3435952*
Y-3498233D02*
X-12342161D01*
X-12435709Y-3560513D02*
Y-3539736D01*
X-12456487*
Y-3560513*
X-12435709*
X-12505890Y-3498233D02*
X-12588922D01*
X-12708480Y-3435952D02*
X-12666976D01*
X-12646199Y-3456704*
Y-3539736*
X-12666976Y-3560513*
X-12708480*
X-12729257Y-3539736*
Y-3456704*
X-12708480Y-3435952*
X-12786534Y-3560513D02*
X-12848815D01*
X-12869567Y-3539736*
X-12848815Y-3518984*
X-12807286*
X-12786534Y-3498233*
X-12807286Y-3477455*
X-12869567*
X-13009902D02*
X-12947621D01*
X-12926869Y-3498233*
Y-3539736*
X-12947621Y-3560513*
X-13009902*
X-13067179D02*
Y-3539736D01*
X-13087956*
Y-3560513*
X-13067179*
X-11079222Y-3681316D02*
Y-3764348D01*
X-11120726Y-3805877*
X-11162255Y-3764348*
Y-3681316*
X-11442900Y-3805877D02*
X-11359867D01*
X-11442900Y-3722819*
Y-3702068*
X-11422148Y-3681316*
X-11380619*
X-11359867Y-3702068*
X-11500202Y-3805877D02*
Y-3785100D01*
X-11520954*
Y-3805877*
X-11500202*
X-11570357Y-3785100D02*
Y-3702068D01*
X-11591109Y-3681316*
X-11632638*
X-11653415Y-3702068*
Y-3785100*
X-11632638Y-3805877*
X-11591109*
X-11570357Y-3785100*
X-11653415Y-3702068*
D1105*
X-18377709Y-8971298D02*
Y-8869621D01*
X-18428535*
X-18445502Y-8886563*
Y-8903505*
X-18428535Y-8920447*
X-18445502Y-8937414*
Y-8954356*
X-18428535Y-8971298*
X-18377709*
Y-8920447D02*
X-18428535D01*
X-18511593Y-8971298D02*
X-18545476D01*
X-18562443Y-8954356*
Y-8920447*
X-18545476Y-8903505*
X-18511593*
X-18494651Y-8920447*
Y-8954356*
X-18511593Y-8971298*
X-18628534Y-8886563D02*
Y-8954356D01*
X-18645476Y-8971298*
Y-8903505D02*
X-18611592D01*
D1106*
X-18492009Y-5371635D02*
Y-5230360D01*
X-18238009D02*
Y-5371635D01*
X-16968009D02*
Y-5230360D01*
X-16714009D02*
Y-5371635D01*
X-17984009D02*
Y-5230360D01*
X-17730009D02*
Y-5371635D01*
X-17222009D02*
Y-5230360D01*
X-17476009D02*
Y-5371635D01*
X-16460009D02*
Y-5230360D01*
X-16206009D02*
Y-5371635D01*
X-15952009D02*
Y-5230360D01*
X-15698009D02*
Y-5371635D01*
X-15444009D02*
Y-5230360D01*
X-15190009D02*
Y-5371635D01*
Y-4609635D02*
Y-4468360D01*
X-15444009D02*
Y-4609635D01*
X-15698009D02*
Y-4468360D01*
X-15952009D02*
Y-4609635D01*
X-16206009D02*
Y-4468360D01*
X-16460009D02*
Y-4609635D01*
X-16714009D02*
Y-4468360D01*
X-16968009D02*
Y-4609635D01*
X-17222009D02*
Y-4468360D01*
X-17476009D02*
Y-4609635D01*
X-17730009D02*
Y-4468360D01*
X-17984009D02*
Y-4609635D01*
X-18238009D02*
Y-4468360D01*
X-18492009D02*
Y-4609635D01*
D1124*
X-13355418Y-7564392D02*
G36*
X-13249373Y-7458347D01*
X-13214042Y-7493678*
X-13320087Y-7599723*
X-13355418Y-7564392*
G37*
X-13298852Y-7620957D02*
G36*
X-13192807Y-7514912D01*
X-13157476Y-7550244*
X-13263521Y-7656289*
X-13298852Y-7620957*
G37*
X-13242286Y-7677523D02*
G36*
X-13136241Y-7571478D01*
X-13100910Y-7606810*
X-13206955Y-7712855*
X-13242286Y-7677523*
G37*
X-13185695Y-7734089D02*
G36*
X-13079650Y-7628044D01*
X-13044319Y-7663375*
X-13150364Y-7769420*
X-13185695Y-7734089*
G37*
X-13129129Y-7790655D02*
G36*
X-13023084Y-7684610D01*
X-12987753Y-7719941*
X-13093798Y-7825986*
X-13129129Y-7790655*
G37*
X-13072564Y-7847246D02*
G36*
X-12966519Y-7741201D01*
X-12931187Y-7776532*
X-13037232Y-7882577*
X-13072564Y-7847246*
G37*
X-13015998Y-7903812D02*
G36*
X-12909953Y-7797767D01*
X-12874621Y-7833098*
X-12980666Y-7939143*
X-13015998Y-7903812*
G37*
X-12959432Y-7960378D02*
G36*
X-12853387Y-7854333D01*
X-12818056Y-7889664*
X-12924101Y-7995709*
X-12959432Y-7960378*
G37*
X-12902866Y-8016943D02*
G36*
X-12796821Y-7910898D01*
X-12761490Y-7946230*
X-12867535Y-8052275*
X-12902866Y-8016943*
G37*
X-12846300Y-8073509D02*
G36*
X-12740255Y-7967464D01*
X-12704924Y-8002796*
X-12810969Y-8108841*
X-12846300Y-8073509*
G37*
X-12789735Y-8130075D02*
G36*
X-12683690Y-8024030D01*
X-12648358Y-8059361*
X-12754403Y-8165406*
X-12789735Y-8130075*
G37*
X-13609977Y-8950317D02*
G36*
X-13503932Y-8844272D01*
X-13468600Y-8879604*
X-13574645Y-8985649*
X-13609977Y-8950317*
G37*
X-13666543Y-8893751D02*
G36*
X-13560498Y-8787706D01*
X-13525166Y-8823038*
X-13631211Y-8929083*
X-13666543Y-8893751*
G37*
X-13723108Y-8837186D02*
G36*
X-13617063Y-8731141D01*
X-13581732Y-8766472*
X-13687777Y-8872517*
X-13723108Y-8837186*
G37*
X-13779674Y-8780620D02*
G36*
X-13673629Y-8674575D01*
X-13638298Y-8709906*
X-13744343Y-8815951*
X-13779674Y-8780620*
G37*
X-13836240Y-8724054D02*
G36*
X-13730195Y-8618009D01*
X-13694864Y-8653340*
X-13800909Y-8759385*
X-13836240Y-8724054*
G37*
X-13892806Y-8667488D02*
G36*
X-13786761Y-8561443D01*
X-13751429Y-8596775*
X-13857474Y-8702820*
X-13892806Y-8667488*
G37*
X-13949372Y-8610922D02*
G36*
X-13843327Y-8504877D01*
X-13807995Y-8540209*
X-13914040Y-8646254*
X-13949372Y-8610922*
G37*
X-14005963Y-8554331D02*
G36*
X-13899918Y-8448286D01*
X-13864586Y-8483618*
X-13970631Y-8589663*
X-14005963Y-8554331*
G37*
X-14062529Y-8497765D02*
G36*
X-13956484Y-8391720D01*
X-13921152Y-8427052*
X-14027197Y-8533097*
X-14062529Y-8497765*
G37*
X-14119094Y-8441200D02*
G36*
X-14013049Y-8335155D01*
X-13977718Y-8370486*
X-14083763Y-8476531*
X-14119094Y-8441200*
G37*
X-14175660Y-8384634D02*
G36*
X-14069615Y-8278589D01*
X-14034284Y-8313920*
X-14140329Y-8419965*
X-14175660Y-8384634*
G37*
X-12789735Y-8313920D02*
G36*
X-12754403Y-8278589D01*
X-12648358Y-8384634*
X-12683690Y-8419965*
X-12789735Y-8313920*
G37*
X-12846300Y-8370486D02*
G36*
X-12810969Y-8335155D01*
X-12704924Y-8441200*
X-12740255Y-8476531*
X-12846300Y-8370486*
G37*
X-12902866Y-8427052D02*
G36*
X-12867535Y-8391720D01*
X-12761490Y-8497765*
X-12796821Y-8533097*
X-12902866Y-8427052*
G37*
X-12959432Y-8483618D02*
G36*
X-12924101Y-8448286D01*
X-12818056Y-8554331*
X-12853387Y-8589663*
X-12959432Y-8483618*
G37*
X-13015998Y-8540209D02*
G36*
X-12980666Y-8504877D01*
X-12874621Y-8610922*
X-12909953Y-8646254*
X-13015998Y-8540209*
G37*
X-13072564Y-8596775D02*
G36*
X-13037232Y-8561443D01*
X-12931187Y-8667488*
X-12966519Y-8702820*
X-13072564Y-8596775*
G37*
X-13129129Y-8653340D02*
G36*
X-13093798Y-8618009D01*
X-12987753Y-8724054*
X-13023084Y-8759385*
X-13129129Y-8653340*
G37*
X-13185695Y-8709906D02*
G36*
X-13150364Y-8674575D01*
X-13044319Y-8780620*
X-13079650Y-8815951*
X-13185695Y-8709906*
G37*
X-13242286Y-8766472D02*
G36*
X-13206955Y-8731141D01*
X-13100910Y-8837186*
X-13136241Y-8872517*
X-13242286Y-8766472*
G37*
X-13298852Y-8823038D02*
G36*
X-13263521Y-8787706D01*
X-13157476Y-8893751*
X-13192807Y-8929083*
X-13298852Y-8823038*
G37*
X-13355418Y-8879604D02*
G36*
X-13320087Y-8844272D01*
X-13214042Y-8950317*
X-13249373Y-8985649*
X-13355418Y-8879604*
G37*
X-14175660Y-8059361D02*
G36*
X-14140329Y-8024030D01*
X-14034284Y-8130075*
X-14069615Y-8165406*
X-14175660Y-8059361*
G37*
X-14119094Y-8002796D02*
G36*
X-14083763Y-7967464D01*
X-13977718Y-8073509*
X-14013049Y-8108841*
X-14119094Y-8002796*
G37*
X-14062529Y-7946230D02*
G36*
X-14027197Y-7910898D01*
X-13921152Y-8016943*
X-13956484Y-8052275*
X-14062529Y-7946230*
G37*
X-14005963Y-7889664D02*
G36*
X-13970631Y-7854333D01*
X-13864586Y-7960378*
X-13899918Y-7995709*
X-14005963Y-7889664*
G37*
X-13949372Y-7833098D02*
G36*
X-13914040Y-7797767D01*
X-13807995Y-7903812*
X-13843327Y-7939143*
X-13949372Y-7833098*
G37*
X-13892806Y-7776532D02*
G36*
X-13857474Y-7741201D01*
X-13751429Y-7847246*
X-13786761Y-7882577*
X-13892806Y-7776532*
G37*
X-13836240Y-7719941D02*
G36*
X-13800909Y-7684610D01*
X-13694864Y-7790655*
X-13730195Y-7825986*
X-13836240Y-7719941*
G37*
X-13779674Y-7663375D02*
G36*
X-13744343Y-7628044D01*
X-13638298Y-7734089*
X-13673629Y-7769420*
X-13779674Y-7663375*
G37*
X-13723108Y-7606810D02*
G36*
X-13687777Y-7571478D01*
X-13581732Y-7677523*
X-13617063Y-7712855*
X-13723108Y-7606810*
G37*
X-13666543Y-7550244D02*
G36*
X-13631211Y-7514912D01*
X-13525166Y-7620957*
X-13560498Y-7656289*
X-13666543Y-7550244*
G37*
X-13609977Y-7493678D02*
G36*
X-13574645Y-7458347D01*
X-13468600Y-7564392*
X-13503932Y-7599723*
X-13609977Y-7493678*
G37*
D36*
X-10211000Y-4865159D02*
Y-4874303D01*
X-10118188*
D03*
X-10211000D01*
Y-4883447*
X-10207444Y-4901379*
X-10200433Y-4918270*
X-10190273Y-4933485*
X-10177345Y-4946414*
X-10162155Y-4956548*
X-10145264Y-4963559*
X-10127332Y-4967115*
X-10118188*
Y-4874303*
D03*
Y-4967115D01*
X-10109044*
X-10091112Y-4963559*
X-10074221Y-4956548*
X-10059006Y-4946414*
X-10050319Y-4937701*
Y-8000002*
X-11780542*
Y-7921185*
X-11792073Y-7893347*
X-11982573Y-7702847*
X-11999998Y-7685423*
Y-5940011*
X-13299995*
Y-4836889*
X-13184501Y-4721370*
X-13166137Y-4703005*
X-13161362Y-4691499*
X-12615821Y-5237066*
Y-5255963*
X-12601698Y-5290076*
X-12575587Y-5316187*
X-12541475Y-5330309*
X-12504543*
X-12470431Y-5316187*
X-12444320Y-5290076*
X-12430172Y-5255963*
Y-5219032*
X-12444320Y-5184920*
X-12470431Y-5158808*
X-12504543Y-5144686*
X-12523441*
X-13092680Y-4575447*
Y-4335518*
X-13102637Y-4311490*
X-13270582Y-4143545*
X-13257577Y-4134858*
X-13244649Y-4121930*
X-13234489Y-4106715*
X-13227504Y-4089824*
X-13223922Y-4071892*
Y-4062748*
X-13299995*
D03*
X-13223922D01*
Y-4053604*
X-13227504Y-4035671*
X-13234489Y-4018780*
X-13244649Y-4003591*
X-13257577Y-3990662*
X-13272792Y-3980502*
X-13289683Y-3973492*
X-13299995Y-3971435*
Y-3050329*
X-10050319*
Y-4810905*
X-10059006Y-4802218*
X-10074221Y-4792058*
X-10091112Y-4785047*
X-10109044Y-4781491*
X-10118188*
Y-4874303*
D03*
Y-4781491D01*
X-10127332*
X-10145264Y-4785047*
X-10162155Y-4792058*
X-10177345Y-4802218*
X-10190273Y-4815146*
X-10200433Y-4830336*
X-10207444Y-4847227*
X-10211000Y-4865159*
X-11739013Y-7260125D02*
X-11773125Y-7245977D01*
X-11810057*
X-11844169Y-7260125*
X-11870280Y-7286211*
X-11884428Y-7320348*
Y-7357255*
X-11870280Y-7391392*
X-11844169Y-7417478*
X-11810057Y-7431626*
X-11773125*
X-11739013Y-7417478*
X-11730174Y-7408639*
X-11315468*
X-11298526Y-7425581*
X-11260553Y-7441329*
X-11219456*
X-11181483Y-7425581*
X-11152425Y-7396523*
X-11136677Y-7358550*
Y-7317453*
X-11152425Y-7279480*
X-11181483Y-7250422*
X-11219456Y-7234674*
X-11260553*
X-11298526Y-7250422*
X-11315468Y-7267364*
X-11731774*
X-11739013Y-7260125*
X-12700606Y-3898029D02*
Y-3990840D01*
D03*
Y-3898029D01*
X-12709750*
X-12727682Y-3901585*
X-12744573Y-3908595*
X-12759788Y-3918755*
X-12772717Y-3931684*
X-12782877Y-3946873*
X-12789862Y-3963764*
X-12793443Y-3981696*
Y-3990840*
X-12700606*
D03*
X-12793443D01*
Y-3999984*
X-12789862Y-4017917*
X-12782877Y-4034808*
X-12772717Y-4050022*
X-12759788Y-4062951*
X-12744573Y-4073111*
X-12727682Y-4080096*
X-12709750Y-4083677*
X-12700606*
Y-3990840*
D03*
Y-4083677D01*
X-12691462*
X-12673530Y-4080096*
X-12656639Y-4073111*
X-12641449Y-4062951*
X-12628521Y-4050022*
X-12618361Y-4034808*
X-12611350Y-4017917*
X-12607794Y-3999984*
Y-3990840*
X-12700606*
D03*
X-12607794D01*
Y-3981696*
X-12611350Y-3963764*
X-12618361Y-3946873*
X-12628521Y-3931684*
X-12641449Y-3918755*
X-12656639Y-3908595*
X-12673530Y-3901585*
X-12691462Y-3898029*
X-12700606*
X-11553720Y-5115527D02*
Y-5208338D01*
D03*
Y-5115527D01*
X-11562864*
X-11580796Y-5119083*
X-11597687Y-5126093*
X-11612902Y-5136228*
X-11625830Y-5149156*
X-11635990Y-5164371*
X-11642975Y-5181262*
X-11646557Y-5199194*
Y-5208338*
X-11553720*
D03*
X-11646557D01*
Y-5217482*
X-11642975Y-5235415*
X-11635990Y-5252306*
X-11625830Y-5267495*
X-11612902Y-5280424*
X-11597687Y-5290584*
X-11580796Y-5297594*
X-11562864Y-5301150*
X-11553720*
Y-5208338*
D03*
Y-5301150D01*
X-11544576*
X-11526643Y-5297594*
X-11509752Y-5290584*
X-11494563Y-5280424*
X-11481635Y-5267495*
X-11471475Y-5252306*
X-11464464Y-5235415*
X-11460908Y-5217482*
Y-5208338*
X-11553720*
D03*
X-11460908D01*
Y-5199194*
X-11464464Y-5181262*
X-11471475Y-5164371*
X-11481635Y-5149156*
X-11494563Y-5136228*
X-11509752Y-5126093*
X-11526643Y-5119083*
X-11544576Y-5115527*
X-11553720*
X-10697003Y-3971054D02*
Y-4063865D01*
D03*
Y-3971054D01*
X-10706147*
X-10724080Y-3974610*
X-10740971Y-3981620*
X-10756160Y-3991780*
X-10769088Y-4004709*
X-10779248Y-4019898*
X-10786259Y-4036789*
X-10789815Y-4054721*
Y-4063865*
X-10697003*
D03*
X-10789815D01*
Y-4073009*
X-10786259Y-4090942*
X-10779248Y-4107833*
X-10769088Y-4123047*
X-10756160Y-4135976*
X-10740971Y-4146110*
X-10724080Y-4153121*
X-10706147Y-4156677*
X-10697003*
Y-4063865*
D03*
Y-4156677D01*
X-10687859*
X-10669927Y-4153121*
X-10653036Y-4146110*
X-10637821Y-4135976*
X-10624893Y-4123047*
X-10614733Y-4107833*
X-10607748Y-4090942*
X-10604192Y-4073009*
Y-4063865*
X-10697003*
D03*
X-10604192D01*
Y-4054721*
X-10607748Y-4036789*
X-10614733Y-4019898*
X-10624893Y-4004709*
X-10637821Y-3991780*
X-10653036Y-3981620*
X-10669927Y-3974610*
X-10687859Y-3971054*
X-10697003*
X-10457811Y-6832668D02*
Y-6955808D01*
X-10462180*
Y-6832668*
X-10469876*
X-10489358Y-6835767*
X-10508103Y-6841863*
X-10525680Y-6850829*
X-10541631Y-6862412*
X-10555601Y-6876356*
X-10567184Y-6892308*
X-10576150Y-6909884*
X-10582246Y-6928655*
X-10585319Y-6948137*
Y-6955808*
X-10462180*
Y-6960176*
X-10585319*
Y-6967873*
X-10582246Y-6987354*
X-10576150Y-7006100*
X-10567184Y-7023676*
X-10555601Y-7039653*
X-10541631Y-7053598*
X-10525680Y-7065180*
X-10508103Y-7074146*
X-10489358Y-7080242*
X-10469876Y-7083316*
X-10462180*
Y-6960176*
X-10457811*
Y-7083316*
X-10450141*
X-10430659Y-7080242*
X-10411888Y-7074146*
X-10394311Y-7065180*
X-10378360Y-7053598*
X-10364416Y-7039653*
X-10352808Y-7023676*
X-10343867Y-7006100*
X-10337771Y-6987354*
X-10334672Y-6967873*
Y-6960176*
X-10457811*
Y-6955808*
X-10334672*
Y-6948137*
X-10337771Y-6928655*
X-10343867Y-6909884*
X-10352808Y-6892308*
X-10364416Y-6876356*
X-10378360Y-6862412*
X-10394311Y-6850829*
X-10411888Y-6841863*
X-10430659Y-6835767*
X-10450141Y-6832668*
X-10457811*
X-12097915Y-3615022D02*
X-12074293Y-3624801D01*
X-12048715*
X-12025093Y-3615022*
X-12007008Y-3596937*
X-11997229Y-3573290*
Y-3423150*
X-12007008Y-3399528*
X-12025093Y-3381443*
X-12048715Y-3371664*
X-12136574*
X-12160196Y-3381443*
X-12180973Y-3402195*
X-12197178Y-3418400*
X-12209802Y-3413168*
X-12276909*
X-12300531Y-3422972*
X-12305331Y-3427748*
X-12308430Y-3420280*
X-12347267Y-3381443*
X-12370889Y-3371664*
X-12396466*
X-12420114Y-3381443*
X-12438199Y-3399528*
X-12447978Y-3423150*
Y-3448728*
X-12440383Y-3467092*
X-12443837Y-3475449*
X-12445717*
X-12451381Y-3461809*
X-12469466Y-3443724*
X-12493088Y-3433945*
X-12586052*
X-12591691Y-3420280*
X-12609801Y-3402195*
D03*
X-12612468Y-3399528D01*
D03*
X-12630553Y-3381443D01*
X-12654175Y-3371664*
X-12721282*
X-12744904Y-3381443*
X-12762988Y-3399528*
D03*
X-12781886Y-3418400D01*
X-12794510Y-3413168*
X-12882368*
X-12905990Y-3422972*
X-12908607Y-3425563*
X-12911197Y-3422972*
X-12934845Y-3413168*
X-13022703*
X-13046325Y-3422972*
X-13064410Y-3441057*
X-13074189Y-3464679*
Y-3475449*
X-13100732*
X-13124380Y-3485253*
X-13142464Y-3503338*
X-13152243Y-3526960*
Y-3573290*
X-13142464Y-3596937*
X-13124380Y-3615022*
X-13100732Y-3624801*
X-13054403*
X-13038553Y-3618222*
X-13022703Y-3624801*
X-12934845*
X-12911197Y-3615022*
X-12898218Y-3602017*
X-12885239Y-3615022*
X-12861617Y-3624801*
X-12773758*
X-12750111Y-3615022*
X-12747520Y-3612406*
X-12744904Y-3615022*
X-12721282Y-3624801*
X-12654175*
X-12630553Y-3615022*
X-12612468Y-3596937*
D03*
X-12591691Y-3576160D01*
X-12586052Y-3562520*
X-12520774*
Y-3573290*
X-12510970Y-3596937*
X-12492885Y-3615022*
X-12469263Y-3624801*
X-12422933*
X-12399311Y-3615022*
X-12375715Y-3624801*
X-12350137*
X-12326515Y-3615022*
X-12313510Y-3602017*
X-12300531Y-3615022*
X-12276909Y-3624801*
X-12209802*
X-12186180Y-3615022*
X-12183564Y-3612406*
X-12180973Y-3615022*
X-12157351Y-3624801*
X-12131773*
X-12108126Y-3615022*
X-12103020Y-3609916*
X-12097915Y-3615022*
X-11455701Y-3870165D02*
X-11347091D01*
X-11323443Y-3860386*
X-11305359Y-3842301*
X-11295580Y-3818654*
Y-3793076*
X-11305359Y-3769454*
X-11320853Y-3753960*
X-11305359Y-3738491*
X-11295580Y-3714869*
Y-3689291*
X-11305359Y-3665644*
X-11344221Y-3626807*
X-11367843Y-3617028*
X-11434949*
X-11458571Y-3626807*
X-11476656Y-3644892*
X-11497408Y-3665644*
X-11506628Y-3687920*
X-11515848Y-3665644*
X-11536626Y-3644892*
D03*
X-11554710Y-3626807D01*
X-11564997Y-3622540*
X-11546811Y-3615022*
X-11541706Y-3609916*
X-11536600Y-3615022*
X-11512978Y-3624801*
X-11487400*
X-11463778Y-3615022*
X-11445694Y-3596937*
X-11435915Y-3573290*
Y-3423150*
X-11436092Y-3422668*
X-11445694Y-3399528*
D03*
D03*
X-11445973Y-3399249D01*
X-11463778Y-3381443*
X-11478002Y-3375551*
X-11463778Y-3369658*
X-11461162Y-3367042*
X-11458571Y-3369658*
X-11434949Y-3379437*
X-11409372*
X-11385724Y-3369658*
X-11367639Y-3351573*
X-11357860Y-3327926*
Y-3317156*
X-11347091*
X-11323443Y-3307377*
X-11310464Y-3294372*
X-11297485Y-3307377*
X-11283819Y-3313016*
Y-3327926*
X-11274040Y-3351573*
X-11255956Y-3369658*
X-11251104Y-3371664*
X-11294614*
X-11318236Y-3381443*
X-11339014Y-3402195*
X-11357098Y-3420280*
X-11366877Y-3443927*
Y-3552538*
X-11357098Y-3576160*
X-11336321Y-3596937*
X-11318236Y-3615022*
X-11294614Y-3624801*
X-11227508*
X-11203886Y-3615022*
X-11201269Y-3612406*
X-11198679Y-3615022*
X-11184429Y-3620915*
X-11198679Y-3626807*
X-11216763Y-3644892*
X-11226542Y-3668514*
Y-3777150*
X-11216763Y-3800772*
X-11198679Y-3818857*
D03*
X-11175234Y-3842301D01*
D03*
X-11157150Y-3860386D01*
X-11133528Y-3870165*
X-11107950*
X-11107467Y-3869962*
X-11084328Y-3860386*
D03*
X-11084048Y-3860106D01*
X-11024714Y-3800772*
X-11014910Y-3777150*
Y-3668514*
X-11024714Y-3644892*
X-11042799Y-3626807*
X-11057023Y-3620915*
X-11042799Y-3615022*
X-11024714Y-3596937*
X-11014910Y-3573290*
Y-3547712*
X-11024714Y-3524090*
X-11029819Y-3518984*
X-11024714Y-3513879*
X-11014910Y-3490257*
Y-3464679*
X-11024714Y-3441057*
X-11066243Y-3399528*
D03*
X-11084328Y-3381443D01*
X-11089154Y-3379437*
X-11066421*
X-11042799Y-3369658*
X-11024714Y-3351573*
X-11014910Y-3327926*
Y-3177786*
X-11024714Y-3154164*
X-11042799Y-3136079*
X-11066421Y-3126300*
X-11154279*
X-11177901Y-3136079*
X-11180518Y-3138670*
X-11183134Y-3136079*
X-11206756Y-3126300*
X-11315366*
X-11339014Y-3136079*
X-11357098Y-3154164*
X-11360172Y-3161632*
X-11385724Y-3136079*
X-11409372Y-3126300*
X-11434949*
X-11458571Y-3136079*
X-11461162Y-3138670*
X-11463778Y-3136079*
X-11487400Y-3126300*
X-11554507*
X-11578129Y-3136079*
X-11588492Y-3146443*
X-11598856Y-3136079*
X-11622478Y-3126300*
X-11648055*
X-11671677Y-3136079*
X-11684682Y-3149059*
X-11697662Y-3136079*
X-11721284Y-3126300*
X-11746861*
X-11770483Y-3136079*
X-11775589Y-3141185*
X-11780694Y-3136079*
X-11804342Y-3126300*
X-11829919*
X-11853541Y-3136079*
X-11871626Y-3154164*
X-11881405Y-3177786*
Y-3327926*
X-11871626Y-3351573*
X-11853541Y-3369658*
X-11829919Y-3379437*
X-11804342*
X-11780694Y-3369658*
X-11775589Y-3364552*
X-11770483Y-3369658*
X-11751002Y-3377710*
X-11759993Y-3381443*
X-11778078Y-3399528*
X-11783717Y-3413168*
X-11876681*
X-11900303Y-3422972*
X-11918388Y-3441057*
X-11928192Y-3464679*
Y-3490257*
X-11918388Y-3513879*
X-11913282Y-3518984*
X-11918388Y-3524090*
X-11928192Y-3547712*
Y-3573290*
X-11918388Y-3596937*
X-11900303Y-3615022*
X-11876681Y-3624801*
X-11768070*
X-11752221Y-3618222*
X-11736346Y-3624801*
X-11710768*
X-11687146Y-3615022*
X-11682041Y-3609916*
X-11676935Y-3615022*
X-11658774Y-3622540*
X-11669061Y-3626807*
X-11689813Y-3647559*
D03*
X-11707898Y-3665644D01*
X-11717702Y-3689291*
Y-3797902*
X-11707898Y-3821524*
X-11687146Y-3842301*
X-11669061Y-3860386*
X-11645439Y-3870165*
X-11578332*
X-11556031Y-3860919*
X-11533755Y-3870165*
X-11487400*
X-11471551Y-3863586*
X-11455701Y-3870165*
X-10142470Y-3616165D02*
D03*
X-10124081Y-3500011D01*
X-10142470Y-3383831*
D03*
X-10195887Y-3279031D01*
D03*
X-10279046Y-3195871D01*
D03*
X-10383847Y-3142480D01*
D03*
X-10500001Y-3124091D01*
D03*
X-10616180Y-3142480D01*
D03*
X-10720955Y-3195871D01*
D03*
X-10804140Y-3279031D01*
D03*
X-10857531Y-3383831D01*
D03*
X-10875921Y-3500011D01*
D03*
X-10857531Y-3616165D01*
D03*
X-10804140Y-3720965D01*
D03*
X-10720955Y-3804125D01*
D03*
X-10616180Y-3857516D01*
D03*
X-10500001Y-3875931D01*
D03*
X-10383847Y-3857516D01*
D03*
X-10279046Y-3804125D01*
D03*
X-10195887Y-3720965D01*
D03*
X-10142470Y-3616165D01*
X-10457811Y-7592687D02*
Y-7715826D01*
X-10462180*
Y-7592687*
X-10469876*
X-10489358Y-7595761*
X-10508103Y-7601857*
X-10525680Y-7610823*
X-10541631Y-7622405*
X-10555601Y-7636350*
X-10567184Y-7652326*
X-10576150Y-7669903*
X-10582246Y-7688648*
X-10585319Y-7708130*
Y-7715826*
X-10462180*
Y-7720170*
X-10585319*
Y-7727866*
X-10582246Y-7747348*
X-10576150Y-7766118*
X-10567184Y-7783670*
X-10555601Y-7799646*
X-10541631Y-7813591*
X-10525680Y-7825173*
X-10508103Y-7834140*
X-10489358Y-7840236*
X-10469876Y-7843309*
X-10462180*
Y-7720170*
X-10457811*
Y-7843309*
X-10450141*
X-10430659Y-7840236*
X-10411888Y-7834140*
X-10394311Y-7825173*
X-10378360Y-7813591*
X-10364416Y-7799646*
X-10352808Y-7783670*
X-10343867Y-7766118*
X-10337771Y-7747348*
X-10334672Y-7727866*
Y-7720170*
X-10457811*
Y-7715826*
X-10334672*
Y-7708130*
X-10337771Y-7688648*
X-10343867Y-7669903*
X-10352808Y-7652326*
X-10364416Y-7636350*
X-10378360Y-7622405*
X-10394311Y-7610823*
X-10411888Y-7601857*
X-10430659Y-7595761*
X-10450141Y-7592687*
X-10457811*
X-10979527Y-4525688D02*
Y-4618525D01*
D03*
Y-4525688D01*
X-10988671*
X-11006604Y-4529269*
X-11023495Y-4536254*
X-11038709Y-4546414*
X-11051638Y-4559343*
X-11061773Y-4574558*
X-11068783Y-4591449*
X-11072339Y-4609381*
Y-4618525*
X-10979527*
D03*
X-11072339D01*
Y-4627669*
X-11068783Y-4645601*
X-11061773Y-4662492*
X-11051638Y-4677682*
X-11038709Y-4690610*
X-11023495Y-4700770*
X-11006604Y-4707781*
X-10988671Y-4711337*
X-10979527*
Y-4618525*
D03*
Y-4711337D01*
X-10970383*
X-10952451Y-4707781*
X-10935560Y-4700770*
X-10920371Y-4690610*
X-10907442Y-4677682*
X-10897282Y-4662492*
X-10890272Y-4645601*
X-10886716Y-4627669*
Y-4618525*
X-10979527*
D03*
X-10886716D01*
Y-4609381*
X-10890272Y-4591449*
X-10897282Y-4574558*
X-10907442Y-4559343*
X-10920371Y-4546414*
X-10935560Y-4536254*
X-10952451Y-4529269*
X-10970383Y-4525688*
X-10979527*
X-13007616Y-4982964D02*
Y-5075776D01*
D03*
Y-4982964D01*
X-13016760*
X-13034692Y-4986546*
X-13051583Y-4993531*
X-13066772Y-5003691*
X-13079701Y-5016619*
X-13089861Y-5031834*
X-13096871Y-5048725*
X-13100427Y-5066657*
Y-5075801*
X-13007616*
D03*
X-13100427D01*
Y-5084945*
X-13096871Y-5102878*
X-13089861Y-5119769*
X-13079701Y-5134958*
X-13066772Y-5147886*
X-13051583Y-5158046*
X-13034692Y-5165057*
X-13016760Y-5168613*
X-13007616*
Y-5075801*
D03*
Y-5168613D01*
X-12998472*
X-12980539Y-5165057*
X-12963648Y-5158046*
X-12948434Y-5147886*
X-12935505Y-5134958*
X-12925345Y-5119769*
X-12918360Y-5102878*
X-12914779Y-5084945*
Y-5075801*
X-13007616*
D03*
X-12914779D01*
Y-5066657*
X-12918360Y-5048725*
X-12925345Y-5031834*
X-12935505Y-5016619*
X-12948434Y-5003691*
X-12963648Y-4993531*
X-12980539Y-4986546*
X-12998472Y-4982964*
X-13007616*
X-11780542Y-7969903D02*
X-10050319D01*
Y-7929288D02*
X-11780542D01*
X-11796722Y-7888699D02*
X-10050319D01*
Y-7848084D02*
X-11837336D01*
X-11877925Y-7807470D02*
X-10547753D01*
X-10462180D02*
X-10457811D01*
X-10372264D02*
X-10050319D01*
X-10575744Y-7766880D02*
X-11918540D01*
X-10462180D02*
X-10457811D01*
X-10344248D02*
X-10050319D01*
X-10585319Y-7726266D02*
X-11959129D01*
X-10462180D02*
X-10457811D01*
X-10334672D02*
X-10050319D01*
X-10581281Y-7685677D02*
X-11999744D01*
X-10462180D02*
X-10457811D01*
X-10338736D02*
X-10050319D01*
X-10561926Y-7645062D02*
X-11999998D01*
X-10462180D02*
X-10457811D01*
X-10358091D02*
X-10050319D01*
X-10513234Y-7604473D02*
X-11999998D01*
X-10462180D02*
X-10457811D01*
X-10406783D02*
X-10050319D01*
Y-7563858D02*
X-11999998D01*
Y-7523269D02*
X-10050319D01*
Y-7482654D02*
X-11999998D01*
Y-7442065D02*
X-10050319D01*
X-11860196Y-7401451D02*
X-11999998D01*
X-11157353D02*
X-10050319D01*
X-11882929Y-7360861D02*
X-11999998D01*
X-11137642D02*
X-10050319D01*
X-11884377Y-7320247D02*
X-11999998D01*
X-11136677D02*
X-10050319D01*
X-11863727Y-7279658D02*
X-11999998D01*
X-11152349D02*
X-10050319D01*
X-11271119Y-7239043D02*
X-11999998D01*
X-11208889D02*
X-10050319D01*
Y-7198454D02*
X-11999998D01*
Y-7157839D02*
X-10050319D01*
Y-7117250D02*
X-11999998D01*
Y-7076635D02*
X-10500407D01*
X-10462180D02*
X-10457811D01*
X-10419610D02*
X-10050319D01*
X-10558218Y-7036046D02*
X-11999998D01*
X-10462180D02*
X-10457811D01*
X-10361799D02*
X-10050319D01*
X-10579604Y-6995432D02*
X-11999998D01*
X-10462180D02*
X-10457811D01*
X-10340387D02*
X-10050319D01*
X-10585319Y-6954842D02*
X-11999998D01*
X-10462180D02*
X-10457811D01*
X-10334672D02*
X-10050319D01*
X-10577547Y-6914228D02*
X-11999998D01*
X-10462180D02*
X-10457811D01*
X-10342445D02*
X-10050319D01*
X-10552858Y-6873639D02*
X-11999998D01*
X-10462180D02*
X-10457811D01*
X-10367133D02*
X-10050319D01*
X-10472061Y-6833024D02*
X-11999998D01*
X-10462180D02*
X-10457811D01*
X-10447931D02*
X-10050319D01*
Y-6792435D02*
X-11999998D01*
Y-6751820D02*
X-10050319D01*
Y-6711231D02*
X-11999998D01*
Y-6670616D02*
X-10050319D01*
Y-6630027D02*
X-11999998D01*
Y-6589413D02*
X-10050319D01*
Y-6548823D02*
X-11999998D01*
Y-6508209D02*
X-10050319D01*
Y-6467620D02*
X-11999998D01*
Y-6427005D02*
X-10050319D01*
Y-6386416D02*
X-11999998D01*
Y-6345801D02*
X-10050319D01*
Y-6305212D02*
X-11999998D01*
Y-6264597D02*
X-10050319D01*
Y-6224008D02*
X-11999998D01*
Y-6183394D02*
X-10050319D01*
Y-6142804D02*
X-11999998D01*
Y-6102190D02*
X-10050319D01*
Y-6061575D02*
X-11999998D01*
Y-6020986D02*
X-10050319D01*
Y-5980371D02*
X-11999998D01*
X-13299995Y-5939782D02*
X-10050319D01*
Y-5899168D02*
X-13299995D01*
Y-5858578D02*
X-10050319D01*
Y-5817964D02*
X-13299995D01*
Y-5777375D02*
X-10050319D01*
Y-5736760D02*
X-13299995D01*
Y-5696171D02*
X-10050319D01*
Y-5655556D02*
X-13299995D01*
Y-5614967D02*
X-10050319D01*
Y-5574352D02*
X-13299995D01*
Y-5533763D02*
X-10050319D01*
Y-5493149D02*
X-13299995D01*
Y-5452559D02*
X-10050319D01*
Y-5411945D02*
X-13299995D01*
Y-5371356D02*
X-10050319D01*
Y-5330741D02*
X-13299995D01*
Y-5290152D02*
X-12601622D01*
X-12444371D02*
X-11598373D01*
X-11553720D02*
D03*
X-11509092D02*
X-10050319D01*
X-12615821Y-5249537D02*
X-13299995D01*
X-12430172D02*
X-11637133D01*
X-11553720D02*
D03*
X-11470332D02*
X-10050319D01*
X-12643939Y-5208948D02*
X-13299995D01*
X-12434363D02*
X-11646557D01*
X-11553720D02*
D03*
X-11460908D02*
X-10050319D01*
X-13018131Y-5168333D02*
X-13299995D01*
X-13007616D02*
D03*
X-12997100D02*
X-12684528D01*
X-12460906D02*
X-11637616D01*
X-11553720D02*
D03*
X-11469824D02*
X-10050319D01*
X-13084527Y-5127744D02*
X-13299995D01*
X-13007616D02*
D03*
X-12930679D02*
X-12725142D01*
X-12540383D02*
X-11600176D01*
X-11553720D02*
D03*
X-11507289D02*
X-10050319D01*
X-13099996Y-5087130D02*
X-13299995D01*
X-13007616D02*
D03*
X-12915236D02*
X-12765757D01*
X-12580997D02*
X-10050319D01*
X-13095957Y-5046540D02*
X-13299995D01*
X-13007616D02*
D03*
X-12919249D02*
X-12806346D01*
X-12621587D02*
X-10050319D01*
X-13069008Y-5005926D02*
X-13299995D01*
X-13007616D02*
D03*
X-12946199D02*
X-12846961D01*
X-12662201D02*
X-10050319D01*
X-12887550Y-4965337D02*
X-13299995D01*
X-12702790D02*
X-10136349D01*
X-10118188D02*
D03*
X-10100027D02*
X-10050319D01*
X-12928165Y-4924722D02*
X-13299995D01*
X-12743405D02*
X-10196115D01*
X-10118188D02*
D03*
X-12968754Y-4884133D02*
X-13299995D01*
X-12783994D02*
X-10210873D01*
X-10118188D02*
D03*
X-13009368Y-4843518D02*
X-13299995D01*
X-12824609D02*
X-10205894D01*
X-10118188D02*
D03*
X-13049958Y-4802929D02*
X-13266035D01*
X-12865198D02*
X-10178056D01*
X-10118188D02*
D03*
X-10058295D02*
X-10050319D01*
X-13090572Y-4762314D02*
X-13225446D01*
X-12905813D02*
X-10050319D01*
X-13131161Y-4721725D02*
X-13184832D01*
X-12946402D02*
X-10050319D01*
X-11048209Y-4681111D02*
X-12987016D01*
X-10979527D02*
D03*
X-10910846D02*
X-10050319D01*
X-11069799Y-4640521D02*
X-13027606D01*
X-10979527D02*
D03*
X-10889256D02*
X-10050319D01*
X-11070459Y-4599907D02*
X-13068220D01*
X-10979527D02*
D03*
X-10888595D02*
X-10050319D01*
X-11051587Y-4559318D02*
X-13092680D01*
X-10979527D02*
D03*
X-10907468D02*
X-10050319D01*
Y-4518703D02*
X-13092680D01*
Y-4478114D02*
X-10050319D01*
Y-4437499D02*
X-13092680D01*
Y-4396910D02*
X-10050319D01*
Y-4356295D02*
X-13092680D01*
X-13100885Y-4315706D02*
X-10050319D01*
Y-4275092D02*
X-13139035D01*
X-13179650Y-4234477D02*
X-10050319D01*
Y-4193888D02*
X-13220239D01*
X-13260854Y-4153273D02*
X-10723241D01*
X-10697003D02*
D03*
X-10670765D02*
X-10050319D01*
X-10776023Y-4112684D02*
X-13238476D01*
X-10697003D02*
D03*
X-10617984D02*
X-10050319D01*
X-12746123Y-4072069D02*
X-13223973D01*
X-12700606D02*
D03*
X-12655115D02*
X-10789815D01*
X-10697003D02*
D03*
X-10604192D02*
X-10050319D01*
X-12784248Y-4031480D02*
X-13229231D01*
X-12700606D02*
D03*
X-12616989D02*
X-10784049D01*
X-10697003D02*
D03*
X-10609957D02*
X-10050319D01*
X-12793443Y-3990866D02*
X-13257349D01*
X-12700606D02*
D03*
X-12607794D02*
X-10754839D01*
X-10697003D02*
D03*
X-10639167D02*
X-10050319D01*
X-12784274Y-3950276D02*
X-13299995D01*
X-12700606D02*
D03*
X-12616964D02*
X-10050319D01*
X-12746199Y-3909662D02*
X-13299995D01*
X-12700606D02*
D03*
X-12655038D02*
X-10050319D01*
X-11648081Y-3869073D02*
X-13299995D01*
X-11575691D02*
X-11536397D01*
X-11484759D02*
X-11458343D01*
X-11344449D02*
X-11136169D01*
X-11105308D02*
X-10543257D01*
X-10456745D02*
X-10050319D01*
X-11700964Y-3828458D02*
X-13299995D01*
X-11299644D02*
X-11189052D01*
X-11052400D02*
X-10673178D01*
X-10326824D02*
X-10050319D01*
X-11717702Y-3787869D02*
X-13299995D01*
X-11297739D02*
X-11222097D01*
X-11019355D02*
X-10737211D01*
X-10262790D02*
X-10050319D01*
X-11717702Y-3747254D02*
X-13299995D01*
X-11314147D02*
X-11226542D01*
X-11014910D02*
X-10777826D01*
X-10222176D02*
X-10050319D01*
X-11717702Y-3706665D02*
X-13299995D01*
X-11295580D02*
X-11226542D01*
X-11014910D02*
X-10811405D01*
X-10188597D02*
X-10050319D01*
X-11708076Y-3666050D02*
X-13299995D01*
X-11515696D02*
X-11497586D01*
X-11305206D02*
X-11225526D01*
X-11015951D02*
X-10832106D01*
X-10167896D02*
X-10050319D01*
X-11665810Y-3625461D02*
X-13299995D01*
X-11557962D02*
X-11455320D01*
X-11347472D02*
X-11195427D01*
X-11046050D02*
X-10852781D01*
X-10147220D02*
X-10050319D01*
X-13147443Y-3584847D02*
X-13299995D01*
X-12600403D02*
X-12515973D01*
X-12002004D02*
X-11923391D01*
X-11440690D02*
X-11348386D01*
X-11019710D02*
X-10862484D01*
X-10137517D02*
X-10050319D01*
X-13152243Y-3544257D02*
X-13299995D01*
X-11997229D02*
X-11926744D01*
X-11435915D02*
X-11366877D01*
X-11016357D02*
X-10868910D01*
X-10131091D02*
X-10050319D01*
X-13142591Y-3503643D02*
X-13299995D01*
X-11997229D02*
X-11922629D01*
X-11435915D02*
X-11366877D01*
X-11020472D02*
X-10875337D01*
X-10124665D02*
X-10050319D01*
X-13073529Y-3463054D02*
X-13299995D01*
X-12450873D02*
X-12442034D01*
X-11997229D02*
X-11927506D01*
X-11435915D02*
X-11366877D01*
X-11015595D02*
X-10870079D01*
X-10129948D02*
X-10050319D01*
X-13045081Y-3422439D02*
X-13299995D01*
X-12912467D02*
X-12904746D01*
X-12590802D02*
X-12447673D01*
X-12307516D02*
X-12299286D01*
X-11997509D02*
X-11899058D01*
X-11436194D02*
X-11357987D01*
X-11043307D02*
X-10863653D01*
X-10136374D02*
X-10050319D01*
X-12745310Y-3381850D02*
X-13299995D01*
X-12630146D02*
X-12420495D01*
X-12346860D02*
X-12160602D01*
X-12024687D02*
X-11760374D01*
X-11463372D02*
X-11318643D01*
X-11083921D02*
X-10856515D01*
X-10143486D02*
X-10050319D01*
X-11875893Y-3341235D02*
X-13299995D01*
X-11363372D02*
X-11278308D01*
X-11020447D02*
X-10835814D01*
X-10164187D02*
X-10050319D01*
X-11881405Y-3300646D02*
X-13299995D01*
X-11316712D02*
X-11304216D01*
X-11014910D02*
X-10815139D01*
X-10184863D02*
X-10050319D01*
X-11881405Y-3260031D02*
X-13299995D01*
X-11014910D02*
X-10785116D01*
X-10214886D02*
X-10050319D01*
X-11881405Y-3219442D02*
X-13299995D01*
X-11014910D02*
X-10744527D01*
X-10255475D02*
X-10050319D01*
X-11881405Y-3178828D02*
X-13299995D01*
X-11014910D02*
X-10687504D01*
X-10312498D02*
X-10050319D01*
X-11855700Y-3138238D02*
X-13299995D01*
X-11778561D02*
X-11772642D01*
X-11695503D02*
X-11673836D01*
X-11596697D02*
X-11580288D01*
X-11461619D02*
X-11460730D01*
X-11383591D02*
X-11341147D01*
X-11180975D02*
X-11180060D01*
X-11040640D02*
X-10589333D01*
X-10410669D02*
X-10050319D01*
Y-3097624D02*
X-13299995D01*
Y-3057035D02*
X-10050319D01*
X-11240004Y-7338001D02*
X-11791591D01*
Y-7338789*
D39*
X-14713759Y-5110498D02*
Y-5459748D01*
Y-5999498*
Y-5110498D02*
X-14301009Y-4697748D01*
Y-4665998*
X-14280511*
X-14713759Y-5999498D02*
Y-6697998D01*
X-13634259Y-5491498D02*
Y-6443998D01*
X-13634005*
X-13033549D02*
X-13158009D01*
Y-5935998*
X-11999998Y-6602748D02*
X-12269009D01*
Y-6603002*
X-10745009Y-7999748D02*
Y-8539498D01*
Y-8762002*
Y-8539498D02*
X-11062509D01*
Y-8549658*
X-13299995Y-4062748D02*
X-13316759D01*
X-14682009Y-5459748D02*
X-14713759D01*
X-16936259Y-4157998D02*
X-16968009Y-4189748D01*
Y-4538998*
X-16936259Y-4157998D02*
X-16936005D01*
X-16809259Y-6062998D02*
Y-5681998D01*
X-16809005*
X-16777509D02*
X-16745759Y-5650248D01*
Y-5332748*
X-16714009Y-5300998*
X-16777509Y-5681998D02*
X-16809005D01*
X-16968009Y-4538998D02*
X-16745759Y-4761248D01*
Y-5300998*
X-16714009*
X-16460009Y-4094498D02*
X-16301259D01*
Y-3808748*
X-16460009Y-4094498D02*
Y-4125994D01*
X-13793009Y-9333248D02*
X-14428009D01*
Y-9332994*
X-13793009Y-9333248D02*
Y-9314198D01*
X-14936009Y-8571248D02*
X-14650259Y-8856998D01*
Y-9142748*
X-14491509Y-9301498*
X-14428009*
X-14936009Y-8571248D02*
Y-8570994D01*
X-14428009Y-9301498D02*
Y-9332994D01*
X-15031259Y-8761748D02*
X-14904259Y-8634748D01*
X-14936009Y-8570994*
X-16428259Y-6570998D02*
X-16237759Y-6380498D01*
Y-6126498*
X-16174259Y-6062998*
X-16428259Y-6570998D02*
X-16433009Y-6597998D01*
X-16174259Y-6062998D02*
X-16174005D01*
X-16714009Y-8063248D02*
X-16872759Y-8221998D01*
X-16714009Y-7427994D02*
Y-7459998D01*
Y-7586998*
Y-8063248*
X-16872759Y-8221998D02*
X-16873013D01*
X-16841009Y-9237998D02*
X-16745759Y-9333248D01*
X-16841009Y-8221998D02*
Y-8666498D01*
Y-9237998*
Y-8221998D02*
X-16873013D01*
X-16460009Y-6602748D02*
X-16523509Y-6666248D01*
Y-7269498*
X-16714009Y-7459998*
X-16460009Y-6602748D02*
X-16433009Y-6597998D01*
X-16809259Y-6062998D02*
X-16904509Y-6158248D01*
Y-7269498*
X-16714009Y-7459998*
X-16809259Y-6062998D02*
X-16809005D01*
X-14682009Y-5459748D02*
X-14237509Y-5015248D01*
Y-4316748*
X-14904259Y-3649998*
X-11824509Y-8539498D02*
X-11697509D01*
Y-8549658*
X-11983259Y-9618998D02*
X-11967384Y-9634873D01*
X-11856259Y-9745998*
X-11983259Y-9618998D02*
Y-9206248D01*
X-11951509Y-9174498*
X-11856259Y-9745998D02*
X-11856005D01*
X-11951509Y-9174498D02*
Y-9164338D01*
X-11824509Y-8539498D02*
X-11856259Y-8507748D01*
Y-7936248*
X-12046759Y-7745748*
X-12205509*
Y-7904498*
X-12173759Y-7936248*
Y-8920498*
X-11951509Y-9142748*
X-11824509Y-8549658D02*
Y-8539498D01*
X-11951509Y-9142748D02*
Y-9164338D01*
X-11189509Y-9174498D02*
X-11316509D01*
Y-9164338*
X-10745009Y-8952248D02*
X-10967259Y-9174498D01*
Y-9333248*
X-10745009Y-8952248D02*
Y-8951994D01*
X-11189509Y-9174498D02*
X-11157759Y-9206248D01*
Y-9364998*
X-11189509Y-9174498D02*
Y-9164338D01*
X-11967384Y-9634873D02*
X-12015009Y-9682498D01*
X-14586759Y-4475498D02*
Y-4665998D01*
X-14575507*
X-17317259Y-3522998D02*
X-17476009Y-3681748D01*
Y-3999248*
X-17317259Y-3522998D02*
X-17290005D01*
X-16999759Y-8190248D02*
X-17031509Y-8221998D01*
X-16999759Y-5332748D02*
Y-5840748D01*
Y-8190248*
Y-5332748D02*
X-16968009Y-5300998D01*
X-17031509Y-8221998D02*
X-17063005D01*
X-16650509Y-5681998D02*
X-16682259Y-5713748D01*
Y-5840748*
X-16650509Y-5681998D02*
X-16619013D01*
X-12777009Y-6539248D02*
X-12872259Y-6634498D01*
X-13443759*
Y-6443998*
X-12777009Y-6539248D02*
X-12774469Y-6537978D01*
X-13443759Y-6443998D02*
X-13444013D01*
X-13443759Y-6634498D02*
X-13602509Y-6793248D01*
Y-6824998*
X-17190259Y-8348998D02*
X-17063259Y-8221998D01*
X-17063005*
X-16968009Y-5300998D02*
Y-4951748D01*
X-16904509Y-9491998D02*
X-17063259Y-9333248D01*
Y-8253748*
X-17063005Y-8221998*
X-14174009Y-3999248D02*
X-14047009Y-3872248D01*
X-14029991Y-3871994*
X-13570759Y-4824748D02*
X-13920009Y-4475498D01*
Y-4221498*
X-14142259Y-3999248*
X-14174009*
X-15888509Y-6856748D02*
X-16110759Y-7078998D01*
X-16111013*
X-16650509Y-6951998D02*
Y-6062998D01*
X-16619013*
X-14428009Y-9142748D02*
X-14555009Y-9015748D01*
Y-8552198*
X-14428009Y-9142748D02*
Y-9143002D01*
X-14936009Y-7872748D02*
X-15063009Y-7745748D01*
X-14936009Y-8381002D02*
Y-8348998D01*
Y-7872748*
X-14555009Y-8539498D02*
X-14777259D01*
Y-8507748*
X-14936009Y-8348998*
X-14555009Y-8539498D02*
Y-8552198D01*
X-14936009Y-8381002D02*
Y-8380748D01*
X-15063009Y-7745748D02*
Y-6666248D01*
Y-6440010*
Y-6253498*
X-13602509Y-4824748D02*
X-13951759Y-5173998D01*
Y-5808998*
X-13602509Y-4824748D02*
X-13570759D01*
X-15063009Y-5935998D02*
X-14904259Y-5777248D01*
Y-5618498*
X-15063009Y-5935998D02*
Y-5940011D01*
X-16333009Y-6824998D02*
X-16301259Y-6856748D01*
Y-7078998*
X-16333009Y-6824998D02*
Y-6797997D01*
X-16301259Y-7078998D02*
X-16301005D01*
X-16110759Y-6316998D02*
Y-6666248D01*
X-16301259Y-6856748*
X-16333009Y-6797997*
X-16714009Y-7237748D02*
X-16777509Y-7174248D01*
Y-6507498*
X-16714009Y-7237748D02*
Y-7238002D01*
D40*
X-15983759Y-6062998D02*
X-15952009Y-6031248D01*
Y-5904248*
X-16110759Y-4729498D02*
X-16079009Y-4761248D01*
Y-5777248*
X-15952009Y-5904248*
X-15698009Y-7047248D02*
Y-6348748D01*
X-15983759Y-6062998*
X-15984013*
X-15888509Y-6729748D02*
X-15793259Y-6824998D01*
Y-6951998*
X-17325006Y-7037494D02*
Y-6775010D01*
X-17984009Y-4538998D02*
X-17730009Y-4792998D01*
Y-5300998*
X-17698259Y-6253498D02*
X-17730009Y-6221748D01*
Y-5300998*
X-17603009Y-6348748D02*
Y-4665998D01*
X-17730009Y-4538998*
X-16872759Y-3522998D02*
X-16587009Y-3808748D01*
X-16460009Y-3935748*
Y-3936002*
X-16872759Y-3522998D02*
X-16900013D01*
X-16460009Y-4538998D02*
X-16587009Y-4411998D01*
Y-3808748*
X-17095009Y-4380248D02*
Y-5427998D01*
X-17412509Y-6062998D02*
Y-5749993D01*
X-17100013Y-5437497*
X-17095009Y-5427998*
X-12808759Y-7967998D02*
X-12618259Y-7777498D01*
Y-6634498*
X-12523009Y-5237498D02*
X-13158009Y-4602498D01*
Y-4348498*
X-13539009Y-3967498*
Y-3205498*
X-17222009Y-3237248D02*
X-18111009D01*
Y-5173998*
X-17984009Y-5300998*
X-12832178Y-7981587D02*
X-12808759Y-7967998D01*
X-18428509Y-8412498D02*
X-18492009Y-8348998D01*
Y-5300998*
X-13822118Y-7811889D02*
X-13888259Y-7745748D01*
Y-7618748*
X-14301009Y-7205998*
Y-6094748*
X-14586759Y-5808998*
X-15094759Y-5777248D02*
X-15190009Y-5681998D01*
Y-5300998*
X-13920009Y-3459498D02*
X-15063009D01*
Y-4983498*
X-13001875Y-8632131D02*
X-12935759Y-8698248D01*
Y-9460248*
X-13062759Y-9587248D02*
X-15666259D01*
Y-7142498*
X-15602759Y-7078998*
Y-6126498*
X-15825009Y-5904248*
Y-5015248*
X-15444009Y-5300998D02*
X-15412259Y-5332748D01*
Y-6253498*
X-16745759Y-4157998D02*
X-16714009Y-4189748D01*
Y-4538998*
X-16745759Y-4157998D02*
X-16746013D01*
X-14015259Y-7967998D02*
X-14142259Y-7840998D01*
Y-7713998*
X-14110509Y-7682248*
X-11570509Y-8348998D02*
X-11443509Y-8475998D01*
Y-8549658*
X-13991840Y-7981587D02*
X-14015259Y-7967998D01*
X-13031009Y-6348748D02*
X-12904009Y-6221748D01*
X-12396009*
Y-6697998*
X-12332509Y-6761498*
X-12269009*
X-13031009Y-6348748D02*
X-13033549Y-6350018D01*
X-12269009Y-6761498D02*
Y-6792994D01*
X-12173759Y-6951998D02*
X-12269009Y-6856748D01*
Y-6792994*
X-13031009Y-6539248D02*
X-12904009D01*
Y-6475748*
X-12777009Y-6348748*
X-13031009Y-6539248D02*
X-13033549Y-6537978D01*
X-12777009Y-6348748D02*
X-12774469Y-6350018D01*
X-17126759Y-4062748D02*
X-17476009Y-4411998D01*
Y-4538998*
X-13062759Y-6539248D02*
X-13316759D01*
Y-6031248*
X-13380259Y-5967748*
Y-4824748*
X-13221509Y-4665998*
Y-4380248*
X-13666009Y-3935748*
Y-3205498*
X-16999759Y-3268998D02*
X-17126759Y-3395998D01*
Y-4062748*
X-13062759Y-6539248D02*
X-13033549Y-6537978D01*
X-17162497Y-8762510D02*
X-17500012Y-8424994D01*
Y-5325001*
X-17476009Y-5300998*
X-15348759Y-6602748D02*
X-15317009Y-6570998D01*
Y-4665998*
X-15190009Y-4538998*
X-12777009Y-8412498D02*
X-12713509Y-8475998D01*
Y-8793498*
X-12840509Y-8920498*
Y-9015748*
X-14809009Y-8983998D02*
X-14999509D01*
Y-8920498*
X-15317009Y-8602998*
Y-6570998*
X-12775612Y-8405843D02*
X-12777009Y-8412498D01*
X-13761259Y-7745748D02*
X-13824759Y-7682248D01*
Y-7364748*
X-13761259Y-7745748D02*
X-13765552Y-7755298D01*
X-11189509Y-8549658D02*
Y-8317248D01*
X-11164084Y-8289003*
X-10999009Y-8317248D02*
X-11157759D01*
X-11164084Y-8289003*
X-11348259Y-8317248D02*
X-11316509Y-8348998D01*
Y-8549658*
X-11348259Y-8317248D02*
X-11354101Y-8289003D01*
X-11697509Y-9745998D02*
X-11729259Y-9714248D01*
Y-9618998*
X-11824509Y-9523748*
Y-9491998*
X-11697509Y-9745998D02*
X-11666013D01*
X-11824509Y-9491998D02*
X-11856005Y-9466699D01*
X-11824509Y-9164338D02*
Y-9460248D01*
X-11856005Y-9466699*
X-11697509Y-9164338D02*
Y-9460248D01*
X-11666013Y-9466699*
X-13888259Y-7872748D02*
X-13951759Y-7809248D01*
Y-7713998*
X-13983509Y-7682248*
X-12078509Y-7872748D02*
Y-8412498D01*
X-11951509Y-8539498*
X-13878683Y-7868455D02*
X-13888259Y-7872748D01*
X-11951509Y-8539498D02*
Y-8549658D01*
X-14047009Y-8031498D02*
X-14205759Y-7872748D01*
Y-7586998*
X-14047009Y-8031498D02*
X-14048406Y-8038152D01*
X-13951759Y-7904498D02*
X-14047009Y-7809248D01*
X-12300759Y-7967998D02*
X-12269009Y-7999748D01*
Y-9555498*
X-11951509Y-9872998*
X-11538759*
Y-9206248*
X-11570509Y-9174498*
X-13935275Y-7925021D02*
X-13951759Y-7904498D01*
X-11570509Y-9164338D02*
Y-9174498D01*
X-17317259Y-3141998D02*
X-15698009D01*
Y-4538998*
X-16555259Y-5872498D02*
X-16333009Y-5650248D01*
Y-4253248*
X-16110759Y-4030998*
X-16555259Y-5872498D02*
X-16491759Y-5935998D01*
X-13126259Y-6793248D02*
X-13285009Y-6951998D01*
Y-7523498*
X-13284730Y-7529035*
X-15825009Y-9523748D02*
X-15761509Y-9460248D01*
Y-8507748*
X-12618259Y-8158498D02*
X-12586509Y-8126748D01*
Y-8031498*
X-12650009Y-7967998*
X-12713509*
X-12777009Y-8031498*
X-12775612Y-8038152*
X-13634259Y-9079248D02*
X-13539009Y-8983998D01*
Y-8920498*
X-13539289Y-8914960*
X-14269259Y-9174498D02*
X-14142259Y-9047498D01*
Y-8507748*
X-14047009Y-8412498*
X-14048406Y-8405843*
X-15571009Y-8825248D02*
X-15475759Y-8729998D01*
Y-8412498*
X-13539009Y-7523498D02*
Y-7015498D01*
X-13920009Y-6634498*
X-14840759Y-6602748D02*
X-14809009Y-6570998D01*
Y-3999248*
X-13539009Y-7523498D02*
X-13539289Y-7529035D01*
X-15317009Y-8825248D02*
X-15380509Y-8761748D01*
Y-6697998*
X-15444009Y-6634498*
Y-6507498*
X-13761259Y-8698248D02*
X-13824759Y-8761748D01*
Y-9110998*
X-13793009Y-9142748*
X-13761259Y-8698248D02*
X-13765552Y-8688697D01*
X-13793009Y-9142748D02*
Y-9161798D01*
X-14110509Y-8094998D02*
X-14332759D01*
Y-8285498*
X-12618259Y-8475998D02*
X-12650009Y-8444248D01*
Y-8412498*
X-12713509Y-8348998*
X-14104972Y-8094718D02*
X-14110509Y-8094998D01*
X-12719046Y-8349277D02*
X-12713509Y-8348998D01*
X-13062759Y-7745748D02*
X-12935759Y-7618748D01*
Y-6888498*
X-12427759Y-6920248D02*
Y-8729998D01*
X-12491259Y-8793498*
X-12618259*
Y-8475998*
X-13058441Y-7755298D02*
X-13062759Y-7745748D01*
X-13793009Y-9174498D02*
X-13031009D01*
Y-9491998*
X-12967509Y-9555498*
X-12745259*
Y-8920498*
X-12618259Y-8793498*
X-13793009Y-9161798D02*
Y-9174498D01*
X-14269259Y-8348998D02*
X-14205759D01*
X-14110509*
X-14269259D02*
X-14301009Y-8380748D01*
X-14555009D02*
X-14428009D01*
X-14301009*
X-14110509Y-8348998D02*
X-14104972Y-8349277D01*
X-14555009Y-8380748D02*
Y-8399798D01*
X-13824759Y-8634748D02*
X-13920009Y-8729998D01*
Y-8761748*
X-14237509Y-8698248D02*
X-14301009Y-8634748D01*
Y-8380748*
X-13824759Y-8634748D02*
X-13822118Y-8632131D01*
X-12999259Y-7809248D02*
X-12872259Y-7682248D01*
Y-7047248*
X-12840509Y-7015498*
X-14396259Y-6983748D02*
X-14428009Y-7015498D01*
Y-8380748*
X-13001875Y-7811889D02*
X-12999259Y-7809248D01*
X-12713509Y-8094998D02*
Y-8190248D01*
X-12618259Y-8285498*
X-14205759D02*
Y-8348998D01*
X-12719046Y-8094718D02*
X-12713509Y-8094998D01*
X-13920009Y-7459998D02*
X-14110509Y-7269498D01*
Y-4316748*
X-14269259Y-4157998*
Y-3649998*
X-14174009Y-3554748*
X-13793009Y-4253248D02*
Y-3776998D01*
X-13810002*
X-14904259Y-4316748D02*
Y-4983498D01*
X-13094509Y-7682248D02*
X-13031009Y-7618748D01*
Y-7269498*
X-13634259D02*
X-14047009Y-6856748D01*
Y-4253248*
X-13094509Y-7682248D02*
X-13115007Y-7698732D01*
X-13380259Y-4697748D02*
Y-4348498D01*
X-12935759Y-8571248D02*
X-12808759Y-8698248D01*
X-12523009D02*
Y-6602748D01*
X-12618259Y-6507498*
X-12935759Y-8571248D02*
X-12945310Y-8575566D01*
X-13475509Y-5713748D02*
Y-4507248D01*
X-14015259Y-8475998D02*
X-14078759Y-8539498D01*
Y-8729998*
X-13920009Y-8888748*
X-12650009Y-9079248D02*
X-12332509Y-9396748D01*
Y-9682498*
X-12078509Y-9936498*
X-11062509*
Y-9164338*
X-13991840Y-8462409D02*
X-14015259Y-8475998D01*
X-12872259Y-7904498D02*
X-12681759Y-7713998D01*
Y-6793248*
X-12777009Y-6697998*
X-17825259Y-6158248D02*
X-18238009Y-5745498D01*
Y-5300998*
X-12888744Y-7925021D02*
X-12872259Y-7904498D01*
X-12935759Y-7872748D02*
X-12872259Y-7809248D01*
Y-7777498*
X-12777009Y-7682248*
X-12935759Y-7872748D02*
X-12945310Y-7868455D01*
D1003*
X-11951509Y-8549658D03*
Y-9164338D03*
X-11824509Y-8549658D03*
X-11697509D03*
X-11824509Y-9164338D03*
X-11697509D03*
X-11570509Y-8549658D03*
Y-9164338D03*
X-11443509Y-8549658D03*
Y-9164338D03*
X-11316509Y-8549658D03*
X-11189509D03*
X-11316509Y-9164338D03*
X-11189509D03*
X-11062509Y-8549658D03*
Y-9164338D03*
D1006*
X-13033549Y-6537978D03*
Y-6443998D03*
Y-6350018D03*
X-12774469D03*
Y-6537978D03*
D1007*
X-13793009Y-9314198D03*
Y-9161798D03*
X-14555009Y-8399798D03*
Y-8552198D03*
D914*
X-11666013Y-9745998D03*
X-11856005D03*
X-17063005Y-8221998D03*
X-16873013D03*
X-15984013Y-6062998D03*
X-16174005D03*
X-16619013D03*
X-16809005D03*
X-16746013Y-4157998D03*
X-16936005D03*
X-11666013Y-9466699D03*
X-11856005D03*
X-11354101Y-8289003D03*
X-11164084D03*
X-16619013Y-5681998D03*
X-16809005D03*
X-13444013Y-6443998D03*
X-13634005D03*
X-16111013Y-7078998D03*
X-16301005D03*
D1116*
X-16460009Y-4125994D03*
Y-3936002D03*
X-12269009Y-6792994D03*
Y-6603002D03*
X-14428009Y-9143002D03*
Y-9332994D03*
X-14936009Y-8381002D03*
Y-8570994D03*
X-10745009Y-8951994D03*
Y-8762002D03*
X-16714009Y-7238002D03*
Y-7427994D03*
D917*
X-14575507Y-4665998D03*
X-14280511D03*
D1011*
X-15063009Y-6440010D03*
Y-5940011D03*
D1012*
X-16900013Y-3522998D03*
X-17290005D03*
D1013*
X-13810002Y-3776998D03*
X-14029991Y-3682002D03*
Y-3871994D03*
D1108*
X-16333009Y-6797997D03*
X-16433009Y-6597998D03*
X-16233009D03*
D1021*
X-10459996Y-7718011D03*
Y-6957992D03*
D1022*
X-11240004Y-7338001D03*
D37*
X-10118188Y-4874303D03*
X-10697003Y-4063865D03*
X-10979527Y-4618525D03*
X-11553720Y-5208338D03*
X-13007616Y-5075801D03*
X-12700606Y-3990840D03*
X-14713759Y-5999498D03*
Y-6697998D03*
X-13634259Y-5491498D03*
X-13316759Y-4062748D03*
X-14682009Y-5459748D03*
X-16301259Y-3808748D03*
X-15031259Y-8761748D03*
X-16745759Y-9333248D03*
X-16714009Y-7586998D03*
X-16841009Y-8666498D03*
X-14904259Y-3649998D03*
X-10967259Y-9333248D03*
X-11157759Y-9364998D03*
X-12015009Y-9682498D03*
X-14586759Y-4475498D03*
X-17476009Y-3999248D03*
X-16999759Y-5840748D03*
X-16682259D03*
X-13602509Y-6824998D03*
X-17190259Y-8348998D03*
X-16968009Y-4951748D03*
X-16904509Y-9491998D03*
X-15952009Y-5904248D03*
X-16110759Y-4729498D03*
X-15698009Y-7047248D03*
X-15888509Y-6729748D03*
X-15793259Y-6951998D03*
X-17325006Y-6775010D03*
Y-7037494D03*
X-17698259Y-6253498D03*
X-17603009Y-6348748D03*
X-17095009Y-4380248D03*
X-17412509Y-6062998D03*
X-12618259Y-6634498D03*
X-12523009Y-5237498D03*
X-13539009Y-3205498D03*
X-17222009Y-3237248D03*
X-18428509Y-8412498D03*
X-14586759Y-5808998D03*
X-15094759Y-5777248D03*
X-13920009Y-3459498D03*
X-15063009Y-4983498D03*
X-12935759Y-9460248D03*
X-13062759Y-9587248D03*
X-15825009Y-5015248D03*
X-15412259Y-6253498D03*
X-14110509Y-7682248D03*
X-11570509Y-8348998D03*
X-12173759Y-6951998D03*
X-17126759Y-4062748D03*
X-13666009Y-3205498D03*
X-16999759Y-3268998D03*
X-17162497Y-8762510D03*
X-15348759Y-6602748D03*
X-12840509Y-9015748D03*
X-14809009Y-8983998D03*
X-13824759Y-7364748D03*
X-11791591Y-7338789D03*
X-10999009Y-8317248D03*
X-13983509Y-7682248D03*
X-12078509Y-7872748D03*
X-14205759Y-7586998D03*
X-14047009Y-7809248D03*
X-12300759Y-7967998D03*
X-17317259Y-3141998D03*
X-16110759Y-4030998D03*
X-16491759Y-5935998D03*
X-13126259Y-6793248D03*
X-15825009Y-9523748D03*
X-15761509Y-8507748D03*
X-12618259Y-8158498D03*
X-13634259Y-9079248D03*
X-14269259Y-9174498D03*
X-15571009Y-8825248D03*
X-15475759Y-8412498D03*
X-13920009Y-6634498D03*
X-14840759Y-6602748D03*
X-14809009Y-3999248D03*
X-15317009Y-8825248D03*
X-15444009Y-6507498D03*
X-14174009Y-3999248D03*
X-13570759Y-4824748D03*
X-15888509Y-6856748D03*
X-16650509Y-6951998D03*
X-15063009Y-7745748D03*
Y-6253498D03*
Y-6666248D03*
X-13951759Y-5808998D03*
X-14332759Y-8285498D03*
X-12618259Y-8475998D03*
X-12935759Y-6888498D03*
X-12427759Y-6920248D03*
X-13920009Y-8761748D03*
X-14237509Y-8698248D03*
X-12840509Y-7015498D03*
X-14396259Y-6983748D03*
X-12618259Y-8285498D03*
X-14205759D03*
X-13920009Y-7459998D03*
X-14174009Y-3554748D03*
X-13793009Y-4253248D03*
X-14904259Y-5618498D03*
Y-4983498D03*
Y-4316748D03*
X-13031009Y-7269498D03*
X-13634259D03*
X-14047009Y-4253248D03*
X-13380259Y-4348498D03*
Y-4697748D03*
X-12808759Y-8698248D03*
X-12523009D03*
X-12618259Y-6507498D03*
X-13475509Y-4507248D03*
Y-5713748D03*
X-13920009Y-8888748D03*
X-12650009Y-9079248D03*
X-12777009Y-6697998D03*
X-17825259Y-6158248D03*
X-12777009Y-7682248D03*
X-16110759Y-6316998D03*
X-16777509Y-6507498D03*
M02*
