G04 Filename: C:\Software\Gccam4_1_4\paste_1.gbx *
G04 Creator: GC-CAM (TM) 4.1.4  Wed Jan 21 09:38:06 2015 *
G04 This file contains layer(s): *
G04 Layer 1: C:\workshane\df4iah_10mhz.spt *
%FSLAX35Y35*%
G04 Units: mm   *
%MOMM*%
G71*
%SFA1.00000B1.00000*%
%OFA0.00000B0.00000*%
G75*
%AD*%
G04 D901 (position 1 of UNTITLED):1.134039X2.105955 Rectangle *
%ADD901R,1.134039X2.105955*%
G04 D902 (position 2 of UNTITLED):0.809998X0.971915 Rectangle *
%ADD902R,0.809998X0.971915*%
G04 D903 (position 3 of UNTITLED):1.295956X1.619996 Rectangle *
%ADD903R,1.295956X1.619996*%
G04 D904 (position 4 of UNTITLED):1.619996X1.295956 Rectangle *
%ADD904R,1.619996X1.295956*%
G04 D905 (position 5 of UNTITLED):2.057400X1.028700 Rectangle *
%ADD905R,2.057400X1.028700*%
G04 D906 (position 6 of UNTITLED):0.809998X2.429996 Rectangle *
%ADD906R,0.809998X2.429996*%
G04 D907 (position 7 of UNTITLED):0.809998X1.215101 Rectangle *
%ADD907R,0.809998X1.215101*%
G04 D908 (position 8 of UNTITLED):0.405102 Round     *
%ADD908C,0.405102*%
G04 D909 (position 9 of UNTITLED):1.460754X0.576072 Rectangle *
%ADD909R,1.460754X0.576072*%
G04 D910 (position 10 of UNTITLED):1.215101X1.052978 Rectangle *
%ADD910R,1.215101X1.052978*%
G04 D911 (position 11 of UNTITLED):1.295956X0.971915 Rectangle *
%ADD911R,1.295956X0.971915*%
G04 D912 (position 12 of UNTITLED):1.052978X1.215101 Rectangle *
%ADD912R,1.052978X1.215101*%
G04 D22 (position 13 of UNTITLED):1.134039X1.781915 Rectangle *
%ADD22R,1.134039X1.781915*%
G04 D23 (position 14 of UNTITLED):0.809998X1.134039 Rectangle *
%ADD23R,0.809998X1.134039*%
G04 D24 (position 15 of UNTITLED):1.741589X1.458079 Rectangle *
%ADD24R,1.741589X1.458079*%
G04 D25 (position 16 of UNTITLED):1.295956 Round     *
%ADD25C,1.295956*%
G04 D26 (position 17 of UNTITLED):1.295956 Square    *
%ADD26R,1.295956X1.295956*%
G04 D27 (position 18 of UNTITLED):0.452628X1.028700 Rectangle *
%ADD27R,0.452628X1.028700*%
G04 D28 (position 19 of UNTITLED):0.728937X1.134039 Rectangle *
%ADD28R,0.728937X1.134039*%
G04 D29 (position 20 of UNTITLED):4.892497X2.754036 Rectangle *
%ADD29R,4.892497X2.754036*%
G04 D30 (position 21 of UNTITLED):2.429996X0.567020 Rectangle *
%ADD30R,2.429996X0.567020*%
%IPPOS*%
G04 Layer 1: C:\workshane\df4iah_10mhz.spt *
%LN(01)C:\workshane\df4iah_10mhz.spt*%
%LPD*%
X0Y0D02*
D908*
X5839917Y5879897D02*
Y5979922D01*
X5889904*
Y5879897*
X5839917*
Y5929884D02*
X5889904D01*
Y5979871D02*
X5839917D01*
X4442917Y418897D02*
Y518922D01*
X4492904*
Y418897*
X4442917*
Y468884D02*
X4492904D01*
Y518871D02*
X4442917D01*
X2537917Y5879897D02*
Y5979922D01*
X2587904*
Y5879897*
X2537917*
Y5929884D02*
X2587904D01*
Y5979871D02*
X2537917D01*
X1648917Y3720897D02*
Y3820922D01*
X1698904*
Y3720897*
X1648917*
Y3770884D02*
X1698904D01*
Y3820871D02*
X1648917D01*
D901*
X3832911Y1350899D03*
Y1760906D03*
X6626911Y5160899D03*
Y5570906D03*
D902*
X4340911Y2798902D03*
X4240911Y2598903D03*
X4440911D03*
X3705911Y2798902D03*
X3605911Y2598903D03*
X3805911D03*
X5864911Y2344903D03*
X5964911Y2544902D03*
X5764911D03*
X5229911Y2344903D03*
X5329911Y2544902D03*
X5129911D03*
D903*
X2549906Y1555902D03*
X2829916D03*
D904*
X5356911Y6521907D03*
Y6241898D03*
D905*
X2689911Y920902D03*
Y666902D03*
X3324911D03*
Y920902D03*
X3959911Y666902D03*
Y920902D03*
D906*
X5863920Y3108909D03*
X6118911Y3558896D03*
X6373927Y3108909D03*
X7641920Y568909D03*
X7896911Y1018896D03*
X8151927Y568909D03*
D907*
X6626911Y6579895D03*
X6372911D03*
X6118911D03*
X5864911D03*
X6880911D03*
X6372911Y5929909D03*
X6626911D03*
X6880911D03*
X6118911D03*
X5229911Y1118895D03*
X4975911D03*
X4721911D03*
X4467911D03*
X5483911D03*
X4975911Y468909D03*
X5229911D03*
X5483911D03*
X4721911D03*
X3070911Y6579895D03*
X2816911D03*
X2562911D03*
X3070911Y5929909D03*
X2816911D03*
X2181911Y4420895D03*
X1927911D03*
X1673911D03*
X2181911Y3770909D03*
X1927911D03*
D909*
X7898994Y5485333D03*
Y5594553D03*
Y5376113D03*
Y5703773D03*
Y5266893D03*
Y5157673D03*
Y5812993D03*
Y5922213D03*
Y5048453D03*
X8868385Y5485333D03*
Y5376113D03*
Y5266893D03*
Y5157673D03*
Y5048453D03*
Y5594553D03*
Y5703773D03*
Y5812993D03*
Y5922213D03*
D910*
X7618832Y5156708D03*
Y4966691D03*
X3324911Y3238906D03*
Y3428898D03*
X4340911Y3238906D03*
Y3428898D03*
X3324911Y2603906D03*
Y2793898D03*
X5229911Y1841906D03*
Y2031898D03*
X4721911Y4317898D03*
Y4127906D03*
X3451911Y6222898D03*
Y6032906D03*
X4975911Y5905906D03*
Y6095898D03*
X4467911D03*
Y5905906D03*
X6245911Y4635906D03*
Y4825898D03*
D911*
X9181287Y5458689D03*
Y5158689D03*
D912*
X3038907Y3460902D03*
X2848915D03*
X3419907Y4349902D03*
X3229915D03*
X7928915Y2698902D03*
X8118907D03*
X7928915Y2952902D03*
X8118907D03*
X4181907Y5873902D03*
X3991915D03*
X6340907Y4095902D03*
X6150915D03*
X5578907Y5873902D03*
X5388915D03*
X7928915Y2444902D03*
X8118907D03*
D22*
X4467911Y2223897D03*
Y1903908D03*
D23*
X6626911Y4493895D03*
X6531915Y4713910D03*
X6721907D03*
D24*
X5209413Y3968902D03*
X5504409D03*
X5209413Y3206902D03*
X5504409D03*
D25*
X10043998Y5158613D03*
D26*
X10297998Y5412613D03*
Y4904613D03*
X9789998Y5412613D03*
Y4904613D03*
D27*
X5643931Y4728362D03*
X5737911D03*
X5831891D03*
Y4987442D03*
X5643931D03*
D28*
X4328922Y3905910D03*
Y4285894D03*
X4098925D03*
Y3905910D03*
D29*
X2308911Y3390900D03*
Y2006905D03*
D30*
X2950921Y2885897D03*
Y2760904D03*
Y2636901D03*
Y2511908D03*
M02*
