G04 Filename: C:\Software\Gccam4_1_4\paste_2.gbx *
G04 Creator: GC-CAM (TM) 4.1.4  Wed Jan 21 09:38:06 2015 *
G04 This file contains layer(s): *
G04 Layer 2: C:\workshane\df4iah_10mhz.spb *
%FSLAX35Y35*%
G04 Units: mm   *
%MOMM*%
G71*
%SFA1.00000B1.00000*%
%OFA0.00000B0.00000*%
G75*
%AD*%
G04 D1000 (position 22 of UNTITLED):0.534924X1.645920 Rectangle *
%ADD1000R,0.534924X1.645920*%
G04 D13 (position 25 of UNTITLED):1.028700X0.452628 Rectangle *
%ADD13R,1.028700X0.452628*%
G04 D14 (position 26 of UNTITLED):1.296162X0.946404 Rectangle *
%ADD14R,1.296162X0.946404*%
G04 D15 (position 27 of UNTITLED):1.052978X1.215101 Rectangle *
%ADD15R,1.052978X1.215101*%
G04 D16 (position 28 of UNTITLED):1.215101X1.052978 Rectangle *
%ADD16R,1.215101X1.052978*%
G04 D17 (position 29 of UNTITLED):1.741589X1.458079 Rectangle *
%ADD17R,1.741589X1.458079*%
G04 D18 (position 30 of UNTITLED):3.239994X1.458079 Rectangle *
%ADD18R,3.239994X1.458079*%
G04 D19 (position 31 of UNTITLED):1.538935X2.754036 Rectangle *
%ADD19R,1.538935X2.754036*%
G04 D20 (position 32 of UNTITLED):1.134039X0.809998 Rectangle *
%ADD20R,1.134039X0.809998*%
G04 D21 (position 33 of UNTITLED):0.809998X0.971915 Rectangle *
%ADD21R,0.809998X0.971915*%
G04 D999 (position 34 of UNTITLED):0.010000 Ext. Poly *
%ADD999C,0.010000*%
%IPPOS*%
G04 Layer 2: C:\workshane\df4iah_10mhz.spb *
%LN(02)C:\workshane\df4iah_10mhz.spb*%
%LPD*%
X0Y0D02*
D999*
X7064502Y2467508D02*
G36*
X7170547Y2573553D01*
X7205878Y2538222*
X7099833Y2432177*
X7064502Y2467508*
G37*
X7121068Y2410943D02*
G36*
X7227113Y2516988D01*
X7262444Y2481656*
X7156399Y2375611*
X7121068Y2410943*
G37*
X7177634Y2354377D02*
G36*
X7283679Y2460422D01*
X7319010Y2425090*
X7212965Y2319045*
X7177634Y2354377*
G37*
X7234225Y2297811D02*
G36*
X7340270Y2403856D01*
X7375601Y2368525*
X7269556Y2262480*
X7234225Y2297811*
G37*
X7290791Y2241245D02*
G36*
X7396836Y2347290D01*
X7432167Y2311959*
X7326122Y2205914*
X7290791Y2241245*
G37*
X7347356Y2184654D02*
G36*
X7453401Y2290699D01*
X7488733Y2255368*
X7382688Y2149323*
X7347356Y2184654*
G37*
X7403922Y2128088D02*
G36*
X7509967Y2234133D01*
X7545299Y2198802*
X7439254Y2092757*
X7403922Y2128088*
G37*
X7460488Y2071522D02*
G36*
X7566533Y2177567D01*
X7601864Y2142236*
X7495819Y2036191*
X7460488Y2071522*
G37*
X7517054Y2014957D02*
G36*
X7623099Y2121002D01*
X7658430Y2085670*
X7552385Y1979625*
X7517054Y2014957*
G37*
X7573620Y1958391D02*
G36*
X7679665Y2064436D01*
X7714996Y2029104*
X7608951Y1923059*
X7573620Y1958391*
G37*
X7630185Y1901825D02*
G36*
X7736230Y2007870D01*
X7771562Y1972539*
X7665517Y1866494*
X7630185Y1901825*
G37*
X6809943Y1081583D02*
G36*
X6915988Y1187628D01*
X6951320Y1152296*
X6845275Y1046251*
X6809943Y1081583*
G37*
X6753377Y1138149D02*
G36*
X6859422Y1244194D01*
X6894754Y1208862*
X6788709Y1102817*
X6753377Y1138149*
G37*
X6696812Y1194714D02*
G36*
X6802857Y1300759D01*
X6838188Y1265428*
X6732143Y1159383*
X6696812Y1194714*
G37*
X6640246Y1251280D02*
G36*
X6746291Y1357325D01*
X6781622Y1321994*
X6675577Y1215949*
X6640246Y1251280*
G37*
X6583680Y1307846D02*
G36*
X6689725Y1413891D01*
X6725056Y1378560*
X6619011Y1272515*
X6583680Y1307846*
G37*
X6527114Y1364412D02*
G36*
X6633159Y1470457D01*
X6668491Y1435125*
X6562446Y1329080*
X6527114Y1364412*
G37*
X6470548Y1420978D02*
G36*
X6576593Y1527023D01*
X6611925Y1491691*
X6505880Y1385646*
X6470548Y1420978*
G37*
X6413957Y1477569D02*
G36*
X6520002Y1583614D01*
X6555334Y1548282*
X6449289Y1442237*
X6413957Y1477569*
G37*
X6357391Y1534135D02*
G36*
X6463436Y1640180D01*
X6498768Y1604848*
X6392723Y1498803*
X6357391Y1534135*
G37*
X6300826Y1590700D02*
G36*
X6406871Y1696745D01*
X6442202Y1661414*
X6336157Y1555369*
X6300826Y1590700*
G37*
X6244260Y1647266D02*
G36*
X6350305Y1753311D01*
X6385636Y1717980*
X6279591Y1611935*
X6244260Y1647266*
G37*
X7630185Y1717980D02*
G36*
X7665517Y1753311D01*
X7771562Y1647266*
X7736230Y1611935*
X7630185Y1717980*
G37*
X7573620Y1661414D02*
G36*
X7608951Y1696745D01*
X7714996Y1590700*
X7679665Y1555369*
X7573620Y1661414*
G37*
X7517054Y1604848D02*
G36*
X7552385Y1640180D01*
X7658430Y1534135*
X7623099Y1498803*
X7517054Y1604848*
G37*
X7460488Y1548282D02*
G36*
X7495819Y1583614D01*
X7601864Y1477569*
X7566533Y1442237*
X7460488Y1548282*
G37*
X7403922Y1491691D02*
G36*
X7439254Y1527023D01*
X7545299Y1420978*
X7509967Y1385646*
X7403922Y1491691*
G37*
X7347356Y1435125D02*
G36*
X7382688Y1470457D01*
X7488733Y1364412*
X7453401Y1329080*
X7347356Y1435125*
G37*
X7290791Y1378560D02*
G36*
X7326122Y1413891D01*
X7432167Y1307846*
X7396836Y1272515*
X7290791Y1378560*
G37*
X7234225Y1321994D02*
G36*
X7269556Y1357325D01*
X7375601Y1251280*
X7340270Y1215949*
X7234225Y1321994*
G37*
X7177634Y1265428D02*
G36*
X7212965Y1300759D01*
X7319010Y1194714*
X7283679Y1159383*
X7177634Y1265428*
G37*
X7121068Y1208862D02*
G36*
X7156399Y1244194D01*
X7262444Y1138149*
X7227113Y1102817*
X7121068Y1208862*
G37*
X7064502Y1152296D02*
G36*
X7099833Y1187628D01*
X7205878Y1081583*
X7170547Y1046251*
X7064502Y1152296*
G37*
X6244260Y1972539D02*
G36*
X6279591Y2007870D01*
X6385636Y1901825*
X6350305Y1866494*
X6244260Y1972539*
G37*
X6300826Y2029104D02*
G36*
X6336157Y2064436D01*
X6442202Y1958391*
X6406871Y1923059*
X6300826Y2029104*
G37*
X6357391Y2085670D02*
G36*
X6392723Y2121002D01*
X6498768Y2014957*
X6463436Y1979625*
X6357391Y2085670*
G37*
X6413957Y2142236D02*
G36*
X6449289Y2177567D01*
X6555334Y2071522*
X6520002Y2036191*
X6413957Y2142236*
G37*
X6470548Y2198802D02*
G36*
X6505880Y2234133D01*
X6611925Y2128088*
X6576593Y2092757*
X6470548Y2198802*
G37*
X6527114Y2255368D02*
G36*
X6562446Y2290699D01*
X6668491Y2184654*
X6633159Y2149323*
X6527114Y2255368*
G37*
X6583680Y2311959D02*
G36*
X6619011Y2347290D01*
X6725056Y2241245*
X6689725Y2205914*
X6583680Y2311959*
G37*
X6640246Y2368525D02*
G36*
X6675577Y2403856D01*
X6781622Y2297811*
X6746291Y2262480*
X6640246Y2368525*
G37*
X6696812Y2425090D02*
G36*
X6732143Y2460422D01*
X6838188Y2354377*
X6802857Y2319045*
X6696812Y2425090*
G37*
X6753377Y2481656D02*
G36*
X6788709Y2516988D01*
X6894754Y2410943*
X6859422Y2375611*
X6753377Y2481656*
G37*
X6809943Y2538222D02*
G36*
X6845275Y2573553D01*
X6951320Y2467508*
X6915988Y2432177*
X6809943Y2538222*
G37*
D1000*
X8468411Y1482242D03*
Y867562D03*
X8595411Y1482242D03*
X8722411D03*
X8595411Y867562D03*
X8722411D03*
X8849411Y1482242D03*
Y867562D03*
X8976411Y1482242D03*
Y867562D03*
X9103411Y1482242D03*
X9230411D03*
X9103411Y867562D03*
X9230411D03*
X9357411Y1482242D03*
Y867562D03*
D13*
X7386371Y3493922D03*
Y3587902D03*
Y3681882D03*
X7645451D03*
Y3493922D03*
D14*
X6626911Y717702D03*
Y870102D03*
X5864911Y1632102D03*
Y1479702D03*
D15*
X8753907Y285902D03*
X8563915D03*
X3356915Y1809902D03*
X3546907D03*
X4435907Y3968902D03*
X4245915D03*
X3800907D03*
X3610915D03*
X3673907Y5873902D03*
X3483915D03*
X8753907Y565201D03*
X8563915D03*
X9065819Y1742897D03*
X9255836D03*
X3800907Y4349902D03*
X3610915D03*
X6975907Y3587902D03*
X6785915D03*
X4308907Y2952902D03*
X4118915D03*
D16*
X3959911Y5905906D03*
Y6095898D03*
X8150911Y3238906D03*
Y3428898D03*
X5991911Y888898D03*
Y698906D03*
X5483911Y1650898D03*
Y1460906D03*
X9674911Y1079906D03*
Y1269898D03*
X3705911Y2793898D03*
Y2603906D03*
D17*
X5844413Y5365902D03*
X6139409D03*
D18*
X5356911Y3591890D03*
Y4091889D03*
D19*
X3519907Y6508902D03*
X3129915D03*
D20*
X6609918Y6254902D03*
X6389929Y6349898D03*
Y6159906D03*
D21*
X4086911Y3233903D03*
X3986911Y3433902D03*
X4186911D03*
M02*
