G04 Filename: C:\Software\Gccam4_1_4\silk_1 *
G04 Creator: GC-CAM (TM) 4.1.4  Wed Jan 21 09:45:38 2015 *
G04 This file contains layer(s): *
G04 Layer 7: CLIPPED *
%FSLAX35Y35*%
G04 Units: mm   *
%MOMM*%
G71*
%SFA1.00000B1.00000*%
%OFA0.00000B0.00000*%
G75*
%AD*%
G04 D1105 (position 1 of UNTITLED):0.254000 Round     *
%ADD1105C,0.254000*%
G04 D1056 (position 74 of UNTITLED):0.177800 Round     *
%ADD1056C,0.177800*%
G04 D12 (position 75 of UNTITLED):0.127000 Round     *
%ADD12C,0.127000*%
G04 D1057 (position 76 of UNTITLED):0.101600 Round     *
%ADD1057C,0.101600*%
G04 D1059 (position 77 of UNTITLED):0.203200 Round     *
%ADD1059C,0.203200*%
G04 D1060 (position 78 of UNTITLED):0.152400 Round     *
%ADD1060C,0.152400*%
%IPPOS*%
G04 Layer 7: CLIPPED *
%LN(07)CLIPPED*%
%LPD*%
X0Y0D02*
D1105*
X-14571341Y-3171563D02*
X-14588283Y-3154621D01*
X-14622167*
X-14639134Y-3171563*
Y-3239356*
X-14622167Y-3256298*
X-14588283*
X-14571341Y-3239356*
Y-3205447*
X-14605225*
X-14522192Y-3256298D02*
Y-3154621D01*
X-14471342*
X-14454400Y-3171563*
Y-3205447*
X-14471342Y-3222414*
X-14522192*
X-14337458Y-3171563D02*
X-14354400Y-3154621D01*
X-14388284*
X-14405251Y-3171563*
Y-3188505*
X-14388284Y-3205447*
X-14354400*
X-14337458Y-3222414*
Y-3239356*
X-14354400Y-3256298*
X-14388284*
X-14405251Y-3239356*
X-18850352Y-5330563D02*
X-18867294Y-5313621D01*
X-18901203*
X-18918145Y-5330563*
Y-5347505*
X-18901203Y-5364447*
X-18867294*
X-18850352Y-5381414*
Y-5398356*
X-18867294Y-5415298*
X-18901203*
X-18918145Y-5398356*
X-18801203Y-5415298D02*
Y-5313621D01*
X-18750353*
X-18733411Y-5330563*
Y-5364447*
X-18750353Y-5381414*
X-18801203*
X-18684262Y-5415298D02*
X-18650378D01*
X-18667320D02*
Y-5313621D01*
X-18684262D02*
X-18650378D01*
X-11345922Y-6236505D02*
X-11312039Y-6202621D01*
Y-6304298*
X-11345922D02*
X-11278130D01*
X-11228981Y-6287356D02*
Y-6219563D01*
X-11212039Y-6202621*
X-11178130*
X-11161188Y-6219563*
Y-6287356*
X-11178130Y-6304298*
X-11212039*
X-11228981Y-6287356*
X-11161188Y-6219563*
X-10995098Y-6304298D02*
Y-6202621D01*
X-10961214Y-6236505*
X-10927305Y-6202621*
Y-6304298*
X-10878156D02*
Y-6202621D01*
Y-6253447D02*
X-10810363D01*
Y-6202621D02*
Y-6304298D01*
X-10761214Y-6236505D02*
X-10693422D01*
X-10761214Y-6304298*
X-10693422*
X-11345922Y-6482098D02*
Y-6380421D01*
X-11295072*
X-11278130Y-6397363*
Y-6431247*
X-11295072Y-6448214*
X-11345922*
X-11312039D02*
X-11278130Y-6482098D01*
X-11178130D02*
X-11212039D01*
X-11228981Y-6465156*
Y-6431247*
X-11212039Y-6414305*
X-11178130*
X-11161188Y-6431247*
Y-6448214*
X-11228981*
X-11095097Y-6482098D02*
Y-6397363D01*
X-11078156Y-6380421*
Y-6431247D02*
X-11112039D01*
X-11034087D02*
X-10966294D01*
X-10866294Y-6380421D02*
X-10900203D01*
X-10917145Y-6397363*
Y-6465156*
X-10900203Y-6482098*
X-10866294*
X-10849352Y-6465156*
Y-6397363*
X-10866294Y-6380421*
X-10800203Y-6414305D02*
Y-6465156D01*
X-10783262Y-6482098*
X-10732411*
Y-6414305*
X-10666320Y-6397363D02*
Y-6465156D01*
X-10649378Y-6482098*
Y-6414305D02*
X-10683262D01*
X-16980709Y-9733298D02*
X-17082385D01*
Y-9682447*
X-17065444Y-9665505*
X-17048502*
X-17031535Y-9682447*
X-17014593Y-9665505*
X-16997651*
X-16980709Y-9682447*
Y-9733298*
X-17031535D02*
Y-9682447D01*
X-17082385Y-9616356D02*
X-16980709D01*
Y-9548563*
X-16447385Y-9733298D02*
X-16379593D01*
X-16345709Y-9699414*
X-16379593Y-9665505*
X-16447385*
Y-9582472D02*
X-16345709D01*
X-16447385Y-9616356D02*
Y-9548563D01*
X-17717385Y-9733298D02*
X-17615709D01*
Y-9682447*
X-17632651Y-9665505*
X-17700444*
X-17717385Y-9682447*
Y-9733298*
Y-9616356D02*
X-17615709D01*
X-17649593Y-9582472*
X-17615709Y-9548563*
X-17717385*
X-16026076Y-8700356D02*
X-16009108Y-8717298D01*
X-15992167*
X-15975225Y-8700356*
Y-8615621*
X-15992167D02*
X-15958283D01*
X-15875225D02*
Y-8717298D01*
X-15909134Y-8615621D02*
X-15841341D01*
X-15792192Y-8717298D02*
Y-8649505D01*
X-15758283Y-8615621*
X-15724400Y-8649505*
Y-8717298*
Y-8666447D02*
X-15792192D01*
X-15607458Y-8632563D02*
X-15624400Y-8615621D01*
X-15658284*
X-15675251Y-8632563*
Y-8700356*
X-15658284Y-8717298*
X-15624400*
X-15607458Y-8700356*
Y-8666447*
X-15641342*
X-18710983Y-8343283D02*
Y-8428017D01*
X-18694041Y-8444959*
X-18660132*
X-18643190Y-8428017*
Y-8343283*
X-18526248Y-8360224D02*
X-18543216Y-8343283D01*
X-18577099*
X-18594041Y-8360224*
Y-8377166*
X-18577099Y-8394108*
X-18543216*
X-18526248Y-8411050*
Y-8428017*
X-18543216Y-8444959*
X-18577099*
X-18594041Y-8428017*
X-18477099Y-8444959D02*
Y-8343283D01*
X-18426274*
X-18409307Y-8360224*
Y-8377166*
X-18426274Y-8394108*
X-18409307Y-8411050*
Y-8428017*
X-18426274Y-8444959*
X-18477099*
Y-8394108D02*
X-18426274D01*
X-18360158D02*
X-18292365D01*
X-18243216Y-8444959D02*
Y-8343283D01*
X-18192391*
X-18175449Y-8360224*
Y-8377166*
X-18192391Y-8394108*
X-18175449Y-8411050*
Y-8428017*
X-18192391Y-8444959*
X-18243216*
Y-8394108D02*
X-18192391D01*
X-17902145Y-3256298D02*
X-17868236D01*
X-17885203D02*
Y-3154621D01*
X-17902145D02*
X-17868236D01*
X-17756400Y-3256298D02*
X-17824192D01*
X-17756400Y-3188505*
Y-3171563*
X-17773342Y-3154621*
X-17807225*
X-17824192Y-3171563*
X-17639458D02*
X-17656400Y-3154621D01*
X-17690284*
X-17707251Y-3171563*
Y-3239356*
X-17690284Y-3256298*
X-17656400*
X-17639458Y-3239356*
D1056*
X-15063009Y-5212098D02*
Y-4627898D01*
X-18619009D02*
Y-4850148D01*
Y-5212098D02*
Y-4989848D01*
X-18616368Y-4989797*
X-18613726Y-4989644*
X-18611084Y-4989390*
X-18608468Y-4989060*
X-18605877Y-4988603*
X-18603287Y-4988044*
X-18600721Y-4987409*
X-18598181Y-4986673*
X-18595667Y-4985834*
X-18593203Y-4984895*
X-18590764Y-4983879*
X-18588351Y-4982761*
X-18586015Y-4981567*
X-18583703Y-4980272*
X-18581443Y-4978900*
X-18579258Y-4977427*
X-18577099Y-4975878*
X-18575016Y-4974252*
X-18572984Y-4972550*
X-18571029Y-4970772*
X-18569149Y-4968918*
X-18567346Y-4966988*
X-18565593Y-4965006*
X-18563942Y-4962949*
X-18562342Y-4960841*
X-18560843Y-4958656*
X-18559421Y-4956447*
X-18558075Y-4954161*
X-18556830Y-4951824*
X-18555662Y-4949462*
X-18554595Y-4947023*
X-18553630Y-4944585*
X-18552741Y-4942096*
X-18551953Y-4939556*
X-18551267Y-4937016*
X-18550658Y-4934425*
X-18550175Y-4931834*
X-18549769Y-4929218*
X-18549464Y-4926602*
X-18549261Y-4923960*
X-18549159Y-4921318*
Y-4918677*
X-18549261Y-4916035*
X-18549464Y-4913394*
X-18549769Y-4910777*
X-18550175Y-4908161*
X-18550658Y-4905570*
X-18551267Y-4902980*
X-18551953Y-4900440*
X-18552741Y-4897900*
X-18553630Y-4895410*
X-18554595Y-4892972*
X-18555662Y-4890534*
X-18556830Y-4888171*
X-18558075Y-4885835*
X-18559421Y-4883549*
X-18560843Y-4881339*
X-18562342Y-4879154*
X-18563942Y-4877046*
X-18565593Y-4874989*
X-18567346Y-4873008*
X-18569149Y-4871077*
X-18571029Y-4869223*
X-18572984Y-4867445*
X-18575016Y-4865743*
X-18577099Y-4864118*
X-18579258Y-4862568*
X-18581443Y-4861095*
X-18583703Y-4859723*
X-18586015Y-4858428*
X-18588351Y-4857234*
X-18590764Y-4856117*
X-18593203Y-4855101*
X-18595667Y-4854161*
X-18598181Y-4853323*
X-18600721Y-4852586*
X-18603287Y-4851951*
X-18605877Y-4851392*
X-18608468Y-4850935*
X-18611084Y-4850605*
X-18613726Y-4850351*
X-18616368Y-4850198*
X-18619009Y-4850148*
D12*
X-18659802Y-5188857D02*
Y-5226982D01*
Y-5207907D02*
X-18774178D01*
Y-5188857D02*
Y-5226982D01*
X-18755128Y-5072753D02*
X-18774178Y-5091829D01*
Y-5129954*
X-18755128Y-5149029*
X-18678852*
X-18659802Y-5129954*
Y-5091829*
X-18678852Y-5072753*
X-18736052Y-5032088D02*
X-18774178Y-4993937D01*
X-18659802*
Y-4955812D02*
Y-5032088D01*
X-17938619Y-9436321D02*
X-17919544Y-9417245D01*
Y-9398195*
X-17938619Y-9379120*
X-18033946*
Y-9398195D02*
Y-9360045D01*
X-17919544Y-9319379D02*
X-18033946D01*
Y-9262178*
X-18014870Y-9243128*
X-17976745*
X-17957669Y-9262178*
Y-9319379*
X-17995820Y-9202438D02*
X-18033946Y-9164312D01*
X-17919544*
Y-9202438D02*
Y-9126187D01*
X-17298209Y-9447548D02*
X-17279159Y-9428472D01*
Y-9409422*
X-17298209Y-9390347*
X-17393561*
Y-9371297D02*
Y-9409422D01*
X-17279159Y-9330606D02*
X-17393561D01*
Y-9273405*
X-17374485Y-9254355*
X-17336360*
X-17317285Y-9273405*
Y-9330606*
X-17279159Y-9137414D02*
Y-9213664D01*
X-17355410Y-9137414*
X-17374485*
X-17393561Y-9156464*
Y-9194614*
X-17374485Y-9213664*
X-16663209Y-9447548D02*
X-16644159Y-9428472D01*
Y-9409422*
X-16663209Y-9390347*
X-16758561*
Y-9371297D02*
Y-9409422D01*
X-16644159Y-9330606D02*
X-16758561D01*
Y-9273405*
X-16739485Y-9254355*
X-16701360*
X-16682285Y-9273405*
Y-9330606*
X-16739485Y-9213664D02*
X-16758561Y-9194614D01*
Y-9156464*
X-16739485Y-9137414*
X-16720410*
X-16701360Y-9156464*
Y-9175539*
Y-9156464D02*
X-16682285Y-9137414D01*
X-16663209*
X-16644159Y-9156464*
Y-9194614*
X-16663209Y-9213664*
X-14126994Y-4027010D02*
X-14174009Y-3979994D01*
Y-3574001D02*
X-14126994Y-3527011D01*
X-13966999D02*
X-13920009Y-3574001D01*
Y-3979994D02*
X-13966999Y-4027010D01*
X-13872994D02*
X-13920009Y-3979994D01*
Y-3574001*
X-13872994Y-3527011*
X-13712999D02*
X-13666009Y-3574001D01*
Y-3979994D02*
X-13712999Y-4027010D01*
X-13618994D02*
X-13666009Y-3979994D01*
Y-3574001*
X-13618994Y-3527011*
X-13458999D02*
X-13412009Y-3574001D01*
Y-3979994*
X-13458999Y-4027010*
X-14380994D02*
X-14428009Y-3979994D01*
Y-3574001D02*
X-14380994Y-3527011D01*
X-14220999D02*
X-14174009Y-3574001D01*
Y-3979994*
X-14220999Y-4027010*
X-14634994D02*
X-14682009Y-3979994D01*
Y-3574001*
X-14634994Y-3527011*
X-14474999D02*
X-14428009Y-3574001D01*
Y-3979994*
X-14474999Y-4027010*
X-15571009Y-9440994D02*
X-15523994Y-9488010D01*
X-15571009Y-9035001D02*
X-15523994Y-8988011D01*
X-15363999D02*
X-15317009Y-9035001D01*
Y-9440994D02*
X-15363999Y-9488010D01*
X-15269994D02*
X-15317009Y-9440994D01*
Y-9035001*
X-15269994Y-8988011*
X-15109999D02*
X-15063009Y-9035001D01*
Y-9440994D02*
X-15109999Y-9488010D01*
X-15015994D02*
X-15063009Y-9440994D01*
Y-9035001*
X-15015994Y-8988011*
X-14855999D02*
X-14809009Y-9035001D01*
Y-9440994*
X-14855999Y-9488010*
X-15777994D02*
X-15825009Y-9440994D01*
Y-9035001D02*
X-15777994Y-8988011D01*
X-15617999D02*
X-15571009Y-9035001D01*
Y-9440994*
X-15617999Y-9488010*
X-16031994D02*
X-16079009Y-9440994D01*
Y-9035001*
X-16031994Y-8988011*
X-15871999D02*
X-15825009Y-9035001D01*
Y-9440994*
X-15871999Y-9488010*
X-10747930Y-5245295D02*
Y-4501279D01*
X-14890416Y-5236659D02*
Y-5274785D01*
Y-5255735D02*
X-15004818D01*
Y-5274785D02*
Y-5236659D01*
X-14985768Y-5120556D02*
X-15004818Y-5139631D01*
Y-5177757*
X-14985768Y-5196832*
X-14909492*
X-14890416Y-5177757*
Y-5139631*
X-14909492Y-5120556*
X-15004818Y-5003640D02*
X-14985768Y-5041765D01*
X-14947617Y-5079891*
X-14909492*
X-14890416Y-5060815*
Y-5022690*
X-14909492Y-5003640*
X-14928567*
X-14947617Y-5022690*
Y-5079891*
X-17428994Y-4027010D02*
X-17476009Y-3979994D01*
Y-3574001D02*
X-17428994Y-3527011D01*
X-17268999D02*
X-17222009Y-3574001D01*
Y-3979994D02*
X-17268999Y-4027010D01*
X-17222009Y-3979994D02*
Y-3574001D01*
X-17682994Y-4027010D02*
X-17730009Y-3979994D01*
Y-3574001D02*
X-17682994Y-3527011D01*
X-17522999D02*
X-17476009Y-3574001D01*
Y-3979994*
X-17522999Y-4027010*
X-17936994D02*
X-17984009Y-3979994D01*
Y-3574001*
X-17936994Y-3527011*
X-17776999D02*
X-17730009Y-3574001D01*
Y-3979994*
X-17776999Y-4027010*
X-17417996Y-6697998D02*
Y-6951998D01*
Y-7713998D02*
Y-7967998D01*
Y-6697998D02*
X-17671996D01*
Y-7967998D02*
X-17417996D01*
X-18317994Y-6186010D02*
X-18365009Y-6138994D01*
Y-5733001D02*
X-18317994Y-5686011D01*
X-18157999D02*
X-18111009Y-5733001D01*
Y-6138994D02*
X-18157999Y-6186010D01*
X-18111009Y-6138994D02*
Y-5733001D01*
X-18571994Y-6186010D02*
X-18619009Y-6138994D01*
Y-5733001D02*
X-18571994Y-5686011D01*
X-18411999D02*
X-18365009Y-5733001D01*
Y-6138994*
X-18411999Y-6186010*
X-18825994D02*
X-18873009Y-6138994D01*
Y-5733001*
X-18825994Y-5686011*
X-18665999D02*
X-18619009Y-5733001D01*
Y-6138994*
X-18665999Y-6186010*
D1057*
X-16682005Y-8735992D02*
X-16847004D01*
Y-8351004*
X-16712003Y-8216003*
X-16682005*
X-16492013D02*
X-16462016D01*
X-16327015Y-8351004*
Y-8735992*
X-16492013*
X-16683097Y-8701600D02*
X-16688558Y-8699187D01*
X-16693969Y-8696647*
X-16699303Y-8693980*
X-16704560Y-8691186*
X-16709767Y-8688265*
X-16714898Y-8685217*
X-16719953Y-8682042*
X-16724931Y-8678740*
X-16729833Y-8675337*
X-16734634Y-8671806*
X-16739358Y-8668149*
X-16743981Y-8664389*
X-16748528Y-8660503*
X-16752973Y-8656515*
X-16757316Y-8652426*
X-16761558Y-8648235*
X-16765698Y-8643942*
X-16769711Y-8639548*
X-16773648Y-8635052*
X-16777458Y-8630455*
X-16781167Y-8625781*
X-16784748Y-8621006*
X-16788228Y-8616155*
X-16791581Y-8611202*
X-16794807Y-8606198*
X-16797905Y-8601093*
X-16800877Y-8595936*
X-16803747Y-8590679*
X-16806465Y-8585370*
X-16809056Y-8580011*
X-16811545Y-8574575*
X-16813857Y-8569089*
X-16816066Y-8563526*
X-16818124Y-8557938*
X-16820054Y-8552299*
X-16821832Y-8546584*
X-16823483Y-8540869*
X-16825007Y-8535078*
X-16826353Y-8529287*
X-16827598Y-8523445*
X-16828665Y-8517577*
X-16829605Y-8511685*
X-16830417Y-8505766*
X-16831052Y-8499823*
X-16831560Y-8493879*
X-16831941Y-8487936*
X-16832145Y-8481967*
X-16832221Y-8475998*
X-16832145Y-8470029*
X-16831941Y-8464060*
X-16831560Y-8458116*
X-16831052Y-8452172*
X-16830417Y-8446229*
X-16829605Y-8440311*
X-16828665Y-8434418*
X-16827598Y-8428550*
X-16826353Y-8422708*
X-16825007Y-8416917*
X-16823483Y-8411126*
X-16821832Y-8405411*
X-16820054Y-8399696*
X-16818124Y-8394057*
X-16816066Y-8388469*
X-16813857Y-8382907*
X-16811545Y-8377420*
X-16809056Y-8371985*
X-16806465Y-8366625*
X-16803747Y-8361317*
X-16800877Y-8356059*
X-16797905Y-8350903*
X-16794807Y-8345797*
X-16791581Y-8340793*
X-16788228Y-8335840*
X-16784748Y-8330989*
X-16781167Y-8326214*
X-16777458Y-8321540*
X-16773648Y-8316943*
X-16769711Y-8312447*
X-16765698Y-8308053*
X-16761558Y-8303760*
X-16757316Y-8299569*
X-16752973Y-8295480*
X-16748528Y-8291492*
X-16743981Y-8287606*
X-16739358Y-8283847*
X-16734634Y-8280189*
X-16729833Y-8276658*
X-16724931Y-8273255*
X-16719953Y-8269953*
X-16714898Y-8266778*
X-16709767Y-8263730*
X-16704560Y-8260809*
X-16699303Y-8258015*
X-16693969Y-8255348*
X-16688558Y-8252808*
X-16683097Y-8250395*
X-16490921D02*
X-16485460Y-8252808D01*
X-16480050Y-8255348*
X-16474716Y-8258015*
X-16469458Y-8260809*
X-16464251Y-8263730*
X-16459120Y-8266778*
X-16454066Y-8269953*
X-16449087Y-8273255*
X-16444185Y-8276658*
X-16439384Y-8280189*
X-16434660Y-8283847*
X-16430037Y-8287606*
X-16425491Y-8291492*
X-16421046Y-8295480*
X-16416702Y-8299569*
X-16412460Y-8303760*
X-16408320Y-8308053*
X-16404307Y-8312447*
X-16400370Y-8316943*
X-16396560Y-8321540*
X-16392852Y-8326214*
X-16389270Y-8330989*
X-16385790Y-8335840*
X-16382438Y-8340793*
X-16379212Y-8345797*
X-16376113Y-8350903*
X-16373141Y-8356059*
X-16370271Y-8361317*
X-16367553Y-8366625*
X-16364962Y-8371985*
X-16362473Y-8377420*
X-16360162Y-8382907*
X-16357952Y-8388469*
X-16355895Y-8394057*
X-16353964Y-8399696*
X-16352186Y-8405411*
X-16350535Y-8411126*
X-16349011Y-8416917*
X-16347665Y-8422708*
X-16346420Y-8428550*
X-16345354Y-8434418*
X-16344414Y-8440311*
X-16343601Y-8446229*
X-16342966Y-8452172*
X-16342458Y-8458116*
X-16342077Y-8464060*
X-16341874Y-8470029*
X-16341798Y-8475998*
X-16341874Y-8481967*
X-16342077Y-8487936*
X-16342458Y-8493879*
X-16342966Y-8499823*
X-16343601Y-8505766*
X-16344414Y-8511685*
X-16345354Y-8517577*
X-16346420Y-8523445*
X-16347665Y-8529287*
X-16349011Y-8535078*
X-16350535Y-8540869*
X-16352186Y-8546584*
X-16353964Y-8552299*
X-16355895Y-8557938*
X-16357952Y-8563526*
X-16360162Y-8569089*
X-16362473Y-8574575*
X-16364962Y-8580011*
X-16367553Y-8585370*
X-16370271Y-8590679*
X-16373141Y-8595936*
X-16376113Y-8601093*
X-16379212Y-8606198*
X-16382438Y-8611202*
X-16385790Y-8616155*
X-16389270Y-8621006*
X-16392852Y-8625781*
X-16396560Y-8630455*
X-16400370Y-8635052*
X-16404307Y-8639548*
X-16408320Y-8643942*
X-16412460Y-8648235*
X-16416702Y-8652426*
X-16421046Y-8656515*
X-16425491Y-8660503*
X-16430037Y-8664389*
X-16434660Y-8668149*
X-16439384Y-8671806*
X-16444185Y-8675337*
X-16449087Y-8678740*
X-16454066Y-8682042*
X-16459120Y-8685217*
X-16464251Y-8688265*
X-16469458Y-8691186*
X-16474716Y-8693980*
X-16480050Y-8696647*
X-16485460Y-8699187*
X-16490921Y-8701600*
X-13888005Y-4925992D02*
X-14053004D01*
Y-4541004*
X-13918003Y-4406003*
X-13888005*
X-13698013D02*
X-13668016D01*
X-13533015Y-4541004*
Y-4925992*
X-13698013*
X-13889097Y-4891600D02*
X-13894558Y-4889187D01*
X-13899969Y-4886647*
X-13905303Y-4883980*
X-13910560Y-4881186*
X-13915767Y-4878265*
X-13920898Y-4875217*
X-13925953Y-4872042*
X-13930931Y-4868740*
X-13935833Y-4865337*
X-13940634Y-4861806*
X-13945358Y-4858149*
X-13949981Y-4854389*
X-13954528Y-4850503*
X-13958973Y-4846515*
X-13963316Y-4842426*
X-13967558Y-4838235*
X-13971698Y-4833942*
X-13975711Y-4829548*
X-13979648Y-4825052*
X-13983458Y-4820455*
X-13987167Y-4815781*
X-13990748Y-4811006*
X-13994228Y-4806155*
X-13997581Y-4801202*
X-14000807Y-4796198*
X-14003905Y-4791093*
X-14006877Y-4785936*
X-14009747Y-4780679*
X-14012465Y-4775370*
X-14015056Y-4770011*
X-14017545Y-4764575*
X-14019857Y-4759089*
X-14022066Y-4753526*
X-14024124Y-4747938*
X-14026054Y-4742299*
X-14027832Y-4736584*
X-14029483Y-4730869*
X-14031007Y-4725078*
X-14032353Y-4719287*
X-14033598Y-4713445*
X-14034665Y-4707577*
X-14035605Y-4701685*
X-14036417Y-4695766*
X-14037052Y-4689823*
X-14037560Y-4683879*
X-14037941Y-4677936*
X-14038145Y-4671967*
X-14038221Y-4665998*
X-14038145Y-4660029*
X-14037941Y-4654060*
X-14037560Y-4648116*
X-14037052Y-4642172*
X-14036417Y-4636229*
X-14035605Y-4630311*
X-14034665Y-4624418*
X-14033598Y-4618550*
X-14032353Y-4612708*
X-14031007Y-4606917*
X-14029483Y-4601126*
X-14027832Y-4595411*
X-14026054Y-4589696*
X-14024124Y-4584057*
X-14022066Y-4578469*
X-14019857Y-4572907*
X-14017545Y-4567420*
X-14015056Y-4561985*
X-14012465Y-4556625*
X-14009747Y-4551317*
X-14006877Y-4546059*
X-14003905Y-4540903*
X-14000807Y-4535797*
X-13997581Y-4530793*
X-13994228Y-4525840*
X-13990748Y-4520989*
X-13987167Y-4516214*
X-13983458Y-4511540*
X-13979648Y-4506943*
X-13975711Y-4502447*
X-13971698Y-4498053*
X-13967558Y-4493760*
X-13963316Y-4489569*
X-13958973Y-4485480*
X-13954528Y-4481492*
X-13949981Y-4477606*
X-13945358Y-4473847*
X-13940634Y-4470189*
X-13935833Y-4466658*
X-13930931Y-4463255*
X-13925953Y-4459953*
X-13920898Y-4456778*
X-13915767Y-4453730*
X-13910560Y-4450809*
X-13905303Y-4448015*
X-13899969Y-4445348*
X-13894558Y-4442808*
X-13889097Y-4440395*
X-13696921D02*
X-13691460Y-4442808D01*
X-13686050Y-4445348*
X-13680716Y-4448015*
X-13675458Y-4450809*
X-13670251Y-4453730*
X-13665120Y-4456778*
X-13660066Y-4459953*
X-13655087Y-4463255*
X-13650185Y-4466658*
X-13645384Y-4470189*
X-13640660Y-4473847*
X-13636037Y-4477606*
X-13631491Y-4481492*
X-13627046Y-4485480*
X-13622702Y-4489569*
X-13618460Y-4493760*
X-13614320Y-4498053*
X-13610307Y-4502447*
X-13606370Y-4506943*
X-13602560Y-4511540*
X-13598852Y-4516214*
X-13595270Y-4520989*
X-13591790Y-4525840*
X-13588438Y-4530793*
X-13585212Y-4535797*
X-13582113Y-4540903*
X-13579141Y-4546059*
X-13576271Y-4551317*
X-13573553Y-4556625*
X-13570962Y-4561985*
X-13568473Y-4567420*
X-13566162Y-4572907*
X-13563952Y-4578469*
X-13561895Y-4584057*
X-13559964Y-4589696*
X-13558186Y-4595411*
X-13556535Y-4601126*
X-13555011Y-4606917*
X-13553665Y-4612708*
X-13552420Y-4618550*
X-13551354Y-4624418*
X-13550414Y-4630311*
X-13549601Y-4636229*
X-13548966Y-4642172*
X-13548458Y-4648116*
X-13548077Y-4654060*
X-13547874Y-4660029*
X-13547798Y-4665998*
X-13547874Y-4671967*
X-13548077Y-4677936*
X-13548458Y-4683879*
X-13548966Y-4689823*
X-13549601Y-4695766*
X-13550414Y-4701685*
X-13551354Y-4707577*
X-13552420Y-4713445*
X-13553665Y-4719287*
X-13555011Y-4725078*
X-13556535Y-4730869*
X-13558186Y-4736584*
X-13559964Y-4742299*
X-13561895Y-4747938*
X-13563952Y-4753526*
X-13566162Y-4759089*
X-13568473Y-4764575*
X-13570962Y-4770011*
X-13573553Y-4775370*
X-13576271Y-4780679*
X-13579141Y-4785936*
X-13582113Y-4791093*
X-13585212Y-4796198*
X-13588438Y-4801202*
X-13591790Y-4806155*
X-13595270Y-4811006*
X-13598852Y-4815781*
X-13602560Y-4820455*
X-13606370Y-4825052*
X-13610307Y-4829548*
X-13614320Y-4833942*
X-13618460Y-4838235*
X-13622702Y-4842426*
X-13627046Y-4846515*
X-13631491Y-4850503*
X-13636037Y-4854389*
X-13640660Y-4858149*
X-13645384Y-4861806*
X-13650185Y-4865337*
X-13655087Y-4868740*
X-13660066Y-4872042*
X-13665120Y-4875217*
X-13670251Y-4878265*
X-13675458Y-4881186*
X-13680716Y-4883980*
X-13686050Y-4886647*
X-13691460Y-4889187*
X-13696921Y-4891600*
X-16141239Y-7012170D02*
Y-7129112D01*
X-16082768*
X-16063261Y-7109630*
Y-7031652*
X-16082768Y-7012170*
X-16141239*
X-16024298Y-7051159D02*
X-15985309Y-7012170D01*
Y-7129112*
X-16024298D02*
X-15946320D01*
X-16803976Y-7009503D02*
Y-7126445D01*
X-16745505*
X-16725998Y-7106963*
Y-7029010*
X-16745505Y-7009503*
X-16803976*
X-16609056Y-7126445D02*
X-16687034D01*
X-16609056Y-7048492*
Y-7029010*
X-16628564Y-7009503*
X-16667527*
X-16687034Y-7029010*
X-14749954Y-7292662D02*
Y-7409604D01*
X-14672002Y-7390097D02*
Y-7312144D01*
X-14691483Y-7292662*
X-14749954*
X-14555060Y-7331626D02*
Y-7312144D01*
X-14574542Y-7292662*
X-14613531*
X-14633013Y-7312144*
X-14516071Y-7390097D02*
Y-7312144D01*
X-14496589Y-7292662*
X-14457600*
X-14438118Y-7312144*
Y-7390097*
X-14516071D02*
X-14438118Y-7312144D01*
X-14399129Y-7331626D02*
X-14360166Y-7292662D01*
Y-7409604*
X-15385183Y-7290021D02*
Y-7406962D01*
X-15307205Y-7387481D02*
Y-7309503D01*
X-15326712Y-7290021*
X-15385183*
X-15190263Y-7329010D02*
Y-7309503D01*
X-15209770Y-7290021*
X-15248734*
X-15268241Y-7309503*
X-15151300Y-7387481D02*
Y-7309503D01*
X-15131792Y-7290021*
X-15092829*
X-15073347Y-7309503*
Y-7387481*
X-15151300D02*
X-15073347Y-7309503D01*
X-14956405Y-7329010D02*
Y-7309503D01*
X-14975887Y-7290021*
X-15014876*
X-15034358Y-7309503*
X-17907225Y-8255678D02*
X-17926707Y-8275185D01*
X-17985178*
X-17946189D02*
X-17907225Y-8314149D01*
X-17790283Y-8255678D02*
X-17809765Y-8275185D01*
X-17868236*
X-17692824Y-8197207D02*
X-17731813D01*
X-17751294Y-8216714*
Y-8294667*
X-17731813Y-8314149*
X-17692824*
X-17673342Y-8294667*
Y-8216714*
X-17692824Y-8197207*
X-17634353D02*
Y-8314149D01*
X-17556400*
X-17517411Y-8197207D02*
Y-8216714D01*
X-17478448Y-8255678*
X-17439459Y-8216714*
Y-8197207*
X-17478448Y-8255678D02*
Y-8314149D01*
X-17400470Y-8236196D02*
X-17361506Y-8197207D01*
Y-8314149*
X-17400470D02*
X-17322517D01*
X-15224731Y-4088757D02*
X-15341673D01*
Y-4030286*
X-15322191Y-4010805*
X-15283202*
X-15263720Y-4030286*
Y-4088757*
Y-4049794D02*
X-15224731Y-4010805D01*
Y-3971816D02*
X-15341673D01*
Y-3913370*
X-15322191Y-3893863*
X-15283202*
X-15263720Y-3913370*
Y-3971816*
X-15341673Y-3796429D02*
Y-3835392D01*
X-15322191Y-3854899*
X-15244213*
X-15224731Y-3835392*
Y-3796429*
X-15244213Y-3776921*
X-15322191*
X-15341673Y-3796429*
Y-3737958D02*
X-15224731D01*
Y-3659980*
X-15341673Y-3621016D02*
X-15322191D01*
X-15283202Y-3582027*
X-15322191Y-3543038*
X-15341673*
X-15283202Y-3582027D02*
X-15224731D01*
Y-3426097D02*
Y-3504075D01*
X-15302684Y-3426097*
X-15322191*
X-15341673Y-3445604*
Y-3484567*
X-15322191Y-3504075*
X-14575990Y-6548011D02*
X-14575939Y-6545547D01*
X-14575786Y-6543083*
X-14575532Y-6540645*
X-14575177Y-6538206*
X-14574720Y-6535768*
X-14574186Y-6533380*
X-14573526Y-6530993*
X-14572789Y-6528656*
X-14571926Y-6526344*
X-14571011Y-6524058*
X-14569970Y-6521823*
X-14568852Y-6519639*
X-14567633Y-6517480*
X-14566338Y-6515397*
X-14564966Y-6513340*
X-14563493Y-6511358*
X-14561943Y-6509453*
X-14560343Y-6507599*
X-14558641Y-6505796*
X-14556863Y-6504094*
X-14555035Y-6502443*
X-14553130Y-6500894*
X-14551148Y-6499395*
X-14549142Y-6497998*
X-14547059Y-6496677*
X-14544925Y-6495458*
X-14542741Y-6494315*
X-14540506Y-6493248*
X-14538245Y-6492283*
X-14535934Y-6491419*
X-14533597Y-6490657*
X-14531235Y-6489972*
X-14528822Y-6489413*
X-14526409Y-6488930*
X-14523970Y-6488549*
X-14521532Y-6488270*
X-14519068Y-6488092*
X-14516604Y-6488016*
X-14514141Y-6488041*
X-14511677Y-6488168*
X-14509238Y-6488397*
X-14506800Y-6488727*
X-14504362Y-6489159*
X-14501949Y-6489692*
X-14499586Y-6490302*
X-14497224Y-6491038*
X-14494887Y-6491851*
X-14492601Y-6492766*
X-14490366Y-6493756*
X-14488156Y-6494874*
X-14485997Y-6496042*
X-14483889Y-6497338*
X-14481832Y-6498684*
X-14479851Y-6500132*
X-14477895Y-6501656*
X-14476041Y-6503256*
X-14474237Y-6504932*
X-14472510Y-6506685*
X-14470834Y-6508514*
X-14469259Y-6510393*
X-14467760Y-6512349*
X-14466338Y-6514356*
X-14464992Y-6516438*
X-14463722Y-6518547*
X-14462579Y-6520731*
X-14461486Y-6522941*
X-14460496Y-6525201*
X-14459607Y-6527487*
X-14458819Y-6529824*
X-14458134Y-6532186*
X-14457524Y-6534574*
X-14457016Y-6536987*
X-14456610Y-6539425*
X-14456305Y-6541864*
X-14456102Y-6544328*
X-14456000Y-6546791*
Y-6549230*
X-14456102Y-6551694*
X-14456305Y-6554157*
X-14456610Y-6556596*
X-14457016Y-6559034*
X-14457524Y-6561447*
X-14458134Y-6563835*
X-14458819Y-6566197*
X-14459607Y-6568534*
X-14460496Y-6570820*
X-14461486Y-6573080*
X-14462579Y-6575290*
X-14463722Y-6577475*
X-14464992Y-6579583*
X-14466338Y-6581666*
X-14467760Y-6583672*
X-14469259Y-6585628*
X-14470834Y-6587508*
X-14472510Y-6589336*
X-14474237Y-6591089*
X-14476041Y-6592765*
X-14477895Y-6594366*
X-14479851Y-6595890*
X-14481832Y-6597337*
X-14483889Y-6598684*
X-14485997Y-6599979*
X-14488156Y-6601147*
X-14490366Y-6602265*
X-14492601Y-6603256*
X-14494887Y-6604170*
X-14497224Y-6604983*
X-14499586Y-6605719*
X-14501949Y-6606329*
X-14504362Y-6606862*
X-14506800Y-6607294*
X-14509238Y-6607624*
X-14511677Y-6607853*
X-14514141Y-6607980*
X-14516604Y-6608005*
X-14519068Y-6607929*
X-14521532Y-6607751*
X-14523970Y-6607472*
X-14526409Y-6607091*
X-14528822Y-6606608*
X-14531235Y-6606050*
X-14533597Y-6605364*
X-14535934Y-6604602*
X-14538245Y-6603738*
X-14540506Y-6602773*
X-14542741Y-6601706*
X-14544925Y-6600563*
X-14547059Y-6599344*
X-14549142Y-6598023*
X-14551148Y-6596626*
X-14553130Y-6595128*
X-14555035Y-6593578*
X-14556863Y-6591927*
X-14558641Y-6590225*
X-14560343Y-6588422*
X-14561943Y-6586568*
X-14563493Y-6584663*
X-14564966Y-6582682*
X-14566338Y-6580624*
X-14567633Y-6578541*
X-14568852Y-6576382*
X-14569970Y-6574198*
X-14571011Y-6571963*
X-14571926Y-6569677*
X-14572789Y-6567365*
X-14573526Y-6565029*
X-14574186Y-6562641*
X-14574720Y-6560253*
X-14575177Y-6557815*
X-14575532Y-6555377*
X-14575786Y-6552938*
X-14575939Y-6550474*
X-14575990Y-6548011*
X-14739972Y-6395103D02*
Y-6278161D01*
X-14681501*
X-14662019Y-6297668*
Y-6336632*
X-14681501Y-6356139*
X-14739972*
X-14700983D02*
X-14662019Y-6395103D01*
X-14623030Y-6297668D02*
X-14603549Y-6278161D01*
X-14564560*
X-14545078Y-6297668*
Y-6317150*
X-14564560Y-6336632*
X-14584041*
X-14564560D02*
X-14545078Y-6356139D01*
Y-6375621*
X-14564560Y-6395103*
X-14603549*
X-14623030Y-6375621*
X-14506089Y-6317150D02*
X-14467125Y-6278161D01*
Y-6395103*
X-14506089D02*
X-14428136D01*
X-12797990Y-9088011D02*
X-12797939Y-9085547D01*
X-12797786Y-9083083*
X-12797532Y-9080645*
X-12797177Y-9078206*
X-12796720Y-9075768*
X-12796186Y-9073380*
X-12795526Y-9070993*
X-12794789Y-9068656*
X-12793926Y-9066344*
X-12793011Y-9064058*
X-12791970Y-9061823*
X-12790852Y-9059639*
X-12789633Y-9057480*
X-12788338Y-9055397*
X-12786966Y-9053340*
X-12785493Y-9051358*
X-12783943Y-9049453*
X-12782343Y-9047599*
X-12780641Y-9045796*
X-12778863Y-9044094*
X-12777035Y-9042443*
X-12775130Y-9040894*
X-12773148Y-9039395*
X-12771142Y-9037998*
X-12769059Y-9036677*
X-12766925Y-9035458*
X-12764741Y-9034315*
X-12762506Y-9033248*
X-12760245Y-9032283*
X-12757934Y-9031419*
X-12755597Y-9030657*
X-12753235Y-9029972*
X-12750822Y-9029413*
X-12748409Y-9028930*
X-12745970Y-9028549*
X-12743532Y-9028270*
X-12741068Y-9028092*
X-12738604Y-9028016*
X-12736141Y-9028041*
X-12733677Y-9028168*
X-12731238Y-9028397*
X-12728800Y-9028727*
X-12726362Y-9029159*
X-12723949Y-9029692*
X-12721586Y-9030302*
X-12719224Y-9031038*
X-12716887Y-9031851*
X-12714601Y-9032766*
X-12712366Y-9033756*
X-12710156Y-9034874*
X-12707997Y-9036042*
X-12705889Y-9037338*
X-12703832Y-9038684*
X-12701851Y-9040132*
X-12699895Y-9041656*
X-12698041Y-9043256*
X-12696237Y-9044932*
X-12694510Y-9046685*
X-12692834Y-9048514*
X-12691259Y-9050393*
X-12689760Y-9052349*
X-12688338Y-9054356*
X-12686992Y-9056438*
X-12685722Y-9058547*
X-12684579Y-9060731*
X-12683486Y-9062941*
X-12682496Y-9065201*
X-12681607Y-9067487*
X-12680819Y-9069824*
X-12680134Y-9072186*
X-12679524Y-9074574*
X-12679016Y-9076987*
X-12678610Y-9079425*
X-12678305Y-9081864*
X-12678102Y-9084328*
X-12678000Y-9086791*
Y-9089230*
X-12678102Y-9091694*
X-12678305Y-9094157*
X-12678610Y-9096596*
X-12679016Y-9099034*
X-12679524Y-9101447*
X-12680134Y-9103835*
X-12680819Y-9106197*
X-12681607Y-9108534*
X-12682496Y-9110820*
X-12683486Y-9113080*
X-12684579Y-9115290*
X-12685722Y-9117475*
X-12686992Y-9119583*
X-12688338Y-9121666*
X-12689760Y-9123672*
X-12691259Y-9125628*
X-12692834Y-9127508*
X-12694510Y-9129336*
X-12696237Y-9131089*
X-12698041Y-9132765*
X-12699895Y-9134366*
X-12701851Y-9135890*
X-12703832Y-9137337*
X-12705889Y-9138684*
X-12707997Y-9139979*
X-12710156Y-9141147*
X-12712366Y-9142265*
X-12714601Y-9143256*
X-12716887Y-9144170*
X-12719224Y-9144983*
X-12721586Y-9145719*
X-12723949Y-9146329*
X-12726362Y-9146862*
X-12728800Y-9147294*
X-12731238Y-9147624*
X-12733677Y-9147853*
X-12736141Y-9147980*
X-12738604Y-9148005*
X-12741068Y-9147929*
X-12743532Y-9147751*
X-12745970Y-9147472*
X-12748409Y-9147091*
X-12750822Y-9146608*
X-12753235Y-9146050*
X-12755597Y-9145364*
X-12757934Y-9144602*
X-12760245Y-9143738*
X-12762506Y-9142773*
X-12764741Y-9141706*
X-12766925Y-9140563*
X-12769059Y-9139344*
X-12771142Y-9138023*
X-12773148Y-9136626*
X-12775130Y-9135128*
X-12777035Y-9133578*
X-12778863Y-9131927*
X-12780641Y-9130225*
X-12782343Y-9128422*
X-12783943Y-9126568*
X-12785493Y-9124663*
X-12786966Y-9122682*
X-12788338Y-9120624*
X-12789633Y-9118541*
X-12790852Y-9116382*
X-12791970Y-9114198*
X-12793011Y-9111963*
X-12793926Y-9109677*
X-12794789Y-9107365*
X-12795526Y-9105029*
X-12796186Y-9102641*
X-12796720Y-9100253*
X-12797177Y-9097815*
X-12797532Y-9095377*
X-12797786Y-9092938*
X-12797939Y-9090474*
X-12797990Y-9088011*
X-12982749Y-8944704D02*
Y-8827762D01*
X-12924278*
X-12904771Y-8847244*
Y-8886233*
X-12924278Y-8905715*
X-12982749*
X-12943760D02*
X-12904771Y-8944704D01*
X-12865808Y-8827762D02*
X-12787830D01*
Y-8847244*
X-12865808Y-8925222*
Y-8944704*
X-12670913D02*
X-12748866D01*
X-12670913Y-8866751*
Y-8847244*
X-12690395Y-8827762*
X-12729384*
X-12748866Y-8847244*
X-12835404Y-5217000D02*
X-12854886Y-5197518D01*
X-12893875*
X-12913356Y-5217000*
Y-5294952*
X-12893875Y-5314460*
X-12854886*
X-12835404Y-5294952*
X-12796415Y-5236482D02*
X-12757451Y-5197518D01*
Y-5314460*
X-12796415D02*
X-12718462D01*
X-12679473Y-5236482D02*
X-12640510Y-5197518D01*
Y-5314460*
X-12679473D02*
X-12601521D01*
X-12562532Y-5236482D02*
X-12523568Y-5197518D01*
Y-5314460*
X-12562532D02*
X-12484579D01*
X-17227927Y-6899750D02*
X-17344869D01*
Y-6841279*
X-17325387Y-6821797*
X-17286398*
X-17266916Y-6841279*
Y-6899750*
Y-6860761D02*
X-17227927Y-6821797D01*
X-17305905Y-6782808D02*
X-17344869Y-6743845D01*
X-17227927*
Y-6782808D02*
Y-6704856D01*
X-17657289Y-6457485D02*
Y-6340543D01*
X-17598818*
X-17579336Y-6360025*
Y-6399014*
X-17598818Y-6418496*
X-17657289*
X-17618300D02*
X-17579336Y-6457485D01*
X-17462395D02*
X-17540347D01*
X-17462395Y-6379532*
Y-6360025*
X-17481877Y-6340543*
X-17520866*
X-17540347Y-6360025*
X-16204612Y-6890377D02*
X-16321554D01*
Y-6831906*
X-16302072Y-6812399*
X-16263083*
X-16243601Y-6831906*
Y-6890377*
Y-6851388D02*
X-16204612Y-6812399D01*
X-16302072Y-6773436D02*
X-16321554Y-6753928D01*
Y-6714965*
X-16302072Y-6695458*
X-16282590*
X-16263083Y-6714965*
Y-6734447*
Y-6714965D02*
X-16243601Y-6695458D01*
X-16224119*
X-16204612Y-6714965*
Y-6753928*
X-16224119Y-6773436*
X-17206947Y-7101223D02*
Y-6984281D01*
X-17148476*
X-17128994Y-7003763*
Y-7042752*
X-17148476Y-7062234*
X-17206947*
X-17167983D02*
X-17128994Y-7101223D01*
X-17031535D02*
Y-6984281D01*
X-17090005Y-7042752*
X-17012053*
X-15308881Y-8299417D02*
X-15425823D01*
Y-8240946*
X-15406341Y-8221464*
X-15367352*
X-15347870Y-8240946*
Y-8299417*
Y-8260428D02*
X-15308881Y-8221464D01*
X-15406341Y-8182475D02*
X-15425823Y-8162993D01*
Y-8124004*
X-15406341Y-8104523*
X-15386859*
X-15367352Y-8124004*
X-15347870Y-8104523*
X-15328388*
X-15308881Y-8124004*
Y-8162993*
X-15328388Y-8182475*
X-15347870*
X-15367352Y-8162993*
X-15386859Y-8182475*
X-15406341*
X-15367352Y-8162993D02*
Y-8124004D01*
X-15386859Y-8065534D02*
X-15425823Y-8026545D01*
X-15308881*
Y-7987581D02*
Y-8065534D01*
X-15824654Y-6033584D02*
X-15941595D01*
Y-5975114*
X-15922088Y-5955606*
X-15883124*
X-15863617Y-5975114*
Y-6033584*
Y-5994595D02*
X-15824654Y-5955606D01*
X-15902606Y-5916643D02*
X-15941595Y-5877654D01*
X-15824654*
Y-5916643D02*
Y-5838665D01*
X-15922088Y-5799701D02*
X-15941595Y-5780194D01*
Y-5741230*
X-15922088Y-5721749*
X-15902606*
X-15883124Y-5741230*
Y-5760712*
Y-5741230D02*
X-15863617Y-5721749D01*
X-15844135*
X-15824654Y-5741230*
Y-5780194*
X-15844135Y-5799701*
X-17325108Y-5946996D02*
Y-5830054D01*
X-17266637*
X-17247155Y-5849536*
Y-5888525*
X-17266637Y-5908007*
X-17325108*
X-17286144D02*
X-17247155Y-5946996D01*
X-17149721D02*
Y-5830054D01*
X-17208192Y-5888525*
X-17130214*
X-17091250Y-5869043D02*
X-17052261Y-5830054D01*
Y-5946996*
X-17091250D02*
X-17013272D01*
X-12888795Y-7348517D02*
Y-7231575D01*
X-12830324*
X-12810842Y-7251083*
Y-7290046*
X-12830324Y-7309553*
X-12888795*
X-12849831D02*
X-12810842Y-7348517D01*
X-12693900Y-7231575D02*
X-12732889Y-7251083D01*
X-12771853Y-7290046*
Y-7329035*
X-12752371Y-7348517*
X-12713382*
X-12693900Y-7329035*
Y-7309553*
X-12713382Y-7290046*
X-12771853*
X-12654911Y-7270564D02*
X-12615948Y-7231575D01*
Y-7348517*
X-12587220Y-6787329D02*
Y-6670388D01*
X-12528750*
X-12509268Y-6689870*
Y-6728859*
X-12528750Y-6748340*
X-12587220*
X-12548231D02*
X-12509268Y-6787329D01*
X-12392326Y-6670388D02*
X-12470279D01*
Y-6728859*
X-12431290Y-6709351*
X-12411808*
X-12392326Y-6728859*
Y-6767822*
X-12411808Y-6787329*
X-12450797*
X-12470279Y-6767822*
X-12353337Y-6709351D02*
X-12314374Y-6670388D01*
Y-6787329*
X-12353337D02*
X-12275385D01*
X-17108370Y-4137932D02*
X-17225311D01*
Y-4079461*
X-17205829Y-4059954*
X-17166840*
X-17147359Y-4079461*
Y-4137932*
Y-4098943D02*
X-17108370Y-4059954D01*
X-17225311Y-3943012D02*
Y-4020990D01*
X-17166840*
X-17186322Y-3982001*
Y-3962519*
X-17166840Y-3943012*
X-17127851*
X-17108370Y-3962519*
Y-4001483*
X-17127851Y-4020990*
X-17108370Y-3826096D02*
Y-3904048D01*
X-17186322Y-3826096*
X-17205829*
X-17225311Y-3845578*
Y-3884567*
X-17205829Y-3904048*
X-15567174Y-4226222D02*
X-15684115D01*
Y-4167751*
X-15664608Y-4148269*
X-15625645*
X-15606137Y-4167751*
Y-4226222*
Y-4187233D02*
X-15567174Y-4148269D01*
Y-4031328D02*
Y-4109280D01*
X-15645126Y-4031328*
X-15664608*
X-15684115Y-4050810*
Y-4089799*
X-15664608Y-4109280*
X-15645126Y-3992339D02*
X-15684115Y-3953350D01*
X-15567174*
Y-3914386D02*
Y-3992339D01*
X-15935550Y-3841895D02*
X-16052492D01*
Y-3783424*
X-16033010Y-3763942*
X-15994021*
X-15974539Y-3783424*
Y-3841895*
Y-3802931D02*
X-15935550Y-3763942D01*
Y-3647000D02*
Y-3724953D01*
X-16013528Y-3647000*
X-16033010*
X-16052492Y-3666482*
Y-3705471*
X-16033010Y-3724953*
X-15935550Y-3530059D02*
Y-3608011D01*
X-16013528Y-3530059*
X-16033010*
X-16052492Y-3549566*
Y-3588530*
X-16033010Y-3608011*
X-16555970Y-4026095D02*
Y-3909154D01*
X-16497500*
X-16478018Y-3928636*
Y-3967625*
X-16497500Y-3987106*
X-16555970*
X-16516981D02*
X-16478018Y-4026095D01*
X-16361076D02*
X-16439029D01*
X-16361076Y-3948117*
Y-3928636*
X-16380558Y-3909154*
X-16419547*
X-16439029Y-3928636*
X-16322087D02*
X-16302605Y-3909154D01*
X-16263616*
X-16244135Y-3928636*
Y-3948117*
X-16263616Y-3967625*
X-16283124*
X-16263616D02*
X-16244135Y-3987106D01*
Y-4006588*
X-16263616Y-4026095*
X-16302605*
X-16322087Y-4006588*
X-15858613Y-7797335D02*
X-15854473Y-7799672D01*
X-15850409Y-7802085*
X-15846421Y-7804599*
X-15842484Y-7807216*
X-15838598Y-7809933*
X-15834788Y-7812753*
X-15831054Y-7815648*
X-15827371Y-7818620*
X-15823790Y-7821694*
X-15820259Y-7824869*
X-15816830Y-7828094*
X-15813452Y-7831422*
X-15810176Y-7834851*
X-15806975Y-7838331*
X-15803876Y-7841887*
X-15800854Y-7845544*
X-15797907Y-7849253*
X-15795088Y-7853037*
X-15792319Y-7856873*
X-15789678Y-7860784*
X-15787112Y-7864772*
X-15784649Y-7868811*
X-15782286Y-7872900*
X-15780026Y-7877066*
X-15777867Y-7881282*
X-15775809Y-7885524*
X-15773854Y-7889842*
X-15771999Y-7894211*
X-15770272Y-7898605*
X-15768647Y-7903050*
X-15767123Y-7907520*
X-15765700Y-7912041*
X-15764379Y-7916588*
X-15763186Y-7921160*
X-15762119Y-7925757*
X-15761128Y-7930380*
X-15760290Y-7935054*
X-15759528Y-7939702*
X-15758918Y-7944401*
X-15758385Y-7949100*
X-15757979Y-7953824*
X-15757699Y-7958549*
X-15757521Y-7963273*
X-15757471Y-7967998*
X-15757521Y-7972722*
X-15757699Y-7977446*
X-15757979Y-7982171*
X-15758385Y-7986895*
X-15758918Y-7991594*
X-15759528Y-7996293*
X-15760290Y-8000941*
X-15761128Y-8005615*
X-15762119Y-8010238*
X-15763186Y-8014835*
X-15764379Y-8019407*
X-15765700Y-8023954*
X-15767123Y-8028475*
X-15768647Y-8032945*
X-15770272Y-8037390*
X-15771999Y-8041785*
X-15773854Y-8046153*
X-15775809Y-8050471*
X-15777867Y-8054713*
X-15780026Y-8058930*
X-15782286Y-8063095*
X-15784649Y-8067185*
X-15787112Y-8071223*
X-15789678Y-8075211*
X-15792319Y-8079123*
X-15795088Y-8082958*
X-15797907Y-8086743*
X-15800854Y-8090451*
X-15803876Y-8094109*
X-15806975Y-8097665*
X-15810176Y-8101144*
X-15813452Y-8104573*
X-15816830Y-8107901*
X-15820259Y-8111127*
X-15823790Y-8114302*
X-15827371Y-8117375*
X-15831054Y-8120347*
X-15834788Y-8123242*
X-15838598Y-8126062*
X-15842484Y-8128780*
X-15846421Y-8131396*
X-15850409Y-8133910*
X-15854473Y-8136323*
X-15858613Y-8138660*
X-16045405D02*
X-16049545Y-8136323D01*
X-16053609Y-8133910*
X-16057597Y-8131396*
X-16061534Y-8128780*
X-16065420Y-8126062*
X-16069230Y-8123242*
X-16072964Y-8120347*
X-16076647Y-8117375*
X-16080228Y-8114302*
X-16083759Y-8111127*
X-16087188Y-8107901*
X-16090566Y-8104573*
X-16093843Y-8101144*
X-16097043Y-8097665*
X-16100142Y-8094109*
X-16103165Y-8090451*
X-16106111Y-8086743*
X-16108930Y-8082958*
X-16111699Y-8079123*
X-16114341Y-8075211*
X-16116906Y-8071223*
X-16119370Y-8067185*
X-16121732Y-8063095*
X-16123993Y-8058930*
X-16126152Y-8054713*
X-16128209Y-8050471*
X-16130165Y-8046153*
X-16132019Y-8041785*
X-16133746Y-8037390*
X-16135372Y-8032945*
X-16136896Y-8028475*
X-16138318Y-8023954*
X-16139639Y-8019407*
X-16140833Y-8014835*
X-16141900Y-8010238*
X-16142890Y-8005615*
X-16143728Y-8000941*
X-16144490Y-7996293*
X-16145100Y-7991594*
X-16145633Y-7986895*
X-16146040Y-7982171*
X-16146319Y-7977446*
X-16146497Y-7972722*
X-16146548Y-7967998*
X-16146497Y-7963273*
X-16146319Y-7958549*
X-16146040Y-7953824*
X-16145633Y-7949100*
X-16145100Y-7944401*
X-16144490Y-7939702*
X-16143728Y-7935054*
X-16142890Y-7930380*
X-16141900Y-7925757*
X-16140833Y-7921160*
X-16139639Y-7916588*
X-16138318Y-7912041*
X-16136896Y-7907520*
X-16135372Y-7903050*
X-16133746Y-7898605*
X-16132019Y-7894211*
X-16130165Y-7889842*
X-16128209Y-7885524*
X-16126152Y-7881282*
X-16123993Y-7877066*
X-16121732Y-7872900*
X-16119370Y-7868811*
X-16116906Y-7864772*
X-16114341Y-7860784*
X-16111699Y-7856873*
X-16108930Y-7853037*
X-16106111Y-7849253*
X-16103165Y-7845544*
X-16100142Y-7841887*
X-16097043Y-7838331*
X-16093843Y-7834851*
X-16090566Y-7831422*
X-16087188Y-7828094*
X-16083759Y-7824869*
X-16080228Y-7821694*
X-16076647Y-7818620*
X-16072964Y-7815648*
X-16069230Y-7812753*
X-16065420Y-7809933*
X-16061534Y-7807216*
X-16057597Y-7804599*
X-16053609Y-7802085*
X-16049545Y-7799672*
X-16045405Y-7797335*
X-15742002Y-7757990D02*
Y-8067997D01*
X-15852009Y-8178005*
X-16052009D02*
X-16161991Y-8067997D01*
Y-7757990*
X-14417900Y-5807270D02*
Y-5690329D01*
X-14359429*
X-14339922Y-5709811*
Y-5748800*
X-14359429Y-5768281*
X-14417900*
X-14378911D02*
X-14339922Y-5807270D01*
X-14222980D02*
X-14300958D01*
X-14222980Y-5729318*
Y-5709811*
X-14242488Y-5690329*
X-14281451*
X-14300958Y-5709811*
X-14184017Y-5729318D02*
X-14145028Y-5690329D01*
Y-5807270*
X-14106064D02*
X-14184017D01*
X-14067075Y-5729318D02*
X-14028086Y-5690329D01*
Y-5807270*
X-13989123D02*
X-14067075D01*
X-14295751Y-5508490D02*
X-14412668D01*
Y-5450019*
X-14393186Y-5430538*
X-14354197*
X-14334715Y-5450019*
Y-5508490*
Y-5469527D02*
X-14295751Y-5430538D01*
Y-5313596D02*
Y-5391549D01*
X-14373704Y-5313596*
X-14393186*
X-14412668Y-5333078*
Y-5372067*
X-14393186Y-5391549*
X-14373704Y-5274607D02*
X-14412668Y-5235643D01*
X-14295751*
Y-5274607D02*
Y-5196654D01*
Y-5079713D02*
Y-5157665D01*
X-14373704Y-5079713*
X-14393186*
X-14412668Y-5099220*
Y-5138184*
X-14393186Y-5157665*
X-15180383Y-4048854D02*
Y-3931912D01*
X-15121912*
X-15102405Y-3951394*
Y-3990383*
X-15121912Y-4009865*
X-15180383*
X-15141394D02*
X-15102405Y-4048854D01*
X-14985463D02*
X-15063441D01*
X-14985463Y-3970901*
Y-3951394*
X-15004970Y-3931912*
X-15043934*
X-15063441Y-3951394*
X-14946499Y-3970901D02*
X-14907510Y-3931912D01*
Y-4048854*
X-14946499D02*
X-14868521D01*
X-14829558Y-3951394D02*
X-14810076Y-3931912D01*
X-14771087*
X-14751605Y-3951394*
Y-3970901*
X-14771087Y-3990383*
X-14790569*
X-14771087D02*
X-14751605Y-4009865D01*
Y-4029372*
X-14771087Y-4048854*
X-14810076*
X-14829558Y-4029372*
X-13997225Y-5097823D02*
Y-5214765D01*
X-13938754*
X-13919273Y-5195283*
Y-5117305*
X-13938754Y-5097823*
X-13997225*
X-13802331Y-5214765D02*
X-13880284D01*
X-13802331Y-5136812*
Y-5117305*
X-13821813Y-5097823*
X-13860802*
X-13880284Y-5117305*
X-13763342Y-5136812D02*
X-13724378Y-5097823D01*
Y-5214765*
X-13763342D02*
X-13685389D01*
X-13646400Y-5136812D02*
X-13607437Y-5097823D01*
Y-5214765*
X-13646400D02*
X-13568448D01*
X-15249039Y-5658985D02*
X-15268521Y-5639503D01*
X-15307510*
X-15326991Y-5658985*
Y-5736963*
X-15307510Y-5756445*
X-15268521*
X-15249039Y-5736963*
X-15132097Y-5756445D02*
X-15210050D01*
X-15132097Y-5678492*
Y-5658985*
X-15151579Y-5639503*
X-15190568*
X-15210050Y-5658985*
X-15093108Y-5678492D02*
X-15054119Y-5639503D01*
Y-5756445*
X-15015156D02*
X-15093108D01*
X-14898214D02*
X-14976167D01*
X-14898214Y-5678492*
Y-5658985*
X-14917696Y-5639503*
X-14956685*
X-14976167Y-5658985*
X-15251299Y-6559085D02*
X-15270807Y-6539578D01*
X-15309770*
X-15329277Y-6559085*
Y-6637038*
X-15309770Y-6656519*
X-15270807*
X-15251299Y-6637038*
X-15134383Y-6656519D02*
X-15212336D01*
X-15134383Y-6578567*
Y-6559085*
X-15153865Y-6539578*
X-15192854*
X-15212336Y-6559085*
X-15095394Y-6578567D02*
X-15056405Y-6539578D01*
Y-6656519*
X-15017442D02*
X-15095394D01*
X-14978453Y-6559085D02*
X-14958971Y-6539578D01*
X-14919982*
X-14900500Y-6559085*
Y-6578567*
X-14919982Y-6598049*
X-14939464*
X-14919982D02*
X-14900500Y-6617556D01*
Y-6637038*
X-14919982Y-6656519*
X-14958971*
X-14978453Y-6637038*
X-12590395Y-7840515D02*
Y-7723573D01*
X-12531925*
X-12512443Y-7743081*
Y-7782044*
X-12531925Y-7801551*
X-12590395*
X-12551432D02*
X-12512443Y-7840515D01*
X-12395501D02*
X-12473454D01*
X-12395501Y-7762562*
Y-7743081*
X-12414983Y-7723573*
X-12453972*
X-12473454Y-7743081*
X-12278560Y-7723573D02*
X-12356512D01*
Y-7782044*
X-12317549Y-7762562*
X-12298041*
X-12278560Y-7782044*
Y-7821033*
X-12298041Y-7840515*
X-12337030*
X-12356512Y-7821033*
X-16671820Y-5809810D02*
X-16710809D01*
X-16691327D02*
Y-5692869D01*
X-16710809D02*
X-16671820D01*
X-16554878Y-5712351D02*
X-16574385Y-5692869D01*
X-16613349*
X-16632856Y-5712351*
Y-5790329*
X-16613349Y-5809810*
X-16574385*
X-16554878Y-5790329*
X-16457444Y-5809810D02*
Y-5692869D01*
X-16515915Y-5751340*
X-16437937*
X-11007721Y-6706888D02*
X-11027229Y-6687380D01*
X-11066192*
X-11085699Y-6706888*
Y-6784840*
X-11066192Y-6804322*
X-11027229*
X-11007721Y-6784840*
X-10910287Y-6687380D02*
X-10949251D01*
X-10968758Y-6706888*
Y-6784840*
X-10949251Y-6804322*
X-10910287*
X-10890780Y-6784840*
Y-6706888*
X-10910287Y-6687380*
X-10851816Y-6804322D02*
Y-6687380D01*
X-10773838Y-6804322*
Y-6687380*
X-10734875Y-6706888D02*
X-10715367Y-6687380D01*
X-10676404*
X-10656897Y-6706888*
Y-6726369*
X-10676404Y-6745851*
X-10695886*
X-10676404D02*
X-10656897Y-6765358D01*
Y-6784840*
X-10676404Y-6804322*
X-10715367*
X-10734875Y-6784840*
X-18868869Y-6567442D02*
X-18888351Y-6547934D01*
X-18927340*
X-18946822Y-6567442*
Y-6645394*
X-18927340Y-6664876*
X-18888351*
X-18868869Y-6645394*
X-18771409Y-6547934D02*
X-18810398D01*
X-18829880Y-6567442*
Y-6645394*
X-18810398Y-6664876*
X-18771409*
X-18751927Y-6645394*
Y-6567442*
X-18771409Y-6547934*
X-18712938Y-6664876D02*
Y-6547934D01*
X-18634986Y-6664876*
Y-6547934*
X-18595997Y-6586923D02*
X-18557033Y-6547934D01*
Y-6664876*
X-18595997D02*
X-18518044D01*
X-16611622Y-8025910D02*
X-16627294Y-8010238D01*
X-16658637*
X-16674309Y-8025910*
Y-8088622*
X-16658637Y-8104294*
X-16627294*
X-16611622Y-8088622*
X-16580761Y-8041607D02*
X-16549417Y-8010238D01*
Y-8104294*
X-16580761D02*
X-16518074D01*
X-13800553Y-4232851D02*
X-13816225Y-4217180D01*
X-13847594*
X-13863266Y-4232851*
Y-4295564*
X-13769717Y-4232851D02*
X-13754046Y-4217180D01*
X-13722677*
X-13707005Y-4232851*
Y-4248523*
X-13722677Y-4264195*
X-13707005Y-4279892*
Y-4295564*
X-13769717D02*
Y-4279892D01*
X-13754046Y-4264195*
X-13769717Y-4248523*
Y-4232851*
X-13754046Y-4264195D02*
X-13722677D01*
X-13676169Y-4248523D02*
X-13644800Y-4217180D01*
Y-4311236*
X-13613457D02*
X-13676169D01*
X-12066774Y-4113497D02*
X-11993038D01*
Y-4150352*
X-12005332Y-4162646*
X-12029894*
X-12042187Y-4150352*
Y-4113497*
Y-4138059D02*
X-12066774Y-4162646D01*
Y-4237474D02*
X-11993038Y-4188325D01*
Y-4237474D02*
X-12066774Y-4188325D01*
Y-4263179D02*
X-11993038D01*
X-12017625Y-4287741*
X-11993038Y-4312328*
X-12066774*
X-12029894Y-4338007D02*
Y-4387156D01*
X-12005332Y-4462010D02*
X-11993038Y-4449717D01*
Y-4425155*
X-12005332Y-4412861*
X-12054481*
X-12066774Y-4425155*
Y-4449717*
X-12054481Y-4462010*
X-12029894*
Y-4437423*
X-12066774Y-4487690D02*
X-11993038D01*
X-12066774Y-4536839*
X-11993038*
X-12005332Y-4611692D02*
X-11993038Y-4599399D01*
Y-4574837*
X-12005332Y-4562543*
X-12017625*
X-12029894Y-4574837*
Y-4599399*
X-12042187Y-4611692*
X-12054481*
X-12066774Y-4599399*
Y-4574837*
X-12054481Y-4562543*
X-12005332Y-4686521D02*
X-11993038Y-4674253D01*
Y-4649665*
X-12005332Y-4637372*
X-12017625*
X-12029894Y-4649665*
Y-4674253*
X-12042187Y-4686521*
X-12054481*
X-12066774Y-4674253*
Y-4649665*
X-12054481Y-4637372*
X-12029894Y-4712226D02*
Y-4761375D01*
X-11993038Y-4811641D02*
X-12066774D01*
X-11993038Y-4836203D02*
Y-4787054D01*
X-12066774Y-4861908D02*
X-11993038D01*
X-12017625Y-4886470*
X-11993038Y-4911057*
X-12066774*
X-12138250Y-3996657D02*
X-12169594D01*
X-12153922D02*
Y-3902601D01*
X-12169594D02*
X-12138250D01*
X-12044524Y-3918272D02*
X-12060196Y-3902601D01*
X-12091539*
X-12107237Y-3918272*
Y-3980985*
X-12091539Y-3996657*
X-12060196*
X-12044524Y-3980985*
X-12013663Y-3933944D02*
X-11982319Y-3902601D01*
Y-3996657*
X-12013663D02*
X-11950976D01*
X-11920115Y-3933944D02*
X-11888771Y-3902601D01*
Y-3996657*
X-11920115D02*
X-11857402D01*
X-11142773Y-4442884D02*
X-11048717D01*
Y-4380171*
Y-4349336D02*
X-11142773D01*
Y-4286623*
X-11095758Y-4317967D02*
Y-4349336D01*
X-11048717Y-4255762D02*
X-11142773D01*
Y-4208747*
X-11127101Y-4193075*
X-11095758*
X-11080086Y-4208747*
Y-4255762*
X-11111430Y-4162214D02*
X-11142773Y-4130870D01*
X-11048717*
Y-4162214D02*
Y-4099501D01*
X-11111430Y-4068666D02*
X-11142773Y-4037322D01*
X-11048717*
Y-4068666D02*
Y-4005953D01*
X-11111430Y-3975118D02*
X-11142773Y-3943774D01*
X-11048717*
Y-3975118D02*
Y-3912405D01*
X-15989855Y-7583162D02*
X-16005552Y-7567490D01*
X-16036896*
X-16052568Y-7583162*
Y-7645875*
X-16036896Y-7661547*
X-16005552*
X-15989855Y-7645875*
X-15896307Y-7661547D02*
X-15959020D01*
X-15896307Y-7598834*
Y-7583162*
X-15911979Y-7567490*
X-15943348*
X-15959020Y-7583162*
X-15802759Y-7661547D02*
X-15865471D01*
X-15802759Y-7598834*
Y-7583162*
X-15818431Y-7567490*
X-15849800*
X-15865471Y-7583162*
X-10699772Y-4389417D02*
X-10715444Y-4373720D01*
X-10746813*
X-10762484Y-4389417*
Y-4452104*
X-10746813Y-4467801*
X-10715444*
X-10699772Y-4452104*
X-10621895Y-4373720D02*
X-10653264D01*
X-10668936Y-4389417*
Y-4452104*
X-10653264Y-4467801*
X-10621895*
X-10606224Y-4452104*
Y-4389417*
X-10621895Y-4373720*
X-10575388Y-4467801D02*
Y-4373720D01*
X-10512675Y-4467801*
Y-4373720*
X-10481840Y-4405089D02*
X-10450471Y-4373720D01*
Y-4467801*
X-10419127D02*
X-10481840D01*
X-10388266Y-4405089D02*
X-10356923Y-4373720D01*
Y-4467801*
X-10388266D02*
X-10325579D01*
X-14842893Y-5303893D02*
X-14922547Y-5383548D01*
X-14842893D02*
X-14922547Y-5303893D01*
X-14882720D02*
Y-5383548D01*
X-14842893Y-5343720D02*
X-14922547D01*
D1059*
X-12520926Y-4043596D02*
X-11551535D01*
Y-5049512D02*
X-12520926D01*
X-12391107Y-4112227D02*
X-12391056Y-4110627D01*
X-12390904Y-4109052*
X-12390650Y-4107477*
X-12390320Y-4105902*
X-12389862Y-4104378*
X-12389329Y-4102880*
X-12388694Y-4101406*
X-12387957Y-4099984*
X-12387145Y-4098612*
X-12386256Y-4097292*
X-12385290Y-4096047*
X-12384224Y-4094828*
X-12383106Y-4093710*
X-12381887Y-4092643*
X-12380642Y-4091678*
X-12379321Y-4090789*
X-12377950Y-4089976*
X-12376527Y-4089240*
X-12375054Y-4088605*
X-12373556Y-4088071*
X-12372032Y-4087614*
X-12370457Y-4087284*
X-12368882Y-4087030*
X-12367307Y-4086878*
X-12365707Y-4086827*
X-12364107Y-4086878*
X-12362532Y-4087030*
X-12360957Y-4087284*
X-12359382Y-4087614*
X-12357858Y-4088071*
X-12356360Y-4088605*
X-12354887Y-4089240*
X-12353464Y-4089976*
X-12352093Y-4090789*
X-12350772Y-4091678*
X-12349527Y-4092643*
X-12348308Y-4093710*
X-12347190Y-4094828*
X-12346124Y-4096047*
X-12345158Y-4097292*
X-12344269Y-4098612*
X-12343457Y-4099984*
X-12342720Y-4101406*
X-12342085Y-4102880*
X-12341552Y-4104378*
X-12341094Y-4105902*
X-12340764Y-4107477*
X-12340510Y-4109052*
X-12340358Y-4110627*
X-12340307Y-4112227*
X-12340358Y-4113827*
X-12340510Y-4115402*
X-12340764Y-4116977*
X-12341094Y-4118551*
X-12341552Y-4120075*
X-12342085Y-4121574*
X-12342720Y-4123047*
X-12343457Y-4124470*
X-12344269Y-4125841*
X-12345158Y-4127162*
X-12346124Y-4128407*
X-12347190Y-4129626*
X-12348308Y-4130743*
X-12349527Y-4131810*
X-12350772Y-4132775*
X-12352093Y-4133664*
X-12353464Y-4134477*
X-12354887Y-4135214*
X-12356360Y-4135849*
X-12357858Y-4136382*
X-12359382Y-4136839*
X-12360957Y-4137170*
X-12362532Y-4137424*
X-12364107Y-4137576*
X-12365707Y-4137627*
X-12367307Y-4137576*
X-12368882Y-4137424*
X-12370457Y-4137170*
X-12372032Y-4136839*
X-12373556Y-4136382*
X-12375054Y-4135849*
X-12376527Y-4135214*
X-12377950Y-4134477*
X-12379321Y-4133664*
X-12380642Y-4132775*
X-12381887Y-4131810*
X-12383106Y-4130743*
X-12384224Y-4129626*
X-12385290Y-4128407*
X-12386256Y-4127162*
X-12387145Y-4125841*
X-12387957Y-4124470*
X-12388694Y-4123047*
X-12389329Y-4121574*
X-12389862Y-4120075*
X-12390320Y-4118551*
X-12390650Y-4116977*
X-12390904Y-4115402*
X-12391056Y-4113827*
X-12391107Y-4112227*
X-12373276Y-4114564D02*
X-12373225Y-4113598D01*
X-12373073Y-4112608*
X-12372819Y-4111668*
X-12372489Y-4110754*
X-12372032Y-4109890*
X-12371524Y-4109052*
X-12370914Y-4108290*
X-12370228Y-4107604*
X-12369466Y-4106969*
X-12368679Y-4106410*
X-12367815Y-4105953*
X-12366901Y-4105597*
X-12365961Y-4105318*
X-12364996Y-4105140*
X-12364031Y-4105064*
X-12363040Y-4105089*
X-12362075Y-4105216*
X-12361110Y-4105445*
X-12360195Y-4105775*
X-12359306Y-4106182*
X-12358468Y-4106690*
X-12357681Y-4107274*
X-12356969Y-4107934*
X-12356334Y-4108671*
X-12355750Y-4109458*
X-12355268Y-4110322*
X-12354887Y-4111211*
X-12354582Y-4112151*
X-12354379Y-4113090*
X-12354277Y-4114081*
Y-4115046*
X-12354379Y-4116037*
X-12354582Y-4116977*
X-12354887Y-4117916*
X-12355268Y-4118805*
X-12355750Y-4119669*
X-12356334Y-4120456*
X-12356969Y-4121193*
X-12357681Y-4121853*
X-12358468Y-4122438*
X-12359306Y-4122946*
X-12360195Y-4123352*
X-12361110Y-4123682*
X-12362075Y-4123911*
X-12363040Y-4124038*
X-12364031Y-4124063*
X-12364996Y-4123987*
X-12365961Y-4123809*
X-12366901Y-4123530*
X-12367815Y-4123174*
X-12368679Y-4122717*
X-12369466Y-4122158*
X-12370228Y-4121523*
X-12370914Y-4120837*
X-12371524Y-4120075*
X-12372032Y-4119237*
X-12372489Y-4118374*
X-12372819Y-4117459*
X-12373073Y-4116519*
X-12373225Y-4115529*
X-12373276Y-4114564*
X-11089992Y-7820500D02*
Y-7438001D01*
Y-7238002*
Y-6855503*
Y-7438001D02*
X-11170002D01*
Y-7238002D02*
X-11089992D01*
D1060*
X-17882409Y-9047498D02*
Y-9428498D01*
X-17603009Y-9453898D02*
X-17601485Y-9453847D01*
X-17599936Y-9453720*
X-17577787Y-9431571D02*
X-17577660Y-9430022D01*
X-17577609Y-9428498*
Y-9047498D02*
X-17577660Y-9045974D01*
X-17577787Y-9044424*
X-17599936Y-9022275D02*
X-17601485Y-9022148D01*
X-17603009Y-9022098*
X-17857009D02*
X-17858533Y-9022148D01*
X-17860083Y-9022275*
X-17882231Y-9044424D02*
X-17882358Y-9045974D01*
X-17882409Y-9047498*
Y-9428498D02*
X-17882358Y-9430022D01*
X-17882231Y-9431571*
X-17860083Y-9453720D02*
X-17858533Y-9453847D01*
X-17857009Y-9453898*
X-17603009*
Y-9022098D02*
X-17857009D01*
X-17577609Y-9047498D02*
Y-9428498D01*
X-16942609D02*
Y-9047498D01*
X-17222009Y-9022098D02*
X-17223533Y-9022148D01*
X-17225083Y-9022275*
X-17247231Y-9044424D02*
X-17247358Y-9045974D01*
X-17247409Y-9047498*
Y-9428498D02*
X-17247358Y-9430022D01*
X-17247231Y-9431571*
X-17225083Y-9453720D02*
X-17223533Y-9453847D01*
X-17222009Y-9453898*
X-16968009D02*
X-16966485Y-9453847D01*
X-16964936Y-9453720*
X-16942787Y-9431571D02*
X-16942660Y-9430022D01*
X-16942609Y-9428498*
Y-9047498D02*
X-16942660Y-9045974D01*
X-16942787Y-9044424*
X-16964936Y-9022275D02*
X-16966485Y-9022148D01*
X-16968009Y-9022098*
X-17222009*
Y-9453898D02*
X-16968009D01*
X-17247409Y-9428498D02*
Y-9047498D01*
X-16307609D02*
Y-9428498D01*
X-16612409Y-9047498D02*
X-16612358Y-9045974D01*
X-16612231Y-9044424*
X-16590083Y-9022275D02*
X-16588533Y-9022148D01*
X-16587009Y-9022098*
X-16612409Y-9428498D02*
X-16612358Y-9430022D01*
X-16612231Y-9431571*
X-16590083Y-9453720D02*
X-16588533Y-9453847D01*
X-16587009Y-9453898*
X-16333009D02*
X-16331485Y-9453847D01*
X-16329936Y-9453720*
X-16307787Y-9431571D02*
X-16307660Y-9430022D01*
X-16307609Y-9428498*
Y-9047498D02*
X-16307660Y-9045974D01*
X-16307787Y-9044424*
X-16329936Y-9022275D02*
X-16331485Y-9022148D01*
X-16333009Y-9022098*
X-16587009*
Y-9453898D02*
X-16333009D01*
X-16612409Y-9428498D02*
Y-9047498D01*
X-11730783Y-4107731D02*
X-11893470D01*
Y-4216189*
X-11785012Y-4271434D02*
Y-4298561D01*
X-11893470*
Y-4271434D02*
Y-4325688D01*
X-11730783Y-4298561D02*
X-11703656D01*
X-11893470Y-4380578D02*
X-11785012D01*
Y-4461934*
X-11812114Y-4489061*
X-11893470*
X-11785012Y-4544306D02*
X-11893470Y-4652764D01*
Y-4544306D02*
X-11785012Y-4652764D01*
X-11757733Y-4377250D02*
Y-4350123D01*
X-11730605*
Y-4377250*
X-11757733*
Y-4486470D02*
Y-4459343D01*
X-11730605*
Y-4486470*
X-11757733*
Y-4595690D02*
Y-4568563D01*
X-11730605*
Y-4595690*
X-11757733*
Y-4704910D02*
Y-4677783D01*
X-11730605*
Y-4704910*
X-11757733*
X-10792101Y-3500011D02*
X-10792025Y-3492848D01*
X-10791745Y-3485685*
X-10791313Y-3478522*
X-10790704Y-3471385*
X-10789916Y-3464247*
X-10788951Y-3457161*
X-10787808Y-3450074*
X-10786487Y-3443013*
X-10785014Y-3436003*
X-10783338Y-3429043*
X-10781509Y-3422109*
X-10779528Y-3415225*
X-10777369Y-3408393*
X-10775032Y-3401611*
X-10772517Y-3394880*
X-10769876Y-3388225*
X-10767031Y-3381647*
X-10764059Y-3375119*
X-10760910Y-3368667*
X-10757608Y-3362317*
X-10754153Y-3356043*
X-10750546Y-3349846*
X-10746787Y-3343750*
X-10742876Y-3337730*
X-10738812Y-3331812*
X-10734621Y-3325995*
X-10730277Y-3320306*
X-10725807Y-3314692*
X-10721184Y-3309231*
X-10716434Y-3303846*
X-10711557Y-3298589*
X-10706554Y-3293458*
X-10701423Y-3288454*
X-10696165Y-3283577*
X-10690780Y-3278827*
X-10685319Y-3274205*
X-10679706Y-3269734*
X-10674016Y-3265391*
X-10668200Y-3261200*
X-10662281Y-3257136*
X-10656262Y-3253224*
X-10650166Y-3249465*
X-10643968Y-3245858*
X-10637694Y-3242404*
X-10631344Y-3239102*
X-10624893Y-3235952*
X-10618365Y-3232980*
X-10611786Y-3230136*
X-10605131Y-3227494*
X-10598400Y-3224979*
X-10591619Y-3222643*
X-10584786Y-3220484*
X-10577903Y-3218502*
X-10570968Y-3216674*
X-10564009Y-3214997*
X-10556998Y-3213524*
X-10549937Y-3212203*
X-10542851Y-3211060*
X-10535764Y-3210095*
X-10528627Y-3209308*
X-10521489Y-3208698*
X-10514326Y-3208266*
X-10507164Y-3207987*
X-10500001Y-3207911*
X-10492838Y-3207987*
X-10485675Y-3208266*
X-10478512Y-3208698*
X-10471375Y-3209308*
X-10464238Y-3210095*
X-10457151Y-3211060*
X-10450064Y-3212203*
X-10443003Y-3213524*
X-10435993Y-3214997*
X-10429033Y-3216674*
X-10422099Y-3218502*
X-10415216Y-3220484*
X-10408383Y-3222643*
X-10401601Y-3224979*
X-10394870Y-3227494*
X-10388215Y-3230136*
X-10381637Y-3232980*
X-10375109Y-3235952*
X-10368657Y-3239102*
X-10362307Y-3242404*
X-10356034Y-3245858*
X-10349836Y-3249465*
X-10343740Y-3253224*
X-10337720Y-3257136*
X-10331802Y-3261200*
X-10325985Y-3265391*
X-10320296Y-3269734*
X-10314682Y-3274205*
X-10309221Y-3278827*
X-10303837Y-3283577*
X-10298579Y-3288454*
X-10293448Y-3293458*
X-10288444Y-3298589*
X-10283567Y-3303846*
X-10278818Y-3309231*
X-10274195Y-3314692*
X-10269724Y-3320306*
X-10265381Y-3325995*
X-10261190Y-3331812*
X-10257126Y-3337730*
X-10253214Y-3343750*
X-10249455Y-3349846*
X-10245848Y-3356043*
X-10242394Y-3362317*
X-10239092Y-3368667*
X-10235942Y-3375119*
X-10232971Y-3381647*
X-10230126Y-3388225*
X-10227484Y-3394880*
X-10224970Y-3401611*
X-10222633Y-3408393*
X-10220474Y-3415225*
X-10218493Y-3422109*
X-10216664Y-3429043*
X-10214987Y-3436003*
X-10213514Y-3443013*
X-10212193Y-3450074*
X-10211050Y-3457161*
X-10210085Y-3464247*
X-10209298Y-3471385*
X-10208688Y-3478522*
X-10208256Y-3485685*
X-10207977Y-3492848*
X-10207901Y-3500011*
X-10207977Y-3507173*
X-10208256Y-3514336*
X-10208688Y-3521499*
X-10209298Y-3528636*
X-10210085Y-3535774*
X-10211050Y-3542860*
X-10212193Y-3549947*
X-10213514Y-3557008*
X-10214987Y-3564019*
X-10216664Y-3570978*
X-10218493Y-3577912*
X-10220474Y-3584796*
X-10222633Y-3591628*
X-10224970Y-3598410*
X-10227484Y-3605141*
X-10230126Y-3611796*
X-10232971Y-3618375*
X-10235942Y-3624902*
X-10239092Y-3631354*
X-10242394Y-3637704*
X-10245848Y-3643978*
X-10249455Y-3650175*
X-10253214Y-3656271*
X-10257126Y-3662291*
X-10261190Y-3668209*
X-10265381Y-3674026*
X-10269724Y-3679716*
X-10274195Y-3685329*
X-10278818Y-3690790*
X-10283567Y-3696175*
X-10288444Y-3701433*
X-10293448Y-3706563*
X-10298579Y-3711567*
X-10303837Y-3716444*
X-10309221Y-3721194*
X-10314682Y-3725817*
X-10320296Y-3730287*
X-10325985Y-3734630*
X-10331802Y-3738821*
X-10337720Y-3742885*
X-10343740Y-3746797*
X-10349836Y-3750556*
X-10356034Y-3754163*
X-10362307Y-3757617*
X-10368657Y-3760919*
X-10375109Y-3764069*
X-10381637Y-3767041*
X-10388215Y-3769886*
X-10394870Y-3772527*
X-10401601Y-3775042*
X-10408383Y-3777379*
X-10415216Y-3779538*
X-10422099Y-3781519*
X-10429033Y-3783348*
X-10435993Y-3785024*
X-10443003Y-3786497*
X-10450064Y-3787818*
X-10457151Y-3788961*
X-10464238Y-3789926*
X-10471375Y-3790714*
X-10478512Y-3791323*
X-10485675Y-3791755*
X-10492838Y-3792034*
X-10500001Y-3792111*
X-10507164Y-3792034*
X-10514326Y-3791755*
X-10521489Y-3791323*
X-10528627Y-3790714*
X-10535764Y-3789926*
X-10542851Y-3788961*
X-10549937Y-3787818*
X-10556998Y-3786497*
X-10564009Y-3785024*
X-10570968Y-3783348*
X-10577903Y-3781519*
X-10584786Y-3779538*
X-10591619Y-3777379*
X-10598400Y-3775042*
X-10605131Y-3772527*
X-10611786Y-3769886*
X-10618365Y-3767041*
X-10624893Y-3764069*
X-10631344Y-3760919*
X-10637694Y-3757617*
X-10643968Y-3754163*
X-10650166Y-3750556*
X-10656262Y-3746797*
X-10662281Y-3742885*
X-10668200Y-3738821*
X-10674016Y-3734630*
X-10679706Y-3730287*
X-10685319Y-3725817*
X-10690780Y-3721194*
X-10696165Y-3716444*
X-10701423Y-3711567*
X-10706554Y-3706563*
X-10711557Y-3701433*
X-10716434Y-3696175*
X-10721184Y-3690790*
X-10725807Y-3685329*
X-10730277Y-3679716*
X-10734621Y-3674026*
X-10738812Y-3668209*
X-10742876Y-3662291*
X-10746787Y-3656271*
X-10750546Y-3650175*
X-10754153Y-3643978*
X-10757608Y-3637704*
X-10760910Y-3631354*
X-10764059Y-3624902*
X-10767031Y-3618375*
X-10769876Y-3611796*
X-10772517Y-3605141*
X-10775032Y-3598410*
X-10777369Y-3591628*
X-10779528Y-3584796*
X-10781509Y-3577912*
X-10783338Y-3570978*
X-10785014Y-3564019*
X-10786487Y-3557008*
X-10787808Y-3549947*
X-10788951Y-3542860*
X-10789916Y-3535774*
X-10790704Y-3528636*
X-10791313Y-3521499*
X-10791745Y-3514336*
X-10792025Y-3507173*
X-10792101Y-3500011*
Y-9499999D02*
X-10792025Y-9492836D01*
X-10791745Y-9485673*
X-10791313Y-9478510*
X-10790704Y-9471373*
X-10789916Y-9464235*
X-10788951Y-9457149*
X-10787808Y-9450062*
X-10786487Y-9443001*
X-10785014Y-9435991*
X-10783338Y-9429031*
X-10781509Y-9422097*
X-10779528Y-9415213*
X-10777369Y-9408381*
X-10775032Y-9401599*
X-10772517Y-9394868*
X-10769876Y-9388213*
X-10767031Y-9381635*
X-10764059Y-9375107*
X-10760910Y-9368655*
X-10757608Y-9362305*
X-10754153Y-9356031*
X-10750546Y-9349834*
X-10746787Y-9343738*
X-10742876Y-9337718*
X-10738812Y-9331800*
X-10734621Y-9325983*
X-10730277Y-9320294*
X-10725807Y-9314680*
X-10721184Y-9309219*
X-10716434Y-9303834*
X-10711557Y-9298577*
X-10706554Y-9293446*
X-10701423Y-9288442*
X-10696165Y-9283565*
X-10690780Y-9278815*
X-10685319Y-9274193*
X-10679706Y-9269722*
X-10674016Y-9265379*
X-10668200Y-9261188*
X-10662281Y-9257124*
X-10656262Y-9253212*
X-10650166Y-9249453*
X-10643968Y-9245846*
X-10637694Y-9242392*
X-10631344Y-9239090*
X-10624893Y-9235940*
X-10618365Y-9232968*
X-10611786Y-9230124*
X-10605131Y-9227482*
X-10598400Y-9224967*
X-10591619Y-9222631*
X-10584786Y-9220472*
X-10577903Y-9218490*
X-10570968Y-9216662*
X-10564009Y-9214985*
X-10556998Y-9213512*
X-10549937Y-9212191*
X-10542851Y-9211048*
X-10535764Y-9210083*
X-10528627Y-9209296*
X-10521489Y-9208686*
X-10514326Y-9208254*
X-10507164Y-9207975*
X-10500001Y-9207899*
X-10492838Y-9207975*
X-10485675Y-9208254*
X-10478512Y-9208686*
X-10471375Y-9209296*
X-10464238Y-9210083*
X-10457151Y-9211048*
X-10450064Y-9212191*
X-10443003Y-9213512*
X-10435993Y-9214985*
X-10429033Y-9216662*
X-10422099Y-9218490*
X-10415216Y-9220472*
X-10408383Y-9222631*
X-10401601Y-9224967*
X-10394870Y-9227482*
X-10388215Y-9230124*
X-10381637Y-9232968*
X-10375109Y-9235940*
X-10368657Y-9239090*
X-10362307Y-9242392*
X-10356034Y-9245846*
X-10349836Y-9249453*
X-10343740Y-9253212*
X-10337720Y-9257124*
X-10331802Y-9261188*
X-10325985Y-9265379*
X-10320296Y-9269722*
X-10314682Y-9274193*
X-10309221Y-9278815*
X-10303837Y-9283565*
X-10298579Y-9288442*
X-10293448Y-9293446*
X-10288444Y-9298577*
X-10283567Y-9303834*
X-10278818Y-9309219*
X-10274195Y-9314680*
X-10269724Y-9320294*
X-10265381Y-9325983*
X-10261190Y-9331800*
X-10257126Y-9337718*
X-10253214Y-9343738*
X-10249455Y-9349834*
X-10245848Y-9356031*
X-10242394Y-9362305*
X-10239092Y-9368655*
X-10235942Y-9375107*
X-10232971Y-9381635*
X-10230126Y-9388213*
X-10227484Y-9394868*
X-10224970Y-9401599*
X-10222633Y-9408381*
X-10220474Y-9415213*
X-10218493Y-9422097*
X-10216664Y-9429031*
X-10214987Y-9435991*
X-10213514Y-9443001*
X-10212193Y-9450062*
X-10211050Y-9457149*
X-10210085Y-9464235*
X-10209298Y-9471373*
X-10208688Y-9478510*
X-10208256Y-9485673*
X-10207977Y-9492836*
X-10207901Y-9499999*
X-10207977Y-9507161*
X-10208256Y-9514324*
X-10208688Y-9521487*
X-10209298Y-9528624*
X-10210085Y-9535762*
X-10211050Y-9542848*
X-10212193Y-9549935*
X-10213514Y-9556996*
X-10214987Y-9564007*
X-10216664Y-9570966*
X-10218493Y-9577900*
X-10220474Y-9584784*
X-10222633Y-9591616*
X-10224970Y-9598398*
X-10227484Y-9605129*
X-10230126Y-9611784*
X-10232971Y-9618363*
X-10235942Y-9624890*
X-10239092Y-9631342*
X-10242394Y-9637692*
X-10245848Y-9643966*
X-10249455Y-9650163*
X-10253214Y-9656259*
X-10257126Y-9662279*
X-10261190Y-9668197*
X-10265381Y-9674014*
X-10269724Y-9679704*
X-10274195Y-9685317*
X-10278818Y-9690778*
X-10283567Y-9696163*
X-10288444Y-9701421*
X-10293448Y-9706551*
X-10298579Y-9711555*
X-10303837Y-9716432*
X-10309221Y-9721182*
X-10314682Y-9725805*
X-10320296Y-9730275*
X-10325985Y-9734618*
X-10331802Y-9738809*
X-10337720Y-9742873*
X-10343740Y-9746785*
X-10349836Y-9750544*
X-10356034Y-9754151*
X-10362307Y-9757605*
X-10368657Y-9760907*
X-10375109Y-9764057*
X-10381637Y-9767029*
X-10388215Y-9769874*
X-10394870Y-9772515*
X-10401601Y-9775030*
X-10408383Y-9777367*
X-10415216Y-9779526*
X-10422099Y-9781507*
X-10429033Y-9783336*
X-10435993Y-9785012*
X-10443003Y-9786485*
X-10450064Y-9787806*
X-10457151Y-9788949*
X-10464238Y-9789914*
X-10471375Y-9790702*
X-10478512Y-9791311*
X-10485675Y-9791743*
X-10492838Y-9792022*
X-10500001Y-9792099*
X-10507164Y-9792022*
X-10514326Y-9791743*
X-10521489Y-9791311*
X-10528627Y-9790702*
X-10535764Y-9789914*
X-10542851Y-9788949*
X-10549937Y-9787806*
X-10556998Y-9786485*
X-10564009Y-9785012*
X-10570968Y-9783336*
X-10577903Y-9781507*
X-10584786Y-9779526*
X-10591619Y-9777367*
X-10598400Y-9775030*
X-10605131Y-9772515*
X-10611786Y-9769874*
X-10618365Y-9767029*
X-10624893Y-9764057*
X-10631344Y-9760907*
X-10637694Y-9757605*
X-10643968Y-9754151*
X-10650166Y-9750544*
X-10656262Y-9746785*
X-10662281Y-9742873*
X-10668200Y-9738809*
X-10674016Y-9734618*
X-10679706Y-9730275*
X-10685319Y-9725805*
X-10690780Y-9721182*
X-10696165Y-9716432*
X-10701423Y-9711555*
X-10706554Y-9706551*
X-10711557Y-9701421*
X-10716434Y-9696163*
X-10721184Y-9690778*
X-10725807Y-9685317*
X-10730277Y-9679704*
X-10734621Y-9674014*
X-10738812Y-9668197*
X-10742876Y-9662279*
X-10746787Y-9656259*
X-10750546Y-9650163*
X-10754153Y-9643966*
X-10757608Y-9637692*
X-10760910Y-9631342*
X-10764059Y-9624890*
X-10767031Y-9618363*
X-10769876Y-9611784*
X-10772517Y-9605129*
X-10775032Y-9598398*
X-10777369Y-9591616*
X-10779528Y-9584784*
X-10781509Y-9577900*
X-10783338Y-9570966*
X-10785014Y-9564007*
X-10786487Y-9556996*
X-10787808Y-9549935*
X-10788951Y-9542848*
X-10789916Y-9535762*
X-10790704Y-9528624*
X-10791313Y-9521487*
X-10791745Y-9514324*
X-10792025Y-9507161*
X-10792101Y-9499999*
X-18792110D02*
X-18792034Y-9492836D01*
X-18791755Y-9485673*
X-18791323Y-9478510*
X-18790713Y-9471373*
X-18789926Y-9464235*
X-18788961Y-9457149*
X-18787818Y-9450062*
X-18786497Y-9443001*
X-18785024Y-9435991*
X-18783347Y-9429031*
X-18781518Y-9422097*
X-18779537Y-9415213*
X-18777378Y-9408381*
X-18775041Y-9401599*
X-18772527Y-9394868*
X-18769885Y-9388213*
X-18767040Y-9381635*
X-18764069Y-9375107*
X-18760919Y-9368655*
X-18757617Y-9362305*
X-18754163Y-9356031*
X-18750556Y-9349834*
X-18746797Y-9343738*
X-18742885Y-9337718*
X-18738821Y-9331800*
X-18734630Y-9325983*
X-18730287Y-9320294*
X-18725816Y-9314680*
X-18721193Y-9309219*
X-18716444Y-9303834*
X-18711567Y-9298577*
X-18706563Y-9293446*
X-18701432Y-9288442*
X-18696174Y-9283565*
X-18690790Y-9278815*
X-18685329Y-9274193*
X-18679715Y-9269722*
X-18674026Y-9265379*
X-18668209Y-9261188*
X-18662291Y-9257124*
X-18656271Y-9253212*
X-18650175Y-9249453*
X-18643977Y-9245846*
X-18637704Y-9242392*
X-18631354Y-9239090*
X-18624902Y-9235940*
X-18618374Y-9232968*
X-18611796Y-9230124*
X-18605141Y-9227482*
X-18598410Y-9224967*
X-18591628Y-9222631*
X-18584795Y-9220472*
X-18577912Y-9218490*
X-18570978Y-9216662*
X-18564018Y-9214985*
X-18557008Y-9213512*
X-18549947Y-9212191*
X-18542860Y-9211048*
X-18535773Y-9210083*
X-18528636Y-9209296*
X-18521499Y-9208686*
X-18514336Y-9208254*
X-18507173Y-9207975*
X-18500010Y-9207899*
X-18492847Y-9207975*
X-18485685Y-9208254*
X-18478522Y-9208686*
X-18471384Y-9209296*
X-18464247Y-9210083*
X-18457160Y-9211048*
X-18450074Y-9212191*
X-18443013Y-9213512*
X-18436002Y-9214985*
X-18429043Y-9216662*
X-18422108Y-9218490*
X-18415225Y-9220472*
X-18408392Y-9222631*
X-18401611Y-9224967*
X-18394880Y-9227482*
X-18388225Y-9230124*
X-18381646Y-9232968*
X-18375118Y-9235940*
X-18368667Y-9239090*
X-18362317Y-9242392*
X-18356043Y-9245846*
X-18349845Y-9249453*
X-18343749Y-9253212*
X-18337730Y-9257124*
X-18331811Y-9261188*
X-18325995Y-9265379*
X-18320305Y-9269722*
X-18314692Y-9274193*
X-18309231Y-9278815*
X-18303846Y-9283565*
X-18298588Y-9288442*
X-18293457Y-9293446*
X-18288454Y-9298577*
X-18283577Y-9303834*
X-18278827Y-9309219*
X-18274204Y-9314680*
X-18269734Y-9320294*
X-18265390Y-9325983*
X-18261199Y-9331800*
X-18257135Y-9337718*
X-18253224Y-9343738*
X-18249465Y-9349834*
X-18245858Y-9356031*
X-18242403Y-9362305*
X-18239101Y-9368655*
X-18235952Y-9375107*
X-18232980Y-9381635*
X-18230135Y-9388213*
X-18227494Y-9394868*
X-18224979Y-9401599*
X-18222642Y-9408381*
X-18220483Y-9415213*
X-18218502Y-9422097*
X-18216673Y-9429031*
X-18214997Y-9435991*
X-18213524Y-9443001*
X-18212203Y-9450062*
X-18211060Y-9457149*
X-18210095Y-9464235*
X-18209307Y-9471373*
X-18208698Y-9478510*
X-18208266Y-9485673*
X-18207986Y-9492836*
X-18207910Y-9499999*
X-18207986Y-9507161*
X-18208266Y-9514324*
X-18208698Y-9521487*
X-18209307Y-9528624*
X-18210095Y-9535762*
X-18211060Y-9542848*
X-18212203Y-9549935*
X-18213524Y-9556996*
X-18214997Y-9564007*
X-18216673Y-9570966*
X-18218502Y-9577900*
X-18220483Y-9584784*
X-18222642Y-9591616*
X-18224979Y-9598398*
X-18227494Y-9605129*
X-18230135Y-9611784*
X-18232980Y-9618363*
X-18235952Y-9624890*
X-18239101Y-9631342*
X-18242403Y-9637692*
X-18245858Y-9643966*
X-18249465Y-9650163*
X-18253224Y-9656259*
X-18257135Y-9662279*
X-18261199Y-9668197*
X-18265390Y-9674014*
X-18269734Y-9679704*
X-18274204Y-9685317*
X-18278827Y-9690778*
X-18283577Y-9696163*
X-18288454Y-9701421*
X-18293457Y-9706551*
X-18298588Y-9711555*
X-18303846Y-9716432*
X-18309231Y-9721182*
X-18314692Y-9725805*
X-18320305Y-9730275*
X-18325995Y-9734618*
X-18331811Y-9738809*
X-18337730Y-9742873*
X-18343749Y-9746785*
X-18349845Y-9750544*
X-18356043Y-9754151*
X-18362317Y-9757605*
X-18368667Y-9760907*
X-18375118Y-9764057*
X-18381646Y-9767029*
X-18388225Y-9769874*
X-18394880Y-9772515*
X-18401611Y-9775030*
X-18408392Y-9777367*
X-18415225Y-9779526*
X-18422108Y-9781507*
X-18429043Y-9783336*
X-18436002Y-9785012*
X-18443013Y-9786485*
X-18450074Y-9787806*
X-18457160Y-9788949*
X-18464247Y-9789914*
X-18471384Y-9790702*
X-18478522Y-9791311*
X-18485685Y-9791743*
X-18492847Y-9792022*
X-18500010Y-9792099*
X-18507173Y-9792022*
X-18514336Y-9791743*
X-18521499Y-9791311*
X-18528636Y-9790702*
X-18535773Y-9789914*
X-18542860Y-9788949*
X-18549947Y-9787806*
X-18557008Y-9786485*
X-18564018Y-9785012*
X-18570978Y-9783336*
X-18577912Y-9781507*
X-18584795Y-9779526*
X-18591628Y-9777367*
X-18598410Y-9775030*
X-18605141Y-9772515*
X-18611796Y-9769874*
X-18618374Y-9767029*
X-18624902Y-9764057*
X-18631354Y-9760907*
X-18637704Y-9757605*
X-18643977Y-9754151*
X-18650175Y-9750544*
X-18656271Y-9746785*
X-18662291Y-9742873*
X-18668209Y-9738809*
X-18674026Y-9734618*
X-18679715Y-9730275*
X-18685329Y-9725805*
X-18690790Y-9721182*
X-18696174Y-9716432*
X-18701432Y-9711555*
X-18706563Y-9706551*
X-18711567Y-9701421*
X-18716444Y-9696163*
X-18721193Y-9690778*
X-18725816Y-9685317*
X-18730287Y-9679704*
X-18734630Y-9674014*
X-18738821Y-9668197*
X-18742885Y-9662279*
X-18746797Y-9656259*
X-18750556Y-9650163*
X-18754163Y-9643966*
X-18757617Y-9637692*
X-18760919Y-9631342*
X-18764069Y-9624890*
X-18767040Y-9618363*
X-18769885Y-9611784*
X-18772527Y-9605129*
X-18775041Y-9598398*
X-18777378Y-9591616*
X-18779537Y-9584784*
X-18781518Y-9577900*
X-18783347Y-9570966*
X-18785024Y-9564007*
X-18786497Y-9556996*
X-18787818Y-9549935*
X-18788961Y-9542848*
X-18789926Y-9535762*
X-18790713Y-9528624*
X-18791323Y-9521487*
X-18791755Y-9514324*
X-18792034Y-9507161*
X-18792110Y-9499999*
X-18784109Y-3522998D02*
X-18784033Y-3515835D01*
X-18783754Y-3508672*
X-18783322Y-3501509*
X-18782712Y-3494372*
X-18781925Y-3487234*
X-18780960Y-3480148*
X-18779817Y-3473061*
X-18778496Y-3466000*
X-18777023Y-3458990*
X-18775346Y-3452030*
X-18773517Y-3445096*
X-18771536Y-3438212*
X-18769377Y-3431380*
X-18767040Y-3424598*
X-18764526Y-3417867*
X-18761884Y-3411212*
X-18759039Y-3404634*
X-18756068Y-3398106*
X-18752918Y-3391654*
X-18749616Y-3385304*
X-18746162Y-3379030*
X-18742555Y-3372833*
X-18738796Y-3366737*
X-18734884Y-3360717*
X-18730820Y-3354799*
X-18726629Y-3348982*
X-18722286Y-3343293*
X-18717815Y-3337679*
X-18713192Y-3332218*
X-18708443Y-3326833*
X-18703566Y-3321576*
X-18698562Y-3316445*
X-18693431Y-3311441*
X-18688173Y-3306564*
X-18682789Y-3301814*
X-18677328Y-3297192*
X-18671714Y-3292721*
X-18666025Y-3288378*
X-18660208Y-3284187*
X-18654290Y-3280123*
X-18648270Y-3276211*
X-18642174Y-3272452*
X-18635976Y-3268845*
X-18629703Y-3265391*
X-18623353Y-3262089*
X-18616901Y-3258939*
X-18610373Y-3255967*
X-18603795Y-3253123*
X-18597140Y-3250481*
X-18590409Y-3247966*
X-18583627Y-3245630*
X-18576794Y-3243471*
X-18569911Y-3241489*
X-18562977Y-3239661*
X-18556017Y-3237984*
X-18549007Y-3236511*
X-18541946Y-3235190*
X-18534859Y-3234047*
X-18527772Y-3233082*
X-18520635Y-3232295*
X-18513498Y-3231685*
X-18506335Y-3231253*
X-18499172Y-3230974*
X-18492009Y-3230898*
X-18484846Y-3230974*
X-18477684Y-3231253*
X-18470521Y-3231685*
X-18463383Y-3232295*
X-18456246Y-3233082*
X-18449159Y-3234047*
X-18442073Y-3235190*
X-18435012Y-3236511*
X-18428001Y-3237984*
X-18421042Y-3239661*
X-18414107Y-3241489*
X-18407224Y-3243471*
X-18400391Y-3245630*
X-18393610Y-3247966*
X-18386879Y-3250481*
X-18380224Y-3253123*
X-18373645Y-3255967*
X-18367117Y-3258939*
X-18360666Y-3262089*
X-18354316Y-3265391*
X-18348042Y-3268845*
X-18341844Y-3272452*
X-18335748Y-3276211*
X-18329729Y-3280123*
X-18323810Y-3284187*
X-18317994Y-3288378*
X-18312304Y-3292721*
X-18306691Y-3297192*
X-18301230Y-3301814*
X-18295845Y-3306564*
X-18290587Y-3311441*
X-18285456Y-3316445*
X-18280453Y-3321576*
X-18275576Y-3326833*
X-18270826Y-3332218*
X-18266203Y-3337679*
X-18261733Y-3343293*
X-18257389Y-3348982*
X-18253198Y-3354799*
X-18249134Y-3360717*
X-18245223Y-3366737*
X-18241464Y-3372833*
X-18237857Y-3379030*
X-18234402Y-3385304*
X-18231100Y-3391654*
X-18227951Y-3398106*
X-18224979Y-3404634*
X-18222134Y-3411212*
X-18219493Y-3417867*
X-18216978Y-3424598*
X-18214641Y-3431380*
X-18212482Y-3438212*
X-18210501Y-3445096*
X-18208672Y-3452030*
X-18206996Y-3458990*
X-18205523Y-3466000*
X-18204202Y-3473061*
X-18203059Y-3480148*
X-18202094Y-3487234*
X-18201306Y-3494372*
X-18200697Y-3501509*
X-18200265Y-3508672*
X-18199985Y-3515835*
X-18199909Y-3522998*
X-18199985Y-3530160*
X-18200265Y-3537323*
X-18200697Y-3544486*
X-18201306Y-3551623*
X-18202094Y-3558761*
X-18203059Y-3565847*
X-18204202Y-3572934*
X-18205523Y-3579995*
X-18206996Y-3587006*
X-18208672Y-3593965*
X-18210501Y-3600899*
X-18212482Y-3607783*
X-18214641Y-3614615*
X-18216978Y-3621397*
X-18219493Y-3628128*
X-18222134Y-3634783*
X-18224979Y-3641362*
X-18227951Y-3647889*
X-18231100Y-3654341*
X-18234402Y-3660691*
X-18237857Y-3666965*
X-18241464Y-3673162*
X-18245223Y-3679258*
X-18249134Y-3685278*
X-18253198Y-3691196*
X-18257389Y-3697013*
X-18261733Y-3702703*
X-18266203Y-3708316*
X-18270826Y-3713777*
X-18275576Y-3719162*
X-18280453Y-3724420*
X-18285456Y-3729550*
X-18290587Y-3734554*
X-18295845Y-3739431*
X-18301230Y-3744181*
X-18306691Y-3748804*
X-18312304Y-3753274*
X-18317994Y-3757617*
X-18323810Y-3761808*
X-18329729Y-3765872*
X-18335748Y-3769784*
X-18341844Y-3773543*
X-18348042Y-3777150*
X-18354316Y-3780604*
X-18360666Y-3783906*
X-18367117Y-3787056*
X-18373645Y-3790028*
X-18380224Y-3792873*
X-18386879Y-3795514*
X-18393610Y-3798029*
X-18400391Y-3800366*
X-18407224Y-3802525*
X-18414107Y-3804506*
X-18421042Y-3806335*
X-18428001Y-3808011*
X-18435012Y-3809484*
X-18442073Y-3810805*
X-18449159Y-3811948*
X-18456246Y-3812913*
X-18463383Y-3813701*
X-18470521Y-3814310*
X-18477684Y-3814742*
X-18484846Y-3815021*
X-18492009Y-3815098*
X-18499172Y-3815021*
X-18506335Y-3814742*
X-18513498Y-3814310*
X-18520635Y-3813701*
X-18527772Y-3812913*
X-18534859Y-3811948*
X-18541946Y-3810805*
X-18549007Y-3809484*
X-18556017Y-3808011*
X-18562977Y-3806335*
X-18569911Y-3804506*
X-18576794Y-3802525*
X-18583627Y-3800366*
X-18590409Y-3798029*
X-18597140Y-3795514*
X-18603795Y-3792873*
X-18610373Y-3790028*
X-18616901Y-3787056*
X-18623353Y-3783906*
X-18629703Y-3780604*
X-18635976Y-3777150*
X-18642174Y-3773543*
X-18648270Y-3769784*
X-18654290Y-3765872*
X-18660208Y-3761808*
X-18666025Y-3757617*
X-18671714Y-3753274*
X-18677328Y-3748804*
X-18682789Y-3744181*
X-18688173Y-3739431*
X-18693431Y-3734554*
X-18698562Y-3729550*
X-18703566Y-3724420*
X-18708443Y-3719162*
X-18713192Y-3713777*
X-18717815Y-3708316*
X-18722286Y-3702703*
X-18726629Y-3697013*
X-18730820Y-3691196*
X-18734884Y-3685278*
X-18738796Y-3679258*
X-18742555Y-3673162*
X-18746162Y-3666965*
X-18749616Y-3660691*
X-18752918Y-3654341*
X-18756068Y-3647889*
X-18759039Y-3641362*
X-18761884Y-3634783*
X-18764526Y-3628128*
X-18767040Y-3621397*
X-18769377Y-3614615*
X-18771536Y-3607783*
X-18773517Y-3600899*
X-18775346Y-3593965*
X-18777023Y-3587006*
X-18778496Y-3579995*
X-18779817Y-3572934*
X-18780960Y-3565847*
X-18781925Y-3558761*
X-18782712Y-3551623*
X-18783322Y-3544486*
X-18783754Y-3537323*
X-18784033Y-3530160*
X-18784109Y-3522998*
X-13650769Y-5494038D02*
X-13706649D01*
X-13935249D02*
X-13879369D01*
X-14529609Y-5227338D02*
Y-5120658D01*
X-14648989Y-5087638D02*
X-14715029D01*
X-14834409Y-5120658D02*
Y-5143518D01*
Y-5204478*
Y-5227338*
Y-5204478D02*
X-14832657Y-5204427D01*
X-14830929Y-5204274*
X-14829202Y-5204020*
X-14827500Y-5203690*
X-14825824Y-5203233*
X-14824173Y-5202700*
X-14822547Y-5202065*
X-14820973Y-5201353*
X-14819423Y-5200541*
X-14817925Y-5199652*
X-14816502Y-5198661*
X-14815105Y-5197594*
X-14813810Y-5196451*
X-14812540Y-5195232*
X-14811371Y-5193962*
X-14810279Y-5192616*
X-14809238Y-5191193*
X-14808298Y-5189746*
X-14807460Y-5188222*
X-14806672Y-5186647*
X-14806012Y-5185047*
X-14805428Y-5183421*
X-14804920Y-5181745*
X-14804539Y-5180043*
X-14804234Y-5178341*
X-14804031Y-5176614*
X-14803929Y-5174861*
Y-5173134*
X-14804031Y-5171381*
X-14804234Y-5169654*
X-14804539Y-5167952*
X-14804920Y-5166251*
X-14805428Y-5164574*
X-14806012Y-5162949*
X-14806672Y-5161348*
X-14807460Y-5159774*
X-14808298Y-5158250*
X-14809238Y-5156802*
X-14810279Y-5155379*
X-14811371Y-5154033*
X-14812540Y-5152763*
X-14813810Y-5151544*
X-14815105Y-5150401*
X-14816502Y-5149334*
X-14817925Y-5148344*
X-14819423Y-5147455*
X-14820973Y-5146642*
X-14822547Y-5145931*
X-14824173Y-5145296*
X-14825824Y-5144762*
X-14827500Y-5144305*
X-14829202Y-5143975*
X-14830929Y-5143721*
X-14832657Y-5143568*
X-14834409Y-5143518*
D1057*
X-14079013Y-3617994D02*
X-14015005D01*
Y-3682002*
X-14079013*
Y-3617994*
Y-3871994D02*
X-14015005D01*
Y-3936002*
X-14079013*
Y-3871994*
X-13825013Y-3617994D02*
X-13761005D01*
Y-3682002*
X-13825013*
Y-3617994*
Y-3871994D02*
X-13761005D01*
Y-3936002*
X-13825013*
Y-3871994*
X-13571013Y-3617994D02*
X-13507005D01*
Y-3682002*
X-13571013*
Y-3617994*
Y-3871994D02*
X-13507005D01*
Y-3936002*
X-13571013*
Y-3871994*
X-14333013Y-3617994D02*
X-14269005D01*
Y-3682002*
X-14333013*
Y-3617994*
Y-3871994D02*
X-14269005D01*
Y-3936002*
X-14333013*
Y-3871994*
X-14587013Y-3617994D02*
X-14523005D01*
Y-3682002*
X-14587013*
Y-3617994*
Y-3871994D02*
X-14523005D01*
Y-3936002*
X-14587013*
Y-3871994*
X-15476013Y-9078994D02*
X-15412005D01*
Y-9143002*
X-15476013*
Y-9078994*
Y-9332994D02*
X-15412005D01*
Y-9397002*
X-15476013*
Y-9332994*
X-15222013Y-9078994D02*
X-15158005D01*
Y-9143002*
X-15222013*
Y-9078994*
Y-9332994D02*
X-15158005D01*
Y-9397002*
X-15222013*
Y-9332994*
X-14968013Y-9078994D02*
X-14904005D01*
Y-9143002*
X-14968013*
Y-9078994*
Y-9332994D02*
X-14904005D01*
Y-9397002*
X-14968013*
Y-9332994*
X-15730013Y-9078994D02*
X-15666005D01*
Y-9143002*
X-15730013*
Y-9078994*
Y-9332994D02*
X-15666005D01*
Y-9397002*
X-15730013*
Y-9332994*
X-15984013Y-9078994D02*
X-15920005D01*
Y-9143002*
X-15984013*
Y-9078994*
Y-9332994D02*
X-15920005D01*
Y-9397002*
X-15984013*
Y-9332994*
X-17381013Y-3617994D02*
X-17317005D01*
Y-3682002*
X-17381013*
Y-3617994*
Y-3871994D02*
X-17317005D01*
Y-3936002*
X-17381013*
Y-3871994*
X-17635013Y-3617994D02*
X-17571005D01*
Y-3682002*
X-17635013*
Y-3617994*
Y-3871994D02*
X-17571005D01*
Y-3936002*
X-17635013*
Y-3871994*
X-17889013Y-3617994D02*
X-17825005D01*
Y-3682002*
X-17889013*
Y-3617994*
Y-3871994D02*
X-17825005D01*
Y-3936002*
X-17889013*
Y-3871994*
X-18270013Y-5776994D02*
X-18206005D01*
Y-5841002*
X-18270013*
Y-5776994*
Y-6030994D02*
X-18206005D01*
Y-6095002*
X-18270013*
Y-6030994*
X-18524013Y-5776994D02*
X-18460005D01*
Y-5841002*
X-18524013*
Y-5776994*
Y-6030994D02*
X-18460005D01*
Y-6095002*
X-18524013*
Y-6030994*
X-18778013Y-5776994D02*
X-18714005D01*
Y-5841002*
X-18778013*
Y-5776994*
Y-6030994D02*
X-18714005D01*
Y-6095002*
X-18778013*
Y-6030994*
X-14679469Y-4108010D02*
X-14655746Y-4084287D01*
Y-4155458*
X-14679469D02*
X-14632022D01*
Y-3469658D02*
X-14679469D01*
X-14632022Y-3422210*
Y-3410349*
X-14643884Y-3398487*
X-14667607*
X-14679469Y-3410349*
X-16076469Y-9569010D02*
X-16052746Y-9545287D01*
Y-9616458*
X-16076469D02*
X-16029022D01*
Y-8930658D02*
X-16076469D01*
X-16029022Y-8883210*
Y-8871349*
X-16040884Y-8859487*
X-16064607*
X-16076469Y-8871349*
X-17981469Y-4108010D02*
X-17957746Y-4084287D01*
Y-4155458*
X-17981469D02*
X-17934022D01*
Y-3469658D02*
X-17981469D01*
X-17934022Y-3422210*
Y-3410349*
X-17945884Y-3398487*
X-17969607*
X-17981469Y-3410349*
X-18870469Y-6267010D02*
X-18846746Y-6243287D01*
Y-6314458*
X-18870469D02*
X-18823022D01*
Y-5628658D02*
X-18870469D01*
X-18823022Y-5581210*
Y-5569349*
X-18834884Y-5557487*
X-18858607*
X-18870469Y-5569349*
X-14462248Y-6555834D02*
X-14569716D01*
Y-6553421D02*
X-14462248D01*
Y-6551008D02*
X-14569716D01*
Y-6548595D02*
X-14462248D01*
Y-6546182D02*
X-14569716D01*
Y-6543769D02*
X-14462248D01*
Y-6541356D02*
X-14569716D01*
X-12682978Y-9079273D02*
Y-9097993D01*
X-12684274Y-9079273D02*
Y-9096723D01*
X-12682978Y-9097993D02*
X-12791716D01*
Y-9096723D02*
X-12684274D01*
X-12791716*
X-12684274Y-9094310D02*
X-12791716D01*
Y-9091897D02*
X-12684274D01*
Y-9089484D02*
X-12791716D01*
Y-9087071D02*
X-12684274D01*
Y-9084658D02*
X-12791716D01*
Y-9082245D02*
X-12684274D01*
Y-9079832D02*
X-12791716D01*
D12*
X-10021338Y-5245295D02*
X-10747930D01*
Y-4501279D02*
X-10021338D01*
X-18560996Y-6697998D02*
X-18978673D01*
Y-7967998D02*
X-18560996D01*
D1056*
X-18619009Y-5212098D02*
X-18589139D01*
X-18394880D02*
X-18335139D01*
X-16870880D02*
X-16811139D01*
X-18140880D02*
X-18081139D01*
X-17886880D02*
X-17827139D01*
X-17124880D02*
X-17065139D01*
X-17632880D02*
X-17573139D01*
X-17378880D02*
X-17319139D01*
X-16616880D02*
X-16557139D01*
X-16362880D02*
X-16303139D01*
X-16108880D02*
X-16049139D01*
X-15854880D02*
X-15795139D01*
X-15600880D02*
X-15541139D01*
X-15346880D02*
X-15287139D01*
X-15092880D02*
X-15063009D01*
Y-4627898D02*
X-15092880D01*
X-15287139D02*
X-15346880D01*
X-15541139D02*
X-15600880D01*
X-15795139D02*
X-15854880D01*
X-16049139D02*
X-16108880D01*
X-16303139D02*
X-16362880D01*
X-16557139D02*
X-16616880D01*
X-16811139D02*
X-16870880D01*
X-17065139D02*
X-17124880D01*
X-17319139D02*
X-17378880D01*
X-17573139D02*
X-17632880D01*
X-17827139D02*
X-17886880D01*
X-18081139D02*
X-18140880D01*
X-18335139D02*
X-18394880D01*
X-18589139D02*
X-18619009D01*
D12*
X-14628949Y-4027010D02*
X-14634994D01*
X-14474999D02*
X-14481044D01*
X-16025949Y-9488010D02*
X-16031994D01*
X-15871999D02*
X-15878044D01*
X-17930949Y-4027010D02*
X-17936994D01*
X-17776999D02*
X-17783044D01*
X-18819949Y-6186010D02*
X-18825994D01*
X-18665999D02*
X-18672044D01*
D1057*
X-16679694Y-8702997D02*
X-16683097Y-8701600D01*
X-16490921D02*
X-16494325Y-8702997D01*
X-16683097Y-8250395D02*
X-16679694Y-8248998D01*
X-16494325D02*
X-16490921Y-8250395D01*
X-13885694Y-4892997D02*
X-13889097Y-4891600D01*
X-13696921D02*
X-13700325Y-4892997D01*
X-13889097Y-4440395D02*
X-13885694Y-4438998D01*
X-13700325D02*
X-13696921Y-4440395D01*
X-13863266Y-4295564D02*
X-13850515Y-4308315D01*
X-13813304D02*
X-13800553Y-4295564D01*
X-13707005D02*
X-13719756Y-4308315D01*
X-13756967D02*
X-13769717Y-4295564D01*
D1059*
X-16156759Y-7218012D02*
X-16219014D01*
X-15939004D02*
X-16001234D01*
X-16219014D02*
Y-7345240D01*
X-15939004D02*
Y-7218012D01*
X-16101234Y-7448009D02*
X-16056759D01*
X-16791759Y-7218012D02*
X-16854014D01*
X-16574004D02*
X-16636234D01*
X-16854014D02*
Y-7345240D01*
X-16574004D02*
Y-7218012D01*
X-16736234Y-7448009D02*
X-16691759D01*
X-14477234Y-7702009D02*
X-14415004D01*
X-14695014D02*
X-14632759D01*
D1057*
X-14438118Y-7390097D02*
X-14452317Y-7404321D01*
X-14501872D02*
X-14516071Y-7390097D01*
X-14382315Y-7409604D02*
X-14321177D01*
D1059*
X-14415004Y-7702009D02*
Y-7574755D01*
D1057*
X-14749954Y-7409604D02*
X-14727678D01*
X-14686200Y-7404321D02*
X-14672002Y-7390097D01*
X-14555060Y-7409604D02*
X-14582314D01*
X-14627729Y-7404321D02*
X-14555060Y-7331626D01*
D1059*
X-14695014Y-7574755D02*
Y-7702009D01*
X-14532759Y-7472012D02*
X-14577234D01*
X-15112234Y-7702009D02*
X-15050004D01*
X-15330014D02*
X-15267759D01*
D1057*
X-15073347Y-7387481D02*
X-15090187Y-7404321D01*
X-15134434D02*
X-15151300Y-7387481D01*
X-14956405Y-7406962D02*
X-15017315D01*
X-15031716Y-7404321D02*
X-14956405Y-7329010D01*
D1059*
X-15050004Y-7702009D02*
Y-7574755D01*
D1057*
X-15385183Y-7406962D02*
X-15362678D01*
X-15324070Y-7404321D02*
X-15307205Y-7387481D01*
X-15190263Y-7406962D02*
X-15217314D01*
X-15265600Y-7404321D02*
X-15190263Y-7329010D01*
D1059*
X-15330014Y-7574755D02*
Y-7702009D01*
X-15167759Y-7472012D02*
X-15212234D01*
D1105*
X-14631006Y-6742676D02*
Y-6462997D01*
X-14220694D02*
X-13971012D01*
X-14631006D02*
X-14381299D01*
X-13971012D02*
Y-6742676D01*
X-14126283Y-6932998D02*
X-14475685D01*
X-12853006Y-9282676D02*
Y-9002997D01*
X-12442694D02*
X-12193012D01*
X-12853006D02*
X-12603299D01*
X-12193012D02*
Y-9282676D01*
X-12348283Y-9472998D02*
X-12697685D01*
D12*
X-13872994Y-3527011D02*
X-13866949D01*
X-13719044D02*
X-13712999D01*
X-14126994D02*
X-14120949D01*
X-13973044D02*
X-13966999D01*
X-14380994D02*
X-14374949D01*
X-14227044D02*
X-14220999D01*
X-14634994D02*
X-14628949D01*
X-14481044D02*
X-14474999D01*
X-13618994D02*
X-13612949D01*
X-13465044D02*
X-13458999D01*
X-13966999Y-4027010D02*
X-13973044D01*
X-14120949D02*
X-14126994D01*
X-13712999D02*
X-13719044D01*
X-13866949D02*
X-13872994D01*
X-13458999D02*
X-13465044D01*
X-13612949D02*
X-13618994D01*
X-14220999D02*
X-14227044D01*
X-14374949D02*
X-14380994D01*
X-15269994Y-8988011D02*
X-15263949D01*
X-15116044D02*
X-15109999D01*
X-15523994D02*
X-15517949D01*
X-15370044D02*
X-15363999D01*
X-15777994D02*
X-15771949D01*
X-15624044D02*
X-15617999D01*
X-16031994D02*
X-16025949D01*
X-15878044D02*
X-15871999D01*
X-15015994D02*
X-15009949D01*
X-14862044D02*
X-14855999D01*
X-15363999Y-9488010D02*
X-15370044D01*
X-15517949D02*
X-15523994D01*
X-15109999D02*
X-15116044D01*
X-15263949D02*
X-15269994D01*
X-14855999D02*
X-14862044D01*
X-15009949D02*
X-15015994D01*
X-15617999D02*
X-15624044D01*
X-15771949D02*
X-15777994D01*
X-17428994Y-3527011D02*
X-17422949D01*
X-17275044D02*
X-17268999D01*
X-17682994D02*
X-17676949D01*
X-17529044D02*
X-17522999D01*
X-17936994D02*
X-17930949D01*
X-17783044D02*
X-17776999D01*
X-17268999Y-4027010D02*
X-17275044D01*
X-17422949D02*
X-17428994D01*
X-17522999D02*
X-17529044D01*
X-17676949D02*
X-17682994D01*
X-18317994Y-5686011D02*
X-18311949D01*
X-18164044D02*
X-18157999D01*
X-18571994D02*
X-18565949D01*
X-18418044D02*
X-18411999D01*
X-18825994D02*
X-18819949D01*
X-18672044D02*
X-18665999D01*
X-18157999Y-6186010D02*
X-18164044D01*
X-18311949D02*
X-18317994D01*
X-18411999D02*
X-18418044D01*
X-18565949D02*
X-18571994D01*
D1057*
X-12654911Y-7348517D02*
X-12578686D01*
X-15859325Y-7796954D02*
X-15858613Y-7797335D01*
X-16045405D02*
X-16044694Y-7796954D01*
X-15859325Y-7757990D02*
X-15742002D01*
X-16161991D02*
X-16044694D01*
X-15858613Y-8138660D02*
X-15859325Y-8139041D01*
X-16044694D02*
X-16045405Y-8138660D01*
D1060*
X-13935249Y-5413215D02*
Y-5494038D01*
X-13650769Y-5413215D02*
Y-5494038D01*
D1059*
X-16046015Y-5843770D02*
Y-6028225D01*
X-16248224Y-5686011D02*
X-16163744D01*
Y-6186010D02*
X-16248224D01*
X-16366004Y-6028225D02*
Y-5843770D01*
D1057*
X-17985178Y-8314149D02*
Y-8217680D01*
X-17907225D02*
Y-8255678D01*
X-17868236Y-8314149D02*
Y-8217680D01*
X-17790283D02*
Y-8255678D01*
D1059*
X-10210009Y-7820500D02*
X-10452427D01*
X-10467565D02*
X-11089992D01*
X-10452427Y-6855503D02*
X-10210009D01*
X-11089992D02*
X-10467565D01*
X-11170002Y-7297742D02*
Y-7238002D01*
Y-7438001D02*
Y-7378260D01*
M02*
